<?xml version="1.0" standalone="no"?>
<!DOCTYPE svg PUBLIC "-//W3C//DTD SVG 1.1//EN" "http://www.w3.org/Graphics/SVG/1.1/DTD/svg11.dtd" >
<svg xmlns="http://www.w3.org/2000/svg">
<metadata>
<json>
<![CDATA[
{
	"fontFamily": "icomoon",
	"description": "Font generated by IcoMoon.",
	"version": "Version 1.0",
	"majorVersion": 0,
	"fontId": "icomoon",
	"psName": "icomoon",
	"subFamily": "Regular",
	"fullName": "icomoon"
}
]]>
</json>
</metadata>
<defs>
<font id="icomoon" horiz-adv-x="1024">
<font-face units-per-em="1024" ascent="960" descent="-64" />
<missing-glyph horiz-adv-x="1024" />
<glyph unicode="&#x20;" horiz-adv-x="512" d="" />
<glyph unicode="&#xe900;" glyph-name="rss-circle" data-tags="RSS" d="M512 960c282.77 0 512-229.23 512-512s-229.23-512-512-512c-282.77 0-512 229.23-512 512s229.23 512 512 512zM392.716 638.702c-18.051 0-36.292-1.738-54.153-5.168-9.668-1.857-16.027-11.24-14.169-20.909 1.619-8.383 9.002-14.479 17.551-14.479 1.095 0 2.215 0.095 3.358 0.31 15.67 3.024 31.625 4.548 47.437 4.548 119.951 0 223.47-85.564 246.117-203.466 7.239-37.697 5.668-77.133-4.548-114.093-1.262-4.596-0.667-9.407 1.691-13.574 2.358-4.144 6.192-7.12 10.764-8.383 1.548-0.429 3.143-0.643 4.763-0.643 8.001 0 15.074 5.382 17.17 13.098 11.693 42.222 13.503 87.302 5.215 130.334-25.862 134.668-144.146 232.424-281.195 232.424zM392.24 531.682c-20.337 0-40.484-3.477-59.892-10.311-9.287-3.263-14.193-13.479-10.907-22.79 2.524-7.144 9.287-11.931 16.86-11.931 2.024 0 4.025 0.357 5.93 1.024 15.598 5.477 31.744 8.263 48.033 8.263 21.552 0 42.484-4.787 62.202-14.241 34.721-16.646 60.916-45.842 73.704-82.182 12.788-36.316 10.669-75.443-5.953-110.163-2.048-4.287-2.31-9.145-0.738-13.645 1.596-4.501 4.834-8.121 9.121-10.169 2.429-1.167 5.025-1.762 7.716-1.762 6.835 0 13.169 3.977 16.122 10.145 20.742 43.318 23.385 92.136 7.43 137.454-15.955 45.366-48.628 81.777-91.969 102.543-24.6 11.788-50.724 17.765-77.657 17.765zM392.93 424.257c-39.388 0-71.442-32.054-71.442-71.442s32.054-71.442 71.442-71.442c39.388 0 71.442 32.054 71.442 71.442s-32.054 71.442-71.442 71.442zM392.93 388.537c19.694 0 35.721-16.027 35.721-35.721s-16.027-35.721-35.721-35.721c-19.694 0-35.721 16.027-35.721 35.721s16.027 35.721 35.721 35.721z" />
<glyph unicode="&#xe901;" glyph-name="aman-service" data-tags="Aman Service" horiz-adv-x="815" d="M772.52 237.914c-0.119 0.194-0.236 0.39-0.356 0.586-0.869 1.406-1.759 2.8-2.67 4.184-0.501 0.764-1.006 1.526-1.519 2.282-0.624 0.918-1.254 1.832-1.899 2.74-0.83 1.178-1.677 2.342-2.535 3.498-0.257 0.344-0.495 0.696-0.751 1.038-0.184 0.242-0.378 0.472-0.562 0.714-1.034 1.358-2.091 2.696-3.163 4.020-0.376 0.464-0.747 0.93-1.125 1.388-1.069 1.292-2.161 2.564-3.266 3.824-0.461 0.526-0.915 1.056-1.38 1.576-0.921 1.028-1.866 2.034-2.812 3.038-0.705 0.752-1.404 1.508-2.121 2.246-0.537 0.552-1.093 1.088-1.638 1.632-20.918 20.964-46.694 36.274-75.716 44.734-0.497 0.146-1.002 0.266-1.513 0.36-0.006 0-136.943 25.188-136.949 25.19-0.242 0.044-0.485 0.056-0.727 0.094-6.407 1.032-12.954 0.182-18.829-2.366-4.767 5.796-7.908 13.758-7.908 21.114v24.548c8.655 5.472 17.060 11.622 25.172 18.538 33.936 28.932 55.309 70.694 59.92 116.252 24.917 1.14 44.832 21.568 44.832 46.516v34.976c0 14.144-6.401 27.232-17.177 35.968v80.404c49.516 24.162 60.276 52.332 60.276 72.208 0 34.104-32.080 76.792-83.721 111.408-33.084 22.174-102.35 59.376-194.538 59.376s-161.452-37.202-194.536-59.376c-51.641-34.614-83.721-77.302-83.721-111.408 0-19.876 10.76-48.046 60.276-72.208v-80.404c-10.774-8.736-17.177-21.824-17.177-35.968v-34.976c0-24.948 19.914-45.376 44.832-46.516 4.609-45.558 25.984-87.322 59.92-116.252 8.112-6.916 16.517-13.066 25.172-18.538v-24.548c0-7.356-3.141-15.316-7.908-21.112-6.098 2.646-12.921 3.494-19.557 2.27l-136.947-25.19c-0.511-0.094-1.016-0.214-1.513-0.36-29.008-8.456-54.771-23.754-75.685-44.702-0.56-0.558-1.125-1.108-1.677-1.672-0.707-0.726-1.396-1.474-2.091-2.214-0.955-1.016-1.909-2.032-2.842-3.070-0.459-0.512-0.907-1.036-1.361-1.554-1.111-1.266-2.208-2.544-3.28-3.842-0.378-0.456-0.745-0.92-1.119-1.38-1.075-1.328-2.133-2.666-3.167-4.024-0.184-0.242-0.378-0.47-0.562-0.714-0.259-0.342-0.497-0.694-0.751-1.038-0.858-1.156-1.705-2.32-2.535-3.498-0.644-0.91-1.277-1.826-1.901-2.744-0.511-0.754-1.014-1.512-1.513-2.274-0.911-1.386-1.804-2.782-2.674-4.188-0.119-0.194-0.238-0.39-0.356-0.584-16.743-27.318-25.548-58.338-25.548-90.692v-18.288c0-8.288 6.785-15.004 15.153-15.004s15.153 6.718 15.153 15.004v18.288c0 14.624 2.19 28.914 6.407 42.566 8.918-7.022 19.74-10.762 30.989-10.762 1.798 0 3.61 0.096 5.421 0.29 13.269 1.408 25.19 7.85 33.567 18.136l16.49 20.25c8.377 10.286 12.206 23.188 10.784 36.326-1.131 10.44-5.482 20.032-12.43 27.696 4.355 1.754 8.803 3.336 13.362 4.69l87.383 16.072 69.339-96.074c6.94-9.612 17.807-14.912 29.078-14.912 4.729 0 9.528 0.932 14.137 2.87l4.615 1.942 20.179-23.228-29.105-207.076h-190.424v121.666c0 8.288-6.785 15.004-15.153 15.004s-15.153-6.716-15.153-15.004v-121.666h-60.617c-10.404 0-18.866 8.38-18.866 18.68v74.428c0 8.288-6.785 15.004-15.153 15.004s-15.157-6.718-15.157-15.004v-74.428c0-26.846 22.063-48.69 49.178-48.69h698.092c27.115 0 49.174 21.844 49.174 48.69v162.53c0 32.356-8.807 63.376-25.55 90.694zM101.212 236.536l-16.49-20.252c-3.294-4.046-7.983-6.578-13.202-7.134-5.211-0.552-10.344 0.936-14.43 4.2l-6.324 5.048c1.357 2.396 2.779 4.748 4.262 7.054 0.016 0.026 0.036 0.052 0.053 0.080 1.273 1.976 2.612 3.9 3.975 5.806 0.414 0.576 0.826 1.152 1.248 1.724 1.216 1.648 2.466 3.266 3.749 4.858 0.331 0.412 0.656 0.83 0.992 1.238 1.448 1.758 2.943 3.474 4.472 5.16 0.446 0.494 0.901 0.978 1.353 1.464 1.515 1.626 3.054 3.228 4.644 4.782 0.135 0.134 0.269 0.272 0.406 0.406 5.86 5.69 12.212 10.902 19.013 15.578l3.321-2.652c4.086-3.262 6.645-7.904 7.205-13.072 0.555-5.166-0.949-10.238-4.246-14.288zM701.442 263.9l3.321 2.652c6.803-4.676 13.154-9.888 19.013-15.578 0.137-0.134 0.269-0.272 0.406-0.406 1.59-1.556 3.129-3.158 4.644-4.782 0.452-0.486 0.907-0.97 1.353-1.464 1.529-1.686 3.024-3.404 4.472-5.16 0.335-0.408 0.661-0.826 0.992-1.238 1.283-1.592 2.533-3.212 3.749-4.858 0.422-0.57 0.836-1.148 1.248-1.724 1.363-1.906 2.703-3.832 3.975-5.806 0.018-0.026 0.036-0.052 0.053-0.080 1.485-2.306 2.907-4.658 4.262-7.054l-6.324-5.048c-4.088-3.262-9.217-4.75-14.43-4.2-5.219 0.554-9.908 3.088-13.204 7.136l-16.49 20.25c-6.803 8.352-5.472 20.624 2.961 27.36zM520.514 307.906c0.020 0.014 0.040 0.030 0.061 0.046l3.965 2.936c0.705 0.522 1.608 0.724 2.468 0.57l15.895-2.924-61.11-84.672c-1.529-2.12-4.288-2.888-6.71-1.87l-45.052 18.95 90.483 66.964zM399.846 256.070l-88.304 65.352c8.342 10.844 13.378 24.646 13.378 38.384v8.784c23.374-9.696 48.35-14.766 74.758-15.058 0.057 0 0.113 0 0.17 0s0.113 0 0.17 0c26.408 0.294 51.384 5.364 74.758 15.058v-8.784c0-13.74 5.036-27.54 13.376-38.384l-88.306-65.352zM429.344 208.626l-13.804-15.89h-31.383l-13.804 15.89 29.495 12.406 29.497-12.406zM181.865 751.212c-19.476 11.888-29.967 25.020-29.967 38.006 0 27.048 36.493 63.828 70.401 86.556 30.21 20.246 93.444 54.216 177.547 54.216s147.337-33.97 177.547-54.218c33.908-22.728 70.401-59.508 70.401-86.556 0-12.984-10.491-26.118-29.967-38.006v27.286c0 21.19-14.485 39.656-35.227 44.906-39.232 9.928-116.378 26.584-192.241 26.614-0.069 0-0.125 0-0.194 0-65.693 0-130.96-14.322-174.151-26.342-20.106-5.596-34.148-23.944-34.148-44.618v-27.844zM234.42 698.532c-0.212 0.134-0.428 0.266-0.638 0.4-0.982 0.622-1.927 1.248-2.846 1.876-0.374 0.256-0.743 0.512-1.107 0.77-0.751 0.528-1.481 1.060-2.188 1.592-0.487 0.368-0.957 0.736-1.422 1.104-0.557 0.44-1.105 0.88-1.63 1.322-0.56 0.472-1.091 0.942-1.612 1.414-0.392 0.354-0.788 0.706-1.159 1.060-0.594 0.568-1.149 1.134-1.689 1.7-0.259 0.27-0.529 0.542-0.776 0.812-0.026 0.030-0.048 0.060-0.075 0.088h254.414c8.368 0 15.153 6.718 15.153 15.004 0 8.288-6.785 15.004-15.153 15.004h-261.52v38.376c0 7.288 4.951 13.756 12.041 15.728 41.361 11.512 103.703 25.224 165.951 25.224 0.057 0 0.123 0 0.18 0 72.553-0.030 146.895-16.1 184.75-25.68 7.314-1.85 12.422-8.36 12.422-15.83v-37.816h-40.64c-8.368 0-15.153-6.718-15.153-15.004 0-8.29 6.785-15.006 15.155-15.006h33.542c-0.026-0.030-0.048-0.060-0.075-0.088-0.246-0.27-0.517-0.542-0.776-0.812-0.541-0.566-1.095-1.132-1.689-1.7-0.372-0.354-0.768-0.706-1.159-1.060-0.521-0.472-1.052-0.942-1.612-1.414-0.525-0.442-1.073-0.882-1.63-1.322-0.465-0.368-0.935-0.736-1.422-1.104-0.707-0.532-1.436-1.064-2.188-1.592-0.364-0.256-0.733-0.514-1.107-0.77-0.921-0.628-1.864-1.254-2.846-1.876-0.21-0.134-0.424-0.266-0.638-0.4-6.298-3.924-13.802-7.71-22.378-11.222-0.18-0.074-0.341-0.178-0.517-0.258-32.468-13.252-81.258-23.266-142.534-23.266s-110.066 10.014-142.534 23.266c-0.176 0.080-0.337 0.184-0.517 0.258-8.576 3.512-16.080 7.298-22.378 11.222zM235.85 663.664v-29.232c-8.332 4.276-16.763 6.576-23.675 7.806v34.868c6.5-4.574 14.317-9.090 23.675-13.442zM563.843 663.666c9.358 4.35 17.173 8.866 23.675 13.44v-34.864c-6.912-1.23-15.343-3.532-23.675-7.808v29.232zM289.214 425.634c-31.036 26.458-49.366 66.11-50.291 108.788-0.176 8.158-6.908 14.682-15.149 14.682h-12.057c-9.219 0-16.721 7.426-16.721 16.556v34.976c0 5.034 2.293 9.698 6.149 12.806 5.343-0.468 15.317-2.054 23.776-7.374 0.085-0.054 0.168-0.106 0.252-0.16 1.194-0.764 2.353-1.606 3.466-2.528 0.129-0.106 0.259-0.214 0.386-0.324 0.541-0.462 1.073-0.938 1.588-1.442 0.45-0.44 0.921-0.85 1.402-1.242 0.141-0.116 0.285-0.224 0.428-0.336 0.364-0.282 0.733-0.55 1.111-0.804 0.149-0.1 0.295-0.202 0.446-0.298 0.513-0.328 1.032-0.638 1.567-0.916 0.002-0.002 0.006-0.004 0.008-0.006 0.543-0.282 1.099-0.534 1.662-0.766 0.156-0.064 0.313-0.122 0.471-0.182 0.428-0.166 0.858-0.316 1.295-0.452 0.164-0.052 0.325-0.104 0.491-0.15 0.572-0.164 1.147-0.308 1.729-0.422 0.010-0.002 0.018-0.004 0.028-0.006 0.598-0.116 1.202-0.198 1.808-0.262 0.164-0.018 0.327-0.028 0.489-0.040 0.459-0.038 0.919-0.060 1.382-0.066 0.105-0.002 0.208-0.014 0.311-0.014 0.067 0 0.135 0.010 0.202 0.010 0.596 0.006 1.194 0.030 1.792 0.086 0.016 0.002 0.032 0.002 0.046 0.002 0.612 0.060 1.224 0.154 1.834 0.27 0.172 0.032 0.343 0.072 0.515 0.108 0.452 0.098 0.903 0.21 1.353 0.336 0.178 0.050 0.356 0.098 0.533 0.154 0.598 0.188 1.192 0.392 1.78 0.634 7.813 3.23 12.861 10.726 12.861 19.102v35.884c39.020-12.168 86.999-18.46 133.689-18.46s94.668 6.292 133.689 18.46v-35.884c0-8.376 5.048-15.874 12.861-19.102 0.59-0.244 1.188-0.45 1.788-0.638 0.17-0.052 0.339-0.098 0.509-0.148 0.461-0.13 0.923-0.246 1.388-0.344 0.162-0.034 0.323-0.072 0.487-0.102 1.226-0.232 2.462-0.35 3.694-0.36 0.063 0 0.127-0.010 0.19-0.010 0.097 0 0.194 0.012 0.293 0.014 0.475 0.006 0.947 0.030 1.42 0.068 0.154 0.012 0.307 0.022 0.461 0.038 1.212 0.126 2.41 0.358 3.581 0.694 0.16 0.046 0.317 0.096 0.477 0.146 0.44 0.136 0.875 0.29 1.307 0.456 0.156 0.060 0.313 0.118 0.467 0.182 0.564 0.232 1.121 0.484 1.664 0.766 0.004 0.002 0.008 0.004 0.012 0.006 0.533 0.278 1.052 0.588 1.563 0.914 0.151 0.096 0.299 0.2 0.45 0.3 0.376 0.254 0.745 0.522 1.107 0.802 0.145 0.112 0.291 0.222 0.432 0.338 0.481 0.394 0.951 0.802 1.4 1.242 0.509 0.5 1.038 0.97 1.573 1.428 0.139 0.12 0.281 0.238 0.422 0.356 0.497 0.412 1 0.81 1.515 1.188 0.048 0.036 0.093 0.072 0.141 0.108 0.557 0.406 1.125 0.786 1.699 1.156 0.154 0.1 0.309 0.196 0.465 0.294 0.511 0.318 1.028 0.626 1.547 0.918 0.075 0.042 0.149 0.088 0.226 0.13 0.592 0.326 1.188 0.634 1.788 0.928 0.149 0.074 0.299 0.144 0.448 0.216 0.537 0.256 1.077 0.504 1.616 0.736 0.075 0.032 0.147 0.066 0.222 0.098 0.622 0.264 1.244 0.51 1.864 0.744 0.111 0.042 0.22 0.082 0.331 0.122 0.59 0.218 1.178 0.424 1.763 0.616 0.032 0.010 0.065 0.022 0.097 0.032 0.656 0.214 1.309 0.412 1.953 0.596 0.024 0.006 0.048 0.014 0.073 0.020 4.615 1.312 8.845 1.89 11.721 2.144 3.858-3.11 6.151-7.772 6.151-12.808v-34.976c0-9.13-7.502-16.556-16.721-16.556h-12.057c-8.243 0-14.973-6.524-15.149-14.682-0.925-42.678-19.256-82.33-50.291-108.788-32.183-27.438-69.402-41.6-110.632-42.092-41.234 0.49-78.451 14.65-110.638 42.090zM324.609 221.992c-2.426-1.016-5.183-0.246-6.71 1.868l-61.11 84.672 15.895 2.924c0.865 0.156 1.763-0.048 2.468-0.57l3.965-2.934c0.022-0.016 0.042-0.032 0.065-0.048l90.477-66.962-45.050-18.95zM362.746-33.99l27.646 196.716h18.906l27.646-196.716h-74.199zM748.893-33.99h-60.613v121.666c0 8.288-6.785 15.004-15.153 15.004s-15.153-6.716-15.153-15.004v-121.666h-190.426l-29.105 207.076 20.179 23.228 4.615-1.942c4.609-1.938 9.407-2.87 14.135-2.87 11.269 0 22.142 5.298 29.080 14.914l69.337 96.072 87.383-16.072c4.559-1.354 9.009-2.936 13.364-4.69-16.026-17.728-17.216-44.91-1.654-64.020l16.492-20.252c8.377-10.286 20.296-16.726 33.565-18.134 1.814-0.194 3.624-0.29 5.423-0.29 11.245 0 22.069 3.742 30.987 10.762 4.218-13.652 6.409-27.942 6.409-42.566v-162.536c0-10.3-8.463-18.68-18.866-18.68zM601.993 106.667h-81.919c-14.012 0-25.412-11.442-25.412-25.505v-43.804c0-14.064 11.4-25.505 25.412-25.505h81.919c14.012 0 25.41 11.442 25.41 25.505v43.804c0 14.066-11.4 25.505-25.41 25.505zM525.77 43.080v32.362h70.519v-32.362h-70.519zM279.621 106.667h-81.919c-14.012 0-25.41-11.442-25.41-25.505v-43.804c0-14.064 11.4-25.505 25.41-25.505h81.919c14.012 0 25.412 11.442 25.412 25.505v43.804c0.002 14.064-11.4 25.505-25.412 25.505zM273.923 43.078h-70.519v32.362h70.519v-32.362z" />
<glyph unicode="&#xe902;" glyph-name="e-recruitment" data-tags="E-Recruitment" d="M0 960v-759.742h174.84l-116.455-116.455c-16.351-16.351-25.352-38.086-25.352-61.225 0-47.732 38.846-86.578 86.578-86.578 23.123 0 44.874 9.001 61.225 25.352l189.357 189.357-24.774 24.774 31.86 31.86c38.829-25.286 85.042-40.118 134.722-40.118 44.808 0 86.759 12.139 123.078 33.032h388.922v759.742h-1024zM157.481-15.294c-10.108-10.108-23.569-15.674-37.871-15.674-29.531 0-53.545 24.014-53.545 53.545 0 14.303 5.566 27.764 15.674 37.871l166.004 166.004 75.743-75.743-166.004-166.004zM322.065 198.838l-26.195 26.195 28.556 28.556c8.076-9.365 16.83-18.118 26.195-26.195l-28.556-28.556zM512 200.258c-118.388 0-214.71 96.322-214.71 214.71s96.322 214.71 214.71 214.71c118.388 0 214.71-96.322 214.71-214.71s-96.322-214.71-214.71-214.71zM214.71 563.613h33.032c19.968 0 39.044-5.186 56.138-14.749-16.384-25.369-28.391-53.793-34.618-84.348h-168.993c8.043 55.957 56.287 99.097 114.44 99.097v0zM165.161 662.71c0 36.435 29.63 66.065 66.065 66.065s66.065-29.63 66.065-66.065c0-36.435-29.63-66.065-66.065-66.065s-66.065 29.63-66.065 66.065zM776.258 563.613h33.032c58.153 0 106.397-43.14 114.44-99.097h-168.977c-6.227 30.571-18.25 58.996-34.634 84.364 17.094 9.563 36.17 14.732 56.138 14.732zM726.71 662.71c0 36.435 29.63 66.065 66.065 66.065s66.065-29.63 66.065-66.065c0-36.435-29.63-66.065-66.065-66.065s-66.065 29.63-66.065 66.065zM990.968 233.29h-311.098c48.97 45.287 79.872 109.865 79.872 181.677 0 5.582-0.479 11.033-0.842 16.516h199.036v16.516c0 64.892-41.852 120.056-99.939 140.288 20.711 18.168 33.875 44.759 33.875 74.422 0 54.652-44.445 99.097-99.097 99.097s-99.097-44.445-99.097-99.097c0-29.597 13.114-56.122 33.742-74.306-9.447-3.287-18.548-7.564-27.202-12.767-45.485 53.198-112.921 87.073-188.218 87.073-75.314 0-142.749-33.875-188.218-87.073-8.671 5.186-17.755 9.48-27.202 12.767 20.629 18.168 33.742 44.709 33.742 74.306 0 54.652-44.445 99.097-99.097 99.097s-99.097-44.445-99.097-99.097c0-29.663 13.163-56.254 33.875-74.422-58.087-20.232-99.939-75.396-99.939-140.288v-16.516h199.036c-0.363-5.483-0.842-10.934-0.842-16.516 0-49.681 14.831-95.893 40.118-134.722l-31.86-31.86-24.774 24.774-39.87-39.87h-174.84v561.548h957.935v-561.548zM990.968 827.871h-957.935v99.097h957.935v-99.097zM59.077 900.923h39.385v-39.385h-39.385zM137.846 900.923h39.385v-39.385h-39.385zM196.923 900.923h39.385v-39.385h-39.385zM512 585.846c-97.719 0-177.231-79.512-177.231-177.231s79.512-177.231 177.231-177.231c97.719 0 177.231 79.512 177.231 177.231s-79.512 177.231-177.231 177.231zM512 263.608c-79.963 0-145.007 65.044-145.007 145.007s65.044 145.007 145.007 145.007c79.963 0 145.007-65.044 145.007-145.007s-65.044-145.007-145.007-145.007zM433.231 428.308h157.538v-39.385h-157.538zM433.231 507.077h157.538v-39.385h-157.538zM433.231 369.231h157.538v-39.385h-157.538zM787.692 408.615h157.538v-39.385h-157.538zM787.692 329.846h157.538v-39.385h-157.538zM78.769 408.615h157.538v-39.385h-157.538zM78.769 329.846h157.538v-39.385h-157.538zM433.231 763.077h39.385v-39.385h-39.385zM492.308 763.077h39.385v-39.385h-39.385zM551.385 763.077h39.385v-39.385h-39.385z" />
<glyph unicode="&#xe903;" glyph-name="operator" data-tags="Operator" d="M934.387 267.113l-125.097 28.871v32.524c12.718 10.202 23.435 22.742 31.677 36.911h17.871c45.532 0 82.581 37.048 82.581 82.581 0 18.435-6.274 35.282-16.516 49.040v66.573c0 109.29-88.903 198.194-198.194 198.194s-198.194-88.903-198.194-198.194v-66.573c-10.242-13.758-16.516-30.621-16.516-49.040 0-45.532 37.048-82.581 82.581-82.581h17.871c8.226-14.169 18.96-26.71 31.677-36.911v-32.524l-125.097-28.871c-8.169-1.879-16.016-4.823-23.548-8.403v90.194c0 27.315-22.234 49.548-49.548 49.548h-396.387c-27.315 0-49.548-22.234-49.548-49.548v-297.29c0-27.315 22.234-49.548 49.548-49.548h132.129v-33.032h-33.032v-33.032h875.355v218.46c0 54.153-36.847 100.484-89.613 112.653zM656.895 265.016l40.266-30.194-40.71-24.427-8.758 52.508 9.202 2.113zM708.871 134.194h35.694l13.758-165.161h-63.21l13.758 165.161zM747.831 167.226h-42.258l-9.484 28.444 30.621 18.363 30.605-18.363-9.484-28.444zM756.274 234.823l40.266 30.194 11.645-2.694-10.476-52.355-41.435 24.855zM858.839 398.452h-4.347c2.742 10.589 4.347 21.605 4.347 33.032v66.065c27.315 0 49.548-22.234 49.548-49.548s-22.234-49.548-49.548-49.548zM726.71 728.774c91.073 0 165.161-74.089 165.161-165.161v-40.032c-10.137 4.46-21.274 7-33.032 7v33.032h-33.032v-9.218c-11.46-9.976-25.185-17.073-39.871-20.774 0.645 0.629 1.355 1.169 2 1.798l-23.355 23.355c-12.323-12.323-27.927-20.927-44.71-25.153 0.645 0.629 1.355 1.169 2 1.798l-23.355 23.355c-17.919-17.919-42.726-28.194-68.065-28.194h-2.839v33.032h-33.032v-33.032c-11.758 0-22.895-2.54-33.032-7v40.032c0 91.073 74.089 165.161 165.161 165.161zM594.581 398.452c-27.315 0-49.548 22.234-49.548 49.548s22.234 49.548 49.548 49.548v-66.065c0-11.427 1.605-22.444 4.347-33.032h-4.347zM627.613 431.484v66.065h2.839c16.040 0 31.879 3.169 46.71 8.935v-8.935h19.355c16.040 0 31.879 3.169 46.71 8.935v-8.935h19.355c22.185 0 44.016 5.96 63.226 16.702v-82.766c0-11.597-2.113-22.677-5.782-33.032h-93.315v-33.032h73.661c-18.153-20.218-44.395-33.032-73.661-33.032-54.653 0-99.097 44.444-99.097 99.097v0zM726.71 299.355c17.524 0 34.242 3.5 49.548 9.726v-17.984l-49.548-37.161-49.548 37.161v17.984c15.306-6.226 32.024-9.726 49.548-9.726zM526.452 234.927l88.992 20.524 16.379-98.347 35.266 21.153 9.855-29.565-14.976-179.661h-83.903v181.677h-33.032v-181.677h-82.581v36.073c19.177 6.839 33.032 25.008 33.032 46.508v168.726c9.185 6.919 19.702 11.976 30.968 14.589v0zM313.806 2.065h115.613v-33.032h-115.613v33.032zM49.548 35.097c-9.113 0-16.516 7.403-16.516 16.516v297.29c0 9.113 7.403 16.516 16.516 16.516h396.387c9.113 0 16.516-7.403 16.516-16.516v-297.29c0-9.113-7.403-16.516-16.516-16.516h-132.129v33.032c0 36.435-29.629 66.065-66.065 66.065s-66.065-29.629-66.065-66.065v-33.032h-132.129zM214.71 68.129c0 18.218 14.815 33.032 33.032 33.032s33.032-14.815 33.032-33.032v-99.097h-66.065v99.097zM990.968-30.968h-82.581v181.677h-33.032v-181.677h-83.903l-14.96 179.661 9.839 29.565 34.556-20.742 19.468 97.379 86.613-19.984c37.669-8.694 64-41.774 64-80.452v-185.427zM412.903 622.395c0 21.355-13.613 40.25-33.871 47l-65.226 21.742v21.548c19.935 15.097 33.032 38.782 33.032 65.637v33.032c0 45.532-37.048 82.581-82.581 82.581s-82.581-37.048-82.581-82.581v-33.032c0-26.871 13.097-50.556 33.032-65.637v-21.548l-65.226-21.742c-20.258-6.766-33.871-25.645-33.871-47v-91.815h297.29v91.815zM214.71 811.355c0 27.315 22.234 49.548 49.548 49.548s49.548-22.234 49.548-49.548v-33.032c0-27.315-22.234-49.548-49.548-49.548s-49.548 22.234-49.548 49.548v33.032zM379.871 563.613h-231.226v58.782c0 7.121 4.524 13.411 11.298 15.669l87.798 29.25v30.097c5.339-1.089 10.871-1.669 16.516-1.669s11.177 0.581 16.516 1.669v-30.097l87.798-29.25c6.774-2.258 11.298-8.573 11.298-15.669v-58.782zM264.258 431.484c145.702 0 264.258 118.556 264.258 264.258s-118.556 264.258-264.258 264.258c-145.702 0-264.258-118.556-264.258-264.258s118.556-264.258 264.258-264.258zM264.258 926.968c127.508 0 231.226-103.718 231.226-231.226s-103.718-231.226-231.226-231.226c-127.508 0-231.226 103.718-231.226 231.226s103.718 231.226 231.226 231.226zM611.097 860.903h33.032v-33.032h-33.032zM710.194 860.903h33.032v-33.032h-33.032zM809.29 860.903h33.032v-33.032h-33.032z" />
<glyph unicode="&#xe904;" glyph-name="calendar-book" data-tags="calendar-book" horiz-adv-x="878" d="M804.571 960h-658.286c-40.396 0-73.143-32.747-73.143-73.143v-146.286h-73.143v-73.143h73.143v-182.857h-73.143v-73.143h73.143v-182.857h-73.143v-73.143h73.143v-146.286c0-40.396 32.747-73.143 73.143-73.143h658.286c40.396 0 73.143 32.747 73.143 73.143v877.714c0 40.396-32.747 73.143-73.143 73.143zM804.571 9.143h-658.286v146.286h73.143v73.143h-73.143v182.857h73.143v73.143h-73.143v182.857h73.143v73.143h-73.143v146.286h658.286v-877.714zM365.714 740.571h292.571v-73.143h-292.571v73.143zM365.714 484.571h292.571v-73.143h-292.571v73.143zM365.714 228.571h292.571v-73.143h-292.571v73.143z" />
<glyph unicode="&#xe905;" glyph-name="navigation" data-tags="navigation" d="M1008.64 483.842l-460.8 460.8c-20.478 20.48-51.2 20.48-71.68 0l-460.8-460.8c-20.48-20.48-20.48-51.202 0-71.68l460.8-460.8c20.48-20.48 51.202-20.48 71.68 0l460.8 460.8c20.48 20.478 20.48 51.198 0 71.68zM614.4 320v128h-204.8v-153.6h-102.4v204.8c0 30.72 20.48 51.2 51.2 51.2h256v128l179.2-179.2-179.2-179.2z" />
<glyph unicode="&#xe906;" glyph-name="vote" data-tags="vote" horiz-adv-x="819" d="M551.879 608.604h-113.623l3.383 60.219 109.658 45.113c5.571 2.286 8.659 8.258 7.315 14.115l-22.962 99.844c-0.729 3.178-2.687 5.931-5.456 7.668-2.761 1.729-6.078 2.294-9.273 1.556l-143.524-33.006c-2.212-0.508-4.235-1.614-5.849-3.203l-74.572-73.13-28.516 1.597c-7.34 0.393-13.55-5.169-13.959-12.468l-6.078-108.298h-104.014c-17.031 0-30.892-13.861-30.892-30.892v-353.059c0-17.023 13.861-30.892 30.892-30.892h407.47c17.039 0 30.892 13.861 30.892 30.892v353.051c0.016 17.031-13.853 30.892-30.892 30.892zM386.286 780.939l128.164 29.475 17.875-77.718-118.882-48.906 16.556 30.614c3.236 5.972 1.008 13.427-4.956 16.654s-13.427 1.008-16.654-4.948l-2.4-4.44-75.809 4.252 56.107 55.017zM392.061 695.923l-16.638-30.761c-2.474-4.571-1.802-10.207 1.671-14.066 2.384-2.646 5.726-4.071 9.142-4.071 1.573 0 3.154 0.303 4.669 0.926l23.593 9.708-7.258-129.434h-136.806l9.757 173.982 111.87-6.283zM144.409 582.128h102.531l-3.023-53.912h-34.816c-6.791 0-12.288-5.505-12.288-12.288s5.497-12.288 12.288-12.288h282.452c6.783 0 12.288 5.505 12.288 12.288s-5.505 12.288-12.288 12.288h-57.803l3.031 53.912h115.106c2.433 0 4.415-1.974 4.415-4.415v-121.209h-416.309v121.209c0 2.433 1.982 4.415 4.415 4.415zM738.755 754.504c-0.77 6.742-6.816 11.624-13.582 10.846l-131.334-14.721-17.375 75.62 126.829 47.776c6.341 2.392 9.552 9.478 7.168 15.835-2.384 6.349-9.486 9.56-15.835 7.168l-136.888-51.56c-5.759-2.171-9.028-8.258-7.651-14.254l22.241-96.772c1.294-5.636 6.308-9.535 11.969-9.535 0.459 0 0.909 0.025 1.376 0.074l142.221 15.942c6.767 0.762 11.608 6.84 10.863 13.582z" />
<glyph unicode="&#xe907;" glyph-name="play-button" data-tags="play-button" horiz-adv-x="945" d="M826.685 540.877l-632.792 365.346c-33.581 19.388-73.673 19.381-107.254 0.004-33.581-19.385-53.631-54.112-53.631-92.885v-730.692c0-38.773 20.046-73.496 53.631-92.885 16.788-9.696 35.2-14.538 53.619-14.538 18.423 0 36.842 4.854 53.631 14.542l632.8 365.342c33.577 19.392 53.619 54.115 53.619 92.888 0 38.769-20.046 73.492-53.623 92.877zM775.431 443.869l-632.796-365.342c-0.773-0.45-2.385-1.377-4.754 0-2.377 1.373-2.377 3.227-2.377 4.119v730.692c0 0.892 0 2.746 2.377 4.119 0.931 0.538 1.742 0.723 2.435 0.723 1.077 0 1.854-0.45 2.327-0.723l632.792-365.346c0.773-0.446 2.377-1.373 2.377-4.119s-1.612-3.677-2.381-4.123z" />
<glyph unicode="&#xe908;" glyph-name="gallery-image-icon" data-tags="gallery-image-icon" horiz-adv-x="1422" d="M1308.444 960c62.838 0 113.778-50.94 113.778-113.778v-796.444c0-62.838-50.94-113.778-113.778-113.778h-1194.667c-62.838 0-113.778 50.94-113.778 113.778v796.444c0 62.838 50.94 113.778 113.778 113.778h1194.667zM946.010 581.521c-5.892-0.267-11.45-2.872-15.429-7.235v0l-217.745-238.792-105.448 105.583c-8.315 8.303-21.61 8.726-30.414 0.979v0l-378.329-333.512c-9.226-8.125-10.116-22.194-2.001-31.432 4.402-5.009 10.538-7.546 16.697-7.546 5.225 0 10.471 1.825 14.696 5.543v0l362.678 319.711 229.016-229.287c8.693-8.704 22.744-8.704 31.437 0s8.693 22.773 0 31.477v0l-106.871 107.008 204.116 223.811 250.359-229.821c9.049-8.303 23.122-7.658 31.414 1.38 8.293 9.060 7.692 23.151-1.378 31.432v0l-266.789 244.87c-4.358 3.985-10.138 5.966-16.007 5.832zM413.432 715.13c-68.276 0-123.812-55.608-123.812-123.971 0-68.341 55.537-123.949 123.812-123.949s123.812 55.608 123.812 123.949c0 68.363-55.537 123.971-123.812 123.971z" />
<glyph unicode="&#xe909;" glyph-name="gallery-video-icon" data-tags="gallery-video-icon" horiz-adv-x="1422" d="M1258.121 960h-1094.020c-90.633 0-164.101-73.682-164.101-164.57v-694.86c0-90.892 73.472-164.57 164.101-164.57h1094.020c90.633 0 164.101 73.682 164.101 164.57v694.86c0 90.892-73.472 164.57-164.101 164.57zM906.732 376.564c-3.204-6.357-8.412-11.51-14.829-14.685l-332.686-193.144c-5.114-3.492-11.209-5.301-17.416-5.172l-15.676 5.172c-9.835 6.407-15.219 17.729-13.936 29.318v386.291c-1.284 11.586 4.097 22.911 13.936 29.318 10.002 6.674 23.091 6.674 33.096 0l332.686-193.144c16.35-8.084 22.987-27.76 14.826-43.954z" />
<glyph unicode="&#xe90a;" glyph-name="album-icon" data-tags="album-icon" horiz-adv-x="970" d="M477.101 502.651c-30.832 0-55.91-25.148-55.91-56.065s25.078-56.065 55.91-56.065c30.832 0 55.91 25.148 55.91 56.065s-25.078 56.065-55.91 56.065zM516.64 98.982c-10.92-10.95-25.235-16.417-39.539-16.417s-28.619 5.466-39.539 16.417l-130.055 130.416-259.779-260.493c10.949-5.262 23.209-8.217 36.138-8.217h786.471c12.929 0 25.189 2.955 36.138 8.217l-259.779 260.493-130.055-130.416zM870.336 689.535h-786.471c-46.242 0-83.865-37.727-83.865-84.098v-560.651c0-12.965 2.947-25.259 8.2-36.238l279.54 280.32c5.451 5.472 12.609 8.211 19.767 8.211s14.315-2.739 19.767-8.211l149.828-150.237 149.828 150.237c5.451 5.472 12.609 8.211 19.767 8.211s14.315-2.739 19.767-8.211l279.54-280.32c5.253 10.979 8.2 23.273 8.2 36.238v560.651c0 46.371-37.623 84.098-83.865 84.098zM477.101 334.455c-61.664 0-111.821 50.295-111.821 112.13 0 61.829 50.156 112.13 111.821 112.13s111.821-50.301 111.821-112.13c0-61.835-50.156-112.13-111.821-112.13zM105.276 765.032h745.305c14.318 0 25.924 11.638 25.924 25.996s-11.606 25.996-25.924 25.996h-745.305c-14.318 0-25.924-11.638-25.924-25.996s11.606-25.996 25.924-25.996zM215.451 908.009h523.659c14.318 0 25.924 11.638 25.924 25.996s-11.606 25.996-25.924 25.996h-523.659c-14.318 0-25.924-11.638-25.924-25.996s11.608-25.996 25.924-25.996z" />
<glyph unicode="&#xe90b;" glyph-name="left-arrow-circle" data-tags="left-arrow-circle" d="M512 960c282.77 0 512-229.23 512-512s-229.23-512-512-512c-282.77 0-512 229.23-512 512s229.23 512 512 512zM448.466 626.605l-43.629-43.629 142.553-142.553-142.553-142.553 43.629-43.629 186.182 186.182-186.182 186.182z" />
<glyph unicode="&#xe90c;" glyph-name="download-circle" data-tags="download-circle" d="M512 960c282.77 0 512-229.23 512-512s-229.23-512-512-512c-282.77 0-512 229.23-512 512s229.23 512 512 512zM512 919.040c-260.148 0-471.040-210.892-471.040-471.040s210.892-471.040 471.040-471.040c260.148 0 471.040 210.892 471.040 471.040s-210.892 471.040-471.040 471.040zM655.36 301.963l-143.36-161.163-143.36 161.163 30.672 33.732 91.35-102.694v481.24h42.675v-481.24l91.35 102.694z" />
<glyph unicode="&#xe90d;" glyph-name="add-circle-filled" data-tags="add-circle-filled" d="M512-42.667c270.988 0 490.667 219.679 490.667 490.667s-219.679 490.667-490.667 490.667c-270.988 0-490.667-219.679-490.667-490.667 0.306-270.861 219.806-490.361 490.667-490.667zM256 490.667h202.667c5.891 0 10.667 4.776 10.667 10.667v202.667c0 23.564 19.103 42.667 42.667 42.667s42.667-19.103 42.667-42.667v-202.667c0-5.891 4.776-10.667 10.667-10.667h202.667c23.564 0 42.667-19.103 42.667-42.667s-19.103-42.667-42.667-42.667h-202.667c-5.891 0-10.667-4.776-10.667-10.667v-202.667c0-23.564-19.103-42.667-42.667-42.667s-42.667 19.103-42.667 42.667v202.667c0 5.891-4.776 10.667-10.667 10.667h-202.667c-23.564 0-42.667 19.103-42.667 42.667s19.103 42.667 42.667 42.667z" />
<glyph unicode="&#xe90e;" glyph-name="alarm-bell-filled" data-tags="alarm-bell-filled" horiz-adv-x="853" d="M522.069 64c5.437 0.030 10.011-4.065 10.581-9.472 0.465-3.937 0.693-7.897 0.683-11.861 0-58.911-47.757-106.667-106.667-106.667s-106.667 47.756-106.667 106.667c-0.010 3.964 0.218 7.925 0.683 11.861 0.607 5.388 5.16 9.463 10.581 9.472v0zM426.667 960c23.564 0 42.667-19.103 42.667-42.667v0-88.448c164.668-30.591 282.424-176.698 277.333-344.107v0-207.445c0-35.346 28.654-64 64-64 23.564 0 42.667-19.103 42.667-42.667s-19.103-42.667-42.667-42.667v0h-768c-23.564 0-42.667 19.103-42.667 42.667s19.103 42.667 42.667 42.667c35.346 0 64 28.654 64 64v0 207.445c-5.091 167.408 112.665 313.516 277.333 344.107v0 88.448c0 23.564 19.103 42.667 42.667 42.667z" />
<glyph unicode="&#xe90f;" glyph-name="alarm-bell-off-filled" data-tags="alarm-bell-off-filled" d="M416.597 64h190.805c5.429 0.010 9.993-4.075 10.581-9.472 0.444-3.938 0.672-7.898 0.683-11.861 0-58.91-47.756-106.667-106.667-106.667s-106.667 47.756-106.667 106.667c-0.003 3.962 0.211 7.922 0.64 11.861 0.523 4.495 3.781 8.071 7.995 9.143l2.629 0.329h190.805zM512 960c23.564 0 42.667-19.103 42.667-42.667v0-88.405c69.666-10.672 133.636-44.704 181.419-96.512v0l215.083 215.083c16.661 16.656 43.669 16.656 60.331 0 16.334-16.793 16.334-43.537 0-60.331v0l-938.667-938.667c-8.048-7.893-18.893-12.28-30.165-12.204-11.272-0.076-22.117 4.311-30.165 12.204-16.312 16.803-16.312 43.528 0 60.331v0l119.168 119.168h-3.669c-23.564 0-42.667 19.103-42.667 42.667s19.103 42.667 42.667 42.667c35.346 0 64 28.654 64 64v0 207.488c-5.091 167.408 112.665 313.516 277.333 344.107v0 88.405c0 23.564 19.103 42.667 42.667 42.667zM346.496 128l468.437 468.48c9.716-30.973 15.332-63.061 16.724-95.445l0.343-16.213v-207.488c0-35.346 28.654-64 64-64 23.564 0 42.667-19.103 42.667-42.667 0-21.881-16.471-39.915-37.691-42.38l-4.976-0.287h-549.504l468.437 468.48z" />
<glyph unicode="&#xe910;" glyph-name="alert-diamond-filled" data-tags="alert-diamond-filled" d="M981.333 508.331l-409.003 409.003c-33.323 33.313-87.339 33.313-120.661 0l-409.003-409.045c-33.313-33.323-33.313-87.339 0-120.661v0l409.003-408.96c33.323-33.313 87.339-33.313 120.661 0l409.003 408.96c16.011 16.004 25.006 37.714 25.006 60.352s-8.995 44.348-25.006 60.352zM472.235 686.208c0 23.564 19.103 42.667 42.667 42.667s42.667-19.103 42.667-42.667v-256c0-23.564-19.103-42.667-42.667-42.667s-42.667 19.103-42.667 42.667v256zM517.077 195.115h-1.195c-34.953 0.134-63.59 27.793-64.939 62.72-0.633 16.896 5.559 33.335 17.181 45.615s27.696 19.367 44.601 19.665h1.195c34.971-0.090 63.633-27.773 64.939-62.72 0.633-16.896-5.559-33.335-17.181-45.615s-27.696-19.367-44.601-19.665z" />
<glyph unicode="&#xe911;" glyph-name="check-filled" data-tags="check-filled" d="M997.291 947.755c-28.725 20.594-68.706 14.004-89.301-14.72l-598.827-834.901-199.893 200.064c-16.166 16.173-39.731 22.494-61.821 16.58s-39.346-23.162-45.269-45.248c-5.924-22.086 0.386-45.655 16.551-61.828l253.227-253.184c13.449-12.941 31.807-19.484 50.409-17.966s35.656 10.951 46.829 25.902l642.816 896c20.594 28.725 14.004 68.706-14.72 89.301z" />
<glyph unicode="&#xe912;" glyph-name="check-circle-filled" data-tags="check-circle-filled" d="M512 960c-282.77 0-512-229.23-512-512s229.23-512 512-512c282.77 0 512 229.23 512 512-0.329 282.633-229.367 511.671-512 512zM807.552 610.133l-292.053-396.331c-6.965-9.241-17.351-15.296-28.825-16.805s-23.072 1.656-32.189 8.783l-208.555 166.741c-18.404 14.728-21.384 41.586-6.656 59.989s41.586 21.384 59.989 6.656l173.909-139.136 265.685 360.576c8.712 13.073 23.904 20.302 39.544 18.814s29.197-11.449 35.289-25.93c6.092-14.481 3.733-31.139-6.14-43.359z" />
<glyph unicode="&#xe913;" glyph-name="delete-filled" data-tags="delete-filled" d="M874.155 810.027c-199.898 199.711-523.829 199.61-723.603-0.225s-199.773-523.767 0-723.603c199.773-199.836 523.705-199.936 723.603-0.225 199.603 200.082 199.603 523.971 0 724.053zM712.917 308.096c15.123-16.845 14.459-42.569-1.514-58.61s-41.694-16.815-58.603-1.764l-132.693 132.693c-4.187 4.132-10.917 4.132-15.104 0l-132.651-132.693c-16.844-16.25-43.529-16.25-60.373 0-8.012 8.003-12.514 18.863-12.514 30.187s4.502 22.184 12.514 30.187l132.693 132.651c2.004 1.994 3.13 4.704 3.13 7.531s-1.126 5.537-3.13 7.531l-132.693 132.693c-15.305 16.83-14.714 42.708 1.343 58.822s41.933 16.797 58.817 1.551l132.651-132.693c2.001-2.006 4.718-3.134 7.552-3.134s5.551 1.128 7.552 3.134l132.693 132.693c16.672 16.66 43.692 16.65 60.352-0.021s16.65-43.692-0.021-60.352l-132.693-132.693c-4.15-4.163-4.15-10.898 0-15.061l132.693-132.651z" />
<glyph unicode="&#xe914;" glyph-name="house-filled" data-tags="house-filled" d="M1011.499 478.165l-469.333 469.333c-16.661 16.656-43.669 16.656-60.331 0l-469.333-469.333c-12.199-12.202-15.847-30.551-9.245-46.492s22.156-26.336 39.41-26.34h53.333c5.891 0 10.667-4.776 10.667-10.667v-416c0-23.564 19.103-42.667 42.667-42.667h245.333c5.891 0 10.667 4.776 10.667 10.667v202.667c0 58.91 47.756 106.667 106.667 106.667s106.667-47.756 106.667-106.667v-202.667c0-5.891 4.776-10.667 10.667-10.667h245.333c23.564 0 42.667 19.103 42.667 42.667v416c0 5.891 4.776 10.667 10.667 10.667h53.333c17.254 0.004 32.808 10.399 39.41 26.34s2.954 34.29-9.245 46.492z" />
<glyph unicode="&#xe915;" glyph-name="information-circle-filled" data-tags="information-circle-filled" d="M512 960c-282.77 0-512-229.23-512-512s229.23-512 512-512c282.77 0 512 229.23 512 512-0.306 282.643-229.357 511.694-512 512zM522.667 746.667c35.346 0 64-28.654 64-64s-28.654-64-64-64c-35.346 0-64 28.654-64 64s28.654 64 64 64zM618.667 170.667h-170.667c-23.564 0-42.667 19.103-42.667 42.667s19.103 42.667 42.667 42.667h32c5.891 0 10.667 4.776 10.667 10.667v192c0 5.891-4.776 10.667-10.667 10.667h-32c-23.564 0-42.667 19.103-42.667 42.667s19.103 42.667 42.667 42.667h42.667c47.128 0 85.333-38.205 85.333-85.333v-202.667c0-5.891 4.776-10.667 10.667-10.667h32c23.564 0 42.667-19.103 42.667-42.667s-19.103-42.667-42.667-42.667z" />
<glyph unicode="&#xe916;" glyph-name="love-it-filled" data-tags="love-it-filled" d="M994.133 743.424c-40.688 79.235-116.551 134.47-204.452 148.859s-177.416-13.774-241.244-75.899l-36.437-33.323-35.285 32.128c-63.711 63.361-154.096 92.059-242.688 77.056-88.078-13.733-164.11-69.14-204.16-148.779-54.149-106.115-33.255-235.086 51.627-318.677l399.915-411.989c8.033-8.263 19.068-12.925 30.592-12.925s22.559 4.662 30.592 12.925l399.36 411.221c85.23 83.673 106.351 212.956 52.181 319.403z" />
<glyph unicode="&#xe917;" glyph-name="navigation-menu-filled" data-tags="navigation-menu-filled" d="M960 170.667c23.564 0 42.667-19.103 42.667-42.667v-42.667c0-23.564-19.103-42.667-42.667-42.667h-896c-23.564 0-42.667 19.103-42.667 42.667v42.667c0 23.564 19.103 42.667 42.667 42.667h896zM960 512c23.564 0 42.667-19.103 42.667-42.667v-42.667c0-23.564-19.103-42.667-42.667-42.667h-896c-23.564 0-42.667 19.103-42.667 42.667v42.667c0 23.564 19.103 42.667 42.667 42.667h896zM960 853.333c23.564 0 42.667-19.103 42.667-42.667v-42.667c0-23.564-19.103-42.667-42.667-42.667h-896c-23.564 0-42.667 19.103-42.667 42.667v42.667c0 23.564 19.103 42.667 42.667 42.667h896z" />
<glyph unicode="&#xe918;" glyph-name="navigation-menu-horizontal" data-tags="navigation-menu-horizontal" d="M138.667 586.667c76.583 0 138.667-62.083 138.667-138.667s-62.083-138.667-138.667-138.667c-76.583 0-138.667 62.083-138.667 138.667s62.083 138.667 138.667 138.667zM512 586.667c76.583 0 138.667-62.083 138.667-138.667s-62.083-138.667-138.667-138.667c-76.583 0-138.667 62.083-138.667 138.667s62.083 138.667 138.667 138.667zM885.333 586.667c76.583 0 138.667-62.083 138.667-138.667s-62.083-138.667-138.667-138.667c-76.583 0-138.667 62.083-138.667 138.667s62.083 138.667 138.667 138.667z" />
<glyph unicode="&#xe919;" glyph-name="navigation-menu-vertical-filled" data-tags="navigation-menu-vertical-filled" horiz-adv-x="341" d="M170.667 213.333c76.583 0 138.667-62.083 138.667-138.667s-62.083-138.667-138.667-138.667c-76.583 0-138.667 62.083-138.667 138.667s62.083 138.667 138.667 138.667zM170.667 586.667c76.583 0 138.667-62.083 138.667-138.667s-62.083-138.667-138.667-138.667c-76.583 0-138.667 62.083-138.667 138.667s62.083 138.667 138.667 138.667zM170.667 960c76.583 0 138.667-62.083 138.667-138.667s-62.083-138.667-138.667-138.667c-76.583 0-138.667 62.083-138.667 138.667s62.083 138.667 138.667 138.667z" />
<glyph unicode="&#xe91a;" glyph-name="question-circle-filled" data-tags="question-circle-filled" d="M512 960c-282.77 0-512-229.23-512-512s229.23-512 512-512c282.77 0 512 229.23 512 512-0.306 282.643-229.357 511.694-512 512zM512 149.333c-35.346 0-64 28.654-64 64s28.654 64 64 64c35.346 0 64-28.654 64-64s-28.654-64-64-64zM580.267 408.747c-15.556-6.789-25.608-22.153-25.6-39.125 0-23.564-19.103-42.667-42.667-42.667s-42.667 19.103-42.667 42.667c-0.008 50.903 30.147 96.972 76.8 117.333 39.066 17.050 59.56 60.313 48.005 101.342s-51.613 67.239-93.836 61.395c-42.223-5.843-73.658-41.947-73.636-84.572 0-23.564-19.103-42.667-42.667-42.667s-42.667 19.103-42.667 42.667c0 85.239 62.889 157.409 147.328 169.066s164.53-40.775 187.623-122.826c23.093-82.051-17.894-168.56-96.017-202.656v0.043z" />
<glyph unicode="&#xe91b;" glyph-name="rating-half-star-filled" data-tags="rating-half-star-filled" horiz-adv-x="555" d="M554.718 906.667c0 23.564-19.103 42.667-42.667 42.667-26.947-0.163-50.953-17.058-60.203-42.368l-92.928-263.424c-3.021-8.527-11.092-14.221-20.139-14.208h-259.797c-26.938 0.020-51.005-16.829-60.202-42.148s-1.556-53.687 19.114-70.961l221.397-183.467c6.772-5.62 9.398-14.82 6.613-23.168l-93.099-278.613c-8.817-26.43 0.478-55.528 22.984-71.952s53.052-16.401 75.533 0.058l265.941 194.987c10.957 8.048 17.422 20.837 17.408 34.432l0.043 718.165z" />
<glyph unicode="&#xe91c;" glyph-name="rating-star-filled" data-tags="rating-star-filled" d="M1005.013 587.563c-9.333 25.074-33.235 41.734-59.989 41.813h-259.712c-9.057-0.007-17.132 5.707-20.139 14.251l-93.227 264.235c-9.351 25.010-33.246 41.586-59.947 41.586s-50.596-16.576-59.947-41.586l-0.213-0.683-93.013-263.552c-3.002-8.529-11.054-14.239-20.096-14.251h-259.797c-26.938 0.020-51.005-16.829-60.202-42.148s-1.556-53.687 19.114-70.961l221.184-183.467c6.772-5.62 9.398-14.82 6.613-23.168l-92.928-278.656c-8.812-26.438 0.495-55.539 23.014-71.955s53.072-16.374 75.546 0.104l228.096 167.253c7.506 5.499 17.71 5.499 25.216 0l228.011-167.211c22.465-16.535 53.052-16.616 75.604-0.2s31.874 45.549 23.041 72.008l-92.928 278.827c-2.785 8.348-0.158 17.548 6.613 23.168l221.611 183.723c20.402 17.417 27.777 45.709 18.475 70.869z" />
<glyph unicode="&#xe91d;" glyph-name="sad-face-filled" data-tags="sad-face-filled" d="M512 960c-282.77 0-512-229.23-512-512s229.23-512 512-512c282.77 0 512 229.23 512 512-0.306 282.643-229.357 511.694-512 512zM309.333 661.333c47.128 0 85.333-38.205 85.333-85.333s-38.205-85.333-85.333-85.333c-47.128 0-85.333 38.205-85.333 85.333s38.205 85.333 85.333 85.333zM305.579 243.712c45.453 69.814 123.115 111.923 206.421 111.923s160.968-42.109 206.421-111.923c8.33-12.774 9.213-29.022 2.316-42.623s-20.527-22.49-35.755-23.317c-15.228-0.827-29.74 6.532-38.071 19.306-29.678 45.67-80.446 73.224-134.912 73.224s-105.234-27.554-134.912-73.224c-12.878-19.747-39.325-25.315-59.072-12.437s-25.315 39.325-12.437 59.072v0zM714.667 490.667c-47.128 0-85.333 38.205-85.333 85.333s38.205 85.333 85.333 85.333c47.128 0 85.333-38.205 85.333-85.333s-38.205-85.333-85.333-85.333z" />
<glyph unicode="&#xe91e;" glyph-name="smile-face-filled" data-tags="smile-face-filled" d="M512 960c-282.77 0-512-229.23-512-512s229.23-512 512-512c282.77 0 512 229.23 512 512-0.306 282.643-229.357 511.694-512 512zM341.333 661.333c47.128 0 85.333-38.205 85.333-85.333s-38.205-85.333-85.333-85.333c-47.128 0-85.333 38.205-85.333 85.333s38.205 85.333 85.333 85.333zM292.011 355.755c9.477 6.185 21.023 8.351 32.097 6.022s20.77-8.961 26.954-18.438c35.424-54.451 95.979-87.297 160.939-87.297s125.514 32.846 160.939 87.297c12.89 19.747 39.347 25.306 59.093 12.416s25.306-39.347 12.416-59.093c-51.158-78.71-138.659-126.198-232.533-126.198s-181.376 47.488-232.533 126.198c-6.178 9.506-8.319 21.081-5.949 32.168s9.054 20.775 18.579 26.926v0zM682.667 490.667c-47.128 0-85.333 38.205-85.333 85.333s38.205 85.333 85.333 85.333c47.128 0 85.333-38.205 85.333-85.333s-38.205-85.333-85.333-85.333z" />
<glyph unicode="&#xe91f;" glyph-name="stop-sign-filled" data-tags="stop-sign-filled" d="M0.341 270.336c-0.018-22.723 9.081-44.503 25.259-60.459l249.557-248.533c15.939-15.949 37.569-24.899 60.117-24.875v0l350.165-0.469c22.368-0.022 43.838 8.796 59.733 24.533l253.013 249.173c16.288 16.032 25.503 37.903 25.6 60.757v349.867c0.059 22.567-8.896 44.224-24.875 60.16l-252.715 253.909c-15.983 16.153-37.777 25.221-60.501 25.174h-349.867c-22.805 0.013-44.679-9.043-60.8-25.174l-250.325-254.293c-15.834-15.914-24.717-37.454-24.704-59.904l0.341-349.867zM341.675 666.709v0c-3.937 21.156 9.688 41.6 30.729 46.109s41.847-8.557 46.924-29.469l40.363-187.435c0.215-1.072 1.219-1.797 2.304-1.664 1.094 0.11 1.926 1.034 1.92 2.133v231.723c0 21.915 17.765 39.68 39.68 39.68s39.68-17.765 39.68-39.68v-232.363c0.014-1.092 0.835-2.005 1.92-2.133 1.085-0.133 2.089 0.592 2.304 1.664l40.363 178.603c3.003 13.887 13.186 25.116 26.714 29.459s28.345 1.139 38.869-8.405c10.525-9.544 15.158-23.978 12.155-37.864v0l-40.832-222.677c-0.176-1.008 0.375-2.003 1.323-2.389 0.961-0.349 2.035 0.003 2.603 0.853l66.133 104.149c11.785 17.903 35.648 23.228 53.926 12.033s24.378-34.871 13.786-53.505v0l-56.661-106.411c-11.061-20.732-16.835-43.873-16.811-67.371 0-89.301-25.003-162.731-119.040-162.773h-92.928c-32.524 0.022-63.633 13.304-86.144 36.779v0l-139.221 185.216v0.256c-16.153 14.845-17.213 39.975-2.368 56.128s39.975 17.213 56.128 2.368v0l74.709-65.237c0.674-0.576 1.635-0.676 2.413-0.249s1.21 1.29 1.086 2.169l-42.027 290.304z" />
<glyph unicode="&#xe920;" glyph-name="subtract-circle-filled" data-tags="subtract-circle-filled" d="M512-42.667c270.988 0 490.667 219.679 490.667 490.667s-219.679 490.667-490.667 490.667c-270.988 0-490.667-219.679-490.667-490.667 0.306-270.861 219.806-490.361 490.667-490.667zM256 490.667h512c23.564 0 42.667-19.103 42.667-42.667s-19.103-42.667-42.667-42.667h-512c-23.564 0-42.667 19.103-42.667 42.667s19.103 42.667 42.667 42.667z" />
<glyph unicode="&#xe921;" glyph-name="add" data-tags="add" d="M512 960c17.673 0 32-14.327 32-32v0-448h448c16.2 0 29.589-12.039 31.708-27.658l0.292-4.342c0-17.673-14.327-32-32-32v0h-448v-448c0-16.2-12.039-29.589-27.658-31.708l-4.342-0.292c-17.673 0-32 14.327-32 32v0 448h-448c-16.2 0-29.589 12.039-31.708 27.658l-0.292 4.342c0 17.673 14.327 32 32 32v0h448v448c0 16.2 12.039 29.589 27.658 31.708z" />
<glyph unicode="&#xe922;" glyph-name="add-circle" data-tags="add-circle" d="M512 960c282.77 0 512-229.23 512-512s-229.23-512-512-512c-282.77 0-512 229.23-512 512s229.23 512 512 512zM512 896c-247.424 0-448-200.576-448-448s200.576-448 448-448c247.424 0 448 200.576 448 448s-200.576 448-448 448zM507.658 671.708l4.342 0.292c16.2 0 29.589-12.039 31.708-27.658l0.292-4.342v-160h160c16.2 0 29.589-12.039 31.708-27.658l0.292-4.342c0-16.2-12.039-29.589-27.658-31.708l-4.342-0.292h-160v-160c0-16.2-12.039-29.589-27.658-31.708l-4.342-0.292c-16.2 0-29.589 12.039-31.708 27.658l-0.292 4.342v160h-160c-16.2 0-29.589 12.039-31.708 27.658l-0.292 4.342c0 16.2 12.039 29.589 27.658 31.708l4.342 0.292h160v160c0 16.2 12.039 29.589 27.658 31.708l4.342 0.292z" />
<glyph unicode="&#xe923;" glyph-name="add-square" data-tags="add-square" d="M864 960c88.366 0 160-71.634 160-160v-704c0-88.366-71.634-160-160-160h-704c-88.366 0-160 71.634-160 160v704c0 88.366 71.634 160 160 160h704zM864 896h-704c-53.019 0-96-42.981-96-96v-704c0-53.019 42.981-96 96-96h704c53.019 0 96 42.981 96 96v704c0 53.019-42.981 96-96 96zM507.658 671.708l4.342 0.292c16.2 0 29.589-12.039 31.708-27.658l0.292-4.342v-160h160c16.2 0 29.589-12.039 31.708-27.658l0.292-4.342c0-16.2-12.039-29.589-27.658-31.708l-4.342-0.292h-160v-160c0-16.2-12.039-29.589-27.658-31.708l-4.342-0.292c-16.2 0-29.589 12.039-31.708 27.658l-0.292 4.342v160h-160c-16.2 0-29.589 12.039-31.708 27.658l-0.292 4.342c0 16.2 12.039 29.589 27.658 31.708l4.342 0.292h160v160c0 16.2 12.039 29.589 27.658 31.708l4.342 0.292z" />
<glyph unicode="&#xe924;" glyph-name="alarm-bell" data-tags="alarm-bell" horiz-adv-x="853" d="M521.227 62.704c16.958-4.978 26.669-22.76 21.691-39.718-15.131-51.545-62.424-86.95-116.144-86.95s-101.013 35.406-116.144 86.95c-4.978 16.958 4.733 34.74 21.691 39.718 15.544 4.563 31.782-3.217 38.214-17.607l1.503-4.084 1.909-5.467c8.669-21.293 29.457-35.511 52.826-35.511s44.158 14.217 52.826 35.511l1.909 5.467 1.503 4.084c6.433 14.39 22.67 22.17 38.214 17.607zM426.667 960c16.2 0 29.589-12.039 31.708-27.658l0.292-4.342-0.003-65.435c179.41-16.166 320.003-166.947 320.003-350.565 0-128.471 11.595-219.479 30.501-279.057 6.206-19.556 12.585-33.665 18.565-43.148l3.231-4.996c-0.012-0.032-0.1 0.023-0.266 0.157 23.569-18.918 10.192-56.955-20.031-56.955h-768c-25.194 0-39.942 27.403-27.65 48.142l3.913 5.602c5.695 8.423 15.071 28.167 25.046 61.968 17.967 60.884 29.301 142.686 30.572 248.22l0.281 30.828c5.367 178.718 143.95 323.955 319.842 339.804l-0.003 65.435c0 17.673 14.327 32 32 32zM426.667 800c-159.058 0-288-128.942-288-288 0-121.176-12.398-215.543-33.308-286.401-3.698-12.531-7.453-23.708-11.174-33.599h661.538l-2.545 6.797c-1.689 4.663-3.361 9.589-5.011 14.788-21.094 66.475-33.499 163.835-33.499 298.415 0 159.058-128.942 288-288 288z" />
<glyph unicode="&#xe925;" glyph-name="alarm-bell-off" data-tags="alarm-bell-off" d="M606.56 62.704c16.958-4.978 26.669-22.76 21.691-39.718-15.131-51.545-62.424-86.95-116.144-86.95s-101.013 35.406-116.144 86.95c-4.978 16.958 4.733 34.74 21.691 39.718 15.544 4.563 31.782-3.217 38.214-17.607l1.503-4.084 1.909-5.467c8.669-21.293 29.457-35.511 52.826-35.511s44.158 14.217 52.826 35.511l1.909 5.467 1.503 4.084c6.433 14.39 22.67 22.17 38.214 17.607zM982.67 886.627c11.361-11.361 12.393-29.138 3.098-41.666l-3.098-3.589-896-896c-12.497-12.497-32.758-12.497-45.255 0-11.361 11.361-12.393 29.138-3.098 41.666l3.098 3.589 896 896c12.497 12.497 32.758 12.497 45.255 0zM859.6 556.283c2.366-14.249 3.828-28.633 4.4-44.283 0-128.545 11.595-219.568 30.5-279.117 6.204-19.542 12.58-33.633 18.556-43.095 2.114-3.348 3.265-4.844 3.208-4.962l-0.273 0.162 3.268-2.971c17.92-18.548 6.877-50.242-18.613-53.707l-4.645-0.31h-448c-17.673 0-32 14.327-32 32 0 16.2 12.039 29.589 27.658 31.708l4.342 0.292h393.034c-2.548 6.582-5.067 13.745-7.534 21.517-21.095 66.45-33.5 163.827-33.477 297.267-0.446 11.734-1.635 23.429-3.559 35.013-2.896 17.434 8.891 33.915 26.325 36.81s33.915-8.891 36.81-26.325zM512.043 960c16.2 0 29.589-12.039 31.708-27.658l0.292-4.342 0.040-65.702c58.294-5.332 115.377-25.198 165.6-59.287 14.623-9.925 18.431-29.825 8.506-44.448s-29.825-18.431-44.448-8.506c-88.206 59.869-202.267 66.117-296.485 16.241s-153.177-147.717-153.256-254.298v0-224c0-17.673-14.327-32-32-32s-32 14.327-32 32v0 224.024c0.097 130.294 72.159 249.878 187.313 310.837 41.935 22.199 87.087 35.302 132.757 39.455l-0.028 65.684c0 17.673 14.327 32 32 32z" />
<glyph unicode="&#xe926;" glyph-name="alert-diamond" data-tags="alert-diamond" d="M512 960.004c28.992 0 56.793-11.535 77.24-32.032l402.788-402.746c42.626-42.678 42.626-111.818-0.015-154.512l-402.782-402.74c-42.664-42.626-111.797-42.626-154.47 0.009l-408.106 408.458c-37.228 42.928-35.454 107.962 5.333 148.799l402.745 402.702c20.476 20.525 48.276 32.060 77.268 32.060zM512 896.004c-11.991 0-23.49-4.771-31.987-13.289l-402.758-402.716c-17.67-17.691-17.67-46.351 0-64.042l402.75-402.707c17.676-17.66 46.316-17.66 63.983-0.009l402.758 402.716c17.67 17.691 17.67 46.351 0.015 64.027l-402.802 402.759c-8.469 8.489-19.967 13.26-31.958 13.26zM511.981 288l5.249-0.282c24.049-2.606 42.77-22.976 42.77-47.718 0-26.51-21.49-48-48-48s-48 21.49-48 48c0 26.503 21.48 47.99 47.981 48zM512 736c16.2 0 29.589-12.039 31.708-27.658l0.292-4.342v-320c0-17.673-14.327-32-32-32-16.2 0-29.589 12.039-31.708 27.658l-0.292 4.342v320c0 17.673 14.327 32 32 32z" />
<glyph unicode="&#xe927;" glyph-name="angle-brackets" data-tags="angle-brackets" d="M302.878 790.629c12.498 12.496 32.759 12.494 45.255-0.004s12.494-32.759-0.004-45.255v0l-274.768-274.725c-12.492-12.496-12.492-32.752-0.003-45.245v0l274.773-274.773c12.497-12.497 12.497-32.758 0-45.255s-32.758-12.497-45.255 0v0l-274.777 274.777c-37.477 37.488-37.477 98.256 0.005 135.749v0zM675.867 790.626c12.496 12.498 32.757 12.499 45.255 0.004v0l274.779-274.736c37.477-37.488 37.477-98.256-0.003-135.747v0l-274.773-274.773c-12.497-12.497-32.758-12.497-45.255 0s-12.497 32.758 0 45.255v0l274.77 274.77c12.492 12.496 12.492 32.752 0.005 45.243v0l-274.773 274.731c-12.498 12.496-12.499 32.757-0.004 45.255z" />
<glyph unicode="&#xe928;" glyph-name="arrange-letter" data-tags="arrange-letter" horiz-adv-x="768" d="M227.131-63.762c-0.624-0.061-1.25-0.104-1.877-0.128l-1.255-0.024 3.131 0.153zM224 960.085c16.2 0 29.589-12.039 31.708-27.658l0.292-4.342v-882.688l137.373 137.315c11.361 11.361 29.138 12.393 41.666 3.098l3.589-3.098c11.361-11.361 12.393-29.138 3.098-41.666l-3.098-3.589-192-192c-1.050-1.050-2.172-2.027-3.358-2.923-0.448-0.341-0.894-0.66-1.347-0.967l-2.182-1.35c-0.61-0.348-1.234-0.674-1.866-0.978-0.753-0.362-1.539-0.703-2.341-1.013l-1.35-0.485c-0.912-0.309-1.87-0.582-2.846-0.811-0.522-0.119-1.021-0.223-1.522-0.315l-2.856-0.395-2.959-0.135c-0.419 0-0.836 0.008-1.25 0.024-0.617 0.024-1.271 0.068-1.924 0.133-0.927 0.091-1.808 0.216-2.678 0.377-0.464 0.088-0.963 0.192-1.46 0.308-1.001 0.232-1.959 0.505-2.898 0.821-0.418 0.142-0.861 0.301-1.3 0.47-0.825 0.318-1.611 0.659-2.38 1.030l-1.857 0.969c-0.745 0.425-1.477 0.879-2.188 1.361l-1.335 0.956-0.272 0.249-0.128 0.085-0.085 0.085-0.213 0.171-0.085 0.085-0.085 0.043-0.043 0.043 0.085-0.043-2.531 2.205-192 192c-12.497 12.497-12.497 32.758 0 45.255 11.361 11.361 29.138 12.393 41.666 3.098l3.589-3.098 137.373-137.401v882.773c0 16.2 12.039 29.589 27.658 31.708l4.342 0.292zM697.6 384.085c23.357 0 45.195-11.577 58.296-30.914 11.792-17.406 15.122-39.056 9.35-59.026l-2.262-6.586-3.123-5.926-183.872-274.673c-0.106-1.419 0.264-2.854 1.082-4.063 0.794-1.173 1.943-2.033 3.257-2.475l2.072-0.337h153.6c17.673 0 32-14.327 32-32 0-16.2-12.039-29.589-27.658-31.708l-4.342-0.292h-153.576c-23.381-0.017-45.245 11.574-58.351 30.936-11.796 17.426-15.113 39.099-9.314 59.079l2.271 6.589 3.109 5.89 183.856 274.649-0.055 1.41c-0.14 0.931-0.486 1.833-1.030 2.636-0.793 1.171-1.941 2.030-3.25 2.472l-2.060 0.338h-153.6c-17.673 0-32 14.327-32 32 0 16.2 12.039 29.589 27.658 31.708l4.342 0.292h153.6zM203.904-56.789l0.128-0.085 0.171-0.171-0.299 0.256zM201.373-54.542l2.233-1.991-0.605 0.472c-0.56 0.487-1.103 0.994-1.628 1.519zM640 960c68.168 0 123.89-53.287 127.783-120.479l0.217-7.521v-287.915c0-17.673-14.327-32-32-32-16.2 0-29.589 12.039-31.708 27.658l-0.292 4.342v96h-128v-96.085c0-17.673-14.327-32-32-32-16.2 0-29.589 12.039-31.708 27.658l-0.292 4.342v288c0 70.692 57.308 128 128 128zM640 896c-33.267 0-60.606-25.382-63.707-57.836l-0.293-6.164v-127.915h128v127.915c0 35.346-28.654 64-64 64z" />
<glyph unicode="&#xe929;" glyph-name="arrange-number" data-tags="arrange-number" horiz-adv-x="768" d="M227.131-63.762c-0.624-0.061-1.25-0.104-1.877-0.128l-1.255-0.024 3.131 0.153zM224 960.085c16.2 0 29.589-12.039 31.708-27.658l0.292-4.342v-882.688l137.373 137.315c11.361 11.361 29.138 12.393 41.666 3.098l3.589-3.098c11.361-11.361 12.393-29.138 3.098-41.666l-3.098-3.589-192-192c-1.050-1.050-2.172-2.027-3.358-2.923-0.448-0.341-0.894-0.66-1.347-0.967l-2.182-1.35c-0.61-0.348-1.234-0.674-1.866-0.978-0.753-0.362-1.539-0.703-2.341-1.013l-1.35-0.485c-0.912-0.309-1.87-0.582-2.846-0.811-0.522-0.119-1.021-0.223-1.522-0.315l-2.856-0.395-2.959-0.135c-0.419 0-0.836 0.008-1.25 0.024-0.617 0.024-1.271 0.068-1.924 0.133-0.927 0.091-1.808 0.216-2.678 0.377-0.464 0.088-0.963 0.192-1.46 0.308-1.001 0.232-1.959 0.505-2.898 0.821-0.418 0.142-0.861 0.301-1.3 0.47-0.825 0.318-1.611 0.659-2.38 1.030l-1.857 0.969c-0.745 0.425-1.477 0.879-2.188 1.361l-1.335 0.956-0.4 0.334-0.085 0.085-0.213 0.171-0.085 0.085-0.085 0.043-0.043 0.043 0.085-0.043-2.531 2.205-192 192c-12.497 12.497-12.497 32.758 0 45.255 11.361 11.361 29.138 12.393 41.666 3.098l3.589-3.098 137.373-137.401v882.773c0 16.2 12.039 29.589 27.658 31.708l4.342 0.292zM640 384.085c70.692 0 128-57.308 128-128v-160c0-88.366-71.634-160-160-160-17.673 0-32 14.327-32 32s14.327 32 32 32v0l6.573 0.221c49.954 3.378 89.427 44.968 89.427 95.779v0l0.031 49.142c-18.834-10.902-40.704-17.142-64.031-17.142-70.692 0-128 57.308-128 128s57.308 128 128 128zM203.904-56.789l0.128-0.085 0.171-0.171-0.299 0.256zM201.373-54.542l2.233-1.991-0.605 0.472c-0.56 0.487-1.103 0.994-1.628 1.519zM640 320.085c-35.346 0-64-28.654-64-64s28.654-64 64-64c35.346 0 64 28.654 64 64s-28.654 64-64 64zM668.622 953.243c19.875-9.938 33.040-29.387 35.096-51.231l0.282-6.012v-319.915h32c16.2 0 29.589-12.039 31.708-27.658l0.292-4.342c0-16.2-12.039-29.589-27.658-31.708l-4.342-0.292h-128c-17.673 0-32 14.327-32 32 0 16.2 12.039 29.589 27.658 31.708l4.342 0.292h32v319.915l-76.8-57.6c-14.139-10.604-34.196-7.738-44.8 6.4-9.64 12.853-8.148 30.598 2.825 41.685l3.575 3.115 76.8 57.6c19.393 14.545 45.339 16.884 67.022 6.043z" />
<glyph unicode="&#xe92a;" glyph-name="arrow-down" data-tags="arrow-down" d="M512 960c17.673 0 32-14.327 32-32v0-882.731l393.373 393.358c11.361 11.361 29.138 12.393 41.666 3.098l3.589-3.098c12.497-12.497 12.497-32.758 0-45.255v0l-448-448c-1.050-1.050-2.172-2.027-3.358-2.923-0.448-0.341-0.894-0.66-1.347-0.967-0.699-0.471-1.431-0.925-2.182-1.35-0.61-0.348-1.234-0.674-1.866-0.978-0.753-0.362-1.539-0.703-2.341-1.013-0.463-0.177-0.905-0.336-1.35-0.485-0.912-0.309-1.87-0.582-2.846-0.811-0.522-0.119-1.021-0.223-1.522-0.315-1.861-0.347-3.817-0.53-5.815-0.53l3.131 0.153c-0.624-0.061-1.25-0.104-1.877-0.128l-1.255-0.024c-0.419 0-0.836 0.008-1.25 0.024-0.617 0.024-1.271 0.068-1.924 0.133-0.927 0.091-1.808 0.216-2.678 0.377-0.464 0.088-0.963 0.192-1.46 0.308-1.001 0.232-1.959 0.505-2.898 0.821-0.418 0.142-0.861 0.301-1.3 0.47-0.825 0.318-1.611 0.659-2.38 1.030-0.617 0.295-1.241 0.621-1.857 0.969-0.745 0.425-1.477 0.879-2.188 1.361-1.647 1.113-3.224 2.409-4.693 3.879l3.358-2.923c-1.187 0.896-2.309 1.873-3.358 2.923l-448 448c-12.497 12.497-12.497 32.758 0 45.255s32.758 12.497 45.255 0v0l393.373-393.358v882.731c0 16.2 12.039 29.589 27.658 31.708z" />
<glyph unicode="&#xe92b;" glyph-name="chevron-down" data-tags="chevron-down" d="M969.374 692.026l-457.343-457.361-457.404 457.361c-12.497 12.496-32.759 12.495-45.255-0.002s-12.495-32.759 0.002-45.255l457.387-457.344c11.98-11.997 28.261-18.748 45.24-18.748s33.26 6.751 45.257 18.765l457.37 457.327c12.497 12.496 12.498 32.757 0.002 45.255s-32.757 12.498-45.255 0.002z" />
<glyph unicode="&#xe92c;" glyph-name="arrow-left" data-tags="arrow-left" d="M457.373 918.627c12.497 12.497 32.758 12.497 45.255 0s12.497-32.758 0-45.255v0l-393.401-393.373h882.773c16.2 0 29.589-12.039 31.708-27.658l0.292-4.342c0-17.673-14.327-32-32-32v0h-882.773l393.401-393.373c11.361-11.361 12.393-29.138 3.098-41.666l-3.098-3.589c-12.497-12.497-32.758-12.497-45.255 0v0l-450.705 451.073c-0.073 0.095-0.146 0.19-0.218 0.285-0.341 0.448-0.66 0.894-0.967 1.347-0.471 0.699-0.925 1.431-1.35 2.182-0.348 0.61-0.674 1.234-0.978 1.866-0.362 0.753-0.703 1.539-1.013 2.341-0.178 0.463-0.336 0.905-0.485 1.35-0.309 0.912-0.582 1.87-0.811 2.846-0.119 0.522-0.223 1.021-0.315 1.522-0.347 1.861-0.53 3.817-0.53 5.815l0.17-3.303c-0.088 0.851-0.141 1.704-0.161 2.558l-0.009 0.744c0 0.245 0.003 0.49 0.008 0.734 0.018 0.836 0.072 1.703 0.162 2.568 0.090 0.882 0.211 1.721 0.364 2.549 0.088 0.464 0.192 0.963 0.308 1.46 0.232 1.001 0.505 1.959 0.821 2.898 0.142 0.418 0.301 0.861 0.47 1.3 0.318 0.825 0.659 1.611 1.030 2.38 0.295 0.617 0.621 1.241 0.969 1.857 0.425 0.745 0.879 1.477 1.361 2.188 1.113 1.647 2.409 3.224 3.879 4.693l-2.923-3.358c0.896 1.187 1.873 2.309 2.923 3.358z" />
<glyph unicode="&#xe92d;" glyph-name="chevron-left" data-tags="chevron-left" horiz-adv-x="555" d="M545.294-9.373l-457.403 457.342 457.403 457.403c12.497 12.497 12.497 32.758 0 45.255s-32.758 12.497-45.255 0l-457.387-457.387c-11.998-11.981-18.749-28.262-18.749-45.241s6.751-33.26 18.765-45.257l457.371-457.371c12.497-12.497 32.758-12.497 45.255 0s12.497 32.758 0 45.255z" />
<glyph unicode="&#xe92e;" glyph-name="arrow-right" data-tags="arrow-right" d="M521.373 918.627c12.497 12.497 32.758 12.497 45.255 0v0l448-448c1.050-1.050 2.027-2.172 2.923-3.358 0.341-0.448 0.66-0.894 0.967-1.347 0.471-0.699 0.925-1.431 1.35-2.182 0.348-0.61 0.674-1.234 0.978-1.866 0.362-0.753 0.703-1.539 1.013-2.341 0.177-0.463 0.336-0.905 0.485-1.35 0.309-0.912 0.582-1.87 0.811-2.846 0.119-0.522 0.223-1.021 0.315-1.522 0.347-1.861 0.53-3.817 0.53-5.815l-0.157 3.174c0.065-0.653 0.109-1.307 0.134-1.962l0.023-1.212c0-0.423-0.008-0.844-0.024-1.263-0.024-0.618-0.067-1.244-0.128-1.869-0.090-0.934-0.217-1.834-0.381-2.72-0.088-0.464-0.192-0.963-0.308-1.46-0.232-1.001-0.505-1.959-0.821-2.898-0.142-0.418-0.301-0.861-0.47-1.3-0.318-0.825-0.659-1.611-1.030-2.38-0.295-0.617-0.621-1.241-0.969-1.857-0.425-0.745-0.879-1.477-1.361-2.188-1.113-1.647-2.409-3.224-3.879-4.693l2.923 3.358c-0.072-0.095-0.145-0.191-0.218-0.285l-2.705-3.073-448-448c-12.497-12.497-32.758-12.497-45.255 0s-12.497 32.758 0 45.255v0l393.315 393.373h-882.688c-16.2 0-29.589 12.039-31.708 27.658l-0.292 4.342c0 17.673 14.327 32 32 32v0h882.773l-393.401 393.373c-11.361 11.361-12.393 29.138-3.098 41.666z" />
<glyph unicode="&#xe92f;" glyph-name="chevron-right" data-tags="chevron-right" horiz-adv-x="597" d="M41.373 905.373l457.403-457.342-457.403-457.403c-12.497-12.497-12.497-32.758 0-45.255s32.758-12.497 45.255 0l457.387 457.387c11.998 11.981 18.749 28.262 18.749 45.241s-6.751 33.26-18.765 45.257l-457.371 457.371c-12.497 12.497-32.758 12.497-45.255 0s-12.497-32.758 0-45.255z" />
<glyph unicode="&#xe930;" glyph-name="arrow-up" data-tags="arrow-up" d="M512 960c0.248 0 0.495-0.003 0.742-0.008 0.857-0.020 1.71-0.074 2.561-0.161 0.875-0.089 1.718-0.21 2.549-0.364 0.464-0.088 0.963-0.192 1.46-0.308 1.001-0.232 1.959-0.505 2.898-0.821 0.418-0.142 0.861-0.301 1.3-0.47 0.825-0.318 1.611-0.659 2.38-1.030 0.617-0.295 1.241-0.621 1.857-0.969 0.745-0.425 1.477-0.879 2.188-1.361 1.647-1.113 3.224-2.409 4.693-3.879l-3.358 2.923c0.095-0.072 0.191-0.145 0.285-0.218l3.073-2.705 448-448c12.497-12.497 12.497-32.758 0-45.255s-32.758-12.497-45.255 0v0l-393.373 393.401v-882.773c0-16.2-12.039-29.589-27.658-31.708l-4.342-0.292c-17.673 0-32 14.327-32 32v0 882.773l-393.373-393.401c-11.361-11.361-29.138-12.393-41.666-3.098l-3.589 3.098c-12.497 12.497-12.497 32.758 0 45.255v0l451.073 450.705c0.095 0.073 0.19 0.146 0.285 0.218 0.448 0.341 0.894 0.66 1.347 0.967 0.699 0.471 1.431 0.925 2.182 1.35 0.61 0.348 1.234 0.674 1.866 0.978 0.753 0.362 1.539 0.703 2.341 1.013 0.463 0.178 0.905 0.336 1.35 0.485 0.912 0.309 1.87 0.582 2.846 0.811 0.522 0.119 1.021 0.223 1.522 0.315 1.861 0.347 3.817 0.53 5.815 0.53l-3.303-0.17c0.865 0.089 1.732 0.143 2.601 0.162z" />
<glyph unicode="&#xe931;" glyph-name="chevron-up" data-tags="chevron-up" d="M54.626 182.641l457.343 457.361 457.404-457.361c12.497-12.496 32.759-12.495 45.255 0.002s12.495 32.759-0.002 45.255l-457.387 457.344c-11.98 11.997-28.261 18.748-45.24 18.748s-33.26-6.751-45.257-18.765l-457.37-457.327c-12.497-12.496-12.498-32.757-0.002-45.255s32.757-12.498 45.255-0.002z" />
<glyph unicode="&#xe932;" glyph-name="attachment" data-tags="attachment" d="M969.372 560.226l-468.352-468.395c-99.974-99.974-262.065-99.974-362.040 0.001s-99.975 262.066 0 362.041l384.681 384.639c40.563 41.991 100.052 58.672 155.992 44.029s99.628-58.33 114.27-114.27c14.642-55.941-2.038-115.429-43.632-155.601l-385.043-385.249c-24.709-23.866-64.626-23.525-89.317 1.158s-25.044 64.6-0.794 89.716l384.293 384.414c12.495 12.499 12.491 32.76-0.008 45.255s-32.76 12.491-45.255-0.008l-384.683-384.811c-48.89-50.629-48.184-130.463 1.198-179.829s129.216-50.047 179.433-1.531l385.039 385.246c57.827 55.845 81.181 139.129 60.681 217.446s-81.662 139.479-159.979 159.979c-74.912 19.608-154.368-0.906-210.355-53.687l-391.778-391.639c-124.97-124.97-124.97-327.584-0.001-452.552s327.582-124.968 452.551 0l468.353 468.396c12.496 12.497 12.495 32.759-0.002 45.255s-32.759 12.495-45.255-0.002z" />
<glyph unicode="&#xe933;" glyph-name="bin" data-tags="bin" d="M960 800c16.2 0 29.589-12.039 31.708-27.658l0.292-4.342c0-16.2-12.039-29.589-27.658-31.708l-4.342-0.292h-66.56l-56.644-679.947-0.792-6.702c-7.136-46.462-47.21-81.35-94.885-81.35h-458.197c-49.945 0-91.548 38.29-95.676 88.051l-56.729 679.949h-66.517c-17.673 0-32 14.327-32 32 0 16.2 12.039 29.589 27.658 31.708l4.342 0.292h256v32c0 50.81 39.474 92.401 89.427 95.779l6.573 0.221h192c50.81 0 92.401-39.474 95.779-89.427l0.221-6.573v-32h256zM829.223 736h-634.444l56.247-674.645c1.376-16.591 15.244-29.355 31.896-29.355h458.197c16.652 0 30.52 12.764 31.896 29.355l56.207 674.645zM416 576c16.2 0 29.589-12.039 31.708-27.658l0.292-4.342v-320c0-17.673-14.327-32-32-32-16.2 0-29.589 12.039-31.708 27.658l-0.292 4.342v320c0 17.673 14.327 32 32 32zM608 576c16.2 0 29.589-12.039 31.708-27.658l0.292-4.342v-320c0-17.673-14.327-32-32-32-16.2 0-29.589 12.039-31.708 27.658l-0.292 4.342v320c0 17.673 14.327 32 32 32zM608 864h-192c-16.2 0-29.589-12.039-31.708-27.658l-0.292-4.342v-32h256v32c0 17.673-14.327 32-32 32z" />
<glyph unicode="&#xe934;" glyph-name="bookmarks" data-tags="bookmarks" horiz-adv-x="768" d="M640 945.365c53.019 0 96-42.981 96-96v-834.581c-0.016-23.855-13.297-45.721-34.458-56.732s-46.69-9.339-66.235 4.337l-251.307 175.915-251.307-175.915c-19.545-13.677-45.074-15.348-66.235-4.337s-34.443 32.877-34.458 56.753v834.56c0 53.019 42.981 96 96 96h512zM224 881.365h-96c-17.673 0-32-14.327-32-32v-834.542l128 89.667v776.875zM640 881.365h-96v-776.917l128.004-89.625v834.542c0 17.673-14.331 32-32.004 32zM480 881.365h-192v-732.075l77.649 54.29c11.018 7.713 25.683 7.713 36.702 0l77.649-54.333v732.117z" />
<glyph unicode="&#xe935;" glyph-name="briefcase" data-tags="briefcase" d="M593.873 928c38.88 0.005 73.659-23.399 88.522-58.821l2.55-6.78 42.095-126.4h104.96v32c0 16.2 12.039 29.589 27.658 31.708l4.342 0.292c17.673 0 32-14.327 32-32v0-32h32c53.019 0 96-42.981 96-96v-576c0-53.019-42.981-96-96-96h-832c-53.019 0-96 42.981-96 96v576c0 50.81 39.474 92.401 89.427 95.779l6.573 0.221h32v32c0 16.2 12.039 29.589 27.658 31.708l4.342 0.292c16.2 0 29.589-12.039 31.708-27.658l0.292-4.342v-32h104.917l42.137 126.4c12.312 36.879 45.529 62.453 83.831 65.329l7.237 0.271h163.751zM928 672l-836.342-0.292c-15.619-2.119-27.658-15.508-27.658-31.708v-576c0-17.673 14.327-32 32-32h832c17.673 0 32 14.327 32 32v576c0 17.673-14.327 32-32 32zM800 256c17.673 0 32-14.327 32-32 0-16.2-12.039-29.589-27.658-31.708l-4.342-0.292h-576c-17.673 0-32 14.327-32 32 0 16.2 12.039 29.589 27.658 31.708l4.342 0.292h576zM800 512c17.673 0 32-14.327 32-32 0-16.2-12.039-29.589-27.658-31.708l-4.342-0.292h-576c-17.673 0-32 14.327-32 32 0 16.2 12.039 29.589 27.658 31.708l4.342 0.292h576zM593.877 864h-163.759c-12.24 0.002-23.261-6.957-28.617-17.665l-1.735-4.185-35.373-106.15h295.213l-35.373 106.15-1.731 4.173c-5.36 10.72-16.382 17.678-28.625 17.677z" />
<glyph unicode="&#xe936;" glyph-name="building" data-tags="building" d="M788.48 920.269c11.453 0 21.955-6.371 27.246-16.529l61.44-117.965 1.303-2.968 0.668-1.681c0.228-0.72 0.44-1.462 0.624-2.216 0.216-0.786 0.381-1.58 0.513-2.373 0.010-0.257 0.050-0.52 0.085-0.784l0.113-0.611c0.114-0.963 0.181-1.924 0.202-2.881l-0.034-736.728h92.16c15.552 0 28.405-11.557 30.44-26.551l0.28-4.169c0-15.552-11.557-28.405-26.551-30.44l-4.169-0.28h-921.6c-16.966 0-30.72 13.754-30.72 30.72 0 15.552 11.557 28.405 26.551 30.44l4.169 0.28h92.16l0.015 734.226-0.044 2.721 0.13 1.611-0.019-0.377 0.041 0.86 0.275 1.968c0.1 0.788 0.264 1.582 0.463 2.374 0.202 0.747 0.415 1.489 0.653 2.22 0.134 0.427 0.289 0.863 0.456 1.298 0.315 0.83 0.655 1.624 1.027 2.401 0.147 0.292 0.309 0.616 0.477 0.939l61.44 117.965c5.291 10.158 15.793 16.529 27.246 16.529h552.96zM819.2 740.864h-614.4v-705.331h184.32v57.754c0 63.754 51.411 115.386 115.687 118.992l7.193 0.201c65.177 0 118.915-49.354 122.67-112.161l0.21-7.032v-57.754h184.32v705.331zM512 151.040c-32.194 0-58.212-23.159-61.161-52.236l-0.279-5.517v-57.754h122.88v57.754c0 31.61-27.233 57.754-61.44 57.754zM327.68 345.19c24.779 0 45.422-19.443 46.065-44.272l0.015-1.194c0-23.704-18.211-42.766-41.107-45.202l-4.973-0.263c-23.497 0-43.274 17.482-45.806 40.462l-0.274 5.045 0.021 1.109c0.014 0.382 0.035 0.761 0.063 1.139l-0.002-0.528 0.192 3.243c2.533 22.98 22.309 40.462 45.806 40.462zM512 345.19c24.766 0 45.399-19.421 46.063-44.231l0.017-1.235c0-23.704-18.211-42.766-41.107-45.202l-4.973-0.263c-25.175 0-46.080 20.069-46.080 45.466l0.001 0.21c-0.001 25.187 20.904 45.256 46.079 45.256zM696.32 345.19c24.752 0 45.376-19.4 46.062-44.19l0.018-1.276c0-25.397-20.905-45.466-46.080-45.466v0c-25.175 0-46.080 20.069-46.080 45.466l0.001 0.21c-0.001 25.187 20.904 45.256 46.079 45.256zM327.68 522.138c24.779 0 45.422-19.443 46.065-44.272l0.015-1.194c0-23.704-18.211-42.766-41.107-45.202l-4.973-0.263c-25.175 0-46.080 20.069-46.080 45.466l0.038 1.543 0.236 3.461c2.533 22.98 22.309 40.462 45.806 40.462zM512 522.138c24.766 0 45.399-19.421 46.063-44.231l0.017-1.235c0-23.704-18.211-42.766-41.107-45.202l-4.973-0.263c-23.497 0-43.274 17.482-45.806 40.462l-0.274 5.004c0 25.397 20.905 45.466 46.080 45.466zM696.32 522.138c24.752 0 45.376-19.4 46.062-44.19l0.018-1.276c0-23.704-18.211-42.766-41.107-45.202l-4.973-0.263c-23.497 0-43.274 17.482-45.806 40.462l-0.274 5.004c0 25.397 20.905 45.466 46.080 45.466zM327.68 699.085c24.79 0 45.439-19.459 46.065-44.304l0.015-1.162c0-23.704-18.211-42.766-41.107-45.202l-4.973-0.263c-25.175 0-46.080 20.069-46.080 45.466l0.038 1.543 0.236 3.461c2.533 22.98 22.309 40.462 45.806 40.462zM512 699.085c24.79 0 45.439-19.459 46.065-44.304l0.015-1.162c0-23.704-18.211-42.766-41.107-45.202l-4.973-0.263c-23.497 0-43.274 17.482-45.806 40.462l-0.274 5.004c0 25.397 20.905 45.466 46.080 45.466zM696.32 699.085c24.79 0 45.439-19.459 46.065-44.304l0.015-1.162c0-23.704-18.211-42.766-41.107-45.202l-4.973-0.263c-23.497 0-43.274 17.482-45.806 40.462l-0.274 5.004c0 25.397 20.905 45.466 46.080 45.466zM878.223 783.503l0.439-1.051-0.193 0.354-0.246 0.696zM769.843 858.829h-515.686l-29.44-56.525h574.566l-29.44 56.525z" />
<glyph unicode="&#xe937;" glyph-name="calendar" data-tags="calendar" d="M736.085 960c17.673 0 32-14.327 32-32v0-96h160c53.019 0 96-42.981 96-96v-704c0-53.019-42.981-96-96-96h-832c-53.019 0-96 42.981-96 96v704c0 53.019 42.981 96 96 96h160v96c0 16.2 12.039 29.589 27.658 31.708l4.342 0.292c16.2 0 29.589-12.039 31.708-27.658l0.292-4.342v-96h384v96c0 16.2 12.039 29.589 27.658 31.708zM960.085 512h-896v-480c0-17.673 14.327-32 32-32h832c17.673 0 32 14.327 32 32v480zM256.085 768h-160c-17.673 0-32-14.327-32-32v-160h896v160c0 17.673-14.327 32-32 32h-160v-64c0-16.2-12.039-29.589-27.658-31.708l-4.342-0.292c-17.673 0-32 14.327-32 32v0 64h-384v-64c0-16.2-12.039-29.589-27.658-31.708l-4.342-0.292c-16.2 0-29.589 12.039-31.708 27.658l-0.292 4.342v64z" />
<glyph unicode="&#xe938;" glyph-name="calendar-alt" data-tags="calendar-alt" d="M736 960c16.2 0 29.589-12.039 31.708-27.658l0.292-4.342v-96h160c53.019 0 96-42.981 96-96v-704c0-53.019-42.981-96-96-96h-832c-53.019 0-96 42.981-96 96v704c0 53.019 42.981 96 96 96h160v96c0 16.2 12.039 29.589 27.658 31.708l4.342 0.292c16.2 0 29.589-12.039 31.708-27.658l0.292-4.342v-96h384v96c0 14.728 9.949 27.131 23.493 30.857l4.165 0.851 4.342 0.292zM256 768h-160c-17.673 0-32-14.327-32-32v-704c0-17.673 14.327-32 32-32h832c17.673 0 32 14.327 32 32v704c0 17.673-14.327 32-32 32h-160v-64c0-16.2-12.039-29.589-27.658-31.708l-4.342-0.292c-16.2 0-29.589 12.039-31.708 27.658l-0.292 4.342v64h-384v-64c0-16.2-12.039-29.589-27.658-31.708l-4.342-0.292c-16.2 0-29.589 12.039-31.708 27.658l-0.292 4.342v64zM800 576c17.673 0 32-14.327 32-32v-384c0-17.673-14.327-32-32-32h-576c-17.673 0-32 14.327-32 32v192c0 17.673 14.327 32 32 32h160v160c0 17.673 14.327 32 32 32h384zM384 320h-128v-128h128v128zM576 320h-128v-128h128v128zM768 320h-128v-128h128v128zM576 512h-128v-128h128v128zM768 512h-128v-128h128v128z" />
<glyph unicode="&#xe939;" glyph-name="calendar-check" data-tags="calendar-check" d="M731.658 959.708l4.342 0.292c16.2 0 29.589-12.039 31.708-27.658l0.292-4.342v-96h160c53.019 0 96-42.981 96-96v-704c0-53.019-42.981-96-96-96h-832c-53.019 0-96 42.981-96 96v704c0 53.019 42.981 96 96 96h160v96c0 16.2 12.039 29.589 27.658 31.708l4.342 0.292c16.2 0 29.589-12.039 31.708-27.658l0.292-4.342v-96h384v96c0 16.2 12.039 29.589 27.658 31.708l4.342 0.292zM960 512h-896v-480c0-17.673 14.327-32 32-32h832c17.673 0 32 14.327 32 32v480zM646.4 403.2c10.604 14.138 30.662 17.004 44.8 6.4s17.004-30.662 6.4-44.8v0l-192-256c-11.684-15.579-34.458-17.197-48.227-3.427v0l-128 128c-12.497 12.497-12.497 32.758 0 45.255s32.758 12.497 45.255 0v0l101.91-101.91zM256 768h-160c-17.673 0-32-14.327-32-32v-160h896v160c0 17.673-14.327 32-32 32h-160v-64c0-16.2-12.039-29.589-27.658-31.708l-4.342-0.292c-16.2 0-29.589 12.039-31.708 27.658l-0.292 4.342v64h-384v-64c0-16.2-12.039-29.589-27.658-31.708l-4.342-0.292c-16.2 0-29.589 12.039-31.708 27.658l-0.292 4.342v64z" />
<glyph unicode="&#xe93a;" glyph-name="calendar-disable" data-tags="calendar-disable" d="M736 960c16.2 0 29.589-12.039 31.708-27.658l0.292-4.342v-96h160c53.019 0 96-42.981 96-96v-704c0-53.019-42.981-96-96-96h-832c-53.019 0-96 42.981-96 96v704c0 53.019 42.981 96 96 96h160v96c0 16.2 12.039 29.589 27.658 31.708l4.342 0.292c16.2 0 29.589-12.039 31.708-27.658l0.292-4.342v-96h384v96c0 14.728 9.949 27.131 23.493 30.857l4.165 0.851 4.342 0.292zM960 512h-896v-480c0-17.673 14.327-32 32-32h832c17.673 0 32 14.327 32 32v480zM403.038 409.726l3.589-3.098 105.373-105.358 105.373 105.358c11.361 11.361 29.138 12.393 41.666 3.098l3.589-3.098c12.497-12.497 12.497-32.758 0-45.255v0l-105.358-105.373 105.358-105.373c12.497-12.497 12.497-32.758 0-45.255-11.361-11.361-29.138-12.393-41.666-3.098l-3.589 3.098-105.373 105.358-105.373-105.358c-11.361-11.361-29.138-12.393-41.666-3.098l-3.589 3.098c-12.497 12.497-12.497 32.758 0 45.255v0l105.358 105.373-105.358 105.373c-12.497 12.497-12.497 32.758 0 45.255 11.361 11.361 29.138 12.393 41.666 3.098zM256 768h-160c-17.673 0-32-14.327-32-32v-160h896v160c0 17.673-14.327 32-32 32h-160v-64c0-16.2-12.039-29.589-27.658-31.708l-4.342-0.292c-16.2 0-29.589 12.039-31.708 27.658l-0.292 4.342v64h-384v-64c0-16.2-12.039-29.589-27.658-31.708l-4.342-0.292c-16.2 0-29.589 12.039-31.708 27.658l-0.292 4.342v64z" />
<glyph unicode="&#xe93b;" glyph-name="camera" data-tags="camera" d="M728.448 864c33.942 0 65.165-17.888 82.407-46.721l3.476-6.344 37.45-74.935h76.219c50.81 0 92.401-39.474 95.779-89.427l0.221-6.573v-512c0-50.81-39.474-92.401-89.427-95.779l-6.573-0.221h-832c-50.81 0-92.401 39.474-95.779 89.427l-0.221 6.573v512c0 50.81 39.474 92.401 89.427 95.779l6.573 0.221h96v32c0 16.2 12.039 29.589 27.658 31.708l4.342 0.292c17.673 0 32-14.327 32-32v0-32h108.219l37.455 74.944c15.182 30.354 45.155 50.265 78.651 52.785l7.227 0.271h240.896zM728.448 800h-240.896c-10.616 0-20.43-5.242-26.346-13.807l-2.288-3.869-46.293-92.629c-4.742-9.488-13.819-15.919-24.136-17.379l-4.488-0.316h-288c-16.2 0-29.589-12.039-31.708-27.658l-0.292-4.342v-512c0-16.2 12.039-29.589 27.658-31.708l4.342-0.292h832c16.2 0 29.589 12.039 31.708 27.658l0.292 4.342v512c0 16.2-12.039 29.589-27.658 31.708l-4.342 0.292h-96c-10.607 0-20.418 5.245-26.336 13.821l-2.289 3.874-46.289 92.62c-5.421 10.839-16.506 17.685-28.639 17.685zM608 672c141.385 0 256-114.615 256-256s-114.615-256-256-256c-141.385 0-256 114.615-256 256s114.615 256 256 256zM608 608c-106.039 0-192-85.961-192-192s85.961-192 192-192c106.039 0 192 85.961 192 192s-85.961 192-192 192zM175.981 608l5.249-0.282c24.049-2.606 42.77-22.976 42.77-47.718 0-26.51-21.49-48-48-48s-48 21.49-48 48c0 26.503 21.48 47.99 47.981 48z" />
<glyph unicode="&#xe93c;" glyph-name="car" data-tags="car" d="M701.483 821.334c53.352 0 101.105-33.105 119.824-83.072l55.109-147.2 28.957 28.899c4.801 4.801 10.97 7.919 17.591 8.974l5.036 0.399h64c17.673 0 32-14.327 32-32 0-16.2-12.039-29.589-27.658-31.708l-4.342-0.292h-50.745l-31.986-32 82.752-82.767c8.817-8.823 15.97-18.997 21.257-30.038 0.649-1.24 1.242-2.535 1.749-3.873 4.738-10.945 7.666-22.629 8.625-34.632l0.347-8.647v-96.043c0-41.792-26.705-77.347-63.981-90.531l-0.019-37.469c0-53.019-42.981-96-96-96s-96 42.981-96 96v32h-512v-32c0-50.81-39.474-92.401-89.427-95.779l-6.573-0.221c-50.81 0-92.401 39.474-95.779 89.427l-0.221 6.573 0.022 37.482c-13.381 4.728-25.678 12.409-35.904 22.635-16.003 16.003-25.773 37.074-27.746 59.441l-0.372 8.441v96.063c0.009 15.015 3.109 29.711 8.948 43.236 0.525 1.346 1.111 2.627 1.775 3.86 3.952 8.29 8.969 16.095 14.956 23.207l6.307 6.874 82.745 82.76-31.986 32h-50.745c-17.673 0-32 14.327-32 32 0 16.2 12.039 29.589 27.658 31.708l4.342 0.292h64c6.79 0 13.357-2.158 18.784-6.093l3.843-3.279 28.829-28.814 55.111 147.119c18.739 50.020 66.577 83.137 119.95 83.067h378.965zM192 181.333h-64v-32c0-17.673 14.327-32 32-32 16.2 0 29.589 12.039 31.708 27.658l0.292 4.342v32zM896 181.333h-64v-32c0-17.673 14.327-32 32-32s32 14.327 32 32v32zM850.745 501.333h-677.49l-64.028-64h88.284c22.616-0.005 44.408-7.99 61.616-22.401l6.231-5.702 45.269-45.269c12.497-12.497 12.497-32.758 0-45.255-11.361-11.361-29.138-12.393-41.666-3.098l-3.589 3.098-45.262 45.262c-4.799 4.796-10.964 7.911-17.577 8.966l-5.029 0.399h-133.504v-96c0-8.487 3.371-16.626 9.373-22.627 4.801-4.801 10.97-7.919 17.591-8.974l5.036-0.399h832c16.2 0 29.589 12.039 31.708 27.658l0.292 4.342v96h-133.497c-6.785-0.001-13.347-2.158-18.768-6.086l-3.838-3.272-45.269-45.269c-12.497-12.497-32.758-12.497-45.255 0-11.361 11.361-12.393 29.138-3.098 41.666l3.098 3.589 45.277 45.277c15.997 15.987 37.054 25.748 59.41 27.723l8.437 0.373h88.235l-63.986 64zM701.483 757.333h-379.007c-26.698 0.035-50.61-16.518-59.974-41.515l-56.349-150.485h611.568l-56.347 150.48c-9.356 24.973-33.224 41.52-59.89 41.52z" />
<glyph unicode="&#xe93d;" glyph-name="check" data-tags="check" d="M965.785 946.394l-643.925-919.851c-11.41-16.396-29.924-26.263-49.808-26.592s-38.714 8.921-50.607 24.86l-163.846 218.433c-10.605 14.138-30.663 17.002-44.8 6.397s-17.002-30.663-6.397-44.8l163.797-218.368c24.148-32.363 62.457-51.181 102.911-50.513s78.12 20.744 101.231 53.953l643.875 919.778c10.135 14.478 6.614 34.431-7.864 44.566s-34.431 6.615-44.566-7.864z" />
<glyph unicode="&#xe93e;" glyph-name="check-circle" data-tags="check-circle" d="M512 960.043c282.77 0 512-229.23 512-512s-229.23-512-512-512c-282.77 0-512 229.23-512 512s229.23 512 512 512zM512 896.043c-247.424 0-448-200.576-448-448s200.576-448 448-448c247.424 0 448 200.576 448 448s-200.576 448-448 448zM742.895 688.515c10.959 13.865 31.083 16.221 44.948 5.262s16.221-31.083 5.262-44.948v0l-334.259-422.896c-15.003-19.749-38.623-31.032-63.413-30.291s-47.695 13.414-61.059 33.392v0l-104.533 148.352c-10.18 14.447-6.72 34.411 7.726 44.59s34.411 6.72 44.59-7.726v0l104.966-148.982c2.293-3.425 6.1-5.532 10.22-5.655s8.046 1.752 10.915 5.52v0z" />
<glyph unicode="&#xe93f;" glyph-name="cog" data-tags="cog" d="M720.664 951.010c45.169-18.717 73.675-63.829 71.188-112.652l-3.029-59.72c-0.731-14.538 4.719-28.707 15.004-39.007s24.446-15.771 38.924-15.064l59.778 3.032c48.797 2.406 93.836-26.129 112.505-71.278s6.934-97.159-29.334-129.937l-44.444-40.093c-10.837-9.788-17.021-23.709-17.021-38.312s6.185-28.523 17.006-38.298l44.478-40.124c36.278-32.779 48.006-84.838 29.29-130.007s-63.829-73.675-112.652-71.188l-59.756 3.031c-14.571 0.75-28.776-4.711-39.093-15.028s-15.778-24.522-15.027-39.116l3.039-59.93c2.164-48.572-26.3-93.305-71.215-111.921s-96.678-7.133-129.644 28.878l-40.161 44.429c-9.781 10.832-23.692 17.014-38.286 17.014s-28.506-6.182-38.344-17.078l-40.343-44.442c-32.781-36.033-84.635-47.645-129.653-29.035s-73.536 63.447-71.297 112.287l3.072 59.734c0.75 14.571-4.711 28.776-15.028 39.093s-24.522 15.778-39.116 15.027l-59.686-3.027c-48.817-2.548-93.955 25.901-112.716 71.041s-7.084 97.202 29.186 130.031l44.412 40.103c10.837 9.788 17.021 23.709 17.021 38.312s-6.185 28.523-17.080 38.365l-44.407 40.312c-36.121 32.765-47.78 84.682-29.138 129.745s63.571 73.571 112.376 71.238l59.793-3.032c14.599-0.768 28.837 4.701 39.169 15.043s15.786 24.586 14.995 39.366l-2.86 59.805c-2.284 48.684 26.215 93.569 71.247 112.211s96.917 7.034 129.76-29.072l40.107-44.288 4.484-4.418c9.324-8.126 21.327-12.673 33.833-12.673 14.591 0 28.496 6.189 38.386 17.166l40.271 44.187c32.779 36.278 84.838 48.006 130.007 29.29zM638.051 878.712l-40.239-44.151c-21.902-24.312-53.089-38.193-85.813-38.193s-63.91 13.881-85.812 38.193l-40.003 44.174c-14.636 16.090-37.792 21.271-57.889 12.951s-32.816-28.352-31.798-50.050l2.849-59.593c1.752-32.725-10.474-64.654-33.636-87.839s-55.080-35.442-87.747-33.725l-59.64 3.025c-21.73 1.039-41.772-11.678-50.088-31.78s-3.115-43.261 13.007-57.885l44.357-40.267c24.271-21.923 38.122-53.099 38.122-85.806s-13.851-63.883-38.126-85.809l-44.388-40.081c-16.167-14.633-21.376-37.857-13.007-57.994s28.504-32.827 50.328-31.688l59.71 3.028c32.663 1.68 64.509-10.562 87.636-33.689s35.369-54.972 33.689-87.635l-3.063-59.555c-0.995-21.717 11.732-41.728 31.823-50.033s43.233-3.123 57.84 12.932l40.263 44.353c21.915 24.272 53.087 38.124 85.788 38.124s63.873-13.852 85.776-38.111l40.013-44.267c14.652-16.005 37.753-21.129 57.798-12.821s32.748 28.272 31.792 49.753l-3.028 59.71c-1.68 32.663 10.562 64.509 33.689 87.636s54.972 35.369 87.612 33.69l59.74-3.030c21.792-1.11 41.925 11.612 50.278 31.771s3.119 43.392-13.053 58.004l-44.474 40.12c-24.271 21.923-38.122 53.099-38.122 85.806s13.851 63.883 38.137 85.819l44.437 40.087c16.176 14.62 21.413 37.832 13.082 57.981s-28.432 32.884-50.165 31.813l-59.794-3.032c-32.592-1.591-64.337 10.673-87.393 33.764s-35.274 54.853-33.635 87.456l3.030 59.74c1.11 21.792-11.612 41.925-31.771 50.278s-43.392 3.119-58.113-13.173zM512 671.957c123.712 0 224-100.288 224-224s-100.288-224-224-224c-123.712 0-224 100.288-224 224s100.288 224 224 224zM512 607.957c-88.366 0-160-71.634-160-160s71.634-160 160-160c88.366 0 160 71.634 160 160s-71.634 160-160 160z" />
<glyph unicode="&#xe940;" glyph-name="common-file-add" data-tags="common-file-add" d="M736 512c159.058 0 288-128.942 288-288s-128.942-288-288-288c-159.058 0-288 128.942-288 288s128.942 288 288 288zM736 448c-123.712 0-224-100.288-224-224s100.288-224 224-224c123.712 0 224 100.288 224 224s-100.288 224-224 224zM736 384c16.2 0 29.589-12.039 31.708-27.658l0.292-4.342v-96h96c16.2 0 29.589-12.039 31.708-27.658l0.292-4.342c0-16.2-12.039-29.589-27.658-31.708l-4.342-0.292h-96v-96c0-17.673-14.327-32-32-32-16.2 0-29.589 12.039-31.708 27.658l-0.292 4.342v96h-96c-16.2 0-29.589 12.039-31.708 27.658l-0.292 4.342c0 16.2 12.039 29.589 27.658 31.708l4.342 0.292h96v96c0 17.673 14.327 32 32 32zM549.504 960c25.444 0 49.847-10.108 67.854-28.103v0l122.546-122.546c17.988-17.999 28.096-42.403 28.096-67.847v0-133.504c0-17.673-14.327-32-32-32s-32 14.327-32 32v0 133.504c0 8.474-3.368 16.606-9.358 22.599v0l-122.531 122.531c-6.001 5.997-14.133 9.365-22.607 9.365v0h-453.504c-17.673 0-32-14.327-32-32v0-704c0-17.673 14.327-32 32-32v0h256c17.673 0 32-14.327 32-32s-14.327-32-32-32v0h-256c-53.019 0-96 42.981-96 96v0 704c0 53.019 42.981 96 96 96v0z" />
<glyph unicode="&#xe941;" glyph-name="common-file-check" data-tags="common-file-check" d="M736 512c159.058 0 288-128.942 288-288s-128.942-288-288-288c-159.058 0-288 128.942-288 288s128.942 288 288 288zM736 448c-123.712 0-224-100.288-224-224s100.288-224 224-224c123.712 0 224 100.288 224 224s-100.288 224-224 224zM549.504 960c25.444 0 49.847-10.108 67.854-28.103v0l122.546-122.546c17.988-17.999 28.096-42.403 28.096-67.847v0-133.504c0-17.673-14.327-32-32-32s-32 14.327-32 32v0 133.504c0 8.474-3.368 16.606-9.358 22.599v0l-122.531 122.531c-6.001 5.997-14.133 9.365-22.607 9.365v0h-453.504c-17.673 0-32-14.327-32-32v0-704c0-17.673 14.327-32 32-32v0h256c17.673 0 32-14.327 32-32s-14.327-32-32-32v0h-256c-53.019 0-96 42.981-96 96v0 704c0 53.019 42.981 96 96 96v0zM869.289 324.055c12.854-9.639 16.392-27.091 8.963-40.808l-2.559-3.991-123.983-165.339c-11.142-14.8-28.143-24.055-46.621-25.379-16.168-1.158-32.083 3.856-44.654 13.921l-5.174 4.62-64 64c-12.497 12.497-12.497 32.758 0 45.255 11.361 11.361 29.138 12.393 41.666 3.098l3.589-3.098 63.935-63.935 124.039 165.252c10.603 14.139 30.66 17.006 44.799 6.404z" />
<glyph unicode="&#xe942;" glyph-name="common-file-double" data-tags="common-file-double" horiz-adv-x="853" d="M624.171 960c25.444 0 49.847-10.108 67.854-28.103v0l122.546-122.546c17.988-17.999 28.096-42.403 28.096-67.847v0-453.504c0-53.019-42.981-96-96-96v0h-96v-160c0-53.019-42.981-96-96-96h-448c-53.019 0-96 42.981-96 96v576c0 53.019 42.981 96 96 96h96v160c0 50.81 39.474 92.401 89.427 95.779l6.573 0.221zM432.171 640h-325.504c-17.673 0-32-14.327-32-32v-576c0-17.673 14.327-32 32-32h448c17.673 0 32 14.327 32 32v453.504c0 8.474-3.368 16.606-9.358 22.599l-122.531 122.531c-6.001 5.997-14.133 9.365-22.607 9.365zM624.171 896h-325.504c-17.673 0-32-14.327-32-32v0-160h165.504c25.444 0 49.847-10.108 67.854-28.103l122.546-122.546c17.988-17.999 28.096-42.403 28.096-67.847v-229.504h96c16.2 0 29.589 12.039 31.708 27.658l0.292 4.342v453.504c0 8.474-3.368 16.606-9.358 22.599v0l-122.531 122.531c-6.001 5.997-14.133 9.365-22.607 9.365v0z" />
<glyph unicode="&#xe943;" glyph-name="common-file-download" data-tags="common-file-download" d="M736 512c159.058 0 288-128.942 288-288s-128.942-288-288-288c-159.058 0-288 128.942-288 288s128.942 288 288 288zM736 448c-123.712 0-224-100.288-224-224s100.288-224 224-224c123.712 0 224 100.288 224 224s-100.288 224-224 224zM734.533 64.033l1.467-0.033-1.595 0.040 0.128-0.006zM733.254 64.117l2.746-0.117-1.212 0.023-0.982 0.052-0.124 0.009-0.428 0.034zM549.504 960c25.444 0 49.847-10.108 67.854-28.103v0l122.546-122.546c17.988-17.999 28.096-42.403 28.096-67.847v0-133.504c0-17.673-14.327-32-32-32s-32 14.327-32 32v0 133.504c0 8.474-3.368 16.606-9.358 22.599v0l-122.531 122.531c-6.001 5.997-14.133 9.365-22.607 9.365v0h-453.504c-17.673 0-32-14.327-32-32v0-704c0-17.673 14.327-32 32-32v0h256c17.673 0 32-14.327 32-32s-14.327-32-32-32v0h-256c-53.019 0-96 42.981-96 96v0 704c0 53.019 42.981 96 96 96v0zM739.155 64.154l-0.837-0.070-0.086-0.006 0.923 0.076zM732.826 64.157l0.557-0.050-0.128 0.011-0.428 0.040zM713.373 73.373l-96 96c-12.497 12.497-12.497 32.758 0 45.255 11.361 11.361 29.138 12.393 41.666 3.098l3.589-3.098 41.373-41.358v178.731c0 17.673 14.327 32 32 32 16.2 0 29.589-12.039 31.708-27.658l0.292-4.342v-178.688l41.373 41.315c11.361 11.361 29.138 12.393 41.666 3.098l3.589-3.098c11.361-11.361 12.393-29.138 3.098-41.666l-3.098-3.589-96-96c-1.050-1.050-2.172-2.027-3.358-2.923-0.448-0.341-0.894-0.66-1.347-0.967l-2.182-1.35-0.606-0.337c0.088 0.047 0.175 0.095 0.606 0.337-0.61-0.348-1.234-0.674-1.866-0.978-0.753-0.362-1.539-0.703-2.341-1.013l-1.35-0.485c-0.912-0.309-1.87-0.582-2.846-0.811-0.522-0.119-1.021-0.223-1.522-0.315-0.85-0.16-1.75-0.287-2.661-0.376-0.648-0.062-1.273-0.105-1.9-0.129l-0.623-0.018-0.632-0.006c-1.999 0-3.955 0.183-5.852 0.534-0.464 0.088-0.963 0.192-1.46 0.308-1.001 0.232-1.959 0.505-2.898 0.821-0.418 0.142-0.861 0.301-1.3 0.47-0.825 0.318-1.611 0.659-2.38 1.030l-1.857 0.969c-0.745 0.425-1.477 0.879-2.188 1.361l-0.776 0.54-0.831 0.665-3.086 2.674zM713.373 73.373l2.019-1.821c-0.766 0.616-1.402 1.203-2.019 1.821z" />
<glyph unicode="&#xe944;" glyph-name="common-file-remove" data-tags="common-file-remove" d="M736 512c159.058 0 288-128.942 288-288s-128.942-288-288-288c-159.058 0-288 128.942-288 288s128.942 288 288 288zM736 448c-123.712 0-224-100.288-224-224s100.288-224 224-224c123.712 0 224 100.288 224 224s-100.288 224-224 224zM549.504 960c25.444 0 49.847-10.108 67.854-28.103v0l122.546-122.546c17.988-17.999 28.096-42.403 28.096-67.847v0-133.504c0-17.673-14.327-32-32-32s-32 14.327-32 32v0 133.504c0 8.474-3.368 16.606-9.358 22.599v0l-122.531 122.531c-6.001 5.997-14.133 9.365-22.607 9.365v0h-453.504c-17.673 0-32-14.327-32-32v0-704c0-17.673 14.327-32 32-32v0h256c17.673 0 32-14.327 32-32s-14.327-32-32-32v0h-256c-53.019 0-96 42.981-96 96v0 704c0 53.019 42.981 96 96 96v0zM659.038 345.726l3.589-3.098 73.373-73.358 73.373 73.358c12.497 12.497 32.758 12.497 45.255 0 11.361-11.361 12.393-29.138 3.098-41.666l-3.098-3.589-73.358-73.373 73.358-73.373c11.361-11.361 12.393-29.138 3.098-41.666l-3.098-3.589c-11.361-11.361-29.138-12.393-41.666-3.098l-3.589 3.098-73.373 73.358-73.373-73.358c-12.497-12.497-32.758-12.497-45.255 0-11.361 11.361-12.393 29.138-3.098 41.666l3.098 3.589 73.358 73.373-73.358 73.373c-11.361 11.361-12.393 29.138-3.098 41.666l3.098 3.589c11.361 11.361 29.138 12.393 41.666 3.098z" />
<glyph unicode="&#xe945;" glyph-name="common-file-upload" data-tags="common-file-upload" d="M736 512c159.058 0 288-128.942 288-288s-128.942-288-288-288c-159.058 0-288 128.942-288 288s128.942 288 288 288zM736 448c-123.712 0-224-100.288-224-224s100.288-224 224-224c123.712 0 224 100.288 224 224s-100.288 224-224 224zM549.504 960c25.444 0 49.847-10.108 67.854-28.103v0l122.546-122.546c17.988-17.999 28.096-42.403 28.096-67.847v0-133.504c0-17.673-14.327-32-32-32s-32 14.327-32 32v0 133.504c0 8.474-3.368 16.606-9.358 22.599v0l-122.531 122.531c-6.001 5.997-14.133 9.365-22.607 9.365v0h-453.504c-17.673 0-32-14.327-32-32v0-704c0-17.673 14.327-32 32-32v0h256c17.673 0 32-14.327 32-32s-14.327-32-32-32v0h-256c-53.019 0-96 42.981-96 96v0 704c0 53.019 42.981 96 96 96v0zM733.355 383.915v0zM739.303 383.83l-0.642 0.060c0.046-0.002 0.344-0.029 0.642-0.060zM736.744 383.991l1.28-0.055 0.322-0.022-2.347 0.085 0.744-0.009zM733.768 383.923c-0.143-0.010-0.286-0.021-0.429-0.033l0.015 0.025zM758.627 374.627l96-96c12.497-12.497 12.497-32.758 0-45.255-11.361-11.361-29.138-12.393-41.666-3.098l-3.589 3.098-41.373 41.358v-178.731c0-17.673-14.327-32-32-32-16.2 0-29.589 12.039-31.708 27.658l-0.292 4.342v178.773l-41.373-41.401c-11.361-11.361-29.138-12.393-41.666-3.098l-3.589 3.098c-11.361 11.361-12.393 29.138-3.098 41.666l3.098 3.589 96 96 3.073 2.705c0.095 0.073 0.19 0.146 0.285 0.218 0.448 0.341 0.894 0.66 1.347 0.967l2.182 1.35c0.541 0.303 0.74 0.409 0.94 0.514 0.325 0.169 0.625 0.319 0.926 0.464 0.753 0.362 1.539 0.703 2.341 1.013l1.35 0.485c0.912 0.309 1.87 0.582 2.846 0.811 0.522 0.119 1.021 0.223 1.522 0.315 0.792 0.149 1.631 0.27 2.48 0.358 0.897 0.091 1.765 0.145 2.633 0.164l0.702 0.008 2.964-0.135c0.976-0.090 1.939-0.223 2.888-0.398 0.464-0.088 0.963-0.192 1.46-0.308 1.001-0.232 1.959-0.505 2.898-0.821 0.418-0.142 0.861-0.301 1.3-0.47 0.825-0.318 1.611-0.659 2.38-1.030l0.869-0.434c0.184-0.096 0.368-0.194 0.551-0.293l0.436-0.242c0.745-0.425 1.477-0.879 2.188-1.361l0.611-0.422 0.953-0.74-0.171 0.128 3.299-2.845zM758.627 374.627l-2.28 2.073 0.294-0.246 1.986-1.827z" />
<glyph unicode="&#xe946;" glyph-name="common-file-warning" data-tags="common-file-warning" d="M736 512.009c40.804 0 78.104-23.062 96.333-59.553l180.309-360.576 3.293-7.235c13.068-31.769 10.235-68.075-7.991-97.568-19.628-31.762-54.308-51.090-91.635-51.077h-360.608c-37.338-0.013-72.017 19.315-91.646 51.077s-21.404 71.424-4.698 104.803l180.303 360.564c18.235 36.503 55.535 59.565 96.339 59.565zM736 448.009c-16.554 0-31.687-9.356-39.091-24.177l-180.314-360.586c-6.78-13.546-6.059-29.637 1.904-42.523s22.033-20.727 37.192-20.722h360.63c15.148-0.005 29.218 7.836 37.181 20.722s8.684 28.977 1.904 42.523l-180.32 360.598c-7.398 14.809-22.531 24.166-39.085 24.166zM735.981 128l5.249-0.282c24.049-2.606 42.77-22.976 42.77-47.718 0-26.51-21.49-48-48-48s-48 21.49-48 48c0 26.503 21.48 47.99 47.981 48zM549.504 960c25.444 0 49.847-10.108 67.854-28.103v0l122.546-122.546c17.988-17.999 28.096-42.403 28.096-67.847v0-133.504c0-17.673-14.327-32-32-32s-32 14.327-32 32v0 133.504c0 8.474-3.368 16.606-9.358 22.599v0l-122.531 122.531c-6.001 5.997-14.133 9.365-22.607 9.365v0h-453.504c-17.673 0-32-14.327-32-32v0-704c0-17.673 14.327-32 32-32v0h256c17.673 0 32-14.327 32-32s-14.327-32-32-32v0h-256c-53.019 0-96 42.981-96 96v0 704c0 53.019 42.981 96 96 96v0zM736 352c16.2 0 29.589-12.039 31.708-27.658l0.292-4.342v-128c0-17.673-14.327-32-32-32-16.2 0-29.589 12.039-31.708 27.658l-0.292 4.342v128c0 17.673 14.327 32 32 32z" />
<glyph unicode="&#xe947;" glyph-name="download-bottom" data-tags="download-bottom" d="M992.043 320c17.673 0 32-14.327 32-32v0-64c0-88.366-71.634-160-160-160v0h-704c-88.366 0-160 71.634-160 160v0 64c0 17.673 14.327 32 32 32s32-14.327 32-32v0-64c0-53.019 42.981-96 96-96v0h704c53.019 0 96 42.981 96 96v0 64c0 17.673 14.327 32 32 32zM515.174 256.153c-0.624-0.061-1.25-0.104-1.877-0.128l-1.255-0.024 3.131 0.153zM492.373 262.784l-0.128 0.085-2.83 2.503-192 192c-12.497 12.497-12.497 32.758 0 45.255 11.361 11.361 29.138 12.393 41.666 3.098l3.589-3.098 137.373-137.358v434.731c0 16.2 12.039 29.589 27.658 31.708l4.342 0.292c16.2 0 29.589-12.039 31.708-27.658l0.292-4.342v-434.731l137.373 137.358c11.361 11.361 29.138 12.393 41.666 3.098l3.589-3.098c11.361-11.361 12.393-29.138 3.098-41.666l-3.098-3.589-192-192c-1.050-1.050-2.172-2.027-3.358-2.923-0.448-0.341-0.894-0.66-1.347-0.967l-2.182-1.35c-0.61-0.348-1.234-0.674-1.866-0.978-0.753-0.362-1.539-0.703-2.341-1.013l-1.35-0.485c-0.912-0.309-1.87-0.582-2.846-0.811-0.522-0.119-1.021-0.223-1.522-0.315l-2.856-0.395-2.959-0.135c-0.419 0-0.836 0.008-1.25 0.024-0.617 0.024-1.271 0.068-1.924 0.133-0.927 0.091-1.808 0.216-2.678 0.377-0.464 0.088-0.963 0.192-1.46 0.308-1.001 0.232-1.959 0.505-2.898 0.821-0.418 0.142-0.861 0.301-1.3 0.47-0.825 0.318-1.611 0.659-2.38 1.030l-1.857 0.969c-0.745 0.425-1.477 0.879-2.188 1.361l-1.335 0.956-0.4 0.334zM489.415 265.373l2.28-2.073 1.078-0.85c-1.187 0.896-2.309 1.873-3.358 2.923zM491.695 263.299l0.55-0.43 0.128-0.085-0.678 0.515z" />
<glyph unicode="&#xe948;" glyph-name="earth" data-tags="earth" d="M512 960c42.587 0 83.96-5.2 123.518-14.998 0.125-0.047 0.266-0.084 0.408-0.122 222.902-55.398 388.074-256.85 388.074-496.88s-165.172-441.482-388.057-496.896c-0.159-0.021-0.301-0.058-0.443-0.094-39.541-9.811-80.914-15.010-123.501-15.010s-83.96 5.2-123.518 14.998c-0.125 0.047-0.266 0.084-0.408 0.122-222.902 55.398-388.074 256.85-388.074 496.88s165.172 441.482 388.057 496.896c0.159 0.021 0.301 0.058 0.443 0.094 39.541 9.811 80.914 15.010 123.501 15.010zM669.016 159.967l-314.037 0.019c15.888-59.452 36.641-110.637 61.109-149.694 30.872-6.738 62.977-10.292 95.912-10.292 32.916 0 65.002 3.55 95.898 10.287 24.48 39.057 45.231 90.236 61.118 149.68zM288.923 159.965l-120.058-0.014c43.339-51.574 98.092-93.236 160.369-121.097-15.788 36.035-29.326 76.8-40.311 121.111zM855.141 159.959l-120.068-0.023c-10.98-44.294-24.509-85.048-40.288-121.083 62.27 27.871 117.019 69.533 160.356 121.106zM256.375 415.952l-191.246-0.003c4.919-69.587 25.731-134.784 58.827-191.985l151.329-0.004c-10.828 59.992-17.335 124.792-18.91 191.993zM703.606 415.969l-383.211-0.017c1.675-67.836 8.632-132.819 19.991-191.991l343.226-0.017c11.362 59.182 18.32 124.177 19.994 192.026zM958.873 415.974l-191.248-0.014c-1.575-67.206-8.082-132.011-18.911-192.011l151.329 0.011c33.101 57.209 53.914 122.416 58.83 192.013zM900.066 671.999l-151.344 0.009c10.826-60.001 17.332-124.806 18.904-192.011l191.25-0.013c-4.909 69.597-25.715 134.805-58.81 192.016zM683.619 672.014l-343.249-0.037c-11.351-59.168-18.304-124.144-19.976-191.972l383.213-0.017c-1.672 67.848-8.628 132.843-19.987 192.026zM275.28 672.018l-151.343-0.015c-33.091-57.204-53.898-122.404-58.81-191.992l191.248-0.005c1.573 67.205 8.079 132.011 18.906 192.012zM329.234 857.189l-9.853-4.596c-58.219-27.767-109.503-67.729-150.547-116.582l120.076-0.020c10.988 44.339 24.529 85.133 40.324 121.198zM512 896c-32.935 0-65.040-3.554-95.953-10.299-24.453-39.057-45.197-90.246-61.081-149.703l314.049 0.035c-15.888 59.444-36.639 110.623-61.104 149.675-30.904 6.742-62.994 10.292-95.912 10.292zM694.799 857.131l4.156-9.742c14.003-33.578 26.118-70.984 36.118-111.326l120.092-0.051c-43.337 51.581-98.089 93.251-160.366 121.118z" />
<glyph unicode="&#xe949;" glyph-name="email-action-unread" data-tags="email-action-unread" d="M896 810.667c29.961 0 56.717-13.726 74.322-35.232l0.579-0.725c0.074-0.096 0.147-0.192 0.219-0.288 13.067-16.371 20.88-37.15 20.88-59.754v-512c0-53.019-42.981-96-96-96h-768c-53.019 0-96 42.981-96 96v512c0 22.604 7.812 43.384 20.884 59.786 0.404 0.503 0.595 0.745 0.79 0.983 17.609 21.506 44.364 35.231 74.326 35.231h768zM928 701.355l-310.43-238.782c-62.238-47.878-148.903-47.878-211.138-0.001v0l-310.432 238.784v-498.688c0-17.673 14.327-32 32-32h768c17.673 0 32 14.327 32 32v498.688zM881.877 746.667h-739.797l303.373-233.367c37.052-28.504 87.84-30.087 126.42-4.749l6.676 4.751 303.328 233.366z" />
<glyph unicode="&#xe94a;" glyph-name="expand" data-tags="expand" d="M438.627 374.713c11.361-11.361 12.393-29.138 3.098-41.666l-3.098-3.589-329.401-329.373h210.773c16.2 0 29.589-12.039 31.708-27.658l0.292-4.342c0-16.2-12.039-29.589-27.658-31.708l-4.342-0.292h-288c-0.419 0-0.836 0.008-1.25 0.024-0.617 0.024-1.271 0.068-1.924 0.133-0.927 0.091-1.808 0.216-2.678 0.377-0.464 0.088-0.963 0.192-1.46 0.308-1.001 0.232-1.959 0.505-2.898 0.821-0.418 0.142-0.861 0.301-1.3 0.47-0.825 0.318-1.611 0.659-2.38 1.030l-1.857 0.969c-0.745 0.425-1.477 0.879-2.188 1.361-0.441 0.295-0.887 0.615-1.327 0.947l-3.366 2.931c-1.469 1.469-2.766 3.046-3.89 4.705l-1.35 2.182c-0.348 0.61-0.674 1.234-0.978 1.866-0.362 0.753-0.703 1.539-1.013 2.341l-0.485 1.35c-0.309 0.912-0.582 1.87-0.811 2.846-0.119 0.522-0.223 1.021-0.315 1.522l-0.395 2.856 0.035-0.343c-0.088 0.851-0.141 1.704-0.161 2.558l-0.009 288.744c0 17.673 14.327 32 32 32 16.2 0 29.589-12.039 31.708-27.658l0.292-4.342v-210.688l329.373 329.315c12.497 12.497 32.758 12.497 45.255 0zM992 960.085l0.744-0.009c0.854-0.020 1.708-0.073 2.558-0.161l-3.303 0.17c1.999 0 3.955-0.183 5.852-0.534 0.464-0.088 0.963-0.192 1.46-0.308 1.001-0.232 1.959-0.505 2.898-0.821 0.418-0.142 0.861-0.301 1.3-0.47 0.825-0.318 1.611-0.659 2.38-1.030 0.617-0.295 1.241-0.621 1.857-0.969 0.745-0.425 1.477-0.879 2.188-1.361 1.647-1.113 3.224-2.409 4.693-3.879l-3.358 2.923c2.373-1.793 4.489-3.908 6.281-6.281 0.341-0.448 0.66-0.894 0.967-1.347 0.471-0.699 0.925-1.431 1.35-2.182 0.348-0.61 0.674-1.234 0.978-1.866 0.362-0.753 0.703-1.539 1.013-2.341 0.177-0.463 0.336-0.905 0.485-1.35 0.309-0.912 0.582-1.87 0.811-2.846 0.119-0.522 0.223-1.021 0.315-1.522 0.088-0.463 0.169-0.966 0.238-1.473l0.139-1.211c0.061-0.624 0.104-1.25 0.128-1.877l0.024-1.255v-288c0-17.673-14.327-32-32-32-16.2 0-29.589 12.039-31.708 27.658l-0.292 4.342v210.773l-329.373-329.401c-11.361-11.361-29.138-12.393-41.666-3.098l-3.589 3.098c-12.497 12.497-12.497 32.758 0 45.255v0l329.358 329.415-210.731-0.043c-17.673 0-32 14.327-32 32 0 16.2 12.039 29.589 27.658 31.708l4.342 0.292h288z" />
<glyph unicode="&#xe94b;" glyph-name="file-rar" data-tags="file-rar" d="M399.915 320.085c61.856 0 112-50.144 112-112 0-48.955-31.408-90.573-75.173-105.805l70.613-117.731c9.093-15.155 4.179-34.811-10.976-43.904-13.892-8.335-31.566-4.9-41.419 7.403l-2.485 3.573-68.56 114.256v-97.792c0-16.2-12.039-29.589-27.658-31.708l-4.342-0.292c-16.2 0-29.589 12.039-31.708 27.658l-0.292 4.342v320c0 16.2 12.039 29.589 27.658 31.708l4.342 0.292h48zM911.915 320.085c61.856 0 112-50.144 112-112 0-48.955-31.408-90.573-75.173-105.805l70.613-117.731c9.093-15.155 4.179-34.811-10.976-43.904-13.892-8.335-31.566-4.9-41.419 7.403l-2.485 3.573-68.56 114.256v-97.792c0-17.673-14.327-32-32-32-16.2 0-29.589 12.039-31.708 27.658l-0.292 4.342v320c0 17.673 14.327 32 32 32h48zM671.915 320.085c50.81 0 92.401-39.474 95.779-89.427l0.221-6.573v-256c0-17.673-14.327-32-32-32-16.2 0-29.589 12.039-31.708 27.658l-0.292 4.342-0.043 96h-64l0.043-96c0-17.673-14.327-32-32-32-16.2 0-29.589 12.039-31.708 27.658l-0.292 4.342v256c0 53.019 42.981 96 96 96zM95.915 960.085h453.504c22.617 0 44.412-7.987 61.622-22.4l6.232-5.703 250.546-250.546c15.989-15.999 25.752-37.059 27.725-59.411l0.371-8.435v-197.504c0-17.673-14.327-32-32-32-16.2 0-29.589 12.039-31.708 27.658l-0.292 4.342v160h-224c-50.81 0-92.401 39.474-95.779 89.427l-0.221 6.573-0.043 224h-415.957c-16.2 0-29.589-12.039-31.708-27.658l-0.292-4.342v-832c0-16.2 12.039-29.589 27.658-31.708l4.342-0.292h128c17.673 0 32-14.327 32-32 0-16.2-12.039-29.589-27.658-31.708l-4.342-0.292h-128c-50.81 0-92.401 39.474-95.779 89.427l-0.221 6.573v832c0 50.81 39.474 92.401 89.427 95.779l6.573 0.221h453.504zM671.915 256.085c-16.2 0-29.589-12.039-31.708-27.658l-0.292-4.342-0.043-96h64l0.043 96c0 17.673-14.327 32-32 32zM399.915 256.085h-16v-96l0.32 0.003 15.68-0.003c26.51 0 48 21.49 48 48 0 24.742-18.72 45.112-42.77 47.718l-5.23 0.282zM911.915 256.085h-16v-96l0.32 0.003 15.68-0.003c26.51 0 48 21.49 48 48 0 24.742-18.72 45.112-42.77 47.718l-5.23 0.282zM818.645 640.085l-242.773 242.773 0.043-210.773c0-16.2 12.039-29.589 27.658-31.708l4.342-0.292h210.731z" />
<glyph unicode="&#xe94c;" glyph-name="file-zip" data-tags="file-zip" d="M560.521 320.087c21.301 0.106 41.261-10.391 53.242-28.004 10.65-15.656 13.756-35.11 8.75-53.126l-2.259-6.678-93.041-232.198 80.873 0.004c17.673 0 32-14.327 32-32 0-16.2-12.039-29.591-27.658-31.71l-4.342-0.292h-80.518c-21.309-0.136-41.288 10.348-53.282 27.962-10.662 15.657-13.769 35.121-8.757 53.13l2.261 6.675 93.057 232.237h-80.889c-17.673 0-32 14.327-32 32 0 16.2 12.039 29.59 27.658 31.709l4.342 0.292h80.563zM735.957 320.085c16.2 0 29.589-12.039 31.708-27.658l0.292-4.342v-320c0-17.673-14.327-32-32-32-16.2 0-29.589 12.039-31.708 27.658l-0.292 4.342v320c0 17.673 14.327 32 32 32zM896 320.085c70.692 0 128-57.308 128-128 0-68.168-53.287-123.89-120.479-127.783l-7.521-0.217-0.043-96c0-17.673-14.327-32-32-32-16.2 0-29.589 12.039-31.708 27.658l-0.292 4.342v320c0 16.2 12.039 29.589 27.658 31.708l4.342 0.292h32.043zM95.957 960.085h453.461c22.634 0 44.443-7.981 61.664-22.399l6.235-5.706 250.48-250.523c16.008-15.988 25.789-37.044 27.781-59.422l0.379-8.446v-197.504c0-17.673-14.327-32-32-32-16.2 0-29.589 12.039-31.708 27.658l-0.292 4.342v160h-224c-50.81 0-92.401 39.474-95.779 89.427l-0.221 6.573v224h-416c-16.2 0-29.589-12.039-31.708-27.658l-0.292-4.342v-832c0-16.2 12.039-29.589 27.658-31.708l4.342-0.292h256c17.673 0 32-14.327 32-32 0-16.2-12.039-29.589-27.658-31.708l-4.342-0.292h-256c-50.81 0-92.401 39.474-95.779 89.427l-0.221 6.573v832c0 50.81 39.474 92.401 89.427 95.779l6.573 0.221h453.461zM896 256.085v-128c35.346 0 64 28.654 64 64 0 33.267-25.382 60.606-57.836 63.707l-6.164 0.293zM818.645 640.085l-242.688 242.731v-210.731c0-16.2 12.039-29.589 27.658-31.708l4.342-0.292h210.688z" />
<glyph unicode="&#xe94d;" glyph-name="filter" data-tags="filter" horiz-adv-x="939" d="M469.333 960c245.344 0 448-93.534 448-224v0.043c-0.109-194.861-125.822-365.646-308.277-425.385l-11.723-3.661v-242.996c0-70.692-57.308-128-128-128s-128 57.308-128 128v0 242.996l-11.722 3.661c-182.456 59.739-308.168 230.524-308.278 425.324 0 0.014 0 0.029 0 0.043 0.044 130.462 202.683 223.975 448 223.975zM828.12 599.307l-0.881-0.548c-82.119-53.913-212.517-86.759-357.906-86.759-145.902 0-276.708 33.078-358.774 87.331 44.324-116.060 143.662-206.663 270.151-236.63 14.432-3.419 24.623-16.307 24.623-31.138v0-267.563c0-35.346 28.654-64 64-64s64 28.654 64 64v0 267.563c0 14.831 10.191 27.719 24.623 31.138 126.489 29.967 225.828 120.57 270.164 236.606zM469.333 896c-214.157 0-384-78.389-384-160s169.843-160 384-160c214.157 0 384 78.389 384 160s-169.843 160-384 160z" />
<glyph unicode="&#xe94e;" glyph-name="folder" data-tags="folder" d="M459.636 727.273l-73.309 97.745c-19.778 26.371-50.818 41.891-83.782 41.891h-174.545c-57.839 0-104.727-46.888-104.727-104.727v-628.364c0-57.839 46.888-104.727 104.727-104.727h768c57.839 0 104.727 46.888 104.727 104.727v488.727c0 57.839-46.888 104.727-104.727 104.727h-436.364zM930.909 622.545v-488.727c0-19.28-15.629-34.909-34.909-34.909h-768c-19.28 0-34.909 15.629-34.909 34.909v628.364c0 19.28 15.629 34.909 34.909 34.909h174.545c10.988 0 21.335-5.173 27.927-13.964l83.782-111.709c6.593-8.79 16.939-13.964 27.927-13.964h453.818c19.28 0 34.909-15.629 34.909-34.909z" />
</font>
</defs>
</svg>
