<?xml version="1.0" encoding="UTF-8"?>
<svg width="234px" height="12734px" viewBox="0 0 234 12734" version="1.1" xmlns="http://www.w3.org/2000/svg" xmlns:xlink="http://www.w3.org/1999/xlink">
    <!-- Generator: Sketch 58 (84663) - https://sketch.com -->
    <title>emojies</title>
    <desc>Created with Sketch.</desc>
    <g id="Page-1" stroke="none" stroke-width="1" fill="none" fill-rule="evenodd">
        <g id="emojies" transform="translate(7.000000, 7.000000)" stroke="#FFFFFF" stroke-width="14">
            <g id="item" transform="translate(0.000000, 6250.000000)">
                <circle id="Oval" cx="110" cy="110" r="110"></circle>
                <path d="M166.259542,148.428676 C148.059703,148.428676 129.237333,148.428676 109.792435,148.428676 C90.3475369,148.428676 71.9434424,148.428676 54.5801527,148.428676" id="Line-4" stroke-linecap="round"></path>
            </g>
            <g id="item" transform="translate(0.000000, 6500.000000)">
                <circle id="Oval" cx="110" cy="110" r="110"></circle>
                <path d="M166.259542,148.428676 C148.059703,149.54827 129.237333,150.108066 109.792435,150.108066 C90.3475369,150.108066 71.9434424,149.54827 54.5801527,148.428676" id="Line-4" stroke-linecap="round"></path>
            </g>
            <g id="item" transform="translate(0.000000, 6750.000000)">
                <circle id="Oval" cx="110" cy="110" r="110"></circle>
                <path d="M166.259542,148.428676 C148.059703,150.667862 129.237333,151.787455 109.792435,151.787455 C90.3475369,151.787455 71.9434424,150.667862 54.5801527,148.428676" id="Line-4" stroke-linecap="round"></path>
            </g>
            <g id="item" transform="translate(0.000000, 7000.000000)">
                <circle id="Oval" cx="110" cy="110" r="110"></circle>
                <path d="M166.259542,148.428676 C148.059703,151.787455 129.237333,153.466844 109.792435,153.466844 C90.3475369,153.466844 71.9434424,151.787455 54.5801527,148.428676" id="Line-4" stroke-linecap="round"></path>
            </g>
            <g id="item" transform="translate(0.000000, 7250.000000)">
                <circle id="Oval" cx="110" cy="110" r="110"></circle>
                <path d="M166.259542,148.428676 C148.059703,152.907048 129.237333,155.146234 109.792435,155.146234 C90.3475369,155.146234 71.9434424,152.907048 54.5801527,148.428676" id="Line-4" stroke-linecap="round"></path>
            </g>
            <g id="item" transform="translate(0.000000, 7500.000000)">
                <circle id="Oval" cx="110" cy="110" r="110"></circle>
                <path d="M166.259542,148.428676 C148.059703,154.026641 129.237333,156.825623 109.792435,156.825623 C90.3475369,156.825623 71.9434424,154.026641 54.5801527,148.428676" id="Line-4" stroke-linecap="round"></path>
            </g>
            <g id="item" transform="translate(0.000000, 7750.000000)">
                <circle id="Oval" cx="110" cy="110" r="110"></circle>
                <path d="M166.259542,148.428676 C148.059703,155.146234 129.237333,158.505012 109.792435,158.505012 C90.3475369,158.505012 71.9434424,155.146234 54.5801527,148.428676" id="Line-4" stroke-linecap="round"></path>
            </g>
            <g id="item" transform="translate(0.000000, 8000.000000)">
                <circle id="Oval" cx="110" cy="110" r="110"></circle>
                <path d="M166.259542,148.428676 C148.059703,156.265827 129.237333,160.184402 109.792435,160.184402 C90.3475369,160.184402 71.9434424,156.265827 54.5801527,148.428676" id="Line-4" stroke-linecap="round"></path>
            </g>
            <g id="item" transform="translate(0.000000, 8250.000000)">
                <circle id="Oval" cx="110" cy="110" r="110"></circle>
                <path d="M166.259542,148.428676 C148.059703,157.38542 129.237333,161.863791 109.792435,161.863791 C90.3475369,161.863791 71.9434424,157.38542 54.5801527,148.428676" id="Line-4" stroke-linecap="round"></path>
            </g>
            <g id="item" transform="translate(0.000000, 8500.000000)">
                <circle id="Oval" cx="110" cy="110" r="110"></circle>
                <path d="M166.259542,148.428676 C148.059703,158.505012 129.237333,163.54318 109.792435,163.54318 C90.3475369,163.54318 71.9434424,158.505012 54.5801527,148.428676" id="Line-4" stroke-linecap="round"></path>
            </g>
            <g id="item" transform="translate(0.000000, 8750.000000)">
                <circle id="Oval" cx="110" cy="110" r="110"></circle>
                <path d="M166.259542,148.428676 C148.059703,159.624606 129.237333,165.222569 109.792435,165.222569 C90.3475369,165.222569 71.9434424,159.624606 54.5801527,148.428676" id="Line-4" stroke-linecap="round"></path>
            </g>
            <g id="item" transform="translate(0.000000, 9000.000000)">
                <circle id="Oval" cx="110" cy="110" r="110"></circle>
                <path d="M166.259542,148.428676 C148.059703,160.744198 129.237333,166.901959 109.792435,166.901959 C90.3475369,166.901959 71.9434424,160.744198 54.5801527,148.428676" id="Line-4" stroke-linecap="round"></path>
            </g>
            <g id="item" transform="translate(0.000000, 9250.000000)">
                <circle id="Oval" cx="110" cy="110" r="110"></circle>
                <path d="M166.259542,148.428676 C148.059703,161.863791 129.237333,168.581348 109.792435,168.581348 C90.3475369,168.581348 71.9434424,161.863791 54.5801527,148.428676" id="Line-4" stroke-linecap="round"></path>
            </g>
            <g id="item" transform="translate(0.000000, 9500.000000)">
                <circle id="Oval" cx="110" cy="110" r="110"></circle>
                <path d="M166.259542,148.428676 C148.059703,162.983384 129.237333,170.260737 109.792435,170.260737 C90.3475369,170.260737 71.9434424,162.983384 54.5801527,148.428676" id="Line-4" stroke-linecap="round"></path>
            </g>
            <g id="item" transform="translate(0.000000, 9750.000000)">
                <circle id="Oval" cx="110" cy="110" r="110"></circle>
                <path d="M166.259542,148.428676 C148.059703,164.102977 129.237333,171.940127 109.792435,171.940127 C90.3475369,171.940127 71.9434424,164.102977 54.5801527,148.428676" id="Line-4" stroke-linecap="round"></path>
            </g>
            <g id="item" transform="translate(0.000000, 10000.000000)">
                <circle id="Oval" cx="110" cy="110" r="110"></circle>
                <path d="M166.259542,148.428676 C148.059703,165.222569 129.237333,173.619516 109.792435,173.619516 C90.3475369,173.619516 71.9434424,165.222569 54.5801527,148.428676" id="Line-4" stroke-linecap="round"></path>
            </g>
            <g id="item" transform="translate(0.000000, 10250.000000)">
                <circle id="Oval" cx="110" cy="110" r="110"></circle>
                <path d="M166.259542,148.428676 C148.059703,166.342163 129.237333,175.298905 109.792435,175.298905 C90.3475369,175.298905 71.9434424,166.342163 54.5801527,148.428676" id="Line-4" stroke-linecap="round"></path>
            </g>
            <g id="item" transform="translate(0.000000, 10500.000000)">
                <circle id="Oval" cx="110" cy="110" r="110"></circle>
                <path d="M166.259542,148.428676 C148.059703,167.461755 129.237333,176.978295 109.792435,176.978295 C90.3475369,176.978295 71.9434424,167.461755 54.5801527,148.428676" id="Line-4" stroke-linecap="round"></path>
            </g>
            <g id="item" transform="translate(0.000000, 10750.000000)">
                <circle id="Oval" cx="110" cy="110" r="110"></circle>
                <path d="M166.259542,148.428676 C148.059703,168.581348 129.237333,178.657684 109.792435,178.657684 C90.3475369,178.657684 71.9434424,168.581348 54.5801527,148.428676" id="Line-4" stroke-linecap="round"></path>
            </g>
            <g id="item" transform="translate(0.000000, 11000.000000)">
                <circle id="Oval" cx="110" cy="110" r="110"></circle>
                <path d="M166.259542,148.428676 C148.059703,169.700942 129.237333,180.337073 109.792435,180.337073 C90.3475369,180.337073 71.9434424,169.700942 54.5801527,148.428676" id="Line-4" stroke-linecap="round"></path>
            </g>
            <g id="item" transform="translate(0.000000, 11250.000000)">
                <circle id="Oval" cx="110" cy="110" r="110"></circle>
                <path d="M166.259542,148.428676 C148.059703,170.820534 129.237333,182.016463 109.792435,182.016463 C90.3475369,182.016463 71.9434424,170.820534 54.5801527,148.428676" id="Line-4" stroke-linecap="round"></path>
            </g>
            <g id="item" transform="translate(0.000000, 11500.000000)">
                <circle id="Oval" cx="110" cy="110" r="110"></circle>
                <path d="M166.259542,148.428676 C148.059703,171.940127 129.237333,183.695852 109.792435,183.695852 C90.3475369,183.695852 71.9434424,171.940127 54.5801527,148.428676" id="Line-4" stroke-linecap="round"></path>
            </g>
            <g id="item" transform="translate(0.000000, 11750.000000)">
                <circle id="Oval" cx="110" cy="110" r="110"></circle>
                <path d="M166.259542,148.428676 C148.059703,173.05972 129.237333,185.375241 109.792435,185.375241 C90.3475369,185.375241 71.9434424,173.05972 54.5801527,148.428676" id="Line-4" stroke-linecap="round"></path>
            </g>
            <g id="item" transform="translate(0.000000, 12000.000000)">
                <circle id="Oval" cx="110" cy="110" r="110"></circle>
                <path d="M166.259542,148.428676 C148.059703,174.179313 129.237333,187.054631 109.792435,187.054631 C90.3475369,187.054631 71.9434424,174.179313 54.5801527,148.428676" id="Line-4" stroke-linecap="round"></path>
            </g>
            <g id="item" transform="translate(0.000000, 12250.000000)">
                <circle id="Oval" cx="110" cy="110" r="110"></circle>
                <path d="M166.259542,148.428676 C148.059703,175.298905 129.237333,188.73402 109.792435,188.73402 C90.3475369,188.73402 71.9434424,175.298905 54.5801527,148.428676" id="Line-4" stroke-linecap="round"></path>
            </g>
            <g id="item" transform="translate(0.000000, 12500.000000)">
                <circle id="Oval" cx="110" cy="110" r="110"></circle>
                <path d="M166.259542,148.428676 C148.059703,176.418499 129.237333,190.413409 109.792435,190.413409 C90.3475369,190.413409 71.9434424,176.418499 54.5801527,148.428676" id="Line-4" stroke-linecap="round"></path>
            </g>
            <g id="item" transform="translate(0.000000, 6000.000000)">
                <circle id="Oval" cx="110" cy="110" r="110"></circle>
                <path d="M166.259542,148.428676 C148.059703,147.309084 129.237333,146.749287 109.792435,146.749287 C90.3475369,146.749287 71.9434424,147.309084 54.5801527,148.428676" id="Line-4" stroke-linecap="round"></path>
            </g>
            <g id="item" transform="translate(0.000000, 5750.000000)">
                <circle id="Oval" cx="110" cy="110" r="110"></circle>
                <path d="M166.259542,148.428676 C148.059703,146.189491 129.237333,145.069898 109.792435,145.069898 C90.3475369,145.069898 71.9434424,146.189491 54.5801527,148.428676" id="Line-4" stroke-linecap="round"></path>
            </g>
            <g id="item" transform="translate(0.000000, 5500.000000)">
                <circle id="Oval" cx="110" cy="110" r="110"></circle>
                <path d="M166.259542,148.428676 C148.059703,145.069898 129.237333,143.390508 109.792435,143.390508 C90.3475369,143.390508 71.9434424,145.069898 54.5801527,148.428676" id="Line-4" stroke-linecap="round"></path>
            </g>
            <g id="item" transform="translate(0.000000, 5250.000000)">
                <circle id="Oval" cx="110" cy="110" r="110"></circle>
                <path d="M166.259542,148.428676 C148.059703,143.950305 129.237333,141.711119 109.792435,141.711119 C90.3475369,141.711119 71.9434424,143.950305 54.5801527,148.428676" id="Line-4" stroke-linecap="round"></path>
            </g>
            <g id="item" transform="translate(0.000000, 5000.000000)">
                <circle id="Oval" cx="110" cy="110" r="110"></circle>
                <path d="M166.259542,148.428676 C148.059703,142.830713 129.237333,140.03173 109.792435,140.03173 C90.3475369,140.03173 71.9434424,142.830713 54.5801527,148.428676" id="Line-4" stroke-linecap="round"></path>
            </g>
            <g id="item" transform="translate(0.000000, 4750.000000)">
                <circle id="Oval" cx="110" cy="110" r="110"></circle>
                <path d="M166.259542,148.428676 C148.059703,141.711119 129.237333,138.35234 109.792435,138.35234 C90.3475369,138.35234 71.9434424,141.711119 54.5801527,148.428676" id="Line-4" stroke-linecap="round"></path>
            </g>
            <g id="item" transform="translate(0.000000, 4500.000000)">
                <circle id="Oval" cx="110" cy="110" r="110"></circle>
                <path d="M166.259542,148.428676 C148.059703,140.591526 129.237333,136.672951 109.792435,136.672951 C90.3475369,136.672951 71.9434424,140.591526 54.5801527,148.428676" id="Line-4" stroke-linecap="round"></path>
            </g>
            <g id="item" transform="translate(0.000000, 4250.000000)">
                <circle id="Oval" cx="110" cy="110" r="110"></circle>
                <path d="M166.259542,148.428676 C148.059703,139.471934 129.237333,134.993562 109.792435,134.993562 C90.3475369,134.993562 71.9434424,139.471934 54.5801527,148.428676" id="Line-4" stroke-linecap="round"></path>
            </g>
            <g id="item" transform="translate(0.000000, 4000.000000)">
                <circle id="Oval" cx="110" cy="110" r="110"></circle>
                <path d="M166.259542,148.428676 C148.059703,138.35234 129.237333,133.314173 109.792435,133.314173 C90.3475369,133.314173 71.9434424,138.35234 54.5801527,148.428676" id="Line-4" stroke-linecap="round"></path>
            </g>
            <g id="item" transform="translate(0.000000, 3750.000000)">
                <circle id="Oval" cx="110" cy="110" r="110"></circle>
                <path d="M166.259542,148.428676 C148.059703,137.232748 129.237333,131.634783 109.792435,131.634783 C90.3475369,131.634783 71.9434424,137.232748 54.5801527,148.428676" id="Line-4" stroke-linecap="round"></path>
            </g>
            <g id="item" transform="translate(0.000000, 3500.000000)">
                <circle id="Oval" cx="110" cy="110" r="110"></circle>
                <path d="M166.259542,148.428676 C148.059703,136.113155 129.237333,129.955394 109.792435,129.955394 C90.3475369,129.955394 71.9434424,136.113155 54.5801527,148.428676" id="Line-4" stroke-linecap="round"></path>
            </g>
            <g id="item" transform="translate(0.000000, 3250.000000)">
                <circle id="Oval" cx="110" cy="110" r="110"></circle>
                <path d="M166.259542,148.428676 C148.059703,134.993562 129.237333,128.276005 109.792435,128.276005 C90.3475369,128.276005 71.9434424,134.993562 54.5801527,148.428676" id="Line-4" stroke-linecap="round"></path>
            </g>
            <g id="item" transform="translate(0.000000, 3000.000000)">
                <circle id="Oval" cx="110" cy="110" r="110"></circle>
                <path d="M166.259542,148.428676 C148.059703,133.873969 129.237333,126.596615 109.792435,126.596615 C90.3475369,126.596615 71.9434424,133.873969 54.5801527,148.428676" id="Line-4" stroke-linecap="round"></path>
            </g>
            <g id="item" transform="translate(0.000000, 2750.000000)">
                <circle id="Oval" cx="110" cy="110" r="110"></circle>
                <path d="M166.259542,148.428676 C148.059703,132.754377 129.237333,124.917226 109.792435,124.917226 C90.3475369,124.917226 71.9434424,132.754377 54.5801527,148.428676" id="Line-4" stroke-linecap="round"></path>
            </g>
            <g id="item" transform="translate(0.000000, 2500.000000)">
                <circle id="Oval" cx="110" cy="110" r="110"></circle>
                <path d="M166.259542,148.428676 C148.059703,131.634783 129.237333,123.237837 109.792435,123.237837 C90.3475369,123.237837 71.9434424,131.634783 54.5801527,148.428676" id="Line-4" stroke-linecap="round"></path>
            </g>
            <g id="item" transform="translate(0.000000, 2250.000000)">
                <circle id="Oval" cx="110" cy="110" r="110"></circle>
                <path d="M166.259542,148.428676 C148.059703,130.515191 129.237333,121.558447 109.792435,121.558447 C90.3475369,121.558447 71.9434424,130.515191 54.5801527,148.428676" id="Line-4" stroke-linecap="round"></path>
            </g>
            <g id="item" transform="translate(0.000000, 2000.000000)">
                <circle id="Oval" cx="110" cy="110" r="110"></circle>
                <path d="M166.259542,148.428676 C148.059703,129.395598 129.237333,119.879058 109.792435,119.879058 C90.3475369,119.879058 71.9434424,129.395598 54.5801527,148.428676" id="Line-4" stroke-linecap="round"></path>
            </g>
            <g id="item" transform="translate(0.000000, 1750.000000)">
                <circle id="Oval" cx="110" cy="110" r="110"></circle>
                <path d="M166.259542,148.428676 C148.059703,128.276005 129.237333,118.199669 109.792435,118.199669 C90.3475369,118.199669 71.9434424,128.276005 54.5801527,148.428676" id="Line-4" stroke-linecap="round"></path>
            </g>
            <g id="item" transform="translate(0.000000, 1500.000000)">
                <circle id="Oval" cx="110" cy="110" r="110"></circle>
                <path d="M166.259542,148.428676 C148.059703,127.156412 129.237333,116.520279 109.792435,116.520279 C90.3475369,116.520279 71.9434424,127.156412 54.5801527,148.428676" id="Line-4" stroke-linecap="round"></path>
            </g>
            <g id="item" transform="translate(0.000000, 1250.000000)">
                <circle id="Oval" cx="110" cy="110" r="110"></circle>
                <path d="M166.259542,148.428676 C148.059703,126.036819 129.237333,114.84089 109.792435,114.84089 C90.3475369,114.84089 71.9434424,126.036819 54.5801527,148.428676" id="Line-4" stroke-linecap="round"></path>
            </g>
            <g id="item" transform="translate(0.000000, 1000.000000)">
                <circle id="Oval" cx="110" cy="110" r="110"></circle>
                <path d="M166.259542,148.428676 C148.059703,124.917226 129.237333,113.161501 109.792435,113.161501 C90.3475369,113.161501 71.9434424,124.917226 54.5801527,148.428676" id="Line-4" stroke-linecap="round"></path>
            </g>
            <g id="item" transform="translate(0.000000, 750.000000)">
                <circle id="Oval" cx="110" cy="110" r="110"></circle>
                <path d="M166.259542,148.428676 C148.059703,123.797633 129.237333,111.482111 109.792435,111.482111 C90.3475369,111.482111 71.9434424,123.797633 54.5801527,148.428676" id="Line-4" stroke-linecap="round"></path>
            </g>
            <g id="item" transform="translate(0.000000, 500.000000)">
                <circle id="Oval" cx="110" cy="110" r="110"></circle>
                <path d="M166.259542,148.428676 C148.059703,122.678041 129.237333,109.802722 109.792435,109.802722 C90.3475369,109.802722 71.9434424,122.678041 54.5801527,148.428676" id="Line-4" stroke-linecap="round"></path>
            </g>
            <g id="item" transform="translate(0.000000, 250.000000)">
                <circle id="Oval" cx="110" cy="110" r="110"></circle>
                <path d="M166.259542,148.428676 C148.059703,121.558447 129.237333,108.123333 109.792435,108.123333 C90.3475369,108.123333 71.9434424,121.558447 54.5801527,148.428676" id="Line-4" stroke-linecap="round"></path>
            </g>
            <g id="item">
                <circle id="Oval" cx="110" cy="110" r="110"></circle>
                <path d="M166.259542,148.428676 C148.059703,120.438855 129.237333,106.443944 109.792435,106.443944 C90.3475369,106.443944 71.9434424,120.438855 54.5801527,148.428676" id="Line-4" stroke-linecap="round"></path>
            </g>
        </g>
    </g>
</svg>