<?xml version="1.0" encoding="UTF-8"?>
<svg width="46px" height="46px" viewBox="0 0 46 46" version="1.1" xmlns="http://www.w3.org/2000/svg" xmlns:xlink="http://www.w3.org/1999/xlink">
    <!-- Generator: Sketch 63.1 (92452) - https://sketch.com -->
    <title>District cooling </title>
    <desc>Created with Sketch.</desc>
    <g id="Page-1" stroke="none" stroke-width="1" fill="none" fill-rule="evenodd">
        <g id="DOE--Home-Page--Phase-2" transform="translate(-753.000000, -378.000000)" fill="#7D9AAA">
            <g id="Group-23" transform="translate(-1.000000, 0.000000)">
                <g id="Group-21" transform="translate(111.000000, 80.000000)">
                    <g id="1-copy-9" transform="translate(620.000000, 271.000000)">
                        <g id="Group-3">
                            <g id="recycle" transform="translate(23.000000, 27.000000)">
                                <path d="M45.9000632,22.6272701 C45.8639814,22.5838888 45.8307585,22.5382074 45.8006048,22.4905147 C45.718591,22.3943753 45.6269422,22.3068923 45.5270941,22.2294364 C44.6823513,21.7167308 43.7046357,21.4658126 42.7173936,21.5083628 L39.4476979,21.5083628 L41.7352417,19.9791895 C43.2395504,18.972173 44.084947,17.5921873 43.6249518,16.9084106 C43.1649565,16.224634 41.5736217,16.4857123 40.0693131,17.5051612 L34.1018075,21.5083628 L26.6051287,21.5083628 L31.9385868,16.187337 L38.9504058,14.8073514 C40.7282251,14.4592469 42.0460493,13.5268242 41.8844293,12.7187245 C41.7228094,11.9106248 40.1563392,11.5376557 38.3785198,11.8857602 L35.718007,12.3954846 L38.0055507,10.1079408 L38.0055507,10.1079408 C38.7393984,9.44829505 39.25536,8.58113259 39.4849948,7.62148017 C39.5011643,7.49784958 39.5053278,7.37294402 39.4974271,7.24851108 C39.4849948,7.18634956 39.4725625,7.12418805 39.4601302,7.07445884 C39.4286557,6.9480815 39.3643191,6.83227566 39.2736457,6.73878665 C39.1765625,6.65307476 39.0620369,6.58944944 38.9379735,6.5523021 C38.8813834,6.53395343 38.8230609,6.52145577 38.7639212,6.51500519 C38.6396603,6.50086061 38.5139953,6.50504944 38.3909521,6.5274375 C37.4302573,6.75611933 36.5599666,7.26703629 35.8920592,7.99444927 L35.8920592,7.99444927 L33.5796508,10.3068577 L34.1142398,7.60904787 C34.4623443,5.83122852 34.0893752,4.26475832 33.2812755,4.11557069 C32.4731758,3.96638305 31.5283208,5.25934258 31.1802163,7.03716193 L29.8002307,14.0987101 L24.4792049,19.4197359 L24.4792049,11.8857602 L28.4948388,5.91825464 C29.5018554,4.42637826 29.7629337,2.83504346 29.0791571,2.37504824 C28.3953804,1.91505303 27.027827,2.76044964 26.0208105,4.25232602 L24.4792049,6.5398698 L24.4792049,3.27017407 L24.4792049,3.27017407 C24.526282,2.28638617 24.2749361,1.31133755 23.7581313,0.472905862 C23.6909814,0.364642379 23.6020778,0.271505357 23.497053,0.199395193 C23.4568465,0.15941545 23.4107203,0.125869113 23.3602976,0.0999367677 C23.1295035,-0.0333122559 22.8451535,-0.0333122559 22.6143594,0.0999367677 C22.5639367,0.125869113 22.5178105,0.15941545 22.4776041,0.199395193 C22.3725792,0.271505357 22.2836757,0.364642379 22.2165257,0.472905862 C21.6997209,1.31133755 21.4483751,2.28638617 21.4954521,3.27017407 L21.4954521,3.27017407 L21.4954521,6.51500519 L19.9787112,4.25232602 C18.9716946,2.76044964 17.591709,1.91505303 16.9079323,2.37504824 C16.2241556,2.83504346 16.4976663,4.42637826 17.5046828,5.91825464 L21.4954521,11.8608955 L21.4954521,19.3948713 L16.1868587,14.0987101 L14.8068731,7.03716193 C14.4712009,5.25934258 13.5263458,3.95395074 12.7182461,4.11557069 C11.9101464,4.27719063 11.5371773,5.83122852 11.8852818,7.60904787 L12.4074385,10.3068577 L10.0950302,7.99444927 L10.0950302,7.99444927 C9.43152738,7.26784154 8.56542331,6.75684014 7.60856953,6.5274375 C7.48552632,6.50504944 7.35986139,6.50086061 7.23560043,6.51500519 C7.17625956,6.52016307 7.11779212,6.53269181 7.06154819,6.5523021 C6.9363177,6.58663577 6.82118673,6.65059742 6.725876,6.73878665 C6.63520253,6.83227566 6.57086595,6.9480815 6.53939146,7.07445884 C6.52695915,7.12418805 6.51452685,7.18634956 6.50209455,7.24851108 C6.48794996,7.37277204 6.49213879,7.49843697 6.51452685,7.62148017 C6.74392949,8.57833396 7.25493089,9.44443802 7.98153862,10.1079408 L7.98153862,10.1079408 L10.2815147,12.3954846 L7.60856953,11.8857602 C5.84318248,11.5376557 4.27671228,11.9106248 4.11509234,12.7187245 C3.9534724,13.5268242 5.27129654,14.4592469 7.03668358,14.8073514 L14.0609349,16.187337 L19.3943929,21.5083628 L11.8977141,21.5083628 L5.9302086,17.5051612 C4.42589992,16.4857123 2.83456512,16.224634 2.3745699,16.9084106 C1.91457469,17.5921873 2.7599713,18.972173 4.26427998,19.9791895 L6.53939146,21.5083628 L3.26969573,21.5083628 C2.28654381,21.4673921 1.31325449,21.7182844 0.47242752,22.2294364 C0.37257945,22.3068923 0.280930623,22.3943753 0.19891685,22.4905147 C0.161619941,22.540244 0.124323032,22.5899732 0.0994584252,22.6272701 C0.0377319776,22.7421589 0.00367563678,22.8698702 0,23.0002392 C0.000485049121,23.1310522 0.0347439594,23.2595231 0.0994584252,23.3732083 C0.128241182,23.4257161 0.161518381,23.4756319 0.19891685,23.5223959 C0.280930623,23.6185354 0.37257945,23.7060183 0.47242752,23.7834743 C1.31325449,24.2946262 2.28654381,24.5455186 3.26969573,24.5045479 L6.51452685,24.5045479 L4.26427998,26.0088565 C2.7599713,27.0283054 1.91457469,28.3958587 2.3745699,29.0796354 C2.83456512,29.7634121 4.42589992,29.5023337 5.9302086,28.4953172 L11.8604172,24.5045479 L19.3943929,24.5045479 L14.0982318,29.800709 L7.03668358,31.1806946 C5.27129654,31.5287991 3.9534724,32.4612219 4.11509234,33.2693216 C4.27671228,34.0774213 5.84318248,34.4628227 7.60856953,34.1147182 L10.3188116,33.5801292 L8.00640323,35.8925375 L8.00640323,35.8925375 C7.27492444,36.5541261 6.75943148,37.4205008 6.52695915,38.3789982 C6.51077433,38.506794 6.506612,38.6358263 6.51452685,38.7643996 C6.52695915,38.8265611 6.53939146,38.8762903 6.55182376,38.9260195 C6.58329825,39.0523968 6.64763483,39.1682027 6.73830831,39.2616917 C6.83152665,39.3553816 6.94703596,39.4238316 7.07398049,39.4606085 C7.13096722,39.4749684 7.18930473,39.4833023 7.24803274,39.4854731 C7.3722937,39.4996177 7.49795863,39.4954289 7.62100183,39.4730408 C8.57997146,39.2488936 9.44753663,38.7370302 10.1074625,38.0060291 L10.1074625,38.0060291 L12.4074385,35.7184853 L11.8852818,38.3789982 C11.5371773,40.1568175 11.9101464,41.7232877 12.7182461,41.8849077 C13.5263458,42.0465276 14.4712009,40.7287035 14.8068731,38.9508841 L16.1868587,31.9390651 L21.4954521,26.6304717 L21.4954521,34.1395828 L17.5046828,40.0697914 C16.4976663,41.5616678 16.2241556,43.1530026 16.9079323,43.6129978 C17.591709,44.072993 18.9716946,43.2400287 19.9787112,41.73572 L21.4954521,39.4854731 L21.4954521,42.717872 L21.4954521,42.717872 C21.4486447,43.7055541 21.6998771,44.6844941 22.2165257,45.5275725 C22.2904674,45.6303918 22.3783332,45.7224417 22.4776041,45.8010831 C22.5182938,45.8371499 22.564454,45.8665245 22.6143594,45.8881093 C22.8406273,46.0372969 23.1340297,46.0372969 23.3602976,45.8881093 C23.4102031,45.8665245 23.4563633,45.8371499 23.497053,45.8010831 C23.5963238,45.7224417 23.6841896,45.6303918 23.7581313,45.5275725 C24.27478,44.6844941 24.5260124,43.7055541 24.4792049,42.717872 L24.4792049,42.717872 L24.4792049,39.4481762 L26.0208105,41.73572 C27.027827,43.2400287 28.3953804,44.072993 29.0791571,43.6129978 C29.7629337,43.1530026 29.5018554,41.5616678 28.4948388,40.0697914 L24.4792049,34.1022859 L24.4792049,26.6056071 L29.812663,31.9390651 L31.1802163,38.9508841 C31.5283208,40.7287035 32.4731758,42.0340953 33.2812755,41.8849077 C34.0893752,41.73572 34.4623443,40.1568175 34.1142398,38.3789982 L33.5920831,35.7184853 L35.8796269,38.0060291 L35.8796269,38.0060291 C36.5415094,38.73463 37.4082726,39.2460203 38.3660875,39.4730408 C38.4933227,39.4953667 38.6230794,39.4995524 38.7514889,39.4854731 C38.8062133,39.4842378 38.8605437,39.4758793 38.9131089,39.4606085 C39.1708364,39.3852813 39.3723706,39.183747 39.4476979,38.9260195 C39.4629687,38.8734544 39.4713272,38.819124 39.4725625,38.7643996 C39.4866417,38.63599 39.482456,38.5062333 39.4601302,38.3789982 C39.2331096,37.4211832 38.7217194,36.5544201 37.9931184,35.8925375 L37.9931184,35.8925375 L35.68071,33.5801292 L38.3785198,34.1147182 C40.1563392,34.4628227 41.7228094,34.0774213 41.8844293,33.2693216 C42.0460493,32.4612219 40.7282251,31.5287991 38.9504058,31.1806946 L31.9012899,29.800709 L26.5926964,24.5045479 L34.1391045,24.5045479 L40.0693131,28.4953172 C41.5736217,29.5023337 43.1649565,29.7634121 43.6249518,29.0796354 C44.084947,28.3958587 43.2395504,27.0283054 41.7352417,26.0088565 L39.4849948,24.5045479 L42.7173936,24.5045479 C43.7046357,24.547098 44.6823513,24.2961798 45.5270941,23.7834743 C45.6269422,23.7060183 45.718591,23.6185354 45.8006048,23.5223959 C45.8379017,23.4726667 45.8627663,23.4229375 45.9000632,23.3732083 C45.9647777,23.2595231 45.9990366,23.1310522 45.9995217,23.0002392 C45.995846,22.8698702 45.9617897,22.7421589 45.9000632,22.6272701 L45.9000632,22.6272701 Z" id="District-cooling-"></path>
                            </g>
                        </g>
                    </g>
                </g>
            </g>
        </g>
    </g>
</svg>