<?xml version="1.0" encoding="UTF-8"?>
<svg width="39px" height="46px" viewBox="0 0 39 46" version="1.1" xmlns="http://www.w3.org/2000/svg" xmlns:xlink="http://www.w3.org/1999/xlink">
    <!-- Generator: Sketch 63.1 (92452) - https://sketch.com -->
    <title>Electricity</title>
    <desc>Created with Sketch.</desc>
    <g id="Page-1" stroke="none" stroke-width="1" fill="none" fill-rule="evenodd">
        <g id="DOE--Home-Page--Phase-2" transform="translate(-455.000000, -378.000000)" fill="#7D9AAA" fill-rule="nonzero">
            <g id="Group-23" transform="translate(-1.000000, 0.000000)">
                <g id="Group-21" transform="translate(111.000000, 80.000000)">
                    <g id="1-copy-8" transform="translate(319.000000, 271.000000)">
                        <g id="Group-3">
                            <g id="tower" transform="translate(26.000000, 27.000000)">
                                <path d="M38.5046968,14.9093881 L25.827623,11.3284648 L25.827623,5.07063127 L33.8709276,5.07063127 L33.8709276,6.51137409 L32.6719561,6.51137409 C32.2949262,6.51137409 31.9893221,6.81343055 31.9893221,7.18628429 L31.9893221,9.97702721 C31.9893221,10.349881 32.2949262,10.6519374 32.6719561,10.6519374 L36.4354397,10.6519374 C36.8124696,10.6519374 37.1180737,10.349881 37.1180737,9.97702721 L37.1180737,7.18637414 C37.1180737,6.81352039 36.8124696,6.51146393 36.4354397,6.51146393 L35.2361956,6.51146393 L35.2361956,5.07063127 L38.3172269,5.07063127 C38.6576352,5.07063127 38.9460644,4.82266107 38.9933181,4.4893388 C39.0405718,4.15601654 38.8321104,3.83931546 38.5047877,3.74677586 L25.3485433,0.0306368983 C25.3478163,0.0303673654 25.3469985,0.0301876769 25.3462715,0.0300079883 L25.3324589,0.0261446844 C25.3270974,0.0246173317 25.3218268,0.0238087333 25.3164653,0.0224610691 C25.3018349,0.0186876095 25.2871135,0.0150938384 25.2721196,0.0123086659 C25.2612149,0.0102422475 25.2504011,0.00889458337 25.2394964,0.00736723067 C25.2286825,0.00583987797 25.2179596,0.00422268099 25.206964,0.00323439395 C25.1918792,0.00188672981 25.1767943,0.00134766415 25.1617095,0.000988287041 C25.1560754,0.000718754211 25.1506231,0 25.144989,0 L25.1303585,0 C25.1297224,0 25.1289954,0 25.1283593,0 L13.871804,0 C13.8706227,0 13.8693505,0 13.8681691,0 L13.8548109,0 C13.8496312,0 13.8445423,0.000628909935 13.8393626,0.000808598488 C13.8237325,0.00116797559 13.8081024,0.00170704125 13.7924724,0.00314454968 C13.782022,0.00404299244 13.7717534,0.00566018942 13.7613031,0.00709769784 C13.7500349,0.00871489481 13.7387667,0.010062559 13.7273168,0.0122188216 C13.7125955,0.0150039942 13.6981467,0.0185079209 13.6838798,0.0221915363 C13.6783365,0.0236290447 13.6727933,0.0244376432 13.6672501,0.0259649959 L13.653074,0.0300079883 C13.6525288,0.0301876769 13.6519835,0.0302775212 13.6514383,0.0304572097 L0.495103029,3.74677586 C0.167780373,3.83931546 -0.0405902137,4.15601654 0.0066634735,4.4893388 C0.0539171607,4.82266107 0.342346398,5.07063127 0.682754691,5.07063127 L3.76360423,5.07063127 L3.76360423,6.51137409 L2.56436017,6.51137409 C2.18733027,6.51137409 1.88172613,6.81343055 1.88172613,7.18628429 L1.88172613,9.97702721 C1.88172613,10.349881 2.18733027,10.6519374 2.56436017,10.6519374 L6.32784374,10.6519374 C6.70487364,10.6519374 7.01047778,10.349881 7.01047778,9.97702721 L7.01047778,7.18637414 C7.01047778,6.81352039 6.70487364,6.51146393 6.32784374,6.51146393 L5.12869055,6.51146393 L5.12869055,5.07063127 L13.1721768,5.07063127 L13.1721768,11.328375 L0.495103029,14.9093881 C0.167780373,15.0019277 -0.0405902137,15.3186288 0.0066634735,15.6519511 C0.0539171607,15.9852734 0.342346398,16.2332436 0.682754691,16.2332436 L3.76360423,16.2332436 L3.76360423,17.6739864 L2.56436017,17.6739864 C2.18733027,17.6739864 1.88172613,17.9760428 1.88172613,18.3488966 L1.88172613,21.1396395 C1.88172613,21.5124932 2.18733027,21.8145497 2.56436017,21.8145497 L6.32784374,21.8145497 C6.70487364,21.8145497 7.01047778,21.5124932 7.01047778,21.1396395 L7.01047778,18.3488966 C7.01047778,17.9760428 6.70487364,17.6739864 6.32784374,17.6739864 L5.12869055,17.6739864 L5.12869055,16.2332436 L13.1721768,16.2332436 L13.1721768,22.9055287 L10.3803018,32.5661244 C10.3802109,32.5664838 10.38012,32.566933 10.3799383,32.5672924 L10.3744859,32.5860698 C10.3743951,32.5863394 10.3743042,32.5866988 10.3742133,32.5869683 L10.3729411,32.5913707 C10.3727594,32.5921793 10.3724868,32.5929878 10.3722141,32.5937066 L7.6944749,41.8593468 L6.32766199,41.8593468 C5.95063209,41.8593468 5.64502796,42.1614033 5.64502796,42.534257 L5.64502796,44.6501796 L4.25013546,44.6501796 C3.87310556,44.6501796 3.56750142,44.952236 3.56750142,45.3250898 C3.56750142,45.6979435 3.87310556,46 4.25013546,46 L6.32784374,46 L32.6721379,46 L34.7496644,46 C35.1266943,46 35.4322984,45.6979435 35.4322984,45.3250898 C35.4322984,44.952236 35.1266943,44.6501796 34.7496644,44.6501796 L33.3547719,44.6501796 L33.3547719,42.534257 C33.3547719,42.1614033 33.0491678,41.8593468 32.6721379,41.8593468 L31.3052341,41.8593468 L28.6276766,32.5943355 C28.6273131,32.5929878 28.6268587,32.5915503 28.6264953,32.5902027 L28.6203159,32.5687299 C28.6199524,32.5676518 28.6196798,32.5665736 28.6194072,32.5654955 L25.8277139,22.9054389 L25.8277139,16.2331537 L33.8710184,16.2331537 L33.8710184,17.6738965 L32.672047,17.6738965 C32.2950171,17.6738965 31.989413,17.975953 31.989413,18.3488067 L31.989413,21.1395496 C31.989413,21.5124034 32.2950171,21.8144599 32.672047,21.8144599 L36.4355306,21.8144599 C36.8125605,21.8144599 37.1181646,21.5124034 37.1181646,21.1395496 L37.1181646,18.3488966 C37.1181646,17.9760428 36.8125605,17.6739864 36.4355306,17.6739864 L35.2362865,17.6739864 L35.2362865,16.2332436 L38.3173178,16.2332436 C38.6577261,16.2332436 38.9461553,15.9852734 38.993409,15.6519511 C39.0403901,15.3186288 38.8319286,15.0019277 38.5046968,14.9093881 Z M35.7528057,7.86128434 L35.7528057,9.30220685 L33.3545902,9.30220685 L33.3545902,7.86128434 L35.7528057,7.86128434 Z M25.827623,1.5697592 L33.4430999,3.72090071 L25.827623,3.72090071 L25.827623,1.5697592 Z M5.6452097,7.86128434 L5.6452097,9.30220685 L3.2469942,9.30220685 L3.2469942,7.86128434 L5.6452097,7.86128434 Z M5.6452097,19.0237169 L5.6452097,20.4646394 L3.2469942,20.4646394 L3.2469942,19.0237169 L5.6452097,19.0237169 Z M14.5374449,1.34982041 L24.4623549,1.34982041 L24.4623549,3.72090071 L14.5374449,3.72090071 L14.5374449,1.34982041 Z M24.4623549,5.07063127 L24.4623549,10.5763784 L16.1091753,5.07063127 L24.4623549,5.07063127 Z M14.5374449,5.65686518 L22.8904429,11.1625224 L14.5374449,11.1625224 L14.5374449,5.65686518 Z M14.5374449,12.5123428 L24.4623549,12.5123428 L24.4623549,14.883513 L14.5374449,14.883513 L14.5374449,12.5123428 Z M13.1978029,32.0922857 L19.4999908,27.7307055 L25.8021787,32.0922857 L13.1978029,32.0922857 Z M25.0761076,33.4421061 L19.4998999,36.1987082 L13.9237831,33.4421061 L25.0761076,33.4421061 Z M16.0203928,23.6749551 L22.979407,23.6749551 L19.4998999,26.0829614 L16.0203928,23.6749551 Z M24.4623549,16.2332436 L24.4623549,21.7389008 L16.1092661,16.2332436 L24.4623549,16.2332436 Z M14.5374449,16.8193876 L22.8907155,22.3252246 L14.5374449,22.3252246 L14.5374449,16.8193876 Z M5.55660904,3.72081086 L13.1721768,1.56966935 L13.1721768,3.72081086 L5.55660904,3.72081086 Z M5.55660904,14.8834231 L13.1721768,12.7321019 L13.1721768,14.8834231 L5.55660904,14.8834231 Z M14.2480161,24.0960553 L18.3095614,26.9069233 L12.2172889,31.1231355 L14.2480161,24.0960553 Z M11.462593,33.7344594 L17.973515,36.9531306 L9.29219476,41.2447221 L11.462593,33.7344594 Z M30.7898054,43.2096165 L30.7898054,43.2096165 L30.7899872,43.2096165 C30.790805,43.2096165 30.7917137,43.2094368 30.7925316,43.2094368 L31.9895947,43.2094368 L31.9895947,44.6504491 L31.9895947,44.6504491 L7.01056865,44.6504491 L7.01056865,43.2094368 L8.20754089,43.2094368 C8.20844962,43.2094368 8.20926747,43.2096165 8.21008532,43.2096165 C8.21108492,43.2096165 8.21217539,43.2094368 8.21317499,43.2094368 L8.22298922,43.2094368 C8.22417056,43.2094368 8.22544277,43.2094368 8.22662411,43.2094368 L14.6559426,43.2094368 C15.0329725,43.2094368 15.3385767,42.9073803 15.3385767,42.5345266 C15.3385767,42.1616728 15.0329725,41.8596164 14.6559426,41.8596164 L11.1011023,41.8596164 L19.4998999,37.7077327 L27.8986976,41.8596164 L17.6993527,41.8596164 C17.3223228,41.8596164 17.0167187,42.1616728 17.0167187,42.5345266 C17.0167187,42.9073803 17.3223228,43.2094368 17.6993527,43.2094368 L30.7867157,43.2094368 C30.7877153,43.2094368 30.7888058,43.2096165 30.7898054,43.2096165 Z M29.7076051,41.2447221 L21.0262849,36.9531306 L27.5372069,33.7344594 L29.7076051,41.2447221 Z M26.7826019,31.1232253 L20.6902385,26.9069233 L24.7517838,24.0960553 L26.7826019,31.1232253 Z M25.827623,14.8834231 L25.827623,12.7321918 L33.4431908,14.8834231 L25.827623,14.8834231 Z M35.7528057,19.0237169 L35.7528057,20.4646394 L33.3545902,20.4646394 L33.3545902,19.0237169 L35.7528057,19.0237169 Z" id="Electricity"></path>
                            </g>
                        </g>
                    </g>
                </g>
            </g>
        </g>
    </g>
</svg>