<?xml version="1.0" encoding="UTF-8"?>
<svg width="34px" height="50px" viewBox="0 0 34 50" version="1.1" xmlns="http://www.w3.org/2000/svg" xmlns:xlink="http://www.w3.org/1999/xlink">
    <!-- Generator: Sketch 63.1 (92452) - https://sketch.com -->
    <title>Renewable energy </title>
    <desc>Created with Sketch.</desc>
    <g id="Page-1" stroke="none" stroke-width="1" fill="none" fill-rule="evenodd">
        <g id="DOE--Home-Page--Phase-2" transform="translate(-1053.000000, -378.000000)" fill="#7D9AAA">
            <g id="Group-23" transform="translate(-1.000000, 0.000000)">
                <g id="Group-21" transform="translate(111.000000, 80.000000)">
                    <g id="1-copy-10" transform="translate(920.000000, 271.000000)">
                        <g id="Group-3">
                            <g id="solar" transform="translate(23.000000, 27.000000)">
                                <path d="M17.0567141,7.49415978 L18.5300457,7.49415978 C18.7280218,7.49458402 18.9178039,7.41515286 19.0564549,7.27383551 C19.1951059,7.13251816 19.2709081,6.94125761 19.2667116,6.7433256 L19.2667116,0.750832473 C19.2685992,0.553575277 19.1920447,0.363648324 19.0538911,0.222837964 C18.9157376,0.0820276033 18.7273031,0.00186969486 18.5300457,0 L17.0567141,0 C16.8594567,0.00186969486 16.6710223,0.0820276033 16.5328687,0.222837964 C16.3947152,0.363648324 16.3181607,0.553575277 16.3200483,0.750832473 L16.3200483,6.7433256 C16.3158518,6.94125761 16.391654,7.13251816 16.530305,7.27383551 C16.6689559,7.41515286 16.8587381,7.49458402 17.0567141,7.49415978 L17.0567141,7.49415978 Z M17.7933799,22.4966409 C20.2306501,22.5403742 22.4522078,21.1054101 23.4145774,18.8657576 C24.376947,16.6261051 23.8888861,14.0268288 22.1796391,12.2888205 C20.4703921,10.5508121 17.8796211,10.0194492 15.624223,10.9443155 C13.3688248,11.8691817 11.8969929,14.0664872 11.9000533,16.5041478 C11.8853386,18.0807703 12.4983444,19.5984993 13.6038931,20.722651 C14.7094419,21.8468027 16.2167313,22.4850471 17.7933799,22.4966409 Z M17.0567141,25.4999708 C16.8594567,25.5018405 16.6710223,25.5819984 16.5328687,25.7228087 C16.3947152,25.8636191 16.3181607,26.0535461 16.3200483,26.2508032 L16.3200483,32.2432964 C16.3158518,32.4412284 16.391654,32.6324889 16.530305,32.7738063 C16.6689559,32.9151236 16.8587381,32.9945548 17.0567141,32.9941306 L18.5300457,32.9941306 C18.7280218,32.9945548 18.9178039,32.9151236 19.0564549,32.7738063 C19.1951059,32.6324889 19.2709081,32.4412284 19.2667116,32.2432964 L19.2667116,26.2508032 C19.2685992,26.0535461 19.1920447,25.8636191 19.0538911,25.7228087 C18.9157376,25.5819984 18.7273031,25.5018405 18.5300457,25.4999708 L17.0567141,25.4999708 L17.0567141,25.4999708 Z M24.5650388,22.3266411 L23.5167067,23.3891399 C23.2335534,23.6867114 23.2335534,24.1540671 23.5167067,24.4516386 L27.6958686,28.7016338 C27.982345,28.9850308 28.4435576,28.9850308 28.7300341,28.7016338 L29.7783662,27.639135 C30.0615194,27.3415634 30.0615194,26.8742077 29.7783662,26.5766362 L25.613371,22.3266411 C25.3214598,22.0430601 24.85695,22.0430601 24.5650388,22.3266411 L24.5650388,22.3266411 Z M24.5650388,10.6674878 C24.7020774,10.8101787 24.8913659,10.8908342 25.0892049,10.8908342 C25.2870439,10.8908342 25.4763324,10.8101787 25.613371,10.6674878 L29.7783662,6.41749264 C30.0619471,6.12558152 30.0619471,5.66107163 29.7783662,5.36916051 L28.7300341,4.30666173 C28.5961084,4.16361375 28.4089075,4.08243705 28.2129513,4.08243705 C28.0169952,4.08243705 27.8297942,4.16361375 27.6958686,4.30666173 L23.5167067,8.54249021 C23.2335534,8.84006175 23.2335534,9.30741745 23.5167067,9.60498899 L24.5650388,10.6674878 Z M33.2633622,15.0024828 L27.3700356,15.0024828 C27.1727782,15.0043525 26.9843438,15.0845104 26.8461902,15.2253208 C26.7080367,15.3661311 26.6314822,15.5560581 26.6333357,15.7533153 L26.6333357,17.2549802 C26.6314822,17.4522374 26.7080367,17.6421644 26.8461902,17.7829747 C26.9843438,17.9237851 27.1727782,18.003943 27.3700356,18.0058127 L33.2633622,18.0058127 C33.4606196,18.003943 33.649054,17.9237851 33.7872076,17.7829747 C33.9253611,17.6421644 34.0019156,17.4522374 34.0000621,17.2549802 L34.0000621,15.7533153 C34.0019156,15.5560581 33.9253611,15.3661311 33.7872076,15.2253208 C33.649054,15.0845104 33.4606196,15.0043525 33.2633622,15.0024828 Z M31.8466972,46.5799466 L25.1600381,46.5799466 L25.1600381,40.4174537 L28.6167009,39.2416217 C28.8038732,39.177487 28.9573788,39.0407561 29.0426503,38.8622189 C29.1279218,38.6836817 29.1377904,38.478348 29.0700337,38.2924561 L28.6167009,36.8757911 C28.4895843,36.4862299 28.0726895,36.2714659 27.6817019,36.394125 L18.0200463,39.6666212 C17.6344281,39.8053942 17.4322843,40.2286329 17.5667135,40.6157868 L18.0200463,42.0466185 C18.0794783,42.2344096 18.212453,42.3901128 18.3886294,42.478201 C18.5648058,42.5662892 18.7691532,42.579247 18.9550453,42.5141179 L22.2133749,41.4091192 L22.2133749,46.5799466 L10.4267217,46.5799466 L10.4267217,40.4174537 L13.8833844,39.2416217 C14.0705568,39.177487 14.2240624,39.0407561 14.3093339,38.8622189 C14.3946054,38.6836817 14.4044739,38.478348 14.3367172,38.2924561 L13.8833844,36.8757911 C13.7562679,36.4862299 13.339373,36.2714659 12.9483855,36.394125 L3.28672988,39.6666212 C2.90111168,39.8053942 2.69896783,40.2286329 2.83339707,40.6157868 L3.28672988,42.0466185 C3.34616181,42.2344096 3.47913657,42.3901128 3.65531295,42.478201 C3.83148933,42.5662892 4.03583678,42.579247 4.22172881,42.5141179 L7.48005841,41.4091192 L7.48005841,46.5799466 L0.736732807,46.5799466 C0.539475441,46.5818163 0.351040987,46.6619742 0.212887426,46.8027846 C0.0747338644,46.9435949 -0.00182060199,47.1335219 3.28889034e-05,47.3307791 L3.28889034e-05,48.832444 C-0.00182060199,49.0297012 0.0747338644,49.2196282 0.212887426,49.3604385 C0.351040987,49.5012489 0.539475441,49.5814068 0.736732807,49.5832765 L31.8466972,49.5832765 C32.0439545,49.5814068 32.232389,49.5012489 32.3705425,49.3604385 C32.5086961,49.2196282 32.5852506,49.0297012 32.5833971,48.832444 L32.5833971,47.3307791 C32.5852506,47.1335219 32.5086961,46.9435949 32.3705425,46.8027846 C32.232389,46.6619742 32.0439545,46.5818163 31.8466972,46.5799466 Z M2.32339766,18.0058127 L8.21672423,18.0058127 C8.4139816,18.003943 8.60241605,17.9237851 8.74056962,17.7829747 C8.87872318,17.6421644 8.95527764,17.4522374 8.95342415,17.2549802 L8.95342415,15.7533153 C8.95527764,15.5560581 8.87872318,15.3661311 8.74056962,15.2253208 C8.60241605,15.0845104 8.4139816,15.0043525 8.21672423,15.0024828 L2.32339766,15.0024828 C2.12614029,15.0043525 1.93770584,15.0845104 1.79955227,15.2253208 C1.66139871,15.3661311 1.58484425,15.5560581 1.58669774,15.7533153 L1.58669774,17.2549802 C1.58484425,17.4522374 1.66139871,17.6421644 1.79955227,17.7829747 C1.93770584,17.9237851 2.12614029,18.003943 2.32339766,18.0058127 L2.32339766,18.0058127 Z M9.97338889,10.6674878 C10.1104275,10.8101787 10.299716,10.8908342 10.497555,10.8908342 C10.6953939,10.8908342 10.8846824,10.8101787 11.021721,10.6674878 L12.0700532,9.60498899 C12.3532064,9.30741745 12.3532064,8.84006175 12.0700532,8.54249021 L7.89089127,4.30666173 C7.75696561,4.16361375 7.56976467,4.08243705 7.37380853,4.08243705 C7.1778524,4.08243705 6.99065146,4.16361375 6.85672579,4.30666173 L5.80839366,5.36916051 C5.52481272,5.66107163 5.52481272,6.12558152 5.80839366,6.41749264 L9.97338889,10.6674878 Z M9.97338889,22.3266411 L5.80839366,26.5766362 C5.52524041,26.8742077 5.52524041,27.3415634 5.80839366,27.639135 L6.85672579,28.7016338 C7.14320221,28.9850308 7.60441486,28.9850308 7.89089127,28.7016338 L12.0700532,24.4516386 C12.3532064,24.1540671 12.3532064,23.6867114 12.0700532,23.3891399 L11.021721,22.3266411 C10.7298099,22.0430601 10.2653,22.0430601 9.97338889,22.3266411 L9.97338889,22.3266411 Z" id="Renewable-energy-"></path>
                            </g>
                        </g>
                    </g>
                </g>
            </g>
        </g>
    </g>
</svg>