<?xml version="1.0" encoding="UTF-8"?>
<svg width="38px" height="46px" viewBox="0 0 38 46" version="1.1" xmlns="http://www.w3.org/2000/svg" xmlns:xlink="http://www.w3.org/1999/xlink">
    <!-- Generator: Sketch 63.1 (92452) - https://sketch.com -->
    <title>Water</title>
    <desc>Created with Sketch.</desc>
    <g id="Page-1" stroke="none" stroke-width="1" fill="none" fill-rule="evenodd">
        <g id="DOE--Home-Page--Phase-2" transform="translate(-156.000000, -378.000000)" fill="#7D9AAA">
            <g id="Group-23" transform="translate(-1.000000, 0.000000)">
                <g id="Group-21" transform="translate(111.000000, 80.000000)">
                    <g id="1-copy-7" transform="translate(20.000000, 271.000000)">
                        <g id="Group-3">
                            <path d="M46.2186047,27.5753065 C45.3476651,26.8082312 44.0431383,26.8082312 43.1721987,27.5753065 C38.7132135,31.6986282 26,44.3241713 26,55.0243617 C26,67.9565982 35.7008457,73 44.7209302,73 C53.7410148,73 63.4418605,67.9565982 63.4418605,55.0243617 C63.3908034,44.3241713 50.6775899,31.6986282 46.2186047,27.5753065 Z M46.0325842,67.6476778 C42.3565859,67.7314112 38.8094625,66.3031287 36.2328006,63.7017031 C33.6561387,61.1002775 32.2795772,57.5575548 32.4297177,53.9140774 C32.4792245,52.6246443 33.5476419,51.6046512 34.8487842,51.6046512 C36.1499265,51.6046512 37.2183439,52.6246443 37.2678507,53.9140774 C37.104732,56.3014577 37.9616516,58.6467899 39.6290038,60.3763978 C41.2963561,62.1060056 43.6203701,63.0603767 46.0325842,63.0060685 C46.8902559,62.9731405 47.6973766,63.4081406 48.136085,64.1397564 C48.5747934,64.8713723 48.5747934,65.782374 48.136085,66.5139899 C47.6973766,67.2456058 46.8902559,67.6806058 46.0325842,67.6476778 L46.0325842,67.6476778 Z" id="Water"></path>
                        </g>
                    </g>
                </g>
            </g>
        </g>
    </g>
</svg>