<?xml version="1.0" encoding="utf-8"?>
<!-- Generator: Adobe Illustrator 28.0.0, SVG Export Plug-In . SVG Version: 6.00 Build 0)  -->
<svg version="1.1" id="Layer_1" xmlns="http://www.w3.org/2000/svg" xmlns:xlink="http://www.w3.org/1999/xlink" x="0px" y="0px"
	 viewBox="0 0 1080 1080" style="enable-background:new 0 0 1080 1080;" xml:space="preserve">
<style type="text/css">
	.st0{fill:#A73439;}
	.st1{fill:#636569;}
	.st2{fill:#54565A;}
	.st3{fill:#FFFFFF;}
</style>
<g>
	<g>
		<path class="st0" d="M806.2,118.6H273.8c-19.4,0-35,15.7-35,35v532.5c0,19.4,15.7,35,35,35.1h532.4c19.4,0,35-15.6,35.1-35.1
			V153.6C841.2,134.3,825.6,118.6,806.2,118.6"/>
	</g>
	<path class="st1" d="M110.3,926.7h0.1l5.5,17.5h-11.1L110.3,926.7z M106.2,918.2l-14.8,42.5h7.9l3.3-9.8H118l3.3,9.8h8.4
		l-14.9-42.5H106.2z"/>
	<g>
		<path class="st1" d="M141.6,948.3c0.2,1.2,0.6,2.3,1.1,3.3c0.5,1,1.2,1.8,2,2.5c0.8,0.7,1.8,1,3,1c1.2,0,2.2-0.3,3-1
			c0.8-0.6,1.4-1.5,1.9-2.5c0.5-1,0.8-2.1,1-3.3c0.2-1.2,0.3-2.3,0.3-3.4c0-1.1-0.1-2.2-0.3-3.3c-0.2-1.2-0.5-2.2-1-3.2
			c-0.5-1-1.1-1.8-1.8-2.4c-0.8-0.6-1.7-1-2.9-1c-1.2,0-2.2,0.3-3,0.9c-0.8,0.6-1.5,1.4-2,2.4c-0.5,1-0.9,2-1.2,3.2
			c-0.2,1.2-0.4,2.3-0.4,3.4C141.3,946,141.4,947.1,141.6,948.3 M134,915h7.2v18.3h0.1c1-1.5,2.2-2.7,3.5-3.5c1.3-0.8,3-1.3,4.9-1.3
			c2.1,0,4,0.5,5.5,1.3c1.5,0.9,2.7,2.1,3.6,3.6c0.9,1.5,1.6,3.2,2,5.2c0.4,2,0.6,4,0.6,6.2c0,2.2-0.2,4.2-0.6,6.2
			c-0.4,2-1.1,3.8-2,5.3c-0.9,1.5-2.1,2.7-3.6,3.7c-1.5,0.9-3.3,1.4-5.5,1.4c-1.6,0-3.1-0.3-4.7-1c-1.6-0.7-2.9-1.8-3.9-3.5H141v3.8
			H134V915z"/>
		<path class="st1" d="M192.9,960.7H186v-4.3h-0.1c-1.1,1.6-2.5,2.8-4,3.6c-1.5,0.9-3.3,1.3-5.2,1.3c-1.7,0-3.1-0.3-4.3-0.9
			c-1.2-0.6-2.2-1.5-3-2.6c-0.8-1.1-1.4-2.4-1.7-3.9c-0.4-1.5-0.5-3.2-0.5-5v-19.8h7.3V946c0,1,0,2,0.1,3c0,1.1,0.2,2,0.5,2.9
			c0.3,0.9,0.8,1.6,1.4,2.2c0.7,0.6,1.6,0.9,2.7,0.9c1.3,0,2.4-0.3,3.2-1.1c0.8-0.7,1.5-1.6,2-2.6c0.5-1,0.8-2.2,1-3.4
			c0.2-1.2,0.3-2.3,0.3-3.3v-15.3h7.3V960.7z"/>
		<path class="st1" d="M224,954h4.2c1.6,0,3.2-0.3,4.7-1c1.5-0.6,2.8-1.6,4-2.8c1.2-1.2,2.1-2.8,2.8-4.6c0.7-1.8,1.1-3.9,1.1-6.2
			c0-2.3-0.4-4.4-1.1-6.2c-0.7-1.8-1.6-3.3-2.8-4.6c-1.1-1.3-2.5-2.2-4-2.8c-1.5-0.6-3.1-1-4.7-1H224V954z M216.4,918.1h10.4
			c2.9,0,5.7,0.3,8.3,0.9c2.7,0.6,5,1.7,7,3.3c2,1.6,3.6,3.8,4.8,6.5c1.2,2.7,1.8,6.2,1.8,10.5c0,4.2-0.6,7.7-1.8,10.4
			c-1.2,2.8-2.8,4.9-4.8,6.5c-2,1.6-4.3,2.7-7,3.4c-2.7,0.6-5.4,0.9-8.3,0.9h-10.4V918.1z"/>
		<path class="st1" d="M255,915h7.3v18.6h0.1c0.9-1.6,2.2-2.8,3.7-3.7c1.5-0.9,3.2-1.3,5.2-1.3c1.7,0,3.1,0.3,4.3,0.9
			c1.2,0.6,2.2,1.5,3,2.6c0.8,1.1,1.3,2.4,1.7,3.9c0.4,1.5,0.5,3.1,0.5,4.9v19.8h-7.3v-16.8c0-1,0-2-0.1-3c0-1.1-0.2-2-0.6-2.9
			c-0.3-0.9-0.8-1.6-1.4-2.2c-0.6-0.6-1.5-0.9-2.7-0.9c-1.3,0-2.4,0.4-3.2,1.1c-0.8,0.7-1.5,1.6-2,2.6c-0.5,1.1-0.8,2.2-1,3.4
			c-0.2,1.2-0.3,2.3-0.3,3.3v15.4H255V915z"/>
		<path class="st1" d="M294.8,954.5c0.9,0.6,2,0.9,3.3,0.9c1.1,0,2.1-0.3,3-0.8c0.9-0.5,1.6-1.2,2.1-2c0.6-0.9,1-1.9,1.2-3
			c0.2-1.1,0.3-2.3,0.3-3.5h-3.2c-0.8,0-1.7,0.1-2.7,0.2c-0.9,0.1-1.8,0.4-2.6,0.7c-0.8,0.4-1.5,0.9-2,1.6c-0.5,0.7-0.8,1.7-0.8,2.9
			C293.4,952.9,293.9,953.9,294.8,954.5 M289.5,930.9c1.4-0.7,3-1.3,4.8-1.7c1.8-0.4,3.4-0.6,5-0.6c4.3,0,7.4,1.1,9.2,3.1
			c1.9,2.1,2.8,5.5,2.8,10.1v4c0,1.6,0,3,0,4.2c0,1.2,0.1,2.4,0.1,3.6c0,1.2,0.1,2.4,0.1,3.5c0.1,1.1,0.1,2.3,0.2,3.5h-6.5
			c-0.1-0.8-0.2-1.7-0.2-2.6c0-0.9,0-1.6-0.1-2.1h-0.1c-0.5,0.9-1,1.6-1.6,2.3c-0.6,0.7-1.3,1.3-2.1,1.7c-0.8,0.5-1.6,0.8-2.4,1
			c-0.9,0.2-1.7,0.3-2.5,0.3c-1.2,0-2.4-0.2-3.6-0.6c-1.2-0.4-2.2-1-3.1-1.8c-0.9-0.8-1.6-1.8-2.2-2.9c-0.6-1.1-0.8-2.5-0.8-4
			c0-2.3,0.5-4.2,1.4-5.7c0.9-1.4,2.1-2.5,3.4-3.3c1.4-0.8,2.9-1.3,4.6-1.5c1.7-0.2,3.3-0.3,4.8-0.3h4c0-2.6-0.5-4.4-1.5-5.3
			c-1-1-2.6-1.5-4.8-1.5c-1.6,0-3.1,0.3-4.6,0.9c-1.5,0.6-2.8,1.4-4.1,2.5L289.5,930.9z"/>
		<path class="st1" d="M326.2,948.3c0.2,1.2,0.6,2.3,1.1,3.3c0.5,1,1.2,1.8,2,2.5c0.8,0.7,1.8,1,3,1c1.2,0,2.2-0.3,3-1
			c0.8-0.6,1.4-1.5,1.9-2.5c0.5-1,0.8-2.1,1-3.3c0.2-1.2,0.3-2.3,0.3-3.4c0-1.1-0.1-2.2-0.3-3.3c-0.2-1.2-0.5-2.2-1-3.2
			c-0.5-1-1.1-1.8-1.8-2.4c-0.8-0.6-1.7-1-2.9-1c-1.2,0-2.1,0.3-3,0.9c-0.8,0.6-1.5,1.4-2,2.4c-0.5,1-0.9,2-1.2,3.2
			c-0.2,1.2-0.4,2.3-0.4,3.4C325.9,946,326,947.1,326.2,948.3 M318.5,915h7.3v18.3h0.1c1-1.5,2.2-2.7,3.5-3.5
			c1.3-0.8,2.9-1.3,4.9-1.3c2.1,0,4,0.5,5.5,1.3c1.5,0.9,2.7,2.1,3.7,3.6c0.9,1.5,1.6,3.2,2,5.2c0.4,2,0.6,4,0.6,6.2
			c0,2.2-0.2,4.2-0.6,6.2c-0.4,2-1.1,3.8-2,5.3c-0.9,1.5-2.1,2.7-3.6,3.7c-1.5,0.9-3.3,1.4-5.5,1.4c-1.6,0-3.1-0.3-4.7-1
			c-1.6-0.7-2.9-1.8-3.9-3.5h-0.1v3.8h-7.1V915z"/>
	</g>
	<path class="st1" d="M352,960.7h7.2v-31.5H352V960.7z M352,923.6h7.2v-7.8H352V923.6z"/>
	<g>
		<path class="st1" d="M390.4,954h3.6c0.9,0,1.8-0.1,2.7-0.2c0.9-0.2,1.8-0.5,2.5-0.9c0.8-0.4,1.4-1,1.9-1.8c0.5-0.8,0.7-1.8,0.7-3
			c0-1.4-0.2-2.5-0.7-3.3c-0.4-0.8-1.1-1.5-1.8-2c-0.7-0.4-1.6-0.8-2.5-0.9c-1-0.2-1.9-0.2-2.9-0.2h-3.6V954z M390.4,935.3h3.1
			c0.8,0,1.6-0.1,2.5-0.2c0.8-0.1,1.6-0.4,2.3-0.8c0.7-0.4,1.3-0.9,1.7-1.6c0.5-0.7,0.7-1.6,0.7-2.6c0-1.2-0.2-2.2-0.7-2.9
			c-0.4-0.7-1-1.2-1.7-1.6c-0.7-0.4-1.5-0.6-2.4-0.7c-0.9-0.1-1.7-0.1-2.6-0.1h-2.9V935.3z M382.8,918.1h13.3c1.2,0,2.6,0.1,4,0.4
			c1.4,0.3,2.7,0.8,4,1.6c1.2,0.8,2.3,1.9,3.1,3.3c0.8,1.4,1.2,3.3,1.2,5.6c0,2.6-0.7,4.7-2,6.3c-1.4,1.7-3.2,2.7-5.5,3.2v0.1
			c1.3,0.1,2.5,0.5,3.6,1c1.1,0.5,2,1.2,2.8,2.1c0.7,0.9,1.3,1.8,1.8,3c0.4,1.1,0.6,2.3,0.6,3.6c0,2.7-0.5,4.8-1.4,6.5
			c-0.9,1.6-2.1,2.9-3.5,3.7c-1.4,0.9-2.8,1.4-4.4,1.7c-1.5,0.3-2.9,0.4-4.1,0.4h-13.3V918.1z"/>
		<path class="st1" d="M441.1,960.7h-6.9v-4.3h-0.1c-1.1,1.6-2.4,2.8-4,3.6c-1.5,0.9-3.3,1.3-5.2,1.3c-1.7,0-3.1-0.3-4.3-0.9
			c-1.2-0.6-2.2-1.5-3-2.6c-0.8-1.1-1.3-2.4-1.7-3.9c-0.4-1.5-0.6-3.2-0.6-5v-19.8h7.3V946c0,1,0,2,0.1,3c0,1.1,0.2,2,0.5,2.9
			c0.3,0.9,0.7,1.6,1.4,2.2c0.7,0.6,1.6,0.9,2.7,0.9c1.3,0,2.4-0.3,3.2-1.1c0.8-0.7,1.5-1.6,2-2.6c0.5-1,0.8-2.2,1-3.4
			c0.2-1.2,0.3-2.3,0.3-3.3v-15.3h7.2V960.7z"/>
		<path class="st1" d="M465.4,935.8c-1.1-0.4-2.2-0.8-3.1-1c-1-0.2-2.1-0.3-3.4-0.3c-0.5,0-1,0-1.5,0.2c-0.5,0.1-1,0.3-1.4,0.6
			c-0.4,0.3-0.7,0.7-1,1.1c-0.3,0.5-0.4,1-0.4,1.6c0,0.8,0.3,1.5,0.9,1.9c0.6,0.5,1.4,0.9,2.3,1.2c0.9,0.3,1.9,0.7,3,1.1
			c1.1,0.4,2.1,0.9,3,1.6c0.9,0.7,1.7,1.7,2.3,2.8c0.6,1.2,1,2.7,1,4.5c0,1.8-0.3,3.4-1,4.7c-0.7,1.3-1.6,2.3-2.6,3.2
			c-1.1,0.8-2.3,1.4-3.7,1.8c-1.4,0.4-2.9,0.6-4.4,0.6c-1.4,0-2.8-0.1-4.2-0.4c-1.4-0.3-2.8-0.6-4.1-1l0.4-6.7
			c1.1,0.6,2.3,1.1,3.5,1.5c1.2,0.4,2.4,0.5,3.7,0.5c0.5,0,1-0.1,1.5-0.2c0.5-0.1,1.1-0.3,1.5-0.6c0.5-0.3,0.9-0.7,1.2-1.1
			c0.3-0.5,0.5-1.1,0.5-1.9c0-1-0.3-1.8-0.9-2.3c-0.6-0.5-1.4-1-2.3-1.3c-0.9-0.4-2-0.7-3-1c-1.1-0.3-2.1-0.8-3-1.5
			c-0.9-0.7-1.7-1.5-2.3-2.6c-0.6-1.1-1-2.6-1-4.5c0-1.7,0.3-3.2,0.9-4.4c0.6-1.2,1.4-2.2,2.4-3c1-0.8,2.2-1.4,3.5-1.8
			c1.3-0.4,2.7-0.6,4.1-0.6c1.8,0,3.2,0.1,4.4,0.4c1.2,0.2,2.4,0.5,3.5,0.8L465.4,935.8z"/>
	</g>
	<path class="st1" d="M473,960.7h7.2v-31.5H473V960.7z M473,923.6h7.2v-7.8H473V923.6z"/>
	<g>
		<path class="st1" d="M488,929.2h6.9v4.3h0.1c1.2-1.8,2.5-3.1,4-3.9c1.5-0.7,3.2-1.1,5.2-1.1c1.7,0,3.1,0.3,4.3,1
			c1.2,0.6,2.2,1.5,3,2.6c0.8,1.1,1.3,2.4,1.7,3.9c0.4,1.5,0.5,3.1,0.5,4.9v19.8h-7.3v-16.8c0-1,0-2-0.1-3c0-1-0.2-2-0.6-2.9
			c-0.3-0.9-0.8-1.6-1.4-2.2c-0.6-0.6-1.5-0.9-2.7-0.9c-1.3,0-2.4,0.4-3.2,1.1c-0.8,0.7-1.5,1.6-2,2.7c-0.5,1.1-0.8,2.2-1,3.4
			c-0.2,1.2-0.3,2.3-0.3,3.3v15.4H488V929.2z"/>
		<path class="st1" d="M538.8,941.9c-0.1-1-0.2-1.9-0.5-2.8c-0.2-0.9-0.6-1.7-1.1-2.4c-0.5-0.7-1.1-1.2-1.8-1.6
			c-0.7-0.4-1.6-0.6-2.6-0.6c-2.1,0-3.6,0.7-4.7,2.1c-1,1.4-1.6,3.2-1.8,5.3H538.8z M543.7,958.9c-1.3,0.8-2.8,1.4-4.4,1.9
			c-1.6,0.4-3.3,0.6-5.3,0.6c-4.7,0-8.3-1.4-10.8-4.2c-2.6-2.8-3.8-6.8-3.8-12c0-2.3,0.3-4.4,0.8-6.4c0.5-2,1.4-3.8,2.4-5.3
			c1.1-1.5,2.4-2.7,4.1-3.6c1.6-0.9,3.6-1.3,5.7-1.3c2.6,0,4.8,0.5,6.5,1.4c1.7,1,3,2.3,4.1,3.9c1,1.7,1.7,3.7,2.1,6
			c0.4,2.3,0.6,4.8,0.6,7.6h-19.4c0.2,2.6,1,4.5,2.4,5.9c1.4,1.4,3.3,2.1,5.6,2.1c1.8,0,3.4-0.3,4.9-0.9c1.5-0.6,3-1.4,4.4-2.2
			V958.9z"/>
		<path class="st1" d="M568.3,935.8c-1.1-0.4-2.2-0.8-3.1-1c-0.9-0.2-2.1-0.3-3.4-0.3c-0.5,0-1,0-1.5,0.2c-0.5,0.1-1,0.3-1.3,0.6
			c-0.4,0.3-0.7,0.7-1,1.1c-0.3,0.5-0.4,1-0.4,1.6c0,0.8,0.3,1.5,1,1.9c0.6,0.5,1.4,0.9,2.3,1.2c0.9,0.3,1.9,0.7,3,1.1
			c1.1,0.4,2.1,0.9,3.1,1.6c0.9,0.7,1.7,1.7,2.3,2.8c0.6,1.2,0.9,2.7,0.9,4.5c0,1.8-0.3,3.4-1,4.7c-0.7,1.3-1.5,2.3-2.6,3.2
			c-1.1,0.8-2.3,1.4-3.7,1.8c-1.4,0.4-2.9,0.6-4.4,0.6c-1.4,0-2.8-0.1-4.2-0.4c-1.4-0.3-2.8-0.6-4.1-1l0.4-6.7
			c1.1,0.6,2.3,1.1,3.5,1.5c1.1,0.4,2.4,0.5,3.7,0.5c0.5,0,1-0.1,1.5-0.2c0.5-0.1,1.1-0.3,1.6-0.6c0.5-0.3,0.9-0.7,1.2-1.1
			c0.3-0.5,0.5-1.1,0.5-1.9c0-1-0.3-1.8-0.9-2.3c-0.6-0.5-1.4-1-2.3-1.3c-0.9-0.4-2-0.7-3.1-1c-1.1-0.3-2.1-0.8-3-1.5
			c-0.9-0.7-1.7-1.5-2.3-2.6c-0.6-1.1-1-2.6-1-4.5c0-1.7,0.3-3.2,0.9-4.4c0.6-1.2,1.4-2.2,2.4-3c1-0.8,2.2-1.4,3.5-1.8
			c1.3-0.4,2.7-0.6,4.1-0.6c1.7,0,3.2,0.1,4.4,0.4c1.2,0.2,2.4,0.5,3.5,0.8L568.3,935.8z"/>
		<path class="st1" d="M592.4,935.8c-1.1-0.4-2.2-0.8-3.1-1c-1-0.2-2.1-0.3-3.4-0.3c-0.5,0-1,0-1.5,0.2c-0.5,0.1-1,0.3-1.4,0.6
			c-0.4,0.3-0.7,0.7-1,1.1c-0.3,0.5-0.4,1-0.4,1.6c0,0.8,0.3,1.5,0.9,1.9c0.6,0.5,1.4,0.9,2.3,1.2c0.9,0.3,1.9,0.7,3,1.1
			c1.1,0.4,2.1,0.9,3.1,1.6c0.9,0.7,1.7,1.7,2.3,2.8c0.6,1.2,0.9,2.7,0.9,4.5c0,1.8-0.3,3.4-1,4.7c-0.7,1.3-1.6,2.3-2.6,3.2
			c-1.1,0.8-2.3,1.4-3.8,1.8c-1.4,0.4-2.8,0.6-4.3,0.6c-1.4,0-2.8-0.1-4.2-0.4c-1.4-0.3-2.8-0.6-4.1-1l0.4-6.7
			c1.2,0.6,2.3,1.1,3.5,1.5c1.2,0.4,2.4,0.5,3.7,0.5c0.5,0,1-0.1,1.5-0.2c0.5-0.1,1.1-0.3,1.5-0.6c0.5-0.3,0.9-0.7,1.2-1.1
			c0.3-0.5,0.5-1.1,0.5-1.9c0-1-0.3-1.8-0.9-2.3c-0.6-0.5-1.4-1-2.3-1.3c-0.9-0.4-1.9-0.7-3-1c-1.1-0.3-2.1-0.8-3.1-1.5
			c-0.9-0.7-1.7-1.5-2.3-2.6c-0.6-1.1-0.9-2.6-0.9-4.5c0-1.7,0.3-3.2,0.9-4.4c0.6-1.2,1.4-2.2,2.5-3c1-0.8,2.2-1.4,3.5-1.8
			c1.3-0.4,2.7-0.6,4.1-0.6c1.7,0,3.2,0.1,4.4,0.4c1.2,0.2,2.4,0.5,3.5,0.8L592.4,935.8z"/>
	</g>
	<polygon class="st1" points="637,929.2 631.2,952.5 631.1,952.5 625,929.2 616.5,929.2 610.8,952.5 610.7,952.5 604.5,929.2 
		596.8,929.2 606.2,960.7 614.6,960.7 620.5,936.8 620.7,936.8 626.8,960.7 635.4,960.7 644,929.2 	"/>
	<g>
		<path class="st1" d="M654.5,948c0.2,1.3,0.6,2.4,1.1,3.5c0.5,1,1.2,1.9,2.1,2.5c0.9,0.6,2.1,1,3.4,1c1.4,0,2.6-0.3,3.5-0.9
			c0.9-0.6,1.6-1.5,2.2-2.5c0.5-1,0.9-2.2,1.1-3.5c0.2-1.3,0.3-2.6,0.3-3.9c0-1.2-0.2-2.4-0.4-3.5c-0.3-1.1-0.7-2.1-1.3-2.9
			c-0.6-0.9-1.3-1.5-2.2-2.1c-0.9-0.5-1.9-0.8-3.1-0.8c-1.2,0-2.2,0.3-3.1,0.8c-0.9,0.5-1.6,1.2-2.2,2.1c-0.6,0.9-1,1.9-1.3,3
			c-0.3,1.1-0.4,2.2-0.4,3.4C654.2,945.5,654.3,946.8,654.5,948 M647.7,938.2c0.7-2,1.8-3.8,3.1-5.2c1.3-1.4,2.9-2.5,4.7-3.3
			c1.8-0.8,3.7-1.1,5.7-1.1c2.1,0,4,0.4,5.8,1.1c1.8,0.8,3.4,1.9,4.7,3.3c1.3,1.4,2.3,3.2,3.1,5.2c0.7,2.1,1.1,4.4,1.1,7
			c0,2.3-0.3,4.4-1,6.4c-0.7,2-1.6,3.7-2.9,5.2c-1.2,1.5-2.8,2.6-4.6,3.4c-1.8,0.8-3.9,1.2-6.2,1.2c-2.3,0-4.4-0.4-6.2-1.2
			c-1.8-0.8-3.3-2-4.6-3.4c-1.2-1.5-2.2-3.2-2.9-5.2c-0.6-2-1-4.1-1-6.4C646.6,942.6,647,940.3,647.7,938.2"/>
		<path class="st1" d="M681.5,929.2h6.8v4.4h0.1c1.2-2,2.5-3.3,4-4c1.5-0.7,2.9-1.1,4.3-1.1c1.9,0,3.6,0.4,5,1.3
			c1.4,0.9,2.5,2.3,3.3,4.2c0.8-1.9,2.1-3.3,3.7-4.2c1.7-0.9,3.3-1.4,5-1.4c1.7,0,3.2,0.3,4.3,1c1.1,0.6,2,1.5,2.7,2.6
			c0.7,1.1,1.2,2.4,1.4,3.9c0.3,1.5,0.4,3.1,0.4,4.9v19.8h-7.3V942c0-0.7,0-1.5,0-2.4c0-0.8-0.2-1.6-0.5-2.3
			c-0.3-0.7-0.7-1.3-1.3-1.7c-0.5-0.5-1.4-0.7-2.4-0.7c-1.2,0-2.2,0.4-2.9,1.1c-0.7,0.7-1.3,1.6-1.7,2.7c-0.4,1.1-0.6,2.2-0.7,3.4
			c-0.1,1.2-0.1,2.3-0.1,3.4v15.2h-7.3V942c0-0.7,0-1.5,0-2.4c0-0.8-0.2-1.6-0.5-2.3c-0.3-0.7-0.7-1.3-1.2-1.7
			c-0.6-0.5-1.4-0.7-2.4-0.7c-1.2,0-2.2,0.4-2.9,1.1c-0.7,0.7-1.3,1.6-1.6,2.7c-0.4,1.1-0.6,2.2-0.7,3.4c-0.1,1.2-0.2,2.3-0.2,3.4
			v15.2h-7.2V929.2z"/>
		<path class="st1" d="M747.6,941.9c-0.1-1-0.2-1.9-0.5-2.8c-0.2-0.9-0.6-1.7-1.1-2.4c-0.5-0.7-1.1-1.2-1.8-1.6
			c-0.7-0.4-1.6-0.6-2.6-0.6c-2.1,0-3.6,0.7-4.6,2.1s-1.6,3.2-1.8,5.3H747.6z M752.5,958.9c-1.3,0.8-2.8,1.4-4.4,1.9
			c-1.6,0.4-3.3,0.6-5.3,0.6c-4.6,0-8.2-1.4-10.8-4.2c-2.6-2.8-3.8-6.8-3.8-12c0-2.3,0.3-4.4,0.8-6.4c0.5-2,1.4-3.8,2.4-5.3
			c1.1-1.5,2.4-2.7,4.1-3.6c1.6-0.9,3.6-1.3,5.7-1.3c2.6,0,4.8,0.5,6.5,1.4c1.7,1,3.1,2.3,4.1,3.9c1,1.7,1.7,3.7,2.2,6
			c0.4,2.3,0.6,4.8,0.6,7.6h-19.4c0.2,2.6,1,4.5,2.4,5.9c1.4,1.4,3.3,2.1,5.6,2.1c1.8,0,3.4-0.3,4.9-0.9c1.5-0.6,3-1.4,4.4-2.2
			V958.9z"/>
		<path class="st1" d="M760.3,929.2h6.9v4.3h0.1c1.1-1.8,2.5-3.1,4-3.9c1.5-0.7,3.2-1.1,5.2-1.1c1.6,0,3.1,0.3,4.3,1
			c1.2,0.6,2.2,1.5,3,2.6c0.8,1.1,1.3,2.4,1.7,3.9c0.3,1.5,0.5,3.1,0.5,4.9v19.8h-7.2v-16.8c0-1,0-2-0.1-3c-0.1-1-0.2-2-0.5-2.9
			c-0.3-0.9-0.8-1.6-1.4-2.2c-0.6-0.6-1.5-0.9-2.7-0.9c-1.3,0-2.4,0.4-3.2,1.1c-0.8,0.7-1.5,1.6-2,2.7c-0.5,1.1-0.8,2.2-1,3.4
			c-0.2,1.2-0.3,2.3-0.3,3.3v15.4h-7.3V929.2z"/>
		<path class="st1" d="M837,960c-1.4,0.3-2.8,0.7-4.3,1c-1.5,0.3-2.9,0.4-4.4,0.4c-3.1,0-5.9-0.4-8.5-1.3c-2.6-0.9-4.8-2.2-6.6-3.9
			c-1.8-1.7-3.3-4-4.3-6.6c-1-2.7-1.5-5.8-1.5-9.4c0-3.7,0.5-6.9,1.4-9.7c0.9-2.8,2.3-5.2,4.1-7.1c1.8-1.9,4-3.4,6.6-4.4
			c2.6-1,5.5-1.5,8.7-1.5c1.3,0,2.7,0.1,4.2,0.4c1.5,0.3,3,0.7,4.4,1.4l-0.5,7.2c-1.5-0.9-2.9-1.5-4.2-1.8c-1.3-0.3-2.7-0.4-4-0.4
			c-2,0-3.7,0.4-5.3,1.2c-1.6,0.8-2.9,1.9-4,3.3c-1.1,1.4-1.9,3-2.5,4.9c-0.6,1.9-0.9,3.9-0.9,6.1c0,2.2,0.3,4.2,0.8,6
			c0.6,1.9,1.4,3.5,2.5,4.8c1.1,1.4,2.4,2.4,4.1,3.2c1.6,0.8,3.4,1.1,5.4,1.1c1.5,0,3.1-0.1,4.6-0.5c1.6-0.3,2.8-0.8,3.7-1.3
			L837,960z"/>
		<path class="st1" d="M848.2,948c0.2,1.3,0.6,2.4,1.1,3.5c0.5,1,1.3,1.9,2.2,2.5c0.9,0.6,2,1,3.4,1c1.4,0,2.6-0.3,3.5-0.9
			c0.9-0.6,1.6-1.5,2.1-2.5c0.5-1,0.9-2.2,1.1-3.5c0.2-1.3,0.3-2.6,0.3-3.9c0-1.2-0.2-2.4-0.5-3.5c-0.3-1.1-0.7-2.1-1.3-2.9
			c-0.6-0.9-1.3-1.5-2.2-2.1c-0.9-0.5-1.9-0.8-3.1-0.8c-1.2,0-2.2,0.3-3.1,0.8c-0.9,0.5-1.6,1.2-2.2,2.1c-0.6,0.9-1,1.9-1.3,3
			c-0.3,1.1-0.4,2.2-0.4,3.4C847.9,945.5,848,946.8,848.2,948 M841.4,938.2c0.7-2,1.8-3.8,3.1-5.2c1.3-1.4,2.9-2.5,4.7-3.3
			c1.8-0.8,3.7-1.1,5.7-1.1c2.1,0,4,0.4,5.8,1.1c1.8,0.8,3.3,1.9,4.7,3.3c1.3,1.4,2.4,3.2,3.1,5.2c0.7,2.1,1.1,4.4,1.1,7
			c0,2.3-0.3,4.4-1,6.4c-0.6,2-1.6,3.7-2.8,5.2c-1.2,1.5-2.8,2.6-4.6,3.4c-1.8,0.8-3.9,1.2-6.2,1.2c-2.3,0-4.4-0.4-6.2-1.2
			c-1.8-0.8-3.3-2-4.6-3.4c-1.3-1.5-2.2-3.2-2.9-5.2c-0.6-2-1-4.1-1-6.4C840.3,942.6,840.7,940.3,841.4,938.2"/>
		<path class="st1" d="M901,960.7h-6.9v-4.3H894c-1.1,1.6-2.4,2.8-4,3.6c-1.5,0.9-3.3,1.3-5.2,1.3c-1.7,0-3.1-0.3-4.3-0.9
			c-1.2-0.6-2.2-1.5-2.9-2.6c-0.8-1.1-1.4-2.4-1.7-3.9c-0.4-1.5-0.5-3.2-0.5-5v-19.8h7.2V946c0,1,0,2,0.1,3c0,1.1,0.2,2,0.5,2.9
			c0.3,0.9,0.7,1.6,1.4,2.2c0.7,0.6,1.6,0.9,2.7,0.9c1.3,0,2.4-0.3,3.2-1.1c0.8-0.7,1.5-1.6,1.9-2.6c0.5-1,0.8-2.2,1-3.4
			c0.2-1.2,0.3-2.3,0.3-3.3v-15.3h7.2V960.7z"/>
		<path class="st1" d="M908.6,929.2h6.9v4.3h0.1c1.1-1.8,2.5-3.1,4-3.9c1.5-0.7,3.2-1.1,5.2-1.1c1.7,0,3.1,0.3,4.3,1
			c1.2,0.6,2.2,1.5,3,2.6c0.8,1.1,1.4,2.4,1.7,3.9c0.3,1.5,0.5,3.1,0.5,4.9v19.8H927v-16.8c0-1,0-2-0.1-3c0-1-0.2-2-0.6-2.9
			c-0.3-0.9-0.8-1.6-1.4-2.2c-0.6-0.6-1.6-0.9-2.7-0.9c-1.3,0-2.4,0.4-3.2,1.1c-0.9,0.7-1.5,1.6-2,2.7c-0.5,1.1-0.8,2.2-1,3.4
			c-0.2,1.2-0.3,2.3-0.3,3.3v15.4h-7.2V929.2z"/>
		<path class="st1" d="M960.1,936.1c-0.6-0.3-1.4-0.6-2.1-0.8c-0.8-0.2-1.7-0.3-2.8-0.3c-2.3,0-4.1,0.9-5.4,2.7
			c-1.3,1.8-2,4.2-2,7.2c0,1.5,0.2,2.8,0.5,4c0.3,1.2,0.8,2.3,1.4,3.2c0.6,0.9,1.4,1.6,2.4,2.2c1,0.5,2.1,0.8,3.4,0.8
			c1,0,2.1-0.2,3.1-0.5c1-0.3,1.8-0.6,2.5-1l0.3,6.8c-1.1,0.4-2.1,0.6-3.3,0.8c-1.1,0.2-2.5,0.2-4,0.2c-2.3,0-4.3-0.4-6-1.2
			c-1.8-0.8-3.2-2-4.3-3.4c-1.2-1.5-2-3.2-2.6-5.2c-0.6-2-0.9-4.2-0.9-6.6c0-2.3,0.3-4.4,0.9-6.4c0.6-2,1.5-3.7,2.6-5.1
			c1.1-1.5,2.5-2.6,4.2-3.5c1.7-0.9,3.6-1.3,5.8-1.3c1.5,0,2.8,0.1,3.9,0.3c1.1,0.2,2.2,0.4,3.2,0.8L960.1,936.1z"/>
	</g>
	<path class="st1" d="M966.2,960.7h7.2v-31.5h-7.2V960.7z M966.2,923.6h7.2v-7.8h-7.2V923.6z"/>
	<rect x="981.4" y="915" class="st1" width="7.2" height="45.7"/>
	<g>
		<path class="st2" d="M47.3,857.1c0-6,1.6-10.5,4.7-13.5c3.2-3,8.1-4.5,14.6-4.5h13.1v18.4c0,1.6,0.1,2.8,0.2,3.8
			c0.1,0.9,0.4,1.6,0.7,2.1c0.3,0.5,0.7,0.8,1.3,1c0.5,0.2,1.2,0.2,1.9,0.2h4.7c0.8,0,1.4,0.1,1.9,0.2c0.5,0.1,0.8,0.3,1,0.6
			c0.2,0.3,0.3,0.6,0.4,0.9c0,0.4,0.1,0.9,0.1,1.4v3c0,0.7,0,1.3-0.1,1.7c-0.1,0.4-0.3,0.8-0.5,1c-0.3,0.2-0.6,0.4-1,0.4
			c-0.4,0.1-1,0.1-1.7,0.1h-7.1c-1.6,0-3.1-0.3-4.7-0.7c-1.5-0.5-2.9-1.3-4.1-2.3c-1.2-1.1-2.2-2.4-2.9-4.1
			c-0.7-1.7-1.1-3.7-1.1-6.1v-12.7c-1.6,0-3.1,0.1-4.3,0.4c-1.3,0.2-2.4,0.7-3.2,1.4c-0.9,0.7-1.6,1.7-2,3c-0.5,1.3-0.7,3-0.7,5.1
			v12.7c0,2.8-0.6,5.5-1.9,8.1c-1.3,2.7-3.1,5-5.5,7.1c-2.4,2.1-5.3,3.7-8.8,5c-3.5,1.3-7.4,1.9-11.8,1.9c-4.2,0-7.8-0.4-10.9-1.2
			c-3.1-0.8-5.8-1.9-8.1-3.2c-2.2-1.3-4.1-2.8-5.6-4.5c-1.5-1.7-2.7-3.4-3.5-5.1c-0.9-1.7-1.5-3.4-1.8-5.1C0.2,872,0,870.5,0,869.2
			c0-1.6,0.2-3.2,0.5-4.8c0.3-1.6,0.7-3.2,1.3-4.7c0.5-1.5,1.2-3,1.9-4.3c0.7-1.4,1.6-2.6,2.4-3.7l8.7,4.7c-0.6,0.8-1.1,1.6-1.5,2.6
			c-0.5,1-0.9,2-1.2,3.1c-0.3,1.1-0.6,2.2-0.8,3.3c-0.2,1.1-0.3,2.2-0.3,3.2c0,0.9,0.1,1.9,0.3,3c0.2,1.1,0.6,2.2,1.1,3.3
			c0.5,1.1,1.2,2.2,2.2,3.2c0.9,1,2.1,1.9,3.5,2.7c1.4,0.8,3.2,1.4,5.2,1.9c2,0.5,4.4,0.7,7.1,0.7c2.6,0,5-0.3,7.1-1
			c2.1-0.7,3.9-1.5,5.3-2.6c1.4-1.1,2.6-2.3,3.3-3.8s1.1-2.9,1.1-4.4V857.1z M18.7,903c0-0.8,0.1-1.5,0.4-2.1
			c0.3-0.7,0.7-1.2,1.2-1.7c0.5-0.5,1.1-0.9,1.7-1.2c0.6-0.3,1.3-0.4,2.1-0.4c0.8,0,1.5,0.1,2.1,0.4c0.6,0.3,1.2,0.7,1.7,1.2
			c0.5,0.5,0.9,1.1,1.2,1.7c0.3,0.6,0.4,1.4,0.4,2.1c0,0.8-0.1,1.5-0.4,2.1c-0.3,0.7-0.7,1.2-1.2,1.7c-0.5,0.5-1.1,0.9-1.7,1.2
			c-0.7,0.3-1.4,0.4-2.1,0.4c-0.8,0-1.5-0.2-2.1-0.4c-0.7-0.3-1.2-0.7-1.7-1.2c-0.5-0.5-0.9-1.1-1.2-1.7
			C18.8,904.5,18.7,903.8,18.7,903 M31.4,903c0-0.8,0.1-1.5,0.4-2.1c0.3-0.7,0.7-1.2,1.2-1.7c0.5-0.5,1.1-0.9,1.7-1.2
			c0.6-0.3,1.4-0.4,2.1-0.4c0.8,0,1.5,0.1,2.1,0.4c0.7,0.3,1.2,0.7,1.7,1.2c0.5,0.5,0.9,1.1,1.2,1.7c0.3,0.6,0.4,1.4,0.4,2.1
			c0,0.8-0.1,1.5-0.4,2.1c-0.3,0.7-0.7,1.2-1.2,1.7c-0.5,0.5-1.1,0.9-1.7,1.2c-0.6,0.3-1.4,0.4-2.1,0.4c-0.8,0-1.5-0.2-2.1-0.4
			c-0.7-0.3-1.2-0.7-1.7-1.2c-0.5-0.5-0.9-1.1-1.2-1.7C31.5,904.5,31.4,903.8,31.4,903"/>
		<path class="st2" d="M109.3,860.1c0,0.5,0,1-0.1,1.5c0,0.5-0.1,1-0.1,1.5c1.4,0.6,2.9,1,4.5,1.3c1.6,0.3,3.3,0.4,5,0.4h0.3
			c0.8,0,1.4,0.1,1.9,0.2c0.5,0.1,0.8,0.3,1,0.6c0.2,0.3,0.3,0.6,0.4,1c0,0.4,0,0.8,0,1.4v3c0,0.8,0,1.3-0.1,1.8
			c-0.1,0.4-0.3,0.7-0.5,1c-0.2,0.2-0.6,0.4-1,0.4c-0.4,0.1-1,0.1-1.7,0.1h-0.5c-2.8,0-5.2-0.3-7.2-1c-2-0.6-3.7-1.5-5.3-2.5
			c-1,1.1-2.2,1.9-3.7,2.5c-1.5,0.6-3.3,0.9-5.4,0.9h-8.6c-0.7,0-1.2,0-1.7-0.1c-0.4-0.1-0.8-0.2-1-0.4c-0.2-0.2-0.4-0.6-0.5-1
			c-0.1-0.4-0.1-1-0.1-1.8v-3c0-0.5,0-1,0.1-1.4c0-0.4,0.2-0.7,0.4-1c0.2-0.3,0.5-0.4,1-0.6c0.5-0.1,1.1-0.2,1.9-0.2h4.8
			c0.9,0,1.7-0.1,2.4-0.3c0.7-0.2,1.2-0.5,1.6-1c0.4-0.5,0.7-1.1,0.9-1.9c0.2-0.8,0.3-1.8,0.3-3v-19.3h11V860.1z M98.5,886.2
			c0-0.8,0.1-1.5,0.4-2.1c0.3-0.7,0.7-1.2,1.2-1.7c0.5-0.5,1.1-0.9,1.7-1.2c0.6-0.3,1.4-0.4,2.1-0.4c0.8,0,1.5,0.1,2.1,0.4
			c0.7,0.3,1.2,0.7,1.7,1.2c0.5,0.5,0.9,1.1,1.2,1.7c0.3,0.6,0.4,1.4,0.4,2.1c0,0.8-0.1,1.5-0.4,2.1c-0.3,0.6-0.7,1.2-1.2,1.7
			c-0.5,0.5-1.1,0.9-1.7,1.2c-0.6,0.3-1.4,0.4-2.1,0.4c-0.8,0-1.5-0.1-2.1-0.4c-0.7-0.3-1.2-0.7-1.7-1.2c-0.5-0.5-0.9-1.1-1.2-1.7
			C98.6,887.7,98.5,887,98.5,886.2"/>
		<path class="st2" d="M118.6,874c-0.7,0-1.2,0-1.6-0.1c-0.4-0.1-0.8-0.2-1-0.4c-0.2-0.2-0.4-0.6-0.5-1c-0.1-0.4-0.1-1-0.1-1.8v-3
			c0-0.5,0-1,0.1-1.4c0.1-0.4,0.2-0.7,0.4-1c0.2-0.3,0.5-0.4,1-0.6c0.4-0.1,1.1-0.2,1.9-0.2h9c0.5-1.2,1-2.4,1.6-3.7
			c0.6-1.3,1.3-2.6,2.1-4v-43.9h11v30c2.4-2.1,5.1-3.8,8.1-5.1c2.9-1.3,6.1-2,9.6-2c3.2,0,6.1,0.6,8.5,1.7c2.4,1.1,4.4,2.7,5.9,4.7
			c1.6,2,2.7,4.3,3.5,7c0.8,2.7,1.1,5.6,1.1,8.7V874H118.6z M168.1,859c0-2.6-0.3-4.8-0.8-6.6c-0.5-1.8-1.3-3.2-2.2-4.3
			c-0.9-1.1-2-1.8-3.2-2.3c-1.3-0.5-2.6-0.7-3.9-0.7c-1.9,0-3.8,0.5-5.8,1.6c-1.9,1.1-3.8,2.5-5.5,4.2c-1.7,1.8-3.3,3.8-4.8,6.2
			c-1.4,2.3-2.6,4.8-3.6,7.5h29.7V859z M153.9,823.3c0-0.8,0.1-1.5,0.4-2.1c0.3-0.6,0.7-1.2,1.2-1.7c0.5-0.5,1.1-0.9,1.7-1.2
			c0.7-0.3,1.4-0.4,2.1-0.4c0.7,0,1.5,0.1,2.1,0.4c0.7,0.3,1.2,0.7,1.7,1.2c0.5,0.5,0.9,1.1,1.2,1.7c0.3,0.6,0.4,1.4,0.4,2.1
			c0,0.8-0.1,1.5-0.4,2.1c-0.3,0.6-0.7,1.2-1.2,1.7c-0.5,0.5-1.1,0.9-1.7,1.2c-0.7,0.3-1.4,0.4-2.1,0.4c-0.8,0-1.5-0.1-2.1-0.4
			c-0.7-0.3-1.2-0.7-1.7-1.2c-0.5-0.5-0.9-1.1-1.2-1.7C154,824.8,153.9,824.1,153.9,823.3"/>
		<path class="st2" d="M209.4,874c-3.8,0-7-0.5-9.7-1.5c-2.6-1-4.7-2.4-6.4-4c-1.6-1.6-2.8-3.5-3.5-5.5c-0.7-2-1.1-4-1.1-5.9
			c0-2.6,0.5-5,1.4-7.3c0.9-2.3,2.3-4.4,4-6.2c1.7-1.8,3.8-3.2,6.3-4.2c2.5-1,5.2-1.6,8.3-1.6c1.2,0,2.5,0.1,3.9,0.3
			c1.4,0.2,2.7,0.6,4,1.2c1.3,0.6,2.5,1.4,3.7,2.4c1.2,1,2.2,2.2,3.1,3.8c0.9,1.5,1.6,3.3,2.1,5.4c0.5,2.1,0.8,4.5,0.8,7.3v6.6h7.7
			c0.8,0,1.4,0.1,1.9,0.2c0.5,0.1,0.8,0.3,1,0.6c0.2,0.3,0.3,0.6,0.4,1c0.1,0.4,0.1,0.8,0.1,1.4v3c0,0.8,0,1.3-0.1,1.8
			c-0.1,0.4-0.3,0.7-0.5,1c-0.2,0.2-0.6,0.4-1,0.4c-0.4,0.1-1,0.1-1.7,0.1h-8.4c-1,2.7-2.5,5.1-4.5,7.3c-2,2.1-4.3,4-7,5.5
			c-2.7,1.6-5.7,2.8-8.9,3.8c-3.3,1-6.7,1.6-10.3,2l-1-9.1c2.6-0.2,5-0.5,7.2-1.1c2.2-0.6,4.2-1.3,5.9-2.1c1.7-0.9,3.2-1.8,4.5-2.9
			c1.3-1.1,2.2-2.2,3-3.4H209.4z M215.4,864.7v-4.1c0-2.9-0.2-5.3-0.7-7.1c-0.5-1.8-1.1-3.3-1.8-4.3c-0.8-1-1.6-1.7-2.6-2.1
			c-1-0.4-1.9-0.5-2.9-0.5c-1.1,0-2.1,0.2-3.1,0.7c-1,0.5-1.9,1.1-2.6,1.9c-0.8,0.8-1.4,1.8-1.8,2.9c-0.5,1.1-0.7,2.4-0.7,3.8
			c0,2.7,0.8,4.9,2.5,6.4c1.6,1.6,4.3,2.4,7.8,2.4H215.4z"/>
		<path class="st2" d="M233.7,874c-0.7,0-1.2,0-1.7-0.1c-0.4-0.1-0.8-0.2-1-0.4c-0.2-0.2-0.4-0.6-0.5-1c-0.1-0.4-0.1-1-0.1-1.8v-3
			c0-0.5,0-1,0.1-1.4c0-0.4,0.2-0.7,0.4-1c0.2-0.3,0.5-0.4,1-0.6c0.4-0.1,1.1-0.2,1.9-0.2h10.9v-25.5h11V874H233.7z M246.6,886.2
			c0-0.8,0.1-1.5,0.4-2.1c0.3-0.7,0.7-1.2,1.2-1.7c0.5-0.5,1.1-0.9,1.7-1.2c0.7-0.3,1.4-0.4,2.1-0.4c0.8,0,1.5,0.1,2.1,0.4
			c0.7,0.3,1.2,0.7,1.7,1.2c0.5,0.5,0.9,1.1,1.2,1.7c0.3,0.6,0.4,1.4,0.4,2.1c0,0.8-0.1,1.5-0.4,2.1c-0.3,0.6-0.7,1.2-1.2,1.7
			c-0.5,0.5-1.1,0.9-1.7,1.2c-0.6,0.3-1.4,0.4-2.1,0.4c-0.8,0-1.5-0.1-2.1-0.4c-0.6-0.3-1.2-0.7-1.7-1.2c-0.5-0.5-0.9-1.1-1.2-1.7
			C246.8,887.7,246.6,887,246.6,886.2"/>
		<path class="st2" d="M279.1,795.8c-0.5-0.1-1-0.2-1.8-0.2c-0.7-0.1-1.3-0.1-1.8-0.1c-0.9,0-1.6,0.2-2.2,0.6c-0.6,0.4-0.8,1-0.8,2
			s0.4,1.8,1.3,2.5c0.8,0.7,2.1,1.1,3.9,1.1h2.5v5.1h-15.8v-5.1h4.2c-0.5-0.6-0.9-1.3-1.3-2.1c-0.4-0.8-0.6-1.7-0.6-2.6
			c0-0.9,0.2-1.7,0.5-2.5c0.3-0.8,0.8-1.5,1.5-2.2c0.7-0.6,1.6-1.2,2.7-1.5c1.1-0.4,2.4-0.6,3.9-0.6c0.6,0,1.3,0,2.1,0.1
			c0.7,0,1.6,0.1,2.6,0.3L279.1,795.8z M266.7,813.1h11v61h-11V813.1z"/>
		<path class="st2" d="M349.4,813.1h11v52.5c0,3.9-0.6,7.5-1.8,10.8c-1.2,3.3-3,6.1-5.3,8.5c-2.3,2.4-5.1,4.2-8.4,5.6
			c-3.3,1.3-7,2-11.2,2c-4.6,0-8.5-0.7-11.9-1.9c-3.4-1.3-6.1-3-8.4-5.2c-2.2-2.2-3.9-4.7-5-7.5c-1.1-2.8-1.6-5.8-1.6-8.9
			c0-1.4,0.1-2.9,0.4-4.5c0.3-1.6,0.7-3.1,1.2-4.7c0.5-1.6,1.1-3.1,1.8-4.6c0.7-1.5,1.4-2.8,2.3-4.1l8.9,4.9
			c-0.5,0.8-0.9,1.6-1.3,2.6c-0.4,1-0.7,2-1,3c-0.3,1.1-0.5,2.1-0.6,3.2c-0.2,1.1-0.2,2.1-0.2,3.2c0,2.1,0.4,4.1,1.1,6
			c0.7,1.9,1.8,3.5,3.2,4.9c1.4,1.4,3.1,2.5,5.2,3.3c2.1,0.8,4.4,1.2,7.1,1.2c2.4,0,4.5-0.4,6.3-1.2c1.8-0.8,3.3-2,4.5-3.5
			c1.2-1.5,2.1-3.4,2.8-5.6c0.6-2.2,0.9-4.7,0.9-7.4V813.1z"/>
		<path class="st2" d="M371.4,813.1h11v44.5c0,1.4,0.1,2.6,0.3,3.5c0.2,0.9,0.5,1.7,0.9,2.2c0.4,0.5,0.9,0.9,1.6,1.1
			c0.6,0.2,1.4,0.3,2.2,0.3h2.1c0.8,0,1.4,0,1.9,0.1c0.5,0.1,0.8,0.3,1,0.6c0.2,0.3,0.3,0.6,0.4,0.9c0,0.4,0.1,0.9,0.1,1.4v3
			c0,0.8,0,1.3-0.1,1.8c-0.1,0.4-0.3,0.7-0.5,1c-0.2,0.2-0.6,0.4-1,0.4c-0.4,0.1-1,0.1-1.6,0.1h-4.8c-2.4,0-4.4-0.3-6.1-1
			c-1.7-0.7-3.1-1.6-4.2-2.9c-1.1-1.2-1.9-2.7-2.4-4.4c-0.5-1.7-0.8-3.7-0.8-5.8V813.1z"/>
		<path class="st2" d="M419.2,874.5c-2,0-3.8-0.2-5.4-0.5c-1.6-0.3-3-0.8-4.3-1.3c-1.2-0.5-2.4-1.2-3.3-1.9
			c-0.9-0.7-1.8-1.4-2.6-2.1c-2.5,3.6-6.1,5.3-11,5.3h-3.3c-0.7,0-1.2,0-1.7-0.1c-0.4-0.1-0.8-0.2-1-0.4c-0.3-0.2-0.4-0.6-0.5-1
			c-0.1-0.4-0.1-1-0.1-1.8v-3c0-0.5,0-1,0.1-1.4c0.1-0.4,0.2-0.7,0.4-1c0.2-0.3,0.5-0.4,1-0.6c0.4-0.1,1.1-0.2,1.9-0.2h2
			c1.4,0,2.6-0.4,3.6-1.1c1-0.7,1.8-1.9,2.3-3.4c1.4-4.6,3-8.3,4.8-11.2c1.8-2.8,3.6-5,5.5-6.6c1.9-1.5,3.7-2.6,5.6-3.1
			c1.8-0.5,3.5-0.8,4.9-0.8c2.1,0,4,0.3,5.7,0.8c1.7,0.5,3.3,1.3,4.7,2.2c1.4,0.9,2.6,2,3.6,3.3c1,1.3,1.8,2.6,2.5,4
			c0.7,1.4,1.2,2.8,1.5,4.3c0.3,1.5,0.5,2.9,0.5,4.3c0,0.8,0,1.6-0.2,2.4c-0.1,0.8-0.3,1.6-0.5,2.4c1.5,0.8,3.2,1.4,5,1.8
			c1.8,0.4,3.8,0.6,5.8,0.6h0.3c0.8,0,1.4,0.1,1.9,0.2c0.4,0.1,0.8,0.3,1,0.6c0.2,0.3,0.3,0.6,0.4,1c0,0.4,0.1,0.8,0.1,1.4v3
			c0,0.8,0,1.3-0.1,1.8c-0.1,0.4-0.2,0.7-0.5,1c-0.2,0.2-0.6,0.4-1,0.4c-0.4,0.1-1,0.1-1.7,0.1h-0.4c-1.7,0-3.3-0.1-4.7-0.4
			c-1.4-0.3-2.7-0.6-3.9-1c-1.2-0.5-2.2-1-3.2-1.6c-0.9-0.6-1.8-1.3-2.6-2c-1.5,1.6-3.3,3-5.5,3.9
			C424.6,874,422.1,874.5,419.2,874.5 M426.3,857.4c0-1-0.2-2.1-0.5-3.2c-0.4-1.2-0.9-2.2-1.7-3.2c-0.7-1-1.6-1.8-2.7-2.5
			c-1.1-0.7-2.3-1-3.7-1c-1.4,0-2.6,0.4-3.7,1.2c-1.2,0.8-2.2,1.9-3.1,3.3c-0.9,1.4-1.7,2.9-2.3,4.7c-0.7,1.8-1.2,3.6-1.5,5.4
			c0.4,0.4,0.9,0.8,1.7,1.1c0.8,0.4,1.6,0.8,2.6,1.1c1,0.3,1.9,0.6,3,0.8c1,0.2,2,0.3,2.9,0.3c1.4,0,2.7-0.2,3.8-0.4
			c1.1-0.3,2.1-0.8,2.9-1.4c0.8-0.6,1.4-1.5,1.8-2.5C426.1,860.1,426.3,858.8,426.3,857.4"/>
		<path class="st2" d="M482,848.4c-0.5-0.1-1-0.3-1.7-0.5c-0.7-0.2-1.5-0.4-2.3-0.5c-0.8-0.2-1.6-0.3-2.5-0.4
			c-0.9-0.1-1.7-0.2-2.5-0.2c-0.9,0-1.8,0.1-2.8,0.4c-1,0.2-1.8,0.7-2.7,1.3c-0.8,0.6-1.5,1.4-2,2.5c-0.5,1-0.8,2.4-0.8,3.9
			c0,1.4,0.2,2.8,0.7,3.9c0.5,1.2,1.1,2.3,2,3.1c0.9,0.9,1.9,1.6,3.1,2.1c1.2,0.5,2.5,0.7,4,0.7h12v9.3h-39.8c-0.7,0-1.2,0-1.6-0.1
			c-0.4-0.1-0.8-0.2-1-0.5c-0.3-0.2-0.4-0.5-0.5-1c-0.1-0.4-0.1-1-0.1-1.7v-3c0-0.5,0-1,0.1-1.4c0-0.4,0.2-0.7,0.4-1
			c0.2-0.3,0.5-0.4,1-0.5c0.4-0.1,1.1-0.2,1.9-0.2h9.4c-0.3-0.7-0.5-1.4-0.7-2.2c-0.2-0.8-0.4-1.6-0.6-2.4c-0.2-0.8-0.3-1.6-0.4-2.3
			c-0.1-0.7-0.1-1.4-0.1-2c0-2.5,0.4-4.9,1.4-7.2c0.9-2.3,2.2-4.3,3.9-5.9c1.7-1.7,3.6-3,5.9-4c2.3-1,4.9-1.5,7.6-1.5
			c0.6,0,1.4,0,2.3,0.1c0.9,0.1,1.8,0.2,2.8,0.3c1,0.1,1.9,0.3,2.8,0.5c0.9,0.2,1.6,0.4,2.2,0.6L482,848.4z"/>
		<path class="st2" d="M507.9,795.8c-0.5-0.1-1-0.2-1.8-0.2c-0.7-0.1-1.3-0.1-1.8-0.1c-0.9,0-1.6,0.2-2.2,0.6c-0.6,0.4-0.9,1-0.9,2
			s0.4,1.8,1.2,2.5c0.8,0.7,2.1,1.1,3.9,1.1h2.5v5.1h-15.8v-5.1h4.1c-0.4-0.6-0.9-1.3-1.2-2.1c-0.4-0.8-0.6-1.7-0.6-2.6
			c0-0.9,0.2-1.7,0.5-2.5c0.3-0.8,0.8-1.5,1.5-2.2c0.7-0.6,1.6-1.2,2.7-1.5c1.1-0.4,2.4-0.6,3.9-0.6c0.6,0,1.3,0,2.1,0.1
			c0.8,0,1.6,0.1,2.6,0.3L507.9,795.8z M495.5,813.1h11v61h-11V813.1z"/>
		<path class="st2" d="M597.9,864.7v-25.5h11V874H560c-3.4,0-6.3-0.2-8.8-0.6c-2.5-0.4-4.7-1-6.5-1.7c-1.8-0.7-3.3-1.6-4.4-2.6
			c-1.2-1-2.1-2.1-2.7-3.3c-0.7-1.2-1.1-2.5-1.4-3.9c-0.3-1.4-0.4-2.8-0.4-4.3c0-0.6,0-1.2,0.1-2c0-0.8,0.1-1.6,0.2-2.4
			c0.1-0.8,0.2-1.7,0.3-2.5c0.1-0.8,0.2-1.6,0.4-2.4l9.8,0.8c-0.2,1.1-0.4,2.1-0.5,3.2c-0.2,1.1-0.2,2.1-0.2,3.2
			c0,1.7,0.2,3.1,0.7,4.2c0.4,1.2,1.3,2.1,2.5,2.8c1.2,0.7,3,1.3,5.2,1.6c2.2,0.3,5.1,0.5,8.7,0.5H597.9z M562.7,823.3
			c0-0.8,0.1-1.5,0.4-2.1c0.3-0.6,0.7-1.2,1.2-1.7c0.5-0.5,1.1-0.9,1.7-1.2c0.7-0.3,1.4-0.4,2.1-0.4c0.8,0,1.5,0.1,2.1,0.4
			c0.6,0.3,1.2,0.7,1.7,1.2c0.5,0.5,0.9,1.1,1.2,1.7c0.3,0.6,0.4,1.4,0.4,2.1c0,0.8-0.2,1.5-0.4,2.1c-0.3,0.6-0.7,1.2-1.2,1.7
			c-0.5,0.5-1.1,0.9-1.7,1.2c-0.6,0.3-1.4,0.4-2.1,0.4c-0.8,0-1.5-0.2-2.1-0.4c-0.6-0.3-1.2-0.7-1.7-1.2c-0.5-0.5-0.9-1.1-1.2-1.7
			C562.8,824.8,562.7,824.1,562.7,823.3 M575.4,823.3c0-0.8,0.1-1.5,0.4-2.1c0.3-0.6,0.7-1.2,1.2-1.7c0.5-0.5,1.1-0.9,1.7-1.2
			c0.6-0.3,1.3-0.4,2.1-0.4c0.8,0,1.5,0.1,2.1,0.4c0.7,0.3,1.2,0.7,1.7,1.2c0.5,0.5,0.9,1.1,1.2,1.7c0.3,0.6,0.4,1.4,0.4,2.1
			c0,0.8-0.1,1.5-0.4,2.1c-0.3,0.6-0.7,1.2-1.2,1.7c-0.5,0.5-1.1,0.9-1.7,1.2c-0.6,0.3-1.4,0.4-2.1,0.4c-0.8,0-1.5-0.2-2.1-0.4
			c-0.6-0.3-1.2-0.7-1.7-1.2c-0.5-0.5-0.9-1.1-1.2-1.7C575.6,824.8,575.4,824.1,575.4,823.3"/>
	</g>
	<rect x="619.9" y="813.1" class="st2" width="11" height="61"/>
	<g>
		<path class="st2" d="M638.2,874v-9.3h16.3c1.7,0,3.1-0.2,4.1-0.4c1.1-0.2,1.9-0.6,2.4-1.1c0.6-0.5,0.9-1,1.1-1.7
			c0.2-0.7,0.3-1.4,0.3-2.1c0-1.3-0.4-2.8-1.2-4.4c-0.8-1.6-1.9-3.2-3.2-4.8c-1.4-1.6-2.9-3.2-4.5-4.8c-1.7-1.6-3.4-3.1-5.1-4.5
			l8-7.8c5.5,4.6,9.7,9,12.6,13.3c2.9,4.3,4.3,8.4,4.3,12.3c0,1.4-0.1,2.7-0.5,4.1c1.5,0.7,3,1.2,4.7,1.5c1.7,0.3,3.4,0.5,5.3,0.5
			h0.3c0.8,0,1.4,0.1,1.9,0.2c0.5,0.1,0.8,0.3,1,0.5c0.2,0.3,0.3,0.6,0.4,1c0,0.4,0.1,0.8,0.1,1.4v3c0,0.7,0,1.3-0.1,1.7
			c-0.1,0.4-0.3,0.8-0.5,1c-0.3,0.2-0.6,0.4-1,0.4c-0.4,0.1-1,0.1-1.7,0.1h-0.5c-3.2,0-5.9-0.4-8.1-1.2c-2.2-0.8-4.1-1.9-5.6-3.2
			c-1.5,1.4-3.5,2.5-5.9,3.3c-2.4,0.8-5.3,1.2-8.8,1.2H638.2z"/>
		<path class="st2" d="M697.6,864.7c0.8,0,1.4,0.1,1.9,0.2c0.5,0.1,0.8,0.3,1,0.6c0.2,0.3,0.3,0.6,0.4,1c0.1,0.4,0.1,0.8,0.1,1.4v3
			c0,0.8,0,1.3-0.1,1.8c-0.1,0.4-0.2,0.7-0.5,1c-0.2,0.2-0.6,0.4-1,0.4c-0.4,0.1-1,0.1-1.6,0.1h-16.1c-0.7,0-1.2,0-1.6-0.1
			c-0.4-0.1-0.8-0.2-1-0.4c-0.3-0.2-0.4-0.6-0.5-1c-0.1-0.4-0.1-1-0.1-1.8v-3c0-0.5,0-1,0.1-1.4c0-0.4,0.2-0.7,0.4-1
			c0.2-0.3,0.6-0.4,1-0.6c0.4-0.1,1.1-0.2,1.9-0.2H697.6z"/>
		<path class="st2" d="M718.3,860.1c0,0.5,0,1,0,1.5c0,0.5-0.1,1-0.2,1.5c1.4,0.6,2.9,1,4.5,1.3c1.6,0.3,3.3,0.4,5,0.4h0.3
			c0.8,0,1.4,0.1,1.9,0.2c0.5,0.1,0.8,0.3,1,0.6c0.2,0.3,0.3,0.6,0.4,1c0,0.4,0.1,0.8,0.1,1.4v3c0,0.8,0,1.3-0.1,1.8
			c-0.1,0.4-0.3,0.7-0.5,1c-0.3,0.2-0.6,0.4-1,0.4c-0.4,0.1-1,0.1-1.7,0.1h-0.5c-2.8,0-5.2-0.3-7.2-1c-2-0.6-3.8-1.5-5.3-2.5
			c-1,1.1-2.2,1.9-3.7,2.5c-1.5,0.6-3.3,0.9-5.4,0.9h-8.6c-0.7,0-1.2,0-1.6-0.1c-0.4-0.1-0.8-0.2-1-0.4c-0.3-0.2-0.4-0.6-0.5-1
			c-0.1-0.4-0.1-1-0.1-1.8v-3c0-0.5,0-1,0.1-1.4c0-0.4,0.2-0.7,0.4-1c0.2-0.3,0.6-0.4,1-0.6c0.5-0.1,1.1-0.2,1.9-0.2h4.8
			c0.9,0,1.7-0.1,2.4-0.3c0.7-0.2,1.2-0.5,1.6-1c0.4-0.5,0.7-1.1,0.9-1.9c0.2-0.8,0.3-1.8,0.3-3v-19.3h11V860.1z M700.3,886.2
			c0-0.8,0.1-1.5,0.4-2.1c0.3-0.7,0.7-1.2,1.1-1.7c0.5-0.5,1.1-0.9,1.7-1.2c0.6-0.3,1.4-0.4,2.1-0.4c0.8,0,1.5,0.1,2.1,0.4
			c0.7,0.3,1.2,0.7,1.7,1.2c0.5,0.5,0.9,1.1,1.2,1.7c0.3,0.6,0.4,1.4,0.4,2.1c0,0.8-0.1,1.5-0.4,2.1c-0.3,0.6-0.6,1.2-1.2,1.7
			c-0.5,0.5-1.1,0.9-1.7,1.2c-0.6,0.3-1.3,0.4-2.1,0.4c-0.8,0-1.5-0.1-2.1-0.4c-0.7-0.3-1.2-0.7-1.7-1.2c-0.5-0.5-0.9-1.1-1.1-1.7
			C700.4,887.7,700.3,887,700.3,886.2 M713,886.2c0-0.8,0.1-1.5,0.4-2.1c0.3-0.7,0.7-1.2,1.2-1.7c0.5-0.5,1.1-0.9,1.7-1.2
			c0.6-0.3,1.4-0.4,2.1-0.4s1.5,0.1,2.1,0.4c0.7,0.3,1.2,0.7,1.7,1.2c0.5,0.5,0.9,1.1,1.2,1.7c0.3,0.6,0.4,1.4,0.4,2.1
			c0,0.8-0.1,1.5-0.4,2.1c-0.3,0.6-0.7,1.2-1.2,1.7c-0.5,0.5-1.1,0.9-1.7,1.2c-0.6,0.3-1.4,0.4-2.1,0.4s-1.5-0.1-2.1-0.4
			c-0.7-0.3-1.2-0.7-1.7-1.2c-0.5-0.5-0.9-1.1-1.2-1.7C713.1,887.7,713,887,713,886.2"/>
		<path class="st2" d="M742.4,864.7c0.8,0,1.4,0.1,1.9,0.2c0.5,0.1,0.8,0.3,1,0.6c0.2,0.3,0.3,0.6,0.4,1c0,0.4,0.1,0.8,0.1,1.4v3
			c0,0.8,0,1.3-0.1,1.8c-0.1,0.4-0.3,0.7-0.5,1c-0.3,0.2-0.6,0.4-1,0.4c-0.4,0.1-1,0.1-1.6,0.1h-16.1c-0.7,0-1.2,0-1.7-0.1
			c-0.4-0.1-0.8-0.2-1-0.4c-0.3-0.2-0.4-0.6-0.5-1c-0.1-0.4-0.1-1-0.1-1.8v-3c0-0.5,0-1,0-1.4c0-0.4,0.2-0.7,0.4-1
			c0.2-0.3,0.6-0.4,1-0.6c0.4-0.1,1.1-0.2,1.9-0.2H742.4z"/>
		<path class="st2" d="M776.1,864.7c0.9,0,1.7-0.1,2.4-0.3c0.7-0.2,1.2-0.5,1.6-1c0.4-0.5,0.7-1.1,0.9-1.9c0.2-0.8,0.3-1.8,0.3-3
			v-14.7h11v16.2c0,0.4,0,0.7,0,1.1c0,0.3,0,0.7-0.1,1c1.5,0.8,3.1,1.4,4.9,1.9c1.8,0.4,3.8,0.7,6.1,0.7h3.2v-25.5h11.1V874H804
			c-3.1,0-5.8-0.4-8.2-1.2c-2.4-0.8-4.4-1.8-6.1-3.1c-0.9,1.3-2.2,2.4-3.8,3.1c-1.6,0.8-3.5,1.2-6,1.2H778c-2.8,0-5.4-0.4-7.7-1.2
			c-2.3-0.8-4.2-1.9-5.9-3.2c-1,1.3-2.3,2.4-3.9,3.2c-1.6,0.8-3.6,1.2-6,1.2H742c-0.7,0-1.2,0-1.6-0.1c-0.4-0.1-0.8-0.2-1-0.4
			c-0.2-0.2-0.4-0.6-0.5-1c-0.1-0.4-0.1-1-0.1-1.8v-3c0-0.5,0-1,0.1-1.4c0-0.4,0.2-0.7,0.4-1c0.2-0.3,0.5-0.4,1-0.6
			c0.4-0.1,1.1-0.2,1.9-0.2h8.8c1,0,1.7-0.1,2.4-0.3c0.6-0.2,1.2-0.5,1.6-1c0.4-0.5,0.7-1.1,0.9-1.9c0.2-0.8,0.3-1.8,0.3-3v-10.9h11
			v12.4v1c0,0.3,0,0.7-0.1,1c1.5,0.9,3.1,1.6,4.6,2C773.2,864.5,774.7,864.7,776.1,864.7"/>
		<path class="st2" d="M933.1,864.7c0.9,0,1.7-0.1,2.4-0.3c0.7-0.2,1.2-0.5,1.6-1c0.4-0.5,0.7-1.1,0.9-1.9c0.2-0.8,0.3-1.8,0.3-3
			v-19.3h11v20.8c0,0.5,0,1,0,1.5c0,0.5-0.1,1-0.2,1.5c1.4,0.6,2.9,1,4.5,1.3c1.6,0.3,3.3,0.4,5,0.4h0.3c0.8,0,1.4,0.1,1.9,0.2
			c0.4,0.1,0.8,0.3,1,0.6c0.2,0.3,0.3,0.6,0.4,1c0,0.4,0,0.8,0,1.4v3c0,0.8,0,1.3-0.1,1.8c-0.1,0.4-0.3,0.7-0.5,1
			c-0.3,0.2-0.6,0.4-1,0.4c-0.4,0.1-1,0.1-1.7,0.1h-0.5c-2.8,0-5.2-0.3-7.2-1c-2-0.6-3.8-1.5-5.3-2.5c-1,1.1-2.2,1.9-3.7,2.6
			c-1.5,0.6-3.3,0.9-5.4,0.9H935c-2.8,0-5.3-0.4-7.6-1.2c-2.2-0.8-4.2-1.8-5.8-3.1c-1,1.3-2.3,2.4-3.8,3.1c-1.6,0.8-3.6,1.2-6,1.2
			h-1.9c-2,0-3.8-0.2-5.5-0.6c-1.7-0.4-3.3-1-4.7-1.7c-0.6,3.1-1.6,5.9-3,8.5c-1.4,2.6-3.3,4.7-5.5,6.6c-2.2,1.8-4.8,3.2-7.8,4.2
			c-3,1-6.3,1.5-9.9,1.5c-4.6,0-8.6-0.6-11.9-1.9c-3.4-1.3-6.1-3-8.3-5.2c-2.2-2.2-3.8-4.7-4.9-7.5c-1.1-2.8-1.6-5.8-1.6-8.9
			c0-1.4,0.1-3,0.4-4.5c0.3-1.6,0.7-3.1,1.2-4.7c0.5-1.6,1.1-3.1,1.8-4.6c0.7-1.5,1.4-2.8,2.2-4.1l8.8,4.9c-0.5,0.8-0.9,1.6-1.3,2.6
			c-0.4,1-0.7,1.9-1,3c-0.3,1-0.5,2.1-0.6,3.2c-0.1,1.1-0.2,2.2-0.2,3.2c0,2.1,0.4,4.1,1.1,5.9c0.7,1.8,1.8,3.4,3.1,4.8
			c1.3,1.4,2.9,2.4,4.8,3.2c1.9,0.8,3.9,1.1,6.2,1.1c5.4,0,9.3-1.5,11.9-4.6c2.6-3,3.8-7.3,3.8-12.9c0-0.8-0.1-1.8-0.3-3
			c-0.2-1.2-0.4-2.4-0.7-3.8c-0.3-1.4-0.7-2.7-1.1-4.1c-0.4-1.4-0.9-2.8-1.5-4.1l10.7-3c0.3,1,0.7,2.1,1.1,3.3
			c0.4,1.2,0.7,2.5,1,3.8c0.3,1.3,0.6,2.6,0.9,4c0.3,1.3,0.5,2.6,0.6,3.9c2.8,1.4,5.4,2.1,7.9,2.1c0.9,0,1.7-0.1,2.4-0.3
			c0.7-0.2,1.2-0.5,1.6-1c0.4-0.5,0.7-1.1,0.9-1.9c0.2-0.8,0.3-1.8,0.3-3v-14.7h11v16.2c0,0.4,0,0.7,0,1c0,0.4,0,0.7-0.1,1.1
			c1.5,0.8,3.1,1.5,4.6,1.9C930.2,864.5,931.6,864.7,933.1,864.7"/>
		<path class="st2" d="M979.7,860.1c0,0.5,0,1-0.1,1.5c0,0.5-0.1,1-0.2,1.5c1.4,0.6,2.9,1,4.5,1.3c1.6,0.3,3.3,0.4,5,0.4h0.3
			c0.8,0,1.4,0.1,1.9,0.2c0.5,0.1,0.8,0.3,1,0.6c0.2,0.3,0.3,0.6,0.4,1c0,0.4,0.1,0.8,0.1,1.4v3c0,0.8,0,1.3-0.1,1.8
			c-0.1,0.4-0.3,0.7-0.5,1c-0.3,0.2-0.6,0.4-1,0.4c-0.4,0.1-1,0.1-1.7,0.1h-0.5c-2.8,0-5.2-0.3-7.2-1c-2-0.6-3.7-1.5-5.3-2.5
			c-1,1.1-2.2,1.9-3.7,2.5c-1.5,0.6-3.3,0.9-5.4,0.9h-8.6c-0.7,0-1.2,0-1.6-0.1c-0.4-0.1-0.8-0.2-1-0.4c-0.3-0.2-0.4-0.6-0.5-1
			c-0.1-0.4-0.1-1-0.1-1.8v-3c0-0.5,0-1,0.1-1.4c0-0.4,0.2-0.7,0.4-1c0.2-0.3,0.5-0.4,1-0.6c0.4-0.1,1.1-0.2,1.9-0.2h4.8
			c1,0,1.7-0.1,2.4-0.3c0.7-0.2,1.2-0.5,1.6-1c0.4-0.5,0.7-1.1,0.9-1.9c0.2-0.8,0.3-1.8,0.3-3v-45.6h11V860.1z"/>
		<path class="st2" d="M995.4,839.1c2-0.6,4-1.1,6-1.6c2-0.4,4.2-0.7,6.7-0.7c2.5,0,4.6,0.3,6.5,1.1c1.9,0.7,3.5,1.7,4.9,3
			c1.4,1.3,2.5,2.8,3.3,4.6c0.8,1.8,1.4,3.8,1.7,5.9c0.3,1.7,0.5,3.4,0.8,5c0.3,1.6,0.6,3,0.9,4.2c0.3,1.2,0.8,2.2,1.2,3
			c0.5,0.7,1.1,1.1,1.7,1.1h4c0.8,0,1.4,0,1.9,0.2c0.4,0.1,0.8,0.3,1,0.5c0.2,0.3,0.3,0.6,0.4,1c0.1,0.4,0.1,0.9,0.1,1.4v3
			c0,0.7,0,1.3-0.1,1.7c-0.1,0.4-0.3,0.8-0.5,1c-0.3,0.2-0.6,0.4-1,0.4c-0.4,0.1-1,0.1-1.7,0.1H989c-0.7,0-1.2,0-1.7-0.1
			c-0.4-0.1-0.8-0.2-1-0.4c-0.3-0.2-0.4-0.5-0.5-1c-0.1-0.4-0.1-1-0.1-1.7v-3c0-0.5,0-1,0-1.4c0-0.4,0.2-0.7,0.4-1
			c0.2-0.3,0.5-0.4,1-0.5c0.5-0.1,1.1-0.2,1.9-0.2h27.9c-0.4-0.8-0.7-1.7-1.1-2.7c-0.3-1-0.6-2.1-0.8-3.1c-0.2-1.6-0.5-3.2-0.8-4.7
			c-0.3-1.6-0.8-3-1.5-4.3c-0.6-1.3-1.5-2.3-2.6-3.1c-1.1-0.8-2.5-1.2-4.2-1.2c-0.6,0-1.3,0-2.2,0.1c-0.8,0.1-1.8,0.2-2.7,0.4
			c-0.9,0.2-1.9,0.4-2.9,0.7c-1,0.3-1.9,0.6-2.8,1V839.1z M1003.5,886.2c0-0.8,0.2-1.5,0.4-2.1c0.3-0.6,0.6-1.2,1.2-1.7
			c0.5-0.5,1.1-0.9,1.7-1.2c0.6-0.3,1.4-0.4,2.1-0.4c0.8,0,1.5,0.2,2.1,0.4c0.6,0.3,1.2,0.7,1.7,1.2c0.5,0.5,0.9,1.1,1.2,1.7
			c0.3,0.6,0.4,1.4,0.4,2.1c0,0.8-0.1,1.5-0.4,2.1c-0.3,0.6-0.7,1.2-1.2,1.7c-0.5,0.5-1.1,0.9-1.7,1.2c-0.6,0.3-1.4,0.4-2.1,0.4
			c-0.7,0-1.5-0.2-2.1-0.4c-0.7-0.3-1.2-0.7-1.7-1.2c-0.5-0.5-0.9-1.1-1.2-1.7C1003.7,887.7,1003.5,887,1003.5,886.2"/>
		<path class="st2" d="M1062.6,874.5c-2,0-3.8-0.2-5.4-0.5c-1.6-0.3-3-0.8-4.2-1.3c-1.3-0.5-2.4-1.2-3.3-1.9
			c-0.9-0.7-1.8-1.4-2.6-2.1c-2.5,3.6-6.1,5.3-10.9,5.3h-3.4c-0.7,0-1.2,0-1.7-0.1c-0.4-0.1-0.8-0.2-1-0.4c-0.3-0.2-0.4-0.6-0.5-1
			c-0.1-0.4-0.1-1-0.1-1.8v-3c0-0.5,0-1,0.1-1.4c0-0.4,0.2-0.7,0.4-1c0.2-0.3,0.5-0.4,1-0.6c0.5-0.1,1.1-0.2,1.9-0.2h2
			c1.4,0,2.6-0.4,3.7-1.1c1-0.7,1.8-1.9,2.3-3.4c1.4-4.6,3-8.3,4.8-11.2c1.8-2.8,3.6-5,5.5-6.6c1.9-1.5,3.7-2.6,5.6-3.1
			c1.8-0.5,3.5-0.8,4.9-0.8c2.1,0,4,0.3,5.7,0.8c1.7,0.5,3.3,1.3,4.6,2.2c1.4,0.9,2.6,2,3.6,3.3c1,1.3,1.8,2.6,2.5,4
			c0.7,1.4,1.2,2.8,1.5,4.3c0.3,1.5,0.5,2.9,0.5,4.3c0,2.2-0.4,4.3-1.2,6.4c-0.8,2-1.9,3.8-3.3,5.4c-1.5,1.6-3.3,2.8-5.5,3.8
			C1067.9,874,1065.4,874.5,1062.6,874.5 M1069.7,857.4c0-1-0.2-2.1-0.6-3.2c-0.3-1.2-0.9-2.2-1.6-3.2c-0.7-1-1.6-1.8-2.8-2.5
			c-1.1-0.7-2.3-1-3.7-1c-1.4,0-2.6,0.4-3.8,1.2c-1.1,0.8-2.2,1.9-3,3.3c-0.9,1.4-1.7,2.9-2.3,4.7c-0.7,1.8-1.2,3.6-1.5,5.4
			c0.3,0.4,0.9,0.8,1.7,1.1c0.7,0.4,1.6,0.8,2.6,1.1c1,0.3,1.9,0.6,3,0.8c1.1,0.2,2,0.3,3,0.3c1.4,0,2.6-0.2,3.8-0.4
			c1.1-0.3,2.1-0.8,2.9-1.4c0.8-0.6,1.4-1.5,1.9-2.5C1069.5,860.1,1069.7,858.8,1069.7,857.4"/>
		<path class="st3" d="M491.8,241.5c-5.1-2.9-10.1-3.6-15.2-1.7c-1.3,0.5-2.3,1.3-3.4,2.1c-0.2,1,0.1,3.3,1.1,7.3
			c0.6,3,0.4,5.3-0.7,6.9c-2-0.4-4.1-2.4-6.5-6c-1.1-1.9-2.3-3.1-3.6-3.8l0,0c-3.5-1.9-7.9,0.1-7.9,0.1c-0.4,0.1-0.6,0.3-0.9,0.4
			c9.1,12.7,17.7,17.4,26.1,14.1c3.1-1.2,4.5-4,3.9-8.3c-0.8-5.9-0.8-9.5-0.4-10.4c3.1,1.6,6.2,4.2,9,7.7c1.4,1.6,3.5,4.9,6.4,9.3
			c0,0,1.4,2.8,3,2.6c1.5-0.6,1.4-3.2-0.4-7.8C500.4,248.6,496.8,244.5,491.8,241.5"/>
		<path class="st3" d="M523.1,289.7c5.4-6.1,18.2,7.4,23.4,13.1c9.9,10.9,24.3,35.7,24.3,35.7s-17.1-6.7-29.2-15.7
			C527.6,312.6,517.7,295.8,523.1,289.7 M610.2,384.9c-7-6.4-17.3-10.2-26.8-8.2c-4.6,1-9.2,3-10.7,8c-1.3,4.3-2.6,8.9-4.1,13.4
			c-0.6,1.2-1.4,2.3-2.5,2.8c-1.8,0.5-3.5-0.5-4.8-1.7c-0.2-0.2-0.4-0.3-0.5-0.5c-0.9-0.9-1.5-1.7-1.8-2.1c-3-4.4-5-9.1-5.1-12.9
			c-0.1-11,11.7-14,15.2-15.1c3.5-1.1,16.9-2.5,22.7-14.8c6.6-14.2-13.8-47.5-53.2-67.2c-33.6-16.8-38.8-3.3-37.5,6.1
			c1.8,13.2,19.7,27.6,29.1,34.2c-4.6-0.4-9.4-0.6-14.5-0.4c-19.3,0.8-39.2,10.1-40.3,10.5c-1.1,0.5-2.5,1.2-2.3,1.6
			c0.1,0.6,1.8,1,3.1,1.4c1.3,0.4,16.9,3.8,38.8,6.1c16.7,1.7,36.8,4.1,43.7,5c1.5,0.2,1.9,0.3,2.2,0c0.2-0.3-0.5-0.7-1.8-1.4
			c-1.9-1.1-4.3-2-8-2.7c-6.1-1.2-56-6.8-56.9-6.9c-0.8-0.1-1.9-0.2-1.6-0.7c0.3-0.4,1-0.6,1.7-0.9c0.7-0.3,4.8-1.4,10.8-2.8
			c6-1.4,27.2-3.1,47.2,4.2c5.2,1.9,11.6,4.2,18.2,8.9c-0.7,2.9-3,7.9-10.2,10.6c-10.4,3.9-22.7,3.7-26.4,12.6
			c-1.8,4.4-1.7,9.4-0.1,13.9c2.7,9.3,10.9,27.5,34.2,31.4c5,0.7,8.8-1.7,11.4-7.1c0.6-1.9,1.2-3.7,1.9-5.6c0.2-0.5,0.3-1,0.5-1.5
			c1.1-2.9,4.2-9.2,10.6-10.8c8-1.9,14.4,5.7,15.9,12.7c1.9,9.2-0.3,18.8-2.6,27.7c-0.7,2.8-1.5,5.5-2.5,8.2
			c-12.3,32.6-50.4,95.1-50.4,95.1c9.2-5.4,32-39.3,32-39.3c23.8-35.4,32.3-57.9,35.4-72.2c0-0.1,0-0.2,0.1-0.3
			c0.1-0.5,0.2-1.1,0.3-1.6c0.1-0.8,0.3-1.6,0.4-2.4c0-0.2,0.1-0.4,0.1-0.6c0-0.4,0.1-0.8,0.1-1.2c0.3-2.3,0.4-4.7,0.4-7.1
			C621.2,401.6,617.8,391.7,610.2,384.9"/>
		<path class="st3" d="M596.9,295.4c-2,7.5-20.4-0.3-18.9-6.4c1.3-4.9,6.4-7.7,17.5-8C597.2,287.2,597.6,292.7,596.9,295.4
			 M669.2,327.3c-1.8-10.6-6.6-20.5-13.4-28.8c-4.4-5.3-9.5-10.3-15.4-14.1c-9.2-5.8-18.8-10.2-29.2-12.3
			c-3.8-8.1-11-17.2-24.3-25.6c-29.5-18.8-55.9-7.6-62.3-5c-1.5,0.6-2.7,0.9-2.8,2.1c0,1.2,2.6,2.4,4.2,3.4
			c1.6,1,20.6,11.4,28.7,15.8c3.7,2,6.4,2.8,8.3,3.2c2.3,0.4,2.4,0.3,2.5,0c0-0.3-0.9-1.1-2.2-2c-1.7-1.1-3.4-2.3-6.5-4.5
			c-3.5-2.4-5.5-3.6-6.7-4.4c-1.2-0.9-2.2-1.5-2.1-2.1c0.2-0.5,1.8-1,2.8-1.3c1-0.3,14.4-3.5,21.7-0.5c9.1,3.9,15.4,11.7,19.4,19.9
			c-2.3,0.2-4.6,0.5-6.9,0.9c-12.6,2.3-15.9,10.2-17.2,13.4c-4.4,10.7,13.2,18.8,17.8,21c5.9,2.8,13.8,5.8,20.3,3.4
			c4.4-1.6,7.1-4.7,8.1-9.3c1-4.9,1-10.2,0.9-15.1c5.1,1.3,9.9,4.6,13.9,8c15.4,12.9,22.4,35.8,21.9,54.9
			c-0.4,19.7-3.2,33.9-7.9,52.9c-4.5,18.2-13.6,38.7-21.7,55.5c-4.7,9.6-9.8,19.1-15.2,28.2c-12.3,20.7-25.8,40.7-39.8,60.2
			c-4,5.6-8.1,11.2-12.3,16.7c-4.3,5.7-8.8,11.3-13.4,16.8c-3.8,4.6-2.7,5.7,1.5,1.6c2.8-2.7,5.6-5.5,8.4-8.3
			c1.4-1.5,2.9-2.9,4.3-4.4c8.3-8.8,16.3-18,23.9-27.4c15.2-18.8,29.1-38.6,41.7-59.2c14-22.9,26.2-46.9,35.4-72.1
			c8-21.9,15.1-45.5,14.8-69C670.3,335.6,670,331.5,669.2,327.3"/>
		<path class="st3" d="M535.9,540.2c-0.6,0.1-1,0.6-0.9,1.2c0.4,3.1,1.5,12,1.9,15.1c0.1,0.5,0.6,0.9,1.1,0.8
			c3.2-0.4,11.9-1.5,15-1.9c0.6-0.1,1-0.6,0.9-1.2l0,0c-0.4-3.1-1.5-11.7-1.9-14.9c-0.1-0.6-0.6-1-1.2-1
			C547.6,538.7,539,539.8,535.9,540.2"/>
		<path class="st3" d="M536.8,559.4L536.8,559.4c-0.1-0.6-0.6-1-1.2-1c-3.2,0.4-11.8,1.5-14.9,1.9l0,0c-0.6,0.1-1,0.5-0.9,1.1
			c0.4,3.1,1.5,12,1.9,15.1c0.1,0.5,0.6,0.9,1.2,0.9c3.1-0.4,11.9-1.5,15-1.9c0.6-0.1,1-0.6,0.9-1.2l0,0
			C538.2,571.1,537.2,562.5,536.8,559.4"/>
		<path class="st3" d="M556.2,449.8c-0.5-2.1-1-4.2-1.8-6.2c-6.5-18.5-19.2-35.8-34.7-47.7c-12.2-9.4-24.8-17.1-35-28.9
			c-9.6-11.1-17.5-23.9-23.1-37.6c-3.1-7.6-5.6-15.6-7.3-23.6c-2.5-12-2.8-24.3-4.4-36.4c-0.3-2.7-0.7-5-1.3-7.1
			c-2.4-7.7-8.4-16.2-17-17.1c-17.3-1.8-28.6,20-32.6,33.8c-1.3,4.5-2.3,9.2-3,13.9c-1.3,9.7-2.2,19.6-2.1,29.4
			c0,0.3,0,16.9,3.5,26.2c0.4,0.8,0.8,1.7,1.2,2.6c1.4,3.6,2.2,8.4-0.1,13.2c-5.5,11.7-16.4,34.6-22.6,44.4
			c-0.2,0.3-0.4,0.6-0.6,0.9c-0.8,1.3-1.8,4.1,0.1,7.4c0.3,0.4,0.7,0.9,1.2,1.3c0,0,0.2,0.2,0.6,0.4c0.5,0.3,1.1,0.7,1.8,1
			c1.9,0.9,5,2,9.8,3c0.2,0,0.4,0.1,0.7,0.1c0.5,0.1,1.1,0.3,1.5,0.8c0,0,0,0.1,0.1,0.1c5.1,4.6-1,12.1-0.7,17.4
			c0.1,2,1.7,5.3,9.4,9.8c-1.3,2.3-5.3,10.7,0.9,14.3c0,0,0.1,0.1,0.2,0.1c0.1,0,0.1,0.1,0.1,0.1c10.3,5.4,8.3,15.1,6.4,24.7
			c-0.4,2.4-0.6,5.1-0.6,7.7c0,0,0,6.7,2.8,9.6c0.1,0.1,0.1,0.2,0.2,0.2c2,2.4,6,5.6,14.1,6.8c0.3,0,0.6,0.1,0.9,0.1
			c0.1,0,0.2,0,0.3,0c7.3,0.9,17.5,0,31.6-5.2l0.1,0c0,0,0,0,0.1,0c21.6-11.6,45.5,3.1,61,18c1.3,1.2,13.5,13.4,12.9,14.3
			C548.9,517.6,562.9,480,556.2,449.8"/>
		<path class="st3" d="M681.8,238.5c-1.6-2.4-3.2-4.7-5-7c-22.7-29.6-53.4-50.5-90.9-55.3c-40.5-5.2-81.4,4.3-119.1,19.4
			c-11.5,4.8-22.9,10.7-33.3,17.5c-6.3,4.1-12.4,8.8-18,13.8c-7,6.3-12,14-14.3,23.2c-0.6,2.4-0.8,4.5-1.1,6.7h1.1
			c1.6-5.8,4.7-10.9,8.5-15.5c4.3-4.1,9.9-6.5,15.6-7.9c3.9-1,7.7-1.4,11.6-1.3c4,0.2,8,0.7,12,0.9c0.3,0,0.6,0,0.8,0
			c2.7,0.1,5.4,0.3,8.2,0.4c0.1,0,0.2,0,0.3,0c1.3,0,2.7,0,4.2,0c91.1,1.3,145.9-27.1,145.9-27.1c-77.3,17-147.4,16.6-147.4,16.6
			s-0.5,0,0.4-1c0.3-0.3,0.8-0.7,1.4-1.1c0,0,3.5-2.4,9-5.8c4.2-2.7,10.8-6.6,19.5-10.7c0,0,0.1,0,0.1-0.1
			c30.7-14.6,85.9-30.9,140.1,3.5c19.9,12.7,33.4,34.2,41.6,55.9c10,26.6,10.3,57.7,8.3,85.7c-4.4,62.6-34.7,121.1-70.1,171.8
			c-27.9,40-61.4,76.7-98.9,107.9c-29.3,24.3-60.6,43.9-94.9,60.3c76.7-28.7,140.8-74.3,191.3-139.2c35.6-45.8,65.7-97.5,82.6-153.2
			C706.6,347.6,711.3,283.9,681.8,238.5"/>
		<path class="st3" d="M618,239.9c-0.6,0.1-1,0.6-0.9,1.1c0.4,3.2,1.5,12,1.9,15.1c0.1,0.5,0.6,0.9,1.1,0.8c3.1-0.4,11.9-1.5,15-1.9
			c0.6-0.1,1-0.6,0.9-1.2l0,0c-0.4-3.1-1.5-11.7-1.9-14.9c-0.1-0.6-0.7-1-1.2-1l0,0C629.7,238.4,621.1,239.5,618,239.9"/>
		<path class="st3" d="M618.9,348.1L618.9,348.1c-0.1-0.6-0.6-1-1.2-1c-3.2,0.4-11.8,1.5-14.9,1.9l0,0c-0.6,0.1-1,0.6-0.9,1.1
			c0.4,3.2,1.5,12,1.9,15.1c0.1,0.6,0.6,0.9,1.1,0.9c3.1-0.4,11.9-1.5,15-1.9c0.6-0.1,1-0.6,0.9-1.2l0,0
			C620.4,359.9,619.3,351.3,618.9,348.1"/>
		<path class="st3" d="M475,302c-0.6,0.1-1,0.6-0.9,1.2c0.4,3.1,1.5,12,1.9,15.1c0.1,0.5,0.6,0.9,1.1,0.8c3.1-0.4,11.9-1.5,15-1.9
			c0.6-0.1,1-0.6,0.9-1.2l0,0c-0.4-3.1-1.5-11.7-1.9-14.9c-0.1-0.6-0.6-1-1.2-0.9C486.8,300.5,478.2,301.6,475,302"/>
	</g>
</g>
</svg>
