<svg width="225" height="48" viewBox="0 0 225 48" fill="none" xmlns="http://www.w3.org/2000/svg">
<g clip-path="url(#clip0_305_24)">
<path fill-rule="evenodd" clip-rule="evenodd" d="M2.79095 0H45.2036C46.7443 0 47.9945 1.25017 47.9945 2.79095V45.209C47.9945 46.7553 46.7443 48 45.2036 48H2.79095C1.25017 48 0 46.7553 0 45.209V2.79095C0 1.25017 1.25017 0 2.79095 0ZM10.0836 32.0439C13.0775 32.6361 17.1954 29.4065 18.0836 24.2632C18.3852 22.536 17.952 21.5929 16.8883 20.9843C16.4047 20.7101 15.6854 20.7294 15.0097 20.7475C14.1989 20.7692 13.4508 20.7893 13.2474 20.2989C12.8198 19.268 15.7807 16.7951 17.475 16.8554C19.1081 16.9133 19.5214 18.6011 19.6729 19.2197L19.6902 19.2899C19.7096 19.3637 19.7285 19.4655 19.7515 19.5887L19.7515 19.5888L19.7515 19.5888C19.8976 20.373 20.2059 22.0278 21.8122 22.876C23.9452 23.9945 29.22 21.0829 32.5154 15.1611C35.3283 10.111 33.2941 9.21729 31.83 9.35985C29.05 9.62304 25.7601 14.4209 25.7601 14.4209C25.7601 14.4209 27.3612 6.44278 22.2564 4.73202C16.2797 2.7142 9.34888 10.3742 7.11174 15.5559C5.08295 20.244 3.89309 24.1206 5.6861 28.7869C6.34957 30.536 8.18096 31.671 10.0891 32.0494L10.0836 32.0439ZM26.9171 15.3804C28.5895 13.3187 31.2378 11.915 32.1316 12.7759C33.0309 13.6422 30.8705 15.5175 29.9603 16.2797C28.2111 17.7327 24.3126 19.7615 24.3126 19.7615C24.3126 19.7615 25.4585 17.1734 26.9171 15.3804ZM7.1885 19.0925C9.4421 12.1234 14.3825 8.64703 15.6765 7.96163C16.658 7.44073 20.4908 5.76835 23.0459 10.0069C25.6011 14.2454 23.0459 19.7176 23.0459 19.7176C23.0459 19.7176 21.6861 19.6409 21.1487 18.0124C20.9912 17.535 20.8912 17.0354 20.7943 16.5518C20.5608 15.3858 20.346 14.3128 19.3886 13.867C17.2886 12.891 15.2762 14.7663 13.9109 16.2084C12.6059 17.5901 10.3084 21.4448 11.8108 23.0898C12.7239 24.0941 14.061 24.0682 14.952 24.0509C15.2381 24.0453 15.4783 24.0406 15.6436 24.0713C16.318 24.1919 16.8444 24.5648 16.7567 25.1734C16.6635 25.7821 13.1981 28.7594 10.9445 28.4633C8.68542 28.1727 4.96232 25.9959 7.1885 19.0925ZM30.5196 8.94858C30.4593 9.0089 30.3606 9.01987 30.2893 8.96503V8.97052C30.0681 8.77349 29.5919 8.36074 29.1822 8.00562L29.182 8.00537C28.9419 7.79727 28.7247 7.60898 28.595 7.49553C28.5402 7.43522 28.5347 7.342 28.5786 7.28169C28.8801 6.92528 29.752 5.92734 30.059 5.57641C30.1248 5.5161 30.218 5.51061 30.2838 5.56544C30.6402 5.87799 31.6108 6.7224 31.9727 7.03494C32.0385 7.09526 32.0439 7.19396 31.9836 7.26524C31.6766 7.61616 30.8267 8.59217 30.5196 8.94858ZM21.3039 25.0702L21.3026 25.069L21.3021 25.0686C20.8973 24.7165 20.4312 24.3112 20.2111 24.1151C20.1453 24.0548 20.0521 24.0603 19.9863 24.1261C19.8465 24.2858 19.5908 24.5796 19.3243 24.886L19.3224 24.8881L19.3221 24.8884C19.0037 25.2543 18.6702 25.6376 18.5003 25.8314C18.451 25.8917 18.4619 25.9849 18.5222 26.0397C18.8732 26.3523 19.8602 27.2077 20.222 27.5202C20.2878 27.5696 20.392 27.5641 20.4469 27.4983C20.7539 27.1419 21.6038 26.1713 21.9218 25.8149C21.9822 25.7491 21.9767 25.6449 21.9054 25.5846H21.8944C21.7631 25.4694 21.5475 25.282 21.3101 25.0755L21.3048 25.0709L21.3039 25.0702ZM16.6853 32.0329C16.6195 31.9726 16.5263 31.9835 16.466 32.0439C16.2657 32.2688 15.838 32.7616 15.4757 33.179L15.4754 33.1794L15.4751 33.1797C15.2724 33.4133 15.0902 33.6232 14.9801 33.7491C14.9307 33.8095 14.9417 33.9027 15.002 33.963C15.1802 34.1165 15.5146 34.4084 15.849 34.7004L15.8493 34.7006L15.8499 34.7012L15.8519 34.7029C16.1854 34.994 16.5186 35.2849 16.6963 35.438C16.7621 35.4983 16.8608 35.4873 16.9156 35.4215H16.9211C17.2282 35.0706 18.0781 34.0946 18.3851 33.7382C18.44 33.6724 18.4345 33.5682 18.3687 33.5079C18.0068 33.1953 17.0363 32.3509 16.6798 32.0384L16.6853 32.0329ZM14.6348 33.804C14.706 33.8643 14.706 33.963 14.6512 34.0343H14.6622C14.3442 34.3907 13.4943 35.3612 13.1927 35.7176C13.1379 35.7834 13.0337 35.7944 12.9679 35.7395C12.606 35.4325 11.619 34.5716 11.2681 34.2646C11.2078 34.2097 11.1968 34.1165 11.2516 34.0507C11.3501 33.9379 11.5089 33.7549 11.6889 33.5473L11.6899 33.5462L11.6915 33.5443L11.6919 33.5439L11.6921 33.5437C12.0627 33.1164 12.5222 32.5866 12.7321 32.3509C12.7924 32.2851 12.8856 32.2851 12.9514 32.34C13.1433 32.5049 13.5206 32.8338 13.8822 33.1492L13.8828 33.1497L13.8836 33.1503L13.8837 33.1505C14.1828 33.4113 14.4711 33.6626 14.6348 33.804ZM32.4223 30.695C32.3565 30.6402 32.2578 30.6456 32.203 30.706C32.0009 30.9364 31.5652 31.4348 31.1993 31.8533L30.7115 32.4112C30.6622 32.477 30.6677 32.5648 30.728 32.6251C31.0844 32.9321 32.0714 33.7875 32.4223 34.1001C32.4936 34.1549 32.5923 34.1494 32.6471 34.0836C32.8033 33.9055 33.0923 33.5727 33.3814 33.2398L33.382 33.2391L33.3825 33.2385L33.3829 33.238L33.3833 33.2376C33.672 32.905 33.9606 32.5727 34.1166 32.3948C34.1769 32.329 34.1714 32.2248 34.1002 32.1645C33.9574 32.0393 33.7144 31.8288 33.4517 31.6013L33.4512 31.6009L33.4511 31.6007L33.4502 31.6L33.4493 31.5992L33.4486 31.5986C33.0564 31.2588 32.6211 30.8819 32.4113 30.695H32.4223ZM39.7862 11.1473C39.9178 11.1309 40.1426 11.4818 40.2742 11.756V11.745C40.2831 11.7646 40.3045 11.8076 40.3368 11.8724L40.3369 11.8726C40.7673 12.7357 43.1203 17.4549 43.1968 21.9986C43.279 26.8896 41.8973 30.7059 39.8082 34.2481C37.7136 37.7957 33.985 40.5264 31.035 41.9136C28.436 43.1364 24.5484 44.0356 20.4744 43.3393C19.3613 43.1528 18.4072 42.8622 17.8644 42.6813C17.0638 42.4236 16.9213 42.3523 16.9871 42.2042C17.0254 42.1275 17.0967 42.0946 17.9685 42.0726L17.9818 42.0724C20.3777 42.0284 25.3746 41.9368 30.3332 39.6326C35.963 37.0115 37.5776 33.6772 38.719 31.3201L38.7828 31.1885C41.1899 26.1823 40.8006 20.8197 40.4278 19.2844C40.0385 17.7491 39.7259 16.7128 39.6492 16.5319C39.6319 16.4939 39.6158 16.4557 39.6001 16.4182C39.541 16.2775 39.4867 16.1484 39.3914 16.0877C39.2718 16.013 39.2247 16.2236 39.18 16.4232L39.1666 16.4825C39.1554 16.5326 39.0378 17.229 38.8584 18.2919L38.8581 18.2937L38.858 18.2943C38.2522 21.8829 36.9421 29.6437 36.6334 30.8321C36.3921 31.7587 36.0796 32.3564 35.7396 32.8279C35.709 32.8706 35.6805 32.9108 35.6539 32.9484L35.6538 32.9485C35.4851 33.1868 35.3917 33.3187 35.3065 33.2666C35.2306 33.2144 35.2449 33.1335 35.2928 32.8642L35.2931 32.8623C35.3005 32.8208 35.3087 32.7748 35.3174 32.7238C35.6245 30.9746 36.5018 25.9191 37.1653 21.697C38.0316 16.1809 39.205 12.2495 39.3366 11.9205L39.3608 11.8561L39.3608 11.8561C39.4809 11.5354 39.6167 11.173 39.7862 11.1473ZM26.8513 35.8328C27.7341 34.5387 28.4031 33.1734 28.7485 31.6875C29.9329 31.172 31.2598 30.1796 32.5374 28.3098C35.3187 24.2295 33.9195 20.446 33.543 19.428L33.5244 19.3777L33.5045 19.3201C33.4388 19.1283 33.3886 18.9819 33.2338 18.9719C33.0901 18.9673 32.9306 19.2253 32.7953 19.4444C32.7706 19.4844 32.7467 19.523 32.7239 19.5586C32.5703 19.7834 30.9966 22.4702 30.3332 23.6107C30.0316 24.1261 29.9 24.5154 29.8397 24.7841C29.7684 25.1076 29.7848 25.1295 29.8232 25.146C29.8671 25.146 29.9932 25.0199 30.1303 24.8334C30.3003 24.5922 30.4703 24.3564 30.7992 23.9123C30.9833 23.6574 31.1191 23.4625 31.2263 23.3086C31.3267 23.1646 31.4019 23.0566 31.4682 22.9692C31.4964 22.9344 31.5223 22.9009 31.5464 22.8698C31.6436 22.7441 31.7104 22.6576 31.7807 22.684C31.8432 22.7032 31.893 22.8948 31.9302 23.0379C31.9354 23.0582 31.9405 23.0775 31.9452 23.0953C31.9781 23.2378 32.3949 25.1844 31.9233 26.2152C31.3311 27.5147 30.1742 28.3811 28.9843 28.913C28.9679 28.584 28.935 28.255 28.8856 27.915C28.6169 26.0946 27.4874 25.5901 27.0323 25.3927C25.5342 24.7299 24.3167 27.1283 23.963 27.8252L23.9452 27.8602C22.1084 31.4681 24.5703 32.0164 25.0364 32.0658C25.0701 32.0694 25.12 32.0781 25.1848 32.0893C25.51 32.1456 26.211 32.2669 27.1255 32.148C26.4401 33.8807 24.8774 35.0212 22.6293 36.5072C21.3297 37.3626 17.497 39.0295 12.8801 36.9294C9.62202 35.451 8.40149 33.4915 7.87162 32.6409C7.78441 32.5008 7.71591 32.3909 7.66011 32.318C7.50615 32.112 7.41994 31.9772 7.34823 31.8651C7.23861 31.6936 7.16288 31.5752 6.93084 31.3365C6.68958 31.0898 6.53605 30.9637 6.388 30.9801C6.23996 30.9966 6.28931 31.3036 6.4209 31.6162C6.4595 31.7098 6.50127 31.8131 6.54655 31.925L6.54658 31.9251C7.36343 33.9449 9.32333 38.7912 14.399 40.6251C20.3976 42.7909 25.7986 37.3955 26.8513 35.8328ZM25.4805 29.5435C24.4113 29.231 25.6231 26.61 26.4785 26.8513C27.1748 27.0487 27.5587 27.7999 27.5477 29.401C26.6485 29.6203 25.8698 29.6532 25.4805 29.538V29.5435Z" fill="white"/>
<path d="M73.6504 41.9081L73.1131 40.3454H70.048L69.5106 41.9081H68.2549L71.1062 34.1384H72.0548L74.9061 41.9081H73.6504ZM71.6107 35.8931L70.3989 39.342H72.7896L71.6107 35.8931Z" fill="white"/>
<path d="M81.3324 41.9082H78.1906V34.1331H81.2173C82.6594 34.1331 83.5641 34.9501 83.5641 36.266C83.5641 37.105 83.0377 37.7081 82.5168 37.9165C83.12 38.1577 83.6847 38.7335 83.6847 39.715C83.6847 41.1461 82.7142 41.9082 81.3379 41.9082M81.1186 35.1968H79.3749V37.423H81.1186C81.8698 37.423 82.3852 37.0282 82.3852 36.3099C82.3852 35.5916 81.8698 35.1968 81.1186 35.1968ZM81.2282 38.4812H79.3749V40.85H81.2282C82.0452 40.85 82.5058 40.3455 82.5058 39.6601C82.5058 38.9747 82.0452 38.4812 81.2282 38.4812Z" fill="white"/>
<path d="M90.2755 41.974C88.6909 41.974 87.4901 40.8939 87.4901 39.2873V34.1331H88.6689V39.2324C88.6689 40.2688 89.2995 40.9158 90.2755 40.9158C91.2515 40.9158 91.8931 40.2688 91.8931 39.2324V34.1331H93.072V39.2873C93.072 40.8939 91.8602 41.974 90.2755 41.974Z" fill="white"/>
<path d="M106.703 41.1789C106.21 41.6724 105.502 41.9081 104.696 41.9081H101.966V34.1384H104.696C105.502 34.1384 106.215 34.3797 106.703 34.8677C107.542 35.7121 107.487 36.8471 107.487 37.9712C107.487 39.0952 107.542 40.3399 106.703 41.1789ZM105.897 35.7176C105.568 35.3557 105.135 35.1967 104.576 35.1967H103.145V40.8499H104.576C105.13 40.8499 105.568 40.6854 105.897 40.3235C106.303 39.8793 106.314 39.0349 106.314 37.9657C106.314 36.8965 106.303 36.1672 105.897 35.7176Z" fill="white"/>
<path d="M115.751 41.9082V38.5141H112.598V41.9082H111.419V34.1331H112.598V37.4559H115.751V34.1331H116.929V41.9082H115.751Z" fill="white"/>
<path d="M125.604 41.9081L125.072 40.3454H122.001L121.464 41.9081H120.208L123.054 34.1384H124.003L126.854 41.9081H125.598H125.604ZM123.564 35.8931L122.352 39.342H124.743L123.564 35.8931Z" fill="white"/>
<path d="M133.291 41.9082H130.149V34.1331H133.171C134.613 34.1331 135.517 34.9501 135.517 36.266C135.517 37.105 134.997 37.7081 134.47 37.9165C135.073 38.1577 135.638 38.7335 135.638 39.715C135.638 41.1461 134.668 41.9082 133.291 41.9082ZM133.072 35.1968H131.323V37.423H133.072C133.829 37.423 134.339 37.0282 134.339 36.3099C134.339 35.5916 133.829 35.1968 133.072 35.1968ZM133.182 38.4812H131.323V40.85H133.182C133.999 40.85 134.459 40.3455 134.459 39.6601C134.459 38.9747 133.999 38.4812 133.182 38.4812Z" fill="white"/>
<path d="M140.639 34.1331H139.46V41.9028H140.639V34.1331Z" fill="white"/>
<path d="M152.274 41.9741C151.468 41.9741 150.772 41.678 150.234 41.1461C149.472 40.3839 149.483 39.5231 149.483 38.0207C149.483 36.5183 149.472 35.6629 150.234 34.9007C150.772 34.3688 151.468 34.0728 152.274 34.0728C153.245 34.0728 153.87 34.4182 154.446 34.9885L153.661 35.7835C153.261 35.3832 152.921 35.131 152.274 35.131C151.819 35.131 151.402 35.3065 151.128 35.5971C150.744 36.0138 150.673 36.4634 150.673 38.0207C150.673 39.5779 150.75 40.033 151.128 40.4442C151.402 40.7403 151.819 40.9158 152.274 40.9158C152.921 40.9158 153.261 40.6636 153.661 40.2578L154.446 41.0529C153.87 41.6231 153.245 41.9686 152.274 41.9686" fill="white"/>
<path d="M162.544 41.9082V38.5141H159.391V41.9082H158.212V34.1331H159.391V37.4559H162.544V34.1331H163.723V41.9082H162.544Z" fill="white"/>
<path d="M172.403 41.9081L171.866 40.3454H168.801L168.263 41.9081H167.008L169.859 34.1384H170.807L173.659 41.9081H172.403ZM170.363 35.8931L169.151 39.342H171.542L170.363 35.8931Z" fill="white"/>
<path d="M182.618 41.9082V36.7156L180.831 40.4991H179.953L178.122 36.7156V41.9082H176.943V34.1331H178.122L180.392 38.9692L182.618 34.1331H183.797V41.9082H182.618Z" fill="white"/>
<path d="M191.145 41.9082H188.003V34.1331H191.024C192.466 34.1331 193.371 34.9501 193.371 36.266C193.371 37.105 192.844 37.7081 192.324 37.9165C192.927 38.1577 193.491 38.7335 193.491 39.715C193.491 41.1461 192.521 41.9082 191.145 41.9082ZM190.925 35.1968H189.182V37.423H190.925C191.677 37.423 192.192 37.0282 192.192 36.3099C192.192 35.5916 191.677 35.1968 190.925 35.1968ZM191.035 38.4812H189.182V40.85H191.035C191.852 40.85 192.313 40.3455 192.313 39.6601C192.313 38.9747 191.852 38.4812 191.035 38.4812Z" fill="white"/>
<path d="M197.423 41.9082V34.1331H202.385V35.1968H198.596V37.4668H201.831V38.5141H198.596V40.85H202.385V41.9082H197.423Z" fill="white"/>
<path d="M210.473 41.9082L208.833 38.6348H207.358V41.9082H206.18V34.1331H209.19C210.665 34.1331 211.602 35.0871 211.602 36.4086C211.602 37.5217 210.923 38.229 210.051 38.4703L211.844 41.9082H210.467H210.473ZM209.108 35.1968H207.364V37.6313H209.108C209.897 37.6313 210.429 37.1817 210.429 36.4196C210.429 35.6574 209.892 35.1968 209.108 35.1968Z" fill="white"/>
<path d="M63.7533 29.357C63.6272 29.2309 63.4736 29.1267 63.2982 29.05C63.1227 28.9732 62.9418 28.9348 62.7444 28.9348C62.547 28.9348 62.366 28.9732 62.1906 29.05C62.0151 29.1267 61.8671 29.2254 61.7409 29.357C61.6148 29.4886 61.5161 29.6367 61.4394 29.8121C61.3626 29.9876 61.3242 30.1685 61.3242 30.3659C61.3242 30.7662 61.4613 31.1007 61.73 31.3748C61.9987 31.649 62.3386 31.7806 62.7389 31.7806C62.9363 31.7806 63.1172 31.7422 63.2927 31.6655C63.4682 31.5887 63.6162 31.49 63.7478 31.3639C63.8794 31.2378 63.9781 31.0897 64.0549 30.9143C64.1316 30.7388 64.17 30.5578 64.17 30.3604C64.17 30.1631 64.1316 29.9821 64.0549 29.8066C63.9781 29.6312 63.8794 29.4831 63.7478 29.3515" fill="white"/>
<path d="M67.5641 29.357C67.438 29.2309 67.2844 29.1267 67.109 29.05C66.9335 28.9732 66.7526 28.9348 66.5552 28.9348C66.3578 28.9348 66.1768 28.9732 66.0014 29.05C65.8259 29.1267 65.6778 29.2254 65.5517 29.357C65.4256 29.4886 65.3269 29.6367 65.2502 29.8121C65.1734 29.9876 65.135 30.1685 65.135 30.3659C65.135 30.7662 65.2721 31.1007 65.5408 31.3748C65.8094 31.649 66.1494 31.7806 66.5497 31.7806C66.7471 31.7806 66.928 31.7422 67.1035 31.6655C67.2789 31.5887 67.427 31.49 67.5586 31.3639C67.6902 31.2378 67.7889 31.0897 67.8656 30.9143C67.9424 30.7388 67.9808 30.5578 67.9808 30.3604C67.9808 30.1631 67.9424 29.9821 67.8656 29.8066C67.7889 29.6312 67.6847 29.4831 67.5586 29.3515" fill="white"/>
<path d="M87.9178 29.357C87.7862 29.2254 87.6381 29.1267 87.4627 29.05C87.2872 28.9732 87.1063 28.9348 86.9089 28.9348C86.7115 28.9348 86.5305 28.9732 86.3551 29.05C86.1796 29.1267 86.0315 29.2309 85.9054 29.357C85.7793 29.4831 85.6806 29.6367 85.6039 29.8121C85.5271 29.9876 85.4887 30.1685 85.4887 30.3659C85.4887 30.7662 85.6258 31.1007 85.8945 31.3748C86.1631 31.6435 86.5031 31.7806 86.9034 31.7806C87.1008 31.7806 87.2817 31.7422 87.4572 31.6655C87.6326 31.5887 87.7807 31.49 87.9123 31.3639C88.0384 31.2378 88.1426 31.0897 88.2193 30.9143C88.2961 30.7388 88.3345 30.5578 88.3345 30.3604C88.3345 30.1631 88.2961 29.9821 88.2193 29.8066C88.1426 29.6312 88.0384 29.4831 87.9123 29.3515" fill="white"/>
<path d="M104.088 12.6552C104.285 12.6552 104.466 12.6168 104.642 12.5401C104.817 12.4633 104.965 12.3646 105.097 12.2385C105.223 12.1124 105.327 11.9643 105.404 11.7889C105.48 11.6134 105.519 11.4325 105.519 11.2351C105.519 11.0377 105.48 10.8512 105.404 10.6813C105.327 10.5058 105.223 10.3578 105.097 10.2262C104.965 10.0946 104.817 9.99587 104.642 9.9191C104.466 9.84234 104.285 9.80396 104.088 9.80396C103.89 9.80396 103.709 9.84234 103.534 9.9191C103.358 9.99587 103.21 10.1 103.084 10.2262C102.958 10.3523 102.86 10.5058 102.783 10.6813C102.706 10.8567 102.668 11.0377 102.668 11.2351C102.668 11.6353 102.805 11.9698 103.073 12.244C103.342 12.5181 103.682 12.6497 104.082 12.6497" fill="white"/>
<path d="M109.543 19.0652C109.324 18.2646 108.984 17.5628 108.513 16.9706C108.047 16.3729 107.449 15.9068 106.725 15.5669C106.001 15.2269 105.124 15.0624 104.099 15.0624C103.539 15.0624 102.997 15.1282 102.481 15.2598C101.966 15.3914 101.472 15.5779 101.006 15.8191C100.54 16.0604 100.096 16.3455 99.6792 16.6745C99.2625 17.0035 98.8622 17.3599 98.4893 17.7437V7.16113H96.0822V21.094C95.7971 21.6204 95.5503 22.1248 95.3475 22.6073C95.1446 23.0953 94.9801 23.5395 94.854 23.9507H91.6299H91.6244H91.5147C90.758 23.9507 90.1055 23.8849 89.5572 23.7424C89.0089 23.6053 88.5373 23.3969 88.1371 23.1227V16.0439H85.7354V22.4428C85.7354 22.9528 85.6532 23.3311 85.4887 23.5779C85.3242 23.8301 85.0993 23.9507 84.8142 23.9507H80.8334C80.5922 23.9507 80.3838 23.9233 80.2083 23.8685C80.0274 23.8136 79.8793 23.704 79.7587 23.534C79.6381 23.364 79.5503 23.1173 79.49 22.7992C79.4352 22.4812 79.4023 22.048 79.4023 21.5052V16.0439L75.8492 16.0165C73.9684 16.0165 72.5812 16.4607 71.6819 17.3489C70.7827 18.2372 70.3331 19.5696 70.3331 21.3407V21.8945V22.5031C70.3331 23.0021 70.2508 23.375 70.0918 23.6217C69.9273 23.8685 69.708 23.9891 69.4283 23.9891H59.8163C59.5805 23.9891 59.3721 23.9617 59.1967 23.9123C59.0212 23.863 58.8732 23.7533 58.7525 23.5833C58.6319 23.4188 58.5442 23.1776 58.4893 22.8596C58.429 22.5415 58.4016 22.1193 58.4016 21.582V16.0439H56.0493V22.4812C56.0658 23.1118 56.1261 23.852 56.3235 24.34C56.5154 24.8225 56.7731 25.2173 57.0856 25.5134C57.4037 25.815 57.7656 26.0288 58.1658 26.1604C58.5661 26.292 58.9883 26.3578 59.416 26.3578H69.9328C70.4921 26.3578 70.9582 26.2372 71.3255 25.996C71.6929 25.7547 71.9835 25.4586 72.2028 25.1077C72.2028 25.1077 72.7292 24.3236 72.7292 23.1666V23.0844H72.7347V21.6039C72.7347 20.9021 72.8224 20.3318 72.9924 19.8986C73.1679 19.4655 73.4201 19.131 73.7491 18.8897C74.0781 18.6485 74.4729 18.4894 74.939 18.4072C75.3996 18.3249 75.9259 18.2866 76.5181 18.2866H77.0006V22.4648C77.0006 23.1885 77.0993 23.7917 77.2967 24.2907C77.4941 24.7842 77.7519 25.1844 78.0699 25.486C78.3879 25.7876 78.7553 26.0069 79.1665 26.1385C79.5778 26.2701 80 26.3414 80.4331 26.3414H85.3077C85.878 26.3414 86.344 26.2208 86.7169 25.974C87.0898 25.7273 87.3859 25.4257 87.6052 25.0748C88.0384 25.4421 88.5647 25.7437 89.1789 25.985C89.793 26.2262 90.5606 26.3469 91.4873 26.3469H109.867V21.6587C109.867 20.7211 109.757 19.8548 109.538 19.0542M107.46 23.9452H97.2172C97.3434 23.4737 97.5133 22.9857 97.7381 22.4757C97.963 21.9658 98.2262 21.4723 98.5277 20.9898C98.8293 20.5018 99.1693 20.0467 99.5476 19.6135C99.9259 19.1803 100.337 18.802 100.781 18.473C101.225 18.144 101.703 17.8808 102.212 17.6889C102.717 17.497 103.249 17.4038 103.803 17.4038C104.313 17.4038 104.784 17.475 105.234 17.6231C105.678 17.7711 106.067 18.0179 106.396 18.3688C106.725 18.7197 106.983 19.1858 107.175 19.767C107.367 20.3428 107.46 21.0665 107.46 21.9329V23.9507V23.9452Z" fill="white"/>
<path d="M134.18 16.033H131.772V23.9562H124.507V21.6697C124.507 20.8418 124.43 20.1125 124.288 19.4874C124.14 18.8623 123.942 18.3195 123.696 17.8699C123.443 17.4203 123.158 17.0474 122.829 16.7513C122.5 16.4552 122.149 16.2249 121.777 16.0495C121.409 15.874 121.031 15.7534 120.647 15.6876C120.263 15.6218 119.901 15.5889 119.55 15.5889C118.673 15.5889 117.889 15.7314 117.187 16.0166C116.485 16.3017 115.888 16.6965 115.389 17.2009C114.89 17.7054 114.506 18.2921 114.237 18.972C113.968 19.6464 113.837 20.3757 113.837 21.1488C113.837 21.763 113.941 22.3826 114.144 23.0076C114.347 23.6327 114.681 24.1865 115.147 24.6855C115.608 25.179 116.217 25.5848 116.973 25.8918C117.724 26.2044 118.651 26.3579 119.742 26.3579H121.936C121.65 27.3284 120.96 28.107 119.857 28.6882C118.761 29.2695 117.297 29.4998 115.482 29.6259L115.734 31.9343C116.875 31.863 117.829 31.7753 118.777 31.5286C119.726 31.2818 120.57 30.9418 121.316 30.4977C122.062 30.059 122.692 29.4998 123.213 28.8198C123.734 28.1454 124.107 27.3174 124.343 26.3469H134.185V16.022L134.18 16.033ZM122.106 23.9562H119.726C119.084 23.9562 118.541 23.874 118.097 23.715C117.653 23.556 117.286 23.3421 117.001 23.0734C116.716 22.8048 116.507 22.4922 116.381 22.1303C116.249 21.7684 116.189 21.3901 116.189 20.9898C116.189 20.5292 116.266 20.1015 116.414 19.7122C116.562 19.3229 116.77 18.9939 117.034 18.7143C117.297 18.4401 117.604 18.2263 117.96 18.0728C118.317 17.9192 118.7 17.8479 119.112 17.8479C119.479 17.8479 119.841 17.9083 120.197 18.0289C120.559 18.1495 120.877 18.3743 121.162 18.7088C121.442 19.0433 121.672 19.5094 121.842 20.1125C122.018 20.7157 122.106 21.4888 122.106 22.4429V23.9508V23.9562Z" fill="white"/>
<path d="M133.999 29.357C133.867 29.2254 133.719 29.1267 133.544 29.05C133.368 28.9732 133.187 28.9348 132.99 28.9348C132.792 28.9348 132.611 28.9732 132.436 29.05C132.26 29.1267 132.112 29.2309 131.986 29.357C131.86 29.4831 131.761 29.6367 131.685 29.8121C131.608 29.9876 131.57 30.1685 131.57 30.3659C131.57 30.7662 131.707 31.1007 131.975 31.3748C132.25 31.6435 132.584 31.7806 132.984 31.7806C133.182 31.7806 133.368 31.7422 133.538 31.6655C133.714 31.5887 133.862 31.49 133.993 31.3639C134.119 31.2378 134.223 31.0897 134.3 30.9143C134.377 30.7388 134.415 30.5578 134.415 30.3604C134.415 30.1631 134.377 29.9821 134.3 29.8066C134.223 29.6312 134.119 29.4831 133.993 29.3515" fill="white"/>
<path d="M141.735 4.37016C141.395 4.37016 141.105 4.3263 140.858 4.24405C140.611 4.1618 140.408 4.05214 140.249 3.91506C140.09 3.78346 139.97 3.62993 139.888 3.45995C139.805 3.28997 139.767 3.11999 139.767 2.95001C139.767 2.59361 139.893 2.34138 140.14 2.18785C140.387 2.03432 140.705 1.96304 141.088 1.96304C141.258 1.96304 141.412 1.974 141.554 1.99045C141.697 2.0069 141.801 2.02884 141.872 2.04528L142.048 0.910261C141.845 0.871879 141.653 0.849946 141.478 0.844462C141.302 0.833496 141.143 0.833496 140.99 0.833496C140.589 0.833496 140.239 0.882845 139.942 0.987026C139.646 1.09121 139.4 1.22829 139.202 1.39278C139.005 1.56276 138.862 1.75467 138.769 1.974C138.676 2.19333 138.626 2.41814 138.626 2.64844C138.626 2.87873 138.654 3.08709 138.72 3.27352C138.78 3.45995 138.857 3.62993 138.95 3.7725C139.038 3.92054 139.131 4.04117 139.23 4.13987C139.328 4.23857 139.416 4.31533 139.498 4.36468H137.974V5.48874H142.114V4.36468H141.724L141.735 4.37016Z" fill="white"/>
<path d="M141.247 7.16113H138.846V26.3578H141.247V7.16113Z" fill="white"/>
<path d="M156.727 11.9863C156.924 11.9863 157.105 11.9479 157.28 11.8711C157.456 11.7944 157.604 11.6957 157.735 11.5696C157.862 11.4434 157.966 11.2954 158.042 11.1199C158.119 10.9445 158.158 10.7635 158.158 10.5661C158.158 10.3687 158.119 10.1823 158.042 10.0123C157.966 9.83686 157.862 9.68881 157.735 9.55722C157.604 9.42562 157.456 9.32692 157.28 9.25016C157.105 9.17339 156.918 9.13501 156.727 9.13501C156.535 9.13501 156.348 9.17339 156.173 9.25016C155.997 9.32692 155.849 9.4311 155.723 9.55722C155.597 9.68333 155.498 9.83686 155.422 10.0123C155.345 10.1878 155.306 10.3687 155.306 10.5661C155.306 10.9664 155.443 11.3009 155.712 11.575C155.986 11.8492 156.321 11.9808 156.721 11.9808" fill="white"/>
<path d="M160.532 11.9863C160.729 11.9863 160.916 11.9479 161.086 11.8711C161.261 11.7944 161.409 11.6957 161.541 11.5696C161.667 11.4434 161.771 11.2954 161.848 11.1199C161.925 10.9445 161.963 10.7635 161.963 10.5661C161.963 10.3687 161.925 10.1823 161.848 10.0123C161.771 9.83686 161.667 9.68881 161.541 9.55722C161.409 9.42562 161.261 9.32692 161.086 9.25016C160.91 9.17339 160.729 9.13501 160.532 9.13501C160.334 9.13501 160.148 9.17339 159.978 9.25016C159.803 9.32692 159.655 9.4311 159.528 9.55722C159.402 9.68333 159.304 9.83686 159.227 10.0123C159.15 10.1878 159.112 10.3687 159.112 10.5661C159.112 10.9664 159.249 11.3009 159.517 11.575C159.786 11.8492 160.126 11.9808 160.526 11.9808" fill="white"/>
<path d="M193.48 16.9486C193.058 16.488 192.543 16.137 191.934 15.8958C191.331 15.649 190.64 15.5284 189.862 15.5284C189.083 15.5284 188.337 15.671 187.668 15.9506C186.999 16.2303 186.424 16.6196 185.936 17.1131C185.448 17.6065 185.069 18.1878 184.795 18.8512C184.521 19.5147 184.378 20.2275 184.378 20.9952C184.378 21.3077 184.4 21.6093 184.444 21.9054C184.488 22.2015 184.548 22.4756 184.631 22.7279C184.713 22.9801 184.801 23.2049 184.905 23.4023C185.009 23.5997 185.119 23.7587 185.234 23.8848V23.9671H163.778C163.394 23.9671 163.087 23.9342 162.857 23.8739C162.626 23.8135 162.446 23.7094 162.314 23.5668C162.182 23.4242 162.1 23.2323 162.062 22.9911C162.023 22.7498 162.001 22.4537 162.001 22.0973V13.8286H159.594V15.2433C159.112 15.3749 158.58 15.5284 157.993 15.6984C157.406 15.8684 156.809 16.0712 156.195 16.307C155.586 16.5428 154.988 16.817 154.413 17.1295C153.837 17.442 153.321 17.8039 152.872 18.2261C152.422 18.6429 152.06 19.1199 151.781 19.6463C151.507 20.1782 151.369 20.7758 151.369 21.4448C151.369 22.1576 151.507 22.7662 151.792 23.2762C152.071 23.7861 152.433 24.2028 152.872 24.5264C153.31 24.8499 153.804 25.0911 154.347 25.2392C154.89 25.3927 155.427 25.464 155.964 25.464C156.578 25.464 157.187 25.3817 157.779 25.2118C158.377 25.0418 159.002 24.7566 159.66 24.3564C159.731 24.625 159.841 24.8773 159.989 25.124C160.137 25.3708 160.345 25.5846 160.62 25.7656C160.894 25.9465 161.239 26.0946 161.656 26.2042C162.073 26.3194 162.577 26.3742 163.175 26.3742H194.785V20.9129C194.785 20.074 194.676 19.3228 194.451 18.6538C194.226 17.9849 193.903 17.4256 193.48 16.965M159.594 22.3166C159.167 22.6017 158.69 22.8211 158.158 22.9856C157.626 23.1446 157.045 23.2268 156.414 23.2268C156.074 23.2268 155.74 23.1939 155.411 23.1227C155.082 23.0514 154.78 22.9362 154.517 22.7772C154.248 22.6182 154.034 22.4044 153.87 22.1357C153.705 21.867 153.623 21.538 153.623 21.1487C153.623 20.6662 153.766 20.233 154.056 19.8547C154.347 19.4708 154.753 19.1254 155.279 18.8183C155.805 18.5113 156.43 18.2426 157.16 18.0123C157.889 17.782 158.7 17.5791 159.589 17.4091V22.3221L159.594 22.3166ZM192.378 23.9725H190.163C189.609 23.9725 189.116 23.9013 188.683 23.7532C188.249 23.6052 187.877 23.4023 187.575 23.1391C187.273 22.8759 187.038 22.5579 186.873 22.185C186.709 21.8122 186.626 21.3954 186.626 20.9458C186.626 20.4962 186.703 20.074 186.851 19.6956C187.005 19.3173 187.208 18.9938 187.471 18.7306C187.734 18.4674 188.041 18.2536 188.398 18.1055C188.754 17.9575 189.138 17.8807 189.549 17.8807C189.916 17.8807 190.267 17.9355 190.613 18.0562C190.953 18.1713 191.26 18.3687 191.523 18.6429C191.786 18.917 191.995 19.2899 192.154 19.7505C192.307 20.2166 192.389 20.7868 192.389 21.4722V23.9835L192.378 23.9725Z" fill="white"/>
<path d="M189.829 12.6552C190.026 12.6552 190.207 12.6168 190.382 12.5401C190.558 12.4633 190.706 12.3646 190.838 12.2385C190.964 12.1124 191.068 11.9643 191.145 11.7889C191.221 11.6134 191.26 11.4325 191.26 11.2351C191.26 11.0377 191.221 10.8512 191.145 10.6813C191.068 10.5058 190.964 10.3578 190.838 10.2262C190.706 10.0946 190.558 9.99587 190.382 9.9191C190.207 9.84234 190.021 9.80396 189.829 9.80396C189.637 9.80396 189.45 9.84234 189.275 9.9191C189.099 9.99587 188.951 10.1 188.825 10.2262C188.699 10.3523 188.6 10.5058 188.524 10.6813C188.447 10.8567 188.409 11.0377 188.409 11.2351C188.409 11.6353 188.546 11.9698 188.814 12.244C189.088 12.5181 189.423 12.6497 189.823 12.6497" fill="white"/>
<path d="M218.824 12.6552C219.021 12.6552 219.202 12.6168 219.378 12.5401C219.553 12.4633 219.701 12.3646 219.833 12.2385C219.964 12.1124 220.063 11.9643 220.14 11.7889C220.217 11.6134 220.255 11.4325 220.255 11.2351C220.255 11.0377 220.217 10.8512 220.14 10.6813C220.063 10.5058 219.959 10.3578 219.833 10.2262C219.701 10.0946 219.553 9.99587 219.378 9.9191C219.202 9.84234 219.021 9.80396 218.824 9.80396C218.626 9.80396 218.446 9.84234 218.27 9.9191C218.095 9.99587 217.947 10.1 217.82 10.2262C217.694 10.3523 217.596 10.5058 217.519 10.6813C217.442 10.8567 217.404 11.0377 217.404 11.2351C217.404 11.6353 217.541 11.9698 217.809 12.244C218.078 12.5181 218.418 12.6497 218.818 12.6497" fill="white"/>
<path d="M219.877 23.9506C219.35 23.9506 218.873 23.8683 218.44 23.7038C218.007 23.5393 217.639 23.309 217.327 23.0184C217.014 22.7223 216.773 22.3769 216.603 21.9711C216.433 21.5654 216.351 21.1212 216.351 20.6442C216.351 20.1123 216.439 19.6627 216.614 19.3063C216.79 18.9499 217.009 18.6648 217.278 18.4509C217.546 18.2371 217.837 18.089 218.16 18.0013C218.484 17.919 218.791 17.8752 219.098 17.8752C219.284 17.8752 219.498 17.8861 219.74 17.9081C219.981 17.93 220.222 17.9574 220.469 17.9903C220.716 18.0232 220.951 18.0616 221.182 18.111C221.412 18.1603 221.62 18.2097 221.796 18.2645L222.037 15.7532C221.905 15.6983 221.73 15.6545 221.516 15.6106C221.302 15.5722 221.072 15.5393 220.82 15.5119C220.573 15.4845 220.326 15.4626 220.085 15.4461C219.844 15.4297 219.63 15.4187 219.443 15.4187C218.659 15.4187 217.941 15.5667 217.289 15.8574C216.636 16.1535 216.071 16.5482 215.605 17.0527C215.139 17.5572 214.772 18.1439 214.514 18.8128C214.256 19.4872 214.125 20.2001 214.125 20.9567C214.125 21.4393 214.185 21.9273 214.3 22.4317C214.415 22.9362 214.591 23.4406 214.832 23.9451H203.202V16.0219H200.795V24.8772C200.795 25.5517 200.751 26.1603 200.663 26.6922C200.576 27.224 200.384 27.6901 200.088 28.0904C199.797 28.4852 199.364 28.8087 198.799 29.0664C198.234 29.3241 197.472 29.5105 196.524 29.6367L196.765 31.9341C197.708 31.8025 198.541 31.6106 199.271 31.3639C199.995 31.1171 200.62 30.7772 201.141 30.344C201.661 29.9053 202.078 29.368 202.396 28.721C202.714 28.0739 202.939 27.2844 203.071 26.3522H224.055V23.9451H219.882L219.877 23.9506Z" fill="white"/>
</g>
<defs>
<clipPath id="clip0_305_24">
<rect width="224.055" height="48" fill="white"/>
</clipPath>
</defs>
</svg>
