<?xml version="1.0" encoding="utf-8"?>
<!-- Generator: Adobe Illustrator 28.0.0, SVG Export Plug-In . SVG Version: 6.00 Build 0)  -->
<svg version="1.1" id="Layer_1" xmlns="http://www.w3.org/2000/svg" xmlns:xlink="http://www.w3.org/1999/xlink" x="0px" y="0px"
	 viewBox="0 0 1080 1080" style="enable-background:new 0 0 1080 1080;" xml:space="preserve">
<style type="text/css">
	.st0{fill:#004411;}
	.st1{fill:#FFFFFF;}
</style>
<g>
	<path class="st0" d="M26.6,384.1c0,0-26.6,0-26.6,26.5v258.9c0,0,0,26.5,26.6,26.5h260.2c0,0,26.6,0,26.6-26.5V410.6
		c0,0,0-26.5-26.6-26.5H26.6z"/>
	<path class="st0" d="M1067.9,497.7l-17.3,17.2v5h16.2c1.7,0,2.6,1.1,2.6,3.2v9.4c0,2.2-0.9,3.3-2.6,3.3h-20.1v4.9h22.3
		c2.1,0,3.8-0.7,5.3-2.2c1.5-1.5,2.2-3.3,2.2-5.4v-10.6c0-2.1-0.7-3.9-2.2-5.4c-1.5-1.5-3.2-2.2-5.3-2.2h-9.7l17.4-17.3H1067.9z
		 M1042.3,540.7h5.5v-4.9h-5.5V540.7z M1037.7,540.7h5.5v-4.9h-5.5V540.7z M1033.2,540.7h5.5v-4.9h-5.5V540.7z M1028.7,540.7h5.5
		v-4.9h-5.5V540.7z M1024.2,540.7h5.5v-4.9h-5.5V540.7z M1019.7,540.7h5.5v-4.9h-5.5V540.7z M1015.1,540.7h5.5v-4.9h-5.5V540.7z
		 M1010.6,540.7h5.5v-4.9h-5.5V540.7z M1006.1,540.7h5.5v-4.9h-5.5V540.7z M1001.6,540.7h5.5v-4.9h-5.5V540.7z M997,540.7h5.5v-4.9
		H997V540.7z M996.4,540.7h1.5v-4.9h-0.6c-1.2,0-2.1-0.2-2.7-0.7c-0.5-0.4-0.8-1.3-0.8-2.5v-34.9h-7.2v34.9c0,1.2-0.3,2-0.8,2.5
		c-0.6,0.4-1.4,0.7-2.4,0.7H983v4.9h3.4c1.9,0,3.6-0.7,5-2C992.8,540,994.5,540.7,996.4,540.7 M978.5,540.7h5.5v-4.9h-5.5V540.7z
		 M974,540.7h5.5v-4.9H974V540.7z M969.4,540.7h5.5v-4.9h-5.5V540.7z M964.9,540.7h5.5v-4.9h-5.5V540.7z M960.4,540.7h5.5v-4.9h-5.5
		V540.7z M955.9,540.7h5.5v-4.9h-5.5V540.7z M951.3,540.7h5.5v-4.9h-5.5V540.7z M946.8,540.7h5.5v-4.9h-5.5V540.7z M942.3,540.7h5.5
		v-4.9h-5.5V540.7z M937.8,540.7h5.5v-4.9h-5.5V540.7z M933.3,540.7h5.5v-4.9h-5.5V540.7z M931.7,540.7h2.6v-4.9h-1.6
		c-1.3,0-2.2-0.2-2.7-0.7c-0.5-0.4-0.8-1.3-0.8-2.5V515h-7.2v17.7c0,1.2-0.3,2-0.8,2.5c-0.6,0.4-1.5,0.7-2.7,0.7h-1.7v4.9h4.9
		c1,0,1.9-0.2,2.7-0.5c0.8-0.3,1.6-0.8,2.3-1.5C928,540,929.7,540.7,931.7,540.7 M923.1,551.3c0.4-0.2,0.7-0.4,1-0.7
		c0.3-0.3,0.5-0.6,0.7-1c0.2-0.4,0.2-0.8,0.2-1.3c0-0.5-0.1-0.9-0.2-1.3c-0.2-0.4-0.4-0.8-0.7-1.1c-0.3-0.3-0.6-0.5-1-0.7
		c-0.4-0.2-0.8-0.3-1.2-0.3c-0.4,0-0.8,0.1-1.2,0.3c-0.4,0.2-0.7,0.4-1,0.7c-0.3,0.3-0.5,0.6-0.7,1.1c-0.2,0.4-0.2,0.8-0.2,1.3
		c0,0.4,0.1,0.9,0.2,1.3c0.2,0.4,0.4,0.8,0.7,1c0.3,0.3,0.6,0.5,1,0.7c0.4,0.2,0.8,0.3,1.2,0.3C922.4,551.5,922.8,551.4,923.1,551.3
		 M926.3,549.5c0.2,0.4,0.4,0.8,0.7,1c0.3,0.3,0.6,0.5,1,0.7c0.4,0.2,0.8,0.3,1.2,0.3c0.4,0,0.8-0.1,1.2-0.3c0.4-0.2,0.7-0.4,1-0.7
		c0.3-0.3,0.5-0.6,0.7-1s0.2-0.8,0.2-1.3c0-0.5-0.1-0.9-0.2-1.3s-0.4-0.8-0.7-1.1c-0.3-0.3-0.6-0.5-1-0.7c-0.4-0.2-0.8-0.3-1.2-0.3
		c-0.4,0-0.8,0.1-1.2,0.3c-0.4,0.2-0.7,0.4-1,0.7c-0.3,0.3-0.5,0.6-0.7,1.1c-0.2,0.4-0.2,0.8-0.2,1.3
		C926.1,548.7,926.2,549.1,926.3,549.5 M912.1,540.7h5.5v-4.9h-5.5V540.7z M907.6,540.7h5.5v-4.9h-5.5V540.7z M903.1,540.7h5.5v-4.9
		h-5.5V540.7z M898.5,540.7h5.5v-4.9h-5.5V540.7z M894,540.7h5.5v-4.9H894V540.7z M889.5,540.7h5.5v-4.9h-5.5V540.7z M885,540.7h5.5
		v-4.9H885V540.7z M880.4,540.7h5.5v-4.9h-5.5V540.7z M875.9,540.7h5.5v-4.9h-5.5V540.7z M871.4,540.7h5.5v-4.9h-5.5V540.7z
		 M866.9,540.7h5.5v-4.9h-5.5V540.7z M858.5,510.6c0.4-0.2,0.7-0.4,1-0.7c0.3-0.3,0.5-0.6,0.7-1.1c0.2-0.4,0.3-0.8,0.3-1.3
		c0-0.5-0.1-0.9-0.3-1.3c-0.2-0.4-0.4-0.8-0.7-1.1c-0.3-0.3-0.6-0.5-1-0.7c-0.4-0.2-0.8-0.3-1.2-0.3c-0.4,0-0.8,0.1-1.2,0.3
		c-0.4,0.2-0.7,0.4-1,0.7c-0.3,0.3-0.5,0.6-0.7,1.1c-0.2,0.4-0.2,0.8-0.2,1.3c0,0.4,0.1,0.9,0.2,1.3c0.2,0.4,0.4,0.8,0.7,1.1
		c0.3,0.3,0.6,0.5,1,0.7c0.4,0.2,0.8,0.3,1.2,0.3C857.7,510.8,858.1,510.8,858.5,510.6 M847.2,508.8c0.2,0.4,0.4,0.8,0.7,1.1
		c0.3,0.3,0.6,0.5,1,0.7c0.4,0.2,0.8,0.3,1.2,0.3c0.4,0,0.9-0.1,1.2-0.3c0.4-0.2,0.7-0.4,1-0.7c0.3-0.3,0.5-0.6,0.7-1.1
		c0.2-0.4,0.2-0.8,0.2-1.3c0-0.9-0.3-1.7-0.9-2.4c-0.6-0.6-1.4-1-2.2-1c-0.4,0-0.8,0.1-1.2,0.3c-0.4,0.2-0.7,0.4-1,0.7
		c-0.3,0.3-0.5,0.6-0.7,1.1c-0.2,0.4-0.2,0.8-0.2,1.3C847,508,847,508.4,847.2,508.8 M856.5,532.6c0,2.1-0.9,3.1-2.6,3.1
		c-1.7,0-2.6-1-2.6-3.1V523c0-2.1,0.8-3.1,2.5-3.1h2.6V532.6z M863.7,533.2V515h-12c-2.1,0-3.8,0.7-5.3,2.2
		c-1.5,1.5-2.2,3.3-2.2,5.3v10.7c0,2.1,0.7,3.9,2.2,5.4c1.5,1.4,3.2,2.2,5.4,2.2h4.4c1.9,0,3.5-0.6,5-1.9c1.4,1.2,3,1.9,4.9,1.9h1.8
		v-4.9h-0.7C864.9,535.7,863.7,534.9,863.7,533.2 M824.9,487.8h2.1v-2.6h-2.2c-1.2,0-2.3,0.4-3.1,1.2c-0.9,0.8-1.3,1.9-1.3,3.1v1.9
		h-2v2.6h8.7v-2.6h-3.9v-1.7c0-0.7,0.2-1.2,0.4-1.5C823.7,488,824.2,487.8,824.9,487.8 M819,540.7h7.2v-43H819V540.7z M804.7,515
		v17.6c0,1.2-0.3,2-0.8,2.5c-0.6,0.4-1.5,0.7-2.7,0.7h-1.9v4.9h5.1c2.1,0,3.8-0.8,5.3-2.3c1.5-1.5,2.2-3.2,2.2-5.3V515H804.7z
		 M802,549.6c0.2,0.4,0.4,0.8,0.7,1.1c0.3,0.3,0.6,0.5,1,0.7c0.4,0.2,0.8,0.3,1.2,0.3c0.4,0,0.8-0.1,1.2-0.3c0.4-0.2,0.7-0.4,1-0.7
		c0.3-0.3,0.5-0.6,0.7-1.1c0.2-0.4,0.2-0.8,0.2-1.3c0-1-0.3-1.8-0.9-2.4c-0.6-0.6-1.3-1-2.2-1s-1.6,0.3-2.2,1
		c-0.6,0.6-0.9,1.4-0.9,2.4C801.8,548.7,801.9,549.2,802,549.6 M794.7,540.7h5.5v-4.9h-5.5V540.7z M790.2,540.7h5.5v-4.9h-5.5V540.7
		z M785.7,540.7h5.5v-4.9h-5.5V540.7z M781.2,540.7h5.5v-4.9h-5.5V540.7z M776.6,540.7h5.5v-4.9h-5.5V540.7z M772.1,540.7h5.5v-4.9
		h-5.5V540.7z M767.6,540.7h5.5v-4.9h-5.5V540.7z M763.1,540.7h5.5v-4.9h-5.5V540.7z M753.9,535.7h-1.7c-2.3,0-3.4-1.1-3.4-3.2v-9.4
		c0-2.2,1.3-3.2,3.8-3.2h1.4V535.7z M761,515h-12c-2.1,0-3.9,0.7-5.3,2.2c-1.5,1.4-2.2,3.2-2.2,5.3v10.6c0,2.1,0.7,3.9,2.2,5.3
		c1.4,1.5,3.2,2.2,5.2,2.2h4.9v2.7c0,0.4,0,0.8-0.1,1.2c-0.1,0.4-0.2,0.7-0.5,1c-0.4,0.7-1.1,1.1-1.8,1.1h-2.8v4.9h4.8
		c2,0,3.8-0.7,5.3-2.2c1.5-1.5,2.2-3.2,2.2-5.3v-3.3h3v-4.9h-3V515z M718.3,508.8c0.2,0.4,0.4,0.8,0.7,1.1c0.3,0.3,0.6,0.5,1,0.7
		c0.4,0.2,0.8,0.3,1.2,0.3c0.4,0,0.8-0.1,1.2-0.3c0.4-0.2,0.7-0.4,1-0.7c0.3-0.3,0.5-0.6,0.7-1.1c0.2-0.4,0.2-0.8,0.2-1.3
		c0-0.9-0.3-1.7-0.9-2.4c-0.6-0.6-1.3-1-2.2-1c-0.9,0-1.6,0.3-2.2,1c-0.6,0.6-0.9,1.4-0.9,2.4C718,508,718.1,508.4,718.3,508.8
		 M727.9,523.6v12.1H713v-12.4c0-2.3,1.1-3.5,3.2-3.5h8.4C726.8,519.9,727.9,521.1,727.9,523.6 M727.5,515H713v-17.3h-7.2v38.1H702
		v4.9h33.1v-18.3c0-2.1-0.7-3.8-2.2-5.3C731.4,515.7,729.6,515,727.5,515 M697.5,540.7h5.5v-4.9h-5.5V540.7z M693,540.7h5.5v-4.9
		H693V540.7z M688.4,540.7h5.5v-4.9h-5.5V540.7z M683.9,540.7h5.5v-4.9h-5.5V540.7z M679.4,540.7h5.5v-4.9h-5.5V540.7z M674.9,540.7
		h5.5v-4.9h-5.5V540.7z M670.3,540.7h5.5v-4.9h-5.5V540.7z M665.8,540.7h5.5v-4.9h-5.5V540.7z M665.3,540.7h1.5v-4.9h-0.6
		c-1.3,0-2.2-0.2-2.7-0.7c-0.5-0.4-0.8-1.3-0.8-2.5V515h-7.2v17.7c0,1.2-0.3,2-0.8,2.5c-0.6,0.4-1.5,0.7-2.7,0.7h-1.6v4.9h4.9
		c1,0,1.9-0.2,2.7-0.5c0.8-0.3,1.6-0.8,2.3-1.5C661.7,540,663.3,540.7,665.3,540.7 M657,551.3c0.4-0.2,0.7-0.4,1-0.7
		c0.3-0.3,0.5-0.6,0.7-1c0.2-0.4,0.2-0.8,0.2-1.3c0-0.5-0.1-0.9-0.2-1.3c-0.2-0.4-0.4-0.8-0.7-1.1s-0.6-0.5-1-0.7
		c-0.4-0.2-0.8-0.3-1.2-0.3c-0.4,0-0.8,0.1-1.2,0.3c-0.4,0.2-0.7,0.4-1,0.7c-0.3,0.3-0.5,0.7-0.7,1.1c-0.2,0.4-0.2,0.8-0.2,1.3
		c0,0.4,0.1,0.9,0.2,1.3c0.2,0.4,0.4,0.8,0.7,1c0.3,0.3,0.6,0.5,1,0.7c0.4,0.2,0.8,0.3,1.2,0.3C656.2,551.5,656.6,551.4,657,551.3
		 M645.7,540.7h5.5v-4.9h-5.5V540.7z M641.2,540.7h5.5v-4.9h-5.5V540.7z M636.7,540.7h5.5v-4.9h-5.5V540.7z M632.1,540.7h5.5v-4.9
		h-5.5V540.7z M627.6,540.7h5.5v-4.9h-5.5V540.7z M623.1,540.7h5.5v-4.9h-5.5V540.7z M618.6,540.7h5.5v-4.9h-5.5V540.7z M614,540.7
		h5.5v-4.9H614V540.7z M609.5,540.7h5.5v-4.9h-5.5V540.7z M580.9,545.2c-0.4,0.2-0.7,0.4-1,0.7c-0.3,0.3-0.5,0.6-0.7,1.1
		c-0.2,0.4-0.2,0.8-0.2,1.3c0,0.5,0.1,0.9,0.2,1.3c0.2,0.4,0.4,0.8,0.7,1c0.3,0.3,0.6,0.5,1,0.7c0.4,0.2,0.8,0.3,1.2,0.3
		c0.4,0,0.8-0.1,1.2-0.3c0.4-0.2,0.7-0.4,1-0.7c0.3-0.3,0.5-0.6,0.7-1c0.2-0.4,0.2-0.8,0.2-1.3c0-0.4-0.1-0.9-0.2-1.3
		c-0.2-0.4-0.4-0.8-0.7-1.1c-0.3-0.3-0.6-0.5-1-0.7c-0.4-0.2-0.8-0.3-1.2-0.3C581.6,544.9,581.2,545,580.9,545.2 M599.9,515h-4.5
		c-2.1,0-3.8,0.7-5.3,2.2c-1.5,1.6-2.2,3.3-2.2,5.4v13.2h-17.7c-1.6,0-2.5-1.1-2.5-3.2V515h-7.2v18.2c0,1,0.2,2,0.6,2.9
		c0.4,0.9,0.9,1.7,1.6,2.4c1.5,1.5,3.3,2.2,5.3,2.2h27V523c0-2.1,0.9-3.1,2.6-3.1c1.7,0,2.6,1,2.6,3.1v17.7h10.4v-4.9h-3.2v-13.2
		c0-2-0.7-3.8-2.2-5.4c-0.7-0.7-1.6-1.3-2.4-1.7C601.9,515.2,600.9,515,599.9,515 M573.6,545.2c-0.4,0.2-0.7,0.4-1,0.7
		c-0.3,0.3-0.5,0.6-0.7,1.1c-0.2,0.4-0.2,0.8-0.2,1.3c0,0.5,0.1,0.9,0.2,1.3c0.2,0.4,0.4,0.8,0.7,1c0.3,0.3,0.6,0.5,1,0.7
		c0.4,0.2,0.8,0.3,1.2,0.3c0.4,0,0.8-0.1,1.2-0.3c0.4-0.2,0.7-0.4,1-0.7c0.3-0.3,0.5-0.6,0.7-1c0.2-0.4,0.2-0.8,0.2-1.3
		c0-0.4-0.1-0.9-0.2-1.3c-0.2-0.4-0.4-0.8-0.7-1.1c-0.3-0.3-0.6-0.5-1-0.7c-0.4-0.2-0.8-0.3-1.2-0.3
		C574.3,544.9,573.9,545,573.6,545.2 M536.2,497.7v34.9c0,1.2-0.3,2-0.8,2.5c-0.6,0.4-1.4,0.7-2.4,0.7h-0.6v4.9h3.6
		c2.1,0,3.8-0.8,5.3-2.3c1.5-1.5,2.2-3.2,2.2-5.3v-35.5H536.2z M527.8,540.7h5.5v-4.9h-5.5V540.7z M523.3,540.7h5.5v-4.9h-5.5V540.7
		z M518.8,540.7h5.5v-4.9h-5.5V540.7z M514.2,540.7h5.5v-4.9h-5.5V540.7z M509.7,540.7h5.5v-4.9h-5.5V540.7z M505.2,540.7h5.5v-4.9
		h-5.5V540.7z M500.7,540.7h5.5v-4.9h-5.5V540.7z M496.1,540.7h5.5v-4.9h-5.5V540.7z M491.6,540.7h5.5v-4.9h-5.5V540.7z
		 M469.3,531.8h7.2v-34.1h-7.2V531.8z M490.5,540.7h2.1v-4.9H492c-1.2,0-2.1-0.2-2.7-0.7c-0.5-0.4-0.8-1.3-0.8-2.5v-34.9h-7.2v34.9
		c0,1.2-0.3,2-0.8,2.5c-0.6,0.4-1.4,0.7-2.6,0.7h-8.6v4.9h11.2c1.9,0,3.6-0.7,5-2C486.9,540,488.5,540.7,490.5,540.7 M475.3,547h2.1
		v-2.6h-2.2c-1.2,0-2.3,0.4-3.1,1.2c-0.9,0.8-1.3,1.9-1.3,3.1v1.9h-2v2.6h8.7v-2.6h-3.9v-1.7c0-0.7,0.2-1.2,0.5-1.5
		C474,547.1,474.5,547,475.3,547 M462.2,522.5c0-2.1-0.7-3.9-2.2-5.3c-1.5-1.5-3.2-2.2-5.3-2.2h-11.4v4.9h9.3c1.6,0,2.4,1.1,2.4,3.2
		v12.6h-11.6v4.9h18.8V522.5z M429.8,540.7h7.2v-43h-7.2V540.7z M423.3,515h-7.2v28.4c0,2.1-0.8,3.2-2.4,3.2h-2.4v4.9h4.5
		c2.1,0,3.8-0.7,5.3-2.2c1.5-1.5,2.2-3.2,2.2-5.3V515z M392.6,510.6c0.4-0.2,0.7-0.4,1-0.7c0.3-0.3,0.5-0.7,0.7-1.1
		c0.2-0.4,0.2-0.8,0.2-1.3c0-0.4-0.1-0.9-0.2-1.3c-0.2-0.4-0.4-0.8-0.7-1.1c-0.3-0.3-0.6-0.5-1-0.7c-0.4-0.2-0.8-0.3-1.2-0.3
		c-0.4,0-0.8,0.1-1.2,0.3c-0.4,0.2-0.7,0.4-1,0.7c-0.3,0.3-0.5,0.6-0.7,1.1c-0.2,0.4-0.2,0.8-0.2,1.3c0,0.5,0.1,0.9,0.2,1.3
		c0.2,0.4,0.4,0.8,0.7,1.1c0.3,0.3,0.6,0.5,1,0.7c0.4,0.2,0.8,0.3,1.2,0.3C391.8,510.8,392.2,510.8,392.6,510.6 M397.8,532.6
		c0,2.1-0.8,3.1-2.5,3.1c-1.7,0-2.6-1-2.6-3.1V523c0-2.1,0.8-3.1,2.5-3.1h2.6V532.6z M393,515c-2.1,0-3.9,0.8-5.3,2.3
		c-1.5,1.5-2.2,3.3-2.2,5.3v10.5c0,2.1,0.7,3.9,2.1,5.4c1.5,1.5,3.3,2.2,5.4,2.2h4.5c2.1,0,3.8-0.8,5.3-2.3c1.5-1.5,2.2-3.2,2.2-5.3
		V515H393z M399.8,510.6c0.4-0.2,0.7-0.4,1-0.7c0.3-0.3,0.5-0.7,0.7-1.1c0.2-0.4,0.2-0.8,0.2-1.3c0-0.4-0.1-0.9-0.2-1.3
		c-0.2-0.4-0.4-0.8-0.7-1.1c-0.3-0.3-0.6-0.5-1-0.7c-0.4-0.2-0.8-0.3-1.2-0.3c-0.4,0-0.8,0.1-1.2,0.3c-0.4,0.2-0.7,0.4-1,0.7
		c-0.3,0.3-0.5,0.6-0.7,1.1c-0.2,0.4-0.2,0.8-0.2,1.3c0,0.5,0.1,0.9,0.2,1.3c0.2,0.4,0.4,0.8,0.7,1.1c0.3,0.3,0.6,0.5,1,0.7
		c0.4,0.2,0.8,0.3,1.2,0.3C399.1,510.8,399.5,510.8,399.8,510.6"/>
	<path class="st0" d="M1059,568.1v4.2h7.6v22.2h5.8v-22.2h7.6v-4.2H1059z M1049.6,584.2l-10.2-16.2h-5.4v26.4h5.8v-16.1l10.1,16.1
		h5.5v-26.4h-5.8V584.2z M1012.2,594.5h18.2v-4.2H1018v-7.6h11.6v-4.2H1018v-6.1h12.4v-4.2h-18.2V594.5z M992.5,586.3l-5.7-18.3
		h-7.3l-1.7,26.4h5.8l1-15.7l4.9,15.7h6.6l4.8-15.5l0.9,15.5h5.6l-1.7-26.4h-7.2L992.5,586.3z M956.1,594.5h18.2v-4.2h-12.4v-7.6
		h11.6v-4.2h-11.6v-6.1h12.4v-4.2h-18.2V594.5z M941.1,580.3v4.2h4.7v4.8c-0.5,0.5-1.2,0.8-1.9,1c-0.7,0.2-1.6,0.2-2.7,0.2
		c-2.2,0-4-0.8-5.4-2.5c-1.3-1.7-2-3.9-2-6.8c0-2.9,0.7-5.1,2-6.8c1.3-1.7,3.1-2.5,5.4-2.5c1.5,0,2.8,0.2,3.9,0.7
		c1.1,0.5,2.7,1.3,4.7,2.6l0.8-4.6c-2.9-2-6.1-3-9.5-3c-2.1,0-4,0.4-5.7,1.1c-1.7,0.7-3.1,1.7-4.2,3c-1.1,1.2-1.9,2.7-2.5,4.3
		c-0.6,1.6-0.9,3.3-0.9,5.2c0,1.8,0.3,3.5,0.9,5.2c0.6,1.6,1.4,3.1,2.5,4.3c1.1,1.2,2.5,2.2,4.2,3c1.7,0.7,3.6,1.1,5.7,1.1
		c2.4,0,4.4-0.3,6.2-1.1c1.8-0.7,3.2-1.8,4.1-3.2v-10.2H941.1z M911.7,584.3l3-9.3l2.8,9.3H911.7z M902.7,594.5h5.8l1.9-5.9h8.5
		l2,5.9h5.8l-8.8-26.4h-6.5L902.7,594.5z M894.2,584.2L884,568.1h-5.4v26.4h5.8v-16.1l10.1,16.1h5.5v-26.4h-5.8V584.2z M861,584.3
		l3-9.3l2.8,9.3H861z M851.9,594.5h5.8l1.9-5.9h8.5l2,5.9h5.8l-8.8-26.4h-6.5L851.9,594.5z M834.4,586.3l-5.7-18.3h-7.3l-1.7,26.4
		h5.8l1-15.7l4.9,15.7h6.6l4.8-15.5l0.9,15.5h5.6l-1.7-26.4h-7.2L834.4,586.3z M787.1,594.5h5.8V583h11.2v-4.2h-11.2v-6.5h12v-4.2
		h-17.8V594.5z M776.9,581.2c0,2.9-0.7,5.1-2,6.8c-1.3,1.7-3.1,2.5-5.3,2.5c-2.2,0-4-0.8-5.4-2.5c-1.3-1.7-2-3.9-2-6.8
		c0-2.9,0.7-5.1,2-6.8c1.3-1.7,3.1-2.5,5.4-2.5c2.2,0,4,0.8,5.3,2.5C776.2,576.1,776.9,578.4,776.9,581.2 M759.7,571.7
		c-1.1,1.2-1.9,2.7-2.5,4.3c-0.6,1.6-0.9,3.3-0.9,5.2c0,1.8,0.3,3.5,0.9,5.2c0.6,1.6,1.4,3.1,2.5,4.3c1.1,1.2,2.5,2.2,4.2,3
		c1.7,0.7,3.6,1.1,5.7,1.1c2.1,0,4-0.4,5.7-1.1c1.7-0.7,3.1-1.7,4.2-3c1.1-1.2,1.9-2.7,2.5-4.3c0.6-1.6,0.9-3.3,0.9-5.2
		c0-1.8-0.3-3.5-0.9-5.2c-0.6-1.6-1.4-3.1-2.5-4.3c-1.1-1.2-2.5-2.2-4.2-3c-1.7-0.7-3.6-1.1-5.7-1.1c-2.1,0-4,0.4-5.7,1.1
		C762.2,569.5,760.8,570.5,759.7,571.7 M725.6,594.5h17.3v-4.2h-11.5v-22.2h-5.8V594.5z M715.4,581.2c0,2.9-0.7,5.1-2,6.8
		c-1.3,1.7-3.1,2.5-5.3,2.5c-2.2,0-4-0.8-5.3-2.5c-1.3-1.7-2-3.9-2-6.8c0-2.9,0.7-5.1,2-6.8c1.3-1.7,3.1-2.5,5.3-2.5
		c2.2,0,4,0.8,5.3,2.5C714.7,576.1,715.4,578.4,715.4,581.2 M698.2,571.7c-1.1,1.2-1.9,2.7-2.5,4.3c-0.6,1.6-0.9,3.3-0.9,5.2
		c0,1.8,0.3,3.5,0.9,5.2c0.6,1.6,1.4,3.1,2.5,4.3c1.1,1.2,2.5,2.2,4.2,3c1.7,0.7,3.6,1.1,5.7,1.1s4-0.4,5.7-1.1
		c1.7-0.7,3.1-1.7,4.2-3c1.1-1.2,1.9-2.7,2.5-4.3c0.6-1.6,0.9-3.3,0.9-5.2c0-1.8-0.3-3.5-0.9-5.2c-0.6-1.6-1.4-3.1-2.5-4.3
		c-1.1-1.2-2.5-2.2-4.2-3c-1.7-0.7-3.6-1.1-5.7-1.1s-4,0.4-5.7,1.1C700.7,569.5,699.3,570.5,698.2,571.7 M685.6,581.2
		c0,2.9-0.7,5.1-2,6.8c-1.3,1.7-3.1,2.5-5.3,2.5c-2.2,0-4-0.8-5.3-2.5c-1.3-1.7-2-3.9-2-6.8c0-2.9,0.7-5.1,2-6.8
		c1.3-1.7,3.1-2.5,5.3-2.5c2.2,0,4,0.8,5.3,2.5C684.9,576.1,685.6,578.4,685.6,581.2 M668.4,571.7c-1.1,1.2-1.9,2.7-2.5,4.3
		c-0.6,1.6-0.9,3.3-0.9,5.2c0,1.8,0.3,3.5,0.9,5.2c0.6,1.6,1.4,3.1,2.5,4.3c1.1,1.2,2.5,2.2,4.2,3c1.7,0.7,3.6,1.1,5.7,1.1
		s4-0.4,5.7-1.1c1.7-0.7,3.1-1.7,4.2-3c1.1-1.2,1.9-2.7,2.5-4.3c0.6-1.6,0.9-3.3,0.9-5.2c0-1.8-0.3-3.5-0.9-5.2
		c-0.6-1.6-1.4-3.1-2.5-4.3c-1.1-1.2-2.5-2.2-4.2-3c-1.7-0.7-3.6-1.1-5.7-1.1s-4,0.4-5.7,1.1C670.9,569.5,669.5,570.5,668.4,571.7
		 M655,578.9h-9.6v-10.8h-5.8v26.4h5.8v-11.4h9.6v11.4h5.8v-26.4H655V578.9z M632.6,589.3c-0.5,0.2-0.9,0.4-1.4,0.6
		c-0.5,0.2-0.9,0.3-1.3,0.4c-0.4,0.1-0.8,0.2-1.2,0.2s-0.8,0.1-1.2,0.1c-2.2,0-4-0.8-5.4-2.5c-1.3-1.7-2-3.9-2-6.8
		c0-1.9,0.3-3.6,0.9-5c0.6-1.4,1.5-2.5,2.6-3.2c1.1-0.8,2.4-1.1,3.9-1.1c1.1,0,2.2,0.2,3.1,0.5c0.9,0.3,2.3,1,4.2,2l0.8-4.7
		c-2.9-1.3-5.6-2-8.1-2c-2.1,0-4,0.4-5.7,1.1c-1.7,0.7-3.1,1.7-4.2,3c-1.1,1.2-1.9,2.7-2.5,4.3c-0.6,1.6-0.9,3.3-0.9,5.2
		c0,1.8,0.3,3.5,0.9,5.2c0.6,1.6,1.4,3.1,2.5,4.3c1.1,1.2,2.5,2.2,4.2,2.9c1.7,0.7,3.6,1.1,5.7,1.1c2.8,0,5.5-0.7,8.1-2l-1.3-4.3
		C633.6,588.8,633.1,589.1,632.6,589.3 M600.9,594.7c1.6,0.1,3.2-0.2,4.7-0.7c1.5-0.6,2.8-1.4,3.8-2.5c1-1.1,1.6-2.3,1.7-3.7
		c0.1-1.4-0.2-2.7-0.8-3.7c-0.6-1-1.6-1.9-3-2.7c-0.3-0.2-2.5-1.4-6.6-3.6c-0.8-0.5-1.4-0.9-1.7-1.4c-0.3-0.4-0.5-1-0.5-1.6
		c0-0.1,0-0.3,0-0.5c0-0.4,0.1-0.8,0.3-1.1c0.2-0.3,0.6-0.6,1.1-0.9c0.6-0.3,1.3-0.4,2.2-0.4c1.8,0,4,0.4,6.8,1.1l0.8-4.4
		c-3-0.7-5.5-1-7.6-1c-1.6,0-3,0.2-4.2,0.6c-1.2,0.4-2.2,1-2.9,1.6c-0.7,0.7-1.3,1.4-1.7,2.1c-0.4,0.7-0.6,1.4-0.6,2.2v0.6
		c0,1.7,0.4,3,1.2,4c0.8,1,2,1.9,3.7,2.8c3.1,1.6,5.1,2.7,6,3.3c1.2,0.7,1.8,1.6,1.8,2.7c0,1.9-1.4,2.8-4.2,2.7
		c-1.9-0.1-4.6-0.6-8.1-1.6l-0.8,4.3C595.6,594.1,598.4,594.6,600.9,594.7 M571,594.5h5.8v-26.4H571V594.5z M554.1,582.6h4
		c0.8,0,1.5,0.4,2.1,1.1c0.6,0.7,0.9,1.6,0.9,2.8s-0.3,2.1-0.9,2.8c-0.6,0.7-1.3,1.1-2.1,1.1h-4V582.6z M554.1,572.3h3.2
		c0.6,0,1.1,0.3,1.6,0.8c0.4,0.6,0.7,1.3,0.7,2.2c0,0.9-0.2,1.6-0.7,2.2c-0.4,0.6-1,0.8-1.6,0.8h-3.2V572.3z M548.4,594.5h10
		c2.5,0,4.5-0.8,6.2-2.4c1.7-1.6,2.5-3.5,2.5-5.6c0-1.3-0.3-2.5-0.9-3.6c-0.6-1.1-1.5-2-2.6-2.8c1.3-1.3,1.9-2.9,1.9-4.7
		c0-2-0.8-3.7-2.3-5.1c-1.5-1.4-3.4-2.2-5.6-2.2h-9.2V594.5z M530.4,584.3l3-9.3l2.8,9.3H530.4z M521.3,594.5h5.8l1.9-5.9h8.5l2,5.9
		h5.8l-8.8-26.4h-6.5L521.3,594.5z M512.5,578.9h-9.6v-10.8h-5.8v26.4h5.8v-11.4h9.6v11.4h5.8v-26.4h-5.8V578.9z M475,572.3h4.6
		c2.3,0,4.1,0.8,5.4,2.3c1.3,1.6,2,3.8,2,6.6c0,2.8-0.7,5-2,6.6c-1.3,1.6-3.1,2.4-5.4,2.4H475V572.3z M469.2,594.5h10.4
		c2.1,0,4-0.3,5.7-1c1.7-0.7,3.1-1.6,4.2-2.9c1.1-1.2,1.9-2.6,2.5-4.2c0.6-1.6,0.9-3.3,0.9-5.1c0-2.5-0.5-4.7-1.5-6.6
		s-2.5-3.5-4.5-4.7c-2-1.2-4.4-1.8-7.2-1.8h-10.4V594.5z M447.1,582.2c0,3-0.4,5.1-1.3,6.4c-0.8,1.3-2.3,1.9-4.4,1.9
		c-2.1,0-3.6-0.6-4.4-1.9c-0.8-1.3-1.3-3.4-1.3-6.4v-14.2h-5.8v14.2c0,1.9,0.2,3.6,0.6,5c0.4,1.5,1,2.8,1.9,3.9c0.9,1.2,2,2,3.6,2.7
		c1.5,0.6,3.3,0.9,5.4,0.9c2.1,0,3.9-0.3,5.4-0.9c1.5-0.6,2.7-1.5,3.5-2.7c0.9-1.2,1.5-2.5,1.9-3.9c0.4-1.5,0.6-3.2,0.6-5v-14.2
		h-5.8V582.2z M413.2,582.6h4c0.8,0,1.5,0.4,2.1,1.1c0.6,0.7,0.9,1.6,0.9,2.8s-0.3,2.1-0.9,2.8c-0.6,0.7-1.3,1.1-2.1,1.1h-4V582.6z
		 M413.2,572.3h3.2c0.6,0,1.1,0.3,1.6,0.8c0.4,0.6,0.7,1.3,0.7,2.2c0,0.9-0.2,1.6-0.7,2.2c-0.4,0.6-1,0.8-1.6,0.8h-3.2V572.3z
		 M407.4,594.5h10c2.5,0,4.5-0.8,6.2-2.4c1.7-1.6,2.5-3.5,2.5-5.6c0-1.3-0.3-2.5-0.9-3.6c-0.6-1.1-1.5-2-2.6-2.8
		c1.3-1.3,1.9-2.9,1.9-4.7c0-2-0.8-3.7-2.3-5.1c-1.5-1.4-3.4-2.2-5.6-2.2h-9.2V594.5z M389.4,584.3l3-9.3l2.8,9.3H389.4z
		 M380.4,594.5h5.8l1.9-5.9h8.5l2,5.9h5.8l-8.8-26.4h-6.5L380.4,594.5z"/>
	<path class="st1" d="M64.7,562.2H52c-1.8,0-3.4,0.3-5,1c-1.6,0.7-2.9,1.6-4,2.8c-1.1,1.2-2,2.5-2.7,4c-0.7,1.5-1,3.1-1,4.9
		c0,1.8,0.3,3.4,1,5c0.7,1.6,1.6,2.9,2.8,4c1.2,1.1,2.5,2,4,2.7c1.5,0.7,3.1,1,4.9,1c1.8,0,3.4-0.3,4.9-1c1.5-0.6,2.9-1.5,4-2.7
		c1.2-1.2,2.1-2.5,2.8-4.1c0.7-1.6,1-3.2,1-5V562.2z M52,524.2c3.4,0,6.6,0.5,9.6,1.5c3,1,5.6,2.3,7.8,4.1c2.2,1.8,4,3.8,5.3,6.1
		c1.3,2.3,2,4.8,2,7.4v49.5H65v-5h-0.3c-1.1,1.1-2.4,2.1-4.1,3.1c-1.4,0.8-3.1,1.5-5.1,2.1c-2,0.6-4.3,1-6.8,1
		c-2.9,0-5.7-0.5-8.3-1.5c-2.6-1-4.9-2.3-6.8-4c-2-1.7-3.5-3.7-4.6-6.1c-1.1-2.3-1.7-4.8-1.7-7.5c0-2.6,0.6-5.1,1.7-7.5
		c1.1-2.3,2.7-4.4,4.6-6.1c2-1.7,4.2-3,6.8-4c2.6-1,5.4-1.5,8.3-1.5h16v-12.7c0-3.5-1.2-6.5-3.7-9c-2.5-2.5-5.5-3.7-9-3.7
		c-2.5,0-4.8,0.6-6.7,1.9c-2,1.3-3.5,3-4.5,5.1l-7-7c2.3-1.9,4.9-3.5,8.1-4.6C44.8,524.8,48.3,524.2,52,524.2"/>
	<path class="st1" d="M122.1,543.2c0-1.8-0.3-3.4-1-4.9c-0.6-1.5-1.5-2.8-2.7-4c-1.2-1.2-2.5-2.1-4.1-2.8c-1.6-0.7-3.2-1-5-1
		s-3.4,0.3-5,1c-1.6,0.7-2.9,1.6-4.1,2.8c-1.2,1.2-2.1,2.5-2.7,4c-0.6,1.5-1,3.1-1,4.9v31.7c0,3.5,1.2,6.5,3.7,9
		c2.5,2.5,5.5,3.7,9,3.7c3.5,0,6.5-1.2,9-3.7c2.5-2.5,3.7-5.5,3.7-9V543.2z M134,486.1v106.7h-11.6v-5h-0.3
		c-1.1,1.1-2.4,2.1-4.1,3.1c-1.4,0.8-3.1,1.5-5.1,2.1c-2,0.6-4.3,1-6.8,1c-2.9,0-5.7-0.5-8.3-1.5c-2.6-1-4.9-2.3-6.8-4.1
		c-2-1.8-3.5-3.8-4.6-6.1c-1.1-2.3-1.7-4.8-1.7-7.4v-31.7c0-2.6,0.6-5.1,1.7-7.4c1.1-2.3,2.7-4.3,4.6-6.1c2-1.8,4.2-3.1,6.8-4.1
		c2.6-1,5.4-1.5,8.3-1.5c2.5,0,4.8,0.3,6.7,0.9c1.9,0.6,3.5,1.3,4.9,2c1.6,0.9,2.9,1.9,4.1,3.1h0.3v-44.1H134z"/>
	<path class="st1" d="M168.9,530.5c-1.8,0-3.4,0.3-5,1c-1.6,0.7-2.9,1.6-4.1,2.8c-1.2,1.2-2.1,2.5-2.7,4c-0.6,1.5-1,3.1-1,4.9
		c0,3.1,0.9,5.5,2.7,7.1c1.8,1.6,4.1,2.8,6.8,3.7c2.7,0.9,5.7,1.7,8.8,2.3c3.1,0.7,6.1,1.7,8.8,2.9c2.7,1.3,5,3.1,6.8,5.5
		c1.8,2.4,2.7,5.8,2.7,10.2c0,2.6-0.6,5.1-1.9,7.4c-1.3,2.3-3,4.3-5.3,6.1c-2.3,1.8-4.9,3.1-7.8,4.1c-3,1-6.2,1.5-9.6,1.5
		c-3.3,0-6.5-0.5-9.5-1.5c-3-1-5.6-2.3-7.8-4.1c-2.2-1.8-4-3.8-5.3-6.1c-1.3-2.3-2-4.8-2-7.4h11.9c0,1.8,0.3,3.4,1,5
		c0.7,1.6,1.6,2.9,2.8,4c1.2,1.1,2.5,2,4,2.7c1.5,0.7,3.2,1,4.9,1c1.8,0,3.4-0.3,4.9-1c1.5-0.6,2.9-1.5,4-2.7
		c1.2-1.2,2.1-2.5,2.8-4.1c0.7-1.6,1-3.2,1-5c0-3.2-0.9-5.6-2.6-7.2c-1.8-1.6-3.9-2.9-6.5-3.9c-2.6-1-5.4-1.8-8.4-2.5
		c-3-0.7-5.8-1.7-8.4-3c-2.6-1.3-4.8-3.1-6.5-5.4c-1.8-2.3-2.6-5.5-2.6-9.7c0-2.6,0.6-5.1,1.7-7.4c1.1-2.3,2.7-4.3,4.8-6
		c2.1-1.7,4.5-3.1,7.3-4.1c2.8-1,6-1.5,9.4-1.5c2.6,0,5,0.3,7.2,0.8c2.1,0.5,4,1.2,5.6,2c1.6,0.8,3,1.6,4,2.3c1.1,0.8,1.9,1.5,2.5,2
		c-0.3,0.3-0.8,0.8-1.5,1.5c-0.7,0.7-1.5,1.4-2.3,2.3c-0.8,0.8-1.5,1.6-2.3,2.3c-0.7,0.7-1.2,1.1-1.4,1.3c-0.2-0.7-0.6-1.5-1.2-2.4
		c-0.6-0.9-1.4-1.8-2.3-2.7c-1-0.9-2.2-1.6-3.5-2.2C172.3,530.8,170.7,530.5,168.9,530.5"/>
	<path class="st1" d="M199.4,592.8v-49.5c0-2.6,0.6-5.1,1.9-7.4c1.3-2.3,3-4.3,5.3-6.1c2.2-1.8,4.9-3.1,7.8-4.1c3-1,6.2-1.5,9.6-1.5
		c3.7,0,7.2,0.6,10.4,1.8c3.2,1.2,6,2.8,8.2,4.8c2.2-2,5-3.7,8.3-4.8c3.3-1.2,6.8-1.8,10.5-1.8c3.4,0,6.6,0.5,9.6,1.5
		c3,1,5.6,2.3,7.8,4.1c2.2,1.8,4,3.8,5.3,6.1c1.3,2.3,1.9,4.8,1.9,7.4v49.5h-11.9v-49.5c0-3.5-1.2-6.5-3.7-9c-2.5-2.5-5.5-3.7-9-3.7
		c-3.5,0-6.5,1.2-9,3.7c-2.5,2.5-3.7,5.5-3.7,9v49.5h-11.9v-49.5c0-3.5-1.2-6.5-3.7-9c-2.5-2.5-5.5-3.7-9-3.7s-6.5,1.2-9,3.7
		c-2.5,2.5-3.7,5.5-3.7,9v49.5H199.4z"/>
</g>
</svg>
