<?xml version="1.0" encoding="utf-8"?>
<!-- Generator: Adobe Illustrator 27.3.1, SVG Export Plug-In . SVG Version: 6.00 Build 0)  -->
<svg version="1.1" id="Layer_1" xmlns="http://www.w3.org/2000/svg" xmlns:xlink="http://www.w3.org/1999/xlink" x="0px" y="0px"
	 viewBox="0 0 456.65 228.46" style="enable-background:new 0 0 456.65 228.46;" xml:space="preserve">
<style type="text/css">
	.st0{fill:#004411;}
	.st1{fill:#FFFFFF;}
</style>
<g>
	<path class="st0" d="M60.72,63.33c0,0-8.68,0-8.68,8.64v84.51c0,0,0,8.64,8.68,8.64h84.94c0,0,8.69,0,8.69-8.64V71.97
		c0,0,0-8.64-8.69-8.64H60.72z"/>
	<path class="st0" d="M400.67,100.41l-5.65,5.62v1.65h5.3c0.56,0,0.84,0.35,0.84,1.04v3.05c0,0.71-0.28,1.07-0.84,1.07h-6.56v1.62
		h7.29c0.68,0,1.25-0.24,1.73-0.73c0.48-0.49,0.72-1.07,0.72-1.75v-3.45c0-0.69-0.24-1.27-0.72-1.75c-0.47-0.48-1.05-0.72-1.73-0.72
		h-3.17l5.68-5.65H400.67z M392.29,114.46h1.79v-1.62h-1.79V114.46z M390.82,114.46h1.79v-1.62h-1.79V114.46z M389.34,114.46h1.79
		v-1.62h-1.79V114.46z M387.86,114.46h1.79v-1.62h-1.79V114.46z M386.39,114.46h1.79v-1.62h-1.79V114.46z M384.91,114.46h1.79v-1.62
		h-1.79V114.46z M383.43,114.46h1.79v-1.62h-1.79V114.46z M381.96,114.46h1.79v-1.62h-1.79V114.46z M380.48,114.46h1.79v-1.62h-1.79
		V114.46z M379,114.46h1.79v-1.62H379V114.46z M377.53,114.46h1.79v-1.62h-1.79V114.46z M377.33,114.46h0.5v-1.62h-0.19
		c-0.4,0-0.69-0.07-0.87-0.22c-0.17-0.15-0.26-0.42-0.26-0.81v-11.4h-2.35v11.4c0,0.4-0.09,0.67-0.26,0.81
		c-0.18,0.15-0.44,0.22-0.79,0.22h-0.16v1.62h1.12c0.63-0.01,1.18-0.23,1.62-0.66C376.15,114.22,376.69,114.44,377.33,114.46
		 M371.47,114.46h1.79v-1.62h-1.79V114.46z M370,114.46h1.79v-1.62H370V114.46z M368.52,114.46h1.79v-1.62h-1.79V114.46z
		 M367.04,114.46h1.79v-1.62h-1.79V114.46z M365.57,114.46h1.79v-1.62h-1.79V114.46z M364.09,114.46h1.79v-1.62h-1.79V114.46z
		 M362.61,114.46h1.79v-1.62h-1.79V114.46z M361.14,114.46h1.79v-1.62h-1.79V114.46z M359.66,114.46h1.79v-1.62h-1.79V114.46z
		 M358.18,114.46h1.79v-1.62h-1.79V114.46z M356.71,114.46h1.79v-1.62h-1.79V114.46z M356.18,114.46h0.84v-1.62h-0.53
		c-0.41,0-0.71-0.07-0.88-0.22c-0.17-0.15-0.26-0.41-0.26-0.8v-5.76H353v5.76c0,0.39-0.09,0.66-0.26,0.8
		c-0.18,0.15-0.47,0.22-0.88,0.22h-0.54v1.62h1.6c0.31-0.01,0.61-0.06,0.88-0.17c0.27-0.1,0.52-0.27,0.74-0.49
		C355,114.22,355.55,114.44,356.18,114.46 M353.4,117.91c0.12-0.06,0.23-0.13,0.32-0.23c0.09-0.1,0.17-0.21,0.22-0.34
		c0.05-0.13,0.08-0.27,0.08-0.42c0-0.15-0.03-0.29-0.08-0.43c-0.05-0.13-0.13-0.25-0.22-0.34c-0.09-0.1-0.2-0.17-0.32-0.23
		c-0.12-0.06-0.25-0.08-0.39-0.08s-0.27,0.03-0.39,0.08c-0.12,0.05-0.23,0.13-0.32,0.23c-0.09,0.1-0.16,0.21-0.21,0.34
		c-0.05,0.13-0.08,0.27-0.08,0.43c0,0.15,0.03,0.29,0.08,0.42c0.05,0.13,0.12,0.25,0.21,0.34c0.09,0.1,0.2,0.17,0.32,0.23
		c0.12,0.05,0.25,0.08,0.39,0.08S353.28,117.96,353.4,117.91 M354.45,117.33c0.05,0.13,0.13,0.25,0.22,0.34
		c0.09,0.1,0.2,0.17,0.32,0.23c0.12,0.05,0.25,0.08,0.39,0.08c0.14,0,0.27-0.03,0.39-0.08c0.12-0.06,0.23-0.13,0.33-0.23
		c0.09-0.1,0.17-0.21,0.22-0.34c0.05-0.13,0.08-0.27,0.08-0.42c0-0.15-0.03-0.29-0.08-0.43c-0.05-0.13-0.12-0.25-0.22-0.34
		c-0.1-0.1-0.2-0.17-0.33-0.23c-0.12-0.06-0.25-0.08-0.39-0.08c-0.14,0-0.27,0.03-0.39,0.08c-0.12,0.05-0.23,0.13-0.32,0.23
		c-0.09,0.1-0.17,0.21-0.22,0.34c-0.05,0.13-0.08,0.27-0.08,0.43C354.37,117.06,354.4,117.2,354.45,117.33 M349.8,114.46h1.79v-1.62
		h-1.79V114.46z M348.33,114.46h1.79v-1.62h-1.79V114.46z M346.85,114.46h1.79v-1.62h-1.79V114.46z M345.37,114.46h1.79v-1.62h-1.79
		V114.46z M343.9,114.46h1.79v-1.62h-1.79V114.46z M342.42,114.46h1.79v-1.62h-1.79V114.46z M340.94,114.46h1.79v-1.62h-1.79V114.46
		z M339.47,114.46h1.79v-1.62h-1.79V114.46z M337.99,114.46h1.79v-1.62h-1.79V114.46z M336.51,114.46h1.79v-1.62h-1.79V114.46z
		 M335.04,114.46h1.79v-1.62h-1.79V114.46z M332.31,104.63c0.12-0.06,0.23-0.13,0.32-0.23c0.09-0.1,0.17-0.21,0.22-0.34
		c0.06-0.13,0.08-0.27,0.08-0.42c0-0.15-0.03-0.3-0.08-0.43c-0.05-0.13-0.13-0.25-0.22-0.34c-0.09-0.1-0.2-0.17-0.32-0.23
		c-0.12-0.06-0.25-0.08-0.39-0.08c-0.14,0-0.27,0.03-0.39,0.08c-0.12,0.06-0.23,0.13-0.33,0.23c-0.09,0.1-0.17,0.21-0.22,0.34
		s-0.08,0.27-0.08,0.43c0,0.15,0.03,0.29,0.08,0.42s0.13,0.25,0.22,0.34c0.1,0.1,0.2,0.17,0.33,0.23c0.12,0.06,0.25,0.08,0.39,0.08
		C332.06,104.71,332.19,104.68,332.31,104.63 M328.61,104.06c0.05,0.13,0.12,0.25,0.21,0.34c0.09,0.1,0.2,0.17,0.32,0.23
		c0.12,0.06,0.25,0.08,0.39,0.08c0.15,0,0.28-0.03,0.4-0.08c0.12-0.06,0.23-0.13,0.32-0.23c0.09-0.1,0.17-0.21,0.22-0.34
		c0.05-0.13,0.08-0.27,0.08-0.42c0-0.3-0.1-0.56-0.29-0.77c-0.2-0.21-0.44-0.31-0.73-0.31c-0.14,0-0.27,0.03-0.39,0.08
		c-0.12,0.06-0.23,0.13-0.32,0.23c-0.09,0.1-0.16,0.21-0.21,0.34c-0.05,0.13-0.08,0.27-0.08,0.43
		C328.53,103.78,328.56,103.92,328.61,104.06 M331.65,111.82c0,0.68-0.28,1.02-0.84,1.02c-0.56,0-0.85-0.33-0.85-1v-3.15
		c0-0.68,0.28-1.02,0.83-1.02h0.86V111.82z M334,112.02v-5.96h-3.91c-0.67,0-1.25,0.24-1.74,0.73c-0.49,0.5-0.73,1.08-0.73,1.73V112
		c0,0.67,0.23,1.26,0.7,1.75c0.47,0.47,1.06,0.71,1.75,0.71h1.45c0.61,0,1.16-0.21,1.63-0.63c0.45,0.4,0.98,0.61,1.61,0.63h0.6
		v-1.62h-0.23C334.38,112.84,334,112.57,334,112.02 M321.35,97.2h0.67v-0.85h-0.73c-0.4,0-0.74,0.13-1.01,0.41
		c-0.28,0.27-0.43,0.61-0.44,1v0.63h-0.66v0.84h2.84v-0.84h-1.29v-0.55c0-0.24,0.05-0.4,0.15-0.48
		C320.95,97.25,321.11,97.2,321.35,97.2 M319.42,114.46h2.35v-14.05h-2.35V114.46z M314.74,106.06v5.75c0,0.39-0.09,0.66-0.26,0.81
		c-0.18,0.15-0.47,0.22-0.88,0.22h-0.61v1.62h1.67c0.67-0.01,1.24-0.26,1.72-0.74c0.47-0.49,0.71-1.06,0.71-1.72v-5.94H314.74z
		 M313.86,117.35c0.05,0.13,0.13,0.25,0.22,0.34c0.09,0.1,0.2,0.17,0.33,0.23c0.13,0.06,0.26,0.08,0.4,0.08
		c0.14,0,0.27-0.03,0.4-0.08c0.13-0.05,0.23-0.13,0.32-0.23c0.09-0.1,0.16-0.21,0.21-0.34c0.05-0.13,0.08-0.27,0.08-0.42
		c0-0.31-0.1-0.57-0.29-0.78c-0.2-0.21-0.44-0.31-0.72-0.31c-0.29,0-0.53,0.1-0.73,0.31c-0.2,0.21-0.3,0.47-0.3,0.78
		C313.79,117.08,313.81,117.22,313.86,117.35 M311.48,114.46h1.79v-1.62h-1.79V114.46z M310,114.46h1.79v-1.62H310V114.46z
		 M308.53,114.46h1.79v-1.62h-1.79V114.46z M307.05,114.46h1.79v-1.62h-1.79V114.46z M305.57,114.46h1.79v-1.62h-1.79V114.46z
		 M304.1,114.46h1.79v-1.62h-1.79V114.46z M302.62,114.46h1.79v-1.62h-1.79V114.46z M301.15,114.46h1.79v-1.62h-1.79V114.46z
		 M298.14,112.84h-0.55c-0.75,0-1.12-0.34-1.12-1.03v-3.08c0-0.7,0.41-1.05,1.23-1.05h0.45V112.84z M300.48,106.06h-3.92
		c-0.68,0-1.26,0.24-1.73,0.73c-0.48,0.47-0.72,1.05-0.72,1.74v3.46c0,0.68,0.24,1.26,0.72,1.74c0.47,0.49,1.04,0.73,1.71,0.73h1.59
		v0.87c0,0.14-0.01,0.27-0.04,0.38c-0.03,0.12-0.08,0.23-0.15,0.32c-0.15,0.23-0.35,0.34-0.6,0.34h-0.9v1.62h1.58
		c0.66,0,1.24-0.24,1.73-0.73c0.48-0.48,0.72-1.06,0.72-1.74v-1.06h0.98v-1.62h-0.98V106.06z M286.53,104.06
		c0.05,0.13,0.12,0.25,0.22,0.34c0.1,0.1,0.21,0.17,0.33,0.23c0.13,0.06,0.26,0.08,0.4,0.08c0.14,0,0.27-0.03,0.4-0.08
		c0.12-0.06,0.23-0.13,0.32-0.23c0.09-0.1,0.16-0.21,0.21-0.34s0.08-0.27,0.08-0.42c0-0.3-0.1-0.56-0.29-0.77
		c-0.2-0.21-0.44-0.31-0.72-0.31c-0.29,0-0.53,0.1-0.73,0.31c-0.2,0.21-0.3,0.47-0.3,0.77
		C286.45,103.78,286.48,103.92,286.53,104.06 M289.68,108.88v3.96h-4.86v-4.04c0-0.75,0.35-1.13,1.05-1.13h2.75
		C289.32,107.67,289.68,108.07,289.68,108.88 M289.53,106.06h-4.71v-5.65h-2.35v12.43h-1.25v1.62h10.8v-5.97
		c0-0.68-0.24-1.25-0.73-1.72C290.81,106.29,290.23,106.06,289.53,106.06 M279.74,114.46h1.79v-1.62h-1.79V114.46z M278.26,114.46
		h1.79v-1.62h-1.79V114.46z M276.78,114.46h1.79v-1.62h-1.79V114.46z M275.31,114.46h1.79v-1.62h-1.79V114.46z M273.83,114.46h1.79
		v-1.62h-1.79V114.46z M272.35,114.46h1.79v-1.62h-1.79V114.46z M270.88,114.46h1.79v-1.62h-1.79V114.46z M269.4,114.46h1.79v-1.62
		h-1.79V114.46z M269.22,114.46h0.5v-1.62h-0.2c-0.41,0-0.71-0.07-0.88-0.22c-0.17-0.15-0.26-0.41-0.26-0.8v-5.76h-2.35v5.76
		c0,0.39-0.09,0.66-0.26,0.8c-0.18,0.15-0.47,0.22-0.88,0.22h-0.54v1.62h1.59c0.31-0.01,0.61-0.06,0.88-0.17
		c0.27-0.1,0.52-0.27,0.74-0.49C268.04,114.22,268.59,114.44,269.22,114.46 M266.51,117.91c0.12-0.06,0.23-0.13,0.32-0.23
		c0.09-0.1,0.17-0.21,0.22-0.34c0.05-0.13,0.08-0.27,0.08-0.42c0-0.15-0.03-0.29-0.08-0.43c-0.05-0.13-0.13-0.25-0.22-0.35
		c-0.09-0.1-0.2-0.18-0.32-0.23c-0.12-0.05-0.25-0.08-0.39-0.08s-0.27,0.03-0.39,0.08c-0.12,0.06-0.23,0.13-0.32,0.23
		c-0.09,0.1-0.17,0.22-0.22,0.35c-0.05,0.13-0.08,0.27-0.08,0.43c0,0.15,0.03,0.29,0.08,0.42c0.05,0.13,0.13,0.25,0.22,0.34
		c0.09,0.1,0.2,0.17,0.32,0.23c0.12,0.05,0.25,0.08,0.39,0.08S266.39,117.96,266.51,117.91 M262.83,114.46h1.79v-1.62h-1.79V114.46z
		 M261.35,114.46h1.79v-1.62h-1.79V114.46z M259.88,114.46h1.79v-1.62h-1.79V114.46z M258.4,114.46h1.79v-1.62h-1.79V114.46z
		 M256.92,114.46h1.79v-1.62h-1.79V114.46z M255.45,114.46h1.79v-1.62h-1.79V114.46z M253.97,114.46h1.79v-1.62h-1.79V114.46z
		 M252.49,114.46h1.79v-1.62h-1.79V114.46z M251.02,114.46h1.79v-1.62h-1.79V114.46z M241.66,115.91c-0.12,0.05-0.23,0.13-0.32,0.23
		c-0.09,0.1-0.17,0.21-0.22,0.34c-0.05,0.13-0.08,0.27-0.08,0.42c0,0.15,0.03,0.3,0.08,0.43c0.05,0.13,0.13,0.25,0.22,0.34
		c0.09,0.1,0.2,0.17,0.32,0.23c0.12,0.05,0.25,0.08,0.39,0.08c0.14,0,0.27-0.03,0.39-0.08c0.12-0.06,0.23-0.13,0.32-0.23
		c0.09-0.1,0.16-0.21,0.21-0.34c0.05-0.13,0.08-0.28,0.08-0.43c0-0.14-0.03-0.28-0.08-0.42c-0.05-0.13-0.12-0.25-0.21-0.34
		c-0.09-0.1-0.2-0.17-0.32-0.23c-0.12-0.06-0.25-0.08-0.39-0.08C241.91,115.83,241.78,115.86,241.66,115.91 M247.87,106.06h-1.46
		c-0.68,0-1.25,0.24-1.73,0.73c-0.49,0.51-0.73,1.09-0.73,1.75v4.3h-5.77c-0.54,0-0.81-0.34-0.81-1.03v-5.75h-2.35V112
		c0,0.33,0.06,0.64,0.18,0.93c0.12,0.29,0.3,0.55,0.53,0.8c0.49,0.49,1.07,0.73,1.74,0.73h8.82v-5.76c0-0.68,0.28-1.02,0.84-1.02
		c0.57,0,0.85,0.34,0.85,1.02v5.76h3.38v-1.62h-1.04v-4.3c0-0.67-0.24-1.25-0.72-1.75c-0.24-0.24-0.51-0.43-0.79-0.55
		C248.53,106.12,248.21,106.06,247.87,106.06 M239.28,115.91c-0.12,0.05-0.23,0.13-0.32,0.23c-0.09,0.1-0.17,0.21-0.22,0.34
		c-0.05,0.13-0.08,0.27-0.08,0.42c0,0.15,0.03,0.3,0.08,0.43c0.05,0.13,0.13,0.25,0.22,0.34c0.09,0.1,0.2,0.17,0.32,0.23
		c0.12,0.05,0.25,0.08,0.39,0.08c0.14,0,0.27-0.03,0.39-0.08c0.12-0.06,0.23-0.13,0.33-0.23c0.09-0.1,0.17-0.21,0.22-0.34
		c0.05-0.13,0.08-0.28,0.08-0.43c0-0.14-0.03-0.28-0.08-0.42c-0.05-0.13-0.13-0.25-0.22-0.34c-0.1-0.1-0.2-0.17-0.33-0.23
		c-0.12-0.06-0.25-0.08-0.39-0.08C239.54,115.83,239.4,115.86,239.28,115.91 M227.08,100.41v11.4c0,0.39-0.09,0.66-0.26,0.81
		c-0.18,0.15-0.44,0.22-0.79,0.22h-0.21v1.62h1.17c0.67-0.01,1.24-0.26,1.72-0.74c0.47-0.49,0.71-1.06,0.71-1.72v-11.59H227.08z
		 M224.34,114.46h1.79v-1.62h-1.79V114.46z M222.86,114.46h1.79v-1.62h-1.79V114.46z M221.39,114.46h1.79v-1.62h-1.79V114.46z
		 M219.91,114.46h1.79v-1.62h-1.79V114.46z M218.43,114.46h1.79v-1.62h-1.79V114.46z M216.96,114.46h1.79v-1.62h-1.79V114.46z
		 M215.48,114.46h1.79v-1.62h-1.79V114.46z M214,114.46h1.79v-1.62H214V114.46z M212.53,114.46h1.79v-1.62h-1.79V114.46z
		 M205.26,111.54h2.35v-11.13h-2.35V111.54z M212.15,114.46h0.7v-1.62h-0.19c-0.4,0-0.69-0.07-0.87-0.22
		c-0.17-0.15-0.26-0.42-0.26-0.81v-11.4h-2.35v11.4c0,0.4-0.09,0.67-0.26,0.81c-0.18,0.15-0.47,0.22-0.86,0.22h-2.81v1.62h3.65
		c0.64-0.01,1.18-0.23,1.62-0.66C210.97,114.22,211.52,114.44,212.15,114.46 M207.19,116.5h0.67v-0.85h-0.73
		c-0.41,0-0.74,0.13-1.01,0.41c-0.28,0.27-0.43,0.6-0.44,1v0.63h-0.66v0.84h2.84v-0.84h-1.29v-0.55c0-0.24,0.05-0.4,0.15-0.48
		C206.79,116.55,206.95,116.5,207.19,116.5 M202.92,108.53c0-0.68-0.24-1.26-0.71-1.74c-0.48-0.49-1.05-0.73-1.73-0.73h-3.71v1.62
		h3.03c0.52,0,0.77,0.35,0.77,1.05v4.12h-3.8v1.62h6.15V108.53z M192.34,114.46h2.35v-14.05h-2.35V114.46z M190.24,106.06h-2.35
		v9.26c0,0.7-0.26,1.05-0.79,1.05h-0.78v1.62h1.46c0.67,0,1.25-0.24,1.73-0.73c0.48-0.48,0.72-1.06,0.72-1.73V106.06z
		 M180.19,104.63c0.12-0.06,0.23-0.13,0.32-0.23c0.1-0.1,0.17-0.22,0.22-0.35c0.05-0.13,0.08-0.28,0.08-0.43
		c0-0.14-0.03-0.28-0.08-0.42c-0.05-0.13-0.13-0.25-0.22-0.34c-0.09-0.1-0.2-0.17-0.32-0.23c-0.12-0.06-0.25-0.08-0.39-0.08
		c-0.14,0-0.27,0.03-0.39,0.08c-0.12,0.05-0.23,0.13-0.32,0.23c-0.09,0.1-0.17,0.21-0.22,0.34c-0.05,0.13-0.08,0.27-0.08,0.42
		c0,0.15,0.03,0.3,0.08,0.43c0.05,0.13,0.13,0.25,0.22,0.35c0.09,0.1,0.2,0.18,0.32,0.23c0.12,0.06,0.25,0.08,0.39,0.08
		C179.94,104.71,180.07,104.68,180.19,104.63 M181.89,111.82c0,0.68-0.28,1.02-0.83,1.02c-0.57,0-0.85-0.34-0.85-1.02v-3.13
		c0-0.68,0.28-1.02,0.83-1.02h0.85V111.82z M180.33,106.06c-0.68,0-1.26,0.25-1.73,0.75c-0.49,0.49-0.73,1.06-0.73,1.73v3.44
		c0,0.7,0.23,1.28,0.7,1.75c0.48,0.49,1.06,0.73,1.75,0.73h1.47c0.68,0,1.25-0.25,1.73-0.74c0.48-0.48,0.72-1.06,0.72-1.74v-5.92
		H180.33z M182.57,104.63c0.12-0.06,0.23-0.13,0.32-0.23c0.09-0.1,0.16-0.22,0.21-0.35c0.05-0.13,0.08-0.28,0.08-0.43
		c0-0.14-0.03-0.28-0.08-0.42c-0.05-0.13-0.12-0.25-0.21-0.34c-0.09-0.1-0.2-0.17-0.32-0.23c-0.12-0.06-0.25-0.08-0.39-0.08
		c-0.14,0-0.27,0.03-0.39,0.08c-0.12,0.05-0.23,0.13-0.32,0.23c-0.1,0.1-0.17,0.21-0.22,0.34s-0.08,0.27-0.08,0.42
		c0,0.15,0.03,0.3,0.08,0.43s0.13,0.25,0.22,0.35c0.09,0.1,0.2,0.18,0.32,0.23c0.12,0.06,0.25,0.08,0.39,0.08
		C182.32,104.71,182.45,104.68,182.57,104.63"/>
	<path class="st0" d="M397.75,123.39v1.38h2.49v7.25h1.88v-7.25h2.49v-1.38H397.75z M394.68,128.67l-3.32-5.28h-1.77v8.63h1.88
		v-5.26l3.31,5.26h1.78v-8.63h-1.88V128.67z M382.47,132.01h5.95v-1.38h-4.06v-2.49h3.79v-1.38h-3.79v-2h4.06v-1.38h-5.95V132.01z
		 M376.04,129.36l-1.88-5.97h-2.4l-0.56,8.63h1.89l0.32-5.13l1.58,5.13h2.16l1.55-5.07l0.3,5.07h1.83l-0.55-8.63h-2.37
		L376.04,129.36z M364.16,132.01h5.95v-1.38h-4.06v-2.49h3.79v-1.38h-3.79v-2h4.06v-1.38h-5.95V132.01z M359.26,127.38v1.38h1.55
		v1.56c-0.17,0.16-0.38,0.26-0.61,0.31c-0.23,0.05-0.53,0.08-0.89,0.08c-0.73,0-1.31-0.27-1.75-0.82c-0.44-0.55-0.66-1.29-0.66-2.22
		s0.22-1.67,0.66-2.22c0.44-0.55,1.02-0.82,1.75-0.82c0.49,0,0.92,0.07,1.29,0.22c0.37,0.15,0.89,0.44,1.55,0.86l0.27-1.49
		c-0.95-0.65-1.99-0.97-3.11-0.97c-0.69,0-1.3,0.12-1.85,0.36c-0.55,0.24-1,0.56-1.36,0.97c-0.36,0.41-0.63,0.88-0.82,1.41
		c-0.19,0.53-0.29,1.09-0.29,1.69s0.09,1.16,0.29,1.69c0.19,0.53,0.46,1,0.82,1.4c0.35,0.41,0.81,0.73,1.36,0.97
		c0.55,0.24,1.17,0.36,1.85,0.36c0.77,0,1.45-0.11,2.03-0.34c0.59-0.23,1.04-0.58,1.35-1.05v-3.33H359.26z M349.68,128.7l0.97-3.03
		l0.91,3.03H349.68z M346.72,132.01h1.9l0.62-1.94h2.77l0.65,1.94h1.89l-2.86-8.63h-2.11L346.72,132.01z M343.96,128.67l-3.32-5.28
		h-1.77v8.63h1.88v-5.26l3.31,5.26h1.78v-8.63h-1.88V128.67z M333.11,128.7l0.97-3.03l0.91,3.03H333.11z M330.16,132.01h1.9
		l0.62-1.94h2.77l0.65,1.94h1.89l-2.86-8.63h-2.11L330.16,132.01z M324.44,129.36l-1.88-5.97h-2.4l-0.56,8.63h1.89l0.32-5.13
		l1.58,5.13h2.16l1.55-5.07l0.3,5.07h1.83l-0.55-8.63h-2.37L324.44,129.36z M308.99,132.01h1.88v-3.73h3.65v-1.38h-3.65v-2.13h3.93
		v-1.38h-5.81V132.01z M305.66,127.68c0,0.93-0.22,1.67-0.65,2.22c-0.43,0.55-1.01,0.82-1.74,0.82s-1.31-0.27-1.75-0.82
		c-0.44-0.55-0.66-1.29-0.66-2.22s0.22-1.67,0.66-2.22c0.44-0.55,1.02-0.82,1.75-0.82s1.31,0.27,1.74,0.82
		C305.44,126.01,305.66,126.75,305.66,127.68 M300.06,124.59c-0.36,0.41-0.63,0.88-0.82,1.41c-0.19,0.53-0.29,1.09-0.29,1.69
		s0.09,1.16,0.29,1.69c0.19,0.53,0.46,1,0.82,1.4c0.36,0.41,0.81,0.73,1.36,0.97c0.55,0.24,1.16,0.36,1.85,0.36
		c0.68,0,1.3-0.12,1.85-0.36c0.55-0.24,1.01-0.56,1.36-0.97c0.35-0.41,0.62-0.88,0.81-1.4c0.19-0.53,0.29-1.09,0.29-1.69
		s-0.09-1.16-0.29-1.69c-0.19-0.53-0.46-1-0.81-1.41c-0.35-0.41-0.8-0.73-1.36-0.97c-0.55-0.24-1.17-0.36-1.85-0.36
		c-0.68,0-1.3,0.12-1.85,0.36C300.86,123.86,300.41,124.18,300.06,124.59 M288.91,132.01h5.64v-1.38h-3.75v-7.25h-1.88V132.01z
		 M285.58,127.68c0,0.93-0.22,1.67-0.65,2.22c-0.43,0.55-1.01,0.82-1.74,0.82c-0.73,0-1.31-0.27-1.75-0.82
		c-0.44-0.55-0.66-1.29-0.66-2.22s0.22-1.67,0.66-2.22c0.44-0.55,1.02-0.82,1.75-0.82c0.73,0,1.31,0.27,1.74,0.82
		C285.36,126.01,285.58,126.75,285.58,127.68 M279.98,124.59c-0.36,0.41-0.63,0.88-0.82,1.41c-0.19,0.53-0.29,1.09-0.29,1.69
		s0.1,1.16,0.29,1.69c0.19,0.53,0.46,1,0.82,1.4c0.36,0.41,0.81,0.73,1.36,0.97c0.55,0.24,1.16,0.36,1.85,0.36s1.3-0.12,1.85-0.36
		c0.55-0.24,1.01-0.56,1.36-0.97c0.35-0.41,0.62-0.88,0.81-1.4c0.19-0.53,0.29-1.09,0.29-1.69s-0.1-1.16-0.29-1.69
		c-0.19-0.53-0.46-1-0.81-1.41c-0.35-0.41-0.8-0.73-1.36-0.97c-0.55-0.24-1.17-0.36-1.85-0.36s-1.3,0.12-1.85,0.36
		C280.79,123.86,280.33,124.18,279.98,124.59 M275.85,127.68c0,0.93-0.22,1.67-0.65,2.22c-0.43,0.55-1.01,0.82-1.74,0.82
		c-0.73,0-1.31-0.27-1.75-0.82c-0.44-0.55-0.66-1.29-0.66-2.22s0.22-1.67,0.66-2.22c0.44-0.55,1.02-0.82,1.75-0.82
		c0.73,0,1.31,0.27,1.74,0.82C275.64,126.01,275.85,126.75,275.85,127.68 M270.25,124.59c-0.36,0.41-0.63,0.88-0.82,1.41
		c-0.19,0.53-0.29,1.09-0.29,1.69s0.1,1.16,0.29,1.69c0.19,0.53,0.46,1,0.82,1.4c0.36,0.41,0.81,0.73,1.36,0.97
		c0.55,0.24,1.16,0.36,1.85,0.36c0.68,0,1.3-0.12,1.85-0.36c0.55-0.24,1.01-0.56,1.36-0.97c0.35-0.41,0.62-0.88,0.81-1.4
		c0.19-0.53,0.29-1.09,0.29-1.69s-0.1-1.16-0.29-1.69c-0.19-0.53-0.46-1-0.81-1.41c-0.35-0.41-0.8-0.73-1.36-0.97
		c-0.55-0.24-1.17-0.36-1.85-0.36c-0.68,0-1.3,0.12-1.85,0.36C271.06,123.86,270.61,124.18,270.25,124.59 M265.86,126.92h-3.13
		v-3.54h-1.88v8.63h1.88v-3.71h3.13v3.71h1.88v-8.63h-1.88V126.92z M258.55,130.31c-0.15,0.07-0.3,0.13-0.45,0.19
		c-0.15,0.06-0.28,0.1-0.41,0.13c-0.12,0.03-0.25,0.05-0.38,0.07c-0.13,0.02-0.26,0.03-0.4,0.03c-0.73,0-1.31-0.27-1.75-0.82
		c-0.44-0.55-0.66-1.28-0.66-2.21c0-0.62,0.1-1.16,0.3-1.62c0.2-0.46,0.48-0.81,0.84-1.05c0.36-0.25,0.79-0.37,1.26-0.37
		c0.37,0,0.71,0.05,1,0.15c0.3,0.1,0.76,0.32,1.38,0.65l0.26-1.54c-0.93-0.43-1.81-0.64-2.64-0.64c-0.68,0-1.29,0.12-1.85,0.36
		c-0.55,0.24-1.01,0.56-1.36,0.97c-0.36,0.41-0.63,0.88-0.82,1.41c-0.19,0.53-0.29,1.09-0.29,1.69s0.09,1.16,0.29,1.69
		c0.19,0.53,0.46,1,0.82,1.4c0.35,0.41,0.81,0.73,1.36,0.96c0.55,0.23,1.17,0.35,1.85,0.35c0.91,0,1.79-0.22,2.64-0.65l-0.43-1.39
		C258.89,130.16,258.71,130.25,258.55,130.31 M248.2,132.1c0.53,0.03,1.04-0.05,1.54-0.23c0.5-0.18,0.91-0.45,1.25-0.81
		c0.33-0.36,0.51-0.76,0.54-1.22c0.03-0.47-0.06-0.87-0.27-1.21c-0.2-0.34-0.53-0.64-0.97-0.89c-0.11-0.07-0.83-0.46-2.17-1.17
		c-0.27-0.15-0.46-0.3-0.57-0.44c-0.11-0.14-0.16-0.32-0.16-0.53c0-0.04,0-0.09,0.01-0.15c0.01-0.13,0.04-0.25,0.11-0.35
		c0.07-0.1,0.19-0.2,0.37-0.29c0.18-0.09,0.42-0.13,0.71-0.13c0.59,0,1.32,0.12,2.21,0.37l0.26-1.43c-0.98-0.22-1.8-0.33-2.47-0.33
		c-0.51,0-0.97,0.07-1.38,0.2c-0.4,0.14-0.72,0.31-0.96,0.53c-0.24,0.22-0.42,0.45-0.54,0.68c-0.12,0.24-0.19,0.47-0.21,0.7v0.21
		c0,0.55,0.13,0.99,0.4,1.31c0.26,0.32,0.66,0.63,1.2,0.92c1,0.54,1.65,0.9,1.97,1.08c0.39,0.23,0.58,0.53,0.58,0.89
		c0,0.63-0.45,0.92-1.36,0.88c-0.61-0.02-1.49-0.2-2.64-0.53l-0.25,1.42C246.47,131.89,247.4,132.07,248.2,132.1 M238.44,132.01
		h1.88v-8.63h-1.88V132.01z M232.94,128.14h1.31c0.26,0,0.49,0.12,0.69,0.34c0.19,0.23,0.29,0.53,0.29,0.9s-0.1,0.67-0.29,0.9
		c-0.19,0.23-0.42,0.34-0.69,0.34h-1.31V128.14z M232.94,124.77H234c0.2,0,0.37,0.09,0.51,0.28c0.14,0.19,0.22,0.43,0.22,0.72
		c0,0.3-0.07,0.54-0.22,0.72c-0.14,0.18-0.32,0.28-0.51,0.28h-1.05V124.77z M231.06,132.01h3.26c0.8,0,1.47-0.26,2.01-0.77
		c0.54-0.51,0.81-1.13,0.81-1.84c0-0.43-0.1-0.82-0.3-1.18c-0.2-0.36-0.48-0.66-0.84-0.91c0.42-0.44,0.63-0.95,0.63-1.54
		c0-0.65-0.25-1.21-0.74-1.68c-0.5-0.47-1.11-0.7-1.83-0.7h-3V132.01z M225.18,128.7l0.97-3.03l0.91,3.03H225.18z M222.23,132.01
		h1.9l0.62-1.94h2.77l0.65,1.94h1.89l-2.86-8.63h-2.11L222.23,132.01z M219.34,126.92h-3.13v-3.54h-1.88v8.63h1.88v-3.71h3.13v3.71
		h1.88v-8.63h-1.88V126.92z M207.1,124.77h1.5c0.74,0,1.33,0.25,1.76,0.76c0.43,0.51,0.64,1.23,0.64,2.16
		c0,0.92-0.22,1.64-0.65,2.16c-0.43,0.52-1.02,0.78-1.75,0.78h-1.5V124.77z M205.22,132.01h3.38c0.69,0,1.3-0.11,1.85-0.34
		c0.55-0.23,1-0.54,1.36-0.94c0.36-0.4,0.63-0.86,0.82-1.38c0.19-0.52,0.29-1.08,0.29-1.67c0-0.8-0.16-1.53-0.49-2.17
		s-0.82-1.16-1.48-1.55c-0.66-0.39-1.44-0.59-2.34-0.59h-3.38V132.01z M198.01,128.01c0,0.98-0.14,1.68-0.41,2.1
		c-0.27,0.42-0.75,0.63-1.44,0.63c-0.69,0-1.16-0.21-1.44-0.63c-0.27-0.42-0.41-1.12-0.41-2.1v-4.62h-1.88v4.62
		c0,0.62,0.06,1.16,0.19,1.65c0.12,0.48,0.33,0.91,0.61,1.29c0.28,0.38,0.67,0.67,1.16,0.87c0.5,0.2,1.09,0.3,1.78,0.3
		s1.28-0.1,1.77-0.3c0.49-0.2,0.88-0.49,1.16-0.87c0.28-0.38,0.48-0.81,0.61-1.29c0.12-0.48,0.19-1.03,0.19-1.65v-4.62h-1.88V128.01
		z M186.94,128.14h1.31c0.27,0,0.49,0.12,0.69,0.34c0.19,0.23,0.29,0.53,0.29,0.9s-0.1,0.67-0.29,0.9
		c-0.19,0.23-0.42,0.34-0.69,0.34h-1.31V128.14z M186.94,124.77h1.05c0.2,0,0.37,0.09,0.51,0.28c0.14,0.19,0.22,0.43,0.22,0.72
		c0,0.3-0.07,0.54-0.22,0.72c-0.14,0.18-0.32,0.28-0.51,0.28h-1.05V124.77z M185.05,132.01h3.26c0.8,0,1.47-0.26,2.01-0.77
		c0.54-0.51,0.81-1.13,0.81-1.84c0-0.43-0.1-0.82-0.3-1.18c-0.2-0.36-0.48-0.66-0.84-0.91c0.42-0.44,0.63-0.95,0.63-1.54
		c0-0.65-0.25-1.21-0.74-1.68c-0.5-0.47-1.11-0.7-1.83-0.7h-3V132.01z M179.17,128.7l0.97-3.03l0.91,3.03H179.17z M176.22,132.01
		h1.89l0.62-1.94h2.77l0.65,1.94h1.9l-2.86-8.63h-2.11L176.22,132.01z"/>
	<path class="st1" d="M73.17,121.48h-4.17c-0.57,0-1.12,0.11-1.63,0.33c-0.51,0.22-0.95,0.53-1.32,0.91
		c-0.37,0.38-0.66,0.82-0.89,1.31c-0.22,0.49-0.33,1.03-0.33,1.6c0,0.57,0.11,1.11,0.33,1.62c0.22,0.51,0.53,0.95,0.91,1.31
		c0.38,0.37,0.82,0.66,1.32,0.88c0.49,0.22,1.03,0.33,1.6,0.33c0.58,0,1.11-0.1,1.61-0.31c0.49-0.21,0.93-0.5,1.31-0.88
		c0.38-0.38,0.69-0.83,0.91-1.34c0.22-0.51,0.34-1.05,0.34-1.62V121.48z M69.01,109.08c1.12,0,2.16,0.16,3.14,0.48
		c0.97,0.32,1.82,0.76,2.54,1.34c0.72,0.57,1.29,1.23,1.72,1.98c0.43,0.75,0.65,1.55,0.65,2.41v16.17h-3.78v-1.62h-0.1
		c-0.35,0.35-0.8,0.68-1.34,1c-0.45,0.26-1,0.49-1.65,0.69c-0.65,0.21-1.4,0.31-2.23,0.31c-0.96,0-1.86-0.16-2.71-0.48
		c-0.85-0.32-1.59-0.76-2.23-1.31c-0.64-0.56-1.14-1.22-1.51-1.98c-0.37-0.76-0.55-1.57-0.55-2.43s0.18-1.67,0.55-2.43
		c0.37-0.76,0.87-1.42,1.51-1.98c0.64-0.56,1.38-0.99,2.23-1.31c0.85-0.32,1.75-0.48,2.71-0.48h5.22v-4.15
		c0-1.14-0.41-2.12-1.22-2.94c-0.81-0.81-1.8-1.22-2.95-1.22c-0.83,0-1.56,0.21-2.2,0.62c-0.64,0.41-1.13,0.97-1.48,1.67l-2.3-2.29
		c0.73-0.63,1.61-1.14,2.64-1.5C66.68,109.26,67.79,109.08,69.01,109.08"/>
	<path class="st1" d="M91.89,115.28c0-0.57-0.1-1.11-0.31-1.6c-0.21-0.49-0.5-0.93-0.89-1.31c-0.38-0.38-0.83-0.68-1.34-0.9
		c-0.51-0.22-1.05-0.34-1.63-0.34c-0.57,0-1.12,0.11-1.63,0.34c-0.51,0.22-0.96,0.52-1.34,0.9c-0.38,0.38-0.68,0.82-0.88,1.31
		c-0.21,0.49-0.31,1.03-0.31,1.6v10.35c0,1.15,0.41,2.12,1.22,2.93c0.81,0.81,1.79,1.22,2.94,1.22c1.15,0,2.13-0.41,2.94-1.22
		c0.81-0.81,1.22-1.79,1.22-2.93V115.28z M95.77,96.62v34.83h-3.78v-1.62h-0.1c-0.35,0.35-0.8,0.68-1.34,1
		c-0.45,0.26-1,0.49-1.65,0.69c-0.66,0.21-1.4,0.31-2.23,0.31c-0.96,0-1.86-0.16-2.71-0.48c-0.84-0.32-1.59-0.76-2.22-1.34
		c-0.64-0.57-1.14-1.23-1.51-1.98c-0.37-0.75-0.55-1.55-0.55-2.41v-10.35c0-0.86,0.18-1.66,0.55-2.41c0.37-0.75,0.87-1.41,1.51-1.98
		c0.64-0.57,1.38-1.02,2.22-1.34c0.85-0.32,1.75-0.48,2.71-0.48c0.83,0,1.56,0.1,2.18,0.29c0.62,0.19,1.16,0.42,1.6,0.67
		c0.51,0.29,0.96,0.62,1.34,1h0.1V96.62H95.77z"/>
	<path class="st1" d="M107.17,111.13c-0.57,0-1.12,0.11-1.63,0.33c-0.51,0.22-0.96,0.52-1.34,0.91c-0.38,0.38-0.68,0.82-0.88,1.31
		c-0.21,0.49-0.31,1.03-0.31,1.6c0,1.02,0.29,1.79,0.89,2.31c0.59,0.53,1.33,0.93,2.22,1.22c0.89,0.29,1.85,0.54,2.87,0.76
		c1.02,0.22,1.98,0.54,2.87,0.95c0.89,0.41,1.64,1.01,2.23,1.79c0.59,0.78,0.89,1.89,0.89,3.32c0,0.86-0.21,1.66-0.62,2.41
		c-0.42,0.75-0.99,1.41-1.72,1.98c-0.73,0.57-1.59,1.02-2.56,1.34c-0.97,0.32-2.02,0.48-3.14,0.48c-1.09,0-2.12-0.16-3.11-0.48
		c-0.99-0.32-1.84-0.76-2.56-1.34c-0.72-0.57-1.29-1.23-1.72-1.98c-0.43-0.75-0.65-1.55-0.65-2.41h3.88c0,0.57,0.11,1.11,0.34,1.62
		c0.22,0.51,0.53,0.95,0.91,1.31c0.38,0.37,0.82,0.66,1.32,0.88c0.49,0.22,1.03,0.34,1.6,0.34s1.11-0.1,1.6-0.31
		c0.5-0.21,0.93-0.5,1.32-0.88c0.38-0.38,0.69-0.83,0.91-1.34c0.22-0.51,0.34-1.05,0.34-1.62c0-1.05-0.29-1.84-0.86-2.36
		c-0.58-0.52-1.29-0.95-2.13-1.26c-0.85-0.32-1.77-0.59-2.75-0.81c-0.99-0.22-1.91-0.55-2.75-0.98c-0.84-0.43-1.55-1.02-2.13-1.77
		c-0.57-0.75-0.86-1.81-0.86-3.17c0-0.86,0.18-1.66,0.55-2.41c0.37-0.75,0.89-1.4,1.56-1.96c0.67-0.55,1.47-1,2.39-1.34
		c0.93-0.33,1.95-0.5,3.06-0.5c0.86,0,1.64,0.09,2.35,0.26c0.7,0.17,1.32,0.39,1.84,0.64c0.53,0.25,0.96,0.51,1.32,0.76
		c0.35,0.26,0.62,0.48,0.81,0.67c-0.09,0.1-0.26,0.26-0.5,0.48c-0.24,0.22-0.49,0.47-0.74,0.74c-0.26,0.27-0.5,0.52-0.74,0.74
		c-0.24,0.22-0.39,0.37-0.46,0.43c-0.06-0.22-0.19-0.49-0.38-0.79c-0.19-0.3-0.45-0.6-0.77-0.88c-0.32-0.29-0.7-0.52-1.15-0.71
		C108.3,111.22,107.77,111.13,107.17,111.13"/>
	<path class="st1" d="M117.13,131.45v-16.17c0-0.86,0.21-1.66,0.62-2.41c0.41-0.75,0.99-1.41,1.72-1.98
		c0.73-0.57,1.59-1.02,2.56-1.34c0.97-0.32,2.02-0.48,3.14-0.48c1.21,0,2.35,0.19,3.4,0.57c1.05,0.38,1.95,0.91,2.68,1.57
		c0.73-0.67,1.63-1.19,2.7-1.57c1.07-0.38,2.21-0.57,3.42-0.57c1.12,0,2.16,0.16,3.14,0.48c0.97,0.32,1.83,0.76,2.56,1.34
		c0.73,0.57,1.31,1.23,1.72,1.98c0.42,0.75,0.62,1.55,0.62,2.41v16.17h-3.88v-16.17c0-1.15-0.41-2.12-1.22-2.94
		c-0.81-0.81-1.8-1.22-2.95-1.22c-1.15,0-2.13,0.41-2.94,1.22c-0.81,0.81-1.22,1.79-1.22,2.94v16.17h-3.88v-16.17
		c0-1.15-0.41-2.12-1.22-2.94c-0.81-0.81-1.8-1.22-2.95-1.22c-1.15,0-2.13,0.41-2.94,1.22c-0.81,0.81-1.22,1.79-1.22,2.94v16.17
		H117.13z"/>
</g>
</svg>
