<?xml version="1.0" encoding="utf-8"?>
<!-- Generator: Adobe Illustrator 27.3.1, SVG Export Plug-In . SVG Version: 6.00 Build 0)  -->
<svg version="1.1" id="Layer_1" xmlns="http://www.w3.org/2000/svg" xmlns:xlink="http://www.w3.org/1999/xlink" x="0px" y="0px"
	 viewBox="0 0 1080 1080" style="enable-background:new 0 0 1080 1080;" xml:space="preserve">
<style type="text/css">
	.st0{fill:#162F59;}
	.st1{fill:#CBB677;}
</style>
<g>
	<path class="st0" d="M94.97,451.07h35.41v35.41c0,9.09-7.37,16.47-16.47,16.47H94.97c-9.1,0-16.47-7.37-16.47-16.47v-18.95
		C78.5,458.45,85.87,451.07,94.97,451.07"/>
	<path class="st0" d="M146.85,399.2h35.41v35.41c0,9.1-7.37,16.47-16.47,16.47h-35.41v-35.41
		C130.38,406.57,137.75,399.2,146.85,399.2"/>
	<path class="st0" d="M198.73,347.32h18.94c9.1,0,16.47,7.37,16.47,16.47v35.41h-51.88v-35.41
		C182.26,354.69,189.63,347.32,198.73,347.32"/>
	<path class="st0" d="M234.14,399.2h35.41c9.1,0,16.47,7.37,16.47,16.47v18.94c0,9.1-7.37,16.47-16.47,16.47H250.6
		c-9.1,0-16.47-7.37-16.47-16.47V399.2z"/>
	<path class="st1" d="M291.99,479.85c0-12.47,10.1-22.57,22.57-22.57s22.57,10.1,22.57,22.57c0,12.47-10.1,22.57-22.57,22.57
		S291.99,492.32,291.99,479.85"/>
	<path class="st1" d="M238.31,535.43c0-12.47,10.1-22.57,22.57-22.57c12.46,0,22.56,10.1,22.56,22.57
		c0,12.47-10.1,22.57-22.56,22.57C248.41,558,238.31,547.9,238.31,535.43"/>
	<path class="st1" d="M184.39,587.93c0-12.47,10.1-22.57,22.57-22.57s22.56,10.1,22.56,22.57c0,12.47-10.1,22.56-22.56,22.56
		S184.39,600.4,184.39,587.93"/>
	<path class="st1" d="M129.52,535.43c0-12.47,10.1-22.57,22.57-22.57c12.46,0,22.57,10.1,22.57,22.57
		c0,12.47-10.1,22.57-22.57,22.57C139.62,558,129.52,547.9,129.52,535.43"/>
	<path class="st0" d="M367.78,566.45v65.3h-14.55v-8.44c-5.14,6.23-12.72,9.29-21.65,9.29c-19.07,0-33.02-13.21-33.02-33.51
		c0-20.3,13.94-33.38,33.02-33.38c8.32,0,15.65,2.81,20.91,8.68v-7.95H367.78z M352.74,599.1c0-12.47-8.32-20.42-19.44-20.42
		c-11,0-19.32,7.95-19.32,20.42c0,12.47,8.32,20.42,19.32,20.42C344.42,619.52,352.74,611.57,352.74,599.1"/>
	<path class="st0" d="M420.72,565.72v14.55c-1.35-0.25-2.45-0.36-3.55-0.36c-11.62,0-18.95,6.85-18.95,20.18v31.67h-15.29v-65.3
		h14.55v9.54C401.89,569.14,409.83,565.72,420.72,565.72"/>
	<path class="st0" d="M498.12,599.1c0,20.3-14.06,33.51-33.14,33.51c-8.93,0-16.51-3.06-21.64-9.29v8.44h-14.55v-90.73h15.29v33.38
		c5.26-5.87,12.6-8.68,20.91-8.68C484.06,565.72,498.12,578.8,498.12,599.1 M482.59,599.1c0-12.47-8.32-20.42-19.32-20.42
		s-19.44,7.95-19.44,20.42c0,12.47,8.44,20.42,19.44,20.42S482.59,611.57,482.59,599.1"/>
	<path class="st0" d="M505.7,546.52c0-5.13,4.16-9.17,9.78-9.17c5.62,0,9.78,3.79,9.78,8.81c0,5.38-4.04,9.54-9.78,9.54
		C509.85,555.69,505.7,551.65,505.7,546.52 M507.78,566.45h15.29v65.3h-15.29V566.45z"/>
	<path class="st0" d="M574.9,628.2c-3.67,2.94-9.17,4.4-14.67,4.4c-14.31,0-22.5-7.58-22.5-22.01v-58.57h15.29v14.92h17.49v12.23
		h-17.49v31.06c0,6.36,3.3,9.78,9.05,9.78c3.18,0,6.23-0.85,8.56-2.69L574.9,628.2z"/>
	<path class="st0" d="M620.39,565.72v14.55c-1.35-0.25-2.45-0.36-3.55-0.36c-11.62,0-18.95,6.85-18.95,20.18v31.67H582.6v-65.3
		h14.55v9.54C601.56,569.14,609.5,565.72,620.39,565.72"/>
	<path class="st0" d="M691.67,566.45v65.3h-14.55v-8.44c-5.14,6.23-12.72,9.29-21.65,9.29c-19.07,0-33.02-13.21-33.02-33.51
		c0-20.3,13.94-33.38,33.02-33.38c8.32,0,15.65,2.81,20.91,8.68v-7.95H691.67z M676.63,599.1c0-12.47-8.32-20.42-19.44-20.42
		c-11.01,0-19.32,7.95-19.32,20.42c0,12.47,8.31,20.42,19.32,20.42C668.32,619.52,676.63,611.57,676.63,599.1"/>
	<path class="st0" d="M743.51,628.2c-3.67,2.94-9.17,4.4-14.67,4.4c-14.31,0-22.5-7.58-22.5-22.01v-58.57h15.29v14.92h17.49v12.23
		h-17.49v31.06c0,6.36,3.3,9.78,9.05,9.78c3.18,0,6.23-0.85,8.56-2.69L743.51,628.2z"/>
	<path class="st0" d="M797.8,612.55l8.07,9.42c-5.75,6.97-14.92,10.64-26.17,10.64c-21.89,0-36.07-14.06-36.07-33.51
		s14.18-33.38,33.63-33.38c18.22,0,32.9,12.23,33.02,32.65l-50.02,9.78c3.18,7.46,10.27,11.49,19.81,11.49
		C787.41,619.65,793.04,617.32,797.8,612.55 M758.43,598.24v0.12l36.93-7.09c-2.08-7.95-8.93-13.33-18.1-13.33
		C766.13,577.95,758.43,585.77,758.43,598.24"/>
	<path class="st0" d="M896.85,584.3v47.45h-15.9v-22.01h-44.51v22.01h-15.65V584.3c0-25.68,15.29-39.37,38.03-39.37
		C881.56,544.93,896.85,558.62,896.85,584.3 M880.95,596.41v-13.58c0-16.26-8.68-23.96-22.26-23.96c-13.57,0-22.25,7.7-22.25,23.96
		v13.58H880.95z"/>
	<path class="st0" d="M914.2,546.15h37.42c27.76,0,46.71,17.12,46.71,42.8c0,25.68-18.95,42.8-46.71,42.8H914.2V546.15z
		 M950.88,618.3c19.07,0,31.42-11.62,31.42-29.35c0-17.73-12.35-29.35-31.42-29.35H930.1v58.7H950.88z"/>
	<path class="st0" d="M334.51,681.16h-1.8c-2.87,0-5.3-1.07-7.32-3.01c-1.51,2.24-3.75,3.38-6.73,3.38c-4.88,0-8.31-3.75-8.31-8.6
		c0-1.62,0.33-3.05,1.03-4.3h-3.02c-2.76,0-4.52,2.43-4.52,6.43v12.2h-4.12v-13.05c0-5.92,3.16-9.77,8.64-9.77h10.29
		c3.68,0,6.73,2.1,7.64,5.29c1.7,5.81,3.27,7.24,6.36,7.24h1.84V681.16z M322.68,673.08c0-2.72-1.62-4.89-4.15-4.89
		c-2.35,0-3.93,1.99-3.93,4.7c0,2.76,1.73,4.85,4.19,4.85C321.02,677.75,322.68,675.88,322.68,673.08"/>
	<rect x="333.14" y="676.98" class="st0" width="8.12" height="4.19"/>
	<rect x="333.13" y="676.98" class="st0" width="8.13" height="4.19"/>
	<rect x="340.41" y="676.98" class="st0" width="8.13" height="4.19"/>
	<rect x="347.69" y="676.98" class="st0" width="8.13" height="4.19"/>
	<rect x="354.98" y="676.98" class="st0" width="8.13" height="4.19"/>
	<rect x="362.26" y="676.98" class="st0" width="8.13" height="4.19"/>
	<rect x="369.54" y="676.98" class="st0" width="8.13" height="4.19"/>
	<path class="st0" d="M380.57,689.22h-4.04v-4.12h4.04V689.22z M393.66,681.17h-16.94v-4.19h3.93c1.21,0,2.06-0.41,2.5-1.25
		c0.29-0.55,0.44-1.51,0.44-2.79v-8.45h4.08v8.23c0,2.16-0.29,3.56-0.92,4.26h6.91V681.17z M387.52,689.22h-4.04v-4.12h4.04V689.22z
		"/>
	<rect x="392.72" y="676.98" class="st0" width="8.12" height="4.19"/>
	<path class="st0" d="M428.88,681.17h-28.96v-4.19h20.18c0-2.28-0.66-4.22-1.99-5.85c-1.54-1.87-3.67-2.79-6.36-2.79h-8.49
		l7.24-10.88h4.89l-4.96,7.02h1.8c2.53,0,4.78,0.59,6.73,1.77c3.34,2.05,5.19,5.62,5.52,10.73h4.41V681.17z"/>
	<path class="st0" d="M457.31,681.17h-29.51v-4.19h21.25c0-2.28-0.62-4.22-1.91-5.85c-1.51-1.87-3.64-2.79-6.33-2.79
		c-0.92,0-1.94,0.22-3.08,0.7c-1.33,0.56-2.43,1.33-3.31,2.32c-0.4-0.77-1.06-1.84-1.98-3.23c1.14-1.07,2.43-1.95,3.93-2.61
		c1.62-0.7,3.24-1.03,4.85-1.03c2.54,0,4.78,0.59,6.69,1.77c3.35,2.05,5.18,5.62,5.51,10.73h3.9V681.17z"/>
	<path class="st0" d="M460.08,661.06h-4.04v-4.08h4.04V661.06z M473.24,681.17h-16.98v-4.19h3.83c1.21,0,2.02-0.41,2.46-1.25
		c0.3-0.55,0.44-1.51,0.44-2.79v-8.45h4.08v8.23c0,2.16-0.3,3.56-0.88,4.26h7.06V681.17z M467.06,661.06h-4.04v-4.08h4.04V661.06z"
		/>
	<path class="st0" d="M488.94,681.17h-16.83v-4.19h3.82c1.22,0,2.02-0.41,2.47-1.25c0.29-0.55,0.44-1.51,0.44-2.79v-15.47h4.08
		v15.25c0,2.17-0.29,3.56-0.88,4.26h6.91V681.17z"/>
	<path class="st0" d="M498.39,674.51c0,4.45-2.06,6.65-6.18,6.65h-4.33v-4.18h3.49c1.36,0,2.2-0.41,2.61-1.21
		c0.18-0.45,0.29-1.33,0.29-2.65v-15.66h4.12V674.51z"/>
	<path class="st0" d="M542.89,676.98v4.19c-4.52,0-5.81-0.7-7.5-3.24c-1.18,5.73-6.1,9.33-12.09,9.33
		c-7.06,0-12.64-5.51-12.64-12.75v-4.12h4.12v3.64c0,5.7,3.31,9.26,8.64,9.26c4.78,0,8.38-3.15,8.38-6.91
		c0-2.28-1.36-3.89-3.71-3.89c-0.22,0-0.44,0-0.66,0.04v-3.75h1.62c3.24,0,5.66,1.47,7.28,4.37c1.51,2.76,2.94,3.83,5.04,3.83
		H542.89z M521.87,695.39h-4.04v-4.08h4.04V695.39z M528.81,695.39h-4.04v-4.08h4.04V695.39z"/>
	<rect x="541.88" y="676.98" class="st0" width="8.12" height="4.19"/>
	<rect x="541.88" y="676.98" class="st0" width="8.12" height="4.19"/>
	<rect x="549.16" y="676.98" class="st0" width="8.13" height="4.19"/>
	<rect x="556.44" y="676.98" class="st0" width="8.13" height="4.19"/>
	<rect x="563.73" y="676.98" class="st0" width="8.12" height="4.19"/>
	<rect x="571.01" y="676.98" class="st0" width="8.12" height="4.19"/>
	<rect x="578.29" y="676.98" class="st0" width="8.13" height="4.19"/>
	<path class="st0" d="M595.97,674.51c0,4.45-2.06,6.65-6.18,6.65h-4.34v-4.18h3.5c1.36,0,2.2-0.41,2.61-1.21
		c0.18-0.45,0.29-1.33,0.29-2.65v-15.66h4.12V674.51z"/>
	<path class="st0" d="M616.01,680.65c0,4.37-2.65,6.58-7.98,6.58v-3.27c2.57-0.07,3.86-1.8,3.93-4.67c-0.7,1.25-2.02,1.87-3.89,1.87
		c-4.75,0-7.9-3.49-7.9-8.38c0-4.96,3.27-8.34,7.9-8.34c4.85,0,7.94,3.61,7.94,8.46V680.65z M611.78,672.97
		c0-2.87-1.55-4.78-3.9-4.78c-2.17,0-3.6,2.1-3.6,4.59c0,2.58,1.55,4.67,3.79,4.67C610.27,677.45,611.78,675.4,611.78,672.97"/>
	<path class="st0" d="M644.06,681.17h-23.85v-4.19h13.31c0-4.81-1.88-7.61-5.59-8.42c-1.14-0.26-2.39-0.33-3.71-0.33v-3.75
		c2.02,0,3.31,0.04,3.82,0.07c0.52,0.04,1.25,0.18,2.21,0.52c4.92,1.65,7.39,5.62,7.43,11.91h6.39V681.17z"/>
	<rect x="642.35" y="676.98" class="st0" width="8.12" height="4.19"/>
	<path class="st0" d="M660.03,674.51c0,4.45-2.06,6.65-6.18,6.65h-4.33v-4.18h3.49c1.36,0,2.2-0.41,2.61-1.21
		c0.18-0.45,0.29-1.33,0.29-2.65v-15.66h4.12V674.51z"/>
	<rect x="664.56" y="657.43" class="st0" width="4.08" height="23.74"/>
	<path class="st0" d="M713.13,676.98v4.19c-4.52,0-5.81-0.7-7.5-3.24c-1.18,5.73-6.11,9.33-12.1,9.33
		c-7.06,0-12.64-5.51-12.64-12.75v-4.12h4.12v3.64c0,5.7,3.31,9.26,8.64,9.26c4.78,0,8.38-3.15,8.38-6.91
		c0-2.28-1.36-3.89-3.71-3.89c-0.22,0-0.44,0-0.66,0.04v-3.75h1.61c3.24,0,5.66,1.47,7.28,4.37c1.51,2.76,2.94,3.83,5.04,3.83
		H713.13z M692.11,695.39h-4.04v-4.08h4.04V695.39z M699.06,695.39h-4.04v-4.08h4.04V695.39z"/>
	<rect x="712.12" y="676.98" class="st0" width="8.13" height="4.19"/>
	<rect x="712.12" y="676.98" class="st0" width="8.13" height="4.19"/>
	<rect x="719.4" y="676.98" class="st0" width="8.13" height="4.19"/>
	<rect x="726.69" y="676.98" class="st0" width="8.12" height="4.19"/>
	<rect x="733.96" y="676.98" class="st0" width="8.13" height="4.19"/>
	<rect x="741.24" y="676.98" class="st0" width="8.13" height="4.19"/>
	<rect x="748.53" y="676.98" class="st0" width="8.12" height="4.19"/>
	<rect x="755.81" y="676.98" class="st0" width="8.12" height="4.19"/>
	<path class="st0" d="M780.04,681.17h-16.98v-4.19h3.82c1.21,0,2.02-0.41,2.46-1.25c0.29-0.55,0.44-1.51,0.44-2.79v-8.45h4.08v8.23
		c0,2.16-0.29,3.56-0.88,4.26h7.06V681.17z M773.82,689.25h-4.04v-4.12h4.04V689.25z"/>
	<path class="st0" d="M809.38,681.17H778.9v-4.19h6.77v-19.52h4.04l-0.44,13.31c3.38-4.37,6.91-6.36,10.77-6.36
		c6.36,0,9.52,4.34,9.52,12.94C809.56,678.56,809.48,679.81,809.38,681.17 M805.33,676.98v-1.18c0-4.67-2.09-7.72-5.66-7.72
		c-4.15,0-8.31,3.67-10.8,8.9H805.33z M801.21,661.1h-4.04v-4.08h4.04V661.1z"/>
	<path class="st0" d="M834.68,681.17h-5c-0.55,4.04-3.23,6.06-8.01,6.06v-3.24c2.14,0,3.49-0.88,4.08-2.82h-3.93
		c-4.45,0-8.05-3.71-8.05-8.57c0-4.85,3.57-8.16,8.23-8.16c4.48,0,7.64,3.45,7.64,8.27v4.26h5.04V681.17z M825.52,676.98v-5.04
		c-0.22-2.17-1.47-3.71-3.6-3.71c-2.43,0-3.97,1.69-3.97,4.16c0,2.54,1.73,4.59,3.93,4.59H825.52z"/>
	<rect x="833.77" y="676.98" class="st0" width="8.12" height="4.19"/>
	<path class="st0" d="M851.42,674.51c0,4.45-2.06,6.66-6.14,6.66h-3.97v-4.19h3.13c1.36,0,2.2-0.41,2.61-1.21
		c0.18-0.44,0.29-1.33,0.29-2.65v-8.63h4.08V674.51z M851.38,689.22h-4.01v-4.12h4.01V689.22z"/>
	<path class="st0" d="M861.13,655.55h-6.36v-1.69h1.47c-0.22-0.7-0.33-1.1-0.33-1.29c0-1.72,1.28-2.98,2.87-2.98
		c1.03,0,1.81,0.55,2.32,1.62l-1.32,0.69c-0.11-0.55-0.48-0.81-1.03-0.81c-0.77,0-1.25,0.7-1.25,1.4c0,0.63,0.22,1.1,0.66,1.36h2.97
		V655.55z M860.1,681.17h-4.08v-23.74h4.08V681.17z"/>
	<path class="st0" d="M888.27,681.17h-6.58c-0.62,3.93-3.97,6.09-8.97,6.09v-3.52c3.42,0,5.1-1.69,5.1-5.22v-14.04h4.12v12.5h6.32
		V681.17z M881.91,661.1h-4.04v-4.08h4.04V661.1z"/>
	<rect x="886.92" y="676.98" class="st0" width="8.13" height="4.19"/>
	<rect x="886.92" y="676.98" class="st0" width="8.13" height="4.19"/>
	<rect x="894.21" y="676.98" class="st0" width="8.12" height="4.19"/>
	<rect x="901.48" y="676.98" class="st0" width="8.13" height="4.19"/>
	<rect x="908.76" y="676.98" class="st0" width="8.13" height="4.19"/>
	<rect x="916.04" y="676.98" class="st0" width="8.13" height="4.19"/>
	<path class="st0" d="M947.84,678.59v2.57h-24.59v-4.19h20.18c0-2.27-0.67-4.22-1.99-5.84c-1.54-1.87-3.68-2.79-6.36-2.79h-8.49
		l7.24-10.88h4.89l-4.96,7.02h1.8c2.72,0,5.07,0.66,7.06,2.02C946.11,668.82,947.84,672.82,947.84,678.59"/>
	<path class="st0" d="M966.86,681.17h-6.58c-0.62,3.93-3.97,6.1-8.97,6.1v-3.53c3.42,0,5.11-1.69,5.11-5.22v-14.04h4.12v12.5h6.32
		V681.17z"/>
	<rect x="965.51" y="676.98" class="st0" width="8.13" height="4.19"/>
	<rect x="972.79" y="676.98" class="st0" width="8.13" height="4.19"/>
	<path class="st0" d="M1001.5,675.95c0,4.89-3.35,8.49-8.23,8.49c-2.83,0-5.08-1.1-6.66-3.27H980v-4.19h5.07l-0.04-0.18
		c-0.04-0.33-0.07-0.66-0.07-0.99c0-4.93,3.42-8.46,8.31-8.46C998.15,667.35,1001.5,671.13,1001.5,675.95 M997.27,675.95
		c0-2.8-1.69-4.89-4.12-4.89c-2.32,0-3.97,1.95-3.97,4.71c0,2.75,1.73,4.85,4.19,4.85C995.65,680.62,997.27,678.74,997.27,675.95"/>
	<path class="st0" d="M319.48,732.02l-2.48-6.34h-9.62l-2.47,6.3l-4.88,0.03l10.31-24.91h4.34l9.9,24.91H319.48z M312.27,713.2
		l-0.03,0.15l-3.24,8.41h6.52L312.27,713.2z"/>
	<path class="st0" d="M327.25,705.3h4.37v9.11c1.24-0.66,2.69-0.98,4.08-0.98c5.57,0,8.34,4.3,8.34,9.5c0,5.61-4.52,9.51-10.01,9.51
		c-2.08,0-5.03-0.47-6.96-1.2c0,0,0.18-1.46,0.18-2.18V705.3z M331.62,727.69c0,0.18-0.04,0.55-0.04,0.55
		c0.77,0.29,1.82,0.4,2.62,0.4c3.39,0,4.95-2.73,4.95-5.83c0-2.88-1.31-5.61-4.55-5.61c-1.02,0-2.15,0.25-2.98,0.87V727.69z"/>
	<path class="st0" d="M359.2,713.82h4.37v14.24c0,0.88,0.26,2.55,0.26,2.55c-2.55,0.91-5.57,1.82-8.27,1.82
		c-4.44,0-7.94-1.46-7.94-6.48v-12.13h4.37v11.43c0,2.22,1.46,3.35,3.61,3.35c1.24,0,2.51-0.36,3.68-0.8c0,0-0.07-0.51-0.07-0.77
		V713.82z"/>
	<path class="st0" d="M377.79,707.37c2.44-0.51,4.95-0.65,7.43-0.65c7.9,0,13.55,3.9,13.55,12.24c0,8.85-5.79,13.48-14.35,13.48
		c-2.22,0-4.44-0.15-6.63-0.55V707.37z M382.34,728.2c0.95,0.22,1.89,0.29,2.88,0.29c5.68,0,8.67-4.04,8.67-9.51
		c0-5.21-2.95-8.34-8.19-8.34c-1.13,0-2.26,0.07-3.35,0.33V728.2z"/>
	<path class="st0" d="M414.32,732.03v-11.51c0-2-1.24-3.31-3.06-3.31c-1.42,0-2.99,0.62-4.19,1.35v13.47h-4.37V705.3h4.37v9.32
		c1.67-0.73,3.53-1.2,5.39-1.2c4.08,0,6.23,2.41,6.23,6.45v12.16H414.32z"/>
	<path class="st0" d="M438,728.71c0,0.77,0.26,2.29,0.26,2.29c-2.51,0.76-5.1,1.42-7.76,1.42c-3.5,0-8.16-1.28-8.16-5.54
		c0-7.36,11.29-4.84,11.29-8.01c0-1.53-1.97-1.67-3.06-1.67c-1.64,0-3.53,0.44-5.06,1.09l-1.49-3.32c2.15-0.98,4.81-1.56,7.17-1.56
		c3.9,0,6.81,1.71,6.81,5.93V728.71z M433.63,723.1c-1.49,1.42-6.48,0.84-6.48,3.46c0,1.89,1.82,2.22,3.39,2.22
		c1.06,0,2.15-0.18,3.17-0.51c0,0-0.07-0.44-0.07-0.69V723.1z"/>
	<path class="st0" d="M442.82,705.3h4.37v9.11c1.24-0.66,2.69-0.98,4.08-0.98c5.57,0,8.34,4.3,8.34,9.5c0,5.61-4.52,9.51-10.01,9.51
		c-2.08,0-5.03-0.47-6.96-1.2c0,0,0.18-1.46,0.18-2.18V705.3z M447.19,727.69c0,0.18-0.04,0.55-0.04,0.55
		c0.77,0.29,1.82,0.4,2.62,0.4c3.39,0,4.95-2.73,4.95-5.83c0-2.88-1.31-5.61-4.55-5.61c-1.02,0-2.15,0.25-2.98,0.87V727.69z"/>
	<path class="st0" d="M465.92,710.14c-1.5,0-2.62-1.02-2.62-2.55c0-1.46,1.13-2.59,2.62-2.59c1.45,0,2.69,1.13,2.69,2.59
		C468.61,709.12,467.37,710.14,465.92,710.14 M463.81,713.82h4.37v18.21h-4.37V713.82z"/>
	<rect x="482.64" y="707.12" class="st0" width="4.55" height="24.91"/>
	<path class="st0" d="M504.02,732.03v-11.44c0-2.22-1.45-3.35-3.6-3.35c-1.24,0-2.51,0.36-3.68,0.8c0,0,0.07,0.51,0.07,0.77v13.22
		h-4.37v-14.24c0-0.87-0.26-2.55-0.26-2.55c2.55-0.91,5.57-1.82,8.27-1.82c4.44,0,7.94,1.46,7.94,6.48v12.13H504.02z"/>
	<path class="st0" d="M524.28,731.66c-1.6,0.55-3.17,1.02-4.88,1.02c-3.31,0-5.61-1.53-5.61-5.06v-10.05l-2.07-0.11V714l2.07-0.11
		v-5.06h4.37v4.99h5.1v3.78h-5.1v9.69c0,1.13,0.58,1.57,1.68,1.57c1.13,0,2.18-0.37,3.24-0.73L524.28,731.66z"/>
	<path class="st0" d="M541.66,731.08c-1.97,0.83-4.12,1.35-6.26,1.35c-5.61,0-9.32-3.83-9.32-9.47c0-5.28,2.88-9.54,8.45-9.54
		c5.24,0,8.27,3.64,8.27,8.7c0,0.8-0.14,1.6-0.25,2.41h-11.76c0.29,2.8,2.18,4.11,4.88,4.11c1.49,0,3.31-0.36,4.63-0.95
		L541.66,731.08z M538.27,721.1c-0.04-2.3-1.27-4.08-3.71-4.08c-2.33,0-3.68,1.9-3.79,4.08H538.27z"/>
	<path class="st0" d="M546.8,732.03v-13.88c0-0.91-0.33-2.73-0.33-2.73c2.62-1.09,5.43-2,8.3-2c1.13,0,2.37,0.15,3.35,0.4
		l-1.31,3.75c-0.58-0.18-1.6-0.36-2.41-0.36c-1.09,0-2.22,0.14-3.28,0.47c0,0,0.04,0.25,0.04,0.36v13.98H546.8z"/>
	<path class="st0" d="M571.94,732.03v-11.44c0-2.22-1.45-3.35-3.6-3.35c-1.24,0-2.51,0.36-3.68,0.8c0,0,0.07,0.51,0.07,0.77v13.22
		h-4.37v-14.24c0-0.87-0.26-2.55-0.26-2.55c2.55-0.91,5.57-1.82,8.27-1.82c4.44,0,7.94,1.46,7.94,6.48v12.13H571.94z"/>
	<path class="st0" d="M595.62,728.71c0,0.77,0.26,2.29,0.26,2.29c-2.51,0.76-5.1,1.42-7.76,1.42c-3.5,0-8.16-1.28-8.16-5.54
		c0-7.36,11.29-4.84,11.29-8.01c0-1.53-1.97-1.67-3.06-1.67c-1.64,0-3.53,0.44-5.06,1.09l-1.49-3.32c2.15-0.98,4.81-1.56,7.17-1.56
		c3.9,0,6.81,1.71,6.81,5.93V728.71z M591.25,723.1c-1.49,1.42-6.48,0.84-6.48,3.46c0,1.89,1.82,2.22,3.39,2.22
		c1.06,0,2.15-0.18,3.17-0.51c0,0-0.07-0.44-0.07-0.69V723.1z"/>
	<path class="st0" d="M611.76,731.66c-1.6,0.55-3.17,1.02-4.88,1.02c-3.31,0-5.61-1.53-5.61-5.06v-10.05l-2.07-0.11V714l2.07-0.11
		v-5.06h4.37v4.99h5.1v3.78h-5.1v9.69c0,1.13,0.58,1.57,1.68,1.57c1.13,0,2.18-0.37,3.24-0.73L611.76,731.66z"/>
	<path class="st0" d="M617.08,710.14c-1.49,0-2.62-1.02-2.62-2.55c0-1.46,1.13-2.59,2.62-2.59c1.45,0,2.69,1.13,2.69,2.59
		C619.78,709.12,618.54,710.14,617.08,710.14 M614.97,713.82h4.37v18.21h-4.37V713.82z"/>
	<path class="st0" d="M623.42,722.92c0-5.43,3.57-9.51,9.14-9.51c5.57,0,9.14,4.04,9.14,9.51c0,5.46-3.57,9.51-9.14,9.51
		C626.99,732.43,623.42,728.34,623.42,722.92 M636.86,722.96c0-2.73-1.06-5.75-4.3-5.75c-3.24,0-4.3,2.98-4.3,5.75
		c0,2.77,1.06,5.72,4.3,5.72C635.81,728.68,636.86,725.72,636.86,722.96"/>
	<path class="st0" d="M657.12,732.03v-11.44c0-2.22-1.45-3.35-3.6-3.35c-1.24,0-2.51,0.36-3.68,0.8c0,0,0.07,0.51,0.07,0.77v13.22
		h-4.37v-14.24c0-0.87-0.26-2.55-0.26-2.55c2.55-0.91,5.57-1.82,8.27-1.82c4.44,0,7.94,1.46,7.94,6.48v12.13H657.12z"/>
	<path class="st0" d="M680.8,728.71c0,0.77,0.26,2.29,0.26,2.29c-2.51,0.76-5.1,1.42-7.76,1.42c-3.5,0-8.16-1.28-8.16-5.54
		c0-7.36,11.29-4.84,11.29-8.01c0-1.53-1.97-1.67-3.06-1.67c-1.64,0-3.53,0.44-5.06,1.09l-1.49-3.32c2.15-0.98,4.81-1.56,7.17-1.56
		c3.9,0,6.81,1.71,6.81,5.93V728.71z M676.43,723.1c-1.49,1.42-6.48,0.84-6.48,3.46c0,1.89,1.82,2.22,3.39,2.22
		c1.06,0,2.15-0.18,3.17-0.51c0,0-0.07-0.44-0.07-0.69V723.1z"/>
	<path class="st0" d="M693.08,731.77c-1.06,0.37-2.51,0.66-3.64,0.66c-2.44,0-4.01-1.24-4.01-3.79V705.3h4.37v22.33
		c0,0.58,0.18,1.13,0.87,1.13c0.47,0,0.95-0.22,1.38-0.4L693.08,731.77z"/>
	<path class="st0" d="M721.9,732.02l-2.48-6.34h-9.61l-2.48,6.3l-4.88,0.03l10.31-24.91h4.34l9.9,24.91H721.9z M714.68,713.2
		l-0.03,0.15l-3.24,8.41h6.52L714.68,713.2z"/>
	<path class="st0" d="M729.81,732.03v-13.88c0-0.91-0.33-2.73-0.33-2.73c2.62-1.09,5.43-2,8.3-2c1.13,0,2.37,0.15,3.35,0.4
		l-1.31,3.75c-0.58-0.18-1.6-0.36-2.41-0.36c-1.09,0-2.22,0.14-3.28,0.47c0,0,0.04,0.25,0.04,0.36v13.98H729.81z"/>
	<path class="st0" d="M743.29,705.3h4.37v9.11c1.24-0.66,2.69-0.98,4.08-0.98c5.57,0,8.34,4.3,8.34,9.5c0,5.61-4.52,9.51-10.01,9.51
		c-2.08,0-5.03-0.47-6.96-1.2c0,0,0.18-1.46,0.18-2.18V705.3z M747.66,727.69c0,0.18-0.04,0.55-0.04,0.55
		c0.77,0.29,1.82,0.4,2.62,0.4c3.39,0,4.95-2.73,4.95-5.83c0-2.88-1.31-5.61-4.55-5.61c-1.02,0-2.15,0.25-2.98,0.87V727.69z"/>
	<path class="st0" d="M766.39,710.14c-1.49,0-2.62-1.02-2.62-2.55c0-1.46,1.13-2.59,2.62-2.59c1.46,0,2.69,1.13,2.69,2.59
		C769.08,709.12,767.85,710.14,766.39,710.14 M764.28,713.82h4.37v18.21h-4.37V713.82z"/>
	<path class="st0" d="M785.04,731.66c-1.6,0.55-3.17,1.02-4.88,1.02c-3.31,0-5.61-1.53-5.61-5.06v-10.05l-2.07-0.11V714l2.07-0.11
		v-5.06h4.37v4.99h5.1v3.78h-5.1v9.69c0,1.13,0.58,1.57,1.68,1.57c1.13,0,2.18-0.37,3.24-0.73L785.04,731.66z"/>
	<path class="st0" d="M787.96,732.03v-13.88c0-0.91-0.33-2.73-0.33-2.73c2.62-1.09,5.43-2,8.3-2c1.13,0,2.37,0.15,3.35,0.4
		l-1.31,3.75c-0.58-0.18-1.6-0.36-2.41-0.36c-1.09,0-2.22,0.14-3.28,0.47c0,0,0.04,0.25,0.04,0.36v13.98H787.96z"/>
	<path class="st0" d="M815.28,728.71c0,0.77,0.26,2.29,0.26,2.29c-2.51,0.76-5.1,1.42-7.76,1.42c-3.5,0-8.16-1.28-8.16-5.54
		c0-7.36,11.29-4.84,11.29-8.01c0-1.53-1.97-1.67-3.06-1.67c-1.64,0-3.53,0.44-5.06,1.09l-1.49-3.32c2.15-0.98,4.81-1.56,7.17-1.56
		c3.9,0,6.81,1.71,6.81,5.93V728.71z M810.91,723.1c-1.49,1.42-6.48,0.84-6.48,3.46c0,1.89,1.82,2.22,3.39,2.22
		c1.06,0,2.15-0.18,3.17-0.51c0,0-0.07-0.44-0.07-0.69V723.1z"/>
	<path class="st0" d="M831.42,731.66c-1.6,0.55-3.17,1.02-4.88,1.02c-3.31,0-5.61-1.53-5.61-5.06v-10.05l-2.07-0.11V714l2.07-0.11
		v-5.06h4.37v4.99h5.1v3.78h-5.1v9.69c0,1.13,0.58,1.57,1.68,1.57c1.13,0,2.18-0.37,3.24-0.73L831.42,731.66z"/>
	<path class="st0" d="M836.74,710.14c-1.49,0-2.62-1.02-2.62-2.55c0-1.46,1.13-2.59,2.62-2.59c1.46,0,2.69,1.13,2.69,2.59
		C839.44,709.12,838.2,710.14,836.74,710.14 M834.63,713.82H839v18.21h-4.37V713.82z"/>
	<path class="st0" d="M843.08,722.92c0-5.43,3.57-9.51,9.14-9.51c5.57,0,9.14,4.04,9.14,9.51c0,5.46-3.57,9.51-9.14,9.51
		C846.65,732.43,843.08,728.34,843.08,722.92 M856.52,722.96c0-2.73-1.06-5.75-4.3-5.75c-3.24,0-4.3,2.98-4.3,5.75
		c0,2.77,1.06,5.72,4.3,5.72C855.47,728.68,856.52,725.72,856.52,722.96"/>
	<path class="st0" d="M876.78,732.03v-11.44c0-2.22-1.45-3.35-3.6-3.35c-1.24,0-2.51,0.36-3.68,0.8c0,0,0.07,0.51,0.07,0.77v13.22
		h-4.37v-14.24c0-0.87-0.26-2.55-0.26-2.55c2.55-0.91,5.57-1.82,8.27-1.82c4.44,0,7.94,1.46,7.94,6.48v12.13H876.78z"/>
	<path class="st0" d="M913.43,730.75c-2.07,1.02-4.37,1.64-6.66,1.64c-7.54,0-12.75-5.24-12.75-12.78c0-7.32,4.59-12.86,12.17-12.86
		c2.33,0,5.06,0.73,7.17,1.68l-1.5,3.71c-1.82-0.8-3.75-1.42-5.75-1.42c-4.81,0-7.21,4.04-7.21,8.45c0,5.32,2.84,9.25,8.45,9.25
		c1.71,0,3.39-0.44,4.92-1.17L913.43,730.75z"/>
	<path class="st0" d="M931.79,731.08c-1.97,0.83-4.12,1.35-6.26,1.35c-5.61,0-9.32-3.83-9.32-9.47c0-5.28,2.88-9.54,8.45-9.54
		c5.24,0,8.27,3.64,8.27,8.7c0,0.8-0.15,1.6-0.26,2.41h-11.76c0.29,2.8,2.18,4.11,4.88,4.11c1.49,0,3.31-0.36,4.63-0.95
		L931.79,731.08z M928.41,721.1c-0.04-2.3-1.27-4.08-3.71-4.08c-2.33,0-3.68,1.9-3.79,4.08H928.41z"/>
	<path class="st0" d="M948.45,732.03v-11.44c0-2.22-1.45-3.35-3.6-3.35c-1.24,0-2.51,0.36-3.68,0.8c0,0,0.07,0.51,0.07,0.77v13.22
		h-4.37v-14.24c0-0.87-0.26-2.55-0.26-2.55c2.55-0.91,5.57-1.82,8.27-1.82c4.44,0,7.94,1.46,7.94,6.48v12.13H948.45z"/>
	<path class="st0" d="M968.7,731.66c-1.6,0.55-3.17,1.02-4.88,1.02c-3.31,0-5.61-1.53-5.61-5.06v-10.05l-2.07-0.11V714l2.07-0.11
		v-5.06h4.37v4.99h5.1v3.78h-5.1v9.69c0,1.13,0.58,1.57,1.68,1.57c1.13,0,2.18-0.37,3.24-0.73L968.7,731.66z"/>
	<path class="st0" d="M971.62,732.03v-13.88c0-0.91-0.33-2.73-0.33-2.73c2.62-1.09,5.43-2,8.3-2c1.13,0,2.37,0.15,3.35,0.4
		l-1.31,3.75c-0.58-0.18-1.6-0.36-2.41-0.36c-1.09,0-2.22,0.14-3.28,0.47c0,0,0.04,0.25,0.04,0.36v13.98H971.62z"/>
	<path class="st0" d="M998.87,731.08c-1.97,0.83-4.12,1.35-6.26,1.35c-5.61,0-9.32-3.83-9.32-9.47c0-5.28,2.88-9.54,8.45-9.54
		c5.24,0,8.26,3.64,8.26,8.7c0,0.8-0.14,1.6-0.25,2.41h-11.76c0.29,2.8,2.18,4.11,4.88,4.11c1.49,0,3.31-0.36,4.63-0.95
		L998.87,731.08z M995.48,721.1c-0.04-2.3-1.27-4.08-3.71-4.08c-2.33,0-3.68,1.9-3.79,4.08H995.48z"/>
</g>
</svg>
