<svg width="66" height="56" viewBox="0 0 66 56" fill="none" xmlns="http://www.w3.org/2000/svg">
<path d="M43.3069 10.1818H22.9433C22.2405 10.1818 21.6705 10.7516 21.6705 11.4546C21.6705 12.1575 22.2405 12.7273 22.9433 12.7273H43.3069C44.0097 12.7273 44.5796 12.1575 44.5796 11.4546C44.5796 10.7516 44.0097 10.1818 43.3069 10.1818Z" fill="#ECD078"/>
<path d="M64.4341 5.09091H56.0341V4.45455C56.0341 1.99831 54.0358 0 51.5796 0C49.1233 0 47.125 1.99831 47.125 4.45455V5.09091H19.125V4.45455C19.125 1.99831 17.1267 0 14.6705 0C12.2142 0 10.2159 1.99831 10.2159 4.45455V5.09091H1.81594C1.11314 5.09091 0.543213 5.66071 0.543213 6.36364V54.7273C0.543213 55.062 0.679267 55.3904 0.916122 55.6271C1.15298 55.8638 1.48121 56 1.81594 56H64.4341C64.7688 56 65.0972 55.8638 65.3338 55.6271C65.5705 55.3904 65.7068 55.062 65.7068 54.7273V41.3636C65.7068 40.6624 65.1354 40.0909 64.4341 40.0909C63.7328 40.0909 63.1614 40.6624 63.1614 41.3636V53.4545H3.08867V17.8182H63.1614V29.9091C63.1614 30.6104 63.7328 31.1818 64.4341 31.1818C65.1367 31.1818 65.7068 30.6104 65.7068 29.9091V6.36364C65.7068 5.66071 65.1369 5.09091 64.4341 5.09091ZM49.6705 4.45455C49.6705 3.40187 50.5269 2.54545 51.5796 2.54545C52.6322 2.54545 53.4887 3.40187 53.4887 4.45455V10.1818H49.6705V4.45455ZM12.7614 4.45455C12.7614 3.40187 13.6178 2.54545 14.6705 2.54545C15.7232 2.54545 16.5796 3.40187 16.5796 4.45455V10.1818H12.7614V4.45455ZM63.1614 15.2727H3.08867V7.63636H10.2159V11.4545C10.2159 12.1575 10.7859 12.7273 11.4887 12.7273H17.8523C18.5551 12.7273 19.125 12.1575 19.125 11.4545V7.63636H47.125V11.4545C47.125 12.1575 47.695 12.7273 48.3978 12.7273H54.7614C55.4642 12.7273 56.0341 12.1575 56.0341 11.4545V7.63636H63.1614V15.2727Z" fill="white"/>
<path d="M64.4341 36.9091C65.137 36.9091 65.7068 36.3393 65.7068 35.6364C65.7068 34.9335 65.137 34.3636 64.4341 34.3636C63.7312 34.3636 63.1614 34.9335 63.1614 35.6364C63.1614 36.3393 63.7312 36.9091 64.4341 36.9091Z" fill="white"/>
<path d="M27.525 21.6364V49.6364C27.525 50.3393 28.095 50.9091 28.7978 50.9091C29.5006 50.9091 30.0705 50.3393 30.0705 49.6364V21.6364C30.0705 20.9334 29.5006 20.3636 28.7978 20.3636C28.095 20.3636 27.525 20.9334 27.525 21.6364Z" fill="white"/>
<path d="M20.2506 34.321C19.5479 34.321 18.9215 34.1918 18.3713 33.9332C17.8245 33.6747 17.3903 33.3184 17.0688 32.8643C16.7473 32.4103 16.5799 31.8899 16.5667 31.3033H18.6547C18.6779 31.6977 18.8436 32.0175 19.1519 32.2628C19.4601 32.508 19.8264 32.6307 20.2506 32.6307C20.5887 32.6307 20.887 32.5561 21.1455 32.407C21.4073 32.2545 21.6112 32.044 21.757 31.7756C21.9061 31.5038 21.9807 31.1922 21.9807 30.8409C21.9807 30.483 21.9045 30.1681 21.752 29.8963C21.6029 29.6245 21.3957 29.4124 21.1306 29.2599C20.8654 29.1075 20.5622 29.0296 20.2208 29.0263C19.9225 29.0263 19.6325 29.0876 19.3507 29.2102C19.0723 29.3329 18.8552 29.5002 18.6995 29.7124L16.7854 29.3693L17.2676 24H23.4921V25.7599H19.0425L18.779 28.3104H18.8387C19.0176 28.0585 19.2878 27.8497 19.649 27.6839C20.0103 27.5182 20.4147 27.4354 20.8621 27.4354C21.4753 27.4354 22.0221 27.5795 22.5027 27.8679C22.9833 28.1562 23.3628 28.5523 23.6412 29.0561C23.9196 29.5566 24.0572 30.1333 24.0539 30.7862C24.0572 31.4723 23.8981 32.0821 23.5766 32.6158C23.2584 33.1461 22.8126 33.5637 22.2392 33.8686C21.6692 34.1702 21.0063 34.321 20.2506 34.321Z" fill="#ECD078"/>
<path d="M11.2272 34.321C10.5245 34.321 9.89809 34.1918 9.3479 33.9332C8.80103 33.6747 8.36684 33.3184 8.04534 32.8643C7.72385 32.4103 7.55647 31.8899 7.54321 31.3033H9.63128C9.65448 31.6977 9.8202 32.0175 10.1284 32.2628C10.4367 32.508 10.8029 32.6307 11.2272 32.6307C11.5652 32.6307 11.8635 32.5561 12.122 32.407C12.3839 32.2545 12.5877 32.044 12.7336 31.7756C12.8827 31.5038 12.9573 31.1922 12.9573 30.8409C12.9573 30.483 12.881 30.1681 12.7286 29.8963C12.5794 29.6245 12.3723 29.4124 12.1071 29.2599C11.842 29.1075 11.5387 29.0296 11.1973 29.0263C10.899 29.0263 10.609 29.0876 10.3273 29.2102C10.0489 29.3329 9.8318 29.5002 9.67603 29.7124L7.76196 29.3693L8.24421 24H14.4686V25.7599H10.0191L9.75557 28.3104H9.81523C9.99421 28.0585 10.2643 27.8497 10.6256 27.6839C10.9869 27.5182 11.3912 27.4354 11.8387 27.4354C12.4518 27.4354 12.9987 27.5795 13.4793 27.8679C13.9599 28.1562 14.3394 28.5523 14.6178 29.0561C14.8962 29.5566 15.0337 30.1333 15.0304 30.7862C15.0337 31.4723 14.8747 32.0821 14.5532 32.6158C14.235 33.1461 13.7892 33.5637 13.2158 33.8686C12.6457 34.1702 11.9828 34.321 11.2272 34.321Z" fill="#ECD078"/>
<path d="M49.5752 43.6456C49.3386 43.8824 49.2023 44.2107 49.2023 44.5455C49.2023 44.8802 49.3385 45.2086 49.5752 45.4453C49.8119 45.682 50.1403 45.8182 50.475 45.8182C50.8097 45.8182 51.1381 45.682 51.3748 45.4453C51.6114 45.2086 51.7477 44.8802 51.7477 44.5455C51.7477 44.2107 51.6115 43.8824 51.3748 43.6456C51.1381 43.4089 50.8097 43.2727 50.475 43.2727C50.1403 43.2727 49.8119 43.4089 49.5752 43.6456Z" fill="white"/>
<path d="M50.475 39.4545C51.1779 39.4545 51.7477 38.8847 51.7477 38.1818C51.7477 37.4789 51.1779 36.9091 50.475 36.9091C49.7721 36.9091 49.2023 37.4789 49.2023 38.1818C49.2023 38.8847 49.7721 39.4545 50.475 39.4545Z" fill="white"/>
<path d="M50.475 33.0909C51.1779 33.0909 51.7477 32.5211 51.7477 31.8182C51.7477 31.1153 51.1779 30.5454 50.475 30.5454C49.7721 30.5454 49.2023 31.1153 49.2023 31.8182C49.2023 32.5211 49.7721 33.0909 50.475 33.0909Z" fill="white"/>
<path d="M50.475 26.7273C51.1779 26.7273 51.7477 26.1575 51.7477 25.4546C51.7477 24.7516 51.1779 24.1818 50.475 24.1818C49.7721 24.1818 49.2023 24.7516 49.2023 25.4546C49.2023 26.1575 49.7721 26.7273 50.475 26.7273Z" fill="white"/>
<path d="M43.2659 45.8182C43.9688 45.8182 44.5386 45.2484 44.5386 44.5455C44.5386 43.8426 43.9688 43.2727 43.2659 43.2727C42.563 43.2727 41.9932 43.8426 41.9932 44.5455C41.9932 45.2484 42.563 45.8182 43.2659 45.8182Z" fill="white"/>
<path d="M43.2659 39.4545C43.9688 39.4545 44.5386 38.8847 44.5386 38.1818C44.5386 37.4789 43.9688 36.9091 43.2659 36.9091C42.563 36.9091 41.9932 37.4789 41.9932 38.1818C41.9932 38.8847 42.563 39.4545 43.2659 39.4545Z" fill="white"/>
<path d="M43.2659 33.0909C43.9688 33.0909 44.5386 32.5211 44.5386 31.8182C44.5386 31.1153 43.9688 30.5454 43.2659 30.5454C42.563 30.5454 41.9932 31.1153 41.9932 31.8182C41.9932 32.5211 42.563 33.0909 43.2659 33.0909Z" fill="white"/>
<path d="M43.2659 26.7273C43.9688 26.7273 44.5386 26.1575 44.5386 25.4546C44.5386 24.7516 43.9688 24.1818 43.2659 24.1818C42.563 24.1818 41.9932 24.7516 41.9932 25.4546C41.9932 26.1575 42.563 26.7273 43.2659 26.7273Z" fill="white"/>
<path d="M57.6886 45.8182C58.3915 45.8182 58.9613 45.2484 58.9613 44.5455C58.9613 43.8426 58.3915 43.2727 57.6886 43.2727C56.9857 43.2727 56.4159 43.8426 56.4159 44.5455C56.4159 45.2484 56.9857 45.8182 57.6886 45.8182Z" fill="white"/>
<path d="M57.6886 39.4545C58.3915 39.4545 58.9613 38.8847 58.9613 38.1818C58.9613 37.4789 58.3915 36.9091 57.6886 36.9091C56.9857 36.9091 56.4159 37.4789 56.4159 38.1818C56.4159 38.8847 56.9857 39.4545 57.6886 39.4545Z" fill="white"/>
<path d="M57.6886 33.0909C58.3915 33.0909 58.9613 32.5211 58.9613 31.8182C58.9613 31.1153 58.3915 30.5454 57.6886 30.5454C56.9857 30.5454 56.4159 31.1153 56.4159 31.8182C56.4159 32.5211 56.9857 33.0909 57.6886 33.0909Z" fill="white"/>
<path d="M57.6886 26.7273C58.3915 26.7273 58.9613 26.1575 58.9613 25.4546C58.9613 24.7516 58.3915 24.1818 57.6886 24.1818C56.9857 24.1818 56.4159 24.7516 56.4159 25.4546C56.4159 26.1575 56.9857 26.7273 57.6886 26.7273Z" fill="white"/>
<path d="M36.0523 45.8182C36.7552 45.8182 37.325 45.2484 37.325 44.5455C37.325 43.8426 36.7552 43.2727 36.0523 43.2727C35.3494 43.2727 34.7795 43.8426 34.7795 44.5455C34.7795 45.2484 35.3494 45.8182 36.0523 45.8182Z" fill="white"/>
<path d="M36.0523 39.4545C36.7552 39.4545 37.325 38.8847 37.325 38.1818C37.325 37.4789 36.7552 36.9091 36.0523 36.9091C35.3494 36.9091 34.7795 37.4789 34.7795 38.1818C34.7795 38.8847 35.3494 39.4545 36.0523 39.4545Z" fill="white"/>
<path d="M36.0523 33.0909C36.7552 33.0909 37.325 32.5211 37.325 31.8182C37.325 31.1153 36.7552 30.5454 36.0523 30.5454C35.3494 30.5454 34.7795 31.1153 34.7795 31.8182C34.7795 32.5211 35.3494 33.0909 36.0523 33.0909Z" fill="white"/>
<path d="M36.0523 26.7273C36.7552 26.7273 37.325 26.1575 37.325 25.4546C37.325 24.7516 36.7552 24.1818 36.0523 24.1818C35.3494 24.1818 34.7795 24.7516 34.7795 25.4546C34.7795 26.1575 35.3494 26.7273 36.0523 26.7273Z" fill="white"/>
</svg>
