<svg width="81" height="80" viewBox="0 0 81 80" fill="none" xmlns="http://www.w3.org/2000/svg">
<g clip-path="url(#clip0_1114_1660)">
<path d="M1.04102 20.458H66.9952V77.8626C66.9952 78.5343 66.4456 79.084 65.7738 79.084H2.26239C1.59063 79.084 1.04102 78.5343 1.04102 77.8626V20.458Z" fill="#597B7C"/>
<path d="M5.92651 20.458H66.9952V71.7557H7.14789C6.47613 71.7557 5.92651 71.2061 5.92651 70.5343V20.458Z" fill="#597B7C"/>
<path d="M65.7739 80H2.2624C1.08989 80 0.125 79.0351 0.125 77.8626V20.458C0.125 19.9573 0.540267 19.542 1.04103 19.542H66.9952C67.496 19.542 67.9113 19.9573 67.9113 20.458V77.8626C67.9113 79.0351 66.9464 80 65.7739 80ZM1.95706 21.3741V77.8626C1.95706 78.0336 2.09141 78.1679 2.2624 78.1679H65.7739C65.9449 78.1679 66.0792 78.0336 66.0792 77.8626V21.3741H1.95706Z" fill="white"/>
<path d="M2.26239 7.02289H65.7738C66.4456 7.02289 66.9952 7.57251 66.9952 8.24426V20.458H1.04102V8.24426C1.04102 7.57251 1.59063 7.02289 2.26239 7.02289Z" fill="#597B7C"/>
<path d="M7.14789 7.02289H65.7738C66.4456 7.02289 66.9952 7.57251 66.9952 8.24426V15.5725H7.14789C6.47613 15.5725 5.92651 15.0229 5.92651 14.3511V8.24426C5.92651 7.57251 6.47613 7.02289 7.14789 7.02289Z" fill="#597B7C"/>
<path d="M66.9952 21.374H1.04103C0.540267 21.374 0.125 20.9588 0.125 20.458V8.24428C0.125 7.07176 1.08989 6.10687 2.2624 6.10687H65.7739C66.9464 6.10687 67.9113 7.07176 67.9113 8.24428V20.458C67.9113 20.9588 67.496 21.374 66.9952 21.374ZM1.95706 19.542H66.0792V8.24428C66.0792 8.07328 65.9449 7.93893 65.7739 7.93893H2.2624C2.09141 7.93893 1.95706 8.07328 1.95706 8.24428V19.542Z" fill="white"/>
<path d="M41.3464 14.0458C40.8456 14.0458 40.4304 13.6305 40.4304 13.1298C40.4304 12.629 40.8456 12.2137 41.3464 12.2137C42.8609 12.2137 44.0945 10.9802 44.0945 9.46565V4.58015C44.0945 3.06565 42.8609 1.83206 41.3464 1.83206C39.8319 1.83206 38.5983 3.06565 38.5983 4.58015V7.0229C38.5983 7.52366 38.183 7.93893 37.6823 7.93893C37.1815 7.93893 36.7662 7.52366 36.7662 7.0229V4.58015C36.7662 2.05191 38.8181 0 41.3464 0C43.8746 0 45.9265 2.05191 45.9265 4.58015V9.46565C45.9265 11.9939 43.8746 14.0458 41.3464 14.0458Z" fill="white"/>
<path d="M56.0029 14.0458C55.5021 14.0458 55.0869 13.6305 55.0869 13.1298C55.0869 12.629 55.5021 12.2137 56.0029 12.2137C57.5174 12.2137 58.751 10.9802 58.751 9.46565V4.58015C58.751 3.06565 57.5174 1.83206 56.0029 1.83206C54.4884 1.83206 53.2548 3.06565 53.2548 4.58015V7.0229C53.2548 7.52366 52.8395 7.93893 52.3388 7.93893C51.838 7.93893 51.4227 7.52366 51.4227 7.0229V4.58015C51.4227 2.05191 53.4746 0 56.0029 0C58.5311 0 60.583 2.05191 60.583 4.58015V9.46565C60.583 11.9939 58.5311 14.0458 56.0029 14.0458Z" fill="white"/>
<path d="M26.6899 14.0458C26.1891 14.0458 25.7739 13.6305 25.7739 13.1298C25.7739 12.629 26.1891 12.2137 26.6899 12.2137C28.2044 12.2137 29.438 10.9802 29.438 9.46565V4.58015C29.438 3.06565 28.2044 1.83206 26.6899 1.83206C25.1754 1.83206 23.9418 3.06565 23.9418 4.58015V7.0229C23.9418 7.52366 23.5265 7.93893 23.0258 7.93893C22.525 7.93893 22.1097 7.52366 22.1097 7.0229V4.58015C22.1097 2.05191 24.1616 0 26.6899 0C29.2181 0 31.27 2.05191 31.27 4.58015V9.46565C31.27 11.9939 29.2181 14.0458 26.6899 14.0458Z" fill="white"/>
<path d="M12.0334 14.0458C11.5326 14.0458 11.1174 13.6305 11.1174 13.1298C11.1174 12.629 11.5326 12.2137 12.0334 12.2137C13.5479 12.2137 14.7815 10.9802 14.7815 9.46565V4.58015C14.7815 3.06565 13.5479 1.83206 12.0334 1.83206C10.5189 1.83206 9.28531 3.06565 9.28531 4.58015V7.0229C9.28531 7.52366 8.87004 7.93893 8.36928 7.93893C7.86851 7.93893 7.45325 7.52366 7.45325 7.0229V4.58015C7.45325 2.05191 9.50516 0 12.0334 0C14.5616 0 16.6136 2.05191 16.6136 4.58015V9.46565C16.6136 11.9939 14.5616 14.0458 12.0334 14.0458Z" fill="white"/>
<path d="M60.8884 68.0916C71.0066 68.0916 79.209 59.8892 79.209 49.771C79.209 39.6528 71.0066 31.4504 60.8884 31.4504C50.7702 31.4504 42.5677 39.6528 42.5677 49.771C42.5677 59.8892 50.7702 68.0916 60.8884 68.0916Z" fill="#597B7C"/>
<path d="M48.6746 43.6641C48.6746 40.171 49.6639 36.9221 51.3616 34.1374C46.0975 37.3496 42.5677 43.1389 42.5677 49.771C42.5677 59.884 50.7754 68.0916 60.8884 68.0916C67.5082 68.0916 73.2975 64.5618 76.5219 59.2977C73.7494 60.9954 70.4884 61.9847 66.9952 61.9847C56.8823 61.9847 48.6746 53.7771 48.6746 43.6641Z" fill="#597B7C"/>
<path d="M60.8884 69.0076C50.2868 69.0076 41.6517 60.3725 41.6517 49.771C41.6517 39.1695 50.2868 30.5344 60.8884 30.5344C71.4899 30.5344 80.125 39.1695 80.125 49.771C80.125 60.3725 71.4899 69.0076 60.8884 69.0076ZM60.8884 32.3664C51.2884 32.3664 43.4838 40.171 43.4838 49.771C43.4838 59.371 51.2884 67.1756 60.8884 67.1756C70.4884 67.1756 78.293 59.371 78.293 49.771C78.293 40.171 70.4884 32.3664 60.8884 32.3664Z" fill="white"/>
<path d="M45.4991 50.687H42.5678C42.067 50.687 41.6517 50.2717 41.6517 49.771C41.6517 49.2702 42.067 48.8549 42.5678 48.8549H45.4991C45.9998 48.8549 46.4151 49.2702 46.4151 49.771C46.4151 50.2717 45.9998 50.687 45.4991 50.687Z" fill="white"/>
<path d="M79.209 50.687H76.2777C75.777 50.687 75.3617 50.2717 75.3617 49.771C75.3617 49.2702 75.777 48.8549 76.2777 48.8549H79.209C79.7098 48.8549 80.1251 49.2702 80.1251 49.771C80.1251 50.2717 79.7098 50.687 79.209 50.687Z" fill="white"/>
<path d="M60.8883 69.0076C60.3876 69.0076 59.9723 68.5924 59.9723 68.0916V65.1603C59.9723 64.6595 60.3876 64.2443 60.8883 64.2443C61.3891 64.2443 61.8044 64.6595 61.8044 65.1603V68.0916C61.8044 68.5924 61.3891 69.0076 60.8883 69.0076Z" fill="white"/>
<path d="M60.8883 35.2977C60.3876 35.2977 59.9723 34.8825 59.9723 34.3817V31.4504C59.9723 30.9496 60.3876 30.5344 60.8883 30.5344C61.3891 30.5344 61.8044 30.9496 61.8044 31.4504V34.3817C61.8044 34.8825 61.3891 35.2977 60.8883 35.2977Z" fill="white"/>
<path d="M47.5632 42.9924C47.4044 42.9924 47.2457 42.9557 47.1113 42.8702L44.5708 41.4046C44.1312 41.1481 43.9846 40.5863 44.2411 40.1588C44.4976 39.7191 45.0472 39.5725 45.4869 39.829L48.0273 41.2946C48.467 41.5511 48.6136 42.113 48.3571 42.5404C48.1861 42.8336 47.8808 43.0046 47.5632 43.0046V42.9924Z" fill="white"/>
<path d="M76.754 59.8473C76.5952 59.8473 76.4365 59.8107 76.3021 59.7252L73.7616 58.2596C73.3219 58.0031 73.1754 57.4412 73.4319 57.0137C73.6884 56.5741 74.238 56.4275 74.6777 56.684L77.2181 58.1496C77.6578 58.4061 77.8044 58.9679 77.5479 59.3954C77.3769 59.6886 77.0716 59.8595 76.754 59.8595V59.8473Z" fill="white"/>
<path d="M51.7281 66.5527C51.5693 66.5527 51.4105 66.516 51.2762 66.4305C50.8365 66.174 50.6899 65.6122 50.9464 65.1847L52.412 62.6443C52.6685 62.2046 53.2182 62.058 53.6579 62.3145C54.0975 62.571 54.2441 63.1328 53.9876 63.5603L52.522 66.1008C52.351 66.3939 52.0456 66.5649 51.7281 66.5649V66.5527Z" fill="white"/>
<path d="M68.5831 37.3618C68.4243 37.3618 68.2655 37.3252 68.1312 37.2397C67.6915 36.9832 67.5449 36.4214 67.8014 35.9939L69.267 33.4534C69.5235 33.0138 70.0731 32.8672 70.5128 33.1237C70.9525 33.3802 71.0991 33.942 70.8426 34.3695L69.377 36.9099C69.206 37.2031 68.9006 37.3741 68.5831 37.3741V37.3618Z" fill="white"/>
<path d="M53.1937 37.3618C52.8762 37.3618 52.5708 37.203 52.3998 36.8977L50.9342 34.3572C50.6777 33.9175 50.8365 33.3557 51.264 33.1114C51.7037 32.855 52.2655 33.0137 52.5098 33.4412L53.9754 35.9817C54.2319 36.4214 54.0731 36.9832 53.6456 37.2275C53.4991 37.313 53.3403 37.3496 53.1937 37.3496V37.3618Z" fill="white"/>
<path d="M70.0487 66.5527C69.7312 66.5527 69.4258 66.3939 69.2548 66.0886L67.7892 63.5481C67.5327 63.1084 67.6915 62.5466 68.1189 62.3023C68.5586 62.0458 69.1205 62.2046 69.3647 62.6321L70.8304 65.1725C71.0869 65.6122 70.9281 66.1741 70.5006 66.4183C70.3541 66.5038 70.1953 66.5405 70.0487 66.5405V66.5527Z" fill="white"/>
<path d="M45.0228 59.8473C44.7052 59.8473 44.3999 59.6885 44.2289 59.3832C43.9724 58.9435 44.1312 58.3817 44.5586 58.1374L47.0991 56.6717C47.5388 56.4153 48.1006 56.574 48.3449 57.0015C48.6014 57.4412 48.4426 58.003 48.0151 58.2473L45.4747 59.713C45.3281 59.7985 45.1693 59.8351 45.0228 59.8351V59.8473Z" fill="white"/>
<path d="M74.2136 42.9924C73.896 42.9924 73.5907 42.8336 73.4197 42.5282C73.1632 42.0886 73.322 41.5267 73.7494 41.2824L76.2899 39.8168C76.7296 39.5603 77.2914 39.7191 77.5357 40.1466C77.7922 40.5863 77.6334 41.1481 77.2059 41.3924L74.6655 42.858C74.5189 42.9435 74.3601 42.9802 74.2136 42.9802V42.9924Z" fill="white"/>
<path d="M67.7769 50.687H60.8883C60.3876 50.687 59.9723 50.2718 59.9723 49.771V39.6825C59.9723 39.1817 60.3876 38.7664 60.8883 38.7664C61.3891 38.7664 61.8044 39.1817 61.8044 39.6825V48.855H67.7769C68.2776 48.855 68.6929 49.2702 68.6929 49.771C68.6929 50.2718 68.2776 50.687 67.7769 50.687Z" fill="white"/>
<path d="M37.6823 50.687H8.36928C7.86851 50.687 7.45325 50.2717 7.45325 49.771C7.45325 49.2702 7.86851 48.8549 8.36928 48.8549H37.6823C38.183 48.8549 38.5983 49.2702 38.5983 49.771C38.5983 50.2717 38.183 50.687 37.6823 50.687Z" fill="white"/>
<path d="M38.9036 42.1374H8.36928C7.86851 42.1374 7.45325 41.7222 7.45325 41.2214C7.45325 40.7206 7.86851 40.3054 8.36928 40.3054H38.9036C39.4044 40.3054 39.8197 40.7206 39.8197 41.2214C39.8197 41.7222 39.4044 42.1374 38.9036 42.1374Z" fill="white"/>
<path d="M43.7891 67.7863H8.36928C7.86851 67.7863 7.45325 67.371 7.45325 66.8702C7.45325 66.3695 7.86851 65.9542 8.36928 65.9542H43.7891C44.2899 65.9542 44.7052 66.3695 44.7052 66.8702C44.7052 67.371 44.2899 67.7863 43.7891 67.7863Z" fill="white"/>
<path d="M38.9036 59.2366H8.36928C7.86851 59.2366 7.45325 58.8214 7.45325 58.3206C7.45325 57.8198 7.86851 57.4046 8.36928 57.4046H38.9036C39.4044 57.4046 39.8197 57.8198 39.8197 58.3206C39.8197 58.8214 39.4044 59.2366 38.9036 59.2366Z" fill="white"/>
<path d="M45.0105 33.5878H25.4685C24.9678 33.5878 24.5525 33.1725 24.5525 32.6718C24.5525 32.171 24.9678 31.7557 25.4685 31.7557H45.0105C45.5113 31.7557 45.9265 32.171 45.9265 32.6718C45.9265 33.1725 45.5113 33.5878 45.0105 33.5878Z" fill="white"/>
<path d="M10.812 70.229C10.3113 70.229 9.896 69.8138 9.896 69.313V38.7786C9.896 38.2779 10.3113 37.8626 10.812 37.8626C11.3128 37.8626 11.7281 38.2779 11.7281 38.7786V69.313C11.7281 69.8138 11.3128 70.229 10.812 70.229Z" fill="white"/>
<path d="M19.3616 70.229C18.8608 70.229 18.4456 69.8138 18.4456 69.313V38.7786C18.4456 38.2779 18.8608 37.8626 19.3616 37.8626C19.8624 37.8626 20.2776 38.2779 20.2776 38.7786V69.313C20.2776 69.8138 19.8624 70.229 19.3616 70.229Z" fill="white"/>
<path d="M27.9113 70.229C27.4105 70.229 26.9952 69.8138 26.9952 69.313V30.229C26.9952 29.7283 27.4105 29.313 27.9113 29.313C28.412 29.313 28.8273 29.7283 28.8273 30.229V69.313C28.8273 69.8138 28.412 70.229 27.9113 70.229Z" fill="white"/>
<path d="M36.4608 70.229C35.9601 70.229 35.5448 69.8138 35.5448 69.313V30.229C35.5448 29.7283 35.9601 29.313 36.4608 29.313C36.9616 29.313 37.3769 29.7283 37.3769 30.229V69.313C37.3769 69.8138 36.9616 70.229 36.4608 70.229Z" fill="white"/>
<path d="M73.1021 27.4809C72.6013 27.4809 72.186 27.0656 72.186 26.5649V9.72212C72.186 9.22136 72.6013 8.80609 73.1021 8.80609C73.6028 8.80609 74.0181 9.22136 74.0181 9.72212V26.5527C74.0181 27.0534 73.6028 27.4687 73.1021 27.4687V27.4809Z" fill="white"/>
<path d="M73.1021 5.75267C72.6013 5.75267 72.186 5.33741 72.186 4.83664V2.13741C72.186 1.63664 72.6013 1.22137 73.1021 1.22137C73.6028 1.22137 74.0181 1.63664 74.0181 2.13741V4.83664C74.0181 5.33741 73.6028 5.75267 73.1021 5.75267Z" fill="white"/>
<path d="M79.209 34.8092C78.7082 34.8092 78.293 34.3939 78.293 33.8931V19.5054C78.293 19.0046 78.7082 18.5893 79.209 18.5893C79.7098 18.5893 80.125 19.0046 80.125 19.5054V33.8931C80.125 34.3939 79.7098 34.8092 79.209 34.8092Z" fill="white"/>
<path d="M79.209 15.5237C78.7082 15.5237 78.293 15.1084 78.293 14.6076V11.9084C78.293 11.4076 78.7082 10.9924 79.209 10.9924C79.7098 10.9924 80.125 11.4076 80.125 11.9084V14.6076C80.125 15.1084 79.7098 15.5237 79.209 15.5237Z" fill="white"/>
<path d="M73.1021 80C72.6013 80 72.186 79.5847 72.186 79.084V71.7557C72.186 71.255 72.6013 70.8397 73.1021 70.8397C73.6028 70.8397 74.0181 71.255 74.0181 71.7557V79.084C74.0181 79.5847 73.6028 80 73.1021 80Z" fill="white"/>
<path d="M79.209 75.1145C78.7082 75.1145 78.293 74.6992 78.293 74.1985V65.6488C78.293 65.1481 78.7082 64.7328 79.209 64.7328C79.7098 64.7328 80.125 65.1481 80.125 65.6488V74.1985C80.125 74.6992 79.7098 75.1145 79.209 75.1145Z" fill="white"/>
</g>
<defs>
<clipPath id="clip0_1114_1660">
<rect width="80" height="80" fill="white" transform="translate(0.125)"/>
</clipPath>
</defs>
</svg>
