<svg width="49" height="48" viewBox="0 0 49 48" fill="none" xmlns="http://www.w3.org/2000/svg">
<path fill-rule="evenodd" clip-rule="evenodd" d="M41.3523 7.24407C45.1817 11.0735 47.6739 15.8856 48.5755 21.1738C48.7072 21.9134 48.2007 22.6225 47.4611 22.734C47.453 22.735 47.4449 22.736 47.4369 22.737C47.3657 22.746 47.301 22.7542 47.2281 22.7542C46.5696 22.7542 45.9922 22.2882 45.8807 21.6196C45.0804 16.8987 42.8516 12.5931 39.4275 9.16891C36.0033 5.75485 31.6977 3.51595 26.9768 2.71563C26.2271 2.58393 25.7307 1.88491 25.8523 1.13523C25.984 0.395688 26.683 -0.110849 27.4225 0.0208506C32.7108 0.922486 37.5229 3.41465 41.3523 7.24407ZM38.5682 29.7343C37.5855 28.7111 36.4002 28.1641 35.144 28.1641C33.8979 28.1641 32.7025 28.701 31.6793 29.7242L28.478 32.9154C28.3039 32.8216 28.1299 32.7323 27.9587 32.6445L27.9586 32.6445C27.8708 32.5994 27.7838 32.5548 27.6979 32.5101C27.3332 32.3278 26.9888 32.1556 26.695 31.9732C23.6963 30.0686 20.9711 27.5866 18.3574 24.3752C17.0911 22.7745 16.2401 21.4271 15.6221 20.0595C16.3727 19.373 17.0736 18.6616 17.7548 17.9704L17.9724 17.7497C18.1142 17.6079 18.2559 17.4637 18.3976 17.3194L18.398 17.3191C18.5398 17.1747 18.6816 17.0304 18.8234 16.8885C20.9509 14.7611 20.9509 12.0055 18.8234 9.87807L16.0577 7.11238L16.0577 7.11236L16.0576 7.11227C15.7436 6.79825 15.4194 6.47411 15.1156 6.14996C14.5077 5.52186 13.8695 4.87349 13.211 4.26565C12.2283 3.29309 11.0531 2.77643 9.81719 2.77643C8.58124 2.77643 7.38581 3.29309 6.37274 4.26565L6.35248 4.28591L2.90803 7.76075C1.61129 9.05748 0.871747 10.6379 0.709655 12.4715C0.466518 15.4297 1.33776 18.1853 2.00639 19.9885C3.64757 24.4157 6.09921 28.5186 9.7564 32.9154C14.1937 38.2137 19.5326 42.3977 25.6313 45.3458C27.9613 46.45 31.0715 47.7569 34.5463 47.9798C34.7591 47.9899 34.9819 48 35.1846 48C37.5247 48 39.4901 47.1592 41.03 45.4876C41.0351 45.4775 41.0426 45.4699 41.0502 45.4623C41.0578 45.4547 41.0654 45.4471 41.0705 45.437C41.5583 44.846 42.1156 44.3071 42.7021 43.74L42.8434 43.6033C43.279 43.1879 43.7248 42.7523 44.1604 42.2964C45.1633 41.253 45.6901 40.0373 45.6901 38.7912C45.6901 37.535 45.1532 36.3294 44.13 35.3163L38.5682 29.7343ZM42.195 40.402C41.8706 40.7513 41.5394 41.0734 41.1901 41.4129C41.114 41.4869 41.037 41.5618 40.9591 41.6379C40.3006 42.266 39.6319 42.9245 39.0038 43.6641C37.9806 44.7582 36.7751 45.2749 35.1947 45.2749C35.0427 45.2749 34.8806 45.2749 34.7287 45.2647C31.7198 45.0723 28.9238 43.8971 26.8267 42.8941C21.0927 40.1183 16.0577 36.1775 11.8737 31.183C8.41915 27.0193 6.10934 23.1696 4.5796 19.0363C3.63744 16.5137 3.29299 14.5483 3.44495 12.6944C3.54626 11.5091 4.00214 10.5264 4.843 9.68559L8.29758 6.23101C8.79398 5.76499 9.32078 5.51173 9.83745 5.51173C10.4757 5.51173 10.9924 5.89669 11.3165 6.22088L11.3469 6.25127C11.9649 6.82872 12.5525 7.42643 13.1705 8.06467C13.3287 8.22797 13.4894 8.39128 13.6515 8.55588L13.6516 8.55604L13.6519 8.55631C13.8114 8.71832 13.9721 8.88159 14.1329 9.04735L16.8986 11.813C17.9724 12.8869 17.9724 13.8797 16.8986 14.9536C16.8003 15.0518 16.7032 15.1501 16.6064 15.248L16.6063 15.2481C16.4138 15.4428 16.2228 15.6361 16.0273 15.8248C15.1763 16.6961 14.3659 17.5065 13.4845 18.2967C13.4773 18.3039 13.4702 18.3098 13.4634 18.3153C13.4512 18.3254 13.4404 18.3343 13.4339 18.3474C12.5626 19.2186 12.7247 20.0696 12.9071 20.647L12.9375 20.7382C13.6567 22.4807 14.6698 24.1219 16.2097 26.0771L16.2198 26.0873C19.0159 29.5317 21.9639 32.2163 25.2159 34.2729C25.6313 34.5363 26.0568 34.749 26.462 34.9516L26.462 34.9517C26.8267 35.134 27.1711 35.3062 27.4649 35.4886C27.4852 35.4987 27.5055 35.5114 27.5257 35.524C27.546 35.5367 27.5662 35.5494 27.5865 35.5595C27.9309 35.7317 28.2551 35.8128 28.5894 35.8128C29.4303 35.8128 29.9571 35.286 30.1293 35.1137L33.594 31.649C33.9385 31.3046 34.4855 30.8892 35.1238 30.8892C35.7519 30.8892 36.2685 31.2843 36.5826 31.6288L36.6029 31.649L42.1849 37.2311C43.2284 38.2644 43.2284 39.3281 42.195 40.402ZM26.573 11.4179C29.2273 11.8637 31.6384 13.1199 33.5632 15.0447C35.4881 16.9696 36.7341 19.3807 37.19 22.0349C37.3015 22.7036 37.8789 23.1696 38.5374 23.1696C38.6103 23.1696 38.6749 23.1614 38.7461 23.1524L38.7461 23.1524L38.7704 23.1493C39.5201 23.0277 40.0165 22.3186 39.8949 21.5689C39.3479 18.3575 37.8283 15.4297 35.5083 13.1097C33.1884 10.7898 30.2606 9.2702 27.0492 8.72314C26.2995 8.60157 25.6005 9.09798 25.4688 9.83752C25.3371 10.5771 25.8233 11.2963 26.573 11.4179Z" fill="black"/>
</svg>
