<svg width="55" height="56" viewBox="0 0 55 56" fill="none" xmlns="http://www.w3.org/2000/svg">
<path d="M50.7974 46.3448V4.82759C50.7959 3.54769 50.2868 2.32065 49.3818 1.41563C48.4768 0.510611 47.2497 0.00150761 45.9698 0H7.34913C6.06924 0.00150761 4.8422 0.510611 3.93718 1.41563C3.03216 2.32065 2.52305 3.54769 2.52154 4.82759V9.65517H10.2457V12.6007C8.15021 12.7905 6.15845 13.5989 4.52345 14.9232C2.88845 16.2475 1.684 18.028 1.06313 20.0383C0.442262 22.0487 0.432993 24.1982 1.0365 26.2139C1.64001 28.2295 2.82906 30.0203 4.45258 31.3586V44.3309L10.2457 38.5378V51.1724C10.2472 52.4523 10.7563 53.6793 11.6613 54.5844C12.5663 55.4894 13.7934 55.9985 15.0733 56H49.8319C51.1118 55.9985 52.3388 55.4894 53.2438 54.5844C54.1489 53.6793 54.658 52.4523 54.6595 51.1724V46.3448H50.7974ZM4.45258 7.72414V4.82759C4.45258 4.05937 4.75775 3.32262 5.30096 2.77941C5.84417 2.23621 6.58092 1.93103 7.34913 1.93103C8.11734 1.93103 8.85409 2.23621 9.3973 2.77941C9.94051 3.32262 10.2457 4.05937 10.2457 4.82759V7.72414H4.45258ZM2.52154 23.1724C2.52154 21.4538 3.03118 19.7737 3.98602 18.3447C4.94085 16.9157 6.29799 15.8019 7.88581 15.1442C9.47364 14.4865 11.2208 14.3144 12.9065 14.6497C14.5921 14.985 16.1404 15.8126 17.3557 17.0279C18.571 18.2432 19.3986 19.7915 19.7339 21.4771C20.0692 23.1628 19.8971 24.91 19.2394 26.4978C18.5817 28.0856 17.4679 29.4428 16.0389 30.3976C14.6099 31.3524 12.9299 31.8621 11.2112 31.8621C8.90734 31.8595 6.69858 30.9432 5.06951 29.3141C3.44044 27.685 2.5241 25.4763 2.52154 23.1724ZM6.38361 32.6207C7.8762 33.3911 9.5315 33.7931 11.2112 33.7931C12.8909 33.7931 14.5462 33.3911 16.0388 32.6207V39.669L11.2112 34.8414L6.38361 39.669V32.6207ZM17.9698 51.1724C17.9698 51.9406 17.6646 52.6774 17.1214 53.2206C16.5782 53.7638 15.8415 54.069 15.0733 54.069C14.3051 54.069 13.5683 53.7638 13.0251 53.2206C12.4819 52.6774 12.1767 51.9406 12.1767 51.1724V38.5378L17.9698 44.3309V31.3586C19.5933 30.0203 20.7824 28.2295 21.3859 26.2139C21.9894 24.1982 21.9801 22.0487 21.3593 20.0383C20.7384 18.028 19.534 16.2475 17.899 14.9232C16.264 13.5989 14.2722 12.7905 12.1767 12.6007V4.82759C12.178 3.78252 11.8384 2.76554 11.2093 1.93103H45.9698C46.7378 1.93188 47.474 2.23732 48.0171 2.78035C48.5601 3.32337 48.8655 4.05963 48.8664 4.82759V46.3448H17.9698V51.1724ZM52.7284 51.1724C52.7276 51.9404 52.4222 52.6766 51.8791 53.2197C51.3361 53.7627 50.5998 54.0681 49.8319 54.069H18.9334C19.5625 53.2345 19.9022 52.2175 19.9009 51.1724V48.2759H52.7284V51.1724Z" fill="white"/>
<path d="M17.0037 5.79288H30.5209V7.72391H17.0037V5.79288Z" fill="white"/>
<path d="M25.6944 14.4825H32.453V16.4135H25.6944V14.4825Z" fill="white"/>
<path d="M25.6944 20.276H39.2116V22.207H25.6944V20.276Z" fill="white"/>
<path d="M25.6944 26.0688H39.2116V27.9999H25.6944V26.0688Z" fill="white"/>
<path d="M25.6944 31.8623H39.2116V33.7933H25.6944V31.8623Z" fill="white"/>
<path d="M31.4868 40.5519H45.004V42.4829H31.4868V40.5519Z" fill="white"/>
<path d="M42.1072 4.8273C41.3434 4.8273 40.5967 5.05381 39.9616 5.47818C39.3265 5.90255 38.8315 6.50572 38.5392 7.21142C38.2469 7.91712 38.1704 8.69365 38.3194 9.44282C38.4684 10.192 38.8362 10.8801 39.3764 11.4203C39.9165 11.9604 40.6046 12.3282 41.3538 12.4772C42.103 12.6262 42.8795 12.5498 43.5852 12.2575C44.2909 11.9651 44.8941 11.4701 45.3184 10.835C45.7428 10.1999 45.9693 9.45322 45.9693 8.68937C45.9683 7.66539 45.5611 6.68364 44.837 5.95958C44.113 5.23551 43.1312 4.8283 42.1072 4.8273ZM42.1072 10.6204C41.7253 10.6204 41.352 10.5072 41.0344 10.295C40.7169 10.0828 40.4694 9.7812 40.3232 9.42834C40.1771 9.07549 40.1388 8.68723 40.2133 8.31264C40.2878 7.93806 40.4717 7.59398 40.7418 7.32392C41.0119 7.05386 41.3559 6.86995 41.7305 6.79544C42.1051 6.72093 42.4934 6.75917 42.8462 6.90533C43.1991 7.05148 43.5007 7.29899 43.7128 7.61654C43.925 7.9341 44.0383 8.30745 44.0383 8.68937C44.0376 9.2013 43.8339 9.69207 43.4719 10.0541C43.1099 10.416 42.6192 10.6197 42.1072 10.6204Z" fill="white"/>
<path d="M11.2121 28.9655C12.3579 28.9655 13.4779 28.6257 14.4306 27.9891C15.3833 27.3526 16.1258 26.4478 16.5642 25.3893C17.0027 24.3307 17.1174 23.1659 16.8939 22.0422C16.6704 20.9184 16.1186 19.8862 15.3085 19.076C14.4983 18.2658 13.466 17.7141 12.3423 17.4906C11.2185 17.267 10.0537 17.3818 8.99519 17.8202C7.93663 18.2587 7.03188 19.0012 6.39532 19.9539C5.75877 20.9065 5.41901 22.0266 5.41901 23.1723C5.42069 24.7083 6.03158 26.1808 7.11763 27.2668C8.20368 28.3529 9.6762 28.9638 11.2121 28.9655ZM11.2121 19.3103C11.976 19.3103 12.7226 19.5368 13.3578 19.9612C13.9929 20.3855 14.4879 20.9887 14.7802 21.6944C15.0725 22.4001 15.149 23.1766 15 23.9258C14.851 24.675 14.4831 25.3631 13.943 25.9032C13.4029 26.4434 12.7147 26.8112 11.9656 26.9602C11.2164 27.1092 10.4399 27.0327 9.73416 26.7404C9.02846 26.4481 8.42529 25.9531 8.00092 25.318C7.57655 24.6829 7.35004 23.9362 7.35004 23.1723C7.35104 22.1484 7.75825 21.1666 8.48232 20.4426C9.20638 19.7185 10.1881 19.3113 11.2121 19.3103Z" fill="#ECD078"/>
</svg>
