<svg width="81" height="80" viewBox="0 0 81 80" fill="none" xmlns="http://www.w3.org/2000/svg">
<g clip-path="url(#clip0_1115_1702)">
<path d="M40.625 79.084C62.2105 79.084 79.709 61.5855 79.709 40C79.709 18.4145 62.2105 0.916016 40.625 0.916016C19.0395 0.916016 1.54102 18.4145 1.54102 40C1.54102 61.5855 19.0395 79.084 40.625 79.084Z" fill="#507480"/>
<path d="M38.1823 10.687C59.764 10.687 77.2663 28.1893 77.2663 49.771C77.2663 51.3099 77.1685 52.8122 76.9975 54.3023C78.7441 49.8687 79.709 45.0443 79.709 40C79.709 18.4183 62.2067 0.916016 40.625 0.916016C20.5701 0.916016 4.05708 16.0244 1.80975 35.4687C7.52578 20.9588 21.6449 10.687 38.1823 10.687Z" fill="#507480"/>
<path d="M40.625 80C18.567 80 0.625 62.058 0.625 40C0.625 17.942 18.567 0 40.625 0C62.683 0 80.625 17.942 80.625 40C80.625 62.058 62.683 80 40.625 80ZM40.625 1.83206C19.5807 1.83206 2.45706 18.9557 2.45706 40C2.45706 61.0443 19.5807 78.1679 40.625 78.1679C61.6693 78.1679 78.7929 61.0443 78.7929 40C78.7929 18.9557 61.6693 1.83206 40.625 1.83206Z" fill="white"/>
<path d="M40.625 9.46564L35.8616 19.1145L25.2112 20.6656L32.9181 28.1771L31.0983 38.7786L40.625 33.771L50.1517 38.7786L48.3319 28.1771L56.0387 20.6656L45.3883 19.1145L40.625 9.46564Z" fill="#507480"/>
<path d="M25.2112 20.6657L31.7945 19.713L37.1074 24.8794C37.5349 25.2947 37.7548 25.8931 37.6815 26.4916L37.2662 29.9237C37.2296 30.229 37.5349 30.4489 37.8158 30.3145L40.9548 28.8733C41.5044 28.6168 42.1395 28.6412 42.6647 28.9221L49.0525 32.342L50.1639 38.7908L40.6372 33.7832L31.1105 38.7908L32.9303 28.1893L25.2235 20.6779L25.2112 20.6657Z" fill="#507480"/>
<path d="M50.1517 39.6947C50.0051 39.6947 49.8586 39.658 49.7242 39.5847L40.625 34.797L31.5257 39.5847C31.2204 39.7435 30.8418 39.7191 30.5608 39.5115C30.2799 39.3038 30.1334 38.9618 30.1944 38.6199L31.9288 28.4947L24.5639 21.3252C24.3196 21.0809 24.2219 20.7145 24.3318 20.3847C24.4418 20.055 24.7227 19.8107 25.0769 19.7618L35.2509 18.284L39.7944 9.0626C40.0998 8.4397 41.1257 8.4397 41.4433 9.0626L45.9868 18.284L56.1608 19.7618C56.5028 19.8107 56.796 20.055 56.9059 20.3847C57.0158 20.7145 56.9181 21.0809 56.6738 21.3252L49.3089 28.4947L51.0433 38.6199C51.1044 38.9618 50.9578 39.316 50.6769 39.5115C50.5181 39.6336 50.3227 39.6825 50.1395 39.6825L50.1517 39.6947ZM40.625 32.855C40.7715 32.855 40.9181 32.8916 41.0524 32.9649L48.9303 37.1054L47.428 28.3237C47.3792 28.0305 47.4769 27.7252 47.6967 27.5176L54.0723 21.3008L45.2662 20.0183C44.9608 19.9695 44.7044 19.7863 44.57 19.5176L40.625 11.5298L36.6799 19.5176C36.5456 19.7863 36.2891 19.9817 35.9837 20.0183L27.1776 21.3008L33.5532 27.5176C33.7731 27.7252 33.8708 28.0305 33.8219 28.3237L32.3196 37.1054L40.1975 32.9649C40.3318 32.8916 40.4784 32.855 40.625 32.855Z" fill="white"/>
<path d="M65.0525 27.7863L62.28 33.4168L56.0632 34.3206L60.5578 38.7053L59.4952 44.8855L65.0525 41.9664L70.6097 44.8855L69.5471 38.7053L74.0418 34.3206L67.8372 33.4168L65.0525 27.7863Z" fill="#507480"/>
<path d="M56.0632 34.3206L59.8983 33.7588L63.0006 36.7756C63.2571 37.0199 63.3792 37.3741 63.3303 37.716L63.0861 39.7191C63.0616 39.8901 63.2449 40.0244 63.4036 39.9512L65.2357 39.1084C65.5533 38.9618 65.9319 38.9741 66.2372 39.1328L69.9624 41.1237L70.6097 44.8855L65.0525 41.9664L59.4952 44.8855L60.5578 38.6931L56.0632 34.3084V34.3206Z" fill="#507480"/>
<path d="M59.4952 45.8015C59.2998 45.8015 59.1166 45.7405 58.9578 45.6305C58.6769 45.4229 58.5303 45.0809 58.5914 44.7389L59.5685 39.0229L55.4158 34.9802C55.1716 34.7359 55.0738 34.3695 55.1838 34.0397C55.2937 33.7099 55.5746 33.4657 55.9288 33.4168L61.6693 32.5863L64.2342 27.3954C64.5395 26.7725 65.5654 26.7725 65.883 27.3954L68.4479 32.5863L74.1883 33.4168C74.5303 33.4657 74.8235 33.7099 74.9334 34.0397C75.0433 34.3695 74.9456 34.7359 74.7013 34.9802L70.5487 39.0229L71.5258 44.7389C71.5868 45.0809 71.4403 45.4351 71.1593 45.6305C70.8784 45.8382 70.4998 45.8626 70.1945 45.7038L65.0647 43.0046L59.9349 45.7038C59.8006 45.7771 59.654 45.8137 59.5074 45.8137L59.4952 45.8015ZM65.0525 41.0504C65.199 41.0504 65.3456 41.087 65.4799 41.1603L69.3883 43.2122L68.6433 38.8519C68.5945 38.5588 68.6922 38.2534 68.912 38.0458L72.0754 34.9557L67.7029 34.3206C67.3975 34.2718 67.141 34.0886 67.0067 33.8199L65.0525 29.8504L63.0983 33.8199C62.9639 34.0886 62.7074 34.284 62.4021 34.3206L58.0296 34.9557L61.1929 38.0458C61.4128 38.2534 61.5105 38.5588 61.4616 38.8519L60.7166 43.2122L64.625 41.1603C64.7593 41.087 64.9059 41.0504 65.0525 41.0504Z" fill="white"/>
<path d="M16.1975 27.7863L13.4128 33.4168L7.20819 34.3206L11.7028 38.7053L10.6403 44.8855L16.1975 41.9664L21.7548 44.8855L20.6922 38.7053L25.1868 34.3206L18.97 33.4168L16.1975 27.7863Z" fill="#507480"/>
<path d="M7.20819 34.3206L11.0433 33.7588L14.1456 36.7756C14.4021 37.0199 14.5242 37.3741 14.4754 37.716L14.2311 39.7191C14.2067 39.8901 14.3899 40.0244 14.5486 39.9512L16.3807 39.1084C16.6983 38.9618 17.0769 38.9741 17.3822 39.1328L21.1074 41.1237L21.7548 44.8855L16.1975 41.9664L10.6403 44.8855L11.7028 38.6931L7.20819 34.3084V34.3206Z" fill="#507480"/>
<path d="M10.6403 45.8015C10.4449 45.8015 10.2617 45.7405 10.1029 45.6305C9.82198 45.4229 9.67541 45.0809 9.73648 44.7389L10.7136 39.0229L6.56091 34.9802C6.31663 34.7359 6.21892 34.3695 6.32885 34.0397C6.43877 33.7099 6.71969 33.4657 7.07389 33.4168L12.8143 32.5863L15.3792 27.3954C15.6846 26.7725 16.7105 26.7725 17.0281 27.3954L19.593 32.5863L25.3334 33.4168C25.6754 33.4657 25.9685 33.7099 26.0785 34.0397C26.1884 34.3695 26.0907 34.7359 25.8464 34.9802L21.6937 39.0229L22.6708 44.7389C22.7319 45.0809 22.5853 45.4351 22.3044 45.6305C22.0235 45.8382 21.6449 45.8626 21.3395 45.7038L16.2098 43.0046L11.08 45.7038C10.9456 45.7771 10.7991 45.8137 10.6525 45.8137L10.6403 45.8015ZM16.1975 41.0504C16.3441 41.0504 16.4907 41.087 16.625 41.1603L20.5334 43.2122L19.7884 38.8519C19.7395 38.5588 19.8372 38.2534 20.0571 38.0458L23.2204 34.9557L18.8479 34.3206C18.5426 34.2718 18.2861 34.0886 18.1517 33.8199L16.1975 29.8504L14.2434 33.8199C14.109 34.0886 13.8525 34.284 13.5472 34.3206L9.17465 34.9557L12.338 38.0458C12.5579 38.2534 12.6556 38.5588 12.6067 38.8519L11.8617 43.2122L15.7701 41.1603C15.9044 41.087 16.051 41.0504 16.1975 41.0504Z" fill="white"/>
<path d="M79.709 59.2489C55.1593 43.3466 26.0906 43.3466 1.54102 59.2489L10.6036 66.7481L9.49216 79.084C29.0464 66.4183 52.2036 66.4183 71.7578 79.084L70.6464 66.7481L79.709 59.2489Z" fill="#507480"/>
<path d="M70.6464 66.7481L79.709 59.2489C76.338 57.0626 72.8815 55.1939 69.3639 53.6061C60.2036 61.1786 60.1792 61.2031 60.1792 61.2031C60.1792 61.2031 60.5497 65.3476 61.2906 73.6366C64.8571 75.0657 68.3624 76.8733 71.7578 79.0718L70.6464 66.7359V66.7481Z" fill="#507480"/>
<path d="M10.5914 66.858C10.5548 67.2733 10.3716 69.2764 9.49219 79.084C24.5884 69.313 41.8097 67.0901 57.883 72.3909C42.9212 63.9267 26.2861 62.0702 10.5914 66.858Z" fill="#507480"/>
<path d="M71.7578 80C71.5868 80 71.4158 79.9511 71.257 79.8534C52.0693 67.4321 29.1685 67.4321 9.98071 79.8534C9.68758 80.0489 9.30895 80.0489 9.00361 79.8656C8.69826 79.6824 8.53949 79.3527 8.56391 78.9985L9.62651 67.1389L0.954753 59.9573C0.734905 59.774 0.612768 59.4931 0.624982 59.2C0.637195 58.9069 0.795974 58.6382 1.04025 58.4794C25.8219 42.4305 55.4158 42.4305 80.1975 58.4794C80.4418 58.6382 80.6006 58.9069 80.6128 59.2C80.625 59.4931 80.5028 59.774 80.283 59.9573L71.599 67.1511L72.6616 79.0107C72.6983 79.3649 72.5273 79.6947 72.2219 79.8779C72.0754 79.9634 71.9166 80.0122 71.7456 80.0122L71.7578 80ZM3.09216 59.3466L11.1777 66.0397C11.4097 66.2351 11.5319 66.5282 11.5074 66.8336L10.567 77.3252C29.5227 65.8198 51.7273 65.8198 70.683 77.3252L69.7425 66.8336C69.7181 66.5282 69.8402 66.2351 70.0723 66.0397L78.1578 59.3466C54.5731 44.5924 26.6891 44.5924 3.09216 59.3466Z" fill="white"/>
<path d="M18.6403 60.0428C18.2861 60.0428 17.9563 59.8351 17.7975 59.4931C17.5899 59.029 17.7975 58.4916 18.2739 58.284C23.0861 56.1832 28.2281 54.7908 33.5777 54.1191C34.0662 54.058 34.5426 54.4122 34.6036 54.913C34.6647 55.4137 34.3105 55.8779 33.8098 55.9389C28.6433 56.574 23.6724 57.9298 19.0189 59.9573C18.8968 60.0061 18.7746 60.0305 18.6525 60.0305L18.6403 60.0428Z" fill="white"/>
<path d="M62.6097 60.0428C62.4876 60.0428 62.3655 60.0183 62.2433 59.9695C55.0616 56.8428 47.0128 55.3038 38.9639 55.5481C38.4021 55.5481 38.0357 55.1695 38.0235 54.6565C38.0113 54.1557 38.4021 53.7283 38.9151 53.716C47.2326 53.4718 55.5624 55.0473 62.9884 58.284C63.4525 58.4916 63.6601 59.029 63.4647 59.4931C63.3181 59.8351 62.9761 60.0428 62.6219 60.0428H62.6097Z" fill="white"/>
<path d="M21.083 67.0046C20.7288 67.0046 20.3868 66.797 20.2403 66.4428C20.0448 65.9786 20.2647 65.4412 20.741 65.2458C28.2769 62.1313 36.7166 60.8611 45.1197 61.5695C45.6204 61.6061 45.999 62.058 45.9502 62.5588C45.9135 63.0596 45.4616 63.4504 44.9609 63.3893C36.8387 62.7176 28.7044 63.9389 21.425 66.9435C21.3151 66.9924 21.1929 67.0168 21.0708 67.0168L21.083 67.0046Z" fill="white"/>
<path d="M60.167 67.0046C60.0448 67.0046 59.9349 66.9801 59.8128 66.9313C56.7715 65.6733 53.5471 64.7206 50.225 64.0977C49.7242 64 49.4067 63.5237 49.4921 63.0229C49.5899 62.5221 50.054 62.1924 50.567 62.2901C54.0112 62.9374 57.3578 63.9267 60.5089 65.2336C60.9731 65.429 61.2051 65.9664 61.0097 66.4305C60.8631 66.7847 60.5212 66.9924 60.167 66.9924V67.0046Z" fill="white"/>
</g>
<defs>
<clipPath id="clip0_1115_1702">
<rect width="80" height="80" fill="white" transform="translate(0.625)"/>
</clipPath>
</defs>
</svg>
