<svg xmlns="http://www.w3.org/2000/svg" width="16" height="16" viewBox="0 0 16 16" fill="none">
<path d="M5.43804 4.05709H14.847L9.70728 8.09324C9.59836 8.17869 9.46878 8.22041 9.35124 8.23185C9.23289 8.22021 9.10292 8.17849 8.9928 8.09324L5.3197 5.20784C5.28079 5.17655 5.23686 5.15268 5.18852 5.13784C5.36142 4.89393 5.46011 4.59887 5.45489 4.28094C5.45389 4.20813 5.44747 4.13311 5.43804 4.05709ZM3.04528 1.46133C3.05711 1.46334 3.07657 1.47076 3.11889 1.49042C3.20253 1.53013 3.33552 1.63243 3.4657 1.77505C3.72786 2.06068 3.98983 2.49334 4.12582 2.77897C4.13004 2.78739 4.13445 2.79662 4.13846 2.80605C4.52438 3.46818 4.69087 3.97465 4.69588 4.29238C4.7013 4.6115 4.61565 4.7489 4.34506 4.90436L3.64703 5.30673C3.19231 5.56849 2.97748 6.03766 2.92412 6.47533C2.87057 6.91321 2.9494 7.33865 3.14416 7.67503L4.86718 10.6447C5.06235 10.9809 5.39552 11.2621 5.80291 11.4348C6.21069 11.6079 6.7264 11.6568 7.18112 11.3957L7.87915 10.9941C8.14954 10.839 8.31302 10.8358 8.58762 10.9991C8.86302 11.1628 9.22066 11.5581 9.60498 12.2207C9.61039 12.2305 9.61561 12.2387 9.62183 12.2481C9.80195 12.5079 10.0473 12.9486 10.1656 13.3177C10.2244 13.501 10.2474 13.6667 10.24 13.7583C10.2318 13.8504 10.2298 13.841 10.2055 13.8554L9.67438 14.1599C8.34009 14.7386 7.11713 14.608 6.02415 14.0412C4.92916 13.4719 3.97739 12.4439 3.31386 11.237C3.31165 11.2346 3.31065 11.2316 3.30884 11.23L1.85541 8.72508C1.85301 8.72268 1.852 8.72047 1.85 8.71726C1.1309 7.54184 0.711882 6.20735 0.764435 4.97958C0.816988 3.75361 1.31444 2.63595 2.48625 1.77605L3.0176 1.47256C3.02983 1.46554 3.03384 1.46013 3.04528 1.46133ZM3.05069 0.714958C2.91008 0.712752 2.76667 0.742238 2.63769 0.817056L2.07585 1.1402C2.06322 1.14742 2.05158 1.15484 2.04015 1.16206C0.688414 2.15134 0.0660018 3.52855 0.0052248 4.94808C-0.0555522 6.36702 0.418227 7.83148 1.20091 9.11181L2.64952 11.6081L2.64611 11.6007C3.36922 12.9147 4.40544 14.0546 5.67172 14.7113C6.93861 15.369 8.44781 15.5215 9.98508 14.8511C9.99772 14.8457 10.0106 14.8397 10.022 14.8327L10.5846 14.5095C10.8448 14.3615 10.9756 14.0735 10.9968 13.8219C11.0187 13.5712 10.9675 13.3271 10.8899 13.0866C10.7379 12.611 10.4727 12.1491 10.2537 11.8321C9.83986 11.1203 9.4403 10.6262 8.97855 10.35C8.5132 10.0726 7.95457 10.0766 7.49885 10.3386L6.80081 10.741C6.59461 10.8597 6.35351 10.8459 6.09977 10.7385C5.84724 10.6312 5.61335 10.4166 5.5265 10.2662L3.80348 7.29672C3.71643 7.14548 3.64522 6.83699 3.67892 6.56499C3.71142 6.2938 3.82154 6.08138 4.02794 5.96244L4.70611 5.5725C4.72376 5.66337 4.77511 5.74581 4.84953 5.80117L8.52283 8.68717C8.76172 8.87492 9.04475 8.97942 9.32978 8.99587C9.34422 8.99667 9.35906 8.99667 9.3737 8.99587C9.65893 8.97942 9.94056 8.87472 10.1797 8.68717L15.2388 4.7128V11.2787C15.2388 11.3786 15.1249 11.5102 14.9014 11.5102H11.399C11.1882 11.509 11.0175 11.6791 11.0175 11.8887C11.0175 12.0979 11.1884 12.268 11.399 12.2668H14.9014C15.4739 12.2668 16 11.853 16 11.2787V4.28856C16 3.71389 15.4739 3.30029 14.9014 3.30029H5.22964C5.12253 3.03251 4.98111 2.74868 4.803 2.44018C4.63631 2.09317 4.36592 1.63444 4.02754 1.26556C3.85664 1.07862 3.6723 0.912935 3.44183 0.805823V0.806826C3.3273 0.752668 3.1911 0.717967 3.05069 0.714958Z" fill="#000000"/>
</svg>