<svg width="81" height="80" viewBox="0 0 81 80" fill="none" xmlns="http://www.w3.org/2000/svg">
<g clip-path="url(#clip0_1114_1534)">
<path d="M36.7109 63.2061C50.8763 63.2061 62.3597 51.7227 62.3597 37.5572C62.3597 23.3918 50.8763 11.9084 36.7109 11.9084C22.5454 11.9084 11.062 23.3918 11.062 37.5572C11.062 51.7227 22.5454 63.2061 36.7109 63.2061Z" fill="#597B7C"/>
<path d="M56.6559 21.4351C57.1689 23.4748 57.4743 25.5878 57.4743 27.7863C57.4743 41.9542 45.9933 53.4351 31.8254 53.4351C23.7643 53.4351 16.5827 49.7099 11.8804 43.9084C14.714 54.9985 24.7292 63.2061 36.7109 63.2061C50.8788 63.2061 62.3598 51.7252 62.3598 37.5573C62.3598 31.4504 60.2224 25.8443 56.6559 21.4351Z" fill="#597B7C"/>
<path d="M36.7109 64.1221C22.0666 64.1221 10.146 52.2015 10.146 37.5573C10.146 22.913 22.0666 10.9924 36.7109 10.9924C51.3552 10.9924 63.2758 22.913 63.2758 37.5573C63.2758 52.2015 51.3552 64.1221 36.7109 64.1221ZM36.7109 12.8244C23.0681 12.8244 11.9781 23.9145 11.9781 37.5573C11.9781 51.2 23.0681 62.2901 36.7109 62.2901C50.3536 62.2901 61.4437 51.2 61.4437 37.5573C61.4437 23.9145 50.3536 12.8244 36.7109 12.8244Z" fill="white"/>
<path d="M36.7108 38.4733C36.5765 38.4733 36.4421 38.4489 36.3078 38.3756C35.9902 38.2168 35.7948 37.8992 35.7948 37.5573V11.9084C35.7948 11.4076 36.2101 10.9924 36.7108 10.9924C37.2116 10.9924 37.6269 11.4076 37.6269 11.9084V35.6763L56.3017 21.0076C56.7047 20.7023 57.2788 20.7634 57.5841 21.1664C57.9017 21.5695 57.8284 22.1435 57.4253 22.4489L37.2727 38.2779C37.1139 38.4122 36.9063 38.4733 36.7108 38.4733Z" fill="white"/>
<path d="M56.6803 54.571C56.4727 54.571 56.2773 54.5099 56.1063 54.3634L36.6864 38.7053L16.5093 53.374C16.0941 53.6672 15.52 53.5817 15.2269 53.1664C14.9338 52.7634 15.0193 52.1893 15.4223 51.884L36.1613 36.8C36.491 36.5557 36.9551 36.5679 37.2727 36.8244L57.2422 52.9221C57.633 53.2397 57.6941 53.8137 57.3765 54.2046C57.1933 54.4244 56.9246 54.5466 56.6681 54.5466L56.6803 54.571Z" fill="white"/>
<path d="M36.7109 46.1069C41.4327 46.1069 45.2605 42.2791 45.2605 37.5572C45.2605 32.8354 41.4327 29.0076 36.7109 29.0076C31.989 29.0076 28.1613 32.8354 28.1613 37.5572C28.1613 42.2791 31.989 46.1069 36.7109 46.1069Z" fill="#597B7C"/>
<path d="M40.8879 30.1435C40.9246 30.4733 40.9856 30.8031 40.9856 31.1451C40.9856 35.8718 37.1627 39.6947 32.436 39.6947C30.9093 39.6947 29.5047 39.2672 28.2589 38.5588C28.7597 42.797 32.3261 46.1069 36.7108 46.1069C41.4375 46.1069 45.2604 42.284 45.2604 37.5573C45.2604 34.3573 43.4894 31.6092 40.8879 30.1435Z" fill="#597B7C"/>
<path d="M36.7109 47.0229C31.4956 47.0229 27.2452 42.7725 27.2452 37.5573C27.2452 32.342 31.4956 28.0916 36.7109 28.0916C41.9262 28.0916 46.1765 32.342 46.1765 37.5573C46.1765 42.7725 41.9262 47.0229 36.7109 47.0229ZM36.7109 29.9237C32.4971 29.9237 29.0773 33.3435 29.0773 37.5573C29.0773 41.771 32.4971 45.1908 36.7109 45.1908C40.9246 45.1908 44.3445 41.771 44.3445 37.5573C44.3445 33.3435 40.9246 29.9237 36.7109 29.9237Z" fill="white"/>
<path d="M79.459 35.1145H62.3597L52.5887 42.4427V16.7939H79.459V35.1145Z" fill="#597B7C"/>
<path d="M72.1307 29.0076H63.5811C62.7872 29.0076 62.0178 29.2641 61.3826 29.7404L52.5887 36.3359V16.7939H73.3521V27.7863C73.3521 28.458 72.8025 29.0076 72.1307 29.0076Z" fill="#597B7C"/>
<path d="M52.5888 43.3588C52.4544 43.3588 52.3078 43.3221 52.1857 43.2611C51.8804 43.1023 51.6727 42.7847 51.6727 42.4428V16.7939C51.6727 16.2931 52.088 15.8779 52.5888 15.8779H79.459C79.9598 15.8779 80.375 16.2931 80.375 16.7939V35.1145C80.375 35.6153 79.9598 36.0305 79.459 36.0305H62.6651L53.1384 43.1756C52.9796 43.2977 52.7842 43.3588 52.5888 43.3588ZM53.5048 17.7099V40.6107L61.8101 34.3817C61.9689 34.2595 62.1643 34.1985 62.3598 34.1985H78.543V17.7099H53.5048Z" fill="white"/>
<path d="M73.9628 24.1221H67.856C67.3552 24.1221 66.9399 23.7069 66.9399 23.2061C66.9399 22.7053 67.3552 22.2901 67.856 22.2901H73.9628C74.4636 22.2901 74.8789 22.7053 74.8789 23.2061C74.8789 23.7069 74.4636 24.1221 73.9628 24.1221Z" fill="white"/>
<path d="M62.9705 24.1221H58.085C57.5842 24.1221 57.1689 23.7069 57.1689 23.2061C57.1689 22.7053 57.5842 22.2901 58.085 22.2901H62.9705C63.4712 22.2901 63.8865 22.7053 63.8865 23.2061C63.8865 23.7069 63.4712 24.1221 62.9705 24.1221Z" fill="white"/>
<path d="M67.856 29.6183H58.085C57.5842 29.6183 57.1689 29.203 57.1689 28.7023C57.1689 28.2015 57.5842 27.7863 58.085 27.7863H67.856C68.3567 27.7863 68.772 28.2015 68.772 28.7023C68.772 29.203 68.3567 29.6183 67.856 29.6183Z" fill="white"/>
<path d="M1.29102 19.2366H18.3903L28.1612 26.5649V0.916016H1.29102V19.2366Z" fill="#597B7C"/>
<path d="M1.29102 13.1298H20.833C21.5048 13.1298 22.0544 12.5801 22.0544 11.9084V0.916016H1.29102V13.1298Z" fill="#597B7C"/>
<path d="M28.1613 27.4809C27.9658 27.4809 27.7704 27.4198 27.6116 27.2977L18.0849 20.1527H1.29103C0.790267 20.1527 0.375 19.7374 0.375 19.2366V0.916031C0.375 0.415267 0.790267 0 1.29103 0H28.1613C28.662 0 29.0773 0.415267 29.0773 0.916031V26.5649C29.0773 26.9069 28.8819 27.2244 28.5765 27.3832C28.4422 27.4443 28.3078 27.4809 28.1613 27.4809ZM2.20706 18.3206H18.3903C18.5857 18.3206 18.7811 18.3817 18.9399 18.5038L27.2452 24.7328V1.83206H2.20706V18.3206Z" fill="white"/>
<path d="M22.6651 8.24426H16.5582C16.0575 8.24426 15.6422 7.82899 15.6422 7.32823C15.6422 6.82747 16.0575 6.4122 16.5582 6.4122H22.6651C23.1659 6.4122 23.5811 6.82747 23.5811 7.32823C23.5811 7.82899 23.1659 8.24426 22.6651 8.24426Z" fill="white"/>
<path d="M11.6727 8.24426H6.78725C6.28648 8.24426 5.87122 7.82899 5.87122 7.32823C5.87122 6.82747 6.28648 6.4122 6.78725 6.4122H11.6727C12.1735 6.4122 12.5888 6.82747 12.5888 7.32823C12.5888 7.82899 12.1735 8.24426 11.6727 8.24426Z" fill="white"/>
<path d="M22.6651 13.7404H18.8666C18.3658 13.7404 17.9506 13.3252 17.9506 12.8244C17.9506 12.3237 18.3658 11.9084 18.8666 11.9084H22.6651C23.1658 11.9084 23.5811 12.3237 23.5811 12.8244C23.5811 13.3252 23.1658 13.7404 22.6651 13.7404Z" fill="white"/>
<path d="M13.9811 13.7404H6.78725C6.28648 13.7404 5.87122 13.3252 5.87122 12.8244C5.87122 12.3237 6.28648 11.9084 6.78725 11.9084H13.9811C14.4819 11.9084 14.8972 12.3237 14.8972 12.8244C14.8972 13.3252 14.4819 13.7404 13.9811 13.7404Z" fill="white"/>
<path d="M8.61926 60.7634H25.7185L35.4895 53.4351V79.084H8.61926V60.7634Z" fill="#597B7C"/>
<path d="M8.61926 60.7634H25.7185L29.3826 57.942V71.7557C29.3826 72.4275 28.833 72.9771 28.1612 72.9771H8.61926V60.7634Z" fill="#597B7C"/>
<path d="M35.4895 80H8.61928C8.11851 80 7.70325 79.5847 7.70325 79.084V60.7634C7.70325 60.2626 8.11851 59.8473 8.61928 59.8473H25.4132L34.9399 52.7023C35.2208 52.4947 35.5872 52.458 35.9048 52.6168C36.2101 52.7756 36.4055 53.0931 36.4055 53.4351V79.084C36.4055 79.5847 35.9903 80 35.4895 80ZM9.53531 78.1679H34.5735V55.2672L26.2681 61.4962C26.1094 61.6183 25.9139 61.6794 25.7185 61.6794H9.53531V78.1679Z" fill="white"/>
<path d="M29.9933 68.0916H25.1078C24.607 68.0916 24.1918 67.6763 24.1918 67.1756C24.1918 66.6748 24.607 66.2596 25.1078 66.2596H29.9933C30.4941 66.2596 30.9093 66.6748 30.9093 67.1756C30.9093 67.6763 30.4941 68.0916 29.9933 68.0916Z" fill="white"/>
<path d="M20.2224 68.0916H14.1155C13.6147 68.0916 13.1995 67.6763 13.1995 67.1756C13.1995 66.6748 13.6147 66.2596 14.1155 66.2596H20.2224C20.7231 66.2596 21.1384 66.6748 21.1384 67.1756C21.1384 67.6763 20.7231 68.0916 20.2224 68.0916Z" fill="white"/>
<path d="M21.4437 73.5878H14.1155C13.6147 73.5878 13.1995 73.1725 13.1995 72.6718C13.1995 72.171 13.6147 71.7557 14.1155 71.7557H21.4437C21.9445 71.7557 22.3598 72.171 22.3598 72.6718C22.3598 73.1725 21.9445 73.5878 21.4437 73.5878Z" fill="white"/>
<path d="M64.8025 60.7634H57.4742V79.084H64.8025V60.7634Z" fill="#597B7C"/>
<path d="M64.8025 69.313H57.4742V79.084H64.8025V69.313Z" fill="#597B7C"/>
<path d="M64.8025 80H57.4743C56.9735 80 56.5582 79.5847 56.5582 79.084V60.7634C56.5582 60.2626 56.9735 59.8473 57.4743 59.8473H64.8025C65.3033 59.8473 65.7185 60.2626 65.7185 60.7634V79.084C65.7185 79.5847 65.3033 80 64.8025 80ZM58.3903 78.1679H63.8865V61.6794H58.3903V78.1679Z" fill="white"/>
<path d="M57.4742 65.6489H50.146V79.084H57.4742V65.6489Z" fill="#597B7C"/>
<path d="M57.4742 74.1985H50.146V79.084H57.4742V74.1985Z" fill="#597B7C"/>
<path d="M57.4743 80H50.146C49.6452 80 49.23 79.5847 49.23 79.084V65.6488C49.23 65.1481 49.6452 64.7328 50.146 64.7328H57.4743C57.975 64.7328 58.3903 65.1481 58.3903 65.6488V79.084C58.3903 79.5847 57.975 80 57.4743 80ZM51.062 78.1679H56.5582V66.5649H51.062V78.1679Z" fill="white"/>
<path d="M79.459 42.4427H72.1307V79.084H79.459V42.4427Z" fill="#597B7C"/>
<path d="M79.459 50.9924H72.1307V79.084H79.459V50.9924Z" fill="#597B7C"/>
<path d="M79.459 80H72.1308C71.63 80 71.2147 79.5847 71.2147 79.084V42.4428C71.2147 41.942 71.63 41.5267 72.1308 41.5267H79.459C79.9598 41.5267 80.375 41.942 80.375 42.4428V79.084C80.375 79.5847 79.9598 80 79.459 80ZM73.0468 78.168H78.543V43.3588H73.0468V78.168Z" fill="white"/>
<path d="M72.1307 50.9924H64.8025V79.084H72.1307V50.9924Z" fill="#597B7C"/>
<path d="M72.1307 59.542H64.8025V79.084H72.1307V59.542Z" fill="#597B7C"/>
<path d="M72.1307 80H64.8025C64.3017 80 63.8865 79.5847 63.8865 79.084V50.9924C63.8865 50.4916 64.3017 50.0763 64.8025 50.0763H72.1307C72.6315 50.0763 73.0468 50.4916 73.0468 50.9924V79.084C73.0468 79.5847 72.6315 80 72.1307 80ZM65.7185 78.1679H71.2147V51.9084H65.7185V78.1679Z" fill="white"/>
<path d="M50.146 70.5344H42.8177V79.084H50.146V70.5344Z" fill="#597B7C"/>
<path d="M50.146 80H42.8178C42.317 80 41.9017 79.5847 41.9017 79.084V70.5343C41.9017 70.0336 42.317 69.6183 42.8178 69.6183H50.146C50.6468 69.6183 51.062 70.0336 51.062 70.5343V79.084C51.062 79.5847 50.6468 80 50.146 80ZM43.7338 78.1679H49.23V71.4504H43.7338V78.1679Z" fill="white"/>
<path d="M79.4589 5.49618C79.2269 5.49618 78.9948 5.41069 78.8116 5.22748L75.1475 1.56336C74.7933 1.20916 74.7933 0.622899 75.1475 0.268701C75.5017 -0.0854978 76.0879 -0.0854978 76.4421 0.268701L80.1063 3.93282C80.4605 4.28702 80.4605 4.87328 80.1063 5.22748C79.9231 5.41069 79.691 5.49618 79.4589 5.49618Z" fill="white"/>
<path d="M75.7948 5.49618C75.5628 5.49618 75.3307 5.41069 75.1475 5.22748C74.7933 4.87328 74.7933 4.28702 75.1475 3.93282L78.8116 0.268701C79.1658 -0.0854978 79.7521 -0.0854978 80.1063 0.268701C80.4605 0.622899 80.4605 1.20916 80.1063 1.56336L76.4421 5.22748C76.2589 5.41069 76.0269 5.49618 75.7948 5.49618Z" fill="white"/>
<path d="M66.0239 12.8244C65.7918 12.8244 65.5598 12.7389 65.3765 12.5557L61.7124 8.8916C61.3582 8.53741 61.3582 7.95115 61.7124 7.59695C62.0666 7.24275 62.6529 7.24275 63.0071 7.59695L66.6712 11.2611C67.0254 11.6153 67.0254 12.2015 66.6712 12.5557C66.488 12.7389 66.2559 12.8244 66.0239 12.8244Z" fill="white"/>
<path d="M62.3598 12.8244C62.1277 12.8244 61.8956 12.7389 61.7124 12.5557C61.3582 12.2015 61.3582 11.6153 61.7124 11.2611L65.3765 7.59695C65.7307 7.24275 66.317 7.24275 66.6712 7.59695C67.0254 7.95115 67.0254 8.53741 66.6712 8.8916L63.0071 12.5557C62.8239 12.7389 62.5918 12.8244 62.3598 12.8244Z" fill="white"/>
<path d="M45.2604 5.49618C45.0284 5.49618 44.7963 5.41069 44.6131 5.22748L40.949 1.56336C40.5948 1.20916 40.5948 0.622899 40.949 0.268701C41.3032 -0.0854978 41.8895 -0.0854978 42.2437 0.268701L45.9078 3.93282C46.262 4.28702 46.262 4.87328 45.9078 5.22748C45.7246 5.41069 45.4925 5.49618 45.2604 5.49618Z" fill="white"/>
<path d="M41.5963 5.49618C41.3643 5.49618 41.1322 5.41069 40.949 5.22748C40.5948 4.87328 40.5948 4.28702 40.949 3.93282L44.6131 0.268701C44.9673 -0.0854978 45.5536 -0.0854978 45.9078 0.268701C46.262 0.622899 46.262 1.20916 45.9078 1.56336L42.2437 5.22748C42.0604 5.41069 41.8284 5.49618 41.5963 5.49618Z" fill="white"/>
<path d="M4.95515 33.5878C4.72309 33.5878 4.49103 33.5023 4.30782 33.3191L0.643701 29.655C0.289502 29.3008 0.289502 28.7145 0.643701 28.3603C0.997899 28.0061 1.58416 28.0061 1.93836 28.3603L5.60248 32.0244C5.95668 32.3786 5.95668 32.9649 5.60248 33.3191C5.41927 33.5023 5.18721 33.5878 4.95515 33.5878Z" fill="white"/>
<path d="M1.29103 33.5878C1.05897 33.5878 0.826907 33.5023 0.643701 33.3191C0.289502 32.9649 0.289502 32.3786 0.643701 32.0244L4.30782 28.3603C4.66202 28.0061 5.24828 28.0061 5.60248 28.3603C5.95668 28.7145 5.95668 29.3008 5.60248 29.655L1.93836 33.3191C1.75515 33.5023 1.52309 33.5878 1.29103 33.5878Z" fill="white"/>
<path d="M9.84065 55.5725C9.60859 55.5725 9.37653 55.487 9.19332 55.3038L5.5292 51.6397C5.175 51.2855 5.175 50.6993 5.5292 50.3451C5.8834 49.9909 6.46966 49.9909 6.82386 50.3451L10.488 54.0092C10.8422 54.3634 10.8422 54.9496 10.488 55.3038C10.3048 55.487 10.0727 55.5725 9.84065 55.5725Z" fill="white"/>
<path d="M6.17653 55.5725C5.94447 55.5725 5.7124 55.487 5.5292 55.3038C5.175 54.9496 5.175 54.3634 5.5292 54.0092L9.19332 50.3451C9.54752 49.9909 10.1338 49.9909 10.488 50.3451C10.8422 50.6993 10.8422 51.2855 10.488 51.6397L6.82386 55.3038C6.64065 55.487 6.40859 55.5725 6.17653 55.5725Z" fill="white"/>
</g>
<defs>
<clipPath id="clip0_1114_1534">
<rect width="80" height="80" fill="white" transform="translate(0.375)"/>
</clipPath>
</defs>
</svg>
