<svg width="53" height="56" viewBox="0 0 53 56" fill="none" xmlns="http://www.w3.org/2000/svg">
<path d="M22.3735 40.2229H11.2624C10.5874 40.2229 10.0402 39.6757 10.0402 39.0007C10.0402 38.3257 10.5874 37.7784 11.2624 37.7784H22.3735C23.0485 37.7784 23.5957 38.3257 23.5957 39.0007C23.5957 39.6757 23.0485 40.2229 22.3735 40.2229Z" fill="white"/>
<path d="M22.3735 46.8887H11.2624C10.5874 46.8887 10.0402 46.3414 10.0402 45.6664C10.0402 44.9914 10.5874 44.4442 11.2624 44.4442H22.3735C23.0485 44.4442 23.5957 44.9914 23.5957 45.6664C23.5957 46.3414 23.0485 46.8887 22.3735 46.8887Z" fill="white"/>
<path d="M32.3778 11.3333H24.6C23.925 11.3333 23.3778 10.7861 23.3778 10.1111C23.3778 9.43608 23.925 8.88885 24.6 8.88885H32.3778C33.0528 8.88885 33.6 9.43608 33.6 10.1111C33.6 10.7861 33.0528 11.3333 32.3778 11.3333Z" fill="white"/>
<path d="M13.4219 13.5556C13.0978 13.5556 12.7868 13.4268 12.5577 13.1976L10.2007 10.8404C9.72332 10.3632 9.72332 9.58934 10.2007 9.112C10.678 8.63467 11.4519 8.63478 11.9292 9.11211L13.422 10.6049L17.2717 6.75511C17.7489 6.27789 18.5228 6.27778 19.0002 6.75511C19.4775 7.23245 19.4775 8.00634 19.0002 8.48367L14.2862 13.1978C14.0569 13.4268 13.746 13.5556 13.4219 13.5556Z" fill="#ECD078"/>
<path d="M32.3778 21.3326H24.6C23.925 21.3326 23.3778 20.7853 23.3778 20.1103C23.3778 19.4353 23.925 18.8881 24.6 18.8881H32.3778C33.0528 18.8881 33.6 19.4353 33.6 20.1103C33.6 20.7853 33.0528 21.3326 32.3778 21.3326Z" fill="white"/>
<path d="M13.4219 23.5548C13.0978 23.5548 12.7868 23.426 12.5577 23.1968L10.2007 20.8397C9.72332 20.3625 9.72332 19.5886 10.2007 19.1113C10.678 18.634 11.4519 18.6339 11.9292 19.1114L13.422 20.6042L17.2717 16.7544C17.7489 16.2772 18.5228 16.277 19.0002 16.7544C19.4775 17.2317 19.4775 18.0056 19.0002 18.4829L14.2862 23.197C14.0569 23.426 13.746 23.5548 13.4219 23.5548Z" fill="#ECD078"/>
<path d="M29.0445 31.3335H24.6C23.925 31.3335 23.3778 30.7863 23.3778 30.1113C23.3778 29.4363 23.925 28.8891 24.6 28.8891H29.0445C29.7195 28.8891 30.2667 29.4363 30.2667 30.1113C30.2667 30.7863 29.7195 31.3335 29.0445 31.3335Z" fill="white"/>
<path d="M13.4219 33.5555C13.0978 33.5555 12.7868 33.4267 12.5577 33.1975L10.2007 30.8404C9.72332 30.3632 9.72332 29.5893 10.2007 29.1119C10.678 28.6347 11.4519 28.6346 11.9292 29.1119L13.422 30.6047L17.2717 26.7549C17.7489 26.2777 18.5228 26.2776 19.0002 26.7549C19.4775 27.2323 19.4775 28.0062 19.0002 28.4835L14.2862 33.1976C14.0569 33.4267 13.746 33.5555 13.4219 33.5555Z" fill="#ECD078"/>
<path d="M45.7083 0H39.0416H1.26385C0.588848 0 0.041626 0.547222 0.041626 1.22222V52.3333C0.041626 53.0083 0.588848 53.5556 1.26385 53.5556H33.4225V51.1111H2.48607V2.44444H37.8194V32.6354H40.2639V2.44444H44.4861V33.9173H46.9305V1.22222C46.9305 0.547222 46.3833 0 45.7083 0Z" fill="white"/>
<path d="M40.375 31.3334C33.5743 31.3334 28.0416 36.866 28.0416 43.6667C28.0416 50.4674 33.5743 56 40.375 56C47.1756 56 52.7083 50.4674 52.7083 43.6667C52.7083 36.866 47.1756 31.3334 40.375 31.3334ZM41.5972 33.8534C46.0747 34.4078 49.634 37.9669 50.1883 42.4445H41.5972V33.8534ZM39.1527 33.8534V43.1605L32.5748 49.7383C31.2666 48.0613 30.4861 45.9535 30.4861 43.6667C30.4861 38.6278 34.2745 34.4574 39.1527 33.8534ZM40.375 53.5556C38.0881 53.5556 35.9803 52.775 34.3034 51.4668L40.8813 44.8889H50.1884C49.5843 49.7672 45.414 53.5556 40.375 53.5556Z" fill="#ECD078"/>
</svg>
