<svg width="57" height="40" viewBox="0 0 57 40" fill="none" xmlns="http://www.w3.org/2000/svg">
<path d="M51.8889 0H5C2.23744 0 0 2.25133 0 5V35C0 37.765 2.25389 40 5 40H51.8889C54.6283 40 56.8889 37.7744 56.8889 35V5C56.8889 2.25622 54.6603 0 51.8889 0ZM51.1887 3.33333C50.1671 4.34944 32.587 21.837 31.98 22.4408C31.0356 23.3852 29.78 23.9052 28.4444 23.9052C27.1089 23.9052 25.8533 23.3851 24.9058 22.4377C24.4976 22.0316 7.11144 4.73711 5.70022 3.33333H51.1887ZM3.33333 34.3216V5.68056L17.7376 20.0089L3.33333 34.3216ZM5.70233 36.6667L20.1009 22.3597L22.5519 24.7978C24.1259 26.3718 26.2186 27.2386 28.4444 27.2386C30.6703 27.2386 32.763 26.3718 34.3339 24.8009L36.788 22.3597L51.1866 36.6667H5.70233ZM53.5556 34.3216L39.1513 20.0089L53.5556 5.68056V34.3216Z" fill="black"/>
</svg>
