<svg width="25" height="24" viewBox="0 0 25 24" fill="none" xmlns="http://www.w3.org/2000/svg">
<path d="M21.6691 0H4.21456C3.34658 0 2.51415 0.344804 1.90039 0.95856C1.28664 1.57232 0.941833 2.40475 0.941833 3.27273L0.941833 20.7273C0.941833 21.5953 1.28664 22.4277 1.90039 23.0414C2.51415 23.6552 3.34658 24 4.21456 24H21.6691C22.5371 24 23.3695 23.6552 23.9833 23.0414C24.597 22.4277 24.9418 21.5953 24.9418 20.7273V3.27273C24.9418 2.40475 24.597 1.57232 23.9833 0.95856C23.3695 0.344804 22.5371 0 21.6691 0ZM9.12365 18.9927C9.12383 19.0593 9.11088 19.1252 9.08553 19.1867C9.06019 19.2483 9.02295 19.3042 8.97596 19.3513C8.92896 19.3985 8.87313 19.4359 8.81166 19.4614C8.75019 19.4869 8.68429 19.5 8.61774 19.5H6.46183C6.39517 19.5002 6.32912 19.4872 6.2675 19.4618C6.20587 19.4363 6.14988 19.399 6.10274 19.3518C6.0556 19.3047 6.01824 19.2487 5.99281 19.1871C5.96738 19.1254 5.95438 19.0594 5.95456 18.9927V9.95455C5.95456 9.82001 6.00801 9.69098 6.10314 9.59585C6.19827 9.50072 6.3273 9.44727 6.46183 9.44727H8.61774C8.75204 9.44763 8.88072 9.50124 8.97556 9.59633C9.07039 9.69142 9.12365 9.82024 9.12365 9.95455V18.9927ZM7.53911 8.59091C7.13455 8.59091 6.73909 8.47095 6.40271 8.24619C6.06634 8.02143 5.80417 7.70197 5.64935 7.32822C5.49454 6.95446 5.45403 6.54319 5.53295 6.14641C5.61188 5.74963 5.80669 5.38516 6.09275 5.0991C6.37881 4.81304 6.74328 4.61823 7.14006 4.5393C7.53684 4.46038 7.94811 4.50089 8.32187 4.6557C8.69563 4.81052 9.01508 5.07269 9.23984 5.40906C9.4646 5.74543 9.58456 6.1409 9.58456 6.54545C9.58456 7.08794 9.36906 7.60821 8.98546 7.99181C8.60186 8.37541 8.08159 8.59091 7.53911 8.59091ZM20.3927 19.0282C20.3929 19.0895 20.381 19.1502 20.3576 19.2069C20.3342 19.2635 20.2999 19.315 20.2565 19.3584C20.2132 19.4017 20.1617 19.436 20.1051 19.4594C20.0484 19.4828 19.9877 19.4947 19.9264 19.4945H17.6082C17.5469 19.4947 17.4862 19.4828 17.4295 19.4594C17.3729 19.436 17.3214 19.4017 17.278 19.3584C17.2347 19.315 17.2003 19.2635 17.177 19.2069C17.1536 19.1502 17.1417 19.0895 17.1418 19.0282V14.7941C17.1418 14.1614 17.3273 12.0232 15.4877 12.0232C14.0627 12.0232 13.7723 13.4864 13.715 14.1436V19.0336C13.715 19.1562 13.6668 19.2738 13.5808 19.361C13.4949 19.4483 13.378 19.4982 13.2555 19.5H11.0164C10.9552 19.5 10.8946 19.4879 10.8381 19.4645C10.7816 19.441 10.7303 19.4066 10.6871 19.3633C10.6439 19.32 10.6097 19.2686 10.5864 19.212C10.5631 19.1554 10.5512 19.0948 10.5514 19.0336V9.915C10.5512 9.85382 10.5631 9.79321 10.5864 9.73663C10.6097 9.68006 10.6439 9.62864 10.6871 9.58531C10.7303 9.54199 10.7816 9.50762 10.8381 9.48416C10.8946 9.46071 10.9552 9.44864 11.0164 9.44864H13.2555C13.3792 9.44864 13.4978 9.49777 13.5852 9.58523C13.6727 9.67269 13.7218 9.79131 13.7218 9.915V10.7032C14.2509 9.90818 15.035 9.29727 16.7082 9.29727C20.4146 9.29727 20.39 12.7582 20.39 14.6591L20.3927 19.0282Z" fill="white"/>
</svg>
