<svg width="25" height="24" viewBox="0 0 25 24" fill="none" xmlns="http://www.w3.org/2000/svg">
<path fill-rule="evenodd" clip-rule="evenodd" d="M24.8807 7.05609C24.8245 5.78087 24.6183 4.90417 24.3229 4.1445C24.0181 3.33813 23.5493 2.61618 22.935 2.01603C22.3349 1.40653 21.6082 0.932925 20.8111 0.632938C20.0471 0.33753 19.1749 0.131313 17.8997 0.0750881C16.615 0.0141019 16.2071 0 12.9487 0C9.69021 0 9.28236 0.0141019 8.00238 0.0703265C6.72716 0.126551 5.85046 0.332952 5.09097 0.628177C4.28442 0.932925 3.56247 1.40177 2.96231 2.01603C2.35282 2.61618 1.8794 3.34289 1.57923 4.13992C1.28382 4.90417 1.0776 5.77611 1.02138 7.05133C0.960391 8.33607 0.946289 8.74392 0.946289 12.0024C0.946289 15.2608 0.960391 15.6687 1.01662 16.9487C1.07284 18.2239 1.27924 19.1006 1.57465 19.8603C1.8794 20.6666 2.35282 21.3886 2.96231 21.9887C3.56247 22.5982 4.28918 23.0718 5.08621 23.3718C5.85046 23.6672 6.7224 23.8735 7.9978 23.9297C9.27759 23.9861 9.68563 24 12.9441 24C16.2026 24 16.6104 23.9861 17.8904 23.9297C19.1656 23.8735 20.0423 23.6672 20.8018 23.3718C22.4147 22.7482 23.6899 21.473 24.3135 19.8603C24.6088 19.096 24.8152 18.2239 24.8714 16.9487C24.9276 15.6687 24.9417 15.2608 24.9417 12.0024C24.9417 8.74392 24.937 8.33607 24.8807 7.05609ZM22.7195 16.8549C22.6678 18.027 22.471 18.66 22.3069 19.0819C21.9036 20.1275 21.0738 20.9573 20.0282 21.3606C19.6062 21.5247 18.9687 21.7215 17.8012 21.773C16.5353 21.8294 16.1557 21.8433 12.9534 21.8433C9.7512 21.8433 9.36679 21.8294 8.10549 21.773C6.93338 21.7215 6.30044 21.5247 5.87848 21.3606C5.35818 21.1683 4.88457 20.8635 4.50016 20.465C4.10164 20.0758 3.79689 19.607 3.60459 19.0867C3.4405 18.6647 3.24362 18.027 3.19216 16.8597C3.13575 15.5938 3.12183 15.214 3.12183 12.0117C3.12183 8.80949 3.13575 8.42507 3.19216 7.16396C3.24362 5.99185 3.4405 5.35891 3.60459 4.93695C3.79689 4.41647 4.10164 3.94304 4.50492 3.55845C4.89391 3.15993 5.36275 2.85518 5.88324 2.66307C6.3052 2.49897 6.9429 2.30209 8.11025 2.25045C9.37613 2.19422 9.75596 2.18012 12.958 2.18012C16.165 2.18012 16.5447 2.19422 17.806 2.25045C18.9781 2.30209 19.611 2.49897 20.033 2.66307C20.5533 2.85518 21.0269 3.15993 21.4113 3.55845C21.8098 3.94762 22.1146 4.41647 22.3069 4.93695C22.471 5.35891 22.6678 5.99643 22.7195 7.16396C22.7757 8.42984 22.7898 8.80949 22.7898 12.0117C22.7898 15.214 22.7757 15.589 22.7195 16.8549ZM12.9487 5.83711C9.54499 5.83711 6.7834 8.59852 6.7834 12.0024C6.7834 15.4063 9.54499 18.1677 12.9487 18.1677C16.3526 18.1677 19.114 15.4063 19.114 12.0024C19.114 8.59852 16.3526 5.83711 12.9487 5.83711ZM12.9487 16.0017C10.7405 16.0017 8.94942 14.2107 8.94942 12.0024C8.94942 9.79407 10.7405 8.00313 12.9487 8.00313C15.157 8.00313 16.948 9.79407 16.948 12.0024C16.948 14.2107 15.157 16.0017 12.9487 16.0017ZM19.3579 7.03292C20.1529 7.03292 20.7974 6.38844 20.7974 5.59361C20.7974 4.79859 20.1529 4.1543 19.3579 4.1543C18.563 4.1543 17.9186 4.79859 17.9186 5.59361C17.9186 6.38844 18.563 7.03292 19.3579 7.03292Z" fill="white"/>
</svg>
