<svg xmlns="http://www.w3.org/2000/svg" width="16" height="16" viewBox="0 0 16 16" fill="none">
<path d="M8 0C3.58333 0 0 3.58336 0 8C0 12.4166 3.58333 16 8 16C12.4166 16 16 12.4167 16 8C16 3.58333 12.4166 0 8 0ZM13.7736 12.5643C13.0533 12.1469 12.2414 11.841 11.4331 11.6283C11.6767 10.6119 11.8154 9.48787 11.8368 8.32H15.3529C15.2856 9.86474 14.7325 11.3521 13.7736 12.5643ZM2.22646 12.5643C1.26752 11.3521 0.7144 9.86474 0.647072 8.32H4.1632C4.18464 9.48787 4.3233 10.6119 4.56694 11.6283C3.75267 11.8465 2.96154 12.1377 2.22646 12.5643ZM2.22643 3.43574C2.9441 3.85098 3.74912 4.15638 4.56694 4.37178C4.32326 5.3881 4.18464 6.51213 4.1632 7.68H0.647072C0.7144 6.13523 1.26752 4.64787 2.22643 3.43574ZM8.32 11.2039V8.32H11.1967C11.1755 9.43997 11.0429 10.5144 10.8106 11.482C10.0502 11.3236 9.20445 11.2236 8.32 11.2039ZM5.18941 11.482C4.95709 10.5144 4.82448 9.43997 4.80326 8.32H7.68V11.2039C6.80618 11.2234 5.96589 11.3205 5.18941 11.482ZM7.68 4.79613V7.68H4.80326C4.82448 6.56003 4.95709 5.4856 5.18941 4.51802C5.9687 4.67942 6.7992 4.77648 7.68 4.79613ZM8.32 7.68V4.79613C9.18029 4.77693 10.0164 4.68278 10.8106 4.51802C11.0429 5.4856 11.1755 6.56003 11.1967 7.68H8.32ZM8.32 4.15597V0.680544C9.00733 0.852128 9.67786 1.56765 10.1981 2.70275C10.3671 3.07146 10.516 3.4727 10.6441 3.89974C9.87805 4.05597 9.09216 4.13859 8.32 4.15597ZM7.68 0.680544V4.15597C6.89133 4.13821 6.10528 4.0527 5.35587 3.89974C5.48397 3.4727 5.6329 3.07146 5.80189 2.70275C6.32214 1.56762 6.99264 0.852096 7.68 0.680544ZM7.68 11.844V15.3195C6.99264 15.1479 6.32214 14.4324 5.80189 13.2972C5.6329 12.9285 5.48397 12.5273 5.35587 12.1003C6.10982 11.9472 6.88736 11.8619 7.68 11.844ZM8.32 15.3195V11.844C9.14963 11.8627 9.92096 11.9533 10.6441 12.1003C10.516 12.5273 10.3671 12.9285 10.1981 13.2972C9.67786 14.4324 9.00733 15.1479 8.32 15.3195ZM11.8368 7.68C11.8154 6.51213 11.6767 5.3881 11.4331 4.37178C12.2429 4.15741 13.052 3.85427 13.7736 3.43574C14.7325 4.64787 15.2856 6.13523 15.3529 7.68H11.8368ZM13.3461 2.94211C12.7018 3.30125 11.9902 3.56448 11.2683 3.75459C10.9688 2.74211 10.4831 1.61664 9.75376 0.852096C11.1173 1.18637 12.366 1.90627 13.3461 2.94211ZM6.24618 0.852096C5.51686 1.61664 5.0312 2.74214 4.73171 3.75459C4.01331 3.56554 3.30304 3.30342 2.65386 2.94211C3.63402 1.90627 4.88266 1.18637 6.24618 0.852096ZM2.65389 13.0579C3.30746 12.6948 4.01414 12.4335 4.73174 12.2454C5.03123 13.2578 5.5169 14.3834 6.24621 15.1479C4.88262 14.8136 3.63402 14.0937 2.65389 13.0579ZM9.75379 15.1479C10.4822 14.3843 10.9682 13.2598 11.2683 12.2454C11.9778 12.4316 12.6949 12.6954 13.3461 13.0579C12.366 14.0937 11.1173 14.8136 9.75379 15.1479Z" fill="#000000"/>
</svg>