<svg width="52" height="56" viewBox="0 0 52 56" fill="none" xmlns="http://www.w3.org/2000/svg">
<path d="M5.48203 42.2188H1.8125C1.20842 42.2188 0.71875 42.7084 0.71875 43.3125V50.5312C0.71875 51.1353 1.20842 51.625 1.8125 51.625H4V54.9062C4 55.5103 4.48967 56 5.09375 56H49.9375C50.5415 56 51.0312 55.5103 51.0312 54.9062V1.09375C51.0312 0.489672 50.5415 0 49.9375 0H37.3594C36.7554 0 36.2656 0.489672 36.2656 1.09375C36.2656 1.69783 36.7554 2.1875 37.3594 2.1875H48.8438V53.8125H23.6875V51.625H25.875C26.479 51.625 26.9688 51.1353 26.9688 50.5312V43.3125C26.9688 42.7084 26.479 42.2188 25.875 42.2188H21.7734C20.041 42.2188 19.1182 40.5139 18.8019 39.781C17.8043 37.4695 18.0726 34.6439 19.4255 33.2088C20.7633 31.7912 21.5 29.9413 21.5 28C21.5 24.1498 18.6428 20.9556 14.9375 20.4232V2.1875H27.5156C28.1196 2.1875 28.6094 1.69783 28.6094 1.09375C28.6094 0.489672 28.1196 0 27.5156 0H13.8438C13.2397 0 12.75 0.489672 12.75 1.09375V20.4227C9.47903 20.8788 6.99917 23.3805 6.36709 26.3259C5.83159 28.8237 6.50578 31.315 8.21717 33.1614C9.80464 34.8737 9.69494 37.5189 8.88206 39.3809C8.28313 40.7528 7.07541 42.2188 5.48203 42.2188ZM21.5 53.8125H6.1875V51.625H21.5V53.8125ZM24.7812 49.4375H2.90625V44.4062H24.7812V49.4375ZM8.50592 26.7846C8.98837 24.5364 11.0825 22.5312 13.8438 22.5312C16.8592 22.5312 19.3125 24.9845 19.3125 28C19.3125 29.3809 18.7876 30.6975 17.8341 31.7078C15.6279 34.048 15.6406 37.9765 16.7934 40.6478C17.0467 41.2348 17.3477 41.76 17.6889 42.2188H9.69658C10.16 41.6555 10.5635 40.9966 10.8868 40.256C12.2269 37.1864 11.8086 33.8178 9.82137 31.6742C8.60141 30.3579 8.12191 28.5756 8.50592 26.7846Z" fill="white"/>
<path d="M36.8125 34.125C32.5908 34.125 29.1562 37.5596 29.1562 41.7812C29.1562 46.0029 32.5908 49.4375 36.8125 49.4375C41.0342 49.4375 44.4688 46.0029 44.4688 41.7812C44.4688 37.5596 41.0342 34.125 36.8125 34.125ZM36.8125 47.25C33.797 47.25 31.3438 44.7967 31.3438 41.7812C31.3438 38.7658 33.797 36.3125 36.8125 36.3125C39.828 36.3125 42.2812 38.7658 42.2812 41.7812C42.2812 44.7967 39.828 47.25 36.8125 47.25Z" fill="#ECD078"/>
<path d="M30.25 7.21875H20.4062C19.8022 7.21875 19.3125 7.70842 19.3125 8.3125C19.3125 8.91658 19.8022 9.40625 20.4062 9.40625H30.25C30.854 9.40625 31.3438 8.91658 31.3438 8.3125C31.3438 7.70842 30.854 7.21875 30.25 7.21875Z" fill="white"/>
<path d="M19.3125 14.875C19.3125 15.4791 19.8022 15.9688 20.4062 15.9688H43.375C43.979 15.9688 44.4688 15.4791 44.4688 14.875C44.4688 14.2709 43.979 13.7812 43.375 13.7812H20.4062C19.8022 13.7812 19.3125 14.2709 19.3125 14.875Z" fill="white"/>
<path d="M43.375 20.3438H26.9688C26.3648 20.3438 25.875 20.8334 25.875 21.4375C25.875 22.0416 26.3648 22.5312 26.9688 22.5312H43.375C43.979 22.5312 44.4688 22.0416 44.4688 21.4375C44.4688 20.8334 43.979 20.3438 43.375 20.3438Z" fill="white"/>
<path d="M43.375 26.9062H26.9688C26.3648 26.9062 25.875 27.3959 25.875 28C25.875 28.6041 26.3648 29.0938 26.9688 29.0938H43.375C43.979 29.0938 44.4688 28.6041 44.4688 28C44.4688 27.3959 43.979 26.9062 43.375 26.9062Z" fill="white"/>
<path d="M32.4375 2.1875C33.0416 2.1875 33.5312 1.69781 33.5312 1.09375C33.5312 0.489689 33.0416 0 32.4375 0C31.8334 0 31.3438 0.489689 31.3438 1.09375C31.3438 1.69781 31.8334 2.1875 32.4375 2.1875Z" fill="white"/>
</svg>
