<svg width="81" height="80" viewBox="0 0 81 80" fill="none" xmlns="http://www.w3.org/2000/svg">
<g clip-path="url(#clip0_1114_1479)">
<path d="M79.959 40C79.959 18.4183 62.4567 0.916016 40.875 0.916016C25.7055 0.916016 12.5636 9.56334 6.09027 22.1924C12.8689 16.5374 21.5895 13.1298 31.104 13.1298C52.6857 13.1298 70.188 30.632 70.188 52.2137C70.188 58.6259 68.6368 64.684 65.8887 70.0214C74.4872 62.8519 79.959 52.0672 79.959 40Z" fill="#597B7C"/>
<path d="M40.875 80C18.817 80 0.875 62.058 0.875 40C0.875 17.942 18.817 0 40.875 0C62.933 0 80.875 17.942 80.875 40C80.875 62.058 62.933 80 40.875 80ZM40.875 1.83206C19.8307 1.83206 2.70706 18.9557 2.70706 40C2.70706 61.0443 19.8307 78.1679 40.875 78.1679C61.9193 78.1679 79.0429 61.0443 79.0429 40C79.0429 18.9557 61.9193 1.83206 40.875 1.83206Z" fill="white"/>
<path d="M28.6613 57.4657C28.6613 55.5847 27.3911 53.9481 25.5834 53.4718L20.7956 52.2137H9.66892L4.88113 53.4718C4.6735 53.5328 4.46587 53.6061 4.27045 53.6916C4.96663 55.5603 5.82159 57.3557 6.78648 59.0779C14.0048 58.0397 22.5666 57.7954 22.5666 62.3511V74.516C24.5086 75.5542 26.5483 76.4214 28.6735 77.1176V57.4657H28.6613Z" fill="#597B7C"/>
<path d="M28.6613 78.0458C28.5636 78.0458 28.4659 78.0336 28.3804 77.9969C16.9605 74.2351 7.61699 65.2702 3.40325 54.0092C3.23226 53.5572 3.45211 53.0443 3.8918 52.8488C4.13608 52.7389 4.38035 52.6534 4.63684 52.5801L9.42463 51.3221C9.49791 51.2977 9.58341 51.2977 9.65669 51.2977H20.7834C20.8567 51.2977 20.9422 51.2977 21.0155 51.3221L25.8033 52.5801C28.0262 53.1664 29.5651 55.1695 29.5651 57.4656V77.1175C29.5651 77.4107 29.4185 77.6916 29.1865 77.8626C29.0277 77.9725 28.8445 78.0336 28.6491 78.0336L28.6613 78.0458ZM5.46738 54.2656C9.4857 64.1954 17.6933 72.1466 27.7452 75.8351V57.4656C27.7452 56 26.7559 54.7298 25.3513 54.3511L20.6735 53.1298H9.77883L5.46738 54.2656Z" fill="white"/>
<path d="M21.2109 51.3954C20.2582 50.9069 19.5864 50.0275 19.4032 49.0504C19.391 48.916 19.3788 48.5252 19.3544 48.1832C19.3544 47.8656 19.3299 47.5847 19.3177 47.4992C19.2689 47.0351 18.878 46.6931 18.4017 46.6931H12.0383C11.5742 46.6931 11.1834 47.0473 11.1223 47.5114C11.1223 47.6091 11.0979 47.8778 11.0857 48.1954C11.0734 48.5618 11.049 49.0015 11.0368 49.1359C10.8414 50.113 10.1941 50.9435 9.2536 51.3954C8.93604 51.5542 8.72841 51.884 8.74062 52.2382C8.74062 52.6412 8.76505 53.3985 14.6154 58.4305C14.7864 58.5771 14.9941 58.6504 15.2139 58.6504C15.4338 58.6504 15.6414 58.5771 15.8124 58.4305C21.675 53.3862 21.6872 52.629 21.6994 52.2259C21.6994 51.8717 21.5162 51.5542 21.1986 51.3954H21.2109ZM15.2261 56.5252C13.5284 55.0351 11.7574 53.3862 10.9513 52.4946C11.9284 51.7496 12.6002 50.687 12.8444 49.4778C12.8811 49.3191 12.8933 49.0382 12.9177 48.5252H17.5467C17.5589 48.9038 17.5834 49.2702 17.6078 49.3801C17.8399 50.6015 18.536 51.713 19.5376 52.4946C18.7437 53.3862 16.9605 55.0473 15.2505 56.5374L15.2261 56.5252Z" fill="white"/>
<path d="M17.046 35.6519C17.8521 36.7389 18.3284 38.1679 18.3284 39.9023C18.3284 44.1771 15.4338 47.658 11.8674 47.658C11.4154 47.658 10.988 47.6092 10.5605 47.4992C11.733 48.9771 13.3941 49.8931 15.2261 49.8931C18.7925 49.8931 21.6872 46.4244 21.6872 42.1374C21.6872 38.6199 19.733 36.3481 17.046 35.6519Z" fill="#597B7C"/>
<path d="M15.2262 50.8092C11.159 50.8092 7.84906 46.9252 7.84906 42.1374C7.84906 37.6427 10.8781 34.5038 15.2262 34.5038C19.5743 34.5038 22.6033 37.6427 22.6033 42.1374C22.6033 46.913 19.2933 50.8092 15.2262 50.8092ZM15.2262 36.3359C11.9162 36.3359 9.68112 38.6687 9.68112 42.1374C9.68112 45.9114 12.1727 48.9771 15.2262 48.9771C18.2796 48.9771 20.7712 45.9114 20.7712 42.1374C20.7712 38.6687 18.5483 36.3359 15.2262 36.3359Z" fill="white"/>
<path d="M76.7223 55.5725C76.991 54.9496 77.2475 54.3267 77.4918 53.6916C77.2964 53.6061 77.0887 53.5328 76.8811 53.4718L72.0933 52.2137H60.9666L56.1788 53.4718C54.359 53.9481 53.101 55.597 53.101 57.4657V60.7267C64.3498 64.0366 72.533 59.1145 76.7345 55.5603L76.7223 55.5725Z" fill="#597B7C"/>
<path d="M53.0888 78.0458C52.8933 78.0458 52.7101 77.9847 52.5514 77.8748C52.3193 77.7038 52.1727 77.4229 52.1727 77.1298V57.4779C52.1727 55.1817 53.7239 53.1786 55.9346 52.5924L60.7223 51.3344C60.7956 51.3099 60.8811 51.3099 60.9544 51.3099H72.0811C72.1544 51.3099 72.2399 51.3099 72.3132 51.3344L77.101 52.5924C77.3575 52.6657 77.614 52.7512 77.846 52.8611C78.2857 53.0565 78.5056 53.5695 78.3346 54.0214C74.1208 65.2825 64.7895 74.2473 53.3575 78.0092C53.2598 78.0458 53.162 78.058 53.0765 78.058L53.0888 78.0458ZM61.0765 53.1298L56.3987 54.3512C54.9819 54.7176 54.0048 56 54.0048 57.4657V75.8351C64.0567 72.1466 72.2643 64.1954 76.2827 54.2657L71.9712 53.1298H61.0888H61.0765Z" fill="white"/>
<path d="M66.5239 56.4153C63.0918 56.4153 60.075 53.6061 60.0506 52.2382C60.0506 51.884 60.246 51.5542 60.5636 51.3954C61.504 50.9313 62.1514 50.113 62.3468 49.1359C62.3712 48.9893 62.3834 48.5618 62.3956 48.1954C62.4078 47.8779 62.4201 47.6092 62.4323 47.5115C62.4811 47.0473 62.872 46.7054 63.3361 46.7054H69.6995C70.1636 46.7054 70.5544 47.0596 70.6155 47.5115C70.6155 47.597 70.6399 47.8779 70.6521 48.1954C70.6643 48.5374 70.6765 48.9283 70.701 49.0748C70.8842 50.0397 71.5682 50.9313 72.5086 51.4199C72.814 51.5786 73.0094 51.8962 73.0094 52.2504C72.985 53.6305 69.9804 56.4397 66.5361 56.4397L66.5239 56.4153ZM62.1514 52.5679C62.7987 53.2641 64.472 54.5832 66.5239 54.5832C68.5758 54.5832 70.2124 53.3008 70.8842 52.5313C69.846 51.7496 69.1254 50.6137 68.8933 49.3679C68.8689 49.258 68.8567 48.8916 68.8323 48.513H64.2033C64.1788 49.0382 64.1666 49.3069 64.13 49.4779C63.8857 50.7237 63.1773 51.8107 62.1514 52.5679Z" fill="white"/>
<path d="M71.617 37.8015C71.617 37.8992 71.6414 37.9969 71.6414 38.1069C71.6414 42.3817 68.7468 45.8626 65.1803 45.8626C63.1162 45.8626 61.2842 44.6901 60.0994 42.8824C60.4048 46.8153 63.1651 49.8931 66.5239 49.8931C70.0903 49.8931 72.9849 46.4244 72.9849 42.1374C72.9849 40.3542 72.4597 38.913 71.617 37.8015Z" fill="#597B7C"/>
<path d="M66.5238 50.8092C62.4567 50.8092 59.1467 46.9252 59.1467 42.1374C59.1467 37.6427 62.1757 34.5038 66.5238 34.5038C70.8719 34.5038 73.9009 37.6427 73.9009 42.1374C73.9009 46.913 70.591 50.8092 66.5238 50.8092ZM66.5238 36.3359C63.2139 36.3359 60.9788 38.6687 60.9788 42.1374C60.9788 45.9114 63.4704 48.9771 66.5238 48.9771C69.5773 48.9771 72.0689 45.9114 72.0689 42.1374C72.0689 38.6687 69.846 36.3359 66.5238 36.3359Z" fill="white"/>
<path d="M54.9941 59.2L48.4719 57.4901H40.8872V60.3115H44.246L52.7834 62.5588C54.078 62.9008 54.9819 64.0733 54.9819 65.4046V76.458C56.4353 75.8962 57.8521 75.2489 59.2078 74.5282V64.6595C59.2078 62.0947 57.4857 59.8595 55.0063 59.2122L54.9941 59.2Z" fill="#597B7C"/>
<path d="M40.875 80C40.3743 80 39.959 79.5847 39.959 79.084V57.4901C39.959 57.2458 40.0567 57.0137 40.2277 56.8427C40.3987 56.6717 40.6307 56.574 40.875 56.574H48.4597C48.533 56.574 48.6185 56.574 48.6918 56.5985L55.2139 58.3084C58.0964 59.0656 60.0994 61.6672 60.0994 64.6473V74.516C60.0994 74.858 59.9162 75.1633 59.6109 75.3221C53.8704 78.3756 47.3849 79.9878 40.8628 79.9878L40.875 80ZM41.791 58.4061V78.1557C47.5193 78.0214 53.1987 76.5801 58.2796 73.9664V64.6595C58.2796 62.5099 56.8262 60.6412 54.762 60.0916L48.3498 58.4061H41.791Z" fill="white"/>
<path d="M40.875 57.4901H33.2903L28.6246 58.7115C28.1849 64.0489 33.0704 65.5267 35.4521 69.7527C36.5758 71.7435 36.8567 75.3954 36.6735 78.8519C38.0536 78.9985 39.4582 79.084 40.875 79.084V57.4901Z" fill="#597B7C"/>
<path d="M40.875 80C34.3529 80 27.8674 78.3878 22.1269 75.3344C21.8216 75.1756 21.6384 74.8702 21.6384 74.5283V64.6596C21.6384 61.6794 23.6536 59.0779 26.5239 58.3206L33.0582 56.6107C33.1315 56.5863 33.217 56.5863 33.2903 56.5863H40.875C41.3758 56.5863 41.791 57.0015 41.791 57.5023V79.0962C41.791 79.3405 41.6933 79.5725 41.5223 79.7435C41.3513 79.9145 41.1193 80.0122 40.875 80.0122V80ZM23.4704 73.9664C28.5513 76.5802 34.2307 78.0092 39.959 78.1557V58.4061H33.4124L27.0002 60.0916C24.9239 60.6412 23.4826 62.5099 23.4826 64.6596V73.9664H23.4704Z" fill="white"/>
<path d="M45.333 53.3863C45.2842 53.1176 45.2475 51.4565 45.2109 51.2H40.2888C40.3132 51.4687 40.8384 53.0443 40.875 53.313C41.0826 54.8519 42.3773 56.7451 43.4765 57.771C43.8552 58.1252 44.0628 58.6382 43.9895 59.1512C43.6842 61.5817 41.2659 63.8657 40.5819 64.4641C40.7529 64.5618 40.8628 64.6229 40.8628 64.6229C40.8628 64.6229 48.3987 60.5557 48.4475 57.4901C46.8475 56.6718 45.6506 55.1817 45.3086 53.3863H45.333Z" fill="#597B7C"/>
<path d="M40.875 65.5389C40.7285 65.5389 40.5697 65.5023 40.4353 65.429C39.104 64.7084 32.4476 60.9221 32.3743 57.5145C32.3743 57.1603 32.5697 56.8305 32.8872 56.6717C34.2674 56 35.2201 54.7786 35.4888 53.3496C35.5132 53.1908 35.5498 52.4336 35.5621 52.0183C35.5865 51.603 35.5987 51.2366 35.6109 51.1023C35.6598 50.6382 36.0506 50.2962 36.5269 50.2962H45.2109C45.675 50.2962 46.0659 50.6504 46.1269 51.1023C46.1392 51.2122 46.1514 51.5908 46.1758 52.0061C46.2002 52.4946 46.2124 53.0565 46.2369 53.2275C46.5056 54.6687 47.4949 55.9634 48.8872 56.6717C49.1926 56.8305 49.388 57.1481 49.388 57.5023C49.3392 60.9343 42.6582 64.7084 41.3147 65.429C41.1804 65.5023 41.0338 65.5389 40.875 65.5389ZM34.3163 57.9664C34.9514 59.6397 38.2735 62.0946 40.8872 63.5725C43.5132 62.0946 46.8475 59.6397 47.4582 57.9542C45.8827 56.9404 44.7712 55.3404 44.4414 53.545C44.4048 53.3618 44.3926 53.0198 44.3559 52.1038H37.4185C37.3819 53.0443 37.3575 53.4595 37.3086 53.6794C36.9666 55.4626 35.8918 56.9893 34.3285 57.9542L34.3163 57.9664Z" fill="white"/>
<path d="M42.988 35.7374C43.6597 37.0443 44.0506 38.6198 44.0506 40.4397C44.0506 46.2779 40.1055 51.0046 35.2445 51.0046C34.7315 51.0046 34.2307 50.9435 33.7422 50.8458C35.3422 53.5084 37.9437 55.2427 40.875 55.2427C45.7361 55.2427 49.6811 50.516 49.6811 44.6779C49.6811 39.7191 46.8231 36.5801 42.988 35.7496V35.7374Z" fill="#597B7C"/>
<path d="M40.875 56.1466C35.5132 56.1466 31.1529 50.9924 31.1529 44.6657C31.1529 38.7298 35.1468 34.5893 40.875 34.5893C46.6033 34.5893 50.5972 38.7298 50.5972 44.6657C50.5972 50.9924 46.2369 56.1466 40.875 56.1466ZM40.875 36.4214C36.1483 36.4214 32.985 39.7313 32.985 44.6657C32.985 49.9909 36.5269 54.3145 40.875 54.3145C45.2231 54.3145 48.7651 49.9786 48.7651 44.6657C48.7651 39.7313 45.5895 36.4214 40.875 36.4214Z" fill="white"/>
<path d="M49.5101 42.6259C48.6796 42.9435 47.7513 43.2 46.762 43.3466C46.1513 48.4763 42.4872 52.4214 38.0536 52.4214C36.5758 52.4214 35.1834 51.9817 33.962 51.2C35.5742 53.6549 38.0659 55.2305 40.875 55.2305C45.7361 55.2305 49.6811 50.5038 49.6811 44.6656C49.6811 43.945 49.6201 43.2611 49.5101 42.6259Z" fill="#597B7C"/>
<path d="M40.875 56.1466C35.5132 56.1466 31.1529 50.9924 31.1529 44.6656C31.1529 43.2366 31.385 41.8809 31.8369 40.6473C31.9468 40.3298 32.2277 40.1099 32.5575 40.0611C35.1468 39.6702 38.0659 40.2076 41.2537 41.6611C43.7453 42.7969 46.4079 42.8336 49.1804 41.771C49.4369 41.6733 49.7178 41.6977 49.962 41.8321C50.2063 41.9664 50.3651 42.1985 50.414 42.4672C50.5361 43.1756 50.5972 43.9084 50.5972 44.6656C50.5972 50.9924 46.2369 56.1466 40.875 56.1466ZM33.3758 41.8076C33.1193 42.6992 32.985 43.6519 32.985 44.6656C32.985 49.9908 36.5269 54.3145 40.875 54.3145C45.2231 54.3145 48.7651 49.9786 48.7651 44.6656C48.7651 44.3969 48.7651 44.116 48.7407 43.8595C45.8827 44.7023 43.1224 44.5313 40.4964 43.3344C37.8704 42.1374 35.4766 41.6244 33.3758 41.8076Z" fill="white"/>
<path d="M54.3101 10.687H51.8674V24.7328C51.8674 25.0748 51.5987 25.3435 51.2567 25.3435H35.0124C34.4628 25.3435 33.9132 25.5267 33.4857 25.8809L26.2185 31.6946V36.3359L35.3788 29.0076H54.3101C54.9819 29.0076 55.5315 28.458 55.5315 27.7862V11.9084C55.5315 11.2366 54.9819 10.687 54.3101 10.687Z" fill="#597B7C"/>
<path d="M26.2185 37.2519C26.0842 37.2519 25.9498 37.2275 25.8155 37.1664C25.4979 37.0199 25.3025 36.6901 25.3025 36.3359V11.9084C25.3025 10.7359 26.2674 9.771 27.4399 9.771H54.3101C55.4826 9.771 56.4475 10.7359 56.4475 11.9084V27.7863C56.4475 28.9588 55.4826 29.9237 54.3101 29.9237H35.6964L26.7926 37.0565C26.6216 37.1908 26.4262 37.2519 26.2185 37.2519ZM27.4399 11.6031C27.2689 11.6031 27.1346 11.7374 27.1346 11.9084V34.4183L34.8048 28.287C34.9636 28.1527 35.1712 28.0916 35.3788 28.0916H54.3101C54.4811 28.0916 54.6155 27.9573 54.6155 27.7863V11.9084C54.6155 11.7374 54.4811 11.6031 54.3101 11.6031H27.4399Z" fill="white"/>
<path d="M48.8139 17.9786H42.707C42.2063 17.9786 41.791 17.5634 41.791 17.0626C41.791 16.5618 42.2063 16.1466 42.707 16.1466H48.8139C49.3147 16.1466 49.7299 16.5618 49.7299 17.0626C49.7299 17.5634 49.3147 17.9786 48.8139 17.9786Z" fill="white"/>
<path d="M37.8215 17.9786H32.9361C32.4353 17.9786 32.02 17.5634 32.02 17.0626C32.02 16.5618 32.4353 16.1466 32.9361 16.1466H37.8215C38.3223 16.1466 38.7376 16.5618 38.7376 17.0626C38.7376 17.5634 38.3223 17.9786 37.8215 17.9786Z" fill="white"/>
<path d="M43.9284 23.5359H32.9361C32.4353 23.5359 32.02 23.1206 32.02 22.6199C32.02 22.1191 32.4353 21.7038 32.9361 21.7038H43.9284C44.4292 21.7038 44.8444 22.1191 44.8444 22.6199C44.8444 23.1206 44.4292 23.5359 43.9284 23.5359Z" fill="white"/>
<path d="M6.67653 11.6031C4.82004 11.6031 3.31775 10.1008 3.31775 8.24428C3.31775 6.38779 4.82004 4.8855 6.67653 4.8855C8.53302 4.8855 10.0353 6.38779 10.0353 8.24428C10.0353 10.1008 8.53302 11.6031 6.67653 11.6031ZM6.67653 6.71756C5.83378 6.71756 5.14981 7.40153 5.14981 8.24428C5.14981 9.08702 5.83378 9.77099 6.67653 9.77099C7.51928 9.77099 8.20325 9.08702 8.20325 8.24428C8.20325 7.40153 7.51928 6.71756 6.67653 6.71756Z" fill="white"/>
<path d="M68.9666 6.71756C67.1101 6.71756 65.6078 5.21527 65.6078 3.35878C65.6078 1.50229 67.1101 0 68.9666 0C70.8231 0 72.3254 1.50229 72.3254 3.35878C72.3254 5.21527 70.8231 6.71756 68.9666 6.71756ZM68.9666 1.83206C68.1239 1.83206 67.4399 2.51603 67.4399 3.35878C67.4399 4.20153 68.1239 4.8855 68.9666 4.8855C69.8094 4.8855 70.4933 4.20153 70.4933 3.35878C70.4933 2.51603 69.8094 1.83206 68.9666 1.83206Z" fill="white"/>
<path d="M65.2903 25.6489C63.4338 25.6489 61.9315 24.1466 61.9315 22.2901C61.9315 20.4336 63.4338 18.9313 65.2903 18.9313C67.1468 18.9313 68.6491 20.4336 68.6491 22.2901C68.6491 24.1466 67.1468 25.6489 65.2903 25.6489ZM65.2903 20.7634C64.4475 20.7634 63.7636 21.4473 63.7636 22.2901C63.7636 23.1328 64.4475 23.8168 65.2903 23.8168C66.133 23.8168 66.817 23.1328 66.817 22.2901C66.817 21.4473 66.133 20.7634 65.2903 20.7634Z" fill="white"/>
<path d="M12.7834 31.2916C10.9269 31.2916 9.42462 29.7893 9.42462 27.9328C9.42462 26.0763 10.9269 24.574 12.7834 24.574C14.6399 24.574 16.1422 26.0763 16.1422 27.9328C16.1422 29.7893 14.6399 31.2916 12.7834 31.2916ZM12.7834 26.4061C11.9407 26.4061 11.2567 27.0901 11.2567 27.9328C11.2567 28.7756 11.9407 29.4595 12.7834 29.4595C13.6261 29.4595 14.3101 28.7756 14.3101 27.9328C14.3101 27.0901 13.6261 26.4061 12.7834 26.4061Z" fill="white"/>
<path d="M4.23378 72.6718C2.37729 72.6718 0.875 71.1695 0.875 69.313C0.875 67.4565 2.37729 65.9542 4.23378 65.9542C6.09027 65.9542 7.59256 67.4565 7.59256 69.313C7.59256 71.1695 6.09027 72.6718 4.23378 72.6718ZM4.23378 67.7863C3.39103 67.7863 2.70706 68.4702 2.70706 69.313C2.70706 70.1557 3.39103 70.8397 4.23378 70.8397C5.07653 70.8397 5.7605 70.1557 5.7605 69.313C5.7605 68.4702 5.07653 67.7863 4.23378 67.7863Z" fill="white"/>
<path d="M14.0048 80C12.1483 80 10.646 78.4977 10.646 76.6412C10.646 74.7847 12.1483 73.2824 14.0048 73.2824C15.8613 73.2824 17.3636 74.7847 17.3636 76.6412C17.3636 78.4977 15.8613 80 14.0048 80ZM14.0048 75.1145C13.162 75.1145 12.4781 75.7985 12.4781 76.6412C12.4781 77.484 13.162 78.1679 14.0048 78.1679C14.8475 78.1679 15.5315 77.484 15.5315 76.6412C15.5315 75.7985 14.8475 75.1145 14.0048 75.1145Z" fill="white"/>
<path d="M77.5162 75.1145C75.6598 75.1145 74.1575 73.6122 74.1575 71.7557C74.1575 69.8992 75.6598 68.3969 77.5162 68.3969C79.3727 68.3969 80.875 69.8992 80.875 71.7557C80.875 73.6122 79.3727 75.1145 77.5162 75.1145ZM77.5162 70.229C76.6735 70.229 75.9895 70.913 75.9895 71.7557C75.9895 72.5985 76.6735 73.2824 77.5162 73.2824C78.359 73.2824 79.043 72.5985 79.043 71.7557C79.043 70.913 78.359 70.229 77.5162 70.229Z" fill="white"/>
</g>
<defs>
<clipPath id="clip0_1114_1479">
<rect width="80" height="80" fill="white" transform="translate(0.875)"/>
</clipPath>
</defs>
</svg>
