<svg xmlns="http://www.w3.org/2000/svg" width="16" height="16" viewBox="0 0 16 16" fill="none">
<path fill-rule="evenodd" clip-rule="evenodd" d="M14.19 2.75112H15.276C15.6752 2.75112 16 3.0759 16 3.4751V13.2489C16 14.2469 15.1881 15.0588 14.19 15.0588H1.80995C0.811946 15.0588 0 14.2469 0 13.2489V1.66514C0 1.26594 0.324778 0.941162 0.723982 0.941162H13.4661C13.8653 0.941162 14.19 1.26594 14.19 1.66514V2.75112ZM14.19 14.3348C14.7889 14.3348 15.276 13.8477 15.276 13.2489V3.4751H14.19V12.7059C14.19 12.8057 14.2712 12.8869 14.371 12.8869C14.5709 12.8869 14.733 13.0489 14.733 13.2489C14.733 13.4488 14.5709 13.6108 14.371 13.6108C13.872 13.6108 13.4661 13.2049 13.4661 12.7059V1.66514H0.723982V13.2489C0.723982 13.8477 1.21115 14.3348 1.80995 14.3348H14.19ZM11.6561 3.11311H2.53394C2.33401 3.11311 2.17195 3.27517 2.17195 3.4751C2.17195 3.67503 2.33401 3.83709 2.53394 3.83709H11.6561C11.856 3.83709 12.0181 3.67503 12.0181 3.4751C12.0181 3.27517 11.856 3.11311 11.6561 3.11311ZM2.53394 12.1629H6.19005C6.38997 12.1629 6.55204 12.3249 6.55204 12.5249C6.55204 12.7248 6.38997 12.8869 6.19005 12.8869H2.53394C2.33401 12.8869 2.17195 12.7248 2.17195 12.5249C2.17195 12.3249 2.33401 12.1629 2.53394 12.1629ZM8 12.1629H11.6561C11.856 12.1629 12.0181 12.3249 12.0181 12.5249C12.0181 12.7248 11.856 12.8869 11.6561 12.8869H8C7.80007 12.8869 7.63801 12.7248 7.63801 12.5249C7.63801 12.3249 7.80007 12.1629 8 12.1629ZM8 4.92306H11.6561C11.856 4.92306 12.0181 5.08513 12.0181 5.28505C12.0181 5.48498 11.856 5.64704 11.6561 5.64704H8C7.80007 5.64704 7.63801 5.48498 7.63801 5.28505C7.63801 5.08513 7.80007 4.92306 8 4.92306ZM11.6561 6.73302H8C7.80007 6.73302 7.63801 6.89508 7.63801 7.09501C7.63801 7.29494 7.80007 7.457 8 7.457H11.6561C11.856 7.457 12.0181 7.29494 12.0181 7.09501C12.0181 6.89508 11.856 6.73302 11.6561 6.73302ZM8 8.54297H11.6561C11.856 8.54297 12.0181 8.70504 12.0181 8.90496C12.0181 9.10489 11.856 9.26695 11.6561 9.26695H8C7.80007 9.26695 7.63801 9.10489 7.63801 8.90496C7.63801 8.70504 7.80007 8.54297 8 8.54297ZM11.6561 10.3529H8C7.80007 10.3529 7.63801 10.515 7.63801 10.7149C7.63801 10.9148 7.80007 11.0769 8 11.0769H11.6561C11.856 11.0769 12.0181 10.9148 12.0181 10.7149C12.0181 10.515 11.856 10.3529 11.6561 10.3529ZM2.53394 10.3529H6.19005C6.38997 10.3529 6.55204 10.515 6.55204 10.7149C6.55204 10.9148 6.38997 11.0769 6.19005 11.0769H2.53394C2.33401 11.0769 2.17195 10.9148 2.17195 10.7149C2.17195 10.515 2.33401 10.3529 2.53394 10.3529ZM6.19005 4.92306H2.53394C2.33401 4.92306 2.17195 5.08513 2.17195 5.28505V8.94116C2.17195 9.14109 2.33401 9.30315 2.53394 9.30315H6.19005C6.38997 9.30315 6.55204 9.14109 6.55204 8.94116V5.28505C6.55204 5.08513 6.38997 4.92306 6.19005 4.92306ZM5.82805 8.57917H2.89593V5.64704H5.82805V8.57917Z" fill="#000000"/>
</svg>