<svg width="43" height="48" viewBox="0 0 43 48" fill="none" xmlns="http://www.w3.org/2000/svg">
<path fill-rule="evenodd" clip-rule="evenodd" d="M34.0259 24.5307C33.9801 24.5889 33.9427 24.6536 29.4431 31.7142C34.2974 32.4603 42.5234 34.6765 42.5234 39.5625C42.5234 45.1432 31.557 48 21.4297 48C16.0138 48 10.9019 47.2395 7.0355 45.8587C1.49825 43.8811 0.335938 41.3433 0.335938 39.5625C0.335938 34.6774 8.57159 32.4588 13.4161 31.7143L8.885 24.6043C6.96444 21.946 5.96094 18.7781 5.96094 15.5625C5.96094 7.0155 12.9132 0 21.4297 0C29.974 0 36.8984 7.02938 36.8984 15.5625C36.8984 18.7802 35.9156 21.8673 34.0559 24.4902C34.0384 24.5151 34.0321 24.5228 34.0259 24.5307ZM11.1858 22.9863C11.2027 23.0095 11.2188 23.0332 11.2343 23.0573L21.4297 39.0552C31.6242 23.0586 31.6825 22.9573 31.7559 22.8685C31.7611 22.8622 31.7664 22.856 31.7754 22.8442C33.2871 20.7035 34.0859 18.1862 34.0859 15.5625C34.0859 8.53209 28.4083 2.8125 21.4297 2.8125C14.4365 2.8125 8.77344 8.52956 8.77344 15.5625C8.77344 18.182 9.58766 20.7877 11.1858 22.9863ZM3.14844 39.5625C3.14844 41.936 10.3678 45.1875 21.4297 45.1875C32.5566 45.1875 39.7109 41.9158 39.7109 39.5625C39.7109 37.9673 36.0013 35.3442 27.7812 34.3218L22.6154 42.4277C22.3573 42.8328 21.9101 43.0781 21.4296 43.0781C20.9491 43.0781 20.5019 42.8329 20.2438 42.4277L15.0779 34.3218C6.85794 35.3442 3.14844 37.9673 3.14844 39.5625ZM14.3984 15.5625C14.3984 11.6855 17.5527 8.53125 21.4297 8.53125C25.3067 8.53125 28.4609 11.6855 28.4609 15.5625C28.4609 19.4395 25.3067 22.5938 21.4297 22.5938C17.5527 22.5938 14.3984 19.4395 14.3984 15.5625ZM17.2109 15.5625C17.2109 17.8887 19.1035 19.7812 21.4297 19.7812C23.7559 19.7812 25.6484 17.8887 25.6484 15.5625C25.6484 13.2363 23.7559 11.3438 21.4297 11.3438C19.1035 11.3438 17.2109 13.2363 17.2109 15.5625Z" fill="black"/>
</svg>
