<svg xmlns="http://www.w3.org/2000/svg" width="16" height="14" viewBox="0 0 16 14" fill="none">
<path fill-rule="evenodd" clip-rule="evenodd" d="M0.873177 0.138672H15.1268C15.6083 0.138672 16 0.530339 16 1.01185V10.643C16 11.1245 15.6083 11.5161 15.1268 11.5161H9.34245V12.1845H10.669C11.1292 12.1845 11.5034 12.5589 11.5034 13.0189V13.5947C11.5034 13.7419 11.3841 13.8613 11.2367 13.8613H4.76328C4.61589 13.8613 4.49661 13.7419 4.49661 13.5947V13.0189C4.49661 12.5589 4.87083 12.1845 5.33099 12.1845H6.65755V11.5161H0.873177C0.391667 11.5161 0 11.1245 0 10.643V1.01185C0 0.530339 0.391667 0.138672 0.873177 0.138672ZM15.1268 0.672005H0.873177C0.685677 0.672005 0.533333 0.824479 0.533333 1.01185V9.22799H15.4667V1.01185C15.4667 0.824479 15.3143 0.672005 15.1268 0.672005ZM10.9701 13.328V13.0189C10.9701 12.8529 10.8349 12.7178 10.669 12.7178H9.07578H6.92422H5.33099C5.1651 12.7178 5.02995 12.8529 5.02995 13.0189V13.328H10.9701ZM7.19089 12.1845H8.80912V11.5161H7.19089V12.1845ZM9.07578 10.9828H15.1268C15.3143 10.9828 15.4667 10.8303 15.4667 10.643V9.76133H0.533333V10.643C0.533333 10.8303 0.685677 10.9828 0.873177 10.9828H6.92422H9.07578ZM3.33307 6.49258H1.9263C1.7789 6.49258 1.65963 6.37318 1.65963 6.22592V2.4323C1.65963 2.28503 1.7789 2.16563 1.9263 2.16563H5.71614C5.86354 2.16563 5.98281 2.28503 5.98281 2.4323V3.84284H7.39349C7.54088 3.84284 7.66015 3.96224 7.66015 4.10951V7.90326C7.66015 8.05053 7.54088 8.16993 7.39349 8.16993H3.59974C3.45234 8.16993 3.33307 8.05053 3.33307 7.90326V6.49258ZM7.12682 7.63659V4.37618H5.98281V6.22592C5.98281 6.37318 5.86354 6.49258 5.71614 6.49258H3.8664V7.63659H7.12682ZM5.44948 2.69896H2.19297V5.95925H3.59974H5.44948V4.10951V2.69896ZM9.30776 2.69896H14.1627C14.3101 2.69896 14.4294 2.57956 14.4294 2.4323C14.4294 2.28503 14.3101 2.16563 14.1627 2.16563H9.30776C9.16036 2.16563 9.04109 2.28503 9.04109 2.4323C9.04109 2.57956 9.16036 2.69896 9.30776 2.69896ZM14.1627 4.1659H9.30776C9.16036 4.1659 9.04109 4.0465 9.04109 3.89924C9.04109 3.75197 9.16036 3.63257 9.30776 3.63257H14.1627C14.3101 3.63257 14.4294 3.75197 14.4294 3.89924C14.4294 4.0465 14.3101 4.1659 14.1627 4.1659ZM9.30776 5.63279H14.1627C14.3101 5.63279 14.4294 5.51339 14.4294 5.36613C14.4294 5.21886 14.3101 5.09946 14.1627 5.09946H9.30776C9.16036 5.09946 9.04109 5.21886 9.04109 5.36613C9.04109 5.51339 9.16036 5.63279 9.30776 5.63279ZM9.82078 7.31693H9.30776C9.16036 7.31693 9.04109 7.19753 9.04109 7.05026C9.04109 6.90299 9.16036 6.78359 9.30776 6.78359H9.82078C9.96817 6.78359 10.0874 6.90299 10.0874 7.05026C10.0874 7.19753 9.96817 7.31693 9.82078 7.31693ZM11.0302 6.78359H10.5172C10.3698 6.78359 10.2505 6.90299 10.2505 7.05026C10.2505 7.19753 10.3698 7.31693 10.5172 7.31693H11.0302C11.1776 7.31693 11.2969 7.19753 11.2969 7.05026C11.2969 6.90299 11.1776 6.78359 11.0302 6.78359ZM11.7258 6.78359H12.2388C12.3862 6.78359 12.5055 6.90299 12.5055 7.05026C12.5055 7.19753 12.3862 7.31693 12.2388 7.31693H11.7258C11.5784 7.31693 11.4591 7.19753 11.4591 7.05026C11.4591 6.90299 11.5784 6.78359 11.7258 6.78359Z" fill="#000000"/>
</svg>