<?xml version="1.0" encoding="utf-8"?>
<!-- Generator: Adobe Illustrator 27.3.1, SVG Export Plug-In . SVG Version: 6.00 Build 0)  -->
<svg version="1.1" id="Layer_1" xmlns="http://www.w3.org/2000/svg" xmlns:xlink="http://www.w3.org/1999/xlink" x="0px" y="0px"
	 viewBox="0 0 595.28 841.89" style="enable-background:new 0 0 595.28 841.89;" xml:space="preserve">
<style type="text/css">
	.st0{fill:#194789;}
	.st1{fill:#F0B91C;}
	.st2{fill:#F3C727;}
	.st3{fill:#25408F;}
	.st4{fill:#003656;}
</style>
<g>
	<g>
		<path class="st0" d="M220.56,419.1c0-43.83,35.66-79.49,79.48-79.49c5.41,0,10.69,0.55,15.8,1.58v54h60
			c2.38,7.55,3.67,15.58,3.67,23.9c0,43.83-35.65,79.48-79.48,79.48C256.22,498.58,220.56,462.93,220.56,419.1 M210.63,419.1
			c0,49.31,40.11,89.42,89.41,89.42c49.3,0,89.42-40.11,89.42-89.42c0-49.3-40.12-89.42-89.42-89.42
			C250.74,329.68,210.63,369.8,210.63,419.1"/>
		<path class="st1" d="M427.66,415.76c11.15-11.29,19.21-19.32,23.27-28.88c-2.35,2.81-4.92,5.66-7.77,8.56
			c-34.29,34.74-94.63,54.77-132.88,53.91c-38.26-0.85-41.06-28.49-6.79-63.23c2.87-2.9,5.92-5.74,9.09-8.53
			c-17.71,9.55-28.69,16.3-39.85,27.6c-38.02,38.53-34.46,70.53,7.97,71.48C323.13,477.62,389.64,454.3,427.66,415.76"/>
		<polygon class="st2" points="356.75,364.02 345.01,363.69 341.65,352.42 337.7,363.49 325.95,363.19 335.26,370.38 331.35,381.46 
			341.06,374.82 350.39,381.97 347.07,370.69 		"/>
	</g>
	<g>
		<path class="st3" d="M146.66,439.31c-1.29,1.47-2.02,3.44-1.76,5.03c0.16,0.99,0.86,2.25,2.67,1.96c3.93-0.65,2.03-7.22,9.25-8.4
			c1.84-0.3,3.72,0.02,4.95,0.86c1.34,0.93,1.94,2.23,2.17,3.57c0.2,1.24,0.1,2.6-0.36,3.86l-3.77,0.62
			c0.72-1.07,1.19-2.25,1.01-3.35c-0.14-0.86-0.86-1.82-2.37-1.57c-1.55,0.25-1.95,1.62-2.34,2.52c-0.5,1.17-0.95,2.25-1.94,3.32
			c-1.18,1.28-2.54,2.09-4.6,2.42c-2.09,0.35-4.07,0.06-5.51-0.9c-1.6-1.07-2.12-2.43-2.37-3.99c-0.25-1.46-0.09-2.96,0.46-4.45
			L146.66,439.31z"/>
		<path class="st0" d="M149.47,457.87c-1.64,0.44-3.48,0.77-4.18,2.09l-0.1,0.02l-1.55-5.79l0.1-0.02c1.26,0.79,3.02,0.17,4.66-0.28
			l11.74-3.14c1.65-0.43,3.48-0.76,4.17-2.08l0.1-0.03l1.55,5.78l-0.09,0.03c-1.27-0.81-3.02-0.16-4.66,0.28l-3.6,0.96l1.04,3.85
			l3.59-0.96c1.65-0.44,3.48-0.76,4.18-2.08l0.09-0.03l1.55,5.79l-0.09,0.02c-1.26-0.8-3.02-0.16-4.66,0.28l-11.74,3.13
			c-1.65,0.44-3.49,0.77-4.18,2.09l-0.09,0.02l-1.55-5.79l0.1-0.02c1.26,0.79,3.02,0.16,4.66-0.28l4.95-1.33l-1.02-3.85
			L149.47,457.87z"/>
		<path class="st0" d="M153.51,474.26c-0.14,0.84,0.09,1.64,0.36,2.36c0.44,1.16,1.12,2.15,2.83,2.41l0.04,0.1l-4.93,0.9l-3.47-9.24
			l0.1-0.03c1.32,0.67,2.98-0.12,4.58-0.72l11.43-4.3c1.59-0.6,3.39-1.11,3.92-2.47l0.1-0.03l2.74,7.3
			c0.11,0.31,0.25,0.65,0.48,0.82l0.03,0.06l-4.43,1.66l-0.03-0.06c1.23-1.1,0.63-2.23,0.24-3.26l-0.25-0.66l-4.96,1.86l0.73,1.94
			c0.11,0.29,0.25,0.57,0.44,0.71l0.04,0.1l-4.28,1.61l-0.04-0.11c1.11-0.75,0.63-1.67,0.34-2.44l-0.26-0.69L153.51,474.26z"/>
		<path class="st0" d="M159.5,485.88c-1.54,0.71-3.27,1.32-3.74,2.74l-0.09,0.04l-2.49-5.45l0.09-0.04
			c1.38,0.57,2.99-0.32,4.52-1.03l11.08-5.06c1.54-0.7,3.3-1.34,3.77-2.75l0.09-0.04l2.49,5.44l-0.09,0.04
			c-1.37-0.57-3,0.34-4.54,1.05L159.5,485.88z"/>
		<path class="st0" d="M165.33,501.8c-0.57,0.72-1.04,1.48-1.28,2.19l-0.08,0.05c-2.52-4.49-2.68-4.78-0.15-7.88l3.97-4.88
			l-4.27,2.39c-1.48,0.83-3.18,1.61-3.53,3.06l-0.09,0.05l-2.93-5.23l0.03-0.01l0.06-0.03c1.42,0.46,2.96-0.59,4.44-1.41l10.6-5.94
			c1.51-0.85,3.18-1.61,3.53-3.06l0.09-0.05l2.93,5.23l-0.08,0.05c-1.42-0.45-2.97,0.59-4.45,1.42l-4.36,2.45l5.89-0.1
			c0.79-0.01,1.95,0.08,2.78-0.39c0.74-0.42,1-1.09,1.11-1.64l0.08-0.05l2.67,4.76l-0.09,0.05l-9.93-0.07L165.33,501.8z"/>
		<path class="st0" d="M172.27,507.87c-1.38,0.99-2.99,1.94-3.18,3.42l-0.08,0.05l-3.48-4.88l0.08-0.05c1.46,0.3,2.88-0.91,4.26-1.9
			l9.89-7.06c1.38-0.98,2.99-1.94,3.18-3.42l0.09-0.06l3.48,4.88l-0.08,0.05c-1.47-0.32-2.89,0.91-4.26,1.9l-3.04,2.17l2.32,3.24
			l3.03-2.17c1.38-0.99,2.99-1.94,3.18-3.42l0.08-0.06l3.48,4.88l-0.07,0.06c-1.46-0.31-2.89,0.91-4.27,1.9l-9.9,7.06
			c-1.38,0.99-2.98,1.94-3.17,3.42l-0.08,0.05l-3.48-4.87l0.08-0.05c1.46,0.3,2.89-0.91,4.26-1.9l4.18-2.97l-2.32-3.24
			L172.27,507.87z"/>
		<path class="st0" d="M192.38,534.83c-0.35,0.86-0.61,1.71-0.65,2.46l-0.07,0.07c-3.63-3.65-3.86-3.88-2.26-7.56l2.51-5.76
			l-3.47,3.46c-1.21,1.2-2.64,2.39-2.59,3.88l-0.06,0.07l-4.22-4.25l0.02-0.03l0.05-0.05c1.49,0.06,2.7-1.36,3.9-2.56l8.62-8.57
			c1.23-1.22,2.64-2.4,2.59-3.89l0.07-0.07l4.22,4.25l-0.07,0.07c-1.49-0.06-2.7,1.36-3.9,2.56l-3.54,3.52l5.65-1.68
			c0.75-0.22,1.9-0.46,2.57-1.12c0.6-0.59,0.67-1.32,0.62-1.87l0.07-0.07l3.84,3.87l-0.06,0.07l-9.59,2.59L192.38,534.83z"/>
		<path class="st0" d="M200.69,538.82c-1.07,1.32-2.36,2.67-2.15,4.15l-0.06,0.07l-4.66-3.76l0.06-0.08
			c1.48-0.11,2.52-1.65,3.6-2.97l7.64-9.45c1.07-1.32,2.36-2.67,2.15-4.14l0.06-0.08l4.66,3.76l-0.06,0.08
			c-1.5,0.09-2.53,1.65-3.6,2.97l-2.34,2.89l3.1,2.5l2.34-2.9c1.06-1.32,2.35-2.67,2.14-4.14l0.06-0.08l4.67,3.77l-0.06,0.08
			c-1.49,0.1-2.53,1.65-3.6,2.96l-7.64,9.45c-1.07,1.33-2.36,2.68-2.14,4.15l-0.06,0.07l-4.66-3.77l0.06-0.07
			c1.49-0.1,2.54-1.65,3.6-2.97l3.23-3.99l-3.1-2.51L200.69,538.82z"/>
		<path class="st0" d="M218.58,549.48l-1.08,3.07c-0.17,0.51-0.21,0.68-0.51,1.15c-0.56,0.87-1.15,1.05-1.84,1.19l-0.05,0.08
			l5.67,3.61l0.02-0.03l0.04-0.05c-0.14-2.15,0.17-2.84,0.83-4.89l5.47-16.46l-4.6-2.93l-0.05,0.08c0.15,0.6,0.17,1.31-0.3,2.06
			c-0.37,0.57-1.35,1.46-1.81,1.94l-9.59,9.35c-1.23,1.19-1.98,1.84-3.31,2.35l-0.05,0.08l3.86,2.46l0.05-0.09
			c-0.07-0.63-0.19-1.2,0.3-1.98c0.37-0.58,1.12-1.3,1.6-1.77l1.64-1.59L218.58,549.48z M219.59,546.52l-2.56-1.62l4.69-4.64
			l0.02,0.01L219.59,546.52z"/>
		<path class="st0" d="M229.66,558.91c0.42,0.76,1.12,1.19,1.84,1.55c1.1,0.55,2.12,0.66,3.47,0.13l-2.81,3.71l-8.68-4.34l0.04-0.09
			c1.43-0.42,2.11-2.12,2.87-3.64l5.45-10.9c0.76-1.53,1.73-3.12,1.21-4.51l0.05-0.08l5.35,2.68l-0.04,0.08
			c-1.43,0.42-2.12,2.15-2.9,3.71L229.66,558.91z"/>
		<path class="st0" d="M241.87,563.39c-0.66,1.57-1.5,3.19-0.89,4.55l-0.04,0.09l-5.53-2.3l0.04-0.09c1.4-0.51,1.95-2.26,2.61-3.83
			l4.68-11.25c0.65-1.57,1.51-3.22,0.9-4.58l0.04-0.08l5.53,2.29l-0.04,0.1c-1.4,0.51-1.97,2.3-2.63,3.87L241.87,563.39z"/>
		<path class="st0" d="M249.84,566.18c-0.62,1.79-1.07,3.19-0.6,4.73l-0.02,0.09l-5.71-1.95l0.03-0.1c1.36-0.6,1.81-2.38,2.37-4.03
			l3.95-11.52c0.55-1.6,1.31-3.32,0.6-4.6l0.03-0.09l7.37,2.53c0.32,0.11,0.66,0.22,0.96,0.11l0.06,0.02l-1.54,4.48l-0.06-0.02
			c-0.07-1.65-1.34-1.87-2.36-2.23l-0.68-0.23l-1.71,5l1.53,0.53c0.32,0.11,0.6,0.17,0.84,0.11l0.11,0.03l-1.49,4.33l-0.1-0.03
			c0.13-1.27-0.76-1.51-1.52-1.77l-0.41-0.18L249.84,566.18z"/>
		<path class="st0" d="M263.98,568.44l-0.04,3.25c0,0.54,0.01,0.71-0.12,1.25c-0.25,1.02-0.75,1.37-1.36,1.72l-0.03,0.09l6.53,1.6
			l0.01-0.03l0.02-0.06c-0.82-1.99-0.75-2.74-0.77-4.9l-0.07-17.34l-5.3-1.31l-0.02,0.09c0.33,0.52,0.58,1.19,0.36,2.04
			c-0.16,0.67-0.81,1.82-1.1,2.43l-6.09,11.92c-0.79,1.52-1.29,2.37-2.39,3.28l-0.02,0.09l4.43,1.09l0.02-0.1
			c-0.27-0.57-0.55-1.08-0.34-1.97c0.16-0.66,0.65-1.59,0.95-2.19l1.05-2.03L263.98,568.44z M263.99,565.31l-2.94-0.71l2.96-5.9
			l0.03,0.01L263.99,565.31z"/>
		<path class="st0" d="M285.77,574.84c0.7,0.49,1.51,0.62,2.29,0.69c1.24,0.11,2.42-0.09,3.39-1.51l0.11,0.01l-1.3,4.83l-9.83-0.83
			l0-0.1c1.18-0.92,1.18-2.75,1.32-4.44l1.03-12.17c0.15-1.69,0.46-3.54-0.55-4.6l0.01-0.1l7.77,0.65c0.33,0.03,0.68,0.06,0.95-0.07
			h0.06l-0.39,4.72l-0.07-0.01c-0.47-1.59-1.74-1.53-2.83-1.62l-0.72-0.06l-0.44,5.28l2.07,0.17c0.3,0.03,0.62,0.02,0.83-0.1
			l0.1,0.01l-0.38,4.57l-0.11-0.02c-0.2-1.33-1.23-1.28-2.05-1.35l-0.74-0.06L285.77,574.84z"/>
		<path class="st0" d="M306.08,574.22c0.71,1.65,1.39,3.45,2.45,4.65v0.06v0.03l-5.23,0.06v-0.1l-3.27-8.23l-1.79,4.2
			c-0.22,0.59-0.49,1.18-0.49,1.9c0.01,0.85,0.27,1.73,0.72,2.18v0.1l-4.92,0.05l-0.01-0.1l5.16-11.2l-2.86-7.02
			c-0.52-1.29-0.96-2.34-1.81-3.08v-0.1l5.23-0.06v0.1l2.63,6.8l1.09-2.53c0.3-0.69,0.72-1.74,0.7-2.59
			c-0.01-0.72-0.39-1.5-0.84-1.72v-0.1l4.88-0.05v0.1l-4.54,9.81L306.08,574.22z"/>
		<path class="st0" d="M321.6,560.4c-1.21-0.94-2.57-1.4-3.9-1.24c-3.03,0.36-3.47,4.03-3,7.95c0.53,4.47,2.45,7.93,5.74,7.53
			c1.73-0.19,3.18-1.33,4.53-2.67l-0.54,4.87c-1.37,0.76-2.83,1.12-4.31,1.3c-2.25,0.27-4.22-0.06-6.26-2.08
			c-1.96-1.9-3.23-4.84-3.62-8.16c-0.35-2.98,0.13-6.23,1.44-8.43c1.43-2.31,3.66-3.37,5.83-3.62l3.39,0.02L321.6,560.4z"/>
		<path class="st0" d="M332.64,571.85c0.81,0.26,1.63,0.15,2.39-0.02c1.22-0.27,2.29-0.8,2.79-2.45l0.11-0.02l0.19,5.01l-9.63,2.12
			l-0.02-0.1c0.85-1.22,0.31-2.98-0.06-4.64l-2.61-11.94c-0.37-1.66-0.62-3.51-1.88-4.23l-0.03-0.1l7.62-1.68
			c0.33-0.06,0.67-0.14,0.88-0.35l0.06-0.01l1.02,4.63l-0.06,0.01c-0.92-1.37-2.12-0.94-3.18-0.7l-0.7,0.15l1.13,5.17l2.02-0.45
			c0.31-0.07,0.61-0.16,0.77-0.34l0.11-0.02l0.97,4.47l-0.11,0.02c-0.58-1.21-1.55-0.86-2.35-0.68l-0.72,0.16L332.64,571.85z"/>
		<path class="st0" d="M345.44,568.42c0.83,0.26,1.63,0.07,2.4-0.16c1.17-0.37,1.98-0.99,2.59-2.31l0.55,4.62l-9.28,2.88l-0.03-0.09
			c0.74-1.29,0.05-2.99-0.46-4.61l-3.61-11.64c-0.51-1.62-0.9-3.44-2.25-4.09l-0.03-0.1l5.72-1.77l0.03,0.09
			c-0.75,1.29-0.04,3.02,0.47,4.68L345.44,568.42z"/>
		<path class="st0" d="M357.85,563.98c0.85,0.18,1.64-0.06,2.38-0.37c1.13-0.46,1.89-1.15,2.38-2.52l0.94,4.55l-8.99,3.66
			l-0.04-0.09c0.63-1.36-0.21-2.99-0.84-4.56l-4.6-11.29c-0.64-1.58-1.2-3.36-2.59-3.88l-0.03-0.09l5.55-2.26l0.04,0.09
			c-0.63,1.34,0.22,3.01,0.87,4.62L357.85,563.98z"/>
		<path class="st0" d="M369.81,558.6c0.85,0.05,1.61-0.27,2.3-0.62c1.11-0.57,2.01-1.35,2.08-3.08l0.1-0.05l1.45,4.8l-8.79,4.49
			l-0.04-0.09c0.51-1.4-0.46-2.96-1.24-4.47l-5.55-10.88c-0.77-1.52-1.48-3.24-2.89-3.62l-0.05-0.09l6.94-3.54
			c0.3-0.15,0.62-0.31,0.76-0.57l0.06-0.03l2.15,4.21l-0.05,0.03c-1.24-1.09-2.29-0.37-3.26,0.12l-0.64,0.33l2.41,4.71l1.85-0.94
			c0.28-0.14,0.54-0.31,0.66-0.52l0.1-0.05l2.08,4.07l-0.1,0.05c-0.88-1.03-1.73-0.44-2.46-0.06l-0.66,0.33L369.81,558.6z"/>
		<path class="st0" d="M391.15,550.94c-0.66,0.42-2.13,0.4-2.96,0.36c-2.04-0.13-2.99-0.84-5.05-2l-8.12-4.71l-0.06,0.03l4.67,7.26
			c1.03,1.59,1.83,2.79,3.35,3.4l0.05,0.08l-3.61,2.32l-0.04-0.07c0.09-1.66-0.67-2.89-1.69-4.48l-6.1-9.47
			c-1.36-2.12-1.91-2.8-3.98-3.81l-0.06-0.08l3.9-2.51l0.06,0.09l12.86,7.33l-4.58-7.11c-1.03-1.59-1.83-2.79-3.36-3.4l-0.05-0.09
			l3.59-2.31l0.05,0.09c-0.08,1.64,0.68,2.87,1.7,4.46L391.15,550.94z"/>
		<path class="st0" d="M393.25,526.77c-1.52-0.15-2.92,0.19-3.96,1.03c-2.36,1.93-0.76,5.26,1.73,8.32c2.85,3.5,6.32,5.39,8.89,3.29
			c1.35-1.09,1.99-2.83,2.38-4.68l2.15,4.41c-0.75,1.37-1.78,2.46-2.93,3.4c-1.75,1.44-3.59,2.22-6.4,1.6
			c-2.68-0.56-5.32-2.37-7.43-4.95c-1.9-2.33-3.22-5.33-3.3-7.89c-0.03-2.72,1.29-4.8,2.98-6.18l2.88-1.8L393.25,526.77z"/>
		<path class="st0" d="M408.72,530.52c0.83-0.22,1.45-0.75,2-1.3c0.89-0.88,1.5-1.9,1.05-3.56l0.08-0.08l2.83,4.13l-7.01,6.95
			l-0.07-0.07c0.07-1.48-1.33-2.68-2.52-3.88l-8.6-8.68c-1.2-1.21-2.4-2.64-3.86-2.57l-0.07-0.07l5.54-5.49
			c0.24-0.23,0.49-0.48,0.55-0.77l0.05-0.05l3.33,3.37l-0.05,0.05c-1.51-0.67-2.29,0.34-3.07,1.11l-0.51,0.5l3.73,3.76l1.47-1.46
			c0.23-0.22,0.42-0.46,0.48-0.69l0.08-0.08l3.22,3.25l-0.08,0.08c-1.15-0.71-1.78,0.1-2.37,0.68l-0.52,0.52L408.72,530.52z"/>
		<path class="st0" d="M423.12,509.37l2.98,1.28c0.49,0.21,0.66,0.27,1.11,0.6c0.84,0.62,0.97,1.21,1.06,1.92l0.08,0.05l3.99-5.41
			l-0.02-0.02l-0.06-0.03c-2.15-0.01-2.82-0.36-4.81-1.18l-16.05-6.59l-3.23,4.4l0.08,0.05c0.6-0.11,1.32-0.08,2.02,0.44
			c0.55,0.41,1.36,1.46,1.81,1.94l8.67,10.21c1.1,1.31,1.7,2.1,2.11,3.47l0.08,0.06l2.71-3.67l-0.08-0.06
			c-0.63,0.03-1.21,0.1-1.95-0.44c-0.55-0.4-1.22-1.21-1.65-1.71l-1.47-1.75L423.12,509.37z M420.23,508.16l-1.79,2.44l-4.31-5
			l0.02-0.02L420.23,508.16z"/>
		<path class="st0" d="M437.15,500.45c-0.51,0.62-1.42,1.11-2.26,1.41c-1.78,0.62-3.01,0.26-5.16-0.45l-11.83-3.92
			c-1.42-0.48-2.59-0.73-3.81-0.51l-0.09-0.04l2.39-4.2l0.03,0.01l14.27,4.98l0.03-0.06l-7.01-5.78c-0.51-0.42-1.43-1.19-1.99-1.52
			c-0.86-0.49-2.62-0.95-3.42-0.79l-0.08-0.05l2.31-4.07l0.08,0.05c0.09,0.1,0.26,0.25,0.44,0.35c1.08,0.62,2.18,0.93,3.32,1.3
			l10.37,3.43l0.03-0.05l-7.53-6.44c-0.61-0.53-1.38-1.21-2.09-1.62c-0.85-0.49-1.73-0.6-2.5-0.55l-0.09-0.05l1.86-3.27l0.09,0.05
			l16.72,14.75c-0.63,0.57-1.46,0.99-2.33,1.32c-1.36,0.54-2.51,0.32-4.2-0.23l-7.69-2.47L437.15,500.45z"/>
		<path class="st0" d="M440.98,477.2l3.21,0.54c0.54,0.07,0.7,0.09,1.21,0.3c0.96,0.4,1.24,0.95,1.5,1.61l0.09,0.04l2.58-6.21
			l-0.03-0.01l-0.06-0.03c-2.09,0.51-2.82,0.32-4.95,0.01l-17.15-2.56l-2.09,5.04l0.09,0.03c0.56-0.24,1.26-0.39,2.07-0.05
			c0.63,0.26,1.67,1.08,2.23,1.46l10.86,7.83c1.39,1.02,2.15,1.64,2.88,2.86l0.1,0.04l1.75-4.22l-0.1-0.04
			c-0.6,0.18-1.15,0.4-1.99,0.05c-0.63-0.27-1.48-0.88-2.02-1.27l-1.85-1.35L440.98,477.2z M437.89,476.71l-1.16,2.79l-5.38-3.82
			l0.01-0.03L437.89,476.71z"/>
		<path class="st0" d="M443.08,463.08l7.56-0.5c2.17-0.19,2.64-0.79,2.93-2.26l0.57-3.04c-1.28,0.56-2.78,0.8-4.35,0.96l-6.99,0.74
			c-0.46-1.67-1.86-3.3-4.22-3.98c-2.11-0.61-3.95-0.45-5.32,0.52c-1.04,0.75-1.26,1.62-1.55,2.66l-1.84,6.33l0.1,0.03
			c1.27-0.77,3.02-0.1,4.65,0.37l11.67,3.37c1.63,0.48,3.46,0.85,4.13,2.18l0.1,0.02l1.66-5.75l-0.09-0.03
			c-1.28,0.77-3.03,0.1-4.65-0.38L443.08,463.08z M434.39,460.33c0.13-0.43,0.32-0.86,0.8-1.11c0.76-0.4,1.91-0.38,2.91-0.08
			c1.98,0.57,3.36,2.03,3.32,3.46l-7.09-2.05L434.39,460.33z"/>
		<path class="st0" d="M450.56,452.79c1.67,0.29,3.53,0.46,4.34,1.71l0.1,0.02l0.86-4.93c0.43-2.46,0.97-4.62-1.02-7.03
			c-1.68-2.04-4.73-3.49-7.85-4.04c-3.47-0.6-6.96-0.19-9.33,1.42c-2.37,1.62-2.6,3.86-3.01,6.23l-0.82,4.65l0.1,0.02
			c0.35-0.35,1.13-0.56,1.79-0.52c0.95,0.05,3.87,0.56,4.97,0.76L450.56,452.79z M438.33,446.46c-0.04-0.51-0.06-1,0.03-1.49
			c0.47-2.69,4.56-2.79,7.88-2.21c1.71,0.29,3.41,0.77,4.79,1.63c1.65,1.03,2.1,2.02,1.86,3.39c-0.07,0.4-0.2,0.79-0.47,1.15
			L438.33,446.46z"/>
	</g>
	<g>
		
			<rect x="363.53" y="276.87" transform="matrix(0.9729 -0.2311 0.2311 0.9729 -54.475 91.9322)" class="st0" width="3.16" height="3.16"/>
		<polygon class="st0" points="370.79,278.31 370.05,275.24 366.97,275.97 367.71,279.05 		"/>
		
			<rect x="367.87" y="279.54" transform="matrix(0.9725 -0.2328 0.2328 0.9725 -55.2979 93.7381)" class="st0" width="3.16" height="3.17"/>
		<polygon class="st0" points="322.24,266.25 320.39,263.68 317.82,265.52 319.67,268.09 		"/>
		<polygon class="st0" points="330.54,292.89 332.09,295.65 334.85,294.1 333.31,291.35 		"/>
		
			<rect x="336.03" y="293.3" transform="matrix(0.8721 -0.4893 0.4893 0.8721 -101.1083 202.8951)" class="st0" width="3.16" height="3.16"/>
		<path class="st0" d="M369.87,299.71L369.87,299.71c-0.05-0.03-0.1-0.06-0.15-0.09c0.03,0.02,0.05,0.04,0.09,0.06L369.87,299.71z"
			/>
		<path class="st0" d="M397.82,292.98c-0.39,0.11-4.64,0.88-5.44,0.94l-9.83,14.09l-2.29,3.29l-0.04,0.05l1.2,0.84l2.03,1.42
			l2.18-3.12l-0.02-0.01l0.05-0.07L397.82,292.98z"/>
		<path class="st0" d="M161.92,416.79l-14.02-0.28l3.13,3.62l10.87,0.48c5.41,0.04,8.21,3.58,8.19,7.91l0.02-3.82
			C170.13,420.37,167.33,416.82,161.92,416.79"/>
		<path class="st0" d="M186.7,332.03l-0.04-0.03l-0.02,0.02l-13.79-12.16c0.09,0.39,0.7,4.67,0.73,5.48l10.73,9.83L186.7,332.03z"/>
		<path class="st0" d="M195.4,340.45c0,0-3.1-0.41-0.89-3.32c0,0-3.8,1.53-2.39,3.89c0.88,1.5,2.01,1.12,2.01,1.12l-0.81,1.06
			l1.22,2.76l4.53-5.96l-2.1-1.6L195.4,340.45z"/>
		<polygon class="st0" points="152.83,367.29 151.5,364.41 148.63,365.74 149.95,368.62 		"/>
		<polygon class="st0" points="139.01,417.83 141.14,420.17 143.47,418.04 141.35,415.71 		"/>
		
			<rect x="150.91" y="360.15" transform="matrix(0.9074 -0.4203 0.4203 0.9074 -137.8983 97.5773)" class="st0" width="3.17" height="3.17"/>
		<polygon class="st0" points="173.76,390.77 171.01,392.33 169.44,389.6 172.19,388.02 		"/>
		<polygon class="st0" points="175.09,385.84 172.34,387.41 170.76,384.67 173.51,383.1 		"/>
		<path class="st4" d="M159.96,396.32l-0.02,0.09C159.96,396.38,159.96,396.35,159.96,396.32"/>
		<polygon class="st0" points="168.01,379.75 168.05,379.76 168.05,379.76 		"/>
		<path class="st0" d="M191.37,330.08C191.32,330.14,191.42,330.02,191.37,330.08c-1.97,2.31-5.29,6.68-7.08,9.14l0.02,0.03
			l-0.02,0.01l1.29,3.77l0.34,1c3.86-6.63,11.12-14.55,16.84-20.17l-0.25-0.32l-2.73-2.52l-0.06-0.05l-0.01,0.01l-15.57-14.17
			c0.05,0.4,0.25,4.71,0.21,5.52l12.68,11.51l-0.54,0.57l-2.51,2.72l-15.48-14.15c0.06,0.4,0.29,4.72,0.25,5.52L191.37,330.08z"/>
		<polygon class="st0" points="158.92,408.24 158.28,408.13 158.28,408.13 		"/>
		<path class="st0" d="M176.61,351.07c-0.01-0.01-0.01-0.03,0.02-0.02C176.63,351.05,177.03,350.36,176.61,351.07 M176.74,351.4
			c-0.08-0.04-2.15-1.32-2.27-1.38c-1.67-0.96-1.03-4.56-0.82-4.94l4.9,3.18C178.51,348.25,176.75,351.38,176.74,351.4
			 M168.05,379.76l-0.04-0.01L168.05,379.76L168.05,379.76z M171.31,339.02c0.52,1.56-4.62,8.82,0.24,13.39
			c0.32,0.3,1.76,1.28,3.08,2.15c-0.36,0.72-1.2,2.39-1.24,2.38c-0.02,0-1.63,3.19-1.59,3.23c-1.12,2.32-2.18,4.67-3.18,7.04
			l-0.01,0.03c-0.25,0.61-0.53,1.2-0.78,1.81l-10.16-3.75c0.2,0.35,2.04,4.26,2.3,5.03l6.49,2.39c-0.73,1.97-1.41,3.96-2.05,5.96
			l-0.01-0.01l-0.03,0.14c-0.53,1.66-1.03,3.32-1.5,5l-9.75-2.42c0.23,0.32,2.45,4.04,2.79,4.78l5.95,1.43
			c-0.55,2.22-1.05,4.45-1.5,6.7c-0.08,0.46-0.19,0.92-0.27,1.38c-0.04,0.21-0.06,0.41-0.11,0.62c-0.01,0.02-0.01,0.05-0.02,0.09
			c-0.69,3.83-1.22,7.71-1.6,11.63l-17.72-2.37c0.27,0.29,2.91,3.71,3.33,4.4l14.07,1.9l3.6,0.48l0-0.03l0.46,0.06
			c1.11-16.72,5.22-32.75,11.92-47.47l1.35-2.65h0.01l2.84-5.6l0.02,0.01l0.17-0.3l4.79-8.4l0.87-1.31L171.31,339.02z"/>
		<polygon class="st0" points="204.71,294.37 201.6,293.82 201.03,296.93 204.15,297.49 		"/>
		<polygon class="st0" points="208.64,291.08 205.78,290.9 205.23,294.02 208.08,294.2 		"/>
		
			<rect x="225.3" y="279.42" transform="matrix(0.3291 -0.9443 0.9443 0.3291 -113.1238 402.7838)" class="st0" width="3.17" height="3.17"/>
		
			<rect x="278.38" y="263.28" transform="matrix(0.4109 -0.9117 0.9117 0.4109 -76.5439 411.2662)" class="st0" width="3.16" height="3.17"/>
		
			<rect x="251.24" y="296.34" transform="matrix(0.4605 -0.8877 0.8877 0.4605 -128.0579 385.1524)" class="st0" width="3.16" height="3.16"/>
		
			<rect x="256.1" y="294.8" transform="matrix(0.4605 -0.8877 0.8877 0.4605 -124.0676 388.6332)" class="st0" width="3.16" height="3.16"/>
		<path class="st0" d="M232.08,297.42c-0.04-0.08-1.06-2.28-1.12-2.4c-0.87-1.72,1.65-4.37,2.04-4.57l2.33,5.36
			C235.31,295.77,232.1,297.4,232.08,297.42 M211.79,310.82c-0.05-0.07-1.47-2.04-1.55-2.15c-1.18-1.53,0.79-4.61,1.15-4.87
			l3.29,4.83C214.65,308.59,211.8,310.8,211.79,310.82 M295.64,280.48c-4.06-12.86-13.48-10.32-15.66-5.56
			c4.84-3.79,9.78,0.4,10.7,5.86l-0.59,0.09l-0.65,0.03v-0.01c-1.8,0.16-6.78,0.59-8.34,0.75c-5.89,0.74-11.68,1.82-17.31,3.26
			l-6.08-19.96c-0.16,0.37-2.18,4.19-2.63,4.86l4.93,16.15c-2.06,0.59-5.6,1.77-7.63,2.45L249,278.8c-0.13,0.31-2.72,4.54-2.68,4.56
			l2.37,6.32c-1.39,0.5-1.24,0.51-2.6,1.06l-0.18,0.05l0.01,0.03c-2.13,0.86-4.24,1.77-6.31,2.73l-0.64,0.26l-4.59-9.7
			c-0.42,1.59-8.71,4.8-7.18,11.29c0.1,0.45,0.84,2.25,1.51,3.78c-0.21,0.12-0.41,0.24-0.61,0.35l-0.5,0.29
			c-3.28,1.92-6.45,3.97-9.55,6.13l-6.5-8.63c-0.11,1.64-7.66,6.35-4.94,12.44c0.31,0.69,2.97,4.62,3.54,5.35l0.94,1.23l0.28-0.21
			l7.66-5.89l1.31-0.88l-0.02-0.03c2.54-1.79,5.13-3.49,7.8-5.1c1.11-0.67,3.3-2.05,3.3-2.05l7.9-3.98l1.41-0.69
			c1.6-0.75,3.21-1.5,4.84-2.18c1.51-0.64,3.04-1.24,4.57-1.83c5.65-2.14,11.5-3.91,17.49-5.31c1.45-0.34,2.89-0.67,4.36-0.96
			c5.9-1.17,11.95-1.95,18.11-2.36l0,0.03c2.02-0.18,4.07-0.32,6.12-0.4l1.29,0.03l1.07-3.74l0.07-0.27L295.64,280.48z"/>
		
			<rect x="406.51" y="306.52" transform="matrix(5.615635e-03 -1 1 5.615635e-03 97.6989 714.4621)" class="st0" width="3.16" height="3.17"/>
		
			<rect x="410.09" y="310.16" transform="matrix(7.423551e-03 -1 1 7.423551e-03 96.8879 721.0836)" class="st0" width="3.17" height="3.16"/>
		<path class="st0" d="M426.51,332.31l2.03-1.7l-1.64-1.97c0,0,1.08-2.93,3.42-0.13c0,0-0.63-4.04-3.26-3.2
			c-1.66,0.53-1.53,1.71-1.53,1.71l-0.84-1.02l-2.98,0.57L426.51,332.31z"/>
		<polygon class="st0" points="419.41,316.59 416.33,315.85 415.58,318.91 418.66,319.66 		"/>
		
			<rect x="423.39" y="382.19" transform="matrix(0.3171 -0.9484 0.9484 0.3171 -73.7397 665.1371)" class="st0" width="3.16" height="3.16"/>
		<path class="st0" d="M437.2,368.21c4.78,3.86,1.8,9.61-3.32,11.74l-0.29-0.73c-0.47-1.42-0.99-2.88-1.53-4.35
			c-0.35-1.01-1.09-3.01-2.44-6.16c-0.93-2.23-1.89-4.44-2.86-6.53l0.3,0.83c-1.48-3.15-3.36-6.97-5.75-11.48l0.08-0.04
			c-0.41-0.7-0.8-1.4-1.22-2.11l18.03-10.96c-0.4-0.05-4.6-1.05-5.36-1.33l-14.77,8.97l-3.25,1.98l-0.38,0.13
			c0,0,6.86,9.81,12.13,23.47l0.08,0.05c1.87,4.71,3.5,9.54,4.84,14.5l0.26,1.26l3.87,0.2l0.29,0.01l-0.62-2.95
			C446.92,377.89,442.34,369.26,437.2,368.21"/>
		<path class="st0" d="M419.75,334.94l-6.39,4.18c-2.03-2.8-4.19-5.53-6.44-8.19l7.27-6.25l-5.31-0.81l-7.87,6.55
			c-4.08,3.56-8.53,2.76-11.37-0.51l2.51,2.88c2.84,3.27,7.61,4.39,11.69,0.83c0,0,0.5,0.44,0.58,0.54l6.67,8.7l1.2,1.56l3.31-2.1
			l9.23-5.92C424.51,336.35,419.76,334.91,419.75,334.94"/>
		<path class="st0" d="M398.68,322.18c0.03-0.04-2.57-2.52-2.59-2.53c0.06-0.06,1.81-1.76,1.9-1.85c1.34-1.39,4.67,0.13,4.99,0.43
			L398.68,322.18z M396.4,314.36c-0.63,0.4-4.14,3.61-4.78,4.28l-1.08,1.11l0.25,0.24l6.95,6.72l1.05,1.17l10.64-10.45
			C407.79,317.57,402.04,310.79,396.4,314.36"/>
		<path class="st0" d="M389.97,287.54c-0.37,0.13-4.58,1.15-5.38,1.26l-8.84,14.53c-1.93-1.25-3.88-2.46-5.87-3.62h-0.01h-0.01
			l-0.06-0.03c-0.04-0.02-0.06-0.04-0.09-0.06c-1.8-0.95-1.43-3.08-1.41-3.17c0.03-0.05,4.5-9.59,4.5-9.59l-0.13,0.01l-4.85,1.69
			l-2.91,6.21c0,0-0.6,0.92-1.54,1.38c-0.55,0.27-1.23,0.38-1.95,0.04c-0.81-0.37-1.16-1.04-1.31-1.7
			c-0.22-0.96,0.01-1.91,0.01-1.91l0.01-0.03l4.45-9.51l0.01-0.03l-5.03,1.72c0,0-2.98,6.28-3,6.37c-0.2,0.25-0.68,0.81-1.34,1.16
			c-0.57,0.31-1.27,0.46-2.04,0.1c-0.72-0.34-1.08-0.9-1.27-1.5c-0.3-1.03-0.24-2.3-0.24-2.3l4.06-9.74l-5.02,1.72
			c0,0-2.56,6.43-2.58,6.49c-0.17,0.22-1.34,1.81-3.04,1.27c-0.35-0.12-0.71-0.22-1.06-0.34l-1.29-0.44l-0.01,0.02
			c-1.16-0.38-1.93-0.68-3.11-1.03l3.12-11.16c-0.27,0.19-4.64,2.44-5.16,2.66l-2.03,7.35c-1.31-0.36-2.62-0.68-3.95-1l-1.1-0.25
			c-1.87-0.43-2.43-0.59-4.32-0.94c-2.21-0.18-3.12-2.49-2.62-5.42l0.05-0.19l2.06,0.35l0.79-3.86l-10.9-1.9
			c-1.33-0.22-3.06-0.44-4.29,0.88l-3.18,3.32c1.19-0.97,1.77-0.8,3.84-0.62c0,0,2.35,0.32,3.99,0.54c-4.49,1.28-7.74,4.96-7.74,9.3
			c0,5.41,5.04,9.8,11.26,9.8c2.04,0,3.52-0.48,4.59-1.3c-0.81,0.24-1.66,0.37-2.54,0.37c-4.84,0-8.76-3.92-8.76-8.76
			c0-4.13,2.88-7.6,6.74-8.52c-0.44,1.58-0.32,3.71,0.06,4.85c0.82,2.44,2.81,4,5.46,4.98c0,0,5.39,1.19,7.46,1.71l7,1.97
			c0.88,0.27,1.74,0.59,2.61,0.88c1.08,0.35,2.16,0.69,3.22,1.08c1.1,0.13,2.11,0,2.93-0.35c0.02,0.04,0.04,0.06,0.05,0.09
			c0.21,0.62,0.54,1.23,0.99,1.79c0.54,0.68,1.27,1.29,2.3,1.77c1.19,0.56,2.26,0.68,3.23,0.57c0.6-0.07,1.16-0.21,1.67-0.43
			c0.16,0.51,0.42,1.01,0.75,1.51c0.55,0.84,1.36,1.61,2.59,2.17c1.08,0.51,2.06,0.65,2.94,0.6c0.67-0.04,1.29-0.18,1.84-0.41
			c0.02-0.01,0.04,0,0.07-0.02c0.24,0.77,0.68,1.53,1.33,2.21c1.47,0.82,2.93,1.66,4.36,2.53c0.33,0.21,0.65,0.42,0.98,0.62
			c1.64,1.02,3.27,2.07,4.86,3.16l0.71,0.44l0.03-0.05l0.03,0.02l2-3.24l-0.02-0.01l0.05-0.08L389.97,287.54z"/>
	</g>
</g>
</svg>
