<?xml version="1.0" encoding="utf-8"?>
<!-- Generator: Adobe Illustrator 27.3.1, SVG Export Plug-In . SVG Version: 6.00 Build 0)  -->
<svg version="1.1" id="Layer_1" xmlns="http://www.w3.org/2000/svg" xmlns:xlink="http://www.w3.org/1999/xlink" x="0px" y="0px"
	 viewBox="0 0 1245 1089" style="enable-background:new 0 0 1245 1089;" xml:space="preserve">
<style type="text/css">
	.st0{fill:#858585;}
	.st1{fill:#1C1D1A;}
	.st2{fill:#BC9C56;}
</style>
<g>
	<path class="st0" d="M357.81,460.4c-2.77,0.02-4.64,2.75-4.61,7.32l0.38,69.51c0.02,3.65,1.93,7.3,4.69,7.28
		c2.82-0.02,5.59-3.69,5.57-7.34l-0.38-69.51C363.44,463.09,360.64,460.38,357.81,460.4"/>
	<path class="st0" d="M332.91,507.15l0.05,9.15c0.05,9.14-6.47,16.5-13,16.53l-25.2,0.14c-6.51,0.04-12.18-7.25-12.23-16.4
		l-0.02-3.66c-0.03-5.49-8.41-5.44-8.38,0.05l0.05,8.24c0.06,10.95,9.44,20.05,20.63,19.99l26.14-0.14
		c11.21-0.06,20.48-9.26,20.42-20.22l-0.08-13.73C341.26,501.63,332.88,501.67,332.91,507.15"/>
	<path class="st0" d="M492.5,513.6l-4.67,0.03l-6.54,0.04c-7.47,0.04-13.94,6.48-15.75,14.72l-42.94,0.23
		c-8.42-2.7-6.58-11.86-6.62-19.18l-0.24-43.89c-0.02-3.63-1.92-6.38-4.73-6.36c-3.72,0.02-5.59,2.79-5.57,6.42l0.26,47.54
		c0.06,10.99,3.87,25.58,17.89,25.51l42.01-0.23c0.05,9.16,7.53,17.36,15.93,17.31l6.54-0.04l4.67-0.03
		c9.32-0.05,16.73-8.33,16.68-17.49l-0.04-8.22C509.32,520.83,501.82,513.55,492.5,513.6 M501.01,536.42
		c0.04,6.41-4.59,10.08-10.18,10.11l-2.81,0.02l-3.72,0.02c-5.58,0.03-10.3-3.59-10.34-10l-0.02-4.57
		c-0.04-6.4,4.65-10.1,10.23-10.13l3.72-0.02l2.81-0.02c5.59-0.03,10.26,3.62,10.29,10.02L501.01,536.42z"/>
	<path class="st0" d="M386.99,503.21c-1.85,0.01-4.64,1.85-4.63,4.6l0.24,43.87c0.03,4.6-4.65,6.45-8.38,6.47
		c-4.65,1.86-1.81,10.06,3.78,8.19c9.33-0.96,14.9-9.19,14.86-17.46l-0.22-41.13C392.62,505,389.81,503.19,386.99,503.21"/>
	<path class="st0" d="M297.36,494.55c2.81-0.02,4.65-1.86,4.63-5.53c-0.01-2.73-1.88-4.54-4.69-4.53c-2.82,0.02-4.65,1.85-4.63,4.58
		C292.69,492.75,294.54,494.57,297.36,494.55"/>
	<path class="st0" d="M649.96,468.86c2.8-0.02,5.6-2.8,5.58-5.53c-0.01-2.72-2.85-5.47-5.64-5.45s-4.62,2.79-4.6,5.51
		C645.31,466.12,647.16,468.87,649.96,468.86"/>
	<path class="st0" d="M635.04,468.94c1.84-0.01,4.67-2.79,4.65-5.53c-0.01-2.72-2.87-5.47-4.71-5.46c-2.8,0.02-4.65,2.79-4.63,5.51
		C630.36,466.2,632.23,468.96,635.04,468.94"/>
	<path class="st0" d="M313.23,494.47c1.85-0.01,4.66-1.86,4.64-5.53c-0.01-2.73-2.84-4.54-4.69-4.53c-2.81,0.02-5.6,1.85-5.59,4.58
		C307.6,492.67,310.42,494.48,313.23,494.47"/>
	<path class="st0" d="M539.27,530.71c6.52-0.04,6.49-5.51,0.87-5.48l-0.9,0v-0.01l-0.94,0.01v0.01l-1.89,0.01
		c-2.8-1.81-3.74-2.73-0.03-4.57l1.89-0.01l0.94-0.01c4.64,0.87,4.61-4.6-0.03-4.58l-0.94,0.01l-5.61,0.03
		c-4.67,0.03-6.5,4.61-4.62,9.17c-6.51,2.78-6.49,5.51,0.03,5.47l10.28-0.06L539.27,530.71z"/>
	<path class="st0" d="M536.33,510.61c0.94-0.01,0.94-0.91,1.89-0.92c0,0,0.94-0.01,0.93-0.93c0.89-0.92,1.81-1.83,1.8-3.66
		l-0.24-42.98c-0.01-1.82-0.93-2.72-1.84-3.64c-0.01-0.92-0.94-0.92-0.94-0.92l-1.89,0.01c-2.79,0.02-4.62,1.87-4.61,4.6l0.24,42.98
		C531.69,507.89,533.54,510.63,536.33,510.61"/>
	<path class="st0" d="M1019.55,474.15c-1.9,0.01-4.64,2.76-4.63,5.51l0.27,49.38c0.01,2.72,2.79,5.46,4.69,5.45
		c3.72-0.02,5.58-2.78,5.56-5.51l-0.27-49.38C1025.16,476.85,1023.27,474.13,1019.55,474.15"/>
	<path class="st0" d="M878.72,490.46l-22.4,0.12c-2.8,0.02-5.59,2.76-5.58,4.58c0.02,2.76,2.83,5.49,5.64,5.47l17.73-0.1
		c1.87-0.01,4.67,0.88,4.69,4.55l0.06,10.96c0.03,4.57-0.88,7.34-5.56,7.36l-27.06,0.15c-2.81,0.02-4.65,1.84-4.64,4.58
		c0.01,2.74,1.88,4.55,4.69,4.54l27.06-0.15c9.35-0.05,13.02-3.73,14.89-7.39l-0.12-21.03C888.1,499.54,885.24,490.42,878.72,490.46
		"/>
	<path class="st0" d="M824.88,544.7c-1.87,0.01-2.77,0.93-3.71,1.84c-0.91,0.93-0.91,1.83-0.9,3.66c0.01,0.94,0.01,1.84,0.94,3.68
		c0.94-0.01,1.86,0.91,3.73,0.9c2.83-0.02,5.6-1.88,5.58-4.64C830.49,546.49,827.71,544.69,824.88,544.7"/>
	<path class="st0" d="M1021.33,459.49l-3.75,0.02c-2.77-0.88-2.78-2.71-0.02-4.57c0.97-0.01,1.9,0.91,3.75,0.9
		c2.81-0.02,3.71-5.5-0.96-5.47l-6.56,0.04c-3.72,0.02-6.47,4.59-5.53,9.15c-4.67,2.77-4.65,5.53,0.95,5.5l12.14-0.07
		C1026.96,464.97,1027.88,459.46,1021.33,459.49"/>
	<path class="st0" d="M821.95,517.27l-0.07-12.79c-0.01-2.74-0.97-4.57-0.98-6.38c-2.82-4.57-9.34-1.79-8.35,6.43l0.06,10.07
		c0.02,3.66-0.91,5.48-2.77,7.33c-0.91,0.01-1.86,0.01-2.82,0.92l-0.91,0l-23.35,1.05l-0.01-0.92c-0.04-7.31-6.59-13.68-13.14-13.65
		l-6.51,0.04l-6.52,0.04c-7.5,0.04-13.04,6.49-13,13.79l0.01,0.92l-28,1.06c-1.88,0.01-2.79-0.89-3.73-1.81
		c-0.96,0.01-1.88-0.9-2.82-1.81c-0.01-0.92-0.96-1.82-1.89-2.73l-0.08-13.73c-0.05-10.05-9.36-9.1-9.3,0.98l0.06,11.87
		c0.02,2.75-1.87,4.61-4.65,6.45l0,0.91c-7.46,0.04-13.99,0.99-20.51,1.94c-9.36,0.05-8.49-15.52-8.52-20.98l-0.07-11.9
		c-0.04-8.23-7.57-13.65-15-13.61l-12.16,0.07c-7.44,0.04-13.03,5.54-12.98,13.76l0.07,11.9c0.04,8.22,5.69,13.68,13.13,13.64
		l11.21-0.06l-0.04-7.31l-1.85,0.01l-6.52,0.04c-4.69,0.03-9.37-3.61-9.4-8.19l-0.05-8.24c-0.02-4.56,4.62-8.25,9.31-8.28l6.52-0.04
		c4.65-0.03,9.35,3.62,9.37,8.17c0.07,11.89-2.6,39.35,13.28,39.27l24.26-0.13l-0.01-0.93c4.69-0.03,7.43-2.78,9.3-5.53
		c0.92-1.83,1.86-1.83,3.73-0.02c0.01,1.84,0.95,2.74,2.83,4.55c0.94-0.01,1.85,0.91,2.81,0.9l1.84-0.01l29.88-0.16l0.01,0.93
		c0.04,8.21,5.66,14.58,13.15,14.54l6.52-0.04l6.51-0.04c6.55-0.04,13.03-6.47,12.98-14.69l-0.01-1.85l24.26-1.04l2.82-0.02
		l1.87-0.01c4.66-0.93,7.45-4.59,9.28-9.19C821.02,520.95,821.96,519.12,821.95,517.27 M775.37,533.07c0.03,4.58-3.68,8.27-8.35,8.3
		l-3.74,0.02l-3.71,0.02c-4.68,0.03-8.44-3.63-8.47-8.2l-0.04-7.31c-0.03-5.5,3.7-9.17,8.37-9.2l3.71-0.02l3.74-0.02
		c4.66-0.03,8.41,3.61,8.44,9.1L775.37,533.07z"/>
	<path class="st0" d="M569.64,457.39c-1.84,0.01-4.65,3.7-4.63,8.26l0.37,67.65c0.01,0.92,0.01,1.84,0.96,1.83l0.04,7.33
		c0.03,6.39-4.6,10.99-11.15,11.03l-4.65,0.03c-5.62,0.03-10.31-4.52-10.35-10.91c0,0-0.01-0.91-0.91-1.82l-0.94-0.93
		c-2.81,0.02-6.53,0.04-6.52,2.8l0.02,3.65c0.03,5.47,2.83,10.06,6.6,12.77l0.94,0.89c2.8,0.9,5.58,2.73,8.39,2.71l12.14-0.07
		c8.42-0.05,14.88-7.39,14.83-16.55l-0.07-12.82l-0.01-2.74l-0.36-64.91C574.33,461.05,572.45,457.38,569.64,457.39"/>
	<path class="st0" d="M990.72,491.67c-9.37-4.51-21.48-0.79-30.81-0.74c-18.66,0.1-18.81-26.43-0.15-26.54l24.27-0.13
		c6.54-0.04,7.42-9.18-0.05-9.14l-26.14,0.14c-27.99,0.15-27.75,43.13,0.24,42.98l27.08-0.15c12.17,5.42,10.4,25.54-5.46,25.63
		l-57.84,0.32c-2.84-0.88-4.7-2.71-6.59-6.35l-0.33-60.35c-0.03-6.4-9.36-6.34-9.33,0.05l0.32,58.51
		c-0.9,8.24,2.89,18.29,20.61,16.34l55.06-0.3C1007.74,531.8,1006.62,499.82,990.72,491.67"/>
	<path class="st0" d="M592.98,457.27c-2.81,0.02-4.65,2.77-4.62,7.34l0.37,67.67c0.02,3.67,1.89,7.3,4.7,7.29
		c2.78-0.02,4.61-3.67,4.59-7.34l-0.37-67.67C597.63,459.99,595.77,457.25,592.98,457.27"/>
	<path class="st0" d="M693.31,545.42c-1.87,0.01-3.71,1.84-3.69,5.49c0.02,2.76,1.87,4.6,3.74,4.59c3.76-0.02,5.6-1.88,5.59-4.64
		C698.93,547.21,697.07,545.4,693.31,545.42"/>
	<path class="st0" d="M709.18,545.34c-2.8,0.02-4.65,1.84-4.63,5.5c0.02,2.76,1.89,4.6,4.69,4.58c0.94-0.01,1.85-0.01,2.81-0.94
		c0.92-0.93,1.82-1.85,1.81-3.69c-0.01-2.73-0.93-3.65-1.85-4.54C711.03,545.33,710.12,545.33,709.18,545.34"/>
	<path class="st0" d="M809.96,544.79c-0.91,0-1.85,0.01-2.81,0.93c-1.84,0.91-2.77,2.74-2.76,4.57c0.01,1.84,0.95,2.76,2.8,3.67
		c0.97,0.92,1.91,0.91,2.82,0.91c1.87-0.01,4.67-1.87,4.66-4.63C814.65,546.58,811.82,544.78,809.96,544.79"/>
	<path class="st1" d="M317.73,638.91c0.07,12.82-2.69,19.21-13.89,19.27c-12.13,0.07-14.94-6.3-15.01-19.12l-0.28-50.29l-12.14,0.07
		l0.28,50.29c0.04,8.21,0.08,14.61,4.76,20.1c4.71,7.29,12.2,10.91,22.45,10.85c10.28-0.06,16.78-3.75,21.41-11.09
		c4.64-5.53,4.6-11.94,4.56-20.15l-0.28-50.29l-12.15,0.07L317.73,638.91z"/>
	<path class="st1" d="M371.59,588.33l-6.54,0.04l-32.2,79.73l13.05-0.07l9.19-23.81l16.81-0.09l14.93-0.08l9.48,23.71l13.97-0.08
		l-33.09-79.37L371.59,588.33z M371.84,634.03l-12.11,0.07l11.94-30.22l-0.01-0.92l11.38,31.01L371.84,634.03z"/>
	<polygon class="st1" points="414.96,667.64 457.87,667.41 457.81,656.43 427.01,656.6 426.88,632.85 457.68,632.68 457.62,621.69 
		426.82,621.86 426.7,599 457.5,598.83 457.44,587.86 414.52,588.09 	"/>
	<path class="st1" d="M533.96,587.44l-6.52,0.04l-32.23,79.73l13.07-0.07l9.17-23.81l16.81-0.09l15.86-0.09l8.55,23.72l13.98-0.08
		l-33.06-79.37L533.96,587.44z M534.21,633.14l-13.06,0.07l12.9-30.23l-0.01-0.92l11.36,31.01L534.21,633.14z"/>
	<path class="st1" d="M613.34,597.06c9.33-0.05,17.75,3.56,22.45,10.84l14.93-0.08c-6.62-14.58-20.65-22.74-37.44-22.65
		c-11.18,0.06-21.43,3.77-29.8,12.05c-8.36,8.28-12.97,18.34-12.91,29.32c0.06,10.98,3.85,21.01,11.38,28.3
		c8.41,9.08,18.71,13.61,31.79,13.54c16.8-0.09,29.83-8.39,37.2-22.14L636,646.33c-4.63,6.41-13,10.11-22.33,10.16
		c-8.42,0.05-15.88-3.56-21.5-9.03c-5.64-4.52-9.4-12.75-9.44-20.98c-0.04-8.22,3.62-15.56,9.21-21.07
		C598.39,599.87,604.92,597.11,613.34,597.06"/>
	<path class="st1" d="M690.74,586.58l-6.55,0.04l-32.23,79.73l13.09-0.07l9.18-23.81l16.81-0.09l15.86-0.09l8.53,23.72l13.99-0.08
		l-33.09-79.37L690.74,586.58z M690.99,632.28l-12.12,0.07l11.96-30.22l-0.01-0.92l11.36,31.01L690.99,632.28z"/>
	<path class="st1" d="M767.26,586.16l-7.44,0.04l-27.09,0.15l0.44,79.55l24.27-0.13c2.82-0.02,6.52-0.04,10.25-0.99
		c6.51-0.92,12.11-1.88,17.7-5.56c11.14-8.32,16.7-20.2,16.63-33C801.91,605.19,787.82,589.72,767.26,586.16 M767.63,653.83
		c-2.81,0.92-5.59,0.94-8.41,0.95l-13.98,0.08l-0.32-57.61l12.14-0.07c3.72-0.02,6.52-0.04,10.26,0.86
		c14.01,2.66,22.48,13.6,22.56,28.23C789.97,640.9,781.61,650.98,767.63,653.83"/>
	<polygon class="st1" points="813.43,665.46 856.36,665.23 856.3,654.25 825.47,654.42 825.34,630.67 856.17,630.5 856.11,619.51 
		825.28,619.68 825.15,596.82 855.98,596.65 855.92,585.68 812.99,585.91 	"/>
	<polygon class="st1" points="914.11,646.62 889.5,585.49 870.83,585.59 871.26,665.14 883.42,665.08 882.11,595.59 909.54,664.93 
		917.94,664.89 944.62,595.25 944.07,664.75 956.21,664.68 955.78,585.13 938.03,585.22 	"/>
	<polygon class="st1" points="1009.88,584.83 991.44,623.35 973.5,585.03 960.41,585.1 985.91,635.25 986.07,664.52 998.21,664.45 
		998.05,635.19 1023.87,584.76 	"/>
	<path class="st2" d="M314.27,418.92l-79.39,0.43c0,0-15.87,0.09-15.79,15.63l0.41,74.15C238.6,468.76,272.34,436.4,314.27,418.92"
		/>
</g>
</svg>
