<?xml version="1.0" encoding="utf-8"?>
<!-- Generator: Adobe Illustrator 28.0.0, SVG Export Plug-In . SVG Version: 6.00 Build 0)  -->
<svg version="1.1" id="Layer_1" xmlns="http://www.w3.org/2000/svg" xmlns:xlink="http://www.w3.org/1999/xlink" x="0px" y="0px"
	 viewBox="0 0 1080 1080" style="enable-background:new 0 0 1080 1080;" xml:space="preserve">
<style type="text/css">
	.st0{fill:#868686;}
	.st1{fill:#1D1D1B;}
	.st2{fill:#BD9E56;}
</style>
<g>
	<g>
		<path class="st0" d="M185.5,426.6c-3.7,0-6.2,3.7-6.2,9.8v93.1c0,4.9,2.5,9.8,6.2,9.8c3.8,0,7.5-4.9,7.5-9.8v-93.1
			C193.1,430.2,189.3,426.6,185.5,426.6z"/>
		<path class="st0" d="M151.9,489v12.2c0,12.2-8.8,22-17.5,22h-33.7c-8.7,0-16.3-9.8-16.3-22v-4.9c0-7.3-11.2-7.3-11.2,0v11
			c0,14.7,12.5,26.9,27.5,26.9h35c15,0,27.5-12.2,27.5-26.9V489C163.1,481.7,151.9,481.7,151.9,489z"/>
		<path class="st0" d="M365.5,498.8h-6.3h-8.8c-10,0-18.7,8.6-21.2,19.6h-57.5c-11.2-3.7-8.7-15.9-8.7-25.7v-58.8
			c0-4.9-2.5-8.6-6.3-8.6c-5,0-7.5,3.7-7.5,8.6v63.7c0,14.7,5,34.3,23.8,34.3h56.3c0,12.3,9.9,23.3,21.2,23.3h8.8h6.3
			c12.5,0,22.5-11,22.5-23.3v-11C387.9,508.6,378,498.8,365.5,498.8z M376.7,529.4c0,8.6-6.2,13.5-13.7,13.5h-3.8h-5
			c-7.5,0-13.8-4.9-13.8-13.5v-6.1c0-8.6,6.3-13.5,13.8-13.5h5h3.8c7.5,0,13.7,4.9,13.7,13.5V529.4z"/>
		<path class="st0" d="M224.3,484.1c-2.5,0-6.2,2.4-6.2,6.1V549c0,6.2-6.3,8.6-11.3,8.6c-6.2,2.4-2.5,13.5,5,11
			c12.5-1.2,20-12.2,20-23.3v-55.1C231.8,486.5,228.1,484.1,224.3,484.1z"/>
		<path class="st0" d="M104.3,471.9c3.8,0,6.2-2.4,6.2-7.4c0-3.7-2.5-6.1-6.2-6.1c-3.8,0-6.2,2.4-6.2,6.1
			C98.1,469.4,100.6,471.9,104.3,471.9z"/>
		<path class="st0" d="M576.6,440c3.7,0,7.5-3.7,7.5-7.4c0-3.7-3.8-7.3-7.5-7.3c-3.7,0-6.2,3.7-6.2,7.3
			C570.4,436.3,572.9,440,576.6,440z"/>
		<path class="st0" d="M556.6,440c2.5,0,6.3-3.7,6.3-7.4c0-3.7-3.8-7.3-6.3-7.3c-3.8,0-6.2,3.7-6.2,7.3
			C550.4,436.3,552.9,440,556.6,440z"/>
		<path class="st0" d="M125.6,471.9c2.5,0,6.3-2.4,6.3-7.4c0-3.7-3.8-6.1-6.3-6.1c-3.8,0-7.5,2.4-7.5,6.1
			C118.1,469.4,121.8,471.9,125.6,471.9z"/>
		<path class="st0" d="M428,522c8.7,0,8.7-7.3,1.2-7.3H428v0h-1.3v0h-2.5c-3.7-2.5-5-3.7,0-6.1h2.5h1.3c6.2,1.2,6.2-6.1,0-6.1h-1.3
			h-7.5c-6.2,0-8.7,6.1-6.2,12.2c-8.7,3.7-8.7,7.3,0,7.3h13.8H428z"/>
		<path class="st0" d="M424.2,495.1c1.3,0,1.3-1.2,2.5-1.2c0,0,1.3,0,1.3-1.2c1.2-1.2,2.4-2.4,2.4-4.9v-57.5c0-2.4-1.2-3.7-2.4-4.9
			c0-1.2-1.3-1.2-1.3-1.2h-2.5c-3.7,0-6.2,2.5-6.2,6.1v57.5C418,491.4,420.4,495.1,424.2,495.1z"/>
		<path class="st0" d="M1071.4,449.8c-2.5,0-6.2,3.7-6.2,7.3v66.1c0,3.7,3.7,7.3,6.2,7.3c5,0,7.5-3.7,7.5-7.3v-66.1
			C1078.9,453.5,1076.4,449.8,1071.4,449.8z"/>
		<path class="st0" d="M882.7,470.6h-30c-3.8,0-7.5,3.7-7.5,6.1c0,3.7,3.8,7.4,7.5,7.4h23.7c2.5,0,6.2,1.2,6.2,6.1v14.7
			c0,6.1-1.2,9.8-7.5,9.8H839c-3.8,0-6.2,2.4-6.2,6.1c0,3.7,2.5,6.1,6.2,6.1h36.2c12.5,0,17.5-4.9,20-9.8V489
			C895.2,482.9,891.5,470.6,882.7,470.6z"/>
		<path class="st0" d="M810.3,542.9c-2.5,0-3.7,1.2-5,2.4c-1.2,1.2-1.2,2.4-1.2,4.9c0,1.3,0,2.5,1.2,4.9c1.3,0,2.5,1.2,5,1.2
			c3.8,0,7.5-2.5,7.5-6.2C817.8,545.3,814,542.9,810.3,542.9z"/>
		<path class="st0" d="M1073.9,430.2h-5c-3.7-1.2-3.7-3.7,0-6.1c1.3,0,2.5,1.2,5,1.2c3.8,0,5-7.3-1.2-7.3h-8.8
			c-5,0-8.7,6.1-7.5,12.2c-6.3,3.7-6.3,7.4,1.2,7.4h16.2C1081.4,437.6,1082.7,430.2,1073.9,430.2z"/>
		<path class="st0" d="M806.5,506.1V489c0-3.7-1.3-6.1-1.3-8.6c-3.7-6.1-12.5-2.5-11.2,8.6v13.5c0,4.9-1.3,7.3-3.8,9.8
			c-1.2,0-2.5,0-3.8,1.2h-1.2l-31.3,1.2v-1.2c0-9.8-8.7-18.4-17.5-18.4h-8.7h-8.7c-10,0-17.5,8.6-17.5,18.4v1.2l-37.5,1.2
			c-2.5,0-3.7-1.2-5-2.4c-1.3,0-2.5-1.2-3.8-2.5c0-1.2-1.3-2.4-2.5-3.7V489c0-13.5-12.5-12.3-12.5,1.2v15.9c0,3.7-2.5,6.2-6.3,8.6
			v1.2c-10,0-18.7,1.2-27.5,2.5c-12.5,0-11.3-20.8-11.3-28.2v-15.9c0-11-10-18.3-20-18.3h-16.3c-10,0-17.5,7.3-17.5,18.3v15.9
			c0,11,7.5,18.4,17.5,18.4h15v-9.8h-2.5h-8.7c-6.3,0-12.5-4.9-12.5-11v-11c0-6.1,6.2-11,12.5-11h8.7c6.2,0,12.5,4.9,12.5,11
			c0,15.9-3.8,52.7,17.5,52.7h32.5v-1.2c6.3,0,10-3.7,12.5-7.3c1.3-2.4,2.5-2.4,5,0c0,2.5,1.3,3.7,3.8,6.1c1.3,0,2.5,1.2,3.8,1.2
			h2.5h40v1.2c0,11,7.5,19.6,17.5,19.6h8.7h8.7c8.8,0,17.5-8.6,17.5-19.6v-2.5l32.5-1.2h3.8h2.5c6.2-1.2,10-6.1,12.5-12.2
			C805.3,511,806.5,508.6,806.5,506.1z M744,526.9c0,6.1-5,11-11.2,11h-5h-5c-6.3,0-11.3-4.9-11.3-11v-9.8c0-7.4,5-12.2,11.3-12.2h5
			h5c6.2,0,11.2,4.9,11.2,12.2V526.9z"/>
		<path class="st0" d="M469.2,424.1c-2.5,0-6.3,4.9-6.3,11v90.6c0,1.2,0,2.5,1.3,2.5v9.8c0,8.6-6.2,14.7-15,14.7H443
			c-7.5,0-13.8-6.1-13.8-14.7c0,0,0-1.2-1.2-2.4l-1.3-1.2c-3.8,0-8.7,0-8.7,3.7v4.9c0,7.3,3.7,13.5,8.7,17.1l1.3,1.2
			c3.7,1.2,7.5,3.7,11.2,3.7h16.3c11.3,0,20-9.8,20-22v-17.2V522v-86.9C475.4,429,472.9,424.1,469.2,424.1z"/>
		<path class="st0" d="M1032.7,473.1c-12.5-6.1-28.8-1.2-41.2-1.2c-25,0-25-35.5,0-35.5h32.5c8.8,0,10-12.2,0-12.2h-35
			c-37.5,0-37.5,57.5,0,57.5h36.3c16.2,7.3,13.7,34.3-7.5,34.3h-77.4c-3.8-1.2-6.3-3.7-8.8-8.6v-80.8c0-8.6-12.5-8.6-12.5,0v78.3
			c-1.3,11,3.7,24.5,27.5,22h73.7C1055.2,526.9,1053.9,484.1,1032.7,473.1z"/>
		<path class="st0" d="M500.4,424.1c-3.8,0-6.2,3.7-6.2,9.8v90.6c0,4.9,2.5,9.8,6.2,9.8c3.7,0,6.2-4.9,6.2-9.8v-90.6
			C506.6,427.8,504.1,424.1,500.4,424.1z"/>
		<path class="st0" d="M634.1,542.9c-2.5,0-5,2.4-5,7.3c0,3.7,2.5,6.2,5,6.2c5,0,7.5-2.5,7.5-6.2
			C641.6,545.3,639.1,542.9,634.1,542.9z"/>
		<path class="st0" d="M655.3,542.9c-3.8,0-6.2,2.4-6.2,7.3c0,3.7,2.5,6.2,6.2,6.2c1.3,0,2.5,0,3.8-1.2c1.2-1.2,2.5-2.5,2.5-4.9
			c0-3.6-1.2-4.9-2.5-6.1C657.8,542.9,656.6,542.9,655.3,542.9z"/>
		<path class="st0" d="M790.3,542.9c-1.2,0-2.5,0-3.8,1.2c-2.5,1.2-3.7,3.7-3.7,6.1c0,2.5,1.3,3.7,3.7,4.9c1.3,1.2,2.6,1.2,3.8,1.2
			c2.5,0,6.3-2.5,6.3-6.2C796.5,545.3,792.8,542.9,790.3,542.9z"/>
	</g>
	<g>
		<path class="st1" d="M130.6,665.3c0,17.2-3.7,25.7-18.7,25.7c-16.2,0-20-8.5-20-25.7V598H75.6v67.3c0,11,0,19.6,6.2,26.9
			c6.3,9.8,16.3,14.7,30,14.7c13.8,0,22.5-4.9,28.7-14.7c6.2-7.4,6.2-15.9,6.2-26.9V598h-16.3V665.3z"/>
		<path class="st1" d="M203,598h-8.8l-43.7,106.5h17.5l12.5-31.8H203h20l12.5,31.8h18.7L210.5,598H203z M203,659.1h-16.2l16.2-40.4
			v-1.2l15,41.6H203z"/>
		<polygon class="st1" points="260.5,704.5 318,704.5 318,689.8 276.8,689.8 276.8,658 318,658 318,643.3 276.8,643.3 276.8,612.6 
			318,612.6 318,598 260.5,598 		"/>
		<path class="st1" d="M420.4,598h-8.7L368,704.5h17.5l12.5-31.8h22.5h21.2l11.3,31.8h18.7L428,598H420.4z M420.4,659.1H403
			l17.5-40.4v-1.2l15,41.6H420.4z"/>
		<path class="st1" d="M526.7,611.4c12.5,0,23.7,4.9,30,14.7h20c-8.8-19.6-27.5-30.6-50-30.6c-15,0-28.7,4.9-40,15.9
			c-11.2,11-17.5,24.5-17.5,39.2c0,14.7,5,28.2,15,38c11.2,12.2,25,18.4,42.5,18.4c22.5,0,40-11,50-29.4h-20
			c-6.2,8.6-17.5,13.4-30,13.4c-11.3,0-21.2-4.9-28.7-12.2c-7.5-6.1-12.5-17.1-12.5-28.2c0-11,5-20.8,12.5-28.1
			C506.6,615.1,515.4,611.4,526.7,611.4z"/>
		<path class="st1" d="M630.4,598h-8.8l-43.7,106.5h17.5l12.5-31.8h22.5h21.2l11.2,31.8h18.7L637.8,598H630.4z M630.4,659.1h-16.2
			l16.2-40.4v-1.2l15,41.6H630.4z"/>
		<path class="st1" d="M732.8,598h-10h-36.3v106.5h32.5c3.8,0,8.7,0,13.7-1.2c8.7-1.2,16.2-2.4,23.7-7.3c15-11,22.5-26.9,22.5-44.1
			C779.1,623.7,760.3,602.9,732.8,598z M732.8,688.6c-3.8,1.2-7.5,1.2-11.3,1.2h-18.7v-77.1h16.2c5,0,8.7,0,13.7,1.2
			c18.7,3.7,30,18.4,30,38C762.8,671.4,751.5,684.8,732.8,688.6z"/>
		<polygon class="st1" points="794,704.5 851.5,704.5 851.5,689.8 810.2,689.8 810.2,658 851.5,658 851.5,643.3 810.2,643.3 
			810.2,612.6 851.5,612.6 851.5,598 794,598 		"/>
		<polygon class="st1" points="929,680 896.5,598 871.5,598 871.5,704.5 887.7,704.5 886.5,611.4 922.7,704.5 934,704.5 
			970.2,611.4 969,704.5 985.2,704.5 985.2,598 961.4,598 		"/>
		<polygon class="st1" points="1057.6,598 1032.7,649.4 1008.9,598 991.4,598 1025.2,665.3 1025.2,704.5 1041.4,704.5 1041.4,665.3 
			1076.4,598 		"/>
	</g>
	<path class="st2" d="M127.5,370.7H21.2c0,0-21.2,0-21.2,20.8v99.3C25.9,436.9,71.3,393.8,127.5,370.7"/>
</g>
</svg>
