<svg width="22" height="24" viewBox="0 0 22 24" fill="none" xmlns="http://www.w3.org/2000/svg">
<path fill-rule="evenodd" clip-rule="evenodd" d="M5.38418 5.45182V9.16285H6.75627V5.45182L8.40679 0H7.01936L6.08319 3.59828L5.10918 0H3.66537C3.80809 0.419016 3.95364 0.839062 4.09923 1.25922C4.24876 1.69072 4.39832 2.12234 4.54489 2.55307C4.98505 3.83093 5.25978 4.79436 5.38418 5.45182ZM15.4114 8.41807C14.9189 8.98236 14.4493 9.25657 13.9981 9.25657C13.5997 9.25657 13.3253 9.09511 13.2009 8.74918C13.1326 8.54247 13.0913 8.21612 13.0913 7.73388V2.33447H14.3247V7.36174C14.3247 7.65156 14.3247 7.80217 14.3398 7.84266C14.3668 8.03455 14.4642 8.13248 14.6299 8.13248C14.8773 8.13248 15.1372 7.94086 15.4114 7.55337V2.33447H16.6488V9.16287H15.4114V8.41807ZM18.6606 10.1599C19.7215 10.2782 20.6028 11.073 20.8508 12.1505C21.2008 13.6723 21.201 15.3321 21.2013 16.9009L21.2013 16.9396C21.2013 18.5194 21.1994 20.1941 20.8466 21.7284C20.5989 22.8056 19.7175 23.6005 18.6572 23.719C16.1446 23.9998 13.6024 24.0012 11.0705 23.9998C8.53886 24.0009 5.9961 23.9998 3.48432 23.719C2.4235 23.6005 1.54265 22.8056 1.29491 21.7284C0.941833 20.1941 0.941833 18.5194 0.941833 16.9396C0.941833 15.3597 0.946068 13.6849 1.29915 12.1505C1.54689 11.0733 2.42773 10.2785 3.48803 10.1599C6.00034 9.87933 8.54309 9.87801 11.075 9.87933C13.6058 9.87801 16.1491 9.87933 18.6606 10.1599ZM5.25422 13.3397H6.72053V12.0634H2.45261V13.3397H3.89219V21.1313H5.25422V13.3397ZM9.19473 21.1315H10.4199L10.4197 14.3749H9.19446V19.5387C8.9229 19.9228 8.66617 20.112 8.42055 20.112C8.25645 20.112 8.16354 20.0157 8.13417 19.8256C8.12305 19.7854 8.12305 19.6364 8.12305 19.3495V14.3749H6.89892V19.7176C6.89892 20.1946 6.94021 20.518 7.00691 20.7224C7.12945 21.0646 7.40101 21.2244 7.79564 21.2244C8.24586 21.2244 8.70799 20.9524 9.19473 20.3944V21.1315ZM14.9472 20.4651C15.029 20.1787 15.0711 19.7285 15.0711 19.1036V16.4126C15.0711 15.7729 15.0295 15.3261 14.9472 15.0543C14.7839 14.5485 14.4562 14.292 13.9692 14.292C13.519 14.292 13.0992 14.5382 12.7038 15.0249V12.0634H11.4797V21.1318H12.7038V20.477C13.1133 20.9825 13.5336 21.2244 13.9692 21.2244C14.4562 21.2244 14.7836 20.9677 14.9472 20.4651ZM17.243 17.9763H19.6915H19.6921V16.5775C19.6921 15.8552 19.5695 15.3269 19.3131 14.9855C18.97 14.5231 18.483 14.2928 17.8687 14.2928C17.2433 14.2928 16.756 14.5231 16.4024 14.9855C16.1422 15.3269 16.0239 15.8552 16.0239 16.5775V18.944C16.0239 19.6621 16.1573 20.1946 16.417 20.5328C16.7708 20.9942 17.2584 21.2247 17.8989 21.2247C18.5384 21.2247 19.0407 20.9828 19.3798 20.4921C19.5282 20.2756 19.6246 20.0297 19.6656 19.7587C19.6767 19.6364 19.6918 19.3646 19.6918 18.9699V18.7913H18.4428C18.4428 19.2822 18.4267 19.5543 18.4153 19.6208C18.3454 19.9479 18.1699 20.1117 17.8685 20.1117C17.4476 20.1117 17.243 19.7994 17.243 19.174V17.9763ZM17.2433 16.3316C17.2433 15.707 17.4484 15.3944 17.8576 15.3944C18.2625 15.3944 18.4671 15.707 18.4674 16.3316V16.9568H17.2433V16.3316ZM13.3142 15.3944C13.1125 15.3944 12.9081 15.4897 12.7035 15.6922V19.8103C12.9079 20.0152 13.1125 20.112 13.3142 20.112C13.6672 20.112 13.8467 19.8103 13.8467 19.2002V16.3163C13.8467 15.707 13.6672 15.3944 13.3142 15.3944ZM11.689 8.55755C11.3473 9.02338 10.8656 9.25656 10.2458 9.25656C9.62905 9.25656 9.14734 9.02338 8.80511 8.55755C8.54229 8.21585 8.41789 7.6775 8.41789 6.95176V4.56066C8.41789 3.83068 8.54229 3.2971 8.80511 2.95222C9.14761 2.48507 9.62905 2.25189 10.2458 2.25189C10.8659 2.25189 11.3473 2.48507 11.689 2.95222C11.9489 3.2971 12.0731 3.83068 12.0731 4.56066V6.95176C12.0731 7.6775 11.9487 8.21585 11.689 8.55755ZM10.2458 3.36591C9.84688 3.36591 9.65526 3.68088 9.65526 4.31266V7.18494C9.65526 7.81672 9.84688 8.13274 10.2458 8.13274C10.6446 8.13274 10.8357 7.81672 10.8357 7.18494V4.31266C10.8357 3.68061 10.6446 3.36591 10.2458 3.36591Z" fill="white"/>
</svg>
