<?xml version="1.0" encoding="UTF-8"?>
<svg width="50px" height="50px" viewBox="0 0 50 50" version="1.1" xmlns="http://www.w3.org/2000/svg" xmlns:xlink="http://www.w3.org/1999/xlink">
    <title>download</title>
    <defs>
        <filter id="filter-1">
            <feColorMatrix in="SourceGraphic" type="matrix" values="0 0 0 0 1.000000 0 0 0 0 1.000000 0 0 0 0 1.000000 0 0 0 1.000000 0"></feColorMatrix>
        </filter>
    </defs>
    <g id="Page-1" stroke="none" stroke-width="1" fill="none" fill-rule="evenodd">
        <g id="01-ADPolice---Homepage" transform="translate(-1352.000000, -846.000000)">
            <g id="download" transform="translate(1352.000000, 846.000000)">
                <path d="M8,0 L42,0 C46,0 50,4 50,8 L50,50 L0,50 L0,8 C0,4 4,0 8,0 Z" id="Path" fill="#C2002F" fill-rule="nonzero"></path>
                <path d="M25,0 L42,0 C46,0 50,4 50,8 L50,50 L0,50 L0,25 C0,11 11,0 25,0 Z" id="Path" fill="#70001B" fill-rule="nonzero"></path>
                <g filter="url(#filter-1)" id="messages-bubble-typing-1">
                    <g transform="translate(10.000000, 10.000000)">
                        <path d="M0.928097561,30 C0.681014634,30 0.449912195,29.9025 0.275356098,29.725 C1.31318567e-15,29.445 -0.0725268293,29.0175 0.0946536585,28.66 L3.67305366,21.01875 C2.47574634,18.89125 1.84636098,16.47875 1.84881951,14.02375 C1.85988293,6.29125 8.05539512,0 15.6596488,0 L15.7026732,0 C18.2865951,0 20.8127415,0.73375 23.0069854,2.12125 C26.144078,4.105 28.3334049,7.2125 29.1717659,10.87125 C30.0101268,14.53 29.396722,18.30125 27.4458732,21.49 C25.4950244,24.68 22.4390634,26.90625 18.8422244,27.75875 C17.8010341,28.00625 16.7364878,28.13125 15.6780878,28.13125 L15.6780878,28.13125 C13.2883902,28.13125 10.9281951,27.48875 8.83720976,26.27 L1.32392195,29.91 C1.19976585,29.96875 1.06331707,30 0.928097561,30 Z M15.6596488,1.875 C9.07077073,1.875 3.7025561,7.32625 3.69272195,14.02625 C3.68903415,16.3075 4.31473171,18.5375 5.49974634,20.47375 C5.66692683,20.7475 5.68536585,21.0825 5.54891707,21.3725 L2.8764878,27.08 L8.48932683,24.36125 C8.61102439,24.30125 8.74870244,24.27 8.88515122,24.27 C9.05724878,24.27 9.2268878,24.31875 9.37317073,24.4125 C11.2797659,25.61875 13.4604878,26.255 15.6793171,26.255 C16.5963512,26.255 17.5195317,26.14625 18.4230439,25.9325 C21.5404683,25.19375 24.1883122,23.26375 25.8797854,20.5 C27.5700293,17.735 28.1010732,14.46625 27.3745756,11.29625 C26.648078,8.12625 24.7500878,5.4325 22.0321756,3.71375 C20.1317268,2.51125 17.9424,1.875 15.7026732,1.875 C15.6977561,1.875 15.6596488,1.875 15.6596488,1.875 Z" id="Shape" fill="#3F3E45" fill-rule="nonzero"></path>
                        <ellipse id="Oval" fill="#3F3E45" fill-rule="nonzero" cx="10.1463805" cy="14.0625" rx="1.38292683" ry="1.40625"></ellipse>
                        <path d="M15.6793171,15.46875 C14.9171707,15.46875 14.2963902,14.8375 14.2963902,14.0625 C14.2963902,13.31625 14.8704585,12.7025 15.605561,12.6625 C15.6067902,12.6625 15.6178537,12.66 15.6276878,12.66 C15.6448976,12.65875 15.6645659,12.6575 15.6793171,12.6575 C16.4414634,12.6575 17.0622439,13.28875 17.0622439,14.06375 C17.0622439,14.83875 16.4414634,15.46875 15.6793171,15.46875 Z" id="Path" fill="#3F3E45" fill-rule="nonzero"></path>
                        <ellipse id="Oval" fill="#3F3E45" fill-rule="nonzero" cx="21.2110244" cy="14.0625" rx="1.38292683" ry="1.40625"></ellipse>
                    </g>
                </g>
            </g>
        </g>
    </g>
</svg>