<?xml version="1.0" encoding="utf-8"?>
<!-- Generator: Adobe Illustrator 28.0.0, SVG Export Plug-In . SVG Version: 6.00 Build 0)  -->
<svg version="1.1" id="Layer_1" xmlns="http://www.w3.org/2000/svg" xmlns:xlink="http://www.w3.org/1999/xlink" x="0px" y="0px"
	 viewBox="0 0 1080 1080" style="enable-background:new 0 0 1080 1080;" xml:space="preserve">
<style type="text/css">
	.st0{fill:#162F59;}
	.st1{fill:#D1BE7E;}
</style>
<g>
	<path class="st0" d="M364.2,320.9h54.4v54.4c0,14-11.3,25.3-25.3,25.3h-29.1c-14,0-25.3-11.3-25.3-25.3v-29.1
		C338.9,332.3,350.2,320.9,364.2,320.9"/>
	<path class="st0" d="M443.9,241.2h54.4v54.4c0,14-11.3,25.3-25.3,25.3h-54.4v-54.4C418.6,252.6,429.9,241.2,443.9,241.2"/>
	<path class="st0" d="M523.6,161.5h29.1c14,0,25.3,11.3,25.3,25.3v54.4h-79.7v-54.4C498.3,172.9,509.6,161.5,523.6,161.5"/>
	<path class="st0" d="M578,241.2h54.4c14,0,25.3,11.3,25.3,25.3v29.1c0,14-11.3,25.3-25.3,25.3h-29.1c-14,0-25.3-11.3-25.3-25.3
		V241.2z"/>
	<path class="st1" d="M666.9,365.2c0-19.2,15.5-34.7,34.7-34.7c19.1,0,34.7,15.5,34.7,34.7c0,19.2-15.5,34.7-34.7,34.7
		C682.4,399.8,666.9,384.3,666.9,365.2"/>
	<path class="st1" d="M584.4,450.6c0-19.2,15.5-34.7,34.7-34.7c19.1,0,34.7,15.5,34.7,34.7c0,19.2-15.5,34.7-34.7,34.7
		C599.9,485.2,584.4,469.7,584.4,450.6"/>
	<path class="st1" d="M501.6,531.2c0-19.2,15.5-34.7,34.7-34.7c19.1,0,34.7,15.5,34.7,34.7c0,19.2-15.5,34.7-34.7,34.7
		C517.1,565.9,501.6,550.4,501.6,531.2"/>
	<path class="st1" d="M417.3,450.6c0-19.2,15.5-34.7,34.7-34.7c19.1,0,34.7,15.5,34.7,34.7c0,19.2-15.5,34.7-34.7,34.7
		C432.8,485.2,417.3,469.7,417.3,450.6"/>
	<path class="st0" d="M106.3,663.1v100.3H84v-13c-7.9,9.6-19.5,14.3-33.3,14.3C21.4,764.7,0,744.4,0,713.2
		C0,682.1,21.4,662,50.7,662c12.8,0,24,4.3,32.1,13.3v-12.2H106.3z M83.2,713.2c0-19.2-12.8-31.4-29.9-31.4
		c-16.9,0-29.7,12.2-29.7,31.4c0,19.2,12.8,31.4,29.7,31.4C70.5,744.6,83.2,732.4,83.2,713.2"/>
	<path class="st0" d="M187.7,661.9v22.4c-2.1-0.4-3.8-0.6-5.4-0.6c-17.8,0-29.1,10.5-29.1,31v48.7h-23.5V663.1H152v14.7
		C158.7,667.2,171,661.9,187.7,661.9"/>
	<path class="st0" d="M306.6,713.2c0,31.2-21.6,51.5-50.9,51.5c-13.7,0-25.4-4.7-33.3-14.3v13h-22.4V624h23.5v51.3
		c8.1-9,19.4-13.3,32.1-13.3C285,662,306.6,682.1,306.6,713.2 M282.7,713.2c0-19.2-12.8-31.4-29.7-31.4c-16.9,0-29.9,12.2-29.9,31.4
		c0,19.2,13,31.4,29.9,31.4C270,744.6,282.7,732.4,282.7,713.2"/>
	<path class="st0" d="M318.2,632.4c0-7.9,6.4-14.1,15-14.1c8.6,0,15,5.8,15,13.5c0,8.3-6.2,14.7-15,14.7
		C324.6,646.5,318.2,640.3,318.2,632.4 M321.4,663.1h23.5v100.3h-23.5V663.1z"/>
	<path class="st0" d="M424.6,758c-5.6,4.5-14.1,6.8-22.5,6.8c-22,0-34.6-11.6-34.6-33.8v-90h23.5v22.9h26.9v18.8h-26.9v47.7
		c0,9.8,5.1,15,13.9,15c4.9,0,9.6-1.3,13.2-4.1L424.6,758z"/>
	<path class="st0" d="M494.5,661.9v22.4c-2.1-0.4-3.8-0.6-5.4-0.6c-17.8,0-29.1,10.5-29.1,31v48.7h-23.5V663.1h22.4v14.7
		C465.5,667.2,477.7,661.9,494.5,661.9"/>
	<path class="st0" d="M604,663.1v100.3h-22.4v-13c-7.9,9.6-19.5,14.3-33.3,14.3c-29.3,0-50.7-20.3-50.7-51.5
		c0-31.2,21.4-51.3,50.7-51.3c12.8,0,24,4.3,32.1,13.3v-12.2H604z M580.9,713.2c0-19.2-12.8-31.4-29.9-31.4
		c-16.9,0-29.7,12.2-29.7,31.4c0,19.2,12.8,31.4,29.7,31.4C568.1,744.6,580.9,732.4,580.9,713.2"/>
	<path class="st0" d="M683.6,758c-5.6,4.5-14.1,6.8-22.5,6.8c-22,0-34.6-11.6-34.6-33.8v-90H650v22.9h26.9v18.8H650v47.7
		c0,9.8,5.1,15,13.9,15c4.9,0,9.6-1.3,13.2-4.1L683.6,758z"/>
	<path class="st0" d="M767,733.9l12.4,14.5c-8.8,10.7-22.9,16.3-40.2,16.3c-33.6,0-55.4-21.6-55.4-51.5c0-29.9,21.8-51.3,51.7-51.3
		c28,0,50.5,18.8,50.7,50.2l-76.8,15c4.9,11.5,15.8,17.7,30.4,17.7C751.1,744.8,759.7,741.2,767,733.9 M706.5,711.9v0.2l56.7-10.9
		c-3.2-12.2-13.7-20.5-27.8-20.5C718.4,680.7,706.5,692.8,706.5,711.9"/>
	<path class="st0" d="M919.2,690.5v72.9h-24.4v-33.8h-68.4v33.8h-24.1v-72.9c0-39.5,23.5-60.5,58.4-60.5S919.2,651.1,919.2,690.5
		 M894.8,709.1v-20.9c0-25-13.3-36.8-34.2-36.8c-20.8,0-34.2,11.8-34.2,36.8v20.9H894.8z"/>
	<path class="st0" d="M945.9,631.9h57.5c42.7,0,71.8,26.3,71.8,65.7c0,39.5-29.1,65.8-71.8,65.8h-57.5V631.9z M1002.2,742.7
		c29.3,0,48.3-17.8,48.3-45.1c0-27.2-19-45.1-48.3-45.1h-31.9v90.2H1002.2z"/>
	<path class="st0" d="M55.2,839.3h-2.8c-4.4,0-8.1-1.6-11.2-4.6c-2.3,3.4-5.8,5.2-10.3,5.2c-7.5,0-12.8-5.8-12.8-13.2
		c0-2.5,0.5-4.7,1.6-6.6h-4.6c-4.2,0-6.9,3.7-6.9,9.9v18.7H1.8v-20c0-9.1,4.9-15,13.3-15h15.8c5.7,0,10.3,3.2,11.7,8.1
		c2.6,8.9,5,11.1,9.8,11.1h2.8V839.3z M37,826.9c0-4.2-2.5-7.5-6.4-7.5c-3.6,0-6,3.1-6,7.2c0,4.2,2.7,7.5,6.4,7.5
		C34.5,834.1,37,831.2,37,826.9"/>
	<rect x="53.1" y="832.9" class="st0" width="12.5" height="6.4"/>
	<rect x="53.1" y="832.9" class="st0" width="12.5" height="6.4"/>
	<rect x="64.3" y="832.9" class="st0" width="12.5" height="6.4"/>
	<rect x="75.5" y="832.9" class="st0" width="12.5" height="6.4"/>
	<rect x="86.7" y="832.9" class="st0" width="12.5" height="6.4"/>
	<rect x="97.9" y="832.9" class="st0" width="12.5" height="6.4"/>
	<rect x="109" y="832.9" class="st0" width="12.5" height="6.4"/>
	<path class="st0" d="M126,851.7h-6.2v-6.3h6.2V851.7z M146.1,839.3h-26v-6.4h6c1.9,0,3.2-0.6,3.8-1.9c0.5-0.8,0.7-2.3,0.7-4.3v-13
		h6.3v12.6c0,3.3-0.5,5.5-1.4,6.6h10.6V839.3z M136.7,851.7h-6.2v-6.3h6.2V851.7z"/>
	<rect x="144.7" y="832.9" class="st0" width="12.5" height="6.4"/>
	<path class="st0" d="M200.2,839.3h-44.5v-6.4h31c0-3.5-1-6.5-3-9c-2.4-2.9-5.6-4.3-9.8-4.3h-13l11.1-16.7h7.5l-7.6,10.8h2.8
		c3.9,0,7.3,0.9,10.3,2.7c5.1,3.2,8,8.6,8.5,16.5h6.8V839.3z"/>
	<path class="st0" d="M243.9,839.3h-45.3v-6.4h32.6c0-3.5-1-6.5-2.9-9c-2.3-2.9-5.6-4.3-9.7-4.3c-1.4,0-3,0.3-4.7,1.1
		c-2,0.9-3.7,2-5.1,3.6c-0.6-1.2-1.6-2.8-3-5c1.8-1.6,3.7-3,6-4c2.5-1.1,5-1.6,7.5-1.6c3.9,0,7.3,0.9,10.3,2.7
		c5.1,3.2,8,8.6,8.5,16.5h6V839.3z"/>
	<path class="st0" d="M248.2,808.4h-6.2v-6.3h6.2V808.4z M268.4,839.3h-26.1v-6.4h5.9c1.9,0,3.1-0.6,3.8-1.9
		c0.5-0.8,0.7-2.3,0.7-4.3v-13h6.3v12.6c0,3.3-0.5,5.5-1.4,6.6h10.8V839.3z M258.9,808.4h-6.2v-6.3h6.2V808.4z"/>
	<path class="st0" d="M292.5,839.3h-25.9v-6.4h5.9c1.9,0,3.1-0.6,3.8-1.9c0.5-0.8,0.7-2.3,0.7-4.3v-23.8h6.3v23.4
		c0,3.3-0.5,5.5-1.4,6.5h10.6V839.3z"/>
	<path class="st0" d="M307,829.1c0,6.8-3.2,10.2-9.5,10.2h-6.7v-6.4h5.4c2.1,0,3.4-0.6,4-1.9c0.3-0.7,0.5-2,0.5-4.1v-24.1h6.3V829.1
		z"/>
	<path class="st0" d="M375.4,832.9v6.4c-6.9,0-8.9-1.1-11.5-5c-1.8,8.8-9.4,14.3-18.6,14.3c-10.8,0-19.4-8.5-19.4-19.6v-6.3h6.3v5.6
		c0,8.7,5.1,14.2,13.3,14.2c7.3,0,12.9-4.8,12.9-10.6c0-3.5-2.1-6-5.7-6l-1,0.1v-5.8h2.5c5,0,8.7,2.3,11.2,6.7
		c2.3,4.2,4.5,5.9,7.7,5.9H375.4z M343.1,861.2h-6.2v-6.3h6.2V861.2z M353.8,861.2h-6.2v-6.3h6.2V861.2z"/>
	<rect x="373.8" y="832.9" class="st0" width="12.5" height="6.4"/>
	<rect x="373.8" y="832.9" class="st0" width="12.5" height="6.4"/>
	<rect x="385" y="832.9" class="st0" width="12.5" height="6.4"/>
	<rect x="396.2" y="832.9" class="st0" width="12.5" height="6.4"/>
	<rect x="407.4" y="832.9" class="st0" width="12.5" height="6.4"/>
	<rect x="418.6" y="832.9" class="st0" width="12.5" height="6.4"/>
	<rect x="429.8" y="832.9" class="st0" width="12.5" height="6.4"/>
	<path class="st0" d="M456.9,829.1c0,6.8-3.2,10.2-9.5,10.2h-6.7v-6.4h5.4c2.1,0,3.4-0.6,4-1.9c0.3-0.7,0.5-2,0.5-4.1v-24.1h6.3
		V829.1z"/>
	<path class="st0" d="M487.7,838.5c0,6.7-4.1,10.1-12.3,10.1v-5c3.9-0.1,5.9-2.8,6-7.2c-1.1,1.9-3.1,2.9-6,2.9
		c-7.3,0-12.1-5.4-12.1-12.9c0-7.6,5-12.8,12.1-12.8c7.5,0,12.2,5.5,12.2,13V838.5z M481.2,826.7c0-4.4-2.4-7.3-6-7.3
		c-3.3,0-5.5,3.2-5.5,7.1c0,4,2.4,7.2,5.8,7.2C478.9,833.6,481.2,830.5,481.2,826.7"/>
	<path class="st0" d="M530.8,839.3h-36.6v-6.4h20.4c0-7.4-2.9-11.7-8.6-12.9c-1.8-0.4-3.7-0.5-5.7-0.5v-5.8c3.1,0,5.1,0.1,5.9,0.1
		c0.8,0.1,1.9,0.3,3.4,0.8c7.6,2.5,11.4,8.6,11.4,18.3h9.8V839.3z"/>
	<rect x="528.2" y="832.9" class="st0" width="12.5" height="6.4"/>
	<path class="st0" d="M555.4,829.1c0,6.8-3.2,10.2-9.5,10.2h-6.7v-6.4h5.4c2.1,0,3.4-0.6,4-1.9c0.3-0.7,0.5-2,0.5-4.1v-24.1h6.3
		V829.1z"/>
	<rect x="562.3" y="802.9" class="st0" width="6.3" height="36.5"/>
	<path class="st0" d="M637,832.9v6.4c-6.9,0-8.9-1.1-11.5-5c-1.8,8.8-9.4,14.3-18.6,14.3c-10.8,0-19.4-8.5-19.4-19.6v-6.3h6.3v5.6
		c0,8.7,5.1,14.2,13.3,14.2c7.3,0,12.9-4.8,12.9-10.6c0-3.5-2.1-6-5.7-6l-1,0.1v-5.8h2.5c5,0,8.7,2.3,11.2,6.7
		c2.3,4.2,4.5,5.9,7.7,5.9H637z M604.6,861.2h-6.2v-6.3h6.2V861.2z M615.3,861.2h-6.2v-6.3h6.2V861.2z"/>
	<rect x="635.4" y="832.9" class="st0" width="12.5" height="6.4"/>
	<rect x="635.4" y="832.9" class="st0" width="12.5" height="6.4"/>
	<rect x="646.6" y="832.9" class="st0" width="12.5" height="6.4"/>
	<rect x="657.8" y="832.9" class="st0" width="12.5" height="6.4"/>
	<rect x="669" y="832.9" class="st0" width="12.5" height="6.4"/>
	<rect x="680.1" y="832.9" class="st0" width="12.5" height="6.4"/>
	<rect x="691.3" y="832.9" class="st0" width="12.5" height="6.4"/>
	<rect x="702.5" y="832.9" class="st0" width="12.5" height="6.4"/>
	<path class="st0" d="M739.7,839.3h-26.1v-6.4h5.9c1.9,0,3.1-0.6,3.8-1.9c0.4-0.8,0.7-2.3,0.7-4.3v-13h6.3v12.6
		c0,3.3-0.4,5.5-1.4,6.6h10.8V839.3z M730.2,851.7H724v-6.3h6.2V851.7z"/>
	<path class="st0" d="M784.8,839.3H738v-6.4h10.4v-30h6.2l-0.7,20.4c5.2-6.7,10.6-9.8,16.5-9.8c9.8,0,14.6,6.7,14.6,19.9
		C785.1,835.3,785,837.2,784.8,839.3 M778.6,832.9v-1.8c0-7.2-3.2-11.9-8.7-11.9c-6.4,0-12.8,5.6-16.6,13.7H778.6z M772.3,808.5
		h-6.2v-6.3h6.2V808.5z"/>
	<path class="st0" d="M823.7,839.3H816c-0.9,6.2-5,9.3-12.3,9.3v-5c3.3,0,5.4-1.4,6.3-4.3h-6c-6.8,0-12.4-5.7-12.4-13.2
		c0-7.5,5.5-12.5,12.6-12.5c6.9,0,11.7,5.3,11.7,12.7v6.6h7.7V839.3z M809.6,832.9v-7.7c-0.3-3.3-2.3-5.7-5.5-5.7
		c-3.7,0-6.1,2.6-6.1,6.4c0,3.9,2.7,7.1,6,7.1H809.6z"/>
	<rect x="822.3" y="832.9" class="st0" width="12.5" height="6.4"/>
	<path class="st0" d="M849.4,829.1c0,6.8-3.2,10.2-9.4,10.2h-6.1v-6.4h4.8c2.1,0,3.4-0.6,4-1.9c0.3-0.7,0.5-2,0.5-4.1v-13.3h6.3
		V829.1z M849.4,851.7h-6.2v-6.3h6.2V851.7z"/>
	<path class="st0" d="M864.3,800h-9.8v-2.6h2.3c-0.3-1.1-0.5-1.7-0.5-2c0-2.7,2-4.6,4.4-4.6c1.6,0,2.8,0.8,3.6,2.5l-2,1.1
		c-0.2-0.8-0.7-1.2-1.6-1.2c-1.2,0-1.9,1.1-1.9,2.1c0,1,0.3,1.7,1,2.1h4.6V800z M862.7,839.3h-6.3v-36.5h6.3V839.3z"/>
	<path class="st0" d="M906,839.3h-10.1c-1,6-6.1,9.4-13.8,9.4v-5.4c5.2,0,7.8-2.6,7.8-8v-21.6h6.3v19.2h9.7V839.3z M896.3,808.5H890
		v-6.3h6.2V808.5z"/>
	<rect x="904" y="832.9" class="st0" width="12.5" height="6.4"/>
	<rect x="904" y="832.9" class="st0" width="12.5" height="6.4"/>
	<rect x="915.1" y="832.9" class="st0" width="12.5" height="6.4"/>
	<rect x="926.3" y="832.9" class="st0" width="12.5" height="6.4"/>
	<rect x="937.5" y="832.9" class="st0" width="12.5" height="6.4"/>
	<rect x="948.7" y="832.9" class="st0" width="12.5" height="6.4"/>
	<path class="st0" d="M997.6,835.4v3.9h-37.8v-6.4h31c0-3.5-1-6.5-3-9c-2.4-2.9-5.7-4.3-9.8-4.3h-13.1l11.1-16.7h7.5l-7.6,10.8h2.8
		c4.2,0,7.8,1,10.8,3.1C994.9,820.4,997.6,826.5,997.6,835.4"/>
	<path class="st0" d="M1026.8,839.3h-10.1c-1,6-6.1,9.4-13.8,9.4v-5.4c5.2,0,7.8-2.6,7.8-8v-21.6h6.3v19.2h9.7V839.3z"/>
	<rect x="1024.7" y="832.9" class="st0" width="12.5" height="6.4"/>
	<rect x="1035.9" y="832.9" class="st0" width="12.5" height="6.4"/>
	<path class="st0" d="M1080,831.3c0,7.5-5.1,13-12.6,13c-4.3,0-7.8-1.7-10.2-5H1047v-6.4h7.8l-0.1-0.3l-0.1-1.5
		c0-7.6,5.3-13,12.8-13C1074.9,818.1,1080,823.9,1080,831.3 M1073.5,831.3c0-4.3-2.6-7.5-6.3-7.5c-3.6,0-6.1,3-6.1,7.2
		c0,4.2,2.7,7.5,6.4,7.5C1071,838.5,1073.5,835.6,1073.5,831.3"/>
	<path class="st0" d="M32.1,917.5l-3.8-9.7H13.6l-3.8,9.7l-7.5,0l15.8-38.3h6.7L40,917.5H32.1z M21.1,888.5l-0.1,0.2l-5,12.9h10
		L21.1,888.5z"/>
	<path class="st0" d="M44.1,876.4h6.7v14c1.9-1,4.1-1.5,6.3-1.5c8.6,0,12.8,6.6,12.8,14.6c0,8.6-6.9,14.6-15.4,14.6
		c-3.2,0-7.7-0.7-10.7-1.8c0,0,0.3-2.2,0.3-3.4V876.4z M50.8,910.8l-0.1,0.8c1.2,0.4,2.8,0.6,4,0.6c5.2,0,7.6-4.2,7.6-9
		c0-4.4-2-8.6-7-8.6c-1.6,0-3.3,0.4-4.6,1.3V910.8z"/>
	<path class="st0" d="M93.2,889.5h6.7v21.9c0,1.3,0.4,3.9,0.4,3.9c-3.9,1.4-8.6,2.8-12.7,2.8c-6.8,0-12.2-2.2-12.2-10v-18.6h6.7
		v17.6c0,3.4,2.2,5.1,5.5,5.1c1.9,0,3.9-0.6,5.7-1.2l-0.1-1.2V889.5z"/>
	<path class="st0" d="M121.7,879.6c3.7-0.8,7.6-1,11.4-1c12.1,0,20.8,6,20.8,18.8c0,13.6-8.9,20.7-22,20.7c-3.4,0-6.8-0.2-10.2-0.8
		V879.6z M128.7,911.6c1.5,0.3,2.9,0.5,4.4,0.5c8.7,0,13.3-6.2,13.3-14.6c0-8-4.5-12.8-12.6-12.8c-1.7,0-3.5,0.1-5.1,0.5V911.6z"/>
	<path class="st0" d="M177.9,917.5v-17.7c0-3.1-1.9-5.1-4.7-5.1c-2.2,0-4.6,0.9-6.4,2.1v20.7H160v-41.1h6.7v14.3
		c2.6-1.1,5.4-1.8,8.3-1.8c6.3,0,9.6,3.7,9.6,9.9v18.7H177.9z"/>
	<path class="st0" d="M214.2,912.4c0,1.2,0.4,3.5,0.4,3.5c-3.9,1.2-7.8,2.2-11.9,2.2c-5.4,0-12.5-2-12.5-8.5
		c0-11.3,17.3-7.4,17.3-12.3c0-2.3-3-2.6-4.7-2.6c-2.5,0-5.4,0.7-7.8,1.7l-2.3-5.1c3.3-1.5,7.4-2.4,11-2.4c6,0,10.5,2.6,10.5,9.1
		V912.4z M207.5,903.8c-2.3,2.2-10,1.3-10,5.3c0,2.9,2.8,3.4,5.2,3.4c1.6,0,3.3-0.3,4.9-0.8l-0.1-1.1V903.8z"/>
	<path class="st0" d="M221.6,876.4h6.7v14c1.9-1,4.1-1.5,6.3-1.5c8.6,0,12.8,6.6,12.8,14.6c0,8.6-6.9,14.6-15.4,14.6
		c-3.2,0-7.7-0.7-10.7-1.8c0,0,0.3-2.2,0.3-3.4V876.4z M228.4,910.8l-0.1,0.8c1.2,0.4,2.8,0.6,4,0.6c5.2,0,7.6-4.2,7.6-9
		c0-4.4-2-8.6-7-8.6c-1.6,0-3.3,0.4-4.6,1.3V910.8z"/>
	<path class="st0" d="M257.1,883.8c-2.3,0-4-1.6-4-3.9c0-2.2,1.7-4,4-4c2.2,0,4.1,1.7,4.1,4C261.3,882.3,259.4,883.8,257.1,883.8
		 M253.9,889.5h6.7v28h-6.7V889.5z"/>
	<rect x="282.8" y="879.2" class="st0" width="7" height="38.3"/>
	<path class="st0" d="M315.7,917.5v-17.6c0-3.4-2.2-5.1-5.5-5.1c-1.9,0-3.9,0.6-5.7,1.2l0.1,1.2v20.3h-6.7v-21.9
		c0-1.3-0.4-3.9-0.4-3.9c3.9-1.4,8.6-2.8,12.7-2.8c6.8,0,12.2,2.2,12.2,10v18.6H315.7z"/>
	<path class="st0" d="M346.8,916.9c-2.5,0.8-4.9,1.6-7.5,1.6c-5.1,0-8.6-2.4-8.6-7.8v-15.4l-3.2-0.2v-5.3l3.2-0.2v-7.8h6.7v7.7h7.8
		v5.8h-7.8v14.9c0,1.7,0.9,2.4,2.6,2.4c1.7,0,3.4-0.6,5-1.1L346.8,916.9z"/>
	<path class="st0" d="M373.5,916c-3,1.3-6.3,2.1-9.6,2.1c-8.6,0-14.3-5.9-14.3-14.6c0-8.1,4.4-14.7,13-14.7
		c8.1,0,12.7,5.6,12.7,13.4c0,1.2-0.2,2.5-0.4,3.7h-18.1c0.4,4.3,3.4,6.3,7.5,6.3c2.3,0,5.1-0.6,7.1-1.5L373.5,916z M368.3,900.7
		c-0.1-3.5-2-6.3-5.7-6.3c-3.6,0-5.7,2.9-5.8,6.3H368.3z"/>
	<path class="st0" d="M381.4,917.5v-21.3c0-1.4-0.5-4.2-0.5-4.2c4-1.7,8.3-3.1,12.8-3.1c1.7,0,3.6,0.2,5.2,0.6l-2,5.8
		c-0.9-0.3-2.5-0.6-3.7-0.6c-1.7,0-3.4,0.2-5,0.7l0.1,0.6v21.5H381.4z"/>
	<path class="st0" d="M420,917.5v-17.6c0-3.4-2.2-5.1-5.5-5.1c-1.9,0-3.9,0.6-5.7,1.2l0.1,1.2v20.3h-6.7v-21.9
		c0-1.3-0.4-3.9-0.4-3.9c3.9-1.4,8.6-2.8,12.7-2.8c6.8,0,12.2,2.2,12.2,10v18.6H420z"/>
	<path class="st0" d="M456.4,912.4c0,1.2,0.4,3.5,0.4,3.5c-3.9,1.2-7.8,2.2-11.9,2.2c-5.4,0-12.5-2-12.5-8.5
		c0-11.3,17.3-7.4,17.3-12.3c0-2.3-3-2.6-4.7-2.6c-2.5,0-5.4,0.7-7.8,1.7l-2.3-5.1c3.3-1.5,7.4-2.4,11-2.4c6,0,10.5,2.6,10.5,9.1
		V912.4z M449.7,903.8c-2.3,2.2-10,1.3-10,5.3c0,2.9,2.8,3.4,5.2,3.4c1.6,0,3.3-0.3,4.9-0.8l-0.1-1.1V903.8z"/>
	<path class="st0" d="M481.2,916.9c-2.5,0.8-4.9,1.6-7.5,1.6c-5.1,0-8.6-2.4-8.6-7.8v-15.4l-3.2-0.2v-5.3l3.2-0.2v-7.8h6.7v7.7h7.8
		v5.8h-7.8v14.9c0,1.7,0.9,2.4,2.6,2.4c1.7,0,3.4-0.6,5-1.1L481.2,916.9z"/>
	<path class="st0" d="M489.4,883.8c-2.3,0-4-1.6-4-3.9c0-2.2,1.7-4,4-4c2.2,0,4.1,1.7,4.1,4C493.5,882.3,491.6,883.8,489.4,883.8
		 M486.1,889.5h6.7v28h-6.7V889.5z"/>
	<path class="st0" d="M499.1,903.5c0-8.3,5.5-14.6,14-14.6c8.6,0,14.1,6.2,14.1,14.6c0,8.4-5.5,14.6-14.1,14.6
		C504.6,918.1,499.1,911.8,499.1,903.5 M519.8,903.5c0-4.2-1.6-8.8-6.6-8.8c-5,0-6.6,4.6-6.6,8.8c0,4.2,1.6,8.8,6.6,8.8
		C518.1,912.3,519.8,907.8,519.8,903.5"/>
	<path class="st0" d="M550.9,917.5v-17.6c0-3.4-2.2-5.1-5.5-5.1c-1.9,0-3.9,0.6-5.7,1.2l0.1,1.2v20.3h-6.7v-21.9
		c0-1.3-0.4-3.9-0.4-3.9c3.9-1.4,8.6-2.8,12.7-2.8c6.8,0,12.2,2.2,12.2,10v18.6H550.9z"/>
	<path class="st0" d="M587.3,912.4c0,1.2,0.4,3.5,0.4,3.5c-3.9,1.2-7.8,2.2-11.9,2.2c-5.4,0-12.5-2-12.5-8.5
		c0-11.3,17.3-7.4,17.3-12.3c0-2.3-3-2.6-4.7-2.6c-2.5,0-5.4,0.7-7.8,1.7l-2.3-5.1c3.3-1.5,7.4-2.4,11-2.4c6,0,10.5,2.6,10.5,9.1
		V912.4z M580.6,903.8c-2.3,2.2-10,1.3-10,5.3c0,2.9,2.8,3.4,5.2,3.4c1.6,0,3.3-0.3,4.9-0.8l-0.1-1.1V903.8z"/>
	<path class="st0" d="M606.1,917.1c-1.6,0.6-3.9,1-5.6,1c-3.8,0-6.2-1.9-6.2-5.8v-35.9h6.7v34.3c0,0.9,0.3,1.7,1.3,1.7
		c0.7,0,1.5-0.3,2.1-0.6L606.1,917.1z"/>
	<path class="st0" d="M650.4,917.5l-3.8-9.7h-14.8l-3.8,9.7l-7.5,0l15.8-38.3h6.7l15.2,38.3H650.4z M639.3,888.5l-0.1,0.2l-5,12.9
		h10L639.3,888.5z"/>
	<path class="st0" d="M662.6,917.5v-21.3c0-1.4-0.5-4.2-0.5-4.2c4-1.7,8.3-3.1,12.8-3.1c1.7,0,3.6,0.2,5.2,0.6l-2,5.8
		c-0.9-0.3-2.5-0.6-3.7-0.6c-1.7,0-3.4,0.2-5,0.7l0.1,0.6v21.5H662.6z"/>
	<path class="st0" d="M683.3,876.4h6.7v14c1.9-1,4.1-1.5,6.3-1.5c8.6,0,12.8,6.6,12.8,14.6c0,8.6-6.9,14.6-15.4,14.6
		c-3.2,0-7.7-0.7-10.7-1.8c0,0,0.3-2.2,0.3-3.4V876.4z M690,910.8l-0.1,0.8c1.2,0.4,2.8,0.6,4,0.6c5.2,0,7.6-4.2,7.6-9
		c0-4.4-2-8.6-7-8.6c-1.6,0-3.3,0.4-4.6,1.3V910.8z"/>
	<path class="st0" d="M718.8,883.8c-2.3,0-4-1.6-4-3.9c0-2.2,1.7-4,4-4c2.2,0,4.1,1.7,4.1,4C722.9,882.3,721,883.8,718.8,883.8
		 M715.5,889.5h6.7v28h-6.7V889.5z"/>
	<path class="st0" d="M747.4,916.9c-2.5,0.8-4.9,1.6-7.5,1.6c-5.1,0-8.6-2.4-8.6-7.8v-15.4l-3.2-0.2v-5.3l3.2-0.2v-7.8h6.7v7.7h7.8
		v5.8H738v14.9c0,1.7,0.9,2.4,2.6,2.4c1.7,0,3.4-0.6,5-1.1L747.4,916.9z"/>
	<path class="st0" d="M751.9,917.5v-21.3c0-1.4-0.5-4.2-0.5-4.2c4-1.7,8.3-3.1,12.8-3.1c1.7,0,3.6,0.2,5.2,0.6l-2,5.8
		c-0.9-0.3-2.5-0.6-3.7-0.6c-1.7,0-3.4,0.2-5,0.7l0.1,0.6v21.5H751.9z"/>
	<path class="st0" d="M793.9,912.4c0,1.2,0.4,3.5,0.4,3.5c-3.9,1.2-7.8,2.2-11.9,2.2c-5.4,0-12.5-2-12.5-8.5
		c0-11.3,17.3-7.4,17.3-12.3c0-2.3-3-2.6-4.7-2.6c-2.5,0-5.4,0.7-7.8,1.7l-2.3-5.1c3.3-1.5,7.4-2.4,11-2.4c6,0,10.5,2.6,10.5,9.1
		V912.4z M787.2,903.8c-2.3,2.2-10,1.3-10,5.3c0,2.9,2.8,3.4,5.2,3.4c1.6,0,3.3-0.3,4.9-0.8l-0.1-1.1V903.8z"/>
	<path class="st0" d="M818.7,916.9c-2.5,0.8-4.9,1.6-7.5,1.6c-5.1,0-8.6-2.4-8.6-7.8v-15.4l-3.2-0.2v-5.3l3.2-0.2v-7.8h6.7v7.7h7.8
		v5.8h-7.8v14.9c0,1.7,0.9,2.4,2.6,2.4c1.7,0,3.4-0.6,5-1.1L818.7,916.9z"/>
	<path class="st0" d="M826.9,883.8c-2.3,0-4-1.6-4-3.9c0-2.2,1.7-4,4-4c2.2,0,4.1,1.7,4.1,4C831,882.3,829.1,883.8,826.9,883.8
		 M823.6,889.5h6.7v28h-6.7V889.5z"/>
	<path class="st0" d="M836.6,903.5c0-8.3,5.5-14.6,14-14.6c8.6,0,14.1,6.2,14.1,14.6c0,8.4-5.5,14.6-14.1,14.6
		C842.1,918.1,836.6,911.8,836.6,903.5 M857.3,903.5c0-4.2-1.6-8.8-6.6-8.8c-5,0-6.6,4.6-6.6,8.8c0,4.2,1.6,8.8,6.6,8.8
		C855.6,912.3,857.3,907.8,857.3,903.5"/>
	<path class="st0" d="M888.4,917.5v-17.6c0-3.4-2.2-5.1-5.5-5.1c-1.9,0-3.9,0.6-5.7,1.2l0.1,1.2v20.3h-6.7v-21.9
		c0-1.3-0.4-3.9-0.4-3.9c3.9-1.4,8.6-2.8,12.7-2.8c6.8,0,12.2,2.2,12.2,10v18.6H888.4z"/>
	<path class="st0" d="M944.7,915.5c-3.2,1.6-6.7,2.5-10.2,2.5c-11.6,0-19.6-8.1-19.6-19.6c0-11.2,7.1-19.8,18.7-19.8
		c3.6,0,7.8,1.1,11,2.6l-2.3,5.7c-2.8-1.2-5.8-2.2-8.8-2.2c-7.4,0-11.1,6.2-11.1,13c0,8.2,4.4,14.2,13,14.2c2.6,0,5.2-0.7,7.5-1.8
		L944.7,915.5z"/>
	<path class="st0" d="M972.9,916c-3,1.3-6.3,2.1-9.6,2.1c-8.6,0-14.3-5.9-14.3-14.6c0-8.1,4.4-14.7,13-14.7
		c8.1,0,12.7,5.6,12.7,13.4c0,1.2-0.2,2.5-0.4,3.7h-18.1c0.4,4.3,3.4,6.3,7.5,6.3c2.3,0,5.1-0.6,7.1-1.5L972.9,916z M967.7,900.7
		c-0.1-3.5-2-6.3-5.7-6.3c-3.6,0-5.7,2.9-5.8,6.3H967.7z"/>
	<path class="st0" d="M998.5,917.5v-17.6c0-3.4-2.2-5.1-5.5-5.1c-1.9,0-3.9,0.6-5.7,1.2l0.1,1.2v20.3h-6.7v-21.9
		c0-1.3-0.4-3.9-0.4-3.9c3.9-1.4,8.6-2.8,12.7-2.8c6.8,0,12.2,2.2,12.2,10v18.6H998.5z"/>
	<path class="st0" d="M1029.6,916.9c-2.5,0.8-4.9,1.6-7.5,1.6c-5.1,0-8.6-2.4-8.6-7.8v-15.4l-3.2-0.2v-5.3l3.2-0.2v-7.8h6.7v7.7h7.8
		v5.8h-7.8v14.9c0,1.7,0.9,2.4,2.6,2.4c1.7,0,3.4-0.6,5-1.1L1029.6,916.9z"/>
	<path class="st0" d="M1034.1,917.5v-21.3c0-1.4-0.5-4.2-0.5-4.2c4-1.7,8.3-3.1,12.8-3.1c1.7,0,3.6,0.2,5.2,0.6l-2,5.8
		c-0.9-0.3-2.5-0.6-3.7-0.6c-1.7,0-3.4,0.2-5,0.7l0.1,0.6v21.5H1034.1z"/>
	<path class="st0" d="M1076,916c-3,1.3-6.3,2.1-9.6,2.1c-8.6,0-14.3-5.9-14.3-14.6c0-8.1,4.4-14.7,13-14.7c8.1,0,12.7,5.6,12.7,13.4
		c0,1.2-0.2,2.5-0.4,3.7h-18.1c0.4,4.3,3.4,6.3,7.5,6.3c2.3,0,5.1-0.6,7.1-1.5L1076,916z M1070.8,900.7c-0.1-3.5-2-6.3-5.7-6.3
		c-3.6,0-5.7,2.9-5.8,6.3H1070.8z"/>
</g>
</svg>
