<?xml version="1.0" encoding="utf-8"?>
<!-- Generator: Adobe Illustrator 28.0.0, SVG Export Plug-In . SVG Version: 6.00 Build 0)  -->
<svg version="1.1" id="Layer_1" xmlns="http://www.w3.org/2000/svg" xmlns:xlink="http://www.w3.org/1999/xlink" x="0px" y="0px"
	 viewBox="0 0 720 720" style="enable-background:new 0 0 720 720;" xml:space="preserve">
<style type="text/css">
	.st0{fill:url(#SVGID_1_);}
	.st1{fill:url(#SVGID_00000143613142920279149100000000215190948372581037_);}
	.st2{fill:url(#SVGID_00000026144900992144782600000009362687296978992040_);}
	.st3{fill:url(#SVGID_00000072258902443185877670000012351230252353918350_);}
	.st4{fill:url(#SVGID_00000159435924014015453390000003675108581363963521_);}
</style>
<g>
	<linearGradient id="SVGID_1_" gradientUnits="userSpaceOnUse" x1="16.9991" y1="359.8754" x2="703.25" y2="359.8754">
		<stop  offset="0" style="stop-color:#DEAFCF"/>
		<stop  offset="1" style="stop-color:#33B4DC"/>
	</linearGradient>
	<path class="st0" d="M17,307.6c1.7-3.6,3-7.5,5.1-10.8c6.1-9.3,14.9-13.7,26-13.7c15.4,0,30.8-0.1,46.2,0c3.5,0,5.6-0.6,7-4.4
		c6.1-16.2,12.6-32.3,19.4-49.6c-10.6-10.5-22-22-33.7-33.4c-20-19.5-11.9-41.3,8.6-55.5c2.4-1.7,8.3-0.4,11.4,1.5
		c4.1,2.6,4.3,7.7,1.7,12c-1.4,2.2-3.4,4.1-5.3,6c-10.5,10.6-10.5,13.3,0.2,24.1c11.7,11.7,23.4,23.4,35.1,35.1
		c6.7,6.7,6.4,9.2,2.6,17.7c-8.2,18.5-15.9,37.2-23.3,56.1c-3.3,8.3-5.1,10.4-13.9,10.5c-17.9,0.1-35.7,0-53.6,0
		c-10.2,0-13.5,3.4-13.5,13.8c0,28.6,0,57.2,0,85.8c0,10.6,3.3,13.8,14.1,13.9c17.6,0,35.3,0,52.9,0c8.9,0,10.7,2.1,13.9,10.4
		c7.5,19,15.4,37.9,23.6,56.7c3.4,7.8,3.6,10.6-2.4,16.6c-12.7,12.8-25.6,25.6-38.4,38.4c-7,7.1-7,11.7,0.1,18.8
		c20.5,20.6,41,41.1,61.6,61.6c6.8,6.7,11.6,6.8,18.4,0.1c12.7-12.6,25.3-25.3,37.9-37.9c6.8-6.8,9.2-6.6,17.7-2.9
		c18.5,8.1,37.2,15.9,56.1,23.3c8.6,3.4,10.6,5.1,10.7,14.4c0,17.6,0,35.3,0,52.9c0,10.4,3.4,13.7,13.6,13.7c28.8,0,57.6,0,86.4,0
		c9.9,0,13.4-3.4,13.4-13.2c0.1-17.6,0-35.3,0-52.9c0-9.9,1.9-11.4,10.8-14.9c18.8-7.4,37.5-15.2,56-23.4c8.1-3.6,10.8-3.8,17.2,2.6
		c12.7,12.6,25.3,25.3,37.9,37.9c7.1,7.1,11.9,7.2,18.8,0.2c20.6-20.5,41.1-41,61.6-61.6c7-7,7-11.7-0.1-18.8
		c-12.6-12.7-25.3-25.3-37.9-37.9c-6.4-6.5-6.3-9-2.7-17.1c8.1-18.5,16-37.2,23.3-56.1c3.5-9,5.1-10.9,14.9-10.9
		c17.4,0,34.8,0,52.3,0c10.7,0,13.9-3.3,13.9-14c0-28.6,0-57.2,0-85.8c0-10.3-3.3-13.6-13.6-13.6c-17.6-0.1-35.3,0-52.9,0
		c-9.4,0-11.1-2.1-14.4-10.6c-7.4-18.8-15.2-37.5-23.3-56.1c-3.7-8.4-3.9-10.9,2.8-17.6c12.5-12.5,25-24.9,37.4-37.5
		c7.3-7.4,7.3-12,0-19.3c-20.3-20.4-40.7-40.8-61.1-61.1c-7.3-7.3-11.8-7.2-19.3,0.2c-12.7,12.6-25.3,25.3-37.9,37.9
		c-6.1,6-8.8,5.9-16.6,2.5c-19-8.2-38-16.3-57.3-23.7c-6.7-2.6-9.9-6.1-9.8-13.1c0.1-17.2,0-34.4,0-51.6c0-13.6-2.5-16.2-15.8-16.2
		c-27.5,0-55,0-82.4,0c-12.4,0-15.2,2.8-15.2,15.4c0,17,0,33.9,0,50.9c0,9.6-2.1,11.4-11,14.9c-18.9,7.3-37.5,15.2-56.1,23.3
		c-7.8,3.4-10.6,3.6-16.6-2.4c-12.5-12.5-24.9-25-37.4-37.4c-8.3-8.2-12.3-8.2-20.8,0.2c-6.5,6.5-12.9,13-19.5,19.4
		c-5.3,5.1-11.1,5.5-15.4,1.2c-4.3-4.2-3.9-10.2,1.1-15.4c7.3-7.5,14.7-15,22.3-22.2c13.1-12.5,30.8-12.6,43.8,0.1
		c12.3,12,24.3,24.3,35.5,35.6c17.6-6.8,34.2-13.2,50.6-19.9c1.7-0.7,3.2-4,3.2-6.1c0.3-14.7,0.1-29.5,0.2-44.2
		c0.1-21.4,12.3-33.4,33.9-33.4c28.8,0,57.6,0,86.4,0c21,0,33.2,12.2,33.3,33.3c0.1,14.7,0.1,29.5,0,44.2c0,3.1,0.2,5.4,3.9,6.6
		c8.5,2.7,16.9,5.8,25.1,9.2c8,3.3,15.8,7.3,24.2,11.2c11.2-11.2,22.5-22.6,33.8-34c15.8-15.8,32.9-15.9,48.6-0.3
		c20.2,20.2,40.5,40.4,60.6,60.7c15.3,15.4,15.2,32.6-0.2,48.1c-11,11.1-22.1,22.1-33.1,33.2c-0.3,0.3-0.5,0.7-0.3,0.4
		c6.8,17.2,13.2,34,20.1,50.6c0.6,1.5,3.7,2.8,5.7,2.9c15,0.2,29.9,0.1,44.9,0.2c20.6,0.1,32.9,12.5,33,33c0,29.3,0,58.5,0,87.8
		c0,20.2-12.3,32.7-32.4,32.9c-14.7,0.1-29.5,0.2-44.2-0.1c-4.5-0.1-6.4,1.2-8.1,5.6c-5.8,15.9-12.4,31.5-19,48.1
		c10.3,10.3,21.5,21.5,32.7,32.7c16.7,16.7,16.7,33.4,0.1,50c-19.9,19.9-39.8,39.8-59.7,59.7c-15.5,15.4-32.7,15.4-48.1,0
		c-11.4-11.4-22.6-22.8-33.3-33.7c-17.7,7-34.7,13.5-51.5,20.5c-1.4,0.6-2.4,3.9-2.5,5.9c-0.2,13.2-0.1,26.4-0.1,39.5
		c0,22.4-4.6,29.4-24.6,37.9c-34.8,0-69.7,0-104.5,0c-19.8-8.4-24.6-15.5-24.6-37.2c0-13.6,0.1-27.2-0.1-40.9c0-1.9-1.4-5-3-5.6
		c-16.6-6.8-33.4-13.3-50.8-20.1c-10.7,10.8-22,22.3-33.4,33.6c-15.5,15.4-32.7,15.4-48.1,0c-20.1-20-40.1-40.1-60.2-60.2
		c-16.1-16.2-16.2-33-0.1-49c11.4-11.4,22.8-22.6,33.2-33c-6.8-17.2-13.3-33.3-19.4-49.6c-1.4-3.7-3.5-4.4-7-4.4
		c-15.4,0.1-30.8,0-46.2,0c-11.1,0-19.9-4.5-26.1-13.7c-2.2-3.3-3.4-7.2-5.1-10.8C17,377.3,17,342.5,17,307.6z"/>
	
		<linearGradient id="SVGID_00000147189393748177589660000002019444506990656392_" gradientUnits="userSpaceOnUse" x1="155.4089" y1="359.8654" x2="564.6921" y2="359.8654">
		<stop  offset="0" style="stop-color:#DEAFCF"/>
		<stop  offset="1" style="stop-color:#33B4DC"/>
	</linearGradient>
	<path style="fill:url(#SVGID_00000147189393748177589660000002019444506990656392_);" d="M360.3,183.2
		c9.2-11.8,20.5-19.2,34.8-21.7c18.1-3.1,33.6,2.9,46.7,15c4.4,4.1,9.1,5.5,14.8,6.5c10.5,1.9,21.2,3.7,31.1,7.5
		c39.3,15.1,57.8,45.4,59.7,86.2c0.6,12,2.8,22.8,7.5,33.9c21.1,49.5,8.1,94.4-35.2,125.7c-2.2,1.6-3.6,5.2-4,8.1
		c-1.7,11.4-1.5,23.3-4.3,34.4c-8,31.6-34.3,52.9-68.1,56.5c-0.2,0-0.4,0-0.7,0.1c-10.1,0.1-18.1,3.1-26.4,10.4
		c-15.5,13.9-34,18.2-53.6,6.5c-1.3-0.8-4-0.5-5.3,0.3c-17.2,11.4-44.9,5.4-58.7-11.6c-2.9-3.6-5.8-4.4-10.1-4.8
		c-9.1-0.9-18.3-1.9-27-4.4c-35-10.2-55.4-37.7-56.3-77.4c-0.3-11-3.4-17.6-12.2-24.6c-34.8-27.8-46-66.8-31.2-109.2
		c6-17,10.2-33.7,12.1-51.9c4.7-46.7,33.9-76.5,79.9-84.3c11.6-2,21.5-5.2,31.1-12.8C306.9,154.4,338.5,156.6,360.3,183.2z
		 M494.9,448.2c-16.5,3.8-32.5,4.2-48.6-0.8c-2.7-0.8-6.5-0.2-9,1.2c-10.8,6-21.9,10-34.4,9.2c-6-0.4-9.8-4.3-9.9-9.7
		c-0.1-5.7,4-9.8,10.1-10.3c1.3-0.1,2.7,0,4,0c20.7-0.8,36.2-16.8,35.8-37.4c-0.1-4.6-1.1-9.3-1.7-13.9c-0.9-6.3,2-11,7.7-12.1
		c5.7-1.2,10.9,1.7,11.7,8c1.2,9.4,1.9,19,1.4,28.5c-0.3,6.2-3.1,12.2-4.8,18.3c36.2,8.4,74.7-17,85.1-55.5
		c8.1-29.7-8.1-84.9-45.8-98.4c-7.6-2.7-9.6-10.8-4.8-16.2c3.4-3.8,7.7-4.6,12.2-2.3c7.4,3.7,14.7,7.6,22.6,11.8
		c-3.9-25.2-15.4-44.4-38.2-56c-13.2-6.7-27.4-9.6-41.9-10.5c-6.1-0.4-10.4-2.5-14.4-7c-8-9-18-14.9-30.5-14
		c-18.9,1.4-31.3,16.2-31.3,37.4c-0.1,102.7,0,205.4,0,308.2c0,7.3,2.2,10,9.3,11.3c12.7,2.4,27.2-5.8,31.7-18
		c3.4-9.2,6.6-18.5,10-27.7c2.7-7.2,7.3-9.9,13.2-7.9c6,2,8.2,7.4,5.7,14.8c-1.7,5.2-3.7,10.4-5.5,15.8
		C468.1,519.1,497.5,486.6,494.9,448.2z M285.8,515.1c-2-5.7-4-11-5.8-16.4c-2.3-7-0.2-12.3,5.6-14.4c5.8-2.1,10.7,0.6,13.3,7.6
		c3.4,9,6.5,18,9.7,27.1c4,11.2,16.2,19.6,27.8,19.4c9.7-0.2,13.6-4.1,13.6-13.6c0-101.4,0-202.7,0-304.1c0-3.6-0.1-7.2-0.6-10.7
		c-1.9-14.9-13.7-26.7-28.5-28.7c-14.1-1.9-24.2,5.1-33.8,14.3c-3.2,3.1-8.1,5.5-12.5,6c-19.8,2.2-38.9,6.1-55,18.7
		c-15.6,12.2-23.2,28.7-26,48.2c8-4.2,15.3-8.3,22.9-11.8c5.7-2.6,11.2-0.2,13.4,5c2.3,5.2,0.3,10.9-5.5,13.2
		c-24.1,9.6-36.4,28.8-44.2,52.3c-9,27.1-5,51.7,12.3,74.5c17.6,23.2,43.9,33.6,70.5,27.1c-6.9-22.5-7.3-25.9-4.9-41.1
		c1.7-10.6,5.7-14.8,12.8-13.5c6.8,1.2,8.9,6.1,7.1,16.6c-4.6,27.5,10.2,45.8,38,46.9c6.7,0.3,11,4.2,11,10c0,5.9-4.2,9.7-11,10
		c-12.3,0.5-23.2-3.6-33.7-9.5c-2.3-1.3-5.7-1.4-8.4-1c-8.1,1-16.2,3.3-24.4,3.6c-8.1,0.3-16.2-1.2-24.4-1.9
		C223.7,486.8,246.5,514.8,285.8,515.1z"/>
	
		<linearGradient id="SVGID_00000142159861589320902690000016225179089700651944_" gradientUnits="userSpaceOnUse" x1="469.6505" y1="345.2614" x2="500.9925" y2="345.2614">
		<stop  offset="0" style="stop-color:#DEAFCF"/>
		<stop  offset="1" style="stop-color:#33B4DC"/>
	</linearGradient>
	<path style="fill:url(#SVGID_00000142159861589320902690000016225179089700651944_);" d="M501,359.1c0.1,8.5-3.2,13-9.8,13.1
		c-6.3,0.1-10-4.1-10.3-12.1c-0.3-9.7-4.8-17.7-9.6-25.9c-1.8-3-2.3-8.5-0.7-11.4c1.4-2.6,6.4-3.8,10-4.4c1.8-0.3,4.4,1.8,6,3.5
		C494.5,330.4,500.8,347,501,359.1z"/>
	
		<linearGradient id="SVGID_00000026861497289262235750000003736082954704354439_" gradientUnits="userSpaceOnUse" x1="405.1835" y1="309.8607" x2="448.2914" y2="309.8607">
		<stop  offset="0" style="stop-color:#DEAFCF"/>
		<stop  offset="1" style="stop-color:#33B4DC"/>
	</linearGradient>
	<path style="fill:url(#SVGID_00000026861497289262235750000003736082954704354439_);" d="M435.5,297.1c7.6,0.8,12.2,4.1,12.8,10
		c0.6,6-4.1,10.1-11.5,11.2c-5.7,0.8-11.3,2.2-16.8,3.7c-6.7,1.8-12-0.1-14-5.3c-2.2-5.8,0.4-11.2,7.2-13.5
		C420.4,300.7,428,299.1,435.5,297.1z"/>
	
		<linearGradient id="SVGID_00000119103894360162607620000016727845353871936693_" gradientUnits="userSpaceOnUse" x1="219.4086" y1="334.4778" x2="315.0125" y2="334.4778">
		<stop  offset="0" style="stop-color:#DEAFCF"/>
		<stop  offset="1" style="stop-color:#33B4DC"/>
	</linearGradient>
	<path style="fill:url(#SVGID_00000119103894360162607620000016727845353871936693_);" d="M281.6,296.8c8.6,2.1,17.3,3.8,25.7,6.4
		c6.6,2.1,8.9,7.4,7,13.1c-1.8,5.4-7.4,7.9-13.8,5.6c-9-3.2-18.1-5-27.5-2.9c-17.6,3.8-32.5,21.5-33.7,39.6
		c-0.1,2.2-0.1,4.5-0.8,6.6c-1.6,5.2-5.4,7.6-10.7,6.9c-5.1-0.6-8.3-3.7-8.4-8.8c-0.1-5.3,0.2-10.7,1.5-15.9
		C227.7,318.6,253.1,298,281.6,296.8z"/>
</g>
</svg>
