<?xml version="1.0" encoding="UTF-8"?>
<svg width="120px" height="34px" viewBox="0 0 120 34" version="1.1" xmlns="http://www.w3.org/2000/svg" xmlns:xlink="http://www.w3.org/1999/xlink">
    <!-- Generator: Sketch 64 (93537) - https://sketch.com -->
    <title>Horizontal Thick Gradient - LightBG</title>
    <desc>Created with Sketch.</desc>
    <defs>
        <linearGradient x1="102.294218%" y1="50.0192797%" x2="0%" y2="50%" id="linearGradient-1">
            <stop stop-color="#F7941F" offset="0%"></stop>
            <stop stop-color="#FFD006" offset="29.1883625%"></stop>
            <stop stop-color="#A7CA80" offset="40.6267915%"></stop>
            <stop stop-color="#00B6C5" offset="52.4034482%"></stop>
            <stop stop-color="#02ABC5" offset="100%"></stop>
        </linearGradient>
        <linearGradient x1="102.294218%" y1="50.0357903%" x2="0%" y2="50%" id="linearGradient-2">
            <stop stop-color="#F7941F" offset="0%"></stop>
            <stop stop-color="#FFD006" offset="29.1883625%"></stop>
            <stop stop-color="#A7CA80" offset="40.6267915%"></stop>
            <stop stop-color="#00B6C5" offset="52.4034482%"></stop>
            <stop stop-color="#02ABC5" offset="100%"></stop>
        </linearGradient>
    </defs>
    <g id="Symbols" stroke="none" stroke-width="1" fill="none" fill-rule="evenodd">
        <g id="3-Global/Footer/Sitemap/Desktop" transform="translate(-273.000000, -521.000000)">
            <g id="sitemap-Footer">
                <g id="bottom-footer" transform="translate(0.000000, 455.000000)">
                    <g id="Group-4" transform="translate(131.000000, 25.000000)">
                        <g id="tamm-logo" transform="translate(142.000000, 13.820225)">
                            <g id="Group-2">
                                <g id="Group-3">
                                    <g id="Horizontal-Thick-Gradient---LightBG" transform="translate(0.000000, 28.000000)">
                                        <path d="M120,3.0919312 C120,3.99603382 119.280588,4.72883598 118.393006,4.72883598 C117.505127,4.72883598 116.785714,3.99603382 116.785714,3.0919312 C116.785714,2.18813175 117.505127,1.45502646 118.393006,1.45502646 C119.280588,1.45502646 120,2.18813175 120,3.0919312" id="Fill-74" fill="#161138"></path>
                                        <path d="M115.714286,3.0919312 C115.714286,3.99603382 114.994874,4.72883598 114.106994,4.72883598 C113.219412,4.72883598 112.5,3.99603382 112.5,3.0919312 C112.5,2.18813175 113.219412,1.45502646 114.106994,1.45502646 C114.994874,1.45502646 115.714286,2.18813175 115.714286,3.0919312" id="Fill-76" fill="#161138"></path>
                                        <path d="M77.4725694,11.3709786 C77.3259855,11.7262492 77.1206538,12.0332325 76.8568599,12.2916377 C76.5927803,12.5509202 76.2847828,12.752552 75.9328671,12.8968252 C75.5809515,13.0413914 75.205651,13.1133823 74.8066793,13.1133823 C74.4079939,13.1133823 74.0383968,13.0381698 73.6981736,12.8877533 C73.3582353,12.7373345 73.0616453,12.5327756 72.8092582,12.273786 C72.5571566,12.0150887 72.3606656,11.7081047 72.2197852,11.3528348 C72.07919,10.9978579 72.0087498,10.6156644 72.0087498,10.2065482 C72.0087498,9.79713908 72.07919,9.41172716 72.2197852,9.05060388 C72.3606656,8.68948113 72.5543048,8.37664463 72.8004174,8.11150903 C73.0471011,7.84666615 73.3402689,7.63625501 73.6804921,7.47969045 C74.0207153,7.32312588 74.3960158,7.24498984 74.8066793,7.24498984 C75.2290359,7.24498984 75.6160288,7.32019925 75.9682301,7.4709111 C76.3198601,7.62103752 76.6252916,7.82881489 76.8830965,8.09365777 C77.141187,8.35850066 77.3408153,8.67133716 77.4814101,9.032753 C77.6222906,9.39358258 77.692446,9.78484791 77.692446,10.2065482 C77.692446,10.6276627 77.6191555,11.0157087 77.4725694,11.3709786 M117.179161,7.59382164 L117.179161,11.1272065 L80.067164,11.1272065 C80.1147935,10.8269532 80.1444486,10.5205551 80.1444486,10.2065482 C80.1444486,9.46469545 80.0144052,8.75532608 79.7577405,8.09716952 C79.4939466,7.42028371 79.1095198,6.81977801 78.6161531,6.31379637 C78.1327682,5.81717935 77.5584099,5.42474365 76.9101891,5.14760967 C76.2602569,4.86989042 75.5521481,4.72883598 74.8066793,4.72883598 C74.0492339,4.72883598 73.3322836,4.88218144 72.6763631,5.18419016 C72.0486755,5.47302989 71.4931391,5.87336698 71.0274353,6.37378845 C70.7576522,6.66409134 70.5252281,6.9877557 70.3241742,7.33512427 L69.6157798,7.33512427 C69.3810742,7.33512427 69.1286873,7.36526631 68.8589042,7.42555133 C68.5891212,7.48583596 67.6260584,7.70180733 66.6592882,8.67133716 C66.1844585,9.14805442 65.8850165,9.77284968 65.6739811,10.4591 C65.4626605,11.1453504 65.3571429,11.9577301 65.3571429,12.8968252 L65.3571429,15.1554527 C65.3571429,15.4241 65.569319,15.6415344 65.8308317,15.6415344 L67.3468643,15.6415344 C67.6086622,15.6415344 67.8208383,15.4241 67.8208383,15.1554527 L67.8208383,12.9328207 C67.8208383,12.4634196 67.859053,12.0238676 67.9351967,11.6147514 C68.0113405,11.2056352 68.1493691,10.8626565 68.3487119,10.5852294 C68.6179247,10.2027439 69.0271622,9.97331047 69.5710061,9.89107818 C69.5655897,9.99613671 69.5570317,10.1000258 69.5570317,10.2065482 C69.5570317,10.9399142 69.6887862,11.6446013 69.9483027,12.3004167 C70.2132376,12.9676451 70.5922457,13.55703 71.0756309,14.0530617 C71.5476086,14.536803 72.1028598,14.9219227 72.7271248,15.1981781 C73.3742053,15.4843841 74.0737597,15.6295362 74.8066793,15.6295362 C75.5173557,15.6295362 76.2026493,15.4960902 76.8437416,15.2327104 C77.4862589,14.9693306 78.0609014,14.5915274 78.5511314,14.1104203 C78.6971456,13.9673172 78.8311802,13.8142643 78.9589424,13.6553586 L119.169167,13.6553586 C119.43068,13.6553586 119.642857,13.4376313 119.642857,13.1692769 L119.642857,7.59382164 C119.642857,7.32517438 119.430681,7.10773977 119.169167,7.10773977 L117.653135,7.10773977 C117.391337,7.10773977 117.179161,7.32517438 117.179161,7.59382164" id="Fill-78" fill="#161138"></path>
                                        <path d="M71.7618719,21.2676478 L71.7618719,31.1631531 C71.7618719,31.4303074 71.5491244,31.6468254 71.2869074,31.6468254 L69.7845212,31.6468254 C69.5220182,31.6468254 69.3092707,31.4303074 69.3092707,31.1631531 L69.3092707,21.2676478 L65.8321074,21.2676478 C65.5698904,21.2676478 65.3571429,21.0511299 65.3571429,20.7842653 L65.3571429,19.3987264 C65.3571429,19.1318619 65.5698904,18.9153439 65.8321074,18.9153439 L75.2390356,18.9153439 C75.5015382,18.9153439 75.7142857,19.1318619 75.7142857,19.3987264 L75.7142857,20.7842653 C75.7142857,21.0511299 75.5015382,21.2676478 75.2390356,21.2676478 L71.7618719,21.2676478 Z" id="Fill-80" fill="#161138"></path>
                                        <path d="M79.5100015,26.475134 L82.9187643,26.475134 L81.2143832,21.6628506 L79.5100015,26.475134 Z M83.7186712,28.7378038 L78.7100946,28.7378038 L77.7960367,31.3290331 C77.7286765,31.5196502 77.5527956,31.6468254 77.3560602,31.6468254 L75.8258656,31.6468254 C75.4975033,31.6468254 75.2708913,31.3069155 75.3887076,30.9902877 L79.7597255,19.225861 C79.8293454,19.0387359 80.0032488,18.9153439 80.1971658,18.9153439 L82.3350411,18.9153439 C82.5295219,18.9153439 82.7034268,19.0393177 82.7727629,19.2270248 L87.1116496,30.9914514 C87.2286198,31.3074974 87.0022901,31.6468254 86.67421,31.6468254 L85.0727055,31.6468254 C84.8756886,31.6468254 84.7000922,31.5196502 84.6327291,31.3287425 L83.7186712,28.7378038 Z" id="Fill-82" fill="#161138"></path>
                                        <path d="M117.247992,31.1631523 L117.247992,22.7221582 L113.776694,31.3467856 C113.703635,31.5283804 113.530415,31.6468254 113.338072,31.6468254 L111.948012,31.6468254 C111.755955,31.6468254 111.583303,31.528963 111.509962,31.3482399 L108.038663,22.7937485 L108.038663,31.1631523 C108.038663,31.4303074 107.82663,31.6468254 107.564655,31.6468254 L106.188578,31.6468254 C105.926605,31.6468254 105.714286,31.4303074 105.714286,31.1631523 L105.714286,19.3987257 C105.714286,19.1318619 105.926605,18.9153439 106.188578,18.9153439 L108.602849,18.9153439 C108.794335,18.9153439 108.966987,19.0326244 109.040613,19.2130563 L112.669724,28.1092031 L116.212367,19.2168395 C116.284848,19.0343708 116.458645,18.9153439 116.651559,18.9153439 L119.168849,18.9153439 C119.430538,18.9153439 119.642857,19.1318619 119.642857,19.3987257 L119.642857,31.1631523 C119.642857,31.4303074 119.430538,31.6468254 119.168849,31.6468254 L117.721999,31.6468254 C117.460311,31.6468254 117.247992,31.4303074 117.247992,31.1631523" id="Fill-84" fill="#161138"></path>
                                        <path d="M100.462278,31.1631523 L100.462278,22.7221582 L96.9909793,31.3467856 C96.9179209,31.5283804 96.7447006,31.6468254 96.5523579,31.6468254 L95.1622979,31.6468254 C94.970526,31.6468254 94.7975886,31.528963 94.7242473,31.3482399 L91.252949,22.7937485 L91.252949,31.1631523 C91.252949,31.4303074 91.0409153,31.6468254 90.7789416,31.6468254 L89.4028646,31.6468254 C89.1408902,31.6468254 88.9285714,31.4303074 88.9285714,31.1631523 L88.9285714,19.3987257 C88.9285714,19.1318619 89.1408902,18.9153439 89.4028646,18.9153439 L91.8171351,18.9153439 C92.0086211,18.9153439 92.1812728,19.0326244 92.2548999,19.2130563 L95.8840108,28.1092031 L99.4266527,19.2168395 C99.499141,19.0343708 99.6729314,18.9153439 99.8658443,18.9153439 L102.383135,18.9153439 C102.644824,18.9153439 102.857143,19.1318619 102.857143,19.3987257 L102.857143,31.1631523 C102.857143,31.4303074 102.644824,31.6468254 102.383135,31.6468254 L100.936285,31.6468254 C100.674596,31.6468254 100.462278,31.4303074 100.462278,31.1631523" id="Fill-86" fill="#161138"></path>
                                        <g id="Falcon">
                                            <path d="M37.4492422,6.6216076 L32.971359,9.12000049 L33.3991595,10.6480638 C33.4076176,10.6786452 33.4156305,10.7092267 33.4231983,10.7407147 L33.603934,11.5001825 L38.554134,8.73752835 C39.2935478,8.33953791 41.5411701,7.1291364 43.4847468,7.1291364 C44.3666125,7.1291364 45.0672973,7.37149056 45.6268658,7.86989135 L48.0774818,10.3947556 C45.531156,11.0451409 42.5427843,13.8319851 38.8572892,17.2710406 L35.6476721,20.0752283 L36.2695633,22.6849851 L40.4033364,19.0720375 C43.7887924,15.9145875 46.9868353,12.9310303 48.9192829,12.6690504 C48.9470473,12.6569346 49.0712389,12.6298633 49.2918577,12.5878362 C49.5124765,12.5458092 49.6294143,12.5272358 49.642671,12.532116 L49.6484581,12.5462687 C49.6760581,12.6270533 49.6992065,12.7087505 49.7183485,12.7918177 C49.7428324,12.8014036 49.7642002,12.8114417 49.7820066,12.8214873 C50.0842715,13.2833747 50.6612013,13.4727852 51.1726923,13.2719643 C51.7073317,13.0620158 52.0153837,12.4855686 51.9000868,11.9100347 C51.8947449,11.8835605 51.8889578,11.8575459 51.8831707,11.8310754 C51.8773836,11.8132805 51.8715964,11.7954802 51.8658093,11.77768 L51.8457771,11.7137966 L51.8439964,11.7137966 C51.5582025,10.6544672 50.7377692,9.71791197 50.3353428,9.30942451 C50.2690137,9.24233075 50.2142588,9.18938824 50.1750846,9.15241922 L47.258384,6.14830966 C47.2414679,6.13050958 47.2241065,6.11407881 47.2063001,6.09719165 C46.2091375,5.18893417 44.9568971,4.72841569 43.485192,4.72795931 C40.9642403,4.72841569 38.3311079,6.14648397 37.4492422,6.6216076 Z M49.7437227,12.7585067 L49.7437227,12.7594111 L49.7437227,12.7585067 Z M4.94841933,6.0962788 C4.9301677,6.11270957 4.91325155,6.12959681 4.89678056,6.14694043 L2.00946068,9.11634926 C1.35551789,9.80233421 0.306716528,11.0606592 0.138890503,12.1633474 C0.129096942,12.2016835 0.120193705,12.2404808 0.111735629,12.2783632 C0.105948525,12.3376948 0.102832392,12.3965734 0.102832392,12.4545372 C0.102832392,13.0154661 0.47409739,13.5179745 1.00740131,13.641662 C1.54026007,13.7648929 2.07890593,13.5102154 2.31439656,13.0040557 C2.32864174,12.9784933 2.34867402,12.9465479 2.37671922,12.9123175 C2.38562246,12.8607405 2.39586118,12.8091688 2.40832571,12.7580508 C2.53030006,12.6754387 2.81965528,12.6380145 3.08230078,12.6539888 C3.11746857,12.6562496 3.15397184,12.6599423 3.19225576,12.6649387 C5.11535504,12.8812778 8.44160452,15.9866965 11.657899,18.9894232 C11.6739248,19.0040281 11.6903958,19.0186331 11.7077572,19.0327783 L15.9470336,22.5681366 L16.5813893,20.003108 L13.2092881,17.1911611 C9.69028356,13.9063798 6.61466021,11.0392077 4.07367626,10.3929297 L6.526073,7.86989135 C7.06471886,7.39248542 7.74848749,7.16930057 8.67620482,7.16930057 C11.2937566,7.16930057 14.212683,8.90959526 16.5876216,10.3249248 L18.6847791,11.496988 L18.8793149,10.7119608 L19.314238,9.11497995 L17.7348037,8.23273802 C15.1461874,6.6891564 11.9241058,4.76857986 8.67664999,4.76857986 C7.17155771,4.76857986 5.9166464,5.21540602 4.94841933,6.0962788 Z M30.5701559,10.459566 C30.3898653,10.5330503 30.1258843,10.637566 29.8236194,10.7525818 L30.0595552,11.5951161 L30.4152395,13.0880356 C30.972137,12.8803682 31.4083957,12.7019122 31.5058861,12.6617479 C31.5477313,12.6439477 31.5886862,12.6243237 31.6291959,12.6024163 L32.5827327,12.0702406 L32.322313,10.9789628 L31.9603964,9.68412544 L30.5701559,10.459566 Z M20.0621099,11.0072585 L19.7883354,12.1140547 L20.7449883,12.6485123 C20.7668012,12.6608338 20.7895044,12.6722434 20.8117625,12.6832009 C21.2061759,12.8707854 21.5805571,13.0355498 21.9402479,13.1788628 L22.3244226,11.6252408 L22.5389906,10.8388451 C22.3124032,10.7434533 22.0773577,10.6380227 21.8320735,10.5216377 L20.4106717,9.7274828 L20.0621099,11.0072585 Z M27.9178814,11.3924692 C27.8288491,11.4157482 27.7456038,11.4358319 27.669036,11.4518008 C27.4077259,11.5083968 27.1508675,11.5517549 26.8966801,11.5818774 C25.8060335,11.7114981 24.7599031,11.5983061 23.5998113,11.2318105 L23.4039401,11.9483753 L23.0073009,13.5517467 C24.630361,14.0501472 26.1452469,14.1596857 27.7193393,13.8853828 C27.8600104,13.861192 28.0006816,13.8333537 28.142243,13.8027722 C28.3777337,13.7539384 28.6470566,13.6818233 28.928844,13.5969316 C29.0370184,13.5640667 29.1474185,13.5293857 29.2578187,13.4933263 L28.8843279,11.9260135 L28.6715405,11.1651771 C28.4022176,11.2541768 28.1426882,11.3340488 27.9178814,11.3924692 L27.9178814,11.3924692 Z M17.0670609,23.1185753 L16.9838156,23.4330425 L18.9701279,25.0898131 L19.3315993,23.7297096 L19.6254062,22.5416722 L17.6226229,20.8716652 L17.0670609,23.1185753 Z M32.6949135,22.6548619 L33.3065659,25.2217165 C33.4450112,25.1190238 33.584792,25.0135932 33.725018,24.9058799 C33.7446051,24.8908153 33.7641923,24.8748463 33.7828891,24.8584101 L35.3115749,23.5224959 L34.6896838,20.9122824 L32.6949135,22.6548619 Z M20.4177943,24.0245506 L19.9236646,25.8844247 L20.3412264,26.2326665 C20.381291,26.2659835 20.4240265,26.2970171 20.4680976,26.3248614 C22.5959713,27.660319 24.4309285,28.3097916 26.076692,28.3102483 C26.0775823,28.3102483 26.0780274,28.3097916 26.0784726,28.3097916 C26.090492,28.3097916 26.1020662,28.3097916 26.1140856,28.3097916 C26.1167565,28.3097916 26.1194275,28.3097916 26.1225436,28.3097916 C26.134563,28.3097916 26.1465824,28.3097916 26.1586017,28.3093349 C26.1608275,28.3093349 26.1630534,28.3093349 26.1652792,28.3093349 C27.9321266,28.2842322 29.9317937,27.5083342 32.2315,25.9715991 L31.6407702,23.4910063 C29.5351545,25.0072033 27.7505006,25.8168758 26.3237568,25.9017683 C26.3224213,25.902225 26.3206407,25.902225 26.31886,25.902225 C26.3099568,25.9026809 26.3010535,25.9031293 26.2917051,25.9035815 C26.2872535,25.9040381 26.2832471,25.9040381 26.2792406,25.9044858 C26.272118,25.9049417 26.2649954,25.9049417 26.2578728,25.9053901 C26.2516406,25.9058468 26.2454083,25.9058468 26.239176,25.9062945 C26.2338341,25.9062945 26.228047,25.9067511 26.222705,25.9067511 C26.2146921,25.9072071 26.2071244,25.9072071 26.1995566,25.9076555 C26.195105,25.9076555 26.1910986,25.9076555 26.1866469,25.9081122 C26.1772985,25.9081122 26.1683953,25.9085681 26.1590469,25.9085681 C26.1563759,25.9085681 26.1532598,25.9085681 26.1505888,25.9085681 C26.1394598,25.9090248 26.1287759,25.9090248 26.118092,25.9090248 C26.1163114,25.9090248 26.1149759,25.9090248 26.1136404,25.9094815 C26.101621,25.9094815 26.0896017,25.9094815 26.0771371,25.9094815 C26.0771371,25.9094815 26.076692,25.9094815 26.076692,25.9094815 C26.076692,25.9094815 26.076692,25.9094815 26.0762468,25.9094815 C24.9059162,25.9094815 23.4524627,25.3741112 21.756396,24.3184331 L20.5860655,23.3426269 L20.4177943,24.0245506 Z" id="Fill-1" fill="url(#linearGradient-1)"></path>
                                            <path d="M20.3826265,0 C19.8034709,0 19.314238,0.385667107 19.1633281,0.966221653 C19.0155344,1.54586332 19.2568121,2.13143838 19.7558386,2.41852071 C19.776316,2.43130041 20.2744522,2.7375519 20.7075947,3.42079876 C21.0953306,4.03147644 21.5026538,5.07985197 21.2582599,6.61749991 L20.0621099,11.0072585 L17.0670609,23.1185753 L15.8112593,27.8488168 C15.5891235,28.7949565 15.032226,29.4521875 14.2015539,29.7483986 C13.8859342,29.8611316 13.5525079,29.9159009 13.2124043,29.9159009 C12.3928613,29.9159009 11.5328085,29.5964138 10.7791495,28.9898434 C8.58494664,27.2262721 7.55128078,25.071557 5.49196198,20.7776442 L3.47938517,16.6886602 C2.56635817,14.7872532 2.17372541,13.7128622 2.4096612,12.7457278 L0.138000179,12.1638034 C-0.310722984,14.0081599 0.401536006,15.7123973 1.38489857,17.7616819 L3.17622993,21.3878659 L3.39079796,21.8346917 C5.53736849,26.311625 6.71971841,28.7776122 9.33459923,30.8789281 C10.5009233,31.8173086 11.861338,32.3116012 13.1919268,32.3170784 L13.2377785,32.3170784 C13.2382237,32.3170784 13.2386688,32.3170784 13.239114,32.3170784 C13.2426753,32.3170784 13.2466817,32.3170784 13.2506882,32.3170784 C13.8365212,32.3129336 14.4165671,32.213929 14.9703485,32.0153909 C16.5453312,31.4530927 17.6813843,30.1390858 18.0784687,28.4448887 L19.330709,23.7297096 L22.3235322,11.6252393 L23.5290306,7.2026185 C23.5401596,7.16382364 23.5486177,7.12320309 23.5557403,7.08349531 C23.9123149,4.96392363 23.4039401,3.40345522 22.8421458,2.40072071 L24.5880707,2.40072071 L24.588961,2.40072071 C27.5621971,2.40072071 27.9125395,3.7767992 28.3252046,5.39797032 L30.0595552,11.5951161 L34.0646765,28.4024425 C34.4648771,30.13224 35.5964785,31.4480721 37.1714612,32.0131089 C37.7408232,32.2171243 38.3364498,32.3170784 38.9378635,32.3170784 C40.2769104,32.3170784 41.645338,31.8223292 42.8192298,30.8789281 C45.4234268,28.7853713 46.2946086,26.9679442 48.3993339,22.5777285 L50.8971371,17.4923995 C51.4972153,16.242747 51.9267965,15.1450786 52.0705838,14.0948777 C52.0705838,14.0939733 52.0705838,14.093069 52.0705838,14.0921647 C52.0714741,14.0871155 52.0719193,14.0825788 52.0728096,14.0780194 C52.0732548,14.0738746 52.0736999,14.0698051 52.0741451,14.0656979 C52.0745903,14.0643415 52.0745903,14.0625328 52.0750354,14.0606488 C52.1760872,13.2884013 52.1213323,12.5412572 51.8658093,11.7776815 L51.8662545,11.7772256 C51.8635835,11.7699216 51.8613577,11.7626184 51.8586868,11.7557726 L49.6484581,12.5462763 C49.9587359,13.4595541 49.7357098,14.4759805 48.8022054,16.4216597 L46.5416734,21.0104135 L46.2981699,21.5188551 C44.2490898,25.794055 43.5581985,27.234488 41.3742344,28.9898434 C40.6196851,29.5968698 39.7596323,29.9163576 38.9396442,29.9163576 C38.5968695,29.9163576 38.2616626,29.8606734 37.9433719,29.7470293 C37.1140353,29.4489929 36.5606991,28.7931305 36.340344,27.840601 L32.3218678,10.9789612 L30.5826204,4.76447217 C30.1592715,3.09948557 29.3726704,0 24.5880707,0 L20.3826265,0 Z M20.9110336,0.330897819 C20.9123691,0.332267125 20.9150401,0.332723812 20.9163756,0.334549052 C20.9150401,0.332723058 20.9123691,0.332267125 20.9110336,0.330897819 Z" id="Fill-4" fill="url(#linearGradient-2)"></path>
                                        </g>
                                    </g>
                                </g>
                            </g>
                        </g>
                    </g>
                </g>
            </g>
        </g>
    </g>
</svg>