<?xml version="1.0" encoding="UTF-8"?>
<svg width="62px" height="84px" viewBox="0 0 62 84" version="1.1" xmlns="http://www.w3.org/2000/svg" xmlns:xlink="http://www.w3.org/1999/xlink">
    <!-- Generator: Sketch 64 (93537) - https://sketch.com -->
    <title>Group</title>
    <desc>Created with Sketch.</desc>
    <g id="Symbols" stroke="none" stroke-width="1" fill="none" fill-rule="evenodd">
        <g id="3-Global/Footer/Sitemap/Desktop" transform="translate(-131.000000, -485.000000)">
            <g id="sitemap-Footer">
                <g id="bottom-footer" transform="translate(0.000000, 455.000000)">
                    <g id="Group-4" transform="translate(131.000000, 25.000000)">
                        <g id="Group" transform="translate(0.000000, 5.000000)">
                            <path d="M0.479266327,34.8193947 L2.10866429,44.2296136 L5.75938878,41.11464 C6.58405204,40.4115758 6.97408265,39.3227457 6.78491939,38.2545192 L5.12452143,28.884874 L1.5066949,31.9713192 C0.685511224,32.6718475 0.294847959,33.7546551 0.479266327,34.8193947" id="Fill-116" fill="#E5242D"></path>
                            <path d="M11.3316071,32.1036906 L14.9491173,29.0172453 L17.862801,45.8460906 C18.0472194,46.9108302 17.6565561,47.9939547 16.8353724,48.694483 L13.2178622,51.7809283 L10.3041786,34.951766 C10.1197602,33.8870264 10.5104235,32.8042189 11.3316071,32.1036906" id="Fill-118" fill="#E5242D"></path>
                            <path d="M21.1564245,32.2361887 L24.774251,29.1497434 L27.6964755,46.0299396 C27.8808939,47.0943623 27.4902306,48.1774868 26.6690469,48.8780151 L23.0515367,51.9644604 L20.1289959,35.0842642 C19.9445776,34.0195245 20.3352408,32.936717 21.1564245,32.2361887" id="Fill-120" fill="#E5242D"></path>
                            <path d="M55.3071633,3.08644528 L58.9249898,-9.00914563e-15 L61.8472143,16.8798792 C62.0316327,17.9446189 61.6409694,19.0277434 60.8197857,19.7279547 L57.2022755,22.8144 L54.2797347,5.93452075 C54.0953163,4.86978113 54.4859796,3.7866566 55.3071633,3.08644528" id="Fill-122" fill="#000000"></path>
                            <path d="M38.8887724,21.3811381 L42.506599,18.2946928 L47.9885378,50.0042174 C48.1729561,51.068957 47.7822929,52.1517645 46.9611092,52.8522928 L43.343599,55.9387381 L37.8613439,24.2292136 C37.6769255,23.164474 38.0675888,22.0816664 38.8887724,21.3811381" id="Fill-124" fill="#208D4B"></path>
                            <path d="M46.7776398,10.3773283 L50.3954663,7.29088302 L55.2444357,35.2990189 C55.4288541,36.3637585 55.0381908,37.446883 54.2170071,38.1470943 L50.5994969,41.2338566 L45.7502112,13.2257208 C45.5657929,12.1609811 45.9567724,11.0778566 46.7776398,10.3773283" id="Fill-126" fill="#000000"></path>
                            <path d="M30.9849429,32.3915728 L34.6027694,29.3041766 L38.1665041,49.8879804 C38.3506061,50.9508181 37.9615245,52.0317238 37.1435041,52.7325691 L33.5231469,55.8326445 L29.9578306,35.2396483 C29.7734122,34.1749087 30.1640755,33.0921011 30.9849429,32.3915728" id="Fill-128" fill="#208D4B"></path>
                            <polygon id="Fill-130" fill="#000000" points="6.06179694 77.0055894 7.22271531 77.0055894 7.22271531 79.7493781 10.3961031 79.7493781 10.3961031 77.0055894 11.5570214 77.0055894 11.5570214 83.7918385 10.3961031 83.7918385 10.3961031 80.8543743 7.22271531 80.8543743 7.22271531 83.7918385 6.06179694 83.7918385"></polygon>
                            <polygon id="Fill-132" fill="#000000" points="33.132452 83.7917751 34.2933704 83.7917751 34.2933704 77.005526 33.132452 77.005526"></polygon>
                            <path d="M57.2463714,81.9498928 C57.8268306,82.4443834 58.6394735,82.8127155 59.4230143,82.8127155 C60.0037898,82.8127155 60.7196367,82.5410626 60.7196367,81.8722325 C60.7389327,80.3792513 57.1495755,81.3488966 57.1884837,78.8960966 C57.1884837,77.5971079 58.3104939,76.8794626 59.5489122,76.8794626 C60.3229633,76.8794626 61.0097082,77.0829645 61.6385653,77.461123 L61.6385653,78.7601117 C61.0581061,78.2951004 60.3324531,77.96544 59.5682082,77.96544 C59.0554429,77.96544 58.3588918,78.2269494 58.3588918,78.8089268 C58.3588918,80.2530928 61.899851,79.3905872 61.899851,81.8043985 C61.899851,83.1715381 60.6905347,83.9082023 59.4426265,83.9082023 C58.6685755,83.9082023 57.8752286,83.7047004 57.2463714,83.307206 L57.2463714,81.9498928 Z" id="Fill-134" fill="#000000"></path>
                            <path d="M4.49527037e-15,77.0055894 L0.622214286,77.7590536 C0.791132653,77.9631894 1.04197959,78.0817404 1.3067449,78.0817404 L2.34872449,78.0817404 L2.34872449,83.7918385 L3.51944898,83.7918385 L3.51944898,78.0817404 L5.27822449,78.0817404 L5.27822449,77.0055894 L4.49527037e-15,77.0055894 Z" id="Fill-135" fill="#000000"></path>
                            <path d="M43.2520224,81.0579396 L44.1779102,78.5373057 L45.1139204,81.0579396 L43.2520224,81.0579396 Z M44.6906755,77.0056528 L42.8904612,77.0056528 L43.2248184,77.4104377 C43.3548286,77.5679774 43.3889918,77.7838415 43.3137061,77.9740302 L41.0073694,83.7919019 L42.1973898,83.7919019 L42.8746449,82.075766 L45.4814918,82.075766 L46.1682367,83.7919019 L47.3873592,83.7919019 L44.6906755,77.0056528 Z" id="Fill-136" fill="#000000"></path>
                            <path d="M14.051952,82.7350868 L14.051952,80.8154491 L16.7603398,80.8154491 L16.7603398,79.7881132 L14.051952,79.7881132 L14.051952,78.0624679 L16.9732276,78.0624679 L16.9732276,77.0056528 L12.2375031,77.0056528 L12.6819418,77.5438868 C12.8170133,77.7074491 12.8910337,77.9131698 12.8910337,78.1255472 L12.8910337,83.7915849 L16.9925235,83.7915849 L16.9925235,82.7350868 L14.051952,82.7350868 Z" id="Fill-137" fill="#000000"></path>
                            <path d="M21.2423071,82.7350868 L21.2423071,80.8154491 L23.9506949,80.8154491 L23.9506949,79.7881132 L21.2423071,79.7881132 L21.2423071,78.0624679 L24.1635827,78.0624679 L24.1635827,77.0056528 L19.4278582,77.0056528 L19.8722969,77.5438868 C20.0073684,77.7074491 20.0813888,77.9131698 20.0813888,78.1255472 L20.0813888,83.7915849 L24.1828786,83.7915849 L24.1828786,82.7350868 L21.2423071,82.7350868 Z" id="Fill-138" fill="#000000"></path>
                            <path d="M46.0022602,77.0055894 L46.6244745,77.7590536 C46.7930765,77.9631894 47.0442398,78.0817404 47.3090051,78.0817404 L48.4269031,78.0817404 L48.4269031,83.7918385 L49.5973112,83.7918385 L49.5973112,78.0817404 L51.3867704,78.0817404 L51.3867704,77.0055894 L46.0022602,77.0055894 Z" id="Fill-139" fill="#000000"></path>
                            <path d="M37.0168469,78.0526415 L38.3008163,78.0526415 C38.9878776,78.0526415 39.462051,78.4209736 39.462051,79.0802943 C39.462051,79.7396151 38.9878776,80.1076302 38.3008163,80.1076302 L37.0168469,80.1076302 L37.0168469,78.0526415 Z M40.8709694,83.7915849 L39.2684592,80.9856679 C40.0956531,80.7076755 40.6226531,80.0470868 40.6226531,79.0704679 C40.6226531,77.7521434 39.6648163,77.0056528 38.3008163,77.0056528 L35.2375102,77.0056528 L35.6563265,77.5125057 C35.791398,77.6763849 35.8657347,77.8817887 35.8657347,78.094166 L35.8657347,83.7915849 L37.0168469,83.7915849 L37.0168469,81.1356 L38.0736939,81.1356 L39.5522041,83.7915849 L40.8709694,83.7915849 Z" id="Fill-140" fill="#000000"></path>
                            <path d="M53.5097643,82.7350868 L53.5097643,80.8154491 L56.218152,80.8154491 L56.218152,79.7881132 L53.5097643,79.7881132 L53.5097643,78.0624679 L56.4310398,78.0624679 L56.4310398,77.0056528 L51.6953153,77.0056528 L52.1397541,77.5438868 C52.2748255,77.7074491 52.3488459,77.9131698 52.3488459,78.1255472 L52.3488459,83.7915849 L56.4503357,83.7915849 L56.4503357,82.7350868 L53.5097643,82.7350868 Z" id="Fill-141" fill="#000000"></path>
                            <polygon id="Fill-142" fill="#000000" points="30.7578204 77.0055894 28.589402 80.3773177 26.3940959 77.0055894 25.3011878 77.0055894 25.3011878 83.7918385 26.4330041 83.7918385 26.4330041 78.9981328 28.5606163 82.2440196 30.697402 78.9705555 30.697402 83.7918385 31.8295347 83.7918385 31.8295347 77.0055894"></polygon>
                            <path d="M15.2120163,63.0170853 L14.3841898,63.7493117 C14.1795265,63.9303079 14.0621694,64.1905494 14.0621694,64.4641042 L14.0621694,70.9691909 L15.2120163,70.9691909 L15.2120163,63.0170853 Z" id="Fill-143" fill="#000000"></path>
                            <path d="M11.5310194,69.0951351 C11.5310194,69.499286 11.2026724,69.8283125 10.7993561,69.8283125 L2.67387653,69.8283125 C2.27024388,69.8283125 1.94189694,69.499286 1.94189694,69.0951351 L1.94189694,66.9187426 L0.79205,66.9187426 L0.79205,69.0951351 C0.79205,70.1348332 1.63632551,70.9805389 2.67387653,70.9805389 L10.7993561,70.9805389 C11.8369071,70.9805389 12.6808663,70.1348332 12.6808663,69.0951351 L12.6808663,66.9187426 L11.5310194,66.9187426 L11.5310194,69.0951351 Z" id="Fill-144" fill="#000000"></path>
                            <path d="M51.9295867,72.6574642 C51.9295867,72.7623849 51.9479337,72.8628679 51.980199,72.9570113 L50.7661378,72.9570113 L50.7661378,73.5820981 L53.4144235,73.5820981 L53.4144235,72.9570113 L52.8523112,72.9570113 C52.6871888,72.9570113 52.5530663,72.8226113 52.5530663,72.6574642 C52.5530663,72.492317 52.6871888,72.3576 52.8523112,72.3576 L53.4144235,72.3576 L53.4144235,71.7328302 L52.8523112,71.7328302 C52.3433418,71.7328302 51.9295867,72.1477585 51.9295867,72.6574642" id="Fill-145" fill="#000000"></path>
                            <path d="M60.3846786,64.4642309 L60.3846786,70.9975291 L61.5345255,70.9975291 L61.5345255,63.0172121 L60.706699,63.7494385 C60.5020357,63.9301177 60.3846786,64.1906762 60.3846786,64.4642309" id="Fill-146" fill="#000000"></path>
                            <path d="M57.9648122,69.0836921 C57.9648122,69.48816 57.6364653,69.8168694 57.233149,69.8168694 L53.4144551,69.8168694 L53.4144551,64.8228317 L52.5863122,65.5550581 C52.381649,65.7360543 52.2646082,65.9966128 52.2646082,66.2701675 L52.2646082,69.8168694 L49.0070776,69.8168694 L49.6732612,70.6235864 C49.8538837,70.8423034 50.1227612,70.9690958 50.4061898,70.9690958 L57.233149,70.9690958 C58.2722816,70.9690958 59.1146592,70.1249751 59.1146592,69.0836921 L59.1146592,63.0169902 L58.2868327,63.7492166 C58.0821694,63.9302128 57.9648122,64.1904543 57.9648122,64.464326 L57.9648122,69.0836921 Z" id="Fill-147" fill="#000000"></path>
                            <path d="M17.6915735,71.4720498 C17.6915735,71.8771517 17.3638592,72.2052272 16.9595939,72.2052272 L14.0620429,72.2052272 L14.7282265,73.0119442 C14.9091653,73.2309781 15.1777265,73.3574536 15.4614714,73.3574536 L16.9599102,73.3574536 C17.9990429,73.3574536 18.8414204,72.5133328 18.8414204,71.4720498 L18.8414204,66.4738913 L18.0135939,67.2061177 C17.8089306,67.387114 17.6915735,67.6476725 17.6915735,67.9212272 L17.6915735,71.4720498 Z" id="Fill-148" fill="#000000"></path>
                            <path d="M4.74935816,66.6657917 L5.40447041,67.3219426 L6.05926633,66.6657917 C6.21395,66.5104709 6.21395,66.2587879 6.05926633,66.1037842 L5.40447041,65.4473162 L4.74935816,66.1037842 C4.59435816,66.2587879 4.59435816,66.5104709 4.74935816,66.6657917" id="Fill-149" fill="#000000"></path>
                            <path d="M7.4137449,66.6657917 L8.06854082,67.3219426 L8.72365306,66.6657917 C8.87833673,66.5104709 8.87833673,66.2587879 8.72365306,66.1037842 L8.06854082,65.4473162 L7.4137449,66.1037842 C7.2587449,66.2587879 7.2587449,66.5104709 7.4137449,66.6657917" id="Fill-150" fill="#000000"></path>
                            <path d="M45.9035663,69.8196589 C45.3370255,69.8196589 44.8780357,69.3597192 44.8780357,68.792006 C44.8780357,68.2246098 45.3370255,67.7646702 45.9035663,67.7646702 C46.4701071,67.7646702 46.9294133,68.2246098 46.9294133,68.792006 C46.9294133,69.3597192 46.4701071,69.8196589 45.9035663,69.8196589 M45.9035663,66.6149796 C44.7053214,66.6149796 43.7307194,67.5915985 43.7307194,68.792006 C43.7307194,69.3597192 43.2710969,69.8196589 42.7048724,69.8196589 L42.7048724,69.817123 L21.9807398,69.817123 C21.5764745,69.817123 21.2490765,69.4887306 21.2490765,69.0836287 L21.2490765,62.8574853 L20.4209337,63.5897117 C20.2162704,63.7707079 20.0992296,64.0309494 20.0992296,64.3045042 L20.0992296,69.0836287 C20.0992296,70.1249117 20.9416071,70.9690325 21.9807398,70.9690325 L42.7048724,70.9690325 C43.3378418,70.9690325 43.9069133,70.6948438 44.3042194,70.2608966 C44.7018418,70.6948438 45.2705969,70.9690325 45.9035663,70.9690325 C47.1018112,70.9690325 48.0767296,69.9924136 48.0767296,68.792006 C48.0767296,67.5915985 47.1018112,66.6149796 45.9035663,66.6149796" id="Fill-151" fill="#000000"></path>
                        </g>
                    </g>
                </g>
            </g>
        </g>
    </g>
</svg>