<?xml version="1.0" encoding="UTF-8"?>
<svg width="115px" height="80px" viewBox="0 0 115 80" version="1.1" xmlns="http://www.w3.org/2000/svg" xmlns:xlink="http://www.w3.org/1999/xlink">
    <title>D5B64E67-8CD2-4D43-A758-A869C2F4E985</title>
    <defs>
        <polygon id="path-1" points="0.701911111 0.13328 114.701911 0.13328 114.701911 33.520855 0.701911111 33.520855"></polygon>
        <path d="M31.7103191,0.579093023 L31.9148704,0.582333241 C35.4471515,0.69438861 38.2755957,3.69865248 38.2755957,7.38709302 L38.2755957,7.38709302 L38.2755957,34.718907 L38.2739362,34.718907 L38.2673809,34.8518886 C38.1894487,35.7736096 37.4464874,36.494907 36.5371915,36.494907 L36.5371915,36.494907 L36.3923225,36.4888514 C35.8665102,36.4447192 35.4032181,36.1624089 35.1149362,35.742 L35.1149362,35.742 L34.9068553,35.4517392 C33.8538054,34.0067376 32.6128684,32.6672355 31.2647234,31.9266977 L31.2647234,31.9266977 L31.1182575,31.8547046 C30.8200421,31.7242952 30.4919544,31.6737209 30.1669149,31.6737209 L30.1669149,31.6737209 L20.2990851,31.6737209 L20.4001837,31.4507531 C20.6573381,30.8490554 20.8127234,30.1908527 20.8127234,29.4864186 L20.8127234,29.4864186 L20.8068582,29.2389677 C20.7795967,28.6655349 20.6580718,28.1204302 20.4584043,27.6174884 L20.4584043,27.6174884 L29.8847872,27.6174884 L30.0648712,27.6187438 C30.922025,27.6311258 32.0086553,27.7441488 33.1068511,28.3488837 L33.1068511,28.3488837 L33.4287307,28.5343005 C33.7482247,28.7262515 34.060484,28.9374419 34.3648085,29.1646047 L34.3648085,29.1646047 L34.3648085,7.38709302 L34.3575661,7.18705209 C34.3384213,6.92285488 34.2819957,6.66912093 34.1963617,6.43025581 L34.1963617,6.43025581 L20.0161277,17.5328372 L19.9181378,17.6157655 C19.7141698,17.7716426 19.4636079,17.8658372 19.1904894,17.8658372 L19.1904894,17.8658372 L19.0663963,17.8592244 C18.8219453,17.8330342 18.6007477,17.7306213 18.4179574,17.5801628 L18.4179574,17.5801628 L18.4179574,17.5810233 L4.18461702,6.43025581 L4.12599421,6.6117107 C4.05546894,6.85732186 4.01617021,7.11725116 4.01617021,7.38709302 L4.01617021,7.38709302 L4.01617021,17.538 L4.01932865,17.7973372 C4.1454132,22.9679946 8.03127939,27.1579718 12.9463404,27.5693023 L12.9463404,27.5693023 L13.0557203,27.4110303 C13.6613931,26.5847933 14.6191915,26.0497209 15.6945957,26.0497209 L15.6945957,26.0497209 L15.8597349,26.0539356 C17.6105417,26.1434966 19.008766,27.6490909 19.008766,29.4864186 L19.008766,29.4864186 L19.0047015,29.6576631 C18.9183336,31.4731986 17.4664178,32.9231163 15.6945957,32.9231163 L15.6945957,32.9231163 L15.5015953,32.9173315 C14.5434766,32.8597511 13.6924747,32.3763445 13.1222553,31.647907 L13.1222553,31.647907 L12.8546978,31.6328755 C5.73815212,31.1611576 0.104553191,25.0370066 0.104553191,17.538 L0.104553191,17.538 L0.104553191,7.38709302 L0.107677012,7.17507315 C0.215707165,3.51376367 3.11206222,0.579093023 6.669,0.579093023 L6.669,0.579093023 L31.7103191,0.579093023 Z M29.7246383,4.63532558 L8.65634043,4.63532558 L19.1904894,13.2064186 L29.7246383,4.63532558 Z" id="path-3"></path>
        <linearGradient x1="0%" y1="6.85231698%" x2="101.068413%" y2="93.147683%" id="linearGradient-5">
            <stop stop-color="#00ABC4" offset="0%"></stop>
            <stop stop-color="#00C0C5" offset="21.9449367%"></stop>
            <stop stop-color="#FBD900" offset="60.5749769%"></stop>
            <stop stop-color="#F78A21" offset="100%"></stop>
        </linearGradient>
    </defs>
    <g id="Page-1" stroke="none" stroke-width="1" fill="none" fill-rule="evenodd">
        <g id="Footer-(ADCC-Logo)" transform="translate(-553.000000, -4322.000000)">
            <g id="Global/Footer/Sitemap/Desktop" transform="translate(79.000000, 3740.000000)">
                <g id="bottom-footer" transform="translate(0.000000, 550.179775)">
                    <g id="Group-4" transform="translate(132.000000, 24.820225)">
                        <g id="Group" transform="translate(342.000000, 7.000000)">
                            <g id="Group-46" transform="translate(0.000000, 46.000000)">
                                <mask id="mask-2" fill="white">
                                    <use xlink:href="#path-1"></use>
                                </mask>
                                <g id="Clip-9"></g>
                                <path d="M8.66958222,18.034195 C9.09180444,18.034195 9.36878222,17.810645 9.36962667,17.438345 C9.36962667,17.083045 9.13149333,16.850995 8.65522667,16.850145 L8.00922667,16.850145 L8.00838222,18.034195 L8.66958222,18.034195 Z M8.76753778,20.3240972 C9.23704889,20.324945 9.52078222,20.077595 9.52162667,19.683195 C9.52162667,19.303245 9.24549333,19.040595 8.76922667,19.039745 L8.00753778,19.039745 L8.00669333,20.323245 L8.76753778,20.3240972 Z M8.86380444,15.837795 C9.93962667,15.837795 10.5611378,16.465095 10.5602933,17.308295 C10.5602933,17.873545 10.2064711,18.336795 9.76060444,18.483845 C10.2520711,18.600295 10.7283378,19.056745 10.7283378,19.769045 C10.7274933,20.665795 10.0510933,21.323695 9.02087111,21.3228458 L6.82278222,21.321145 L6.82700444,15.836095 L8.86380444,15.837795 Z" id="Fill-8" fill="#161138" mask="url(#mask-2)"></path>
                                <path d="M2.76888889,19.1072 L4.09044444,19.10805 L3.43853333,17.2117 L2.76888889,19.1072 Z M4.47466667,20.2224 L2.36862222,20.2207 L1.97595556,21.3342 L0.7,21.33335 L2.75622222,15.85 L4.16222222,15.85085 L6.1872,21.3376 L4.86564444,21.3359 L4.47466667,20.2224 Z" id="Fill-13" fill="#161138" mask="url(#mask-2)"></path>
                                <path d="M11.5189061,19.34379 L11.52144,15.83924 L12.7357511,15.84009 L12.7332178,19.24434 C12.7332178,19.90904 13.1013956,20.24139 13.6781511,20.24224 C14.2540622,20.24309 14.6239289,19.90989 14.6239289,19.24604 L14.6264622,15.84094 L15.8407733,15.84179 L15.83824,19.34634 C15.8373956,20.72419 14.8764178,21.45009 13.6773067,21.4492407 C12.4781956,21.44839 11.5180622,20.72079 11.5189061,19.34379" id="Fill-10" fill="#161138" mask="url(#mask-2)"></path>
                                <path d="M20.7857556,20.1779811 C21.6234444,20.17883 22.3074444,19.69178 22.3082897,18.59273 C22.3091333,17.49453 21.6251333,16.99898 20.7882889,16.99813 L20.0806444,16.99813 L20.0789556,20.1779811 L20.7857556,20.1779811 Z M18.8629556,21.32973 L18.8671778,15.84468 L20.8423333,15.84553 C22.4797111,15.84638 23.5774889,16.89953 23.5766449,18.59443 C23.5758,20.28848 22.4754889,21.33228 20.8313556,21.3305821 L18.8629556,21.32973 Z" id="Fill-11" fill="#161138" mask="url(#mask-2)"></path>
                                <polygon id="Fill-12" fill="#161138" mask="url(#mask-2)" points="27.8315467 21.335595 27.8332356 19.154495 25.6579467 19.152795 25.6562578 21.333895 24.4419467 21.333045 24.4461689 15.847995 25.66048 15.848845 25.6587911 18.000195 27.83408 18.001045 27.8357689 15.851395 29.05768 15.852245 29.0534578 21.336445"></polygon>
                                <path d="M31.7825333,19.110805 L33.1040889,19.111655 L32.4521778,17.215305 L31.7825333,19.110805 Z M33.4883111,20.226005 L31.3822667,20.224305 L30.9896,21.337805 L29.7136444,21.336955 L31.7698667,15.853605 L33.1758667,15.854455 L35.2008444,21.341205 L33.8792889,21.339505 L33.4883111,20.226005 Z" id="Fill-13" fill="#161138" mask="url(#mask-2)"></path>
                                <path d="M37.7154311,18.05502 C38.1376533,18.05502 38.4146311,17.83062 38.4154756,17.46002 C38.4154756,17.10387 38.1773422,16.87182 37.7010756,16.87097 L37.05592,16.87097 L37.0542311,18.05502 L37.7154311,18.05502 Z M37.8133867,20.3449222 C38.2828978,20.34577 38.5674756,20.09842 38.5674756,19.70402 C38.5674756,19.32407 38.2913422,19.06057 37.8150756,19.06057 L37.0533867,19.05972 L37.0533867,20.34407 L37.8133867,20.3449222 Z M37.9096533,15.85862 C38.9854756,15.85862 39.6069867,16.48592 39.6061422,17.32912 C39.6061422,17.89437 39.25232,18.35762 38.8064533,18.50382 C39.29792,18.62112 39.7741867,19.07757 39.7741867,19.78987 C39.7733422,20.68662 39.0969422,21.34367 38.06672,21.3428208 L35.8686311,21.34112 L35.8728533,15.85692 L37.9096533,15.85862 Z" id="Fill-14" fill="#161138" mask="url(#mask-2)"></path>
                                <polygon id="Fill-15" fill="#161138" mask="url(#mask-2)" points="40.6095956 21.344775 40.6138178 15.859725 41.8433289 15.861425 41.8391067 21.345625"></polygon>
                                <path d="M44.5918262,18.61704 C44.5926711,16.90684 45.8846711,15.74744 47.40636,15.7482895 C49.0437378,15.74999 49.7648933,16.81079 49.9413822,17.59959 L48.7963156,17.96169 C48.7118711,17.58259 48.3664933,16.94084 47.4055156,16.93999 C46.6759156,16.93914 45.8525822,17.46529 45.8525822,18.61789 C45.8517378,19.64724 46.6041378,20.24224 47.4190267,20.24309 C48.36396,20.24394 48.7414267,19.60984 48.8486711,19.21544 L50.0097822,19.54949 C49.8324489,20.30684 49.10876,21.46709 47.4181822,21.4653919 C45.8500489,21.46454 44.5909822,20.32639 44.5918262,18.61704" id="Fill-16" fill="#161138" mask="url(#mask-2)"></path>
                                <path d="M53.3585956,20.2631511 C54.11184,20.264 54.9267289,19.754 54.927574,18.60905 C54.9284178,17.4641 54.1143733,16.94475 53.3611289,16.9439 C52.59944,16.9439 51.7853956,17.46155 51.7845505,18.6065 C51.7837067,19.75145 52.5977511,20.2631511 53.3585956,20.2631511 M53.3619733,15.7530481 C54.8912622,15.7539 56.1891733,16.87675 56.1883293,18.61755 C56.18664,20.34985 54.88704,21.471 53.3577511,21.4701505 C51.8208622,21.46845 50.5229511,20.34645 50.5237951,18.6133 C50.5254844,16.87335 51.82424,15.75135 53.3619733,15.7530481" id="Fill-17" fill="#161138" mask="url(#mask-2)"></path>
                                <polygon id="Fill-18" fill="#161138" mask="url(#mask-2)" points="60.5044533 21.35931 58.2624533 17.75276 58.25992 21.35761 57.0532089 21.35676 57.0574311 15.87171 58.53352 15.87256 60.5745422 19.20881 60.5770756 15.87426 61.7913867 15.87511 61.7880089 21.36016"></polygon>
                                <polygon id="Fill-19" fill="#161138" mask="url(#mask-2)" points="65.4095778 17.045815 65.4062 21.362115 64.1927333 21.362115 64.1952667 17.044965 62.5198889 17.043265 62.5207333 15.875365 67.0942444 15.878765 67.0925556 17.046665"></polygon>
                                <path d="M68.8359111,19.136985 L70.1574667,19.137835 L69.5055556,17.241485 L68.8359111,19.136985 Z M70.5416889,20.252185 L68.4356444,20.250485 L68.0429778,21.364835 L66.7670222,21.363135 L68.8232444,15.879785 L70.2292444,15.880635 L72.2542222,21.367385 L70.9326667,21.366535 L70.5416889,20.252185 Z" id="Fill-20" fill="#161138" mask="url(#mask-2)"></path>
                                <path d="M72.3169627,18.63642 C72.3178089,16.92707 73.6098089,15.76767 75.1314978,15.7685195 C76.7688756,15.76937 77.4900311,16.83017 77.6673644,17.61897 L76.5206089,17.98192 C76.4370089,17.60282 76.0916311,16.96022 75.1306533,16.96022 C74.4010533,16.95937 73.57772,17.48467 73.57772,18.63727 C73.5768756,19.66662 74.3292756,20.26247 75.1441644,20.26332 C76.0890978,20.26417 76.4665644,19.62922 76.5746533,19.23567 L77.7340756,19.56887 C77.5575867,20.32707 76.8338978,21.48647 75.14332,21.4856205 C73.5751867,21.48392 72.3152756,20.34662 72.3169627,18.63642" id="Fill-21" fill="#161138" mask="url(#mask-2)"></path>
                                <polygon id="Fill-22" fill="#161138" mask="url(#mask-2)" points="80.9247244 17.05678 80.9221911 21.37308 79.70788 21.37308 79.7104133 17.05593 78.0350356 17.05423 78.03588 15.88633 82.6085467 15.88973 82.6077022 17.05763"></polygon>
                                <path d="M84.9188618,18.645685 C84.9197067,16.935485 86.2125511,15.776085 87.7333956,15.7777831 C89.3707733,15.778635 90.0927733,16.839435 90.2684178,17.628235 L89.1233511,17.991185 C89.0389067,17.612085 88.6935289,16.969485 87.7325511,16.968635 C87.0029511,16.967785 86.1796178,17.493935 86.1796178,18.646535 C86.1787733,19.675035 86.9311733,20.271735 87.7452178,20.271735 C88.6909956,20.272585 89.0684622,19.638485 89.1757067,19.244085 L90.3368178,19.578135 C90.1594844,20.336335 89.4357956,21.495735 87.7452178,21.4940369 C86.1770844,21.493185 84.9180178,20.355035 84.9188618,18.645685" id="Fill-23" fill="#161138" mask="url(#mask-2)"></path>
                                <polygon id="Fill-24" fill="#161138" mask="url(#mask-2)" points="91.1642889 21.3809 91.1676667 15.89585 94.6189111 15.8984 94.6180667 17.051 92.3811333 17.0493 92.3811333 18.09395 94.4094889 18.09565 94.4086444 19.1709 92.3802889 19.1692 92.3794444 20.2215 94.6231333 20.2232 94.6222889 21.38345"></polygon>
                                <polygon id="Fill-25" fill="#161138" mask="url(#mask-2)" points="99.0946356 21.38651 96.85348 17.77996 96.8509467 21.38481 95.6433911 21.38396 95.6476133 15.89891 97.1237022 15.90061 99.1647244 19.23601 99.1672578 15.90146 100.381569 15.90316 100.378191 21.38736"></polygon>
                                <polygon id="Fill-26" fill="#161138" mask="url(#mask-2)" points="104.000098 17.073015 103.997564 21.389315 102.783253 21.389315 102.785787 17.072165 101.110409 17.070465 101.111253 15.903415 105.68392 15.905965 105.683076 17.073865"></polygon>
                                <path d="M108.348564,18.298545 C108.848476,18.298545 109.117009,18.020595 109.117853,17.633845 C109.117853,17.224145 108.84932,16.968295 108.349409,16.968295 L107.635009,16.967445 L107.634164,18.297695 L108.348564,18.298545 Z M108.063142,19.349995 L107.63332,19.349995 L107.631631,21.392545 L106.41732,21.391695 L106.421542,15.907495 L108.580787,15.908345 C109.656609,15.909195 110.348209,16.652095 110.347364,17.627895 C110.34652,18.369095 109.938653,18.934345 109.269853,19.173195 L110.375231,21.395095 L109.038476,21.394245 L108.063142,19.349995 Z" id="Fill-27" fill="#161138" mask="url(#mask-2)"></path>
                                <polygon id="Fill-28" fill="#161138" mask="url(#mask-2)" points="111.242898 21.39535 111.24712 15.9103 114.69752 15.91285 114.696676 17.06545 112.459742 17.06375 112.459742 18.1084 114.488942 18.10925 114.487253 19.1845 112.458053 19.18365 112.457209 20.23595 114.702587 20.2368 114.701742 21.3979"></polygon>
                                <path d="M107.141938,4.85758 L107.16136,6.50998 C107.170649,7.10668 107.627493,7.36083 107.86056,7.36083 L108.607893,7.36083 L108.607893,8.58313 L107.772738,8.58313 C107.500827,8.58313 107.277893,8.49558 107.112382,8.36808 C106.84976,9.65923 105.849093,10.54918 104.401716,10.66648 C104.003138,10.22618 103.925449,10.09018 103.488871,9.62013 C104.488693,9.54193 105.810249,8.85768 105.80096,7.73313 L105.771404,4.85758 L107.141938,4.85758 Z M111.620027,4.77938 C112.92216,4.77938 113.592649,5.60048 113.592649,6.67658 C113.592649,7.75268 112.92216,8.58313 111.620027,8.58313 L108.793671,8.58313 L108.793671,7.36083 L109.744516,7.36083 C109.67696,7.14578 109.647404,6.92138 109.647404,6.68593 C109.647404,5.60048 110.317893,4.77938 111.620027,4.77938 Z M101.40056,2.91108 L102.332827,3.79083 L101.127804,4.92558 C103.04216,5.08198 103.644249,6.88143 103.644249,8.58313 L97.7762044,8.58313 L97.7762044,7.36083 L102.255138,7.36083 C101.944382,6.04078 100.379627,5.72798 99.1070489,6.59838 L98.6020711,5.61068 L101.40056,2.91108 Z M111.620027,5.84528 C111.115049,5.84528 110.96896,6.27538 110.96896,6.68593 C110.96896,7.07778 111.115049,7.50788 111.620027,7.50788 C112.115716,7.50788 112.271093,7.07778 112.271093,6.68593 C112.271093,6.27538 112.115716,5.84528 111.620027,5.84528 Z M96.3102489,4.85758 L96.3296711,6.50998 C96.33896,7.10668 96.7958044,7.36083 97.0288711,7.36083 L97.9619822,7.36083 L97.9619822,8.58313 L96.9410489,8.58313 C96.6691378,8.58313 96.4462044,8.49558 96.2806933,8.36808 C96.0180711,9.65923 95.0174044,10.54918 93.5700267,10.66648 C93.1714489,10.22618 93.09376,10.09018 92.6563378,9.62013 C93.6570044,9.54193 94.97856,8.85768 94.9684267,7.73313 L94.9397156,4.85758 L96.3102489,4.85758 Z M96.2030044,2.95953 L96.2030044,4.09428 L95.0266933,4.10448 L95.0266933,2.95953 L96.2030044,2.95953 Z M89.32416,8.58313 L89.2760267,2.22683 L90.6364267,2.22683 L90.68456,8.58313 L89.32416,8.58313 Z M86.7114489,2.95953 L87.8776267,2.95953 L87.8776267,4.10363 L86.7114489,4.10363 L86.7114489,2.95953 Z M87.99416,4.86693 C88.0034489,5.98213 88.0135822,6.25583 88.0135822,7.21463 C88.0135822,8.04593 87.4984711,8.58313 86.5366489,8.58313 L85.0014489,8.58313 L85.0014489,7.36083 L86.1574933,7.36083 C86.4488267,7.36083 86.6531822,7.21463 86.6531822,6.89163 C86.6531822,6.20653 86.6430489,5.53248 86.63376,4.86693 L87.99416,4.86693 Z M86.2258933,2.95953 L86.2258933,4.10363 L85.0597156,4.10363 L85.0597156,2.95953 L86.2258933,2.95953 Z M76.0258489,7.36083 L77.3761156,7.36083 L77.3659822,5.69908 L78.7162489,5.69908 L78.7263822,7.21463 C79.64936,5.17973 81.2132711,4.79808 81.8550489,4.86693 C83.3708267,5.01398 83.8665156,6.14788 84.0218933,7.36083 L85.2556267,7.36083 L85.2556267,8.58313 L76.0258489,8.58313 L76.0258489,7.36083 Z M74.5776267,2.22683 L74.6071822,6.92138 C74.6071822,7.19508 74.7431378,7.32173 74.9280711,7.36083 L75.8409156,7.36083 L75.8409156,8.58313 L74.4323822,8.58313 C73.8395822,8.58313 73.2754933,8.16323 73.2662044,7.34128 L73.22736,2.22683 L74.5776267,2.22683 Z M81.5924267,6.03058 C81.1457156,6.03058 80.4076711,6.33403 79.7270489,7.36083 L82.7003378,7.36083 C82.6707822,6.76413 82.4090044,6.03058 81.5924267,6.03058 Z M71.9463378,2.22683 L71.96576,7.98728 C71.96576,9.48328 70.7413156,10.71578 69.2255378,10.71578 C67.7004711,10.71578 66.4853156,9.47393 66.4853156,7.97708 C66.4853156,7.69318 66.4464711,6.54908 66.4464711,5.95238 L67.7975822,5.95238 C67.8008997,6.14120143 67.8043249,6.42716571 67.8073577,6.72663583 L67.8107767,7.08713 C67.8144711,7.50278 67.8170044,7.87933 67.8170044,7.98728 C67.8262933,8.77863 68.4579378,9.41528 69.2154044,9.41528 C69.9838489,9.41528 70.6247822,8.76928 70.6146489,7.97708 L70.5758044,2.22683 L71.9463378,2.22683 Z M58.0738044,7.36083 L62.2504267,7.36083 C62.0274933,6.55928 61.4346933,6.07988 60.7346489,6.07988 C59.9087822,6.07988 59.4232267,6.52018 59.4232267,6.52018 L58.8886933,5.55203 C59.0542044,5.37523 59.6858489,4.86693 60.7346489,4.86693 C62.8432267,4.86693 63.6690933,6.85253 63.6792267,8.58313 L58.0738044,8.58313 L58.0738044,7.36083 Z M54.8286044,2.91108 L55.7608711,3.79083 L54.5566933,4.92558 C56.0336267,5.04288 56.7328267,6.06968 56.9760267,7.36083 L57.89816,7.36083 L57.89816,8.58313 L51.0784267,8.58313 L51.0784267,7.36083 L55.6831822,7.36083 C55.3732711,6.04078 53.9149156,5.73733 52.5350933,6.59838 L52.0301156,5.61068 L54.8286044,2.91108 Z M50.0980267,6.41223 L50.0982973,6.50329181 C50.0983649,6.5163401 50.0984495,6.5309731 50.0985552,6.54735563 L50.0994769,6.66796355 C50.1007199,6.81220278 50.1030284,7.03129154 50.1073156,7.36083 L51.2540711,7.36083 L51.2540711,8.58313 L49.97136,8.58313 C49.62176,9.72808 48.6894933,10.56958 47.3578044,10.67668 C46.9592267,10.23638 46.8621156,10.09018 46.4348267,9.63033 C47.14416,9.58103 48.1059822,9.18068 48.5138489,8.58313 L48.0282933,8.58313 C46.9786489,8.58313 46.3182933,7.63453 46.3182933,6.76413 C46.3182933,5.27833 47.5038933,4.85758 48.2419378,4.85758 C48.4555822,4.85758 50.0009156,4.95533 50.0980267,6.41223 Z M48.2326489,5.84528 C47.8146489,5.84528 47.5908711,6.24563 47.5908711,6.63748 C47.5908711,7.00893 47.7850933,7.36083 48.1938044,7.36083 L48.74776,7.36083 L48.74776,6.55928 C48.74776,6.20653 48.6894933,5.84528 48.2326489,5.84528 Z M43.1127822,4.77938 C44.4149156,4.77938 45.0854044,5.60048 45.0854044,6.67658 C45.0854044,7.75268 44.4149156,8.58313 43.1127822,8.58313 L40.1006489,8.58313 L40.1006489,7.36083 L41.2372711,7.36083 C41.1697156,7.14578 41.14016,6.92138 41.14016,6.68593 C41.14016,5.60048 41.8106489,4.77938 43.1127822,4.77938 Z M43.1127822,5.84528 C42.6078044,5.84528 42.4617156,6.27538 42.4617156,6.68593 C42.4617156,7.07778 42.6078044,7.50788 43.1127822,7.50788 C43.6084711,7.50788 43.7638489,7.07778 43.7638489,6.68593 C43.7638489,6.27538 43.6084711,5.84528 43.1127822,5.84528 Z M37.3418489,2.22683 L38.5173156,2.22683 L38.5173156,3.37093 L37.3418489,3.37093 L37.3418489,2.22683 Z M37.3714044,5.53248 C37.1864711,5.33698 37.0994933,5.27833 36.8368711,5.27833 C36.63336,5.27833 36.39016,5.42453 36.3606044,5.88438 C36.3411822,6.06033 36.4577156,6.47088 36.7786044,6.47088 L37.3806933,6.47088 L37.3714044,5.53248 Z M38.7216711,4.11383 L38.7318044,6.89163 C38.7318044,7.11688 38.8289156,7.36083 39.1692267,7.36083 L40.2762933,7.36083 L40.2762933,8.58313 L38.6439822,8.58313 C37.8282489,8.58313 37.4195378,7.85978 37.4001156,7.60563 L36.5066933,7.60563 C35.3405156,7.60563 35.0196267,6.42243 35.0196267,5.89373 C35.0196267,4.53458 35.9426044,4.11383 36.5750933,4.11383 C36.8951378,4.11383 37.15776,4.18268 37.3714044,4.37818 L37.3714044,4.11383 L38.7216711,4.11383 Z M36.8664267,2.22683 L36.8664267,3.37093 L35.69096,3.37093 L35.69096,2.22683 L36.8664267,2.22683 Z M30.8911378,8.58313 L30.8430044,2.22683 L32.2034044,2.22683 L32.2515378,8.58313 L30.8911378,8.58313 Z M32.09616,0.92548 C32.0471822,0.77928 31.9407822,0.72063 31.8335378,0.72063 C31.7271378,0.72063 31.6207378,0.79883 31.6207378,0.93568 C31.6207378,1.04278 31.6882933,1.19918 31.8918044,1.19918 L32.3782044,1.19918 L32.3782044,1.83498 L30.4250044,1.83498 L30.73576,1.19918 L31.0954933,1.19918 C30.9983822,1.07253 30.9983822,0.89658 30.9983822,0.84728 C30.9983822,0.46648 31.2702933,0.13328 31.6882933,0.13328 C31.9602044,0.13328 32.2034044,0.24123 32.3874933,0.49538 C32.3874933,0.51493 32.09616,0.92548 32.09616,0.92548 L32.09616,0.92548 Z M27.4230044,9.35663 L28.5984711,9.35663 L28.5984711,10.50073 L27.4230044,10.50073 L27.4230044,9.35663 Z M28.1036267,8.58313 L26.5684267,8.58313 L26.5684267,7.36083 L27.7244711,7.36083 C28.0158044,7.36083 28.22016,7.21463 28.22016,6.89163 C28.22016,6.20653 28.2100267,5.53248 28.2007378,4.86693 L29.5611378,4.86693 C29.5704267,5.98213 29.58056,6.25583 29.58056,7.21463 C29.58056,8.04593 29.0654489,8.58313 28.1036267,8.58313 L28.1036267,8.58313 Z M24.23776,6.55928 C24.23776,6.20653 24.1794933,5.84528 23.7226489,5.84528 C23.3046489,5.84528 23.0808711,6.24563 23.0808711,6.63748 C23.0808711,7.00893 23.2759378,7.36083 23.6838044,7.36083 L24.23776,7.36083 L24.23776,6.55928 Z M25.46136,8.58313 C25.11176,9.72808 24.1794933,10.56958 22.8478044,10.67668 C22.4492267,10.23638 22.3521156,10.09018 21.9248267,9.63033 C22.63416,9.58103 23.5959822,9.18068 24.0038489,8.58313 L23.5182933,8.58313 C22.4686489,8.58313 21.8082933,7.63453 21.8082933,6.76413 C21.8082933,5.27833 22.9938933,4.85758 23.7319378,4.85758 C23.9455822,4.85758 25.4909156,4.95533 25.5880267,6.41223 C25.5880267,6.45133 25.5880267,6.64683 25.59816,7.36083 L26.7440711,7.36083 L26.7440711,8.58313 L25.46136,8.58313 Z M17.5438489,2.95953 L18.7100267,2.95953 L18.7100267,4.09428 L17.5438489,4.09428 L17.5438489,2.95953 Z M16.4756267,2.77423 L16.4266489,5.57158 C17.1748267,5.00378 17.9812711,4.82783 18.3891378,4.86693 C20.4200267,5.06243 20.60496,7.05823 20.60496,8.58313 L13.8907822,8.58313 L13.8907822,7.36083 L15.1929156,7.36083 L15.1734933,2.77423 L16.4756267,2.77423 Z M18.1079378,6.03058 C17.6705156,6.03058 16.9316267,6.33403 16.2518489,7.36083 L19.2251378,7.36083 C19.1964267,6.76413 18.9338044,6.03058 18.1079378,6.03058 Z M12.3564267,9.35663 L12.3564267,10.50073 L11.18096,10.50073 L11.18096,9.35663 L12.3564267,9.35663 Z M12.4248267,4.85758 C12.4341156,5.38543 12.4341156,5.96258 12.4442489,6.49043 C12.4535378,7.10668 12.9002489,7.36083 13.1333156,7.36083 L14.0571378,7.36083 L14.0571378,8.58313 L13.0556267,8.58313 C12.5312267,8.58313 12.2103378,8.25078 12.05496,8.00683 C11.7830489,8.37828 11.3169156,8.58313 10.8507822,8.58313 C10.3061156,8.59333 9.86869333,8.58313 9.32487111,8.58313 L9.32487111,7.36083 L10.4614933,7.36083 C10.7241156,7.36083 11.0838489,7.20443 11.0838489,6.86273 L11.0644267,4.85758 L12.4248267,4.85758 Z M3.86553778,11.48843 L5.04100444,11.48843 L5.04100444,12.62318 L3.86553778,12.62318 L3.86553778,11.48843 Z M3.38927111,11.48843 L3.38927111,12.62318 L2.21380444,12.62318 L2.21380444,11.48843 L3.38927111,11.48843 Z M5.63464889,4.67143 C7.22811556,4.67143 7.80064889,5.74753 8.39344889,6.89163 C8.53953778,7.15598 8.66536,7.36083 9.07407111,7.36083 L9.50136,7.36083 L9.50136,8.58313 L8.66536,8.58313 C7.80064889,8.58313 7.44176,8.02638 7.16984889,7.37103 C6.85824889,6.62728 6.39211556,5.97193 5.68278222,5.98213 C5.17780444,5.98213 4.85691556,6.27538 4.70153778,6.64683 L6.49936,6.64683 L6.49936,7.93798 C6.49936,9.47393 5.27491556,10.71578 3.75913778,10.71578 C2.23407111,10.71578 1.01891556,9.46373 1.00962667,7.93798 C1.00962667,7.65408 1.00962667,7.25373 0.999493333,6.64683 L2.35060444,6.64683 C2.35757111,7.11603 2.35931278,7.4647425 2.35974819,7.71699328 L2.35989333,7.93798 L2.35989333,7.93798 C2.35989333,8.92568 3.17562667,9.38553 3.73971556,9.38553 C4.38064889,9.38553 5.17780444,8.92568 5.14824889,7.93798 L5.14824889,7.87933 L3.06922667,7.86998 C3.06922667,5.73733 4.12816,4.67143 5.63464889,4.67143 Z" id="Fill-29" fill="#161138" mask="url(#mask-2)"></path>
                                <path d="M26.9827956,31.35837 C26.9827956,30.06297 27.9615067,29.18407 29.1141733,29.18407 C30.3546622,29.18407 30.9018622,29.98732 31.0361289,30.58487 L30.16804,30.86027 C30.1047067,30.57297 29.8420844,30.08592 29.1141733,30.08592 C28.5610622,30.08592 27.9378622,30.48457 27.9378622,31.35837 C27.9378622,32.13782 28.5087067,32.58917 29.1259956,32.58917 C29.8420844,32.58917 30.1275067,32.10892 30.2094178,31.80972 L31.0884844,32.06132 C30.9542178,32.63592 30.4070178,33.51567 29.1259956,33.51567 C27.9378622,33.51567 26.9827956,32.65377 26.9827956,31.35837" id="Fill-30" fill="#161138" mask="url(#mask-2)"></path>
                                <path d="M33.5931067,32.60124 C34.1639511,32.60124 34.78124,32.21449 34.78124,31.34664 C34.78124,30.47964 34.1639511,30.08609 33.5931067,30.08609 C33.0163511,30.08609 32.3990622,30.47964 32.3990622,31.34664 C32.3990622,32.21449 33.0163511,32.60124 33.5931067,32.60124 M33.5931067,29.18424 C34.7516844,29.18424 35.7363067,30.03339 35.7363067,31.35259 C35.7363067,32.66584 34.7516844,33.51584 33.5931067,33.51584 C32.4286178,33.51584 31.4439956,32.66584 31.4439956,31.35259 C31.4439956,30.03339 32.4286178,29.18424 33.5931067,29.18424" id="Fill-31" fill="#161138" mask="url(#mask-2)"></path>
                                <polygon id="Fill-32" fill="#161138" mask="url(#mask-2)" points="39.0094578 33.42761 37.3087467 30.69571 37.3087467 33.42761 36.3950578 33.42761 36.3950578 29.27196 37.5131022 29.27196 39.0618133 31.79816 39.0618133 29.27196 39.9822578 29.27196 39.9822578 33.42761"></polygon>
                                <polygon id="Fill-33" fill="#161138" mask="url(#mask-2)" points="42.72552 30.156555 42.72552 33.427355 41.8050756 33.427355 41.8050756 30.156555 40.5358756 30.156555 40.5358756 29.271705 44.0006311 29.271705 44.0006311 30.156555"></polygon>
                                <path d="M45.35816,31.739425 L46.3596711,31.739425 L45.8648267,30.302925 L45.35816,31.739425 Z M46.6510044,32.583475 L45.0550044,32.583475 L44.7586044,33.427525 L43.7917156,33.427525 L45.3463378,29.271875 L46.4120267,29.271875 L47.94976,33.427525 L46.9482489,33.427525 L46.6510044,32.583475 Z" id="Fill-34" fill="#161138" mask="url(#mask-2)"></path>
                                <path d="M47.9907156,31.35837 C47.9907156,30.06297 48.9694267,29.18407 50.1220933,29.18407 C51.3625822,29.18407 51.9097822,29.98732 52.0440489,30.58487 L51.17596,30.86027 C51.1126267,30.57297 50.8500044,30.08592 50.1220933,30.08592 C49.5689822,30.08592 48.9457822,30.48457 48.9457822,31.35837 C48.9457822,32.13782 49.5166267,32.58917 50.1339156,32.58917 C50.8500044,32.58917 51.1354267,32.10892 51.2173378,31.80972 L52.0964044,32.06132 C51.9621378,32.63592 51.4149378,33.51567 50.1339156,33.51567 C48.9457822,33.51567 47.9907156,32.65377 47.9907156,31.35837" id="Fill-35" fill="#161138" mask="url(#mask-2)"></path>
                                <polygon id="Fill-36" fill="#161138" mask="url(#mask-2)" points="54.5195378 30.156555 54.5195378 33.427355 53.5990933 33.427355 53.5990933 30.156555 52.3298933 30.156555 52.3298933 29.271705 55.7946489 29.271705 55.7946489 30.156555"></polygon>
                                <path d="M56.1678089,32.278495 C56.4937644,32.278495 56.7673644,32.548795 56.7673644,32.876045 C56.7673644,33.199045 56.4937644,33.480395 56.1678089,33.480395 C55.8418533,33.480395 55.5741644,33.199045 55.5741644,32.876045 C55.5741644,32.548795 55.8418533,32.278495 56.1678089,32.278495" id="Fill-37" fill="#161138" mask="url(#mask-2)"></path>
                                <path d="M60.1803556,31.739425 L61.1818667,31.739425 L60.6870222,30.302925 L60.1803556,31.739425 Z M61.4732,32.583475 L59.8772,32.583475 L59.5808,33.427525 L58.6147556,33.427525 L60.1685333,29.271875 L61.2350667,29.271875 L62.7719556,33.427525 L61.7704444,33.427525 L61.4732,32.583475 Z" id="Fill-38" fill="#161138" mask="url(#mask-2)"></path>
                                <path d="M64.7525156,32.671535 C65.1080267,32.671535 65.32336,32.483685 65.32336,32.185335 C65.32336,31.898035 65.1139378,31.698285 64.7525156,31.698285 L64.17576,31.698285 L64.17576,32.671535 L64.7525156,32.671535 Z M64.6765156,30.936685 C64.9974044,30.936685 65.2068267,30.766685 65.2068267,30.485335 C65.2068267,30.215035 65.0261156,30.039935 64.6655378,30.039935 L64.17576,30.039935 L64.17576,30.936685 L64.6765156,30.936685 Z M64.8226044,29.271535 C65.6374933,29.271535 66.1095378,29.746685 66.1095378,30.385035 C66.1095378,30.813435 65.8410044,31.165335 65.5040711,31.276685 C65.8764711,31.364235 66.2378933,31.710185 66.2378933,32.249085 C66.2378933,32.929085 65.7244711,33.428035 64.9442044,33.428035 L63.27896,33.428035 L63.27896,29.271535 L64.8226044,29.271535 Z" id="Fill-39" fill="#161138" mask="url(#mask-2)"></path>
                                <path d="M66.8377022,31.927105 L66.8377022,29.271705 L67.7581467,29.271705 L67.7581467,31.850605 C67.7581467,32.355505 68.0376578,32.607105 68.4742356,32.607105 C68.9108133,32.607105 69.1903244,32.355505 69.1903244,31.850605 L69.1903244,29.271705 L70.1107689,29.271705 L70.1107689,31.927105 C70.1107689,32.970055 69.3828578,33.520855 68.4742356,33.520855 C67.5656133,33.520855 66.8377022,32.970055 66.8377022,31.927105" id="Fill-40" fill="#161138" mask="url(#mask-2)"></path>
                                <path d="M72.4290222,32.554235 C73.0640444,32.554235 73.5816889,32.185335 73.5816889,31.352335 C73.5816889,30.520185 73.0640444,30.145335 72.4290222,30.145335 L71.8928,30.145335 L71.8928,32.554235 L72.4290222,32.554235 Z M70.9723556,33.428035 L70.9723556,29.271535 L72.4695556,29.271535 C73.7100444,29.271535 74.5426667,30.068835 74.5426667,31.352335 C74.5426667,32.636685 73.7100444,33.428035 72.4636444,33.428035 L70.9723556,33.428035 Z" id="Fill-41" fill="#161138" mask="url(#mask-2)"></path>
                                <polygon id="Fill-42" fill="#161138" mask="url(#mask-2)" points="77.76912 33.42761 77.76912 31.77436 76.1207644 31.77436 76.1207644 33.42761 75.2011644 33.42761 75.2011644 29.27196 76.1207644 29.27196 76.1207644 30.90141 77.76912 30.90141 77.76912 29.27196 78.6954756 29.27196 78.6954756 33.42761"></polygon>
                                <path d="M80.7628444,31.739425 L81.7643556,31.739425 L81.2695111,30.302925 L80.7628444,31.739425 Z M82.0565333,32.583475 L80.4596889,32.583475 L80.1632889,33.427525 L79.1964,33.427525 L80.7518667,29.271875 L81.8175556,29.271875 L83.3544444,33.427525 L82.3529333,33.427525 L82.0565333,32.583475 Z" id="Fill-43" fill="#161138" mask="url(#mask-2)"></path>
                                <path d="M85.3353422,32.671535 C85.6900089,32.671535 85.9061867,32.483685 85.9061867,32.185335 C85.9061867,31.898035 85.6967644,31.698285 85.3353422,31.698285 L84.7585867,31.698285 L84.7585867,32.671535 L85.3353422,32.671535 Z M85.2593422,30.936685 C85.5802311,30.936685 85.7896533,30.766685 85.7896533,30.485335 C85.7896533,30.215035 85.6089422,30.039935 85.2483644,30.039935 L84.7585867,30.039935 L84.7585867,30.936685 L85.2593422,30.936685 Z M85.4054311,29.271535 C86.22032,29.271535 86.6923644,29.746685 86.6923644,30.385035 C86.6923644,30.813435 86.4238311,31.165335 86.0868978,31.276685 C86.4592978,31.364235 86.82072,31.710185 86.82072,32.249085 C86.82072,32.929085 86.3072978,33.428035 85.5270311,33.428035 L83.8617867,33.428035 L83.8617867,29.271535 L85.4054311,29.271535 Z" id="Fill-44" fill="#161138" mask="url(#mask-2)"></path>
                                <polygon id="Fill-45" fill="#161138" mask="url(#mask-2)" points="87.4550667 33.4271 88.3873333 33.4271 88.3873333 29.27145 87.4550667 29.27145"></polygon>
                            </g>
                            <g id="Group-49" transform="translate(39.000000, 0.000000)">
                                <mask id="mask-4" fill="white">
                                    <use xlink:href="#path-3"></use>
                                </mask>
                                <g id="Clip-48"></g>
                                <polygon id="Fill-47" fill="url(#linearGradient-5)" mask="url(#mask-4)" points="-0.829787234 37 39 37 39 0 -0.829787234 0"></polygon>
                            </g>
                        </g>
                    </g>
                </g>
            </g>
        </g>
    </g>
</svg>