<?xml version="1.0" encoding="utf-8"?>
<!-- Generator: Adobe Illustrator 28.0.0, SVG Export Plug-In . SVG Version: 6.00 Build 0)  -->
<svg version="1.1" id="Layer_1" xmlns="http://www.w3.org/2000/svg" xmlns:xlink="http://www.w3.org/1999/xlink" x="0px" y="0px"
	 viewBox="0 0 720 720" style="enable-background:new 0 0 720 720;" xml:space="preserve">
<style type="text/css">
	.st0{fill:url(#SVGID_1_);}
</style>
<linearGradient id="SVGID_1_" gradientUnits="userSpaceOnUse" x1="18.4672" y1="359.7361" x2="701.7915" y2="359.7361">
	<stop  offset="0" style="stop-color:#DEAFCF"/>
	<stop  offset="1" style="stop-color:#33B4DC"/>
</linearGradient>
<path class="st0" d="M360.1,429.6c18-14.4,37.5-18.9,59.1-11.4c27.3,9.5,43.9,35.2,41.7,65c-0.4,4.9,0.7,7.7,4.9,10.6
	c44.5,31.1,44.7,96.6,0.4,128c-4.3,3.1-5.7,5.9-5.3,11.1c2.5,34.7-20.1,62.8-54.6,67.9c-13.9,2-26.9-1.5-38.7-9.1
	c-2.5-1.6-4.9-3.4-7.3-5.1c-0.7,0.4-1.4,0.6-1.9,1c-20.6,15.9-42.9,18.5-65.7,6.3c-23.1-12.3-34.5-32.4-33.4-58.8
	c0.3-6.6-1-10.4-6.7-14.6c-42.9-31.5-41.9-96,1.8-126.7c4.1-2.9,5.4-5.6,5-10.6c-2.8-38.1,26.3-69.6,63.2-68.6
	C336.6,415.1,348.9,420.3,360.1,429.6z M299.5,526.1c-7.3-4.9-13.5-9.6-20.1-13.4c-6.2-3.6-12.4-2.9-17.2,2.9
	c-4.8,5.8-10.2,11.4-13.5,18c-13.7,27.4-2.6,60,24.6,74.2c11.2,5.9,11.5,7.2,9,20c-1.1,5.5-1.4,11.5-0.6,17.1
	c2.2,15,10.9,25.5,24.9,31.4c13.5,5.6,26,3.2,37.5-5.6c3.5-2.7,5.2-5.7,5.1-10.4c-0.5-68.6-0.8-137.2-1.4-205.9
	c0-3.3-2.3-7.5-4.9-9.5c-12.9-10-26.9-10.7-41.2-2.8c-14.7,8.1-22.2,23.6-20.5,41.2c0.5,4.8,2.1,7.6,7.1,9.5
	c11.1,4.1,20,11.4,27,21.4C309.4,518.5,304.2,522.5,299.5,526.1z M395.6,600.9c17.5-6.7,34.3-7.1,50.5,2.3c3.5,2,5.9,2.2,9.1-0.4
	c13.9-11.2,21.7-25.5,21.9-43.3c0.3-23.8-10.5-41.3-31.7-52.2c-8.7-4.5-10.2-7.7-8-17c0.9-4,1.7-8.1,1.7-12.2
	c0.1-16.6-7.4-29.2-22-36.9c-13.9-7.3-27.4-5.8-40.1,3.4c-4.8,3.4-7.1,7.5-7,13.8c0.6,66.1,1,132.3,0.9,198.4c0,8.5,3.3,13.1,9.9,17
	c14.2,8.3,31.1,6.7,44.2-4.3c12.4-10.6,18.1-30,12.4-43.7c-0.9-2.2-3.6-4.8-5.7-5.1c-9.1-1.1-18.2-1.4-28.6-2.1
	C401.1,614.2,398.5,607.9,395.6,600.9z M371,326.9c0,14.6,0,28.8,0,43.3c-7.3,0-14.1,0-21.6,0c0-14.3,0-28.6,0-41.7
	c-8.7-3.3-16.8-5.1-23.7-9.2c-13.2-7.7-19.8-20.1-20.6-35.3c-0.3-6-0.4-12,0-17.9c0.9-11.7-3.5-20.5-12.1-28.5
	C249.9,197,249.9,128,293.5,88.4c28.8-26.2,62.9-34.1,99.7-20.7c36.9,13.5,58.5,41.2,64.7,79.9c5.8,36.2-6.1,67-32.7,92
	c-6.8,6.4-10.2,13.8-10,23.1c0.2,8.5,0.6,17.1-0.5,25.5C411.8,309.9,396.5,323.3,371,326.9z M371.2,238.2c5,0,9.1-0.4,13.1,0.1
	c9,1,16.5-0.2,20.8-9.6c1.1-2.3,3.7-4,5.7-5.9c21.3-20.4,29.8-45.1,25-74.3c-6.5-39.8-45.6-70-83.8-64.3
	c-31.7,4.8-54.2,22.5-64.5,52.9c-10.5,30.9-3.5,58.7,18.8,82.7c4.8,5.2,9.3,10.7,14,16c1,1.1,2.5,2.2,3.8,2.3
	c8.2,0.2,16.4,0.1,24.2,0.1c2.6-10.9,0.6-18.7-9.2-24.3c-7.7-4.4-14.5-10.5-21.6-15.9c-13.2-10.1-17.2-32.4-8.3-46.5
	c9.6-15.3,29-16.6,43.1-2.8c7.8,7.6,7.8,7.6,15.7,0c1.5-1.4,3-2.9,4.6-4.1c11.3-8.5,26.4-6.5,36.1,3.6c8.6,9,9.4,36.7-0.9,45.4
	c-6.1,5.1-12.5,9.9-19,15c-2.6-3.4-4.7-6.1-6.7-8.9c-2.1-2.9-4.2-5.8-6.4-8.9c5-3.7,9.5-6.9,13.7-10.4c1.6-1.4,3.6-3.6,3.5-5.4
	c-0.2-4.3,0-10.4-2.6-12.5c-4.6-3.7-7.3,2.6-10.2,5.3c-12.3,11.5-27.9,11.6-40,0c-1.8-1.7-3.4-4.5-5.5-5c-2.1-0.5-6.1,0.3-7,1.9
	c-2.9,4.7,0,13.3,4.7,16.9c10.8,8.1,21.6,16.3,32.5,24.3c4.5,3.3,6.6,7.3,6.4,12.9C371,224.9,371.2,231.1,371.2,238.2z M327.3,270.7
	c22.4,0,44,0,65.5,0c0-3.7,0-6.8,0-10.1c-22,0-43.7,0-65.5,0C327.3,264.2,327.3,267.3,327.3,270.7z M331.3,293.3
	c5.4,10.2,9.5,11.3,37.8,11c8.4-0.1,15.4-2.5,20.6-11c-18.3,0-35.6,0-52.9,0C335.1,293.3,333.4,293.3,331.3,293.3z M613.5,513.8
	c48.3-0.2,88.3,39.6,88.3,87.9c0,48.7-39.3,88.4-87.7,88.5c-49,0.1-88.6-39.3-88.6-88.2C525.4,553.5,564.8,514,613.5,513.8z
	 M656.9,650.8c18.4-12.1,27.4-42.5,20.1-67.5c-7.9-27.2-33.2-46.7-61.1-47.3c-29.9-0.6-56,17.6-65.1,45.7
	c-7.8,23.8,0,54.5,16.8,66.4c0.7-7.4,0.1-15.3,2.5-22.2c2.4-7,7.7-13.1,12.3-20.5c-5.8-16.3-2.8-30.1,9.5-40
	c11.1-8.8,27.1-10,38.4-1.4c5.2,4,9.6,9.9,12.6,15.8c4.7,9.1,2.4,18.7-0.4,25.2c4.9,8.6,10.1,14.9,12.4,22.3
	C657.1,634.5,656.4,642.8,656.9,650.8z M634.3,664.6c0-10,0.1-19.4,0-28.8c-0.2-7.3-4.3-11.5-11.5-11.7c-6.9-0.2-13.8-0.2-20.6,0
	c-7.3,0.2-11.6,4.3-11.8,11.5c-0.2,8-0.3,16.1,0.1,24.1c0.1,1.9,2.4,4.8,4.2,5.4C607.6,669.3,620.7,669.3,634.3,664.6z M612.3,602
	c6.1,0,11-4.8,11-10.8c0-5.9-5.1-11-10.9-11c-5.8,0-11,5.1-11,10.9C601.3,597.1,606.2,602,612.3,602z M18.5,601.9
	c0.2-48.7,39.7-88.2,88.1-88c49,0.1,88.3,39.7,88.2,88.7c-0.1,48.7-40.1,88-89.1,87.7C57.7,689.9,18.3,649.9,18.5,601.9z
	 M76.1,607.6c-6.7-18.9-3.5-33,9.2-42.7c11.3-8.6,26.8-9,38.6-1c13.4,9.2,16.8,22.6,11.6,41c4.8,8.3,10.1,14.6,12.3,21.9
	c2.3,7.5,1.6,16,2.2,24.4c20.5-16.7,28.1-46.7,18.6-72.3c-10-27.1-36.2-44.2-65.5-43c-27.6,1.1-52.2,20.8-59.9,47.8
	c-6.8,23.7,1.2,53.1,18.2,64.8C60.2,632.5,61.3,617.6,76.1,607.6z M127.3,664.7c0-10.1,0.2-19.7-0.1-29.3c-0.2-6.9-4.4-11-11.3-11.2
	c-7.1-0.2-14.2-0.2-21.3,0c-6.6,0.2-11,4.2-11.2,10.6c-0.3,9.6-0.1,19.2-0.1,28.9C97.8,669.3,112.1,669.6,127.3,664.7z M105.2,602
	c6.1,0,11-4.8,11-10.8c0-5.9-5-11-10.9-11c-5.8,0-11,5-11,10.9C94.3,597.1,99.2,602,105.2,602z M267.7,53.7
	c-5.3,4.8-10.6,9.6-15.5,14c7.4,7.4,14.7,14.9,22,22.1c4.9-4.7,10-9.5,14.8-14.1C281.3,67.7,274,60.2,267.7,53.7z M454,52.9
	c-7.6,7.6-15.1,15.1-21.9,21.9c4.6,4.8,9.6,10,13.9,14.5c7.4-7.2,14.9-14.5,22.5-21.8C463.6,62.5,458.6,57.6,454,52.9z M249.5,150.4
	c-11,0-21.6,0-32.2,0c0,7.4,0,14.4,0,21.3c11,0,21.4,0,32.2,0C249.5,164.1,249.5,157.3,249.5,150.4z M503,171.7c0-7.3,0-14.2,0-21.2
	c-11,0-21.6,0-32.4,0c0,7.3,0,14,0,21.2C481.9,171.7,492.3,171.7,503,171.7z M349.6,50.2c7.4,0,14.4,0,21.2,0c0-11,0-21.4,0-32.2
	c-7.1,0-13.9,0-21.2,0C349.6,29.1,349.6,39.7,349.6,50.2z M602.9,491.4c7.3,0,14.2,0,21.3,0c0-7.3,0-14.3,0-21.4c-7.2,0-14,0-21.3,0
	C602.9,477.5,602.9,484.3,602.9,491.4z M117.2,470.3c-7.5,0-14.4,0-21.2,0c0,7.3,0,14.1,0,21.2c7.2,0,13.9,0,21.2,0
	C117.2,483.9,117.2,477,117.2,470.3z M624.3,426c-7.3,0-14.3,0-21.2,0c0,7.4,0,14.3,0,21.3c7.3,0,14.1,0,21.2,0
	C624.3,439.8,624.3,433,624.3,426z M559.1,447.2c7.2,0,14.1,0,20.9,0c0-7.4,0-14.4,0-21.4c-7.1,0-13.8,0-20.9,0
	C559.1,432.9,559.1,440,559.1,447.2z M491.9,426.1c-7.4,0-14.4,0-21.2,0c0,7.3,0,14.1,0,21.2c7.1,0,13.9,0,21.2,0
	C491.9,439.9,491.9,433,491.9,426.1z M228.2,447.3c7.3,0,14.2,0,21.3,0c0-7.3,0-14.3,0-21.4c-7.2,0-14,0-21.3,0
	C228.2,433.4,228.2,440.2,228.2,447.3z M184.3,426.1c0,7.5,0,14.4,0,21.2c7.3,0,14.1,0,21.2,0c0-7.2,0-13.9,0-21.2
	C198,426.1,191.1,426.1,184.3,426.1z M161.3,426.1c-7.4,0-14.3,0-21.1,0c0,7.4,0,14.4,0,21.2c7.3,0,14.1,0,21.1,0
	C161.3,440,161.3,433.1,161.3,426.1z M96.1,426.2c0,7.2,0,14.1,0,21c7.4,0,14.4,0,21.4,0c0-7.1,0-13.8,0-21
	C110.4,426.2,103.3,426.2,96.1,426.2z M370.7,403c0-7.2,0-14.1,0-21c-7.4,0-14.4,0-21.4,0c0,7.1,0,13.8,0,21
	C356.4,403,363.5,403,370.7,403z M514.9,447.1c7.4,0,14.4,0,21.2,0c0-7.3,0-14.1,0-21.2c-7.1,0-13.9,0-21.2,0
	C514.9,433.4,514.9,440.4,514.9,447.1z M298.6,568.2c-3.7,5.9-7.4,11.8-11.2,17.8c16.7,12.2,21.5,28.1,17.6,47.2
	c6.9,2.1,13.2,3.9,20,6C335.1,615.2,321.2,578.2,298.6,568.2z M401.9,531.4c11.9,14.6,27.5,21.2,46.3,20c0-5.3-0.3-9.8,0.1-14.4
	c0.4-5.5-1.7-7.4-7.3-7.9c-17.7-1.6-29.4-15.5-28.8-33.2c0.1-2.9,0.4-5.9,0.7-9.1c-6.7-2.2-13.2-4.2-20.3-6.5
	C387.6,499.3,389.7,516.4,401.9,531.4z"/>
</svg>
