<?xml version="1.0" encoding="utf-8"?>
<!-- Generator: Adobe Illustrator 28.0.0, SVG Export Plug-In . SVG Version: 6.00 Build 0)  -->
<svg version="1.1" id="Layer_1" xmlns="http://www.w3.org/2000/svg" xmlns:xlink="http://www.w3.org/1999/xlink" x="0px" y="0px"
	 viewBox="0 0 720 720" style="enable-background:new 0 0 720 720;" xml:space="preserve">
<style type="text/css">
	.st0{fill:url(#SVGID_1_);}
</style>
<linearGradient id="SVGID_1_" gradientUnits="userSpaceOnUse" x1="21.375" y1="359.8498" x2="698.875" y2="359.8498">
	<stop  offset="0" style="stop-color:#DEAFCF"/>
	<stop  offset="1" style="stop-color:#33B4DC"/>
</linearGradient>
<path class="st0" d="M21.4,305.5c0-29.1,0-58.3,0-87.4c21.7,0,43.4,0,65.6,0c0-3.9,0-6.2,0-8.6c0-22-0.2-44.1,0.2-66.1
	c0.1-3.7,1.7-8.2,4.2-11c17.3-19.7,35-39.1,52.5-58.6c15.7-17.6,31.3-35.2,47-52.8c147.4,0,294.8,0,442.2,0c0.2,2.8,0.5,5.7,0.5,8.5
	c0,60,0,120,0,180c0,2.6,0,5.1,0,8.6c22.4,0,43.8,0,65.3,0c0,29.5,0,58,0,87.5c-21.8,0-43.3,0-64.8,0c0,11.5,0,22.2,0,33.4
	c21.9-4,41.9-15.5,64.6-11.3c0,80.1,0,160,0,239.9c-42.9,0-85.2,0-127.6,0c-1.8-5.3-3.5-10.5-5.6-16.6c-13.8,11-26.9,21.5-40.3,32.2
	c11.9,14.9,14.4,30.7,4.2,46.4c-9.1,14.1-23.1,17.3-38.7,12.5c-10.1,20.8-19.6,25.7-43.7,22.3c-9.5,23.7-34.5,31.7-56,13.6
	c-6.2,12.7-16,20.1-30.4,20.9c-14.6,0.8-24.2-7.7-32.9-17.3c-24.8,11.9-37.9,7.7-53.7-17.1c-10.6,2.9-20.8,1.9-30.1-4.6
	c-9.2-6.5-13.5-15.8-14.8-26.6c-12.1-1.2-21.2-6.4-27.4-16.2c-6.3-10-6.6-20.7-1.9-32.9c-30.2-2.3-52.2-21.1-77-34.6
	c-1.3,4.2-2.7,7.5-3.3,10.9c-1.1,5.6-3.8,7.5-9.9,7.5c-29.3-0.4-58.7-0.1-88-0.1c0-80.3,0-160.6,0-241c23.3-3.2,43.5,8,65.2,15.2
	c0-12.7,0-24.4,0-36.4C64.5,305.5,42.9,305.5,21.4,305.5z M215.5,175.4c43.7,29.1,86,57.3,128.9,86c-43.1,28.7-85.5,57-129.1,86.1
	c0-15,0-28.4,0-41.7c-22.2,0-84.6,0-106.2,0c0,15,0,29.6,0,44.3c22.6,8.3,45,16.5,67.9,24.8c-2.6,8.5-5,16.5-7.4,24.7
	c15.7,7.9,31,15.7,46.4,23.1c3.2,1.6,7.1,2.4,10.7,2.5c22.5,0.2,45-0.4,67.5,0.3c10,0.3,20.2,2,29.8,4.8c5.9,1.8,10.2,1.6,15.4-1.2
	c12.7-6.6,25.2-14,39.9-15.1c26.2-2,52.4-3.6,78.5-5.4c20.4-1.4,40.9-2.8,62.2-4.2c-3.1-10.3-6.1-20.1-9.1-30c2-0.7,3.2-1.2,4.4-1.5
	c30.5-8.7,61-17.3,91.5-26.1c1.9-0.5,4.8-2.1,4.9-3.2c0.4-12.7,0.2-25.4,0.2-38c-22.3,0-84.6,0-106.7,0c0,13.7,0,27,0,41.7
	c-43.6-29.1-85.9-57.3-128.8-86c43.1-28.7,85.4-56.9,129.1-86c0,15.1,0,28.6,0,42c22.3,0,84.5,0,106,0c0-58.3,0-116.2,0-174.1
	c-131.1,0-261.8,0-393.2,0c0,36.4,0,72.2,0,108.7c-18.7,0-36.8,0-54.8,0c-18,0-36,0-54.1,0c0,22.3,0,43.8,0,65.2
	c21.9,0,84.3,0,106.2,0c0-7.2,0-13.8,0-20.4C215.5,190.2,215.5,183.6,215.5,175.4z M360,622.9c0.7-11.3,4.9-20.9,14.4-27.6
	c9.5-6.7,20-7.1,30.8-3.8c3.3-9.4,8.8-16.4,17.3-20.7c8.5-4.3,17.4-4,26.3-1.2c5.4-14.2,15-22.9,30-23.9c15.1-1,25.1,7.6,33.1,19.8
	c14.4-11.5,28.2-22.8,42.4-33.7c3.7-2.9,3.9-5.4,2.6-9.5c-6.1-18.9-11.9-37.8-17.8-56.7c-4.1-13.2-8.2-26.3-12.3-39.3
	c-1.3-0.1-2-0.3-2.6-0.3c-46.9,3.1-93.7,6.2-140.6,9.4c-10.7,0.7-20.1,5.3-29.6,11.2c14.7,9.2,29,17.9,43,27
	c18.5,12,23.8,36.4,12.3,54.7c-11.2,17.8-32.7,22.1-52.2,10.5c-12.3-7.3-24.5-14.8-36.9-22c-10.5-6.2-19.8-5.2-28.2,3.3
	C269,543.1,246,566,223.2,589c-6.1,6.1-6.4,13.6-1.2,18.7c5.3,5.2,12.3,4.8,18.6-1.6c17.5-17.4,35-34.9,52.4-52.4
	c1.5-1.5,3.1-2.9,4-3.7c5.5,4.9,10.7,9.6,17.1,15.3c-2.4,1.8-4.6,3-6.3,4.7c-17.4,17.3-34.6,34.6-52,51.9c-3.9,3.9-6.5,8.7-3.9,13.6
	c1.8,3.5,5.9,7.6,9.3,7.8c4.1,0.3,9.5-2.1,12.6-5.1c17.5-16.8,34.5-34.2,51.6-51.3c1.7-1.7,3.4-3.2,4.6-4.3
	c5.3,5.3,10.3,10.1,15.4,15.2c-14.7,14.7-29.5,29.5-44.3,44.3c-1.7,1.7-3.5,3.5-4.7,5.5c-2.8,4.9-2.3,9.8,1.4,14.1
	c3.6,4.1,8.2,4.9,13.3,3.3c5.3-1.6,5.5-5.7,5.5-10.5c0.1-17.5,13.5-31.3,31.2-32.3C351.8,622,355.7,622.7,360,622.9z M538.5,389
	c0.3,1.7,0.4,2.8,0.8,3.8c15.4,49.4,30.9,98.7,46.2,148.2c1.1,3.6,2.9,4.7,6.6,4.7c26.7-0.1,53.4-0.1,80.1-0.1
	c1.7,0,3.3-0.4,4.8-0.6c0-65.3,0-130.1,0-195.5C630.3,362.8,584.5,375.9,538.5,389z M163.5,421.3c-0.8,0.9-1.3,1.1-1.4,1.5
	c-10.6,33.8-21.2,67.6-31.6,101.5c-0.4,1.4,0.7,4.4,2,5.2c24.4,14.8,47.6,32,77.2,35.8c4,0.5,6.4,0.1,9.2-2.7
	c18.9-19.1,37.9-38.1,57-57.1c16.3-16.3,36.2-18.7,56-7c12.5,7.4,25,14.9,37.4,22.4c4.8,2.9,9.8,4.1,15.1,1.6
	c5.5-2.6,8.3-7.1,8.8-13c0.6-7.1-1.2-13.1-7.6-17.1c-19.3-12-38.5-24-57.7-36.1c-9.8-6.2-20.4-9.1-32-9c-24.9,0.1-49.8,0.1-74.7-0.1
	c-3.6,0-7.4-1-10.6-2.6C194.8,437,179.3,429.1,163.5,421.3z M43.7,545.6c17.3,0,34.3-0.2,51.2,0.1c4.5,0.1,6.5-1.2,7.8-5.7
	c9.4-30.9,19.2-61.8,28.8-92.7c6.1-19.5,12.2-39,18.5-59c-35.5-12.9-70.5-25.6-106.3-38.6C43.7,415.3,43.7,479.8,43.7,545.6z
	 M43.5,283.3c51.1,0,142.6,0,193.9,0c0,7.9,0,14.9,0,23.2c23.1-15.4,45-30,67.5-45.1c-23-15.3-44.9-29.9-67.9-45.3
	c0,8.6,0,15.7,0,23.5c-51.3,0-142.7,0-193.5,0C43.5,254.3,43.5,268.2,43.5,283.3z M483.6,216.1c-23.3,15.6-45.3,30.2-67.9,45.3
	c22.8,15.2,44.8,29.8,68,45.3c0-8.9,0-15.9,0-23.6c51,0,142.5,0,193,0c0-14.9,0-29.1,0-43.8c-51,0-142.3,0-193.1,0
	C483.6,231.7,483.6,224.7,483.6,216.1z M195.9,48.6c-24.7,27.5-48.5,53.9-73,81.1c25.3,0,49.1,0,73,0
	C195.9,102.8,195.9,76.5,195.9,48.6z M469.3,580.2c0.7,2.5,0.7,5.5,2.1,7.4c7.6,10.5,15.1,21.1,23.5,31c2,2.4,7.5,3.6,10.6,2.7
	c3.1-0.9,6.6-5,7.2-8.1c0.7-4.1-0.2-9.4-2.5-12.9c-6.2-9.6-13.4-18.5-20.3-27.6c-3.2-4.3-7.5-6.2-12.7-4.5
	C471.6,570.1,469.5,574.4,469.3,580.2z M425.9,651.4c-0.2-0.8-0.3-3.5-1.6-5.4c-7.6-10.5-15.1-21.1-23.3-31.1
	c-5.4-6.5-16.2-4.2-17.8,3.8c-0.9,4.5-0.3,10.5,2.1,14.2c6,9.7,13.4,18.5,20.2,27.6c3.4,4.6,7.9,6.5,13.3,4.5
	C424.3,663.1,426,658.5,425.9,651.4z M469.7,629.5c-0.4-1.2-0.8-4.3-2.4-6.5c-7.2-10-14.4-20-22.2-29.5c-5.6-6.8-16.7-4.9-18.3,3.2
	c-0.9,4.5-0.3,10.5,2,14.3c6,9.7,13.4,18.5,20.3,27.6c3.4,4.4,7.6,6.6,13.2,4.6C468.1,641.2,469.6,636.6,469.7,629.5z M371.4,667.4
	c-0.4-11.4-7.8-15.4-13.2-20.5c-4.4-4.2-12.2-3.6-16.3,0.4c-4.1,3.9-4.8,11.7-0.9,16.4c3.2,3.9,6.5,8.3,10.8,10.5
	c3.8,1.9,9.5,2.3,13.5,1C368.3,674,370.1,669.1,371.4,667.4z M260.8,115.3c0,6,0,11.6,0,17.3c96.7,0,193.1,0,289.7,0
	c0-6,0-11.6,0-17.3C453.7,115.3,357.2,115.3,260.8,115.3z M260.8,151.6c0,6.1,0,11.6,0,17.3c96.7,0,193.1,0,289.7,0
	c0-6,0-11.6,0-17.3C453.6,151.6,357.1,151.6,260.8,151.6z"/>
</svg>
