<?xml version="1.0" encoding="utf-8"?>
<!-- Generator: Adobe Illustrator 28.0.0, SVG Export Plug-In . SVG Version: 6.00 Build 0)  -->
<svg version="1.1" id="Layer_1" xmlns="http://www.w3.org/2000/svg" xmlns:xlink="http://www.w3.org/1999/xlink" x="0px" y="0px"
	 viewBox="0 0 720 720" style="enable-background:new 0 0 720 720;" xml:space="preserve">
<style type="text/css">
	.st0{fill:url(#SVGID_1_);}
</style>
<linearGradient id="SVGID_1_" gradientUnits="userSpaceOnUse" x1="43.684" y1="359.7438" x2="676.7299" y2="359.7438">
	<stop  offset="0" style="stop-color:#DEAFCF"/>
	<stop  offset="1" style="stop-color:#33B4DC"/>
</linearGradient>
<path class="st0" d="M341.6,43c5.4,0,10.7,0,16.1,0c0.2,0.1,0.3,0.4,0.5,0.4c31.4,9.8,42.5,24.2,44.1,56.9c0.1,1.5,1.6,3.8,3,4.4
	c9.9,3.9,19.9,7.4,30,11.1c0.9-1.6,1.6-2.8,2.3-4c14.9-27.7,36.5-48.2,65.7-59.7C514,47.9,525.7,46,537,43c9.1,0,18.1,0,27.2,0
	c1.1,0.4,2.2,1,3.3,1.2c48.9,8.1,82.7,35.3,101.1,81.2c3.8,9.6,5.5,20,8.1,30.1c0,9.5,0,19,0,28.4c-0.4,0.9-1.1,1.8-1.2,2.7
	C666.2,259,595,310,523.3,293c-4.9-1.2-6.8,0.4-8.3,4.9c-10.3,29.2-20.8,58.4-31.3,87.5c-5.8,16.2-11.7,32.4-17.7,49.1
	c18.5,8.9,34.1,21.2,46.5,36.9c1.1-0.4,1.7-0.5,2.2-0.8c19-12.3,38-24.5,56.8-37.1c1.5-1,2.4-4.5,1.8-6.4
	c-2.9-11.1-2.9-22.1,1.2-32.7c7.1-18.4,20.5-30.1,40-33.8c19.3-3.6,35.6,2.5,49,16.8c7.1,7.6,10.1,17.1,13.3,26.7
	c0,5.4,0,10.7,0,16.1c-0.4,1.4-0.9,2.7-1.3,4.1c-7,26.4-28.9,42.2-55.8,40.5c-12.9-0.8-23.5-6.5-33.2-15.2
	c-20.6,13.4-41.1,26.7-61.5,40c36,71.7,1.3,143.8-52.7,171.9c-29,15-59.5,19.1-90.9,10.6c-43.8-11.8-72.8-40.4-88.8-82.8
	c-15.3,3.6-30.1,6.9-44.8,10.7c-1.6,0.4-3.4,3.3-3.5,5.1c-1.2,15.6-7.7,28.3-19.8,38.3c-20.3,16.7-50.4,15.3-69.9-3.3
	c-18.8-18-21-49.4-4.8-69.8c23.8-30,67.4-27.1,87.5,5.8c0.9,1.5,3.1,3.5,4.2,3.2c15.4-3.4,30.6-7.2,46.2-11
	c-5.1-40.2,6.2-74.9,32.6-105c-13.9-15.2-27.4-30.1-40.9-45c-6.8,4.1-12.9,8.3-19.5,11.6c-34,17.2-68.9,18.7-104.4,5
	c-4.1-1.6-6.1-1.1-8.1,3c-4.1,8.3-8.6,16.4-13.5,24.2c-2.6,4.1-1.9,6.6,1.3,9.9c12.2,12.6,16.2,28,13.4,45
	c-4.5,26.8-29.6,45.1-57.8,42.8c-25.1-2-46.2-24.8-46.9-50.7c-1-34.4,30.1-60.3,63.6-53.2c1.8,0.4,5.1,0.1,5.8-1
	c6.3-10.5,12.1-21.3,18-32c-76.8-52.5-73.5-167.4,6.8-215.1c-9.6-20.1-19.1-40.3-28.8-60.6c-10.5,2-20.8,2.1-30.6-1.8
	c-18.4-7.2-30.2-20.4-33.8-40c-3.6-19.3,2.5-35.6,16.8-49c7.6-7.1,17.1-10.1,26.7-13.3c5.4,0,10.7,0,16.1,0c1.3,0.4,2.7,0.9,4,1.3
	c38.3,9.9,54.4,55,28.7,84.2c-7.7,8.8-7,14.1-2.4,22.9c8.1,15.4,15.1,31.4,22.4,46.8c67.8-19.5,119.7,1.3,157.6,59.7
	c38.2-16.2,76.6-32.4,115.2-48.8c-8-24.5-8.6-48.6-1.6-72.9c-10.6-4-20.6-7.9-30.7-11.3c-1.4-0.5-4.3,0.8-5.4,2.1
	c-12.2,15.3-27.7,22.6-47.4,21.1c-19.8-1.5-38.8-16.2-45-35.3c-6.7-21-0.5-43.5,15.1-56.8C322.8,49.4,332,46,341.6,43z M438.2,229
	c-2.5,1-4.4,1.6-6.3,2.4c-34.6,14.7-69.1,29.4-103.8,43.9c-4.6,1.9-5.5,3.7-4.1,8.6c7.9,29.2,6.3,58-6.9,85.3
	c-5.9,12.2-13.9,23.4-21.3,35.5c12.9,14.2,26.4,29.1,40.3,44.3c15.9-12,33.3-19.8,52.5-23.9c19.2-4.1,38.3-2.2,57.2,1.9
	c17.3-47.9,34.3-95,51.3-142.3C471.5,272.3,452,254.1,438.2,229z M629.7,237.8c36.1-40.4,35.5-108-11.3-148.3
	c-44.7-38.5-114.1-31.6-150.8,14.8c-35.8,45.3-24.6,106.4,2.3,132c5.7-7.8,10.7-16.5,17.5-23.4c6.9-7,15.7-12,23.7-17.9
	c-22-26-15-56.4,1.8-73.2c18-18.1,48.1-20.5,67.9-5.6c11,8.2,18.4,18.9,21,32.4c3.5,17.8-1.4,33.6-13.7,47.4
	C607.7,204.5,621.2,218.3,629.7,237.8z M281.3,385.8c35.8-39.7,35.7-106-8.9-146.5c-43.7-39.7-112-35.3-150.6,9.9
	c-37.7,44.1-29.2,105.4,0.7,135.9c8-19.3,22-32.9,41.1-41.4c-22.6-26.9-16-56.5,0.6-73.8c17.2-18,46.6-20.9,67.3-6.6
	c10.9,7.5,18.2,17.7,21.4,30.7c4.6,18.7-0.5,35.1-12.9,49.7C259.5,352.4,273,366.2,281.3,385.8z M374.6,575.8
	c-23.2-27.3-15.7-58.9,1.9-75.2c20.6-19,49.9-19.3,71.2-1.1c17.1,14.7,27.8,47.1,3.3,76.2c19.3,8.5,33.1,22.6,41.4,42
	c36.4-40.9,34.9-107-9.1-146.5c-44.6-40.1-112.5-35.3-151.4,11.1c-36.5,43.5-28.1,104.8,1.5,134.7
	C341.7,598,355.2,584.3,374.6,575.8z M412.8,655c21.3-0.5,40.8-5.9,58.1-18.1c1.6-1.1,3-4.5,2.5-6.3c-5.2-18-16.7-30.6-34.7-36
	c-15.8-4.7-32.4-4.3-48.2-1c-19.6,4.1-32.2,17-38.4,36.2c-1.2,3.7-0.2,5.5,2.9,7.5C372.6,648.9,392,654.6,412.8,655z M263.6,402.2
	c-5.5-21.7-18.4-36.6-40.2-40.8c-12.7-2.4-26.3-2-39.3-0.6c-21.7,2.3-35.4,15.6-42.9,35.9c-1.6,4.3-0.5,6.5,3.2,8.9
	C180.4,429.4,226.7,428.3,263.6,402.2z M550.7,212.3c-5,0-9.3-0.1-13.6,0c-22,0.8-41.4,16.3-47.6,37.5c-1,3.6-0.6,5.4,2.6,7.6
	c33.5,23.2,82.8,23.2,116.2-0.1c2.9-2,3.5-3.9,2.6-7.1c-3.3-11.2-9.7-20.3-18.9-27.4C579.6,213.1,565.1,211.2,550.7,212.3z
	 M191.3,570.9c-17.3,0-31.4,14.2-31.4,31.4c0,17.1,14.6,31.6,31.6,31.5c17.1-0.1,31.5-14.7,31.5-31.7
	C222.8,585,208.6,570.9,191.3,570.9z M550,190.4c17.5,0,31.5-13.8,31.6-31.1c0-17.3-13.9-31.4-31.3-31.5
	c-17.2-0.1-31.6,14-31.7,31.2C518.4,176.1,532.7,190.3,550,190.4z M412.8,570.2c17.4,0,31.5-14.1,31.5-31.4
	c0-17.3-14.2-31.2-31.6-31.2c-17.4,0-31.5,14.1-31.5,31.3C381.3,556.2,395.5,570.3,412.8,570.2z M349.8,127.2
	c17.1-0.1,31.5-14.5,31.4-31.6c-0.1-17-14.8-31.6-31.7-31.4C332.4,64.4,318,78.9,318.1,96C318.3,113.1,332.6,127.3,349.8,127.2z
	 M127.8,507.4c0.1-17.2-14.1-31.5-31.2-31.7c-17-0.1-31.6,14.2-31.7,31.3c-0.2,16.9,14.4,31.6,31.4,31.7
	C113.3,539,127.8,524.6,127.8,507.4z M96.2,127.2c17.3,0.1,31.6-13.9,31.6-31.2c0.1-17.2-13.9-31.5-31.1-31.8
	c-16.8-0.3-31.6,14.2-31.8,31.3C64.6,112.5,79.1,127.1,96.2,127.2z M233,306.7c0-17.4-14-31.4-31.4-31.3
	c-17.2,0.1-31.5,14.4-31.4,31.5c0.1,17.1,14.6,31.6,31.6,31.5C219,338.3,233,324,233,306.7z M624,443.7c17.2,0,31.5-14.3,31.6-31.4
	c0.1-16.9-14.6-31.6-31.6-31.6c-17.1,0-31.4,14.4-31.4,31.6C592.6,429.6,606.7,443.7,624,443.7z"/>
</svg>
