<?xml version="1.0" encoding="utf-8"?>
<!-- Generator: Adobe Illustrator 28.0.0, SVG Export Plug-In . SVG Version: 6.00 Build 0)  -->
<svg version="1.1" id="Layer_1" xmlns="http://www.w3.org/2000/svg" xmlns:xlink="http://www.w3.org/1999/xlink" x="0px" y="0px"
	 viewBox="0 0 720 720" style="enable-background:new 0 0 720 720;" xml:space="preserve">
<style type="text/css">
	.st0{fill:url(#SVGID_1_);}
</style>
<linearGradient id="SVGID_1_" gradientUnits="userSpaceOnUse" x1="98.3711" y1="359.8744" x2="621.9865" y2="359.8744">
	<stop  offset="0" style="stop-color:#DEAFCF"/>
	<stop  offset="1" style="stop-color:#33B4DC"/>
</linearGradient>
<path class="st0" d="M564.9,19.6c5.6,4.6,6.7,10.6,6.7,17.6c-0.2,79.1-0.1,158.1-0.1,237.2c0,14.3-3.4,17.6-17.5,17.6
	c-6.6,0-13.2,0-20.8,0c0,6.9,0,13.5,0,20c0,11.3-0.1,22.6,0,33.9c0.1,5.6-1.5,10.2-6.9,12.4c-5.4,2.2-9.8,0.2-13.8-3.7
	c-19.5-19.3-39.2-38.5-58.6-57.9c-3.4-3.4-6.7-4.8-11.6-4.8c-92.1,0.1-184.3,0.1-276.4,0.1c-13.2,0-16.9-3.6-16.9-17
	c0-79.3,0.1-158.6-0.1-237.8c0-7,1.1-13,6.7-17.6C292,19.6,428.4,19.6,564.9,19.6z M171.7,269.7c3.1,0,5.7,0,8.3,0
	c89.3,0,178.5,0,267.8-0.1c7.1,0,12.7,2,17.7,7.1c13,13.3,26.5,26.1,39.8,39.1c1.5,1.4,3.1,2.7,5.8,5.1c0-12.9,0-24.3,0-35.8
	c0.1-12,3.5-15.4,15.4-15.4c7.4,0,14.9,0,22.2,0c0-76.5,0-151.9,0-227.7c-125.8,0-251.3,0-377.1,0
	C171.7,117.8,171.7,193.2,171.7,269.7z M470.5,666.4c0,7.7,0.1,14.3,0,20.9c-0.1,8.3-4.5,12.7-12.7,12.7
	c-65.1,0.1-130.2,0.1-195.3,0c-8.2,0-12.4-4.6-12.5-12.9c-0.1-6.6,0-13.2,0-20.7c-3.1,0-5.6,0-8.2,0c-41.9,0-83.7,0-125.6,0
	c-14.4,0-17.8-3.2-17.5-17.5c0.3-19-2-38.1,3.6-56.7c11.7-38.8,38.2-62.2,77.4-69.7c23-4.4,46.7-4.3,69.6,2.8
	c21.4,6.6,38.7,19.1,51.7,37.4c0.8,1.1,1.6,2.1,2.4,3.1c37.8-16.1,75.5-16.1,111.7-0.8c10.6-9.5,20.2-19.8,31.3-27.8
	c16-11.5,34.5-16.4,54.3-16.6c21.5-0.2,43-1,63.1,8.8c37,18,56.7,47.3,58.1,88.6c0.4,10.8,0.1,21.7,0.1,32.5
	c0,12.1-3.7,15.9-15.8,16c-42.3,0-84.6,0-126.9,0C476.6,666.4,473.9,666.4,470.5,666.4z M272.8,677.6c58.5,0,116.7,0,175.4,0
	c0-7.9,0.1-15.4,0-22.9c-0.4-22.2-9.5-40.6-25.1-55.9c-25.8-25.3-57.7-26.7-89.9-19.8C295.6,587.2,265.1,623.9,272.8,677.6z
	 M434.6,579.1c19.5,17.8,30.3,39.8,34.8,64.8c43.6,0,86.7,0,130.1,0c0-8.8,0.1-17.2,0-25.6c-0.5-31.9-15.8-54.3-44-68.4
	c-16.7-8.3-34.7-7.9-52.6-7.5C474.3,543,451.2,554.3,434.6,579.1z M119.3,644c45.5,0,88.6,0,131.8,0c4.3-25.7,15.6-47.4,34.5-64.9
	c-8.8-13.5-20-23.1-34.1-29.5c-19.7-8.9-40.5-8-61.3-6.5c-30.1,2.2-57.7,23-65.5,51.9C120.6,610.4,121,627.1,119.3,644z
	 M511.9,507.6c-38.7,0-70.5-30.6-70.6-67.9c-0.1-37.5,32.1-68.9,70.6-68.9c38.6,0,70.8,31.4,70.6,68.9
	C582.2,477.2,550.7,507.6,511.9,507.6z M463.6,439.2c-0.1,25.5,21,45.9,48,46.4c26.3,0.5,49.1-21,48.9-46.3
	c-0.1-25.2-22.1-46.2-48.5-46.2C485.4,393,463.7,413.7,463.6,439.2z M430.9,473.1c-0.2,37.4-31.8,68.1-70.4,68.3
	c-38.7,0.3-71-31.4-70.8-69.3c0.2-37,32.7-67.9,71.1-67.4C399.8,405.1,431.1,435.7,430.9,473.1z M360.5,519.4
	c26.3-0.1,48.4-21.2,48.5-46.4c0.1-25-21.9-46.6-48.4-46.3c-29.8,0.3-48.9,23-48.6,46.5C312.4,498.6,334.1,519.5,360.5,519.4z
	 M208.7,507.6c-39-0.1-70.6-31-70.4-68.8c0.1-36.9,32.8-68.2,70.8-68c38.4,0.2,70.2,31.2,70.4,68.4
	C279.6,476.9,247.6,507.7,208.7,507.6z M160.5,439.2c-0.1,25.5,21,45.9,48,46.4c26.2,0.5,49.2-21.1,49-46.3
	c-0.1-25.2-22.2-46.2-48.6-46.2C182.4,393,160.6,413.7,160.5,439.2z M455.8,105.4c25.3,10.9,34.8,23.4,33.2,43.1
	c-1.4,17.2-13.5,30.4-33.2,35.3c0,8.5,0,17.3,0,26.1c0,5.3,0.1,10.6,0,15.9c-0.2,12.4-6.7,16.8-18.1,12.3
	c-31.2-12.3-62.4-24.7-93.6-37.1c-2.6-1-5.3-2-8.9-3.4c2.9,15.2,5.6,29.5,8.3,43.7c1.8,9.3-2.2,14.9-11.5,15
	c-13.7,0.2-27.5,0-41.2,0c-6.9,0-10.5-3.7-11.7-10.2c-3-16.3-6-32.6-9.3-48.8c-0.5-2.5-2.1-5.4-4-7c-7.9-6.8-11.7-15.4-11.9-25.6
	c-0.1-12-0.1-23.9,0-35.9c0.1-19.6,13.1-32.9,32.9-33.2c14.8-0.2,29.7,0.1,44.5-0.1c3.6-0.1,7.5-0.8,10.9-2.1
	c31.6-12.6,63.1-25.3,94.7-38c13.5-5.4,18.9-1.7,18.9,13.1C455.8,80.8,455.8,93.2,455.8,105.4z M433.2,80.9c-1.3,0-1.8-0.1-2.1,0
	c-26,10.4-52,20.8-77.9,31.4c-1.7,0.7-3.5,3.8-3.5,5.8c-0.3,18.8,0,37.6-0.3,56.4c-0.1,4,1.9,5.2,5,6.4c18.9,7.4,37.7,15,56.5,22.6
	c7.3,2.9,14.6,5.8,22.3,8.9C433.2,168.2,433.2,124.7,433.2,80.9z M326.9,118c-14.5,0-28.6-0.3-42.7,0.1c-5.4,0.2-8,4.2-8,9.6
	c0,12.4,0,24.8,0,37.2c0,6.3,3.5,10.5,9.4,10.8c13.6,0.6,27.3,0.2,41.3,0.2C326.9,156.5,326.9,137.7,326.9,118z M292.3,198.6
	c2.4,12.3,4.6,24.2,6.9,36c6.9,0,13.4,0,20.4,0c-1.4-7.2-2.6-14-4-20.6C311.9,196.1,311.8,196.1,292.3,198.6z M456.1,160.2
	c8.1-2.9,11-7.4,10.7-16.3c-0.3-7.7-3.5-11.9-10.7-13.9C456.1,139.9,456.1,149.8,456.1,160.2z"/>
</svg>
