<?xml version="1.0" encoding="utf-8"?>
<!-- Generator: Adobe Illustrator 28.0.0, SVG Export Plug-In . SVG Version: 6.00 Build 0)  -->
<svg version="1.1" id="Layer_1" xmlns="http://www.w3.org/2000/svg" xmlns:xlink="http://www.w3.org/1999/xlink" x="0px" y="0px"
	 viewBox="0 0 720 720" style="enable-background:new 0 0 720 720;" xml:space="preserve">
<style type="text/css">
	.st0{fill:url(#SVGID_1_);}
</style>
<linearGradient id="SVGID_1_" gradientUnits="userSpaceOnUse" x1="23.1032" y1="359.8794" x2="697.1505" y2="359.8794">
	<stop  offset="0" style="stop-color:#DEAFCF"/>
	<stop  offset="1" style="stop-color:#33B4DC"/>
</linearGradient>
<path class="st0" d="M31.7,701.8c-6.8-4.4-8.8-10.8-8.6-18.7c0.4-17.2,0-34.4,0.2-51.5c0.1-9.4,6.1-14.9,14.7-14.2
	c7.4,0.6,12.2,6.2,12.3,14.8c0.1,14,0,28,0,42.5c24.2,0,47.9,0,72,0c0-49.7,0-99.3,0-149.5c-3.8,0-7.3,0-10.8,0
	c-24.5,0-49.1,0-73.6,0c-8.8,0-14.4-5.1-14.6-13c-0.2-8.2,5.5-13.7,14.6-13.7c32.3-0.1,64.7,0.1,97-0.1c7.2,0,11.7,3.5,14.7,10.2
	c12.4-4.6,24.5-9,36.5-13.4c24.4-9,48.5-18.7,74.5-22.7c25.6-3.9,51-3.9,76.6-0.2c33.5,4.9,67,9.5,100.5,14.2
	c10.1,1.4,20.4,2.2,30.3,4.6c20.4,4.9,34.3,22.3,37.1,44.9c0.2,1.5,0.3,3,0.5,5.4c2.3-2.1,4.1-3.6,5.8-5.3
	c28.5-27.6,56.9-55.4,85.7-82.8c30.1-28.7,78.2-16,89.5,23.5c6.2,21.9-0.5,40.3-16.7,55.7c-37.3,35.6-74.8,70.9-111.7,106.8
	c-24.9,24.3-54.2,40.3-87.9,48c-10.8,2.4-22,3.7-33.1,3.8c-56.4,0.3-112.9,0.2-169.3-0.1c-23.3-0.1-45.3-6.5-66.2-16.5
	c-7.4-3.6-10.2-11-7.1-17.8c3.2-7.2,10.8-10.3,18.4-6.6c23.7,11.4,48.7,14.7,74.7,14.5c48.8-0.5,97.7,0,146.6-0.2
	c38.7-0.2,72.3-14,100.4-40.4c39.2-36.8,77.8-74.2,116.7-111.3c6.9-6.5,11-14,10-23.7c-1.1-11-7-18.8-17.3-22.6
	c-10.6-3.9-20.2-1.5-28.3,6.4c-26.9,26-53.7,52.3-80.9,78.1c-10,9.5-20.4,18.7-31.6,26.6c-13.7,9.5-29.8,12.9-46.3,12.9
	c-49.5,0.2-99,0-148.6-0.1c-8.4,0-13.6-3.1-15.6-9c-1.9-5.6-1.1-11.3,3.7-14.4c3.8-2.5,9.1-3.8,13.7-3.8
	c46.4-0.3,92.8-0.2,139.2-0.2c2.2,0,4.5,0,6.7-0.1c11.5-0.6,20.7-9.5,21.5-20.8c0.9-13.1-6.4-23-18.7-25.2
	c-4.2-0.7-8.3-1.2-11.1-1.6c-4.5,3.7-7.5,7.5-11.5,9.2c-6.8,3-13.7-1.4-16.9-9c-0.8-2-3-4.7-4.9-4.9c-29.9-4.4-59.9-8.6-89.9-12.4
	c-34-4.3-67.1-0.4-99.3,11.3c-25.3,9.2-50.4,18.7-75.9,28.1c0,12.7,0,25.1,0,37.6c0,35.9-0.2,71.8,0.2,107.7
	c0.1,8-1.7,14.2-8.2,18.9C104.9,701.8,68.3,701.8,31.7,701.8z M637.7,273.3c14.4-9.7,26.4-21.9,36.3-36.1c3.9-5.6,4.2-11.4,0-16.7
	c-3.3-4.2-3.3-7.8-0.7-12.1c1.1-1.9,2-4,2.5-6.2c1.2-4.8,3.9-7.3,9-8.2c7.1-1.2,11.8-6,12-13.3c0.4-15.1,0.3-30.2,0.2-45.3
	c-0.1-8.9-5-14.2-13.6-15.6c-4.3-0.7-6.1-2.9-7.2-6.6c-0.7-2.6-1.7-5.1-3.1-7.4c-2.7-4.3-2.3-7.9,0.8-12c4.1-5.3,3.9-11.2,0-16.7
	c-9.9-14.2-22-26.3-36.3-36.2c-4.8-3.3-10.2-4.5-14.9-0.8c-5.6,4.5-10.7,4-16.2,0.4c-1.3-0.8-2.9-1.3-4.4-1.7
	c-4.4-1-6.6-3.5-7.3-8.2c-1.1-7.1-5.6-12.2-12.9-12.5c-16.2-0.5-32.4-0.5-48.6,0.1c-6.6,0.2-11.2,4.7-12.3,11.3
	c-0.9,5.7-3.8,8.5-9.2,9.7c-2.3,0.5-4.7,1.5-6.7,2.9c-3.5,2.4-6.4,1.8-9.6-0.6c-6.6-5.1-13.5-5-19.4,0.7
	c-11.3,10.7-22.3,21.7-33,32.9c-5.9,6.1-6.1,13.2-0.7,20c2.6,3.3,2.5,6.2,0.4,9.6c-1.3,2.1-2.3,4.4-2.8,6.8
	c-1.1,5.6-4.5,8.2-9.9,9.1c-7.2,1.2-11.1,6.2-11.3,13c-0.5,15.7-0.4,31.5,0,47.3c0.2,6.9,4.6,11.8,11.5,13c5.7,1,8.5,3.8,9.8,9.1
	c0.6,2.3,1.5,4.8,2.8,6.7c2.4,3.5,1.8,6.5-0.7,9.6c-5.1,6.6-4.9,13.5,0.6,19.4c10.7,11.3,21.7,22.3,32.9,33c6.1,5.8,13,5.4,20.2,1
	c2.3-1.4,6-1.1,9-0.6c2.8,0.4,5.3,2.5,8,3.1c4.7,1.2,6.9,3.7,7.8,8.6c1.3,7.3,6,11.2,13.7,12.4c15.8,2.5,31.5,2.5,47.2-0.1
	c6.7-1.1,10.7-4.6,12.7-11.1c3.3-10.8,17.6-16.4,27.5-11.1c2.3,1.2,4.9,1.8,7.8,2.8C632.6,275.6,635.4,274.9,637.7,273.3z
	 M638.5,76.8c5.3,4.9,10.5,9.5,4,17.7c-1.8,2.3-0.8,7.8,0.5,11.3c3.3,9.4,7.7,18.4,11.2,27.7c2.1,5.6,5.9,8.9,11.6,9.9
	c4.8,0.8,6.4,3.2,5.9,7.7c-0.2,2.2-0.2,4.5,0,6.7c0.6,7.3,0.4,13.4-9.4,14.8c-3,0.4-6.2,4.9-7.8,8.3c-4.3,9-7.5,18.5-11.6,27.6
	c-2.5,5.5-2.5,10.5,1.1,15.1c3.1,3.9,2.2,6.7-1.1,9.7c-2,1.8-3.8,3.7-5.6,5.7c-4.6,5.2-8.8,8.5-16.2,3.2c-2.7-1.9-8.6-0.7-12.5,0.7
	c-9,3.1-17.6,7.3-26.5,10.6c-6.1,2.3-9.6,6.4-10.6,12.5c-0.7,4-2.6,5.2-6.3,4.9c-2.7-0.2-5.4-0.1-8,0.1c-7.3,0.6-13.3,0.3-14.8-9.4
	c-0.5-3.2-5.8-6.2-9.6-8.1c-8-3.9-16.5-6.5-24.5-10.4c-6.2-3.1-11.9-3.6-17.5,0.7c-3.2,2.5-5.6,1.7-8.1-0.8c-2-2.1-4.2-4-6.3-6
	c-5.2-4.7-9.4-9-3.5-16.7c1.9-2.4,0.8-8.2-0.5-11.8c-3.2-9.2-7.5-18-11-27.1c-2-5.3-5.2-8.7-10.6-10c-1.5-0.4-4.2-0.6-4.3-1.2
	c-1.1-7-2.1-14.1-2.3-21.1c0-1.8,2.6-4.9,4.4-5.2c8.2-1.6,11.7-6.8,14-14.3c2.2-7.2,5.1-14.2,8.7-20.9c3.5-6.6,4.5-12.5-0.3-18.6
	c-2.2-2.8-2-5,0.6-7.5c2.6-2.4,5-5.1,7.4-7.7c4.3-4.6,8.2-7.9,15-2.7c2.7,2,8.6,1.1,12.5-0.2c9.2-3.1,18-7.6,27.1-11
	c5.6-2.1,9.2-5.7,10.1-11.3c0.8-4.9,3.4-6.2,7.7-6.3c2.7,0,5.4-0.1,8-0.2c6.7-0.3,11.9,0.4,13.4,9c0.6,3.3,5.4,6.7,9.1,8.5
	c8.7,4.3,18.1,7.3,26.9,11.6c7.8,3.7,13.7,0.2,20-4.1C632.3,71.1,635.5,73.9,638.5,76.8z M225.3,191.1
	c-13.4,9.1-24.5,20.6-34.1,33.7c-4.9,6.6-5.4,13-0.3,19.5c2.6,3.2,2.7,6.1,0.5,9.6c-1.3,2-2.3,4.4-2.8,6.7c-1.3,5.3-4.1,8.2-9.8,9
	c-6.7,1-11.1,5.7-11.3,12.3c-0.5,16.2-0.6,32.4,0,48.6c0.2,6.8,4.7,11.5,11.9,12.5c5,0.7,7.9,3.3,9,8.2c0.5,2.4,1.5,4.8,2.8,6.8
	c2.8,4.1,2.1,7.5-0.8,11.4c-4.1,5.3-4.1,11.1-0.2,16.7c10,14.5,22.2,26.7,36.7,36.6c5.1,3.5,10.8,3.9,15.6,0.1
	c4.9-3.9,9.1-3.4,13.9-0.6c1.5,0.9,3.2,1.7,4.9,2.1c4.9,1,7.5,3.6,8.3,8.8c1.2,7.2,5.9,11.1,13.1,12.3c16,2.6,31.9,2.6,47.9-0.1
	c7.3-1.2,11.6-5.4,12.9-12.5c0.8-4.4,2.6-7.2,7.2-8.2c2.8-0.6,5.6-1.7,8-3.3c3.8-2.4,6.8-1.9,10.2,0.7c6.4,4.8,13.2,4.7,18.9-0.7
	c11.3-10.7,22.3-21.6,33.1-32.8c6-6.3,5.9-13.3,0.9-20.7c-1.4-2-1-5.6-0.5-8.3c0.4-2.6,2.2-4.9,2.8-7.4c1.3-5.3,4.3-8.2,9.8-9.1
	c7-1.2,11.3-5.9,11.5-12.9c0.4-15.5,0.4-31,0.1-46.5c-0.1-7.9-4.7-12.7-12.5-14.2c-4.3-0.8-7.2-2.6-8.2-7.3c-0.6-2.8-1.9-5.5-3.3-8
	c-2.2-3.7-2-6.8,0.7-10.3c4.9-6.3,4.7-13.2-0.7-18.9c-10.5-11.2-21.2-22.1-32.3-32.7c-6.4-6.2-13.6-6.4-21.3-1.3
	c-2,1.4-5.7,1-8.4,0.5c-2.8-0.5-5.3-2.5-8-3.2c-4.8-1.2-7.3-3.8-8.2-8.9c-1-6.1-4.8-10.5-11.3-11.7c-15.9-3-31.8-3-47.8-0.7
	c-8.8,1.3-13.3,5.8-15.4,14.2c-0.6,2.4-3.2,4.7-5.5,6.3c-2.3,1.6-5.5,1.9-7.9,3.4c-4.3,2.7-8,2.7-12.1-0.6c-2.1-1.7-5.2-2.2-8.5-3.6
	C231.5,188.1,228.1,189.1,225.3,191.1z M419.7,315.5c-0.1,1.6-2.7,4-4.5,4.4c-7.9,1.4-11.4,6.5-13.8,13.6c-2.5,7.6-5.6,15-9.2,22.1
	c-3.1,6.2-3.9,11.9,0.5,17.4c2.7,3.4,1.8,5.7-0.9,8.6c-4.5,4.7-8.5,9.7-12.7,14.5c-2.9-1.6-4.3-2.3-5.5-3.1
	c-6-4.1-11.7-3.9-18.2-0.6c-7.3,3.7-14.9,6.9-22.7,9.4c-6.9,2.2-11.6,5.8-12.7,13c-0.6,4-2.7,5.2-6.3,5.2c-3.3,0-6.7,0.3-10,0.4
	c-6,0-11.3-0.4-12.3-8.5c-0.7-5.7-5.7-8-10.8-9.7c-6.7-2.3-13.7-4.2-19.8-7.8c-8.9-5.2-16.9-6.7-26.9,2.9
	c-5.1-6-10.2-11.6-14.7-17.6c-0.9-1.2-0.7-4.3,0.3-5.7c4.6-6.5,3.9-12.5,0.2-19.3c-3.6-6.8-6.4-14.2-8.8-21.5c-2.3-7-5.8-12-13.5-13
	c-3.8-0.5-5.2-2.9-5.1-6.5c0.1-2.7,0-5.4-0.1-8c-0.4-7-0.3-13,9.2-14.4c3.1-0.5,6.4-5.2,8.1-8.8c4.3-8.8,7.4-18.1,11.5-26.9
	c2.8-6,2.3-11.2-1.5-16.3c-2.1-2.8-2-5.1,0.5-7.5c2.4-2.3,4.7-4.8,7-7.2c4.4-4.6,8.2-8.7,15.5-3.2c2.8,2.1,9,0.8,13.1-0.6
	c8.8-2.9,17.2-7.1,25.9-10.4c6-2.2,9.8-6.1,10.9-12.3c0.6-3.8,2.4-5.4,6.2-5.2c2.9,0.2,5.8-0.2,8.7-0.2c6.8-0.1,13.1-0.4,14.2,9.3
	c0.4,3,5.3,6.3,8.9,8c8.8,4.2,18.1,7.3,26.9,11.4c7.7,3.6,13.7,0.2,21.6-5c4.6,5.3,9.5,10.4,13.7,16.1c1.1,1.5,1,5.1,0,6.7
	c-4.1,6.2-3.7,11.8-0.3,18.1c3.1,5.6,6.3,11.5,7.7,17.6c2.5,10.6,7.5,18,19.7,18.7C419.9,301.3,420.2,308.4,419.7,315.5z
	 M50.3,570.6c-0.1-7.2-6.7-13.6-13.9-13.3c-7.2,0.2-12.9,6.1-13,13.4c-0.1,7.7,5.6,13.5,13.4,13.5C44.4,584.2,50.5,578.1,50.3,570.6
	z M635.1,147.8c-7-45.4-45.1-73.6-90.7-67.1c-35.5,5.1-65.4,40.6-64.1,76.2c0.3,7.8,5.4,13.3,12.7,13.6c7.9,0.3,13.3-4.6,14.1-12.8
	c0.3-2.7,0.6-5.3,1-8c4-26.3,27.4-45.1,53.4-42.8c27.4,2.4,47.9,24.6,47.2,51.1c-0.6,26.8-22.1,48.7-48.9,49.8
	c-9.7,0.4-15.4,5.7-15.3,13.9c0.2,8.3,6.1,13.1,16,13c41.3-0.7,75-35.5,75.1-77.6C635.4,154,635.5,150.9,635.1,147.8z M295.2,355.6
	c-24.5-5.9-41.5-28.4-39.5-51.8c2.4-27.5,21.8-46.5,49.1-48c9.5-0.5,15.1-6,14.8-14.4c-0.3-8.2-6.7-13.1-16.3-12.7
	c-47,2.1-80.7,43.4-73.6,90c5.8,37.7,39.6,66.2,77.8,65.5c38.7-0.7,72.1-31.1,76.1-69.2c0.2-2.2,0.2-4.5,0.2-6.7
	c0-9.2-5-15.2-12.9-15.4c-7.9-0.2-13.4,5.6-13.8,14.7c-1.4,28.1-23,49.1-50.6,49.5C302.7,356.6,298.9,356.5,295.2,355.6z"/>
</svg>
