<?xml version="1.0" encoding="utf-8"?>
<!-- Generator: Adobe Illustrator 28.0.0, SVG Export Plug-In . SVG Version: 6.00 Build 0)  -->
<svg version="1.1" id="Layer_1" xmlns="http://www.w3.org/2000/svg" xmlns:xlink="http://www.w3.org/1999/xlink" x="0px" y="0px"
	 viewBox="0 0 1080 1080" style="enable-background:new 0 0 1080 1080;" xml:space="preserve">
<style type="text/css">
	.st0{fill:#073D83;}
	.st1{fill:#F3BB00;}
	.st2{fill:#F6C900;}
	.st3{fill:#283583;}
	.st4{fill:#003450;}
	.st5{fill:#FFFFFF;}
</style>
<g>
	<g>
		<path class="st0" d="M277.6,533.7c0-149.2,121.4-270.6,270.6-270.6c18.4,0,36.4,1.9,53.8,5.4v183.8h204.3
			c8.1,25.7,12.5,53,12.5,81.4c0,149.2-121.4,270.6-270.6,270.6C399,804.3,277.6,682.9,277.6,533.7 M243.8,533.7
			c0,167.8,136.5,304.4,304.4,304.4c167.8,0,304.4-136.5,304.4-304.4c0-167.8-136.6-304.4-304.4-304.4
			C380.3,229.3,243.8,365.9,243.8,533.7"/>
		<path class="st1" d="M982.6,522.4c37.9-38.5,65.4-65.8,79.2-98.3c-8,9.6-16.8,19.3-26.5,29.1C918.7,571.4,713.2,639.6,583,636.7
			c-130.2-2.9-139.8-97-23.1-215.3c9.8-9.9,20.1-19.5,30.9-29.1c-60.3,32.5-97.7,55.5-135.7,94c-129.4,131.2-117.3,240.1,27.1,243.3
			C626.8,732.9,853.2,653.5,982.6,522.4"/>
	</g>
	<polygon class="st2" points="741.2,346.2 701.2,345.1 689.8,306.7 676.4,344.4 636.4,343.4 668.1,367.9 654.8,405.6 687.8,383 
		719.6,407.3 708.3,368.9 	"/>
	<g>
		<path class="st3" d="M26.1,602.5c-4.4,5-6.9,11.7-6,17.1c0.6,3.4,3,7.6,9.1,6.6c13.4-2.2,6.9-24.5,31.5-28.6
			c6.3-1,12.6,0.1,16.8,2.9c4.6,3.2,6.7,7.6,7.4,12.2c0.7,4.2,0.3,8.8-1.3,13.1L70.8,628c2.5-3.6,4.1-7.6,3.4-11.4
			c-0.5-2.9-2.9-6.2-8.1-5.4c-5.3,0.9-6.6,5.5-8,8.6c-1.7,4-3.2,7.7-6.6,11.3c-4,4.4-8.6,7.1-15.7,8.2c-7.1,1.2-13.8,0.2-18.8-3.1
			c-5.4-3.7-7.2-8.3-8.1-13.6c-0.8-4.9-0.3-10.1,1.6-15.1L26.1,602.5z"/>
		<path class="st0" d="M35.6,665.7c-5.6,1.5-11.8,2.6-14.2,7.1l-0.4,0.1l-5.3-19.7l0.3-0.1c4.3,2.7,10.3,0.6,15.8-0.9l40-10.7
			c5.6-1.5,11.8-2.6,14.2-7.1l0.3-0.1l5.3,19.7l-0.3,0.1c-4.3-2.8-10.3-0.5-15.9,0.9l-12.2,3.3l3.5,13.1l12.3-3.3
			c5.6-1.5,11.8-2.6,14.2-7.1l0.3-0.1l5.3,19.7l-0.3,0.1c-4.3-2.7-10.3-0.5-15.9,1l-40,10.7c-5.6,1.5-11.8,2.6-14.2,7.1l-0.3,0.1
			l-5.3-19.7l0.3-0.1c4.3,2.7,10.3,0.6,15.9-0.9l16.9-4.5l-3.5-13.1L35.6,665.7z"/>
		<path class="st0" d="M49.3,721.5c-0.5,2.8,0.3,5.5,1.2,8c1.5,4,3.8,7.3,9.6,8.2l0.1,0.4l-16.8,3.1l-11.8-31.4l0.3-0.1
			c4.5,2.3,10.2-0.4,15.6-2.4l38.9-14.6c5.4-2,11.5-3.8,13.4-8.4l0.3-0.1l9.3,24.9c0.4,1.1,0.8,2.2,1.7,2.8l0.1,0.2l-15.1,5.7
			l-0.1-0.2c4.2-3.7,2.1-7.6,0.8-11.1l-0.8-2.2l-16.9,6.3l2.5,6.6c0.4,1,0.8,1.9,1.5,2.4l0.1,0.4l-14.6,5.5l-0.1-0.3
			c3.8-2.6,2.2-5.7,1.2-8.3l-0.9-2.3L49.3,721.5z"/>
		<path class="st0" d="M69.8,761c-5.3,2.4-11.1,4.5-12.7,9.3l-0.3,0.1l-8.5-18.6l0.3-0.1c4.7,2,10.1-1.1,15.4-3.5l37.7-17.2
			c5.2-2.4,11.2-4.6,12.8-9.4l0.3-0.1l8.5,18.5l-0.3,0.1c-4.7-1.9-10.2,1.2-15.5,3.6L69.8,761z"/>
		<path class="st0" d="M89.6,815.3c-1.9,2.5-3.6,5-4.3,7.5l-0.3,0.2c-8.6-15.3-9.1-16.3-0.5-26.8L98,779.5l-14.6,8.1
			c-5,2.8-10.8,5.5-12,10.4l-0.3,0.2l-10-17.8l0.1,0l0.2-0.1c4.8,1.6,10.1-2,15.1-4.8l36.1-20.2c5.1-2.9,10.8-5.5,12-10.4l0.3-0.2
			l10,17.8l-0.3,0.2c-4.8-1.5-10.1,2-15.1,4.8l-14.8,8.3l20.1-0.4c2.7,0,6.6,0.3,9.5-1.3c2.5-1.4,3.4-3.7,3.8-5.6l0.3-0.2l9.1,16.2
			l-0.3,0.1l-33.8-0.2L89.6,815.3z"/>
		<path class="st0" d="M113.2,835.9c-4.7,3.4-10.2,6.6-10.8,11.6l-0.3,0.2l-11.8-16.6l0.3-0.2c4.9,1,9.8-3.1,14.5-6.4l33.7-24.1
			c4.7-3.3,10.2-6.6,10.8-11.6l0.3-0.2l11.8,16.6l-0.3,0.2c-5-1.1-9.8,3.1-14.5,6.5l-10.3,7.4l7.9,11l10.3-7.4
			c4.7-3.3,10.2-6.6,10.8-11.6l0.3-0.2l11.8,16.6l-0.3,0.2c-4.9-1-9.8,3.1-14.5,6.4l-33.7,24c-4.7,3.4-10.2,6.6-10.8,11.6l-0.3,0.2
			l-11.8-16.6l0.3-0.2c5,1,9.8-3.1,14.5-6.5l14.2-10.1l-7.9-11L113.2,835.9z"/>
		<path class="st0" d="M181.7,927.7c-1.2,2.9-2.1,5.8-2.2,8.4l-0.3,0.2c-12.3-12.4-13.1-13.2-7.7-25.7l8.6-19.6l-11.8,11.8
			c-4.1,4.1-9,8.2-8.8,13.2l-0.2,0.2l-14.4-14.4l0.1-0.1l0.2-0.2c5.1,0.2,9.2-4.6,13.3-8.7l29.3-29.2c4.2-4.1,9-8.2,8.8-13.2
			l0.2-0.2l14.4,14.4l-0.2,0.2c-5.1-0.2-9.2,4.6-13.3,8.7l-12,12l19.2-5.7c2.6-0.8,6.5-1.5,8.8-3.8c2.1-2,2.3-4.5,2.1-6.4l0.2-0.2
			l13.1,13.2l-0.3,0.2l-32.6,8.8L181.7,927.7z"/>
		<path class="st0" d="M210,941.3c-3.6,4.5-8,9.1-7.3,14.1l-0.2,0.2l-15.8-12.8l0.2-0.3c5-0.3,8.6-5.6,12.3-10.1l26-32.2
			c3.6-4.5,8-9.1,7.3-14.1l0.2-0.3l15.9,12.8l-0.2,0.2c-5.1,0.3-8.6,5.6-12.3,10.1L228,919l10.5,8.5l8-9.9c3.6-4.5,8-9.1,7.3-14.1
			l0.2-0.3l15.9,12.8l-0.2,0.3c-5,0.3-8.6,5.6-12.3,10.1l-26,32.2c-3.7,4.5-8,9.1-7.3,14.1l-0.2,0.3L208,960.1l0.2-0.2
			c5.1-0.4,8.6-5.6,12.3-10.1l11-13.6l-10.6-8.5L210,941.3z"/>
		<path class="st0" d="M270.9,977.6l-3.7,10.4c-0.6,1.7-0.8,2.3-1.8,3.9c-1.9,3-3.9,3.6-6.2,4.1l-0.2,0.3l19.3,12.3l0.1-0.1l0.1-0.2
			c-0.5-7.3,0.6-9.6,2.8-16.6l18.6-56l-15.7-10l-0.2,0.3c0.5,2,0.6,4.5-1,7c-1.2,2-4.6,5-6.2,6.6l-32.6,31.8
			c-4.2,4.1-6.7,6.3-11.3,8l-0.2,0.3l13.1,8.4l0.2-0.3c-0.3-2.2-0.6-4.1,1-6.7c1.3-2,3.8-4.4,5.4-6l5.6-5.4L270.9,977.6z
			 M274.3,967.5l-8.7-5.5l16-15.8l0.1,0.1L274.3,967.5z"/>
		<path class="st0" d="M308.6,1009.6c1.4,2.6,3.8,4.1,6.3,5.3c3.7,1.9,7.2,2.2,11.8,0.5l-9.5,12.6l-29.6-14.8l0.2-0.3
			c4.8-1.4,7.2-7.2,9.7-12.4l18.6-37.1c2.6-5.2,5.9-10.6,4.1-15.4l0.2-0.3l18.2,9.1l-0.1,0.3c-4.9,1.4-7.3,7.3-9.9,12.6
			L308.6,1009.6z"/>
		<path class="st0" d="M350.2,1024.9c-2.2,5.3-5.1,10.9-3,15.5l-0.1,0.3l-18.8-7.8l0.1-0.3c4.8-1.8,6.7-7.7,8.9-13l15.9-38.3
			c2.2-5.3,5.1-11,3-15.6l0.1-0.3l18.8,7.8l-0.1,0.3c-4.8,1.7-6.7,7.8-9,13.1L350.2,1024.9z"/>
		<path class="st0" d="M377.3,1034.4c-2.1,6.1-3.6,10.9-2,16.1l-0.1,0.3l-19.4-6.7l0.1-0.3c4.6-2.1,6.1-8.1,8.1-13.7l13.5-39.2
			c1.9-5.5,4.4-11.3,2-15.7l0.1-0.3l25.1,8.6c1.1,0.4,2.2,0.7,3.2,0.4l0.2,0.1l-5.2,15.2l-0.2-0.1c-0.2-5.6-4.6-6.4-8.1-7.6
			l-2.3-0.8l-5.9,17l5.2,1.8c1.1,0.4,2,0.6,2.8,0.4l0.4,0.1l-5.1,14.7l-0.3-0.1c0.4-4.3-2.6-5.1-5.2-6l-1.4-0.6L377.3,1034.4z"/>
		<path class="st0" d="M425.4,1042.1l-0.1,11.1c0,1.8,0,2.4-0.4,4.2c-0.9,3.5-2.6,4.6-4.6,5.9l-0.1,0.3l22.2,5.5l0-0.1l0.1-0.2
			c-2.8-6.8-2.5-9.3-2.6-16.7l-0.3-59l-18-4.4l-0.1,0.3c1.1,1.8,2,4,1.3,6.9c-0.6,2.3-2.8,6.2-3.8,8.3l-20.7,40.6
			c-2.7,5.2-4.4,8.1-8.1,11.2l-0.1,0.3l15.1,3.7l0.1-0.3c-0.9-1.9-1.9-3.7-1.2-6.7c0.5-2.3,2.2-5.4,3.2-7.4l3.6-6.9L425.4,1042.1z
			 M425.5,1031.4l-10-2.4l10.1-20.1h0.1L425.5,1031.4z"/>
		<path class="st0" d="M499.6,1063.9c2.4,1.7,5.1,2.1,7.8,2.3c4.2,0.4,8.3-0.3,11.6-5.2l0.4,0l-4.4,16.5l-33.5-2.8l0-0.3
			c4-3.1,4-9.4,4.5-15.1l3.5-41.4c0.5-5.8,1.6-12.1-1.9-15.7l0-0.3l26.4,2.2c1.1,0.1,2.3,0.2,3.2-0.3h0.2l-1.3,16.1l-0.3,0
			c-1.6-5.4-5.9-5.2-9.6-5.5l-2.4-0.2l-1.5,17.9l7,0.6c1,0.1,2.1,0.1,2.8-0.3l0.4,0l-1.3,15.5l-0.4-0.1c-0.7-4.5-4.2-4.4-7-4.6
			l-2.5-0.2L499.6,1063.9z"/>
		<path class="st0" d="M568.7,1061.8c2.4,5.6,4.8,11.7,8.4,15.8v0.2v0.1l-17.8,0.2v-0.4l-11.1-28l-6.1,14.3c-0.7,2-1.7,4-1.7,6.5
			c0,2.9,0.9,5.9,2.5,7.4v0.3l-16.7,0.2l0-0.3l17.6-38.1l-9.7-23.9c-1.8-4.4-3.3-8-6.2-10.5l0-0.3l17.8-0.2v0.3l9,23.1l3.7-8.6
			c1-2.3,2.4-5.9,2.4-8.8c0-2.4-1.3-5.1-2.9-5.9v-0.3l16.6-0.2v0.3l-15.5,33.4L568.7,1061.8z"/>
		<path class="st0" d="M621.6,1014.7c-4.1-3.2-8.8-4.8-13.3-4.2c-10.3,1.2-11.8,13.7-10.2,27.1c1.8,15.2,8.3,27,19.5,25.7
			c5.9-0.7,10.8-4.5,15.4-9.1l-1.8,16.6c-4.7,2.6-9.6,3.8-14.7,4.4c-7.7,0.9-14.4-0.2-21.3-7.1c-6.7-6.5-11-16.5-12.3-27.8
			c-1.2-10.2,0.4-21.2,4.9-28.7c4.9-7.9,12.5-11.5,19.8-12.3l11.5,0.1L621.6,1014.7z"/>
		<path class="st0" d="M659.2,1053.7c2.8,0.9,5.5,0.5,8.1-0.1c4.2-0.9,7.8-2.7,9.5-8.4l0.4-0.1l0.6,17.1l-32.8,7.2l-0.1-0.3
			c2.9-4.2,1.1-10.2-0.2-15.8l-8.9-40.6c-1.2-5.7-2.1-12-6.4-14.4l-0.1-0.3l25.9-5.7c1.1-0.2,2.3-0.5,3-1.2l0.2-0.1l3.4,15.8
			l-0.2,0.1c-3.1-4.7-7.2-3.2-10.9-2.4l-2.4,0.5l3.9,17.6l6.9-1.5c1.1-0.2,2.1-0.6,2.6-1.2l0.4-0.1l3.3,15.2l-0.4,0.1
			c-2-4.1-5.3-2.9-8-2.3l-2.4,0.5L659.2,1053.7z"/>
		<path class="st0" d="M702.7,1042c2.8,0.9,5.5,0.2,8.2-0.6c4-1.3,6.7-3.4,8.9-7.9l1.9,15.7l-31.6,9.8l-0.1-0.3
			c2.5-4.4,0.2-10.2-1.6-15.7l-12.3-39.6c-1.7-5.5-3.1-11.7-7.7-13.9l-0.1-0.4l19.5-6l0.1,0.3c-2.5,4.4-0.1,10.3,1.7,15.9
			L702.7,1042z"/>
		<path class="st0" d="M745,1026.9c2.9,0.6,5.6-0.2,8.1-1.2c3.8-1.6,6.4-3.9,8.1-8.6l3.2,15.5l-30.6,12.5l-0.2-0.3
			c2.1-4.6-0.7-10.2-2.8-15.5l-15.7-38.4c-2.2-5.4-4.1-11.4-8.8-13.2l-0.1-0.3l18.9-7.7l0.1,0.3c-2.2,4.6,0.7,10.3,3,15.7
			L745,1026.9z"/>
		<path class="st0" d="M785.7,1008.6c2.9,0.1,5.5-0.9,7.9-2.1c3.8-1.9,6.8-4.6,7-10.5l0.3-0.2l5,16.3l-29.9,15.3l-0.2-0.3
			c1.8-4.8-1.6-10.1-4.2-15.2l-18.9-37c-2.6-5.1-5-11-9.8-12.3l-0.2-0.3l23.6-12.1c1-0.5,2.1-1.1,2.6-1.9l0.2-0.1l7.3,14.3l-0.2,0.1
			c-4.2-3.7-7.8-1.3-11.1,0.4l-2.2,1.1l8.2,16l6.3-3.2c0.9-0.5,1.8-1.1,2.2-1.8l0.3-0.2l7.1,13.9l-0.3,0.2c-3-3.5-5.9-1.5-8.4-0.2
			l-2.2,1.1L785.7,1008.6z"/>
		<path class="st0" d="M858.3,982.5c-2.3,1.4-7.3,1.4-10,1.2c-7-0.4-10.2-2.8-17.2-6.8l-27.6-16l-0.2,0.1l15.9,24.7
			c3.5,5.4,6.2,9.5,11.4,11.6l0.2,0.3l-12.3,7.9l-0.2-0.3c0.3-5.6-2.3-9.8-5.7-15.2l-20.8-32.2c-4.6-7.2-6.5-9.5-13.6-13l-0.2-0.3
			l13.3-8.5l0.2,0.3l43.8,25L819.6,937c-3.5-5.4-6.2-9.5-11.4-11.6l-0.2-0.3l12.2-7.9l0.2,0.3c-0.3,5.6,2.3,9.8,5.8,15.2
			L858.3,982.5z"/>
		<path class="st0" d="M865.5,900.2c-5.2-0.5-9.9,0.7-13.5,3.5c-8.1,6.6-2.6,17.9,5.9,28.3c9.7,11.9,21.5,18.3,30.2,11.2
			c4.6-3.7,6.7-9.6,8.1-15.9l7.4,15c-2.6,4.6-6.1,8.4-10,11.6c-6,4.9-12.2,7.5-21.8,5.4c-9.1-1.9-18.1-8-25.3-16.8
			c-6.5-7.9-11-18.2-11.2-26.9c-0.1-9.2,4.4-16.3,10.1-21l9.8-6.1L865.5,900.2z"/>
		<path class="st0" d="M918.1,913c2.8-0.8,4.9-2.6,6.8-4.4c3-3,5.2-6.5,3.6-12.1l0.3-0.3l9.7,14.1l-23.9,23.6l-0.2-0.2
			c0.2-5.1-4.6-9.1-8.6-13.2l-29.3-29.5c-4.1-4.1-8.1-9-13.1-8.7l-0.2-0.2l18.8-18.7c0.8-0.8,1.7-1.6,1.9-2.6l0.2-0.2l11.4,11.5
			l-0.2,0.2c-5.1-2.3-7.8,1.2-10.5,3.8l-1.7,1.7l12.7,12.8l5-5c0.8-0.8,1.4-1.6,1.6-2.4l0.3-0.3l10.9,11.1l-0.2,0.3
			c-3.9-2.4-6.1,0.3-8.1,2.3l-1.8,1.7L918.1,913z"/>
		<path class="st0" d="M967.1,841l10.2,4.4c1.7,0.7,2.2,0.9,3.8,2c2.9,2.1,3.3,4.1,3.6,6.5l0.3,0.2l13.6-18.4l-0.1-0.1l-0.2-0.1
			c-7.3,0-9.6-1.2-16.4-4l-54.6-22.5l-11,15l0.3,0.2c2.1-0.4,4.5-0.3,6.9,1.5c1.9,1.4,4.7,4.9,6.2,6.6l29.5,34.8
			c3.8,4.5,5.8,7.2,7.2,11.8l0.3,0.2l9.2-12.5l-0.3-0.2c-2.2,0.1-4.1,0.4-6.6-1.5c-1.9-1.4-4.2-4.1-5.6-5.8l-5-6L967.1,841z
			 M957.3,836.9l-6.1,8.3l-14.6-17l0-0.1L957.3,836.9z"/>
		<path class="st0" d="M1014.9,810.6c-1.7,2.1-4.8,3.8-7.7,4.8c-6.1,2.1-10.2,0.9-17.5-1.5l-40.3-13.3c-4.8-1.6-8.8-2.5-13-1.7
			l-0.3-0.2l8.1-14.3l0.1,0l48.6,17l0.1-0.2l-23.9-19.7c-1.7-1.4-4.9-4-6.8-5.1c-2.9-1.7-8.9-3.2-11.6-2.7l-0.3-0.2l7.8-13.9
			l0.3,0.2c0.3,0.3,0.9,0.9,1.5,1.2c3.7,2.1,7.4,3.2,11.3,4.4l35.3,11.7l0.1-0.2L981.2,755c-2.1-1.8-4.7-4.1-7.1-5.5
			c-2.9-1.7-5.9-2-8.5-1.9l-0.3-0.2l6.3-11.1l0.3,0.2l56.9,50.2c-2.1,1.9-5,3.4-7.9,4.5c-4.6,1.8-8.6,1.1-14.3-0.8l-26.2-8.4
			L1014.9,810.6z"/>
		<path class="st0" d="M1027.9,731.5l10.9,1.8c1.8,0.2,2.4,0.3,4.1,1c3.3,1.4,4.2,3.2,5.1,5.5l0.3,0.1l8.8-21.2l-0.1,0l-0.2-0.1
			c-7.1,1.7-9.6,1.1-16.9,0.1l-58.4-8.7l-7.1,17.2l0.3,0.1c1.9-0.8,4.3-1.3,7.1-0.2c2.2,0.9,5.7,3.7,7.6,4.9l37,26.7
			c4.7,3.4,7.3,5.6,9.8,9.7l0.3,0.1l6-14.4l-0.3-0.1c-2.1,0.6-3.9,1.3-6.8,0.2c-2.2-0.9-5-3-6.9-4.3l-6.3-4.6L1027.9,731.5z
			 M1017.5,729.8l-4,9.5l-18.3-13l0.1-0.1L1017.5,729.8z"/>
		<path class="st0" d="M1035.1,683.5l25.7-1.7c7.4-0.6,9-2.7,10-7.7l1.9-10.3c-4.3,1.9-9.5,2.7-14.8,3.3l-23.8,2.5
			c-1.6-5.7-6.3-11.2-14.4-13.5c-7.2-2.1-13.4-1.5-18.1,1.8c-3.5,2.5-4.2,5.5-5.3,9.1l-6.3,21.5l0.3,0.1c4.4-2.6,10.3-0.3,15.8,1.3
			l39.7,11.5c5.6,1.6,11.8,2.9,14.1,7.4l0.3,0.1l5.7-19.6l-0.3-0.1c-4.4,2.6-10.3,0.4-15.8-1.3L1035.1,683.5z M1005.5,674.1
			c0.4-1.5,1.1-2.9,2.7-3.8c2.6-1.4,6.5-1.3,9.9-0.3c6.7,2,11.4,6.9,11.3,11.8l-24.1-7L1005.5,674.1z"/>
		<path class="st0" d="M1060.6,648.4c5.7,1,12,1.6,14.8,5.8l0.3,0l2.9-16.8c1.5-8.4,3.3-15.7-3.5-23.9c-5.7-6.9-16.1-11.9-26.7-13.8
			c-11.8-2-23.7-0.7-31.8,4.8c-8.1,5.5-8.9,13.1-10.2,21.2l-2.8,15.8l0.3,0.1c1.2-1.2,3.8-1.9,6.1-1.8c3.2,0.2,13.2,1.9,16.9,2.6
			L1060.6,648.4z M1019,626.9c-0.2-1.7-0.2-3.4,0.1-5.1c1.6-9.2,15.6-9.5,26.9-7.5c5.8,1,11.6,2.7,16.3,5.6
			c5.6,3.5,7.2,6.9,6.3,11.5c-0.3,1.4-0.7,2.7-1.6,3.9L1019,626.9z"/>
	</g>
	<polygon class="st0" points="763.2,50.9 765.7,61.4 776.2,58.9 773.7,48.5 	"/>
	<polygon class="st0" points="776,46.5 778.6,56.9 789,54.5 786.5,44 	"/>
	
		<rect x="779.1" y="58.6" transform="matrix(0.9728 -0.2318 0.2318 0.9728 6.5249 183.5941)" class="st0" width="10.8" height="10.8"/>
	<polygon class="st0" points="623.8,13.4 617.5,4.6 608.7,10.9 615,19.6 	"/>
	<polygon class="st0" points="652,104.1 657.3,113.5 666.7,108.2 661.4,98.8 	"/>
	<polygon class="st0" points="668.7,108.8 674,118.2 683.4,112.9 678.1,103.5 	"/>
	<path class="st4" d="M785.9,127.3L785.9,127.3L785.9,127.3z"/>
	<g>
		<path class="st0" d="M785.9,127.3L785.9,127.3c-0.2-0.1-0.3-0.2-0.5-0.3c0.1,0.1,0.2,0.2,0.3,0.2L785.9,127.3z"/>
		<path class="st0" d="M881,104.4c-1.3,0.4-15.8,3-18.5,3.2l-33.5,48l-7.8,11.2l-0.1,0.2l4.1,2.9l6.9,4.8l7.4-10.6l0-0.1l0.2-0.2
			L881,104.4z"/>
		<path class="st0" d="M78,525.9l-47.7-1l10.7,12.3l37,1.6c18.4,0.1,27.9,12.2,27.9,26.9l0.1-13C106,538,96.4,526,78,525.9"/>
		<path class="st0" d="M162.3,237.3l-0.1-0.1l0,0.1l-46.9-41.4c0.3,1.3,2.4,15.9,2.4,18.7l36.5,33.5L162.3,237.3z"/>
		<path class="st0" d="M192,266c0,0-10.5-1.4-3.1-11.3c0,0-12.9,5.2-8.2,13.3c3,5.1,6.9,3.8,6.9,3.8l-2.8,3.6l4.1,9.4l15.4-20.3
			l-7.2-5.5L192,266z"/>
	</g>
	
		<rect x="34.5" y="349.3" transform="matrix(0.9081 -0.4187 0.4187 0.9081 -144.8611 49.299)" class="st0" width="10.8" height="10.8"/>
	<polygon class="st0" points="0,529.4 7.2,537.4 15.2,530.1 8,522.2 	"/>
	<polygon class="st0" points="53,341.1 48.5,331.3 38.8,335.8 43.3,345.6 	"/>
	<polygon class="st0" points="118.3,437.3 109,442.6 103.6,433.3 112.9,427.9 	"/>
	<polygon class="st0" points="122.8,420.5 113.5,425.9 108.1,416.5 117.4,411.2 	"/>
	<g>
		<path class="st4" d="M71.3,456.2l0,0.3C71.3,456.4,71.3,456.3,71.3,456.2"/>
		<path class="st0" d="M128.1,302.1c0,0,1.4-2.5-0.1,0.2C128.1,302.3,127.9,302,128.1,302.1"/>
	</g>
	<polygon class="st0" points="98.8,399.8 98.8,399.8 98.7,399.8 	"/>
	<g>
		<path class="st0" d="M178.2,230.7C178.1,230.9,178.4,230.5,178.2,230.7c-6.7,7.8-18,22.7-24.1,31.1l0.1,0.1l-0.1,0.1l4.4,12.8
			l1.1,3.4c13.1-22.6,37.9-49.5,57.4-68.6l-0.9-1.1l-9.3-8.6l-0.2-0.2l0,0l-53-48.2c0.2,1.3,0.9,16.1,0.7,18.8l43.2,39.2l-1.8,1.9
			l-8.6,9.3l-52.7-48.2c0.2,1.3,1,16,0.9,18.8L178.2,230.7z"/>
	</g>
	<polygon class="st0" points="65.6,496.4 67.8,496.7 65.6,496.4 	"/>
	<g>
		<path class="st0" d="M98.9,399.8l-0.1,0L98.9,399.8L98.9,399.8z M109.9,261.1c1.8,5.3-15.7,30,0.9,45.6c1,1,6,4.4,10.5,7.3
			c-1.2,2.5-4.1,8.1-4.2,8.1c0,0-5.5,10.8-5.4,11c-3.8,7.9-7.5,15.8-10.9,23.9l0,0.1c-0.8,2.1-1.8,4.1-2.7,6.2l-34.6-12.7
			c0.7,1.2,6.9,14.5,7.8,17.1l22.1,8.1c-2.5,6.7-4.8,13.4-7,20.3l0,0l-0.1,0.5c-1.8,5.6-3.5,11.3-5.1,17L48,405.5
			c0.8,1.1,8.4,13.7,9.5,16.3l20.3,4.9c-1.9,7.5-3.6,15.1-5.1,22.8c-0.3,1.6-0.6,3.1-1,4.7c-0.1,0.7-0.2,1.4-0.4,2.1
			c0,0.1,0,0.2,0,0.3c-2.3,13-4.2,26.2-5.5,39.6L5.5,488c0.9,1,9.9,12.6,11.3,15l47.9,6.4l12.2,1.7l0-0.1l1.6,0.2
			c3.8-56.9,17.7-111.5,40.6-161.6l4.6-9l0,0l9.7-19.1l0.1,0.1l0.6-1l16.3-28.6l3-4.5L109.9,261.1z"/>
		<path class="st5" d="M120.7,298.6c0.4,0.2,7.5,4.5,7.7,4.7c0-0.1,6-10.7,6.2-10.7l-16.7-10.8C117.2,283.1,115,295.3,120.7,298.6"
			/>
	</g>
	
		<rect x="212" y="108.1" transform="matrix(0.1755 -0.9845 0.9845 0.1755 67.5571 307.621)" class="st0" width="10.8" height="10.8"/>
	<polygon class="st0" points="225.4,107.9 235.1,108.5 237,97.9 227.3,97.3 	"/>
	<polygon class="st0" points="306,60.3 295.8,56.7 292.3,66.9 302.5,70.5 	"/>
	<polygon class="st0" points="477.1,1.5 472.7,11.4 482.5,15.8 487,6 	"/>
	<polygon class="st0" points="380.2,123.5 389.7,128.5 394.7,118.9 385.1,114 	"/>
	<polygon class="st0" points="396.7,118.3 406.3,123.2 411.2,113.7 401.7,108.7 	"/>
	<g>
		<path class="st0" d="M533.2,61.8c-13.8-43.8-45.9-35.1-53.3-18.9c16.5-12.9,33.3,1.4,36.4,20l-2,0.3l-2.2,0.1v0
			c-6.1,0.5-23.1,2-28.4,2.6c-20.1,2.5-39.7,6.2-58.9,11.1L404.1,9c-0.6,1.3-7.4,14.3-9,16.5l16.8,55c-7,2-19.1,6-26,8.3l-11.5-32.7
			c-0.4,1-9.3,15.4-9.1,15.5l8.1,21.5c-4.7,1.7-4.2,1.7-8.9,3.6l-0.6,0.2l0,0.1c-7.3,2.9-14.4,6-21.5,9.3l-2.2,0.9l-15.6-33
			c-1.4,5.4-29.6,16.3-24.5,38.5c0.3,1.5,2.9,7.7,5.1,12.9c-0.7,0.4-1.4,0.8-2.1,1.2l-1.7,1c-11.2,6.5-22,13.5-32.5,20.9l-22.1-29.4
			c-0.4,5.6-26.1,21.6-16.8,42.4c1,2.3,10.1,15.7,12.1,18.2l3.2,4.2l0.9-0.7l26.1-20.1l4.5-3l-0.1-0.1c8.6-6.1,17.5-11.9,26.6-17.4
			c3.8-2.3,11.2-7,11.2-7l26.9-13.5l4.8-2.3c5.4-2.5,10.9-5.1,16.5-7.4c5.1-2.2,10.3-4.2,15.5-6.2c19.3-7.3,39.1-13.3,59.5-18
			c4.9-1.1,9.9-2.3,14.8-3.3c20.1-4,40.7-6.7,61.6-8l0,0.1c6.9-0.6,13.9-1.1,20.8-1.3l4.4,0.1l3.6-12.7l0.3-0.9L533.2,61.8z"/>
		<path class="st5" d="M242.5,157.8c0.3,0.4,5.1,7,5.3,7.3c0-0.1,9.7-7.6,9.8-7.5l-11.2-16.4C245.2,142.1,238.4,152.6,242.5,157.8"
			/>
		<path class="st5" d="M313,111.3c0.2,0.4,3.7,7.9,3.8,8.2c0,0,11-5.6,11.1-5.5L320,95.7C318.6,96.4,310.1,105.5,313,111.3"/>
	</g>
	<polygon class="st0" points="910.6,161.2 921.4,161.3 921.4,150.5 910.7,150.5 	"/>
	<polygon class="st0" points="922.8,173.6 933.5,173.6 933.6,162.9 922.9,162.8 	"/>
	<g>
		<path class="st0" d="M875.1,195.1c-0.5,0.5,5.6-5.3,6.5-6.3 M876.2,177.2c-2.2,1.4-14.1,12.3-16.3,14.6l-3.7,3.8l0.9,0.8
			l23.6,22.9l3.6,4l36.2-35.6C915,188.1,895.4,165,876.2,177.2"/>
		<path class="st0" d="M978.7,238.3l6.9-5.8l-5.6-6.7c0,0,3.7-10,11.7-0.5c0,0-2.2-13.8-11.1-10.9c-5.6,1.8-5.2,5.9-5.2,5.9
			l-2.9-3.5l-10.1,2L978.7,238.3z"/>
	</g>
	<polygon class="st0" points="941.5,192.7 952,195.2 954.5,184.7 944.1,182.2 	"/>
	<polygon class="st0" points="976.9,420.3 980.3,410 970.1,406.6 966.7,416.8 	"/>
	<g>
		<path class="st0" d="M875.1,195.1c-0.5,0.5,5.6-5.3,6.5-6.3 M876.2,177.2c-2.2,1.4-14.1,12.3-16.3,14.6l-3.7,3.8l0.9,0.8
			l23.6,22.9l3.6,4l36.2-35.6C915,188.1,895.4,165,876.2,177.2"/>
		<path class="st0" d="M1015.1,360.5c16.3,13.2,6.1,32.7-11.3,39.9l-1-2.5c-1.6-4.8-3.3-9.8-5.2-14.9c-1.2-3.4-3.7-10.2-8.3-21
			c-3.2-7.6-6.4-15.1-9.7-22.2l1,2.8c-5-10.7-11.4-23.7-19.6-39.1l0.3-0.2c-1.4-2.4-2.7-4.8-4.2-7.2l61.4-37.3
			c-1.3-0.2-15.7-3.6-18.3-4.5L950,285l-11.1,6.7l-1.3,0.5c0,0,23.4,33.4,41.3,79.9l0.3,0.2c6.3,16,11.9,32.5,16.4,49.3l0.9,4.3
			l13.2,0.7l1,0l-2.2-10C1048.2,393.4,1032.6,364,1015.1,360.5"/>
		<path class="st0" d="M955.7,247.2l-21.8,14.2c-6.9-9.6-14.3-18.9-21.9-27.9l24.8-21.3l-18.1-2.8l-26.8,22.3
			c-13.9,12.1-29.1,9.4-38.7-1.8l8.5,9.8c9.7,11.1,25.9,14.9,39.8,2.8c0,0,1.7,1.5,2,1.9l22.7,29.6l4.1,5.3l11.3-7.1l31.4-20.2
			C971.9,252,955.7,247.1,955.7,247.2"/>
		<path class="st5" d="M881.6,188.8c-0.3,0.3-6.3,6.1-6.5,6.3c0.1,0,8.9,8.5,8.8,8.6l14.6-13.5C897.6,189.3,886.2,184.1,881.6,188.8
			"/>
		<path class="st0" d="M854.3,85.9c-1.3,0.4-15.6,3.9-18.3,4.3l-30.1,49.5c-6.6-4.3-13.2-8.4-19.9-12.3h-0.1l-0.2-0.1
			c-0.2-0.1-0.2-0.1-0.3-0.2c-6.1-3.2-4.8-10.5-4.8-10.8c0.1-0.1,15.3-32.6,15.3-32.6l-0.5,0l-16.5,5.8l-9.9,21.1
			c0,0-2.1,3.1-5.3,4.7c-1.9,0.9-4.2,1.3-6.6,0.1c-2.8-1.3-4-3.6-4.5-5.8c-0.7-3.3,0-6.5,0-6.5l0-0.1l15.1-32.4l0-0.1l-17.1,5.8
			c0,0-10.1,21.4-10.2,21.7c-0.7,0.9-2.3,2.8-4.6,4c-1.9,1-4.3,1.5-7,0.3c-2.5-1.1-3.7-3.1-4.3-5.1c-1-3.5-0.8-7.8-0.8-7.8
			l13.9-33.2L720.7,62c0,0-8.7,21.9-8.8,22.1c-0.6,0.8-4.6,6.2-10.4,4.3c-1.2-0.4-2.4-0.8-3.6-1.2l-4.4-1.5l0,0
			c-3.9-1.3-6.6-2.3-10.6-3.5l10.6-38c-0.9,0.7-15.8,8.3-17.6,9.1l-6.9,25c-4.4-1.2-8.9-2.3-13.4-3.4l-3.7-0.9
			c-6.4-1.5-8.3-2-14.7-3.2c-7.5-0.6-10.6-8.5-8.9-18.4l0.2-0.7l7,1.2l2.7-13.1L601,33.5c-4.5-0.8-10.4-1.5-14.6,3l-10.9,11.3
			c4.1-3.3,6-2.7,13.1-2.1c0,0,8,1.1,13.6,1.9c-15.3,4.4-26.4,16.9-26.4,31.7c0,18.4,17.2,33.3,38.4,33.3c6.9,0,11.9-1.6,15.6-4.4
			c-2.7,0.8-5.6,1.3-8.7,1.3c-16.4,0-29.8-13.4-29.8-29.8c0-14.1,9.8-25.9,22.9-29c-1.5,5.4-1.1,12.6,0.2,16.5
			c2.8,8.3,9.5,13.6,18.6,17c0,0,18.3,4.1,25.4,5.9l23.8,6.7c3,0.9,5.9,2,8.9,3c3.7,1.2,7.3,2.4,10.9,3.7c3.7,0.4,7.2,0,10-1.2
			c0.1,0.2,0.1,0.2,0.2,0.3c0.7,2.1,1.8,4.2,3.4,6.1c1.8,2.3,4.3,4.4,7.8,6c4.1,1.9,7.7,2.3,11,1.9c2-0.2,4-0.7,5.7-1.4
			c0.6,1.7,1.4,3.5,2.6,5.1c1.9,2.9,4.6,5.5,8.8,7.4c3.7,1.7,7,2.2,10,2c2.3-0.1,4.4-0.6,6.3-1.4c0.1,0,0.2,0,0.3,0
			c0.8,2.7,2.3,5.2,4.5,7.5c5,2.8,10,5.7,14.8,8.6c1.1,0.7,2.2,1.4,3.4,2.1c5.6,3.5,11.1,7.1,16.5,10.8l2.4,1.5l0.2-0.2l0.1,0.1
			l6.8-11l0,0l0.2-0.3L854.3,85.9z"/>
	</g>
</g>
</svg>
